<?xml version="1.0" encoding="UTF-8"?>
<svg width="325px" height="175px" viewBox="0 0 325 175" version="1.1" xmlns="http://www.w3.org/2000/svg" xmlns:xlink="http://www.w3.org/1999/xlink">
    <title>diamond stripes</title>
    <defs>
        <polygon id="path-1" points="151 0 302 80 151 160 0 80"></polygon>
    </defs>
    <g id="diamond-stripes" stroke="none" stroke-width="1" fill="none" fill-rule="evenodd">
        <g id="Group" transform="translate(11.000000, 7.000000)">
            <mask id="mask-2" fill="white">
                <use xlink:href="#path-1"></use>
            </mask>
            <g id="Mask"></g>
            <g mask="url(#mask-2)" stroke="#979797" stroke-linecap="square" stroke-width="7">
                <g transform="translate(21.000000, -2.000000)">
                    <line x1="0.5" y1="169.458599" x2="0.5" y2="0.541401274" id="Line-Copy"></line>
                    <line x1="26.2" y1="169.458599" x2="26.2" y2="0.541401274" id="Line-Copy-2"></line>
                    <line x1="51.9" y1="169.458599" x2="51.9" y2="0.541401274" id="Line-Copy-3"></line>
                    <line x1="77.6" y1="169.458599" x2="77.6" y2="0.541401274" id="Line-Copy-4"></line>
                    <line x1="103.3" y1="169.458599" x2="103.3" y2="0.541401274" id="Line-Copy-5"></line>
                    <line x1="129" y1="169.458599" x2="129" y2="0.541401274" id="Line-Copy-6"></line>
                    <line x1="154.7" y1="169.458599" x2="154.7" y2="0.541401274" id="Line-Copy-7"></line>
                    <line x1="180.4" y1="169.458599" x2="180.4" y2="0.541401274" id="Line-Copy-8"></line>
                    <line x1="206.1" y1="169.458599" x2="206.1" y2="0.541401274" id="Line-Copy-9"></line>
                    <line x1="231.8" y1="169.458599" x2="231.8" y2="0.541401274" id="Line-Copy-10"></line>
                    <line x1="257.5" y1="169.458599" x2="257.5" y2="0.541401274" id="Line-Copy-11"></line>
                </g>
            </g>
        </g>
        <polygon id="Path-3-Copy" stroke="#979797" stroke-width="10" points="162 7 313 87 162 167 11 87"></polygon>
    </g>
</svg>