<?xml version="1.0" encoding="UTF-8"?>
<svg width="49px" height="52px" viewBox="0 0 49 52" version="1.1" xmlns="http://www.w3.org/2000/svg" xmlns:xlink="http://www.w3.org/1999/xlink">
    <title>Group 63</title>
    <g id="Page-1" stroke="none" stroke-width="1" fill="none" fill-rule="evenodd">
        <g id="vectorstock_1327683" transform="translate(-382.000000, -187.000000)" fill="#0A0B09">
            <g id="Group-63" transform="translate(382.100782, 187.909811)">
                <path d="M37.7502184,41.7381885 C32.4162184,46.7911885 24.5542184,48.9751885 17.4062184,47.3011885 C10.9532184,45.7891885 5.42521845,40.9311885 3.23921845,34.6761885 C-0.315781551,24.5191885 4.94621845,12.2811885 14.4062184,7.99918852 C14.6402184,9.09818852 15.4842184,10.0491885 16.9412184,10.0491885 C17.1072184,10.0491885 17.2632184,10.0311885 17.4142184,10.0081885 C13.8282184,12.5591885 10.7272184,16.3631885 10.5332184,20.5071885 C10.5092184,21.0181885 10.9502184,21.3281885 11.4032184,21.3771885 C14.4762184,21.7131885 17.8252184,19.4681885 19.8092184,17.0751885 C19.7722184,24.6471885 22.1632184,34.4181885 15.1952184,39.6621885 C14.9722184,39.8301885 15.0912184,40.2241885 15.3942184,40.1381885 C15.8152184,40.0171885 16.2012184,39.8551885 16.5582184,39.6601885 C19.6942184,39.1451885 22.7992184,38.4601885 25.9872184,38.3011885 C29.3372184,38.1341885 32.3572184,39.0071885 35.6292184,39.4181885 C36.1362184,39.4831885 36.1702184,38.8071885 35.8592184,38.5731885 C33.1662184,36.5331885 29.2102184,36.4891885 25.9872184,36.8111885 C23.2522184,37.0821885 20.5522184,37.7131885 17.9492184,38.5961885 C19.9232184,36.5451885 20.5272184,33.1301885 20.7242184,30.4021885 C21.0502184,25.8531885 20.1852184,21.3501885 20.0712184,16.8151885 C20.0712184,16.7971885 20.0652184,16.7821885 20.0582184,16.7691885 C20.1642184,16.6341885 20.2662184,16.5021885 20.3602184,16.3681885 C20.6782184,15.9221885 20.0872184,15.5321885 19.6942184,15.7021885 C17.1512184,16.7941885 15.1892184,19.3381885 12.3612184,19.6211885 C12.7422184,17.2971885 14.3352184,15.2071885 15.8312184,13.4861885 C17.5042184,11.5591885 19.3392184,9.61118852 21.5082184,8.22818852 C21.7162184,9.96718852 23.2272184,11.3521885 25.0172184,11.3521885 C26.5142184,11.3521885 27.8172184,10.3781885 28.3242184,9.04118852 C34.5702184,11.3451885 41.3392184,14.7021885 43.8292184,21.2351885 C46.5442184,28.3651885 43.0032184,36.7631885 37.7502184,41.7381885 Z M3.52621845,13.5001885 C3.30821845,12.9071885 3.27121845,12.6381885 3.31321845,12.0281885 C3.31621845,11.9981885 3.31921845,11.9701885 3.32421845,11.9421885 C3.32521845,11.9291885 3.32821845,11.9101885 3.33221845,11.8801885 C3.35421845,11.7571885 3.38621845,11.6381885 3.42021845,11.5191885 C3.43021845,11.4831885 3.49621845,11.3161885 3.50721845,11.2771885 C3.54721845,11.1891885 3.59021845,11.1031885 3.63721845,11.0201885 C3.68221845,10.9421885 3.73221845,10.8671885 3.78221845,10.7921885 C3.79021845,10.7801885 3.79621845,10.7751885 3.80021845,10.7661885 C3.82821845,10.7331885 3.85821845,10.6981885 3.88721845,10.6651885 C3.95721845,10.5841885 4.03221845,10.5121885 4.11021845,10.4411885 C4.13621845,10.4181885 4.15121845,10.4041885 4.16121845,10.3941885 C4.17221845,10.3851885 4.19021845,10.3731885 4.21621845,10.3541885 C4.28321845,10.3111885 4.34821845,10.2711885 4.41921845,10.2321885 C4.44921845,10.2131885 4.48421845,10.1971885 4.51721845,10.1801885 C4.51921845,10.1781885 4.51921845,10.1781885 4.52021845,10.1781885 C4.67521845,10.1211885 4.83921845,10.0871885 5.00221845,10.0541885 C5.01321845,10.0541885 5.02621845,10.0541885 5.04821845,10.0541885 C5.08021845,10.0521885 5.11321845,10.0541885 5.14421845,10.0541885 C5.18321845,10.0641885 5.25121845,10.0891885 5.28721845,10.0981885 C5.32821845,10.1191885 5.36821845,10.1421885 5.40621845,10.1671885 C5.42521845,10.1861885 5.50521845,10.2481885 5.52321845,10.2671885 C5.63721845,10.3801885 5.55121845,10.2771885 5.64721845,10.4181885 C5.77121845,10.6011885 5.84821845,10.7901885 5.91421845,10.9971885 C5.84521845,11.6351885 5.71021845,12.4881885 6.10921845,12.9171885 C6.10621845,12.9871885 6.10521845,13.0551885 6.10121845,13.1241885 C6.09921845,13.1351885 6.10521845,13.1451885 6.10521845,13.1561885 C5.90921845,13.3631885 5.72521845,13.5761885 5.53821845,13.7891885 C5.53521845,13.7391885 5.52921845,13.6901885 5.52721845,13.6381885 C5.47321845,12.8681885 5.43621845,12.1751885 5.19321845,11.4381885 C5.11321845,11.1931885 4.77321845,11.1931885 4.69321845,11.4381885 C4.47821845,12.0931885 4.42521845,12.6871885 4.37821845,13.3711885 C4.33921845,13.9631885 4.21021845,14.5441885 4.51221845,15.0391885 C4.46921845,15.0951885 4.42121845,15.1491885 4.38021845,15.2071885 C4.18221845,14.5911885 3.71621845,14.0171885 3.52621845,13.5001885 Z M19.4622184,6.64018852 C20.2192184,6.54618852 20.9872184,6.48318852 21.7602184,6.45018852 C21.5912184,6.84718852 21.4962184,7.28018852 21.4822184,7.73318852 C20.7022184,8.05518852 19.9022184,8.45218852 19.1052184,8.91618852 C19.5272184,8.25618852 19.6452184,7.40618852 19.4622184,6.64018852 Z M37.5132184,7.15818852 C39.2572184,7.73318852 38.9782184,10.2251885 38.5312184,11.6001885 C38.4182184,11.5281885 38.3022184,11.4601885 38.1882184,11.3891885 C38.2572184,10.4641885 38.0982184,9.50718852 37.9452184,8.61018852 C37.8662184,8.14318852 37.0872184,8.14518852 37.0052184,8.61018852 C36.8982184,9.24118852 36.7722184,9.88418852 36.6652184,10.5261885 C36.2492184,10.3071885 35.8292184,10.0981885 35.3992184,9.90118852 C35.4402184,8.56518852 35.8462184,6.61318852 37.5132184,7.15818852 Z M39.6092184,12.3261885 C39.6512184,12.2741885 39.6902184,12.2141885 39.7172184,12.1421885 C40.5462184,9.93618852 40.4162184,6.71118852 37.7852184,5.82118852 C36.8552184,5.50518852 35.8362184,5.91018852 35.2832184,6.69818852 C35.0852184,6.98118852 34.9522184,7.29018852 34.8632184,7.61118852 C34.8222184,7.07518852 34.8322184,6.53718852 34.8682184,6.00318852 C35.0172184,3.72118852 35.9172184,1.67818852 37.8532184,0.37318852 C37.9242184,0.32618852 37.8652184,0.22918852 37.7882184,0.26118852 C35.7272184,1.16318852 34.4762184,2.87418852 33.7522184,4.95818852 C33.4722184,5.76818852 33.1552184,7.66818852 33.4072184,9.08218852 C31.8302184,8.50018852 30.1962184,8.05418852 28.5502184,7.75718852 C28.5172184,5.85518852 26.9242184,4.27918852 25.0172184,4.27918852 C23.5802184,4.27918852 22.3222184,5.17218852 21.7732184,6.42618852 C20.9802184,6.42218852 20.2032184,6.47018852 19.4442184,6.56718852 C19.1682184,5.52818852 18.3342184,4.66118852 16.9412184,4.66118852 C15.0032184,4.66118852 14.1482184,6.33818852 14.3732184,7.82018852 C12.0962184,8.62618852 9.96121845,9.79718852 8.01121845,11.3901885 C8.13621845,9.85918852 7.52821845,7.72718852 6.64921845,6.96018852 C5.11521845,5.61818852 3.50321845,5.04018852 1.46521845,5.44618852 C1.38721845,5.46118852 1.41421845,5.56818852 1.48321845,5.57318852 C3.46221845,5.76218852 4.87021845,6.89818852 5.52821845,8.53618852 C4.88721845,8.28718852 4.14321845,8.37218852 3.47721845,8.74218852 C2.44221845,9.31918852 1.74121845,10.4771885 1.57621845,11.6341885 C1.46921845,12.3961885 1.52821845,13.1511885 1.75921845,13.8871885 C2.02721845,14.7411885 2.50421845,15.7941885 3.33221845,16.2051885 C3.43221845,16.2561885 3.53621845,16.2781885 3.63521845,16.2841885 C1.60221845,19.4381885 0.405218449,23.0911885 0.0792184488,26.8811885 C-1.08678155,40.3631885 10.7972184,51.1231885 23.9552184,50.4311885 C35.7732184,49.8101885 45.8002184,40.7471885 47.3522184,29.0451885 C48.3122184,21.7971885 44.8582184,16.0771885 39.6092184,12.3261885 L39.6092184,12.3261885 Z" id="Fill-332"></path>
                <path d="M19.5742184,1.01218852 C17.1502184,0.52718852 13.1442184,2.26118852 12.9912184,5.04818852 C12.9752184,5.29218852 13.2742184,5.36618852 13.4332184,5.23018852 C14.3232184,4.47418852 15.1692184,3.68918852 16.2132184,3.14018852 C17.3052184,2.57018852 18.5352184,2.19118852 19.6602184,1.66418852 C19.9352184,1.53518852 19.8672184,1.07018852 19.5742184,1.01218852" id="Fill-333"></path>
                <path d="M27.6902184,1.28218852 C26.5882184,0.56318852 24.1352184,-0.69381148 22.9882184,0.48118852 C22.8082184,0.66618852 22.7582184,0.96418852 22.8972184,1.19018852 C23.5062184,2.17918852 25.0812184,2.23918852 26.0582184,2.70018852 C27.4202184,3.34218852 28.9192184,4.29418852 29.7222184,5.59018852 C29.8042184,5.72618852 30.0262184,5.67518852 30.0222718,5.50918852 C30.0032184,3.73918852 29.1642184,2.24918852 27.6902184,1.28218852" id="Fill-334"></path>
            </g>
        </g>
    </g>
</svg>