<?xml version="1.0" encoding="UTF-8"?>
<svg width="59px" height="56px" viewBox="0 0 59 56" version="1.1" xmlns="http://www.w3.org/2000/svg" xmlns:xlink="http://www.w3.org/1999/xlink">
    <title>Group 23</title>
    <g id="Page-1" stroke="none" stroke-width="1" fill="none" fill-rule="evenodd">
        <g id="vectorstock_1327683" transform="translate(-127.000000, -353.000000)" fill="#0A0B09">
            <g id="Group-23" transform="translate(127.752488, 353.212020)">
                <path d="M23.5185123,19.6219804 C19.8435123,19.6219804 19.8435123,25.3219804 23.5185123,25.3219804 C27.1955123,25.3219804 27.1955123,19.6219804 23.5185123,19.6219804" id="Fill-452"></path>
                <path d="M36.3395123,20.5059804 C32.2665123,20.5059804 32.2665123,26.8229804 36.3395123,26.8229804 C40.4115123,26.8229804 40.4115123,20.5059804 36.3395123,20.5059804" id="Fill-453"></path>
                <path d="M39.4015123,35.0739804 C35.7265123,38.8739804 31.9325123,41.4289804 26.4785123,41.6089804 C20.0555123,41.8199804 14.5545123,38.5129804 13.1415123,31.9969804 C13.1275123,31.9339804 13.0295123,31.9499804 13.0305047,32.0109804 C13.1385123,46.1539804 38.2395123,50.1739804 40.6165123,35.7819804 C40.7265123,35.1099804 39.9495123,34.5089804 39.4015123,35.0739804" id="Fill-454"></path>
                <path d="M40.8785123,46.6489804 C32.9075123,54.8249804 21.6315123,51.3769804 14.7525123,43.8789804 C9.83151225,38.5129804 8.44751225,30.7049804 10.3175123,23.8269804 C10.5055123,23.1379804 10.7425123,22.4849804 10.9975123,21.8499804 C13.6135123,20.2269804 16.3905123,18.8159804 19.1505123,17.4429804 C15.9475123,20.1869804 15.1535123,25.3699804 18.7755123,28.4819804 C22.4535123,31.6469804 27.0205123,28.8339804 29.1285123,24.9809804 C29.0985123,27.4689804 28.4575123,29.8549804 27.2605123,32.0569804 C27.1515123,32.2589804 27.1825123,32.4949804 27.3415123,32.6629804 C28.2545123,33.6349804 30.9125123,33.5179804 32.0985123,33.1449804 C32.9975123,32.8629804 32.8765123,31.3739804 31.8675123,31.4439804 C30.9155123,31.5069804 29.9975123,31.5669804 29.0415123,31.5369804 C28.8505123,31.5319804 28.6815123,31.5219804 28.5215123,31.5199804 C29.2815123,29.3199804 29.5505123,27.0169804 29.2865123,24.6959804 C29.4375123,24.3949804 29.5785123,24.0929804 29.6995123,23.7869804 C31.9235123,29.1889804 37.9945123,32.7669804 42.5155123,26.7169804 C45.2185123,23.0999804 43.6785123,19.3259804 40.8215123,17.1879804 C42.0055123,17.4969804 43.1825123,17.9969804 44.3115123,18.6119804 C49.3095123,28.1039804 49.2005123,38.1059804 40.8785123,46.6489804 Z M28.0455123,10.2999804 C30.3255123,14.6749804 36.4815123,15.7049804 40.9065123,15.6909804 C41.4445123,15.6889804 41.9885123,15.6549804 42.5285123,15.5939804 C42.9215123,16.2099804 43.3005123,16.8309804 43.6555123,17.4529804 C42.5805123,17.1239804 41.4635123,16.9119804 40.2825123,16.8169804 C37.4275123,14.9839804 33.5445123,14.7199804 31.1325123,17.5629804 C31.0165123,17.7019804 31.1225123,17.9589804 31.3255123,17.8899804 C33.6105123,17.1019804 35.3905123,16.5599804 37.8335123,17.1159804 C41.5995123,17.9689804 43.2705123,21.5149804 41.7615123,24.9939804 C40.3555123,28.2409804 37.1125123,29.1969804 34.0975123,27.7679804 C31.7885123,26.6739804 30.5635123,24.3599804 30.2065123,21.9479804 C30.3495123,21.0439804 30.3295123,20.1489804 30.1105123,19.3179804 C29.9185123,18.6019804 28.8375123,18.7579804 28.8295123,19.4919804 C28.5965123,23.8949804 25.0935123,29.9819804 19.7205123,27.2579804 C14.4065123,24.5659804 18.6935123,17.2019804 22.6705123,16.0769804 C22.8815123,16.0179804 22.7915123,15.7089804 22.5795123,15.7509804 C21.7845123,15.9129804 21.0505123,16.2029804 20.3795123,16.5779804 C17.9285123,17.4159804 14.9415123,18.4569804 11.9975123,19.7959804 C15.2505123,14.1229804 21.4685123,11.0269804 28.0455123,10.2999804 Z M32.4565123,3.15298039 C31.2985123,4.42898039 30.6305123,5.99998039 30.9875123,7.72598039 C31.8375123,11.8119804 38.2685123,13.5059804 41.6485123,11.5369804 C46.8045123,8.53398039 35.9255123,-0.436019615 34.2275123,7.69398039 C34.1605123,8.00598039 34.3155123,8.42798039 34.6765123,8.48698039 C36.0185123,8.69898039 37.1285123,8.83398039 38.4775123,8.64898039 C38.6815123,8.62298039 38.6475123,8.32398039 38.4775123,8.27198039 C37.0145123,7.84598039 34.7215123,7.93798039 36.3375123,6.18398039 C37.1395123,5.31398039 38.5695123,5.93998039 39.3805123,6.39698039 C40.9115123,7.25898039 42.7245123,9.62398039 40.0955123,10.2779804 C36.7745123,11.1089804 30.8195123,9.60598039 32.8965123,5.20598039 C34.5775123,1.64598039 39.0625123,1.35198039 42.3565123,2.23098039 C45.8375123,3.16298039 48.9525123,5.79098039 48.0335123,9.65998039 C47.2245123,13.0719804 42.0675123,13.2239804 39.3805123,13.2489804 C36.6925123,13.2769804 33.7625123,12.8349804 31.4405123,11.4159804 C30.7985123,11.0239804 30.2105123,10.5029804 29.6915123,9.91998039 C29.6815123,9.83098039 29.6235123,9.75498039 29.5185123,9.74198039 C28.9425123,9.05598039 28.4795123,8.27998039 28.1925123,7.47098039 C27.2045123,4.68998039 30.3785123,3.53698039 32.4565123,3.15298039 Z M49.7335123,20.7759804 C48.4935123,19.7809804 47.2575123,18.9869804 45.9835123,18.3639804 C45.2965123,17.3429804 44.5325123,16.3669804 43.7315123,15.4129804 C47.5795123,14.6569804 50.9765123,12.3069804 50.8205123,7.86198039 C50.6325123,2.38898039 43.6025123,-0.114019615 39.0735123,0.00398038515 C36.9425123,0.0589803851 34.2245123,1.25198039 32.5175123,3.08798039 C32.5135123,3.06298039 32.4945123,3.03898039 32.4625123,3.03998039 C28.1545123,3.27598039 26.0415123,5.89598039 27.8355123,9.85698039 C20.0765123,10.6909804 14.2915123,14.7629804 11.0265123,20.2549804 C6.09751225,22.6239804 1.49151225,25.8439804 0.0265122511,30.3739804 C-0.147487749,30.9159804 0.577512251,31.3029804 0.961512251,30.9159804 C3.94851225,27.9219804 6.16851225,25.0059804 9.78551225,22.5999804 C9.80151225,22.5889804 9.81751225,22.5789804 9.83351225,22.5689804 C6.43851225,30.3009804 7.58351225,40.0879804 14.5955123,47.7479804 C22.6645123,56.5589804 34.5715123,56.7539804 43.4195123,49.1909804 C52.8665123,41.1159804 52.6195123,29.9089804 47.3605123,20.5919804 C48.1595123,21.1909804 48.9055123,21.7999804 49.5755123,22.3809804 C52.4765123,24.9129804 54.0775123,27.9739804 56.1015123,31.1169804 C56.4855123,31.7069804 57.2675123,31.3019804 57.1755123,30.6629804 C56.6175123,26.7429804 52.6405123,23.1119804 49.7335123,20.7759804 L49.7335123,20.7759804 Z" id="Fill-455"></path>
            </g>
        </g>
    </g>
</svg>