<?xml version="1.0" encoding="UTF-8"?>
<svg width="58px" height="56px" viewBox="0 0 58 56" version="1.1" xmlns="http://www.w3.org/2000/svg" xmlns:xlink="http://www.w3.org/1999/xlink">
    <title>Group 33</title>
    <g id="Page-1" stroke="none" stroke-width="1" fill="none" fill-rule="evenodd">
        <g id="vectorstock_1327683" transform="translate(-377.000000, -471.000000)" fill="#0A0B09">
            <g id="Group-33" transform="translate(377.730034, 471.406668)">
                <path d="M49.107966,38.1673317 C49.344966,37.0723317 49.514966,35.9473317 49.601966,34.8013317 C50.411966,24.0863317 44.296966,15.7063317 35.262966,12.1563317 C35.333966,11.8973317 35.382966,11.6393317 35.417966,11.3813317 C39.189966,12.1583317 42.794966,11.8633317 46.401966,13.6313317 C49.382966,15.0923317 51.471966,17.7183317 52.900966,20.6403317 C54.477966,23.8643317 55.009966,27.5993317 55.315966,31.1323317 C55.466966,32.8783317 55.500966,34.6393317 55.572966,36.3913317 C55.658966,38.4963317 51.666966,38.3043317 49.107966,38.1673317 Z M52.342966,17.6553317 C49.084966,12.5433317 41.419966,9.29333174 35.459966,10.7533317 C35.554966,6.87933174 31.815966,3.24033174 28.551966,1.66733174 C23.241966,-0.890668259 17.045966,-0.424668259 12.048966,2.51233174 C-0.293033961,9.75833174 -2.41603396,28.2133317 2.34996604,40.4673317 C2.43996604,40.6953317 2.67096604,40.8083317 2.90096604,40.6883317 C5.20996604,39.4743317 7.51496604,38.4583317 9.97796604,37.5873317 C10.094966,37.5463317 10.085966,37.3473317 9.94596604,37.3543317 C8.71096604,37.4243317 7.72096604,37.6633317 6.56396604,38.1563317 C5.28096604,38.7023317 3.13896604,40.5493317 2.52796604,38.6693317 C1.44596604,35.3353317 0.988966039,31.8263317 0.895966039,28.3343317 C0.717966039,21.5503317 2.53896604,14.6543317 6.41196604,9.06133174 C10.420966,3.27333174 16.890966,0.144331741 23.859966,1.18833174 C26.712966,1.61533174 29.447966,2.82333174 31.626966,4.71133174 C34.025966,6.78233174 34.192966,9.14233174 34.328966,11.8123317 C31.911966,10.9703317 29.308966,10.4603317 26.582966,10.3373317 C26.148966,10.3183317 26.086966,10.9523317 26.482966,11.0703317 C29.202966,11.8853317 31.872966,12.5603317 34.426966,13.5013317 C34.430966,13.5373317 34.430966,13.5693317 34.435966,13.6043317 C34.444966,13.7013317 34.570966,13.7483317 34.623966,13.6553317 C34.635966,13.6343317 34.646966,13.6123317 34.660966,13.5903317 C37.014966,14.4713317 39.270966,15.5923317 41.377966,17.2753317 C46.395966,21.2863317 48.098966,27.6373317 48.095966,33.8233317 C48.095966,35.3073317 47.939966,36.7413317 47.655966,38.1143317 C47.623966,38.1143317 47.582966,38.1113317 47.554966,38.1113317 C47.445966,38.1143317 47.445966,38.2793317 47.554966,38.2813317 C47.577966,38.2813317 47.599966,38.2813317 47.619966,38.2813317 C45.370966,48.6613317 35.382966,55.2653317 24.418966,52.1503317 C16.256966,49.8293317 11.297966,41.4763317 10.689966,33.4053317 C9.99896604,24.2083317 15.693966,16.5483317 24.433966,14.0463317 C24.539966,14.0183317 24.495966,13.8583317 24.387966,13.8833317 C14.812966,16.3443317 9.09996604,24.1713317 9.69096604,34.0343317 C10.237966,43.1373317 16.400966,51.5513317 25.329966,53.8823317 C37.114966,56.9633317 46.655966,49.1053317 49.075966,38.3143317 C51.340966,38.3643317 53.610966,38.4113317 55.875966,38.4623317 C56.022966,38.4653317 56.130966,38.3383317 56.136966,38.1953317 C56.503966,31.2623317 56.185966,23.6853317 52.342966,17.6553317 L52.342966,17.6553317 Z" id="Fill-550"></path>
                <path d="M24.047966,21.9273317 C20.791966,21.9273317 20.791966,26.9803317 24.047966,26.9803317 C27.306966,26.9803317 27.306966,21.9273317 24.047966,21.9273317" id="Fill-551"></path>
                <path d="M35.260966,20.8093317 C33.865966,20.8093317 32.700966,21.9733317 32.700966,23.3683317 C32.700966,24.7633317 33.865966,25.9293317 35.260966,25.9293317 C36.657966,25.9293317 37.821966,24.7633317 37.821966,23.3683317 C37.821966,21.9733317 36.657966,20.8093317 35.260966,20.8093317" id="Fill-552"></path>
                <path d="M36.344966,32.8833317 C30.496966,32.4433317 30.561966,23.8623317 32.071966,19.7713317 C32.098966,19.6943317 31.987966,19.6543317 31.947966,19.7203317 C29.319966,23.8393317 29.510966,32.3633317 34.904966,33.8753317 C33.010966,35.2053317 31.238966,35.2923317 28.749966,35.5873317 C28.342966,35.6353317 28.115966,36.1683317 28.527966,36.4073317 C31.274966,37.9943317 34.730966,35.7733317 36.777966,33.9283317 C37.203966,33.5423317 36.838966,32.9213317 36.344966,32.8833317" id="Fill-553"></path>
                <path d="M33.415966,44.0653317 C32.793966,46.1723317 31.440966,48.4963317 29.024966,48.6553317 C25.024966,48.9153317 24.254966,42.9153317 23.279966,39.6943317 C26.582966,41.8963317 30.570966,42.7193317 33.831966,41.1683317 C33.627966,42.1343317 33.631966,43.3283317 33.415966,44.0653317 Z M37.933966,35.8993317 C32.557966,44.5353317 22.099966,40.9683317 18.032966,33.0573317 C17.939966,32.8783317 17.694966,33.0353317 17.769966,33.2103317 C18.873966,35.7633317 20.808966,37.9923317 23.089966,39.5633317 C24.079966,43.4603317 24.222966,49.8943317 29.489966,49.6593317 C31.621966,49.5613317 33.009966,47.6303317 33.812966,45.8793317 C34.271966,44.8843317 35.395966,41.9773317 34.978966,40.4983317 C36.325966,39.5583317 37.497966,38.1423317 38.373966,36.1553317 C38.501966,35.8593317 38.112966,35.6143317 37.933966,35.8993317 L37.933966,35.8993317 Z" id="Fill-554"></path>
                <path d="M32.666966,17.5223317 C32.618966,17.5713317 32.654966,17.6753317 32.728966,17.6673317 C33.919966,17.5543317 34.996966,17.4683317 36.158966,17.8383317 C37.637966,18.3103317 38.253966,19.5803317 39.452966,20.3633317 C39.622966,20.4743317 39.913966,20.3323317 39.888966,20.1133317 C39.574966,17.4483317 34.628966,15.7053317 32.666966,17.5223317" id="Fill-555"></path>
                <path d="M25.146966,17.5333317 C22.864966,16.9113317 19.280966,17.4643317 18.363966,20.0423317 C18.277966,20.2803317 18.567966,20.4503317 18.761966,20.3473317 C19.761966,19.8293317 20.460966,18.9063317 21.493966,18.3873317 C22.594966,17.8363317 23.920966,17.6633317 25.133966,17.6333317 C25.190966,17.6323317 25.203966,17.5493317 25.146966,17.5333317" id="Fill-556"></path>
            </g>
        </g>
    </g>
</svg>