<?xml version="1.0" encoding="UTF-8"?>
<svg width="54px" height="50px" viewBox="0 0 54 50" version="1.1" xmlns="http://www.w3.org/2000/svg" xmlns:xlink="http://www.w3.org/1999/xlink">
    <title>Group 47</title>
    <g id="Page-1" stroke="none" stroke-width="1" fill="none" fill-rule="evenodd">
        <g id="vectorstock_1327683" transform="translate(-189.000000, -356.000000)" fill="#0A0B09">
            <g id="Group-47" transform="translate(189.322536, 356.494669)">
                <path d="M35.6434636,5.20733107 C35.2244636,4.88133107 34.7384636,5.56433107 35.0914636,5.92033107 C42.4964636,13.3483311 45.1844636,23.9113311 41.3844636,33.7833311 C37.5484636,43.7493311 27.5394636,48.5403311 17.3794636,45.6483311 C6.1104636,42.4453311 -1.2675364,32.3053311 2.6054636,20.7713311 C6.0644636,10.4743311 16.4814636,3.16033107 27.1274636,2.49133107 C27.3004636,2.48033107 27.3034636,2.21633107 27.1274636,2.22028608 C15.8744636,2.60133107 5.4264636,9.91133107 1.3474636,20.4253311 C-3.3575364,32.5583311 4.9074636,42.9783311 16.0904636,47.0633311 C27.0974636,51.0833311 38.2404636,45.6313311 42.9354636,35.1913311 C47.6564636,24.7063311 44.7304636,12.2083311 35.6434636,5.20733107" id="Fill-437"></path>
                <path d="M28.5514636,21.0873311 C28.5354636,20.9333311 28.4564636,20.8013311 28.3004636,20.7573311 C25.4904636,19.9673311 22.2614636,20.2323311 21.0064636,23.2493311 C19.8094636,26.1223311 23.5414636,26.8223311 25.4344636,26.1623311 C25.8424636,26.0203311 25.8074636,25.3243311 25.3284636,25.3653311 C22.9774636,25.5643311 20.4114636,24.5493311 22.7524636,22.0883311 C23.5354636,21.2633311 24.7544636,21.0453311 25.8254636,20.9733311 C28.3194636,20.8163311 28.0194636,22.6293311 27.6874636,24.4053311 C26.7004636,29.6773311 20.5694636,32.8803311 16.3134636,29.0793311 C8.0804636,21.7303311 18.9294636,8.49833107 25.7624636,4.64933107 C25.9354636,4.55033107 25.7854636,4.29933107 25.6114636,4.38433107 C18.2254636,8.10833107 8.9454636,18.8343311 13.6364636,27.5163311 C15.3834636,30.7493311 19.1114636,33.3673311 22.8464636,31.7373311 C27.0084636,29.9223311 28.9654636,25.4583311 28.5514636,21.0873311" id="Fill-438"></path>
                <path d="M22.8064636,11.8693311 C20.6714636,11.8693311 20.6714636,15.1783311 22.8064636,15.1783311 C24.9394636,15.1783311 24.9394636,11.8693311 22.8064636,11.8693311" id="Fill-439"></path>
                <path d="M12.7204636,12.0253311 C11.7074636,12.0253311 10.8644636,12.8713311 10.8644636,13.8823311 C10.8644636,14.8953311 11.7074636,15.7403311 12.7204636,15.7403311 C13.7324636,15.7403311 14.5774636,14.8953311 14.5774636,13.8823311 C14.5774636,12.8713311 13.7324636,12.0253311 12.7204636,12.0253311" id="Fill-440"></path>
                <path d="M34.6304636,34.7243311 C33.7994636,36.4543311 32.6894636,38.1293311 31.0484636,39.1773311 C29.3274636,40.2813311 27.2574636,39.6393311 25.4894636,38.8863311 C29.3284636,37.8453311 32.8474636,35.2703311 35.4614636,31.9303311 C35.7064636,31.6213311 35.9434636,31.2843311 36.1744636,30.9283311 C35.7194636,32.2163311 35.2234636,33.4903311 34.6304636,34.7243311 Z M33.6974636,15.0173311 C33.3844636,14.9253311 33.1644636,15.3253311 33.3854636,15.5513311 C35.5464636,17.7843311 37.2824636,19.6333311 37.4064636,22.9173311 C37.5164636,25.8823311 36.0524636,28.7543311 34.4164636,31.1263311 C30.2714636,37.1303311 22.1934636,40.8123311 15.2574636,37.6303311 C15.2184636,37.6123311 15.1854636,37.6663311 15.2234636,37.6873311 C18.3594636,39.3953311 21.5994636,39.7323311 24.6634636,39.0853311 C31.8034636,45.7393311 36.2084636,34.5743311 37.7964636,27.6943311 C39.6614636,22.7833311 39.5384636,16.6743311 33.6974636,15.0173311 L33.6974636,15.0173311 Z" id="Fill-441"></path>
                <path d="M27.4874636,0.798331071 C18.9464636,0.00233107111 9.1334636,2.10033107 4.0534636,9.69833107 C3.7524636,10.1513311 4.3834636,10.5113311 4.7454636,10.2313311 C8.2924636,7.48833107 11.5254636,4.93233107 15.7294636,3.26533107 C19.3804636,1.81833107 23.5954636,1.18633107 27.4874636,1.03333107 C27.6444636,1.02633107 27.6364636,0.811331071 27.4874636,0.798331071" id="Fill-442"></path>
                <path d="M44.5034636,9.33633107 C41.8304636,5.39533107 36.9164636,1.25433107 31.8024636,2.32433107 C31.7704636,2.33033107 31.7704636,2.38133107 31.8024636,2.38733107 C37.1564636,3.53633107 40.6424636,6.27533107 43.5984636,10.8783311 C46.3574636,15.1743311 46.6924636,19.8343311 48.3344636,24.4413311 C48.4744636,24.8313311 49.0214636,24.8593311 49.1504636,24.4413311 C50.6424636,19.6013311 47.1664636,13.2653311 44.5034636,9.33633107" id="Fill-443"></path>
                <path d="M44.6994636,4.01233107 C41.0194636,0.991331071 36.1544636,-0.519668929 31.4424636,0.161331071 C31.4034636,0.169331071 31.4144636,0.226331071 31.4504636,0.229331071 C36.4784636,0.496331071 40.7574636,2.26233107 44.5254636,5.59033107 C46.2304636,7.09833107 47.5684636,8.97033107 48.7094636,10.9233311 C49.7244636,12.6493311 50.0224636,14.6943311 51.2004636,16.2923311 C51.4974636,16.6973311 52.0564636,16.5413311 52.1144636,16.0463311 C52.6144636,11.5933311 47.8504636,6.60233107 44.6994636,4.01233107" id="Fill-444"></path>
            </g>
        </g>
    </g>
</svg>