<?xml version="1.0" encoding="UTF-8"?>
<svg width="54px" height="54px" viewBox="0 0 54 54" version="1.1" xmlns="http://www.w3.org/2000/svg" xmlns:xlink="http://www.w3.org/1999/xlink">
    <title>Group 16</title>
    <g id="Page-1" stroke="none" stroke-width="1" fill="none" fill-rule="evenodd">
        <g id="vectorstock_1327683" transform="translate(-70.000000, -243.000000)" fill="#1B1A19">
            <g id="Group-16" transform="translate(70.762120, 243.038156)">
                <path d="M26.8658796,30.064844 C26.2358796,31.385844 24.0878796,30.395844 23.5348796,29.539844 C22.7788796,28.372844 23.6548796,26.316844 23.9848796,25.145844 C24.0308796,24.987844 23.9708796,24.864844 23.8708796,24.785844 C24.9028796,24.752844 25.9338796,24.653844 26.9928796,24.548844 C27.2588796,26.336844 27.6558796,28.407844 26.8658796,30.064844 Z M28.0988796,23.812844 C28.0428796,23.492844 27.6968796,23.331844 27.3838796,23.375844 C25.0728796,23.696844 22.7838796,23.968844 20.5028796,24.445844 C20.4428796,24.457844 20.4508796,24.545844 20.5078796,24.556844 C21.4418796,24.733844 22.3518796,24.797844 23.2588796,24.797844 C23.2258796,24.826844 23.1928796,24.859844 23.1698796,24.899844 C22.3018796,26.382844 21.6548796,28.055844 22.2028796,29.752844 C22.7398796,31.421844 25.0398796,32.339844 26.7458796,31.880844 C29.9038796,31.032844 28.4708796,25.866844 28.0988796,23.812844 L28.0988796,23.812844 Z" id="Fill-244"></path>
                <path d="M10.3288796,27.196844 C10.2798796,26.757844 9.88987958,26.477844 9.46787958,26.313844 C8.89187958,26.097844 8.18287958,26.603844 8.31887958,27.198844 C8.32887958,27.248844 8.34487958,27.297844 8.36187958,27.345844 C8.33987958,27.597844 8.42687958,27.864844 8.59387958,28.036844 C8.65087958,28.096844 8.71887958,28.143844 8.79487958,28.187844 C8.79187958,28.187844 8.78687958,28.187844 8.78287958,28.187844 C8.80487958,28.204844 8.83987958,28.207844 8.86487958,28.224844 C8.87587958,28.228844 8.88787958,28.233844 8.89787958,28.237844 C8.98687958,28.281844 9.08487958,28.305844 9.19487958,28.314844 C9.22687958,28.317844 9.25887958,28.318844 9.28987958,28.319844 C9.31987958,28.318844 9.34887958,28.321844 9.37887958,28.317844 C9.41087958,28.314844 9.44387958,28.310844 9.47287958,28.304844 C9.58987958,28.327844 9.70887958,28.338844 9.81687958,28.336844 C10.4188796,28.330844 10.7098796,27.594844 10.3288796,27.196844" id="Fill-245"></path>
                <path d="M24.4678796,26.588844 C24.0148796,26.566844 23.5948796,26.820844 23.5388796,27.268844 C23.5348796,27.291844 23.5388796,27.311844 23.5388796,27.331844 C23.4818796,27.456844 23.4588796,27.599844 23.4858796,27.752844 C23.5788796,28.317844 24.1618796,28.515844 24.6878796,28.365844 C25.0468796,28.263844 25.4938796,27.949844 25.4898796,27.553844 C25.4848796,26.969844 25.0748796,26.614844 24.4678796,26.588844" id="Fill-246"></path>
                <path d="M20.8468796,37.733844 C20.7748796,37.362844 20.5018796,36.979844 20.0948796,36.865844 C18.1298796,36.306844 16.3618796,36.690844 14.4948796,37.132844 C16.1328796,33.577844 17.5078796,30.158844 18.0378796,26.226844 C18.0478796,26.156844 17.9338796,26.128844 17.9158796,26.201844 C16.8858796,30.441844 14.9448796,34.095844 12.4868796,37.753844 C12.1208796,38.296844 12.4678796,39.019844 13.2018796,38.968844 C14.5238796,38.874844 15.8338796,38.732844 17.1598796,38.743844 C18.4378796,38.754844 19.4798796,39.299844 20.6208796,38.668844 C20.8208796,38.559844 20.9718796,38.378844 20.9268796,38.145844 C20.8998796,38.007844 20.8748796,37.872844 20.8468796,37.733844" id="Fill-247"></path>
                <path d="M38.5958796,45.181844 C38.1498796,45.138844 37.7058796,45.087844 37.2618796,45.025844 C37.7588796,44.561844 38.3688796,43.927844 38.9008796,43.214844 C38.7928796,43.754844 38.6868796,44.290844 38.5868796,44.821844 C38.5638796,44.953844 38.5688796,45.073844 38.5958796,45.181844 Z M7.91387958,28.976844 C7.41587958,27.908844 7.74987958,26.252844 8.71387958,25.505844 C8.90587958,25.354844 8.94187958,25.154844 8.89187958,24.970844 C9.96787958,25.206844 11.0628796,25.337844 12.1688796,25.393844 C12.2138796,26.931844 11.9068796,28.678844 10.8158796,29.814844 C9.93087958,30.729844 8.33887958,29.887844 7.91387958,28.976844 Z M46.7438796,15.998844 C48.6158796,8.87784401 42.7278796,2.61684401 35.8878796,0.661844006 C28.7048796,-1.39515599 21.5238796,1.45684401 18.0068796,7.63084401 C17.9898796,7.65984401 18.0368796,7.68784401 18.0548796,7.65784401 C21.1668796,2.49184401 28.0358796,0.483844006 33.9788796,1.34784401 C40.8888796,2.35584401 47.2378796,8.49284401 45.7918796,15.371844 C43.9288796,14.287844 41.8878796,13.785844 39.7828796,13.498844 C41.0358796,9.66284401 39.6288796,5.77484401 35.5858796,3.97584401 C31.2308796,2.03884401 26.5448796,2.47384401 22.9448796,5.55084401 C22.9178796,5.57384401 22.9558796,5.61084401 22.9808796,5.58784401 C29.1838796,0.183844006 41.8808796,4.46984401 38.7338796,13.304844 C38.7248796,13.328844 38.7278796,13.348844 38.7238796,13.371844 C37.6138796,13.251844 36.4908796,13.170844 35.3718796,13.077844 C36.9548796,11.306844 36.6248796,8.40084401 34.7988796,6.77184401 C32.6118796,4.82284401 29.7898796,4.43784401 27.1488796,5.71984401 C27.1178796,5.73484401 27.1468796,5.77984401 27.1768796,5.76484401 C29.4538796,4.67584401 32.1268796,5.52684401 33.7478796,7.25784401 C35.4538796,9.07884401 35.4608796,10.893844 34.4808796,13.004844 C30.8088796,12.700844 24.0148796,12.302844 25.5568796,7.39484401 C25.5698796,7.35384401 25.5028796,7.32784401 25.4858796,7.36684401 C22.4508796,14.406844 36.3438796,14.005844 40.3478796,14.623844 C46.4248796,15.557844 50.1228796,20.118844 50.8938796,25.671844 C51.7768796,32.031844 49.1458796,38.415844 48.5888796,44.705844 C48.5828796,44.765844 48.5848796,44.821844 48.5918796,44.875844 C47.6268796,44.989844 46.6608796,45.088844 45.6958796,45.165844 C45.7388796,45.097844 45.7768796,45.019844 45.7968796,44.926844 C48.0948796,35.052844 51.9818796,20.770844 39.3318796,15.691844 C35.8798796,14.303844 32.1208796,14.526844 28.4568796,14.390844 C26.5728796,14.321844 24.6518796,14.166844 22.8888796,13.503844 C20.0308796,12.430844 20.4858796,9.34684401 21.4368796,7.13284401 C21.4488796,7.10284401 21.3958796,7.08784401 21.3828796,7.11884401 C20.3028796,9.69784401 19.6638796,12.426844 22.6198796,14.005844 C25.4308796,15.509844 29.3818796,15.227844 32.4788796,15.408844 C38.3328796,15.751844 43.5768796,18.254844 45.6138796,23.784844 C48.0548796,30.406844 45.6488796,37.989844 44.1518796,44.537844 C44.0828796,44.838844 44.1848796,45.085844 44.3618796,45.255844 C43.0268796,45.330844 41.6938796,45.347844 40.3678796,45.295844 C40.3798796,45.252844 40.3938796,45.210844 40.4018796,45.162844 C41.2618796,39.424844 42.6988796,33.653844 42.5588796,27.824844 C42.4698796,24.124844 41.1678796,20.544844 37.6298796,18.639844 C31.0718796,15.109844 14.3338796,21.323844 17.6108796,8.69084401 C17.6238796,8.64484401 17.5508796,8.62984401 17.5358796,8.67384401 C16.4678796,11.610844 16.1118796,14.800844 19.0538796,16.822844 C22.0588796,18.888844 26.6478796,18.689844 30.1668796,18.873844 C32.6328796,19.001844 35.1248796,19.140844 37.3118796,20.325844 C39.6798796,21.609844 40.4878796,24.340844 40.7568796,26.726844 C41.2178796,30.833844 40.5208796,35.154844 39.6898796,39.345844 C39.6478796,39.359844 39.6108796,39.381844 39.5828796,39.414844 C39.0528796,40.047844 38.9428796,40.767844 38.5968796,41.506844 C38.0068796,42.776844 36.9408796,43.854844 35.8568796,44.793844 C35.7168796,44.765844 35.5748796,44.745844 35.4338796,44.717844 C30.7798796,43.746844 27.5458796,38.445844 33.2688796,36.127844 C36.6658796,34.750844 37.3178796,41.020844 33.2008796,39.768844 C33.1598796,39.755844 33.1328796,39.821844 33.1738796,39.837844 C35.3168796,40.681844 37.3708796,38.910844 36.4128796,36.739844 C34.9548796,33.438844 30.4408796,36.150844 29.2348796,38.208844 C27.1218796,41.807844 31.0528796,44.512844 34.5388796,45.848844 C32.7848796,47.130844 30.7688796,48.102844 28.7168796,48.860844 C25.5888796,50.013844 21.9798796,50.214844 18.6678796,50.461844 C14.5358796,50.773844 10.3558796,50.710844 6.20887958,50.595844 C9.73287958,44.921844 8.93387958,37.936844 9.40787958,31.565844 C9.54487958,31.576844 9.68587958,31.582844 9.83187958,31.576844 C13.1028796,31.457844 13.7398796,27.134844 13.4948796,24.778844 C13.4588796,24.433844 13.1988796,24.139844 12.8028796,24.146844 C11.8888796,24.163844 10.9958796,24.145844 10.1158796,24.081844 C10.4168796,23.569844 10.3828796,23.044844 10.5088796,22.445844 C10.7578796,21.267844 11.5108796,20.233844 12.3388796,19.358844 C13.7388796,17.876844 15.9758796,16.547844 18.0378796,16.141844 C18.0688796,16.136844 18.0628796,16.087844 18.0298796,16.089844 C15.4518796,16.341844 13.4248796,16.971844 11.5648796,18.721844 C10.4348796,19.785844 8.61487958,22.443844 9.47587958,24.022844 C8.91387958,23.961844 8.35987958,23.875844 7.80787958,23.755844 C8.11087958,22.951844 7.91787958,22.061844 8.09787958,21.212844 C8.38087958,19.870844 9.25987958,18.653844 10.1678796,17.625844 C11.7038796,15.884844 14.3358796,14.298844 16.7508796,14.077844 C16.7938796,14.073844 16.8048796,14.013844 16.7618796,14.005844 C13.8048796,13.535844 11.4038796,15.031844 9.45987958,17.015844 C8.20987958,18.292844 5.84387958,21.858844 7.28687958,23.630844 C6.48987958,23.424844 5.70587958,23.145844 4.92987958,22.761844 C4.89787958,22.746844 4.86887958,22.782844 4.89287958,22.806844 C5.73087958,23.736844 6.53187958,24.290844 7.72887958,24.674844 C5.15487958,26.422844 5.94687958,31.147844 9.23087958,31.548844 C8.65987958,35.176844 8.49987958,39.118844 7.72887958,42.853844 C7.60387958,42.729844 7.41287958,42.676844 7.18787958,42.806844 C6.56987958,43.168844 5.95487958,43.296844 5.24187958,43.399844 C5.20387958,43.404844 5.18787958,43.464844 5.23387958,43.470844 C5.96687958,43.577844 6.70587958,43.655844 7.44787958,43.614844 C7.48687958,43.612844 7.52187958,43.603844 7.55587958,43.598844 C7.49587958,43.852844 7.44387958,44.110844 7.37887958,44.366844 C5.59687958,44.196844 3.77587958,44.875844 2.04387958,44.159844 C0.863879576,43.669844 0.111879576,41.015844 1.73987958,40.598844 C2.71687958,40.349844 3.92687958,40.884844 4.69487958,41.410844 C6.13587958,42.393844 4.79987958,42.988844 3.59687958,43.103844 C3.49687958,43.112844 3.50387958,43.250844 3.60387958,43.250844 C4.51887958,43.233844 6.41387958,42.926844 5.53187958,41.655844 C4.78287958,40.576844 3.16987958,39.844844 1.81587958,39.926844 C-0.148120424,40.044844 -0.232120424,42.226844 0.237879576,43.596844 C1.03987958,45.946844 4.72487958,45.935844 6.99487958,45.673844 C6.40387958,47.510844 5.58987958,49.261844 4.39787958,50.845844 C4.10587958,51.234844 4.38987958,51.848844 4.90987958,51.868844 C12.9788796,52.190844 22.1828796,52.640844 29.8268796,49.722844 C31.9938796,48.893844 34.0028796,47.700844 35.7938796,46.277844 C36.3648796,46.451844 36.8978796,46.582844 37.3588796,46.665844 C41.0908796,47.339844 44.8728796,47.214844 48.6488796,46.829844 C49.2178796,45.570844 49.7878796,44.309844 50.3668796,43.054844 C51.7728796,34.001844 55.7768796,22.424844 46.7438796,15.998844 L46.7438796,15.998844 Z" id="Fill-248"></path>
                <path d="M20.9348796,46.415844 C19.5608796,45.515844 17.4768796,45.669844 15.8658796,45.756844 C14.2588796,45.845844 12.0178796,45.831844 10.6808796,46.746844 C10.6238796,46.785844 10.6438796,46.860844 10.7068796,46.879844 C12.2778796,47.339844 14.2808796,46.972844 15.9448796,47.092844 C17.4808796,47.205844 19.2768796,47.688844 20.7698796,47.289844 C21.1438796,47.188844 21.2648796,46.632844 20.9348796,46.415844" id="Fill-249"></path>
            </g>
        </g>
    </g>
</svg>