<?xml version="1.0" encoding="UTF-8"?>
<svg width="58px" height="45px" viewBox="0 0 58 45" version="1.1" xmlns="http://www.w3.org/2000/svg" xmlns:xlink="http://www.w3.org/1999/xlink">
    <title>Group 80</title>
    <g id="Page-1" stroke="none" stroke-width="1" fill="none" fill-rule="evenodd">
        <g id="vectorstock_1327683" transform="translate(-496.000000, -18.000000)" fill="#0A0B09">
            <g id="Group-80" transform="translate(496.104778, 18.783020)">
                <path d="M45.369222,39.7349798 C42.043222,40.9239798 38.471222,41.3669798 34.970222,41.5909798 C27.462222,42.0749798 19.420222,40.2759798 13.831222,35.0719798 C14.497222,34.6219798 15.153222,34.0579798 15.790222,33.3389798 C16.440222,32.6069798 15.518222,31.3579798 14.668222,31.9689798 C7.06922197,37.4739798 2.48022197,28.1989798 2.15422197,21.5399798 C1.75522197,13.4349798 9.37422197,8.16797982 16.041222,5.84397982 C21.975222,3.77497982 28.466222,3.40797982 34.678222,2.84697982 C36.654222,2.66997982 39.857222,1.22697982 40.046222,3.51397982 C40.261222,6.06897982 40.687222,8.60597982 41.144222,11.1249798 C36.006222,12.3059798 30.660222,15.0489798 26.978222,18.5269798 C26.950222,18.5539798 26.994222,18.6059798 27.022222,18.5809798 C31.333222,15.1169798 36.446222,14.1759798 41.359222,12.2979798 C41.651222,13.8229798 42.006222,15.5399798 42.460222,17.3489798 C42.052222,16.8619798 41.412222,16.5809798 40.618222,16.8149798 C38.325222,17.4899798 39.371222,21.0479798 41.665222,20.3729798 C42.410222,20.1539798 42.796222,19.6299798 42.908222,19.0459798 C44.808222,25.8839798 48.103222,33.3549798 54.081222,35.4269798 C53.105222,35.0869798 46.432222,39.3559798 45.369222,39.7349798 Z M55.716222,34.1249798 C47.817222,31.4539798 44.491222,21.0029798 43.050222,11.6029798 C43.262222,11.5089798 43.471222,11.4189798 43.679222,11.3219798 C43.980222,11.1809798 43.823222,10.6429798 43.493222,10.6889798 C43.307222,10.7129798 43.119222,10.7589798 42.933222,10.7899798 C42.419222,7.18697982 42.166222,3.77397982 42.040222,1.07097982 C42.015222,0.522979823 41.539222,-0.0600201769 40.939222,0.00497982314 C28.210222,1.39997982 6.57522197,0.487979823 1.18822197,15.5009798 C-0.869778027,21.2439798 -0.383778027,27.7819798 3.66622197,32.6579798 C6.51122197,36.0749798 9.96622197,37.2439798 13.217222,35.4499798 C23.857222,46.6679798 45.031222,45.4339798 56.147222,35.5929798 C56.687222,35.1139798 56.286222,34.3189798 55.716222,34.1249798 L55.716222,34.1249798 Z" id="Fill-462"></path>
                <path d="M42.796222,28.3959798 C39.823222,25.5699798 38.700222,21.5539798 37.308222,17.8119798 C37.215222,17.5619798 36.859222,17.6689798 36.913222,17.9289798 C37.739222,21.8699798 38.534222,25.6049798 41.089222,28.7199798 C40.142222,29.2289798 39.181222,29.6939798 38.146222,30.0509798 C36.884222,30.4879798 35.833222,30.2869798 34.783222,31.1179798 C34.534222,31.3169798 34.524222,31.6529798 34.803222,31.8299798 C37.106222,33.3109798 40.708222,30.8619798 42.676222,29.5959798 C43.088222,29.3299798 43.158222,28.7379798 42.796222,28.3959798" id="Fill-463"></path>
                <path d="M33.037222,19.5939798 C30.488222,20.3429798 31.652222,24.2949798 34.198222,23.5459798 C36.747222,22.7969798 35.585222,18.8449798 33.037222,19.5939798" id="Fill-464"></path>
                <path d="M16.346222,24.4639798 C15.112222,25.1479798 13.946222,26.3849798 12.483222,26.4169798 C10.959222,26.4509798 9.57222197,25.2089798 8.72122197,24.0749798 C7.64522197,22.6449798 7.16222197,20.8079798 7.38722197,19.0339798 C7.68622197,16.7029798 9.49122197,15.3669798 10.791222,13.6099798 C10.932222,13.4209798 10.795222,13.1549798 10.547222,13.2149798 C5.02522197,14.5299798 4.61622197,21.8859798 7.45922197,25.7669798 C9.83022197,29.0009798 17.066222,30.7569798 17.342222,25.0069798 C17.369222,24.4819798 16.753222,24.2419798 16.346222,24.4639798" id="Fill-465"></path>
                <path d="M17.674222,19.3989798 C17.479222,19.1609798 17.135222,19.1609798 16.867222,19.2069798 C15.315222,19.4649798 12.859222,20.5539798 12.526222,18.1409798 C12.255222,16.1929798 13.760222,14.2049798 15.139222,13.0019798 C15.252222,12.9009798 15.119222,12.7579798 15.001222,12.7769798 C12.260222,13.2419798 10.388222,16.0449798 10.916222,18.7949798 C11.499222,21.8369798 15.322222,22.5029798 17.541222,20.7149798 C17.839222,20.4739798 18.007222,20.1639798 17.903222,19.7719798 C17.860222,19.6149798 17.774222,19.5209798 17.674222,19.3989798" id="Fill-466"></path>
                <path d="M46.181222,33.1439798 C43.463222,33.9429798 44.704222,38.1589798 47.420222,37.3619798 C50.141222,36.5619798 48.903222,32.3439798 46.181222,33.1439798" id="Fill-467"></path>
            </g>
        </g>
    </g>
</svg>