<?xml version="1.0" encoding="UTF-8"?>
<svg width="49px" height="54px" viewBox="0 0 49 54" version="1.1" xmlns="http://www.w3.org/2000/svg" xmlns:xlink="http://www.w3.org/1999/xlink">
    <title>Group 66</title>
    <g id="Page-1" stroke="none" stroke-width="1" fill="none" fill-rule="evenodd">
        <g id="vectorstock_1327683" transform="translate(-500.000000, -131.000000)" fill="#0A0B09">
            <g id="Group-66" transform="translate(500.798804, 131.609352)">
                <path d="M18.1941962,18.015648 C18.1561962,17.580648 17.9401962,17.170648 17.6031962,16.893648 C17.2541962,16.605648 16.8681962,16.526648 16.4281962,16.526648 C16.0091962,16.526648 15.5631962,16.803648 15.3041962,17.116648 C15.0341962,17.444648 14.9031962,17.871648 14.9381962,18.290648 C14.9771962,18.728648 15.1911962,19.138648 15.5301962,19.414648 C15.8791962,19.703648 16.2651962,19.781648 16.7041962,19.781648 C17.1241962,19.781648 17.5691962,19.504648 17.8261962,19.190648 C18.0971962,18.864648 18.2281962,18.437648 18.1941962,18.015648" id="Fill-378"></path>
                <path d="M7.72219622,20.193648 C7.56819622,19.930648 7.35019622,19.641648 7.06719622,19.500648 C6.82519622,19.349648 6.55919622,19.264648 6.27219622,19.251648 C5.83519622,19.230648 5.39919622,19.392648 5.08219622,19.691648 C4.67919622,20.069648 4.50019622,20.635648 4.59419622,21.166648 C4.68419622,22.124648 5.67419622,22.825648 6.62419622,22.608648 C7.64719622,22.375648 8.27919622,21.133648 7.72219622,20.193648" id="Fill-379"></path>
                <path d="M39.3531962,27.152648 C39.1571962,26.524648 38.9781962,25.900648 38.8641962,25.251648 C38.7041962,24.330648 39.0931962,23.442648 39.3871962,22.593648 C39.9191962,21.042648 40.3701962,18.048648 38.0811962,17.663648 C36.4591962,17.388648 35.7611962,19.759648 36.3121962,20.880648 C36.3841962,21.023648 36.5931962,20.919648 36.5331962,20.775648 C36.1851962,19.916648 36.4721962,19.114648 37.1181962,18.512648 C38.4731962,17.247648 39.2041962,19.546648 39.1101962,20.518648 C38.9721962,21.941648 37.9781962,23.164648 37.7511962,24.581648 C37.5471962,25.875648 38.1071962,27.283648 38.3551962,28.532648 C38.5141962,29.317648 38.5371962,30.121648 37.9691962,30.757648 C37.5881962,31.182648 36.8121962,30.635648 36.4851962,30.392648 C35.7941962,29.882648 34.9611962,30.875648 35.5051962,31.505648 C36.9481962,33.194648 38.9451962,32.676648 39.7541962,30.703648 C40.2061962,29.601648 39.6851962,28.205648 39.3531962,27.152648" id="Fill-380"></path>
                <path d="M44.9301962,34.439648 C43.6551962,41.824648 38.5721962,47.792648 31.1271962,49.339648 C28.4751962,49.890648 25.7531962,50.295648 23.0451962,50.397648 C22.1121962,50.434648 21.1261962,50.441648 20.2181962,50.188648 C20.8511962,49.337648 20.8221962,48.285648 20.7451962,47.115648 C21.5801962,46.845648 22.4001962,46.540648 23.2111962,46.198648 C23.9661962,45.881648 24.6411962,45.127648 25.2491962,44.585648 C25.3311962,44.512648 25.2491962,44.372648 25.1521962,44.380648 C24.4011962,44.450648 23.6521962,44.486648 22.9021962,44.522648 C22.1361962,44.558648 21.3121962,44.879648 20.5381962,45.046648 C20.5021962,44.764648 20.4621962,44.479648 20.4211962,44.196648 C20.8871962,43.933648 21.3171962,43.631648 21.8281962,43.426648 C22.6151962,43.112648 23.4841962,42.996648 24.3051962,42.785648 C26.2361962,42.281648 28.1371962,41.708648 30.1331962,41.529648 C30.2231962,41.521648 30.2271962,41.372648 30.1331962,41.368648 C28.0931962,41.265648 26.0811962,41.561648 24.0581962,41.807648 C22.8941962,41.949648 21.2751962,41.900648 20.1471962,42.519648 C20.0701962,42.066648 19.9941962,41.615648 19.9201962,41.164648 C19.2251962,36.824648 19.0101962,32.415648 18.2801962,28.088648 C18.3051962,28.071648 18.3341962,28.055648 18.3571962,28.036648 C18.5251962,27.921648 18.4111962,27.677648 18.2231962,27.744648 C18.2221962,27.721648 18.2181962,27.698648 18.2141962,27.676648 C18.1881962,27.538648 17.9851962,27.555648 17.9711962,27.692648 C17.9671962,27.741648 17.9651962,27.790648 17.9581962,27.839648 C16.7871962,28.265648 15.4571962,28.296648 14.2601962,28.642648 C12.9621962,29.018648 11.7591962,29.732648 10.5181962,30.298648 C9.45919622,24.569648 9.91019622,18.861648 12.3061962,13.801648 C13.6881962,13.246648 15.0771962,12.677648 16.5031962,12.313648 C14.2851962,12.915648 12.3181962,14.318648 11.8181962,16.730648 C11.0981962,20.215648 13.3271962,24.025648 16.9881962,24.553648 C20.3301962,25.035648 24.1641962,22.554648 24.2131962,18.968648 C24.2281962,17.873648 23.8981962,15.416648 22.9471962,14.143648 C23.4011962,14.200648 23.8491962,14.296648 24.2251962,14.368648 C25.4411962,14.594648 26.6291962,14.964648 27.8201962,15.290648 C30.9671962,16.150648 34.1401962,16.679648 37.3751962,17.048648 C37.4191962,17.054648 37.4361962,16.989648 37.3931962,16.970648 C35.6191962,16.200648 33.9101962,15.397648 32.0301962,14.928648 C30.4081962,14.524648 28.7741962,14.212648 27.1651962,13.760648 C25.1721962,13.205648 22.0541962,12.027648 20.1761962,13.437648 C19.5001962,13.944648 20.3041962,14.975648 20.9741962,14.471648 C21.0061962,14.446648 21.0401962,14.428648 21.0731962,14.407648 C22.6011962,14.983648 22.7691962,17.729648 22.7251962,19.056648 C22.6361962,21.857648 19.0811962,23.722648 16.6141962,23.045648 C13.7371962,22.256648 12.1871962,19.066648 12.8791962,16.243648 C13.5651962,13.437648 16.8891962,12.276648 19.4441962,12.123648 C19.5361962,12.119648 19.5271962,11.965648 19.4371962,11.962648 C18.8541962,11.948648 18.2561962,11.985648 17.6581962,12.072648 C18.1801962,11.989648 18.7071962,11.934648 19.2431962,11.934648 C19.3351962,11.934648 19.3491962,11.781648 19.2571962,11.772648 C17.1751962,11.594648 14.9801962,12.061648 12.8631962,12.703648 C13.6821962,11.194648 14.6811962,9.75064805 15.8761962,8.38864805 C20.4621962,3.16864805 28.0291962,-0.596351954 34.7981962,2.72664805 C40.0461962,5.30464805 42.4431962,11.493648 43.7671962,16.811648 C45.1701962,22.441648 45.9251962,28.689648 44.9301962,34.439648 Z M8.69919622,24.773648 C8.53519622,24.724648 8.35719622,24.740648 8.20319622,24.853648 C5.35319622,27.012648 -0.00280377724,23.053648 1.72219622,19.719648 C2.21219622,18.776648 3.37519622,17.474648 4.70519622,16.571648 C5.54219622,16.157648 6.42619622,15.819648 7.31619622,15.521648 C8.04419622,15.470648 8.72719622,15.681648 9.28119622,16.274648 C9.31319622,16.308648 9.36819622,16.261648 9.34519622,16.223648 C9.05319622,15.748648 8.70219622,15.416648 8.31019622,15.200648 C8.75019622,15.061648 9.18319622,14.928648 9.60819622,14.796648 C9.89019622,14.709648 10.1731962,14.613648 10.4541962,14.512648 C9.14919622,17.770648 8.62119622,21.255648 8.69919622,24.773648 Z M46.6121962,23.727648 C45.4621962,13.577648 41.2141962,-0.615351954 28.5191962,0.0206480456 C22.0211962,0.347648046 16.3481962,4.96864805 12.8011962,10.122648 C12.0921962,11.152648 11.4881962,12.219648 10.9741962,13.317648 C10.2961962,13.549648 9.63019622,13.786648 8.98719622,14.009648 C8.18519622,14.289648 7.29819622,14.583648 6.41419622,14.924648 C3.89819622,15.322648 0.947196223,18.111648 0.264196223,19.895648 C-0.701803777,22.421648 1.13919622,24.891648 3.22819622,26.101648 C4.64519622,26.922648 7.55119622,27.733648 8.77219622,26.314648 C8.88819622,27.971648 9.13519622,29.627648 9.49019622,31.266648 C9.57919622,31.669648 9.99519622,31.810648 10.3471962,31.669648 C11.9581962,31.019648 13.4981962,30.200648 15.0951962,29.520648 C16.0041962,29.133648 17.0391962,28.812648 17.9161962,28.313648 C17.5931962,32.158648 17.8811962,36.073648 18.1401962,39.912648 C18.2661962,41.827648 18.5191962,43.694648 18.8051962,45.588648 C18.8991962,46.223648 18.9491962,46.860648 18.9651962,47.500648 C18.7911962,47.509648 18.6251962,47.576648 18.4951962,47.722648 C17.5471962,48.790648 16.9621962,50.249648 18.1421962,51.411648 C19.2321962,52.481648 21.0731962,52.569648 22.5031962,52.609648 C26.0741962,52.704648 29.7971962,52.005648 33.2361962,51.068648 C38.3371962,49.675648 42.6671962,45.599648 44.8691962,40.879648 C47.3891962,35.474648 47.2671962,29.519648 46.6121962,23.727648 L46.6121962,23.727648 Z" id="Fill-381"></path>
                <path d="M19.2411962,12.793648 C19.2231962,12.793648 19.2201962,12.821648 19.2361962,12.821648 C19.2561962,12.821648 19.2571962,12.793648 19.2411962,12.793648" id="Fill-382"></path>
                <path d="M20.3851962,1.14664805 C20.3641962,1.14664805 20.3681962,1.17364805 20.3861962,1.17364805 C20.4031962,1.17364805 20.4001962,1.14664805 20.3851962,1.14664805" id="Fill-383"></path>
                <path d="M37.8131962,19.489648 C37.6541962,19.326648 37.3781962,19.332648 37.2821962,19.564648 C37.0651962,20.082648 36.9431962,20.614648 36.9431962,21.179648 C36.9441962,21.486648 37.4051962,21.560648 37.4311962,21.238648 C37.4521962,20.959648 37.5091962,20.695648 37.5911962,20.438648 C37.6441962,20.668648 37.6571962,20.913648 37.6521962,21.148648 C37.6471962,21.588648 37.5811962,22.079648 37.5171962,22.516648 C37.4771962,22.769648 37.8041962,22.871648 37.9551962,22.692648 C38.6501962,21.875648 38.5681962,20.270648 37.8131962,19.489648" id="Fill-384"></path>
            </g>
        </g>
    </g>
</svg>