<?xml version="1.0" encoding="UTF-8"?>
<svg width="49px" height="55px" viewBox="0 0 49 55" version="1.1" xmlns="http://www.w3.org/2000/svg" xmlns:xlink="http://www.w3.org/1999/xlink">
    <title>Group 61</title>
    <g id="Page-1" stroke="none" stroke-width="1" fill="none" fill-rule="evenodd">
        <g id="vectorstock_1327683" transform="translate(-254.000000, -183.000000)" fill="#0A0B09">
            <g id="Group-61" transform="translate(254.740130, 183.550498)">
                <path d="M45.1538701,16.8165016 C45.1498701,16.8345016 45.1448701,16.8475016 45.1408701,16.8635016 C44.8338701,16.6475016 44.5428701,16.3955016 44.1798701,16.2405016 C44.7898701,14.8455016 44.3588701,13.0695016 43.4788701,11.8925016 C42.7978701,10.9845016 41.3058701,11.7775016 41.9168701,12.8095016 C42.2298701,13.3385016 42.4668701,13.8805016 42.6498701,14.4375016 C42.2958701,14.0155016 41.9288701,13.6035016 41.5438701,13.2075016 C41.1358701,12.0705016 41.0428701,10.5485016 42.6008701,10.5665016 C44.1458701,10.5845016 44.9968701,12.3545016 45.2418701,13.6385016 C45.4408701,14.6735016 45.3758701,15.7925016 45.1538701,16.8165016 Z M1.67387009,17.7895016 C1.35187009,16.8925016 1.45887009,15.8565016 1.68787009,14.9555016 C1.92787009,14.0085016 2.80887009,12.2885016 3.87387009,12.1765016 C5.25087009,12.0315016 4.62187009,15.3015016 4.57087009,15.9565016 C4.56487009,16.0375016 4.67187009,16.0835016 4.73287009,16.0345016 C4.59387009,16.3555016 4.46387009,16.6835016 4.33387009,17.0095016 C4.32187009,16.9315016 4.31087009,16.8525016 4.30387009,16.7705016 C4.24187009,16.1255016 4.53187009,15.3775016 4.32087009,14.7735016 C4.12587009,14.2155016 3.31187009,13.8415016 2.86587009,14.3885016 C2.27187009,15.1175016 2.45687009,16.1285016 2.62487009,16.9975016 C2.76687009,17.7225016 3.02187009,18.4295016 3.69987009,18.7375016 C3.69387009,18.7585016 3.68487009,18.7795016 3.67687009,18.8015016 C3.65887009,18.7955016 3.64587009,18.7855016 3.62587009,18.7835016 C2.69787009,18.6475016 2.05887009,18.8495016 1.67387009,17.7895016 Z M45.7508701,19.3425016 C45.7218701,19.2765016 45.6918701,19.2155016 45.6638701,19.1505016 C46.1208701,19.0765016 46.5648701,18.8135016 46.9078701,18.3045016 C47.9458701,16.7575016 47.4038701,14.1775016 46.7868701,12.5835016 C46.0498701,10.6675016 44.0428701,8.80550157 41.8578701,9.34650157 C40.9738701,9.56450157 40.3658701,10.3525016 40.1918701,11.2105016 C40.1458701,11.4375016 40.1378701,11.6625016 40.1618701,11.8865016 C37.2258701,9.27650157 33.6818701,7.28650157 30.1518701,6.06650157 C29.1428701,5.71550157 28.7508701,7.11050157 29.4808701,7.65950157 C31.2098701,8.95250157 32.9678701,10.2085016 34.6498701,11.5195016 C32.1308701,10.9085016 29.1258701,10.7945016 26.9938701,12.2685016 C26.9058701,12.3285016 26.9038701,12.4845016 27.0268701,12.5125016 C29.6438701,13.0785016 32.3158701,12.8515016 34.9498701,13.5405016 C36.2498701,13.8825016 37.4858701,14.4175016 38.6798701,15.0245016 C41.4928701,17.8365016 43.6708701,21.1285016 44.4278701,25.5355016 C45.5278701,31.9235016 43.0808701,38.8455016 38.7318701,43.5235016 C31.1438701,51.6795016 17.4178701,53.1405016 9.40987009,44.8105016 C2.75487009,37.8845016 2.30087009,26.8475016 5.21387009,18.1845016 C5.22887009,18.1415016 5.24487009,18.0985016 5.25987009,18.0565016 C5.85787009,17.7875016 6.03887009,17.2555016 6.50687009,16.6695016 C7.19187009,15.8055016 7.99287009,15.0135016 8.87187009,14.3485016 C10.7438701,12.9375016 13.1588701,12.4015016 15.4358701,12.0705016 C15.6018701,12.0445016 15.5918701,11.7785016 15.4358701,11.7465016 C13.0078701,11.2405016 10.7928701,11.7685016 8.61787009,12.9215016 C8.19287009,13.1455016 7.60587009,13.5165016 7.01087009,13.9745016 C10.9678701,6.39950157 18.1978701,0.712501569 27.0608701,0.471501569 C27.3638701,0.462501569 27.3648701,0.00250156854 27.0608701,1.42108547e-14 C17.3118701,-0.0634984315 9.82387009,6.00450157 5.66387009,14.0635016 C5.84787009,13.0315016 5.64987009,11.9395016 4.84687009,11.2645016 C3.26187009,9.93450157 1.39387009,12.0455016 0.708870093,13.3145016 C-0.0621299066,14.7395016 -0.201129907,16.6395016 0.276870093,18.1745016 C0.646870093,19.3625016 1.99387009,20.5385016 3.26187009,20.1475016 C2.54187009,22.6715016 2.11987009,25.2785016 2.01787009,27.8685016 C1.76487009,34.3775016 3.79887009,41.1955016 7.99987009,46.2205016 C11.5428701,50.4605016 16.7848701,52.7745016 22.2438701,53.0485016 C32.2718701,53.5515016 41.9178701,47.0755016 45.7118701,37.8895016 C48.1578701,31.9665016 48.3378701,25.2405016 45.7508701,19.3425016 L45.7508701,19.3425016 Z" id="Fill-335"></path>
                <path d="M14.9138701,13.3705016 C13.7648701,13.3705016 12.8028701,14.3285016 12.8028701,15.4805016 C12.8028701,16.6305016 13.7648701,17.5905016 14.9138701,17.5905016 C16.0658701,17.5905016 17.0248701,16.6305016 17.0248701,15.4805016 C17.0248701,14.3285016 16.0658701,13.3705016 14.9138701,13.3705016" id="Fill-336"></path>
                <path d="M28.4918701,13.1655016 C27.3598701,13.1655016 26.4128701,14.1095016 26.4128701,15.2425016 C26.4128701,16.3735016 27.3598701,17.3185016 28.4918701,17.3185016 C29.6228701,17.3185016 30.5698701,16.3735016 30.5698701,15.2425016 C30.5698701,14.1095016 29.6228701,13.1655016 28.4918701,13.1655016" id="Fill-337"></path>
                <path d="M39.4358701,31.1385016 C39.3708701,30.9175016 39.0428701,30.9105016 38.9828701,31.1385016 C38.1678701,34.2295016 37.3128701,36.6305016 33.9348701,37.4375016 C31.3718701,38.0495016 28.4028701,37.7565016 25.8018701,37.3205016 C26.8218701,34.8995016 26.2748701,31.7845016 26.1058701,29.2945016 C26.0848701,28.9985016 25.6738701,28.9935016 25.6408701,29.2785016 C25.5138701,29.2735016 25.3838701,29.3145016 25.2788701,29.4165016 C23.8128701,30.8125016 22.1708701,31.6325016 20.1088701,31.2505016 C18.8588701,31.0175016 17.8598701,30.3415016 17.2118701,29.2485016 C16.0338701,27.2645016 18.3348701,24.7565016 19.9888701,26.9115016 C20.2828701,27.2965016 20.7988701,27.1525016 20.8618701,26.6755016 C21.1488701,24.4825016 20.4508701,21.9775016 20.0808701,19.8165016 C19.6288701,17.1825016 19.0678701,14.5805016 18.8928701,11.9075016 C18.8798701,11.6925016 18.5688701,11.6905016 18.5578701,11.9075016 C18.4658701,14.1855016 18.5498701,16.5005016 18.8758701,18.7615016 C19.1908701,20.9305016 19.2748701,23.2465016 19.6568701,25.4315016 C18.8498701,24.9765016 17.8998701,24.8995016 17.0658701,25.6215016 C15.5798701,26.9045016 15.5868701,29.4545016 16.8578701,30.9255016 C18.6158701,32.9625016 23.6828701,34.1955016 25.4878701,31.9485016 C25.4528701,32.4935016 25.4158701,33.0385016 25.3688701,33.5825016 C25.2618701,34.7805016 25.0058701,35.9645016 24.8818701,37.1565016 C22.6728701,36.7415016 19.7758701,36.1305016 17.9418701,37.5775016 C16.8828701,38.4135016 16.6228701,39.6645016 16.9148701,40.9425016 C17.2228701,42.2905016 18.7078701,42.8485016 19.9148701,43.0065016 C20.0578701,43.0235016 20.0868701,42.8185016 19.9828701,42.7565016 C18.1418701,41.6155016 17.3348701,38.9245016 19.9648701,38.2975016 C21.3668701,37.9625016 22.9918701,38.3165016 24.3798701,38.5595016 C26.7488701,38.9755016 29.1598701,39.2455007 31.5708701,39.2155016 C36.1908701,39.1595016 40.9408701,36.4335016 39.4358701,31.1385016" id="Fill-338"></path>
                <path d="M41.1538701,4.17450157 C40.0328701,2.24750157 36.3138701,1.91350157 34.3108701,1.67650157 C31.4668701,1.33750157 28.6978701,1.62950157 25.9008701,2.19650157 C20.8848701,3.20950157 15.5828701,5.20350157 11.9848701,8.97750157 C11.8938701,9.07350157 12.0298701,9.20250157 12.1258701,9.12050157 C15.9888701,5.91450157 21.2548701,4.54550157 26.1778701,4.25450157 C28.7388701,4.10050157 31.3748701,4.26950157 33.9148701,4.61250157 C35.0808701,4.77050157 36.2298701,5.04250157 37.3548701,5.38850157 C38.4328701,5.71850157 39.2368701,6.23050157 40.3878701,6.05450157 C41.2228701,5.92650157 41.5308701,4.82450157 41.1538701,4.17450157" id="Fill-339"></path>
                <path d="M17.6628701,17.1115016 C17.6358701,16.9585016 17.4058701,17.0005016 17.4008701,17.1465016 C17.3008701,20.5535016 11.4348701,21.4125016 11.1358701,17.6225016 C11.1328701,17.5805016 11.0738701,17.5805016 11.0688701,17.6225016 C10.8078701,19.8055016 12.2348701,21.3145016 14.4058701,21.2495016 C16.8468701,21.1785016 18.0858701,19.3875016 17.6628701,17.1115016" id="Fill-340"></path>
                <path d="M31.9768701,16.1725016 C31.8588701,16.1105016 31.7068701,16.1185016 31.6138701,16.2205016 C31.1138701,16.7385016 31.2338701,17.4965016 31.0138701,18.1475016 C30.7478701,18.9355016 30.0598701,19.3895016 29.3008701,19.6335016 C27.3078701,20.2705016 25.2118701,18.9885016 24.4728701,17.1385016 C24.4598701,17.1055016 24.4048701,17.1055016 24.4068169,17.1465016 C24.6678701,19.6075016 26.8288701,20.9835016 29.2118701,20.7825016 C30.2748701,20.6935016 31.3508701,20.1845016 31.9868701,19.3155016 C32.5698701,18.5185016 33.0978701,16.7575016 31.9768701,16.1725016" id="Fill-341"></path>
            </g>
        </g>
    </g>
</svg>