<?xml version="1.0" encoding="UTF-8"?>
<svg width="61px" height="52px" viewBox="0 0 61 52" version="1.1" xmlns="http://www.w3.org/2000/svg" xmlns:xlink="http://www.w3.org/1999/xlink">
    <title>Group 31</title>
    <g id="Page-1" stroke="none" stroke-width="1" fill="none" fill-rule="evenodd">
        <g id="vectorstock_1327683" transform="translate(-255.000000, -475.000000)" fill="#0A0B09">
            <g id="Group-31" transform="translate(255.099468, 475.723034)">
                <path d="M42.3825318,31.1769662 C41.7635318,41.4469662 31.7225318,48.6559662 22.0465318,48.5739662 C8.94853175,48.4639662 2.69253175,36.1089662 5.56453175,24.5949662 C5.85953175,23.4099662 6.23953175,22.2959662 6.68553175,21.2419662 C6.29653175,23.7939662 7.31753175,26.3309662 9.50053175,27.8549662 C12.9635318,30.2689662 18.1305318,29.2569662 21.1445318,26.4319662 C22.2985318,26.3229662 23.4905318,26.3459662 24.6325318,26.4149662 C25.7455318,26.4859662 26.8905318,26.9069662 27.9895318,26.6809662 C28.5005318,26.5749662 28.4525318,25.9479662 28.1185318,25.6949662 C27.0935318,24.9129662 25.3585318,25.0789662 24.1455318,25.1809662 C23.3315318,25.2479662 22.5765318,25.4189662 21.8485318,25.6889662 C23.3195318,23.9459662 24.0165318,21.6759662 23.2615318,19.1629662 C22.9615318,18.1559662 22.3245318,17.1949662 21.4995318,16.4409662 C21.9285318,16.4839662 22.3605318,16.5199662 22.7905318,16.5489662 C23.6845318,16.6119662 24.5875318,16.6749662 25.4815318,16.6219662 C25.9105318,16.5979662 26.3665318,16.6189662 26.8115318,16.5879662 C26.2315318,17.2379662 25.7775318,18.0009662 25.4985318,18.8869662 C24.4615318,22.1539662 27.0775318,25.2069662 29.9035318,26.4479662 C32.6815318,27.6649662 35.9975318,27.2179662 38.3695318,25.3469662 C39.4035318,24.5289662 40.1215318,23.2769662 40.2635318,21.9659662 C40.3555318,21.1019662 40.2235318,20.3449662 39.9075318,19.6629662 C41.6225318,23.0479662 42.6505318,26.7649662 42.3825318,31.1769662 Z M48.2105318,24.7259662 C46.8935318,22.8589662 44.8385318,20.9389662 42.5675318,20.0699662 C39.8655318,13.1929662 34.6385318,6.9469662 29.1335318,3.6279662 C28.8225318,3.4379662 28.3765318,3.8299662 28.6095318,4.1549662 C32.3775318,9.3819662 36.9335318,13.9549662 39.7555318,19.3679662 C39.4335318,18.7929662 38.9755318,18.2759662 38.4115318,17.7959662 C38.0005318,17.4469662 37.4555318,17.8759662 37.6815318,18.3599662 C38.6325318,20.4029662 38.9685318,22.5049662 37.0975318,24.0749662 C35.3785318,25.5199662 32.5985318,25.6459662 30.6125318,24.7609662 C28.4755318,23.8099662 26.3355318,21.5299662 26.8105318,19.0349662 C27.3285318,16.2989662 30.2145318,14.6749662 32.6705318,14.0219662 C32.8485318,13.9729662 32.7675318,13.7269662 32.5955318,13.7509662 C30.8935318,13.9939662 29.1685318,14.6149662 27.8115318,15.6579662 C27.2045318,15.3839662 26.5375318,15.4719662 25.8675318,15.4599662 C24.9615318,15.4479662 24.0765318,15.5199662 23.1755318,15.5879662 C22.2865318,15.6529662 21.3965318,15.6939662 20.5075318,15.6959662 C19.7635318,15.2449662 18.9375318,14.9629662 18.0975318,14.9349662 C17.7545318,14.9239662 17.5225318,15.3389662 17.6825318,15.6239662 C17.6395318,15.6959662 17.6595318,15.8139662 17.7575318,15.8379662 C17.8205318,15.8549662 17.8835318,15.8649662 17.9495318,15.8799662 C19.2085318,16.9279662 20.5855318,17.6239662 21.3875318,19.1579662 C22.0415318,20.4059662 21.8935318,21.9639662 21.3435318,23.2179662 C19.9255318,26.4329662 16.1855318,28.1349662 12.8035318,27.5279662 C9.75353175,26.9799662 7.70753175,24.5279662 7.84053175,21.4209662 C7.98553175,18.0279662 10.7245318,15.3789662 13.8815318,14.5809662 C14.0035318,14.5509662 13.9505318,14.3859662 13.8355318,14.4029662 C12.3275318,14.6189662 10.9495318,15.2019662 9.80253175,16.0729662 C14.5325318,10.2949662 22.0335318,7.3129662 29.7775318,6.2019662 C29.8375318,6.1959662 29.8205318,6.0949662 29.7645318,6.1019662 C19.2235318,7.3669662 10.4465318,11.8309662 6.11053175,21.0239662 C6.04653175,20.9629662 5.94453175,20.9439662 5.85553175,21.0229662 C4.12853175,22.5499662 2.56553175,24.2739662 1.39653175,26.2689662 C0.339531754,28.0749662 -0.614468246,30.8959662 0.496531754,32.8849662 C1.05653175,33.8879662 2.46553175,33.1769662 2.26353175,32.1399662 C2.07653175,31.1709662 1.79453175,30.3879662 1.86153175,29.3729662 C1.92953175,28.3339662 2.31653175,27.2879662 2.73653175,26.3459662 C3.50553175,24.6219662 4.62153175,23.0549662 5.83853175,21.6139662 C5.27253175,22.8989662 4.78653175,24.2699662 4.39253175,25.7369662 C1.34753175,37.1249662 8.03753175,47.0149662 19.1795318,49.7199662 C29.3075318,52.1799662 39.2575318,45.6329662 43.1115318,36.5009662 C45.2265318,31.4849662 44.7325318,25.7519662 42.6885318,20.3839662 C43.2125318,20.7189662 43.6925318,21.1199662 44.1115318,21.4859662 C45.1625318,22.4029662 46.0535318,23.4819662 46.7565318,24.6839662 C47.2915318,25.5979662 47.7725318,26.7049662 47.7055318,27.7849662 C47.6855318,28.1129662 47.4755318,28.4039662 47.2135318,28.5829662 C46.9995318,28.7299662 46.7605318,28.8059662 46.5135318,28.8739662 C46.0885318,28.9959662 45.8565318,29.2299662 45.5295318,29.5069662 C45.1385318,29.8329662 45.4185318,30.3629662 45.7945318,30.5179662 C47.2105318,31.1059662 48.7255318,29.9849662 49.2255318,28.6529662 C49.7305318,27.3049662 48.9685318,25.7999662 48.2105318,24.7259662 L48.2105318,24.7259662 Z" id="Fill-494"></path>
                <path d="M38.5835318,27.6909662 C29.9605318,32.1109662 17.5855318,34.2529662 8.75153175,29.2939662 C8.54853175,29.1809662 8.37853175,29.4769662 8.56753175,29.6039662 C16.8575318,35.0959662 28.2655318,33.6699662 36.9085318,29.7889662 C40.3515318,28.2439662 37.6705318,35.3559662 36.9475318,37.0519662 C35.4555318,40.5529662 32.1765318,42.5859662 28.7335318,43.7659662 C21.0395318,46.3989662 11.4215318,43.1589662 10.3635318,34.3839662 C10.3135318,33.9669662 9.69153175,33.9409662 9.69653175,34.3839662 C9.78353175,42.8529662 18.6465318,46.0839662 25.9275318,45.2079662 C35.3065318,44.0819662 39.3205318,36.8339662 39.2575318,28.0789662 C39.2545318,27.7269662 38.8825318,27.5379662 38.5835318,27.6909662" id="Fill-495"></path>
                <path d="M18.8275318,22.4989662 C17.7275318,22.2829662 16.7785318,22.0129662 15.6345318,21.9349662 C14.5865318,21.8629662 13.3555318,22.0269662 12.3775318,22.4069662 C11.3305318,22.8139662 11.7185318,24.4319662 12.8495318,24.1239662 C13.8465318,23.8539662 14.8265318,23.6159662 15.8345318,23.3999662 C16.8415318,23.1859662 17.8265318,22.8929662 18.8275318,22.6959662 C18.9275318,22.6779662 18.9275318,22.5159662 18.8275318,22.4989662" id="Fill-496"></path>
                <path d="M35.9485318,20.9179662 C33.9065318,20.1309662 31.2095318,20.8389662 29.3965318,21.8939662 C29.2615318,21.9719662 29.2925318,22.1829662 29.4435318,22.2219662 C31.3745318,22.7489662 33.4315318,22.5319662 35.4085318,22.8879662 C36.7085318,23.1199662 37.1735318,21.3929662 35.9485318,20.9179662" id="Fill-497"></path>
                <path d="M30.0385318,0.0119661994 C17.6705318,-0.421033801 5.18253175,10.9669662 3.00453175,22.8209662 C2.96253175,23.0529662 3.26653175,23.1379662 3.35153175,22.9209662 C8.24953175,10.1109662 17.3555318,4.2419662 30.1415318,0.768966199 C30.5685318,0.653966199 30.4655318,0.0259661994 30.0385318,0.0119661994" id="Fill-498"></path>
                <path d="M50.5945318,9.3999662 C47.6525318,9.2189662 45.0945318,9.6529662 42.1455318,8.7859662 C39.1475318,7.9079662 35.9405318,5.9229662 34.5785318,3.0459662 C34.4895318,2.8579662 34.2025318,2.9949662 34.2475318,3.1859662 C35.0975318,6.5729662 37.7885318,8.8839662 40.9495318,10.1479662 C43.7815318,11.2819662 48.3435318,12.5699662 51.0105318,10.4069662 C51.4465318,10.0549662 51.0535318,9.4259662 50.5945318,9.3999662" id="Fill-499"></path>
                <path d="M58.5415318,13.9809662 C55.9185318,13.9079662 53.3855318,14.3389662 50.7465318,14.0949662 C47.1495318,13.7589662 43.5645318,12.6649662 40.2835318,11.1839662 C40.0875318,11.0929662 39.8335318,11.3509662 40.0335318,11.5049662 C44.8145318,15.2209662 53.1075318,18.9299662 58.8785318,15.2259662 C59.4385318,14.8659662 59.2175318,13.9989662 58.5415318,13.9809662" id="Fill-500"></path>
            </g>
        </g>
    </g>
</svg>