<?xml version="1.0" encoding="UTF-8"?>
<svg width="53px" height="48px" viewBox="0 0 53 48" version="1.1" xmlns="http://www.w3.org/2000/svg" xmlns:xlink="http://www.w3.org/1999/xlink">
    <title>Group 40</title>
    <g id="Page-1" stroke="none" stroke-width="1" fill="none" fill-rule="evenodd">
        <g id="vectorstock_1327683" transform="translate(-253.000000, -416.000000)" fill="#0A0B09">
            <g id="Group-40" transform="translate(253.040978, 416.696159)">
                <path d="M36.043022,4.18284104 C35.965022,3.98084104 35.704022,4.02184104 35.679022,4.23284104 C35.491022,5.74484104 34.846022,7.21284104 33.541022,8.05884104 C32.280022,8.87784104 30.846022,8.72284104 29.595022,7.99584104 C28.062022,7.10684104 26.960022,5.21484104 28.213022,3.65884104 C29.116022,2.53684104 30.630022,2.17584104 32.032022,2.30584104 C32.458022,2.39884104 32.883022,2.50084104 33.308022,2.60784104 C33.945022,2.76884104 34.213022,1.79784104 33.577022,1.62084104 C29.967022,0.60984104 26.266022,0.55584104 22.561022,0.15884104 C21.777022,-0.0771589598 20.926022,-0.0281589598 20.083022,0.16184104 C19.928022,0.19684104 19.962022,0.44084104 20.119022,0.43584104 C22.338022,0.37584104 24.310022,1.39184104 24.548022,3.76384104 C24.753022,5.79784104 23.357022,7.76384104 21.394022,8.27184104 C19.467022,8.76884104 17.330022,7.95684104 16.350022,6.20084104 C15.157022,4.05884104 16.935022,2.39184104 18.944022,1.94584104 C19.101022,1.91084104 19.063022,1.66984104 18.907022,1.67184104 C16.193022,1.68484104 14.102022,3.47284104 14.856022,6.31484104 C15.660022,9.34584104 18.776022,10.500841 21.588022,9.67784104 C24.108022,8.94084104 25.365022,6.22784104 25.198022,3.76384104 C25.124022,2.62584104 24.623022,1.53684104 23.748022,0.80084104 C23.686022,0.74984104 23.624022,0.70084104 23.562022,0.65584104 C25.757022,1.10684104 27.976022,1.47284104 30.176022,1.91384104 C29.175022,2.04984104 28.222022,2.47284104 27.461022,3.21984104 C25.668022,4.97684104 26.825022,7.36984104 28.256022,8.88984104 C31.346022,12.171841 37.710022,8.44084104 36.043022,4.18284104" id="Fill-503"></path>
                <path d="M45.030022,24.979841 C44.880022,24.564841 44.716022,24.152841 44.537022,23.745841 C44.573022,23.682841 44.596022,23.606841 44.582022,23.513841 C44.345022,21.968841 45.239022,20.351841 46.285022,19.281841 C47.363022,18.180841 49.419022,18.144841 49.579022,20.061841 C49.732022,21.891841 47.053022,24.231841 45.030022,24.979841 Z M43.809022,22.291841 C42.123022,19.235841 39.587022,16.526841 36.663022,14.516841 C36.839022,13.890841 36.906022,13.214841 37.074022,12.597841 C37.226022,12.038841 37.427022,11.498841 37.681022,10.975841 C38.329022,9.64484104 38.992022,11.414841 39.257022,12.068841 C39.517022,12.703841 40.355022,12.750841 40.596022,12.068841 C40.782022,11.541841 41.100022,11.106841 41.443022,10.684841 C41.632022,11.045841 41.816022,11.412841 41.972022,11.799841 C42.227022,12.428841 43.105022,12.508841 43.329022,11.799841 C43.329022,11.797841 43.332022,11.797841 43.332022,11.795841 C43.699022,12.614841 44.080022,13.429841 44.172022,14.336841 C44.230022,14.878841 44.721022,15.083841 45.099022,14.902841 C45.232022,16.118841 45.345022,17.337841 45.423022,18.542841 C44.502022,19.514841 43.853022,20.931841 43.809022,22.291841 Z M2.394022,20.375841 C1.767022,19.522841 1.635022,18.214841 2.072022,17.249841 C2.611022,16.055841 4.161022,15.644841 4.995022,16.744841 C5.760022,17.750841 6.027022,19.288841 5.859022,20.518841 L5.859022,20.525841 C5.570022,20.897841 5.295022,21.281841 5.034022,21.674841 C5.017022,21.661841 5.003022,21.643841 4.984022,21.631841 C4.213022,21.160841 3.022022,21.236841 2.394022,20.375841 Z M6.637022,10.714841 C6.787022,11.346841 6.982022,11.966841 7.189022,12.593841 C7.343022,13.044841 8.091022,13.274841 8.320022,12.739841 C9.003022,11.162841 9.752022,9.61984104 10.927022,8.37984104 C11.002022,8.91184104 11.080022,9.44184104 11.125022,9.97684104 C11.157022,10.343841 11.647022,10.666841 11.937022,10.314841 C12.631022,9.46584104 13.426022,8.72684104 14.089022,7.87084104 C14.139022,9.11784104 13.963022,10.089841 15.225022,9.99884104 C15.282022,11.069841 15.352022,12.130841 15.251022,13.200841 C11.992022,14.704841 9.016022,16.823841 6.686022,19.502841 C6.842022,18.116841 6.582022,16.606841 5.780022,15.514841 C5.613022,15.288841 5.424022,15.105841 5.221022,14.956841 C5.555022,13.447841 5.974022,12.070841 6.637022,10.714841 Z M50.660022,18.765841 C49.668022,16.799841 47.432022,16.874841 45.926022,18.072841 C45.914022,18.081841 45.905022,18.093841 45.896022,18.100841 C46.021022,16.108841 46.138022,14.174841 45.993022,12.156841 C45.946022,11.451841 45.113022,11.382841 44.838022,11.889841 C44.605022,11.291841 44.349022,10.693841 44.151022,10.060841 C44.015022,9.62784104 43.517022,9.40184104 43.109022,9.63984104 C42.917022,9.75284104 42.766022,9.86484104 42.646022,9.98184104 C42.487022,9.68184104 42.331022,9.38284104 42.164022,9.07984104 C41.891022,8.57584104 41.253022,8.68184104 40.958022,9.07984104 C40.608022,9.55284104 40.259022,9.96284104 39.949022,10.403841 C39.294022,9.32184104 38.349022,8.40784104 37.275022,9.28984104 C37.133022,8.95384104 36.971022,8.62484104 36.824022,8.28584104 C36.415022,7.34584104 36.067022,6.38684104 35.802022,5.39484104 C35.746022,5.19784104 35.416022,5.23084104 35.434022,5.44384104 C35.514022,6.29284104 35.651022,7.12584104 35.829022,7.95784104 C35.990022,8.71684104 36.114022,9.58884104 36.448022,10.316841 C35.910022,11.231841 35.466022,12.508841 35.337022,13.670841 C32.995022,12.283841 30.462022,11.344841 27.943022,11.038841 C27.355022,10.965841 27.188022,11.843841 27.653022,12.106841 C32.617022,14.935841 37.576022,16.939841 40.939022,21.847841 C44.269022,26.700841 44.214022,33.573841 40.483022,38.146841 C34.540022,45.429841 22.092022,45.149841 13.962022,42.796841 C5.567022,40.366841 1.322022,33.106841 4.899022,24.930841 C6.973022,20.191841 10.886022,16.409841 15.471022,13.918841 C15.725022,14.030841 16.086022,13.956841 16.132022,13.640841 C16.133022,13.618841 16.133022,13.598841 16.136022,13.578841 C18.770022,12.234841 21.600022,11.306841 24.422022,10.869841 C24.507022,10.854841 24.486022,10.711841 24.401022,10.717841 C21.630022,10.977841 18.843022,11.680841 16.210022,12.778841 C16.278022,11.664841 16.206022,10.563841 16.177022,9.43284104 C16.169022,9.10084104 15.870022,8.89184104 15.556022,8.95884104 C14.827022,9.11784104 14.752022,7.27684104 14.635022,6.89584104 C14.554022,6.62684104 14.195022,6.58184104 14.048022,6.81984104 C13.524022,7.65384104 12.725022,8.25084104 11.994022,8.90884104 C11.947022,8.35984104 11.895022,7.80784104 11.876022,7.25484104 C11.859022,6.87484104 11.409022,6.52884104 11.053022,6.78184104 C9.617022,7.80484104 8.688022,9.18784104 7.918022,10.706841 C7.763022,10.110841 7.638022,9.50884104 7.574022,8.88984104 C7.517022,8.32984104 6.767022,8.01984104 6.448022,8.58484104 C5.415022,10.430841 4.519022,12.457841 4.473022,14.582841 C3.246022,14.210841 1.780022,14.770841 0.921022001,15.820841 C-0.306977999,17.319841 -0.221977999,19.496841 0.675022001,21.129841 C1.310022,22.291841 3.038022,23.389841 4.270022,22.903841 C3.774022,23.774841 3.329022,24.677841 2.965022,25.629841 C-0.683977999,35.172841 5.395022,42.312841 14.378022,45.129841 C24.053022,48.162841 38.052022,46.856841 43.884022,37.521841 C46.100022,33.972841 46.440022,30.151841 45.517022,26.542841 C48.604022,25.443841 52.166022,21.756841 50.660022,18.765841 L50.660022,18.765841 Z" id="Fill-504"></path>
                <path d="M27.050022,26.608841 C26.871022,21.780841 26.462022,16.980841 26.133022,12.156841 C26.122022,12.033841 25.949022,12.033841 25.941022,12.156841 C25.627022,17.427841 25.606022,22.679841 25.517022,27.954841 C25.502022,28.694841 26.367022,28.940841 26.870022,28.515841 C29.582022,26.633841 30.793022,27.514841 30.497022,31.164841 C28.619022,33.530841 24.401022,32.117841 23.595022,29.435841 C23.411022,28.829841 22.435022,28.923841 22.467022,29.589841 C22.739022,35.395841 30.286022,35.581841 32.535022,30.799841 C34.253022,27.144841 29.940022,25.509841 27.050022,26.608841" id="Fill-505"></path>
                <path d="M28.761022,15.877841 C27.967022,15.877841 27.302022,16.539841 27.302022,17.331841 C27.302022,18.125841 27.967022,18.787841 28.761022,18.787841 C29.554022,18.787841 30.215022,18.125841 30.215022,17.331841 C30.215022,16.539841 29.554022,15.877841 28.761022,15.877841" id="Fill-506"></path>
                <path d="M21.950022,16.070841 C21.114022,16.070841 20.417022,16.768841 20.417022,17.603841 C20.417022,18.440841 21.114022,19.134841 21.950022,19.134841 C22.788022,19.134841 23.483022,18.440841 23.483022,17.603841 C23.483022,16.768841 22.788022,16.070841 21.950022,16.070841" id="Fill-507"></path>
                <path d="M26.036022,36.816841 C25.075022,36.816841 24.274022,37.615841 24.274022,38.576841 C24.274022,39.537841 25.075022,40.339841 26.036022,40.339841 C26.994022,40.339841 27.797022,39.537841 27.797022,38.576841 C27.797022,37.615841 26.994022,36.816841 26.036022,36.816841" id="Fill-508"></path>
            </g>
        </g>
    </g>
</svg>