<?xml version="1.0" encoding="UTF-8"?>
<svg width="48px" height="58px" viewBox="0 0 48 58" version="1.1" xmlns="http://www.w3.org/2000/svg" xmlns:xlink="http://www.w3.org/1999/xlink">
    <title>Group 5</title>
    <g id="Page-1" stroke="none" stroke-width="1" fill="none" fill-rule="evenodd">
        <g id="vectorstock_1327683" transform="translate(-12.000000, -186.000000)" fill="#1C1A19">
            <g id="Group-5" transform="translate(12.035769, 186.345091)">
                <path d="M42.5982314,27.0879092 C42.4562314,25.0879092 42.1212314,23.1309092 41.5612314,21.2759092 C41.2992314,20.4139092 40.9802314,19.5709092 40.6082314,18.7469092 C41.8262314,18.7289092 42.8272314,17.4889092 43.2822314,16.5329092 C43.5692314,15.9289092 43.7272314,15.2459092 43.7462314,14.5579092 C44.3062314,14.8149092 44.8042314,15.5829092 44.8562314,16.4479092 C44.9072314,17.3339092 44.5612314,18.4239092 43.9672314,19.3009092 C43.7152314,19.4019092 43.4842314,19.5399092 43.2722314,19.7069092 C43.2092314,19.2659092 43.1412314,18.8279092 42.9712314,18.4219092 C42.8692314,18.1759092 42.5002314,18.0659092 42.2812314,18.2489092 C41.2862314,19.0759092 41.7942314,20.4729092 42.1562314,21.4999092 C42.3222314,21.9669092 42.8872314,22.0159092 43.2742314,21.8049092 C43.8852314,21.4699092 44.4312314,20.9609092 44.8832314,20.3579092 C44.9382314,21.0589092 44.8452314,21.7609092 44.6142314,22.4479092 C44.5822314,22.5499092 44.0682314,23.6549092 43.9182314,23.4319092 C43.8052314,23.2639092 43.7042314,23.1169092 43.5362314,22.9889092 C43.0362314,22.6009092 42.2812314,23.0729092 42.6072314,23.6569092 C42.8392314,24.0719092 43.0802314,24.5249092 43.6042314,24.6649092 C43.8272314,24.7219092 44.0052314,24.7429092 44.1612314,24.7329092 C44.2342314,24.7569092 44.3192314,24.7559092 44.4052314,24.6989092 C44.4242314,24.6869092 44.4412314,24.6729092 44.4612314,24.6579092 C44.5392314,24.6219092 44.6132314,24.5749092 44.6832314,24.5119092 C44.6892314,24.5269092 44.6942314,24.5369092 44.7042314,24.5549092 C44.7352314,24.6569092 44.7512314,24.7619092 44.7512314,24.8679092 C44.7632314,25.0619092 44.7132314,25.2419092 44.6242314,25.4099092 C44.0942314,25.1279092 43.5152314,25.6379092 43.5952314,26.1759092 C43.5892314,26.1809092 43.5852314,26.1829092 43.5772314,26.1909092 C43.4692314,26.2689092 43.5122314,26.4099092 43.6212314,26.4639092 C43.6732314,26.4879092 43.7272314,26.5219092 43.7802314,26.5569092 C43.8102314,26.6399092 43.8392314,26.7229092 43.8642314,26.8089092 C43.8902314,26.8919092 43.9342314,26.9559092 43.9832314,27.0139092 C43.5202314,26.9039092 43.0502314,26.9429092 42.5982314,27.0879092 Z M40.4512314,17.3319092 C40.4142314,17.3029092 40.4262314,17.2959092 40.4292314,17.3059092 C40.4012314,17.1929092 40.4222314,16.9469092 40.4652314,16.7619092 C40.5492314,16.3959092 40.6292314,16.2219092 40.5742314,15.8529092 C40.5502314,15.6799092 40.3732314,15.6689092 40.2362314,15.6599092 C39.8152314,15.6379092 39.4892314,15.8829092 39.2652314,16.2149092 C39.1232314,15.9869092 38.9772314,15.7609092 38.8272314,15.5389092 C39.8592314,14.9059092 40.5042314,13.7579092 40.8662314,12.5379092 C40.9812314,12.3089092 41.1292314,12.0869092 41.3382314,11.9269092 C41.5972314,11.7299092 41.8462314,12.0239092 41.9772314,12.2189092 C42.2672314,12.6509092 42.4212314,13.1649092 42.4762314,13.6909092 C41.9482314,14.1529092 41.7342314,14.9559092 41.7122314,15.6459092 C41.7042314,15.8779092 41.9932314,15.9729092 42.1592314,15.8649092 C41.8552314,16.5279092 41.2392314,17.3929092 40.6002314,17.3639092 C40.5172314,17.3599092 40.4642314,17.3389092 40.4512314,17.3319092 Z M45.1742314,27.6679092 C44.9742314,27.4849092 44.7712314,27.3439092 44.5662314,27.2329092 C44.7572314,27.2179092 44.9422314,27.1409092 45.0742314,27.0049092 C45.8212314,26.2189092 46.2102314,25.2949092 45.8872314,24.2469092 C45.8002314,23.9649092 45.6462314,23.6289092 45.3942314,23.4439092 C45.9812314,22.1759092 45.9542314,20.7019092 45.4782314,19.4039092 C46.2202314,17.9429092 46.4342314,16.1949092 45.7342314,14.8669092 C45.3262314,14.0929092 44.5852314,13.3659092 43.6262314,13.3219092 C43.4792314,12.6859092 43.1972314,12.0849092 42.7732314,11.5839092 C42.3912314,11.1359092 41.7552314,10.8429092 41.1722314,11.0689092 C41.2172314,10.7079092 41.2422314,10.3549092 41.2452314,10.0229092 C41.2742314,7.67190925 39.4792314,5.44690925 36.8792314,5.88190925 C35.8902314,6.04790925 35.0602314,6.54290925 34.4192314,7.21390925 C34.0912314,5.51790925 30.9622314,4.95690925 29.2062314,4.86890925 C27.3932314,4.78190925 25.5572314,4.87990925 23.7602314,4.59490925 C21.4592314,4.22990925 21.3062314,2.83890925 22.2142314,1.00190925 C22.4222314,0.580909248 22.1002314,0.0809092484 21.5772314,0.189909248 C20.1702314,0.478909248 17.8192314,1.16690925 18.6592314,2.99790925 C19.0632314,3.87690925 19.7782314,4.58190925 20.2282314,5.43890925 C20.6232314,6.25090925 20.0092314,6.52590925 18.3852314,6.26190925 C17.3632314,5.62290925 16.9702314,4.57190925 17.2742314,3.36590925 C17.5172314,2.41190925 18.0952314,1.51290925 18.5002314,0.619909248 C18.6402314,0.312909248 18.3322314,-0.0590907516 17.9832314,0.00790924839 C14.0492314,0.758909248 12.4322314,5.11090925 13.9672314,8.33890925 C12.5902314,7.86090925 12.3302314,6.30990925 13.1802314,4.99990925 C13.4602314,4.56790925 12.9252314,3.96990925 12.4402314,4.25590925 C9.03523144,6.23690925 10.7832314,9.22690925 13.3162314,10.9479092 C11.6472314,12.1059092 10.0832314,13.2639092 8.62723144,14.6729092 C5.95823144,14.0389092 3.16123144,14.4489092 0.853231439,16.6349092 C0.543231439,16.9269092 0.722231439,17.5189092 1.22723144,17.4299092 C3.25623144,17.0739092 5.08423144,16.5319092 7.06223144,16.3509092 C4.10323144,21.1789092 1.40323144,25.9599092 0.374231439,31.5359092 C-0.520768561,36.4019092 0.212231439,41.3869092 2.33023144,45.8829092 C4.13423144,49.7059092 7.17723144,52.9209092 11.1422314,54.8009092 C14.8622314,56.5609092 19.2442314,56.5479092 23.2332314,55.7649092 C32.2052314,54.0059092 38.2452314,47.1799092 40.9912314,39.1889092 C40.5272314,39.2459092 40.0652314,39.2919092 39.5992314,39.3249092 C38.7882314,41.4469092 37.7422314,43.4769092 36.4712314,45.3469092 C31.7682314,52.2729092 22.8612314,56.5859092 14.1662314,54.5279092 C9.04923144,53.3189092 5.28423144,49.1959092 3.10623144,44.8529092 C0.303231439,39.2649092 0.443231439,32.9059092 2.22123144,27.0639092 C3.35723144,23.3359092 5.05623144,19.7079092 7.11523144,16.3489092 C7.71223144,16.2969092 8.32023144,16.2729092 8.95623144,16.3019092 C11.8002314,16.4299092 14.0852314,17.8249092 16.0262314,19.7109092 C16.0942314,19.7759092 16.2092314,19.6769092 16.1532314,19.6049092 C14.3622314,17.3539092 11.6112314,15.4039092 8.70023144,14.6909092 C10.1852314,13.3749092 11.8232314,12.0189092 13.6602314,11.1709092 C13.9852314,11.3709092 14.3162314,11.5489092 14.6502314,11.7019092 C19.5782314,13.9559092 24.5612314,9.98190925 27.3632314,6.60090925 C27.3782314,6.58190925 27.3512314,6.55290925 27.3332314,6.57390925 C24.8742314,9.49290925 21.4892314,11.6119092 17.4222314,11.3709092 C15.1822314,11.2389092 10.8402314,8.77690925 11.6162314,6.58390925 C11.6642314,8.17790925 12.8342314,9.55190925 14.9202314,9.48690925 C15.4042314,9.47190925 15.6332314,9.02090925 15.3492314,8.65190925 C13.5492314,6.30890925 14.3762314,2.44690925 17.1422314,1.21890925 C16.4252314,2.59690925 15.5532314,4.34490925 16.4552314,5.60390925 C17.3632314,6.87390925 18.7332314,8.09790925 20.4132314,7.37090925 C21.4332314,6.92790925 21.5002314,5.84490925 21.1702314,4.99590925 C20.9252314,4.36290925 20.4082314,3.80290925 20.0262314,3.24290925 C19.3572314,2.26090925 19.9322314,1.79190925 20.7642314,1.51790925 C19.9492314,4.04590925 21.4112314,5.56290925 24.5502314,5.90190925 C26.3502314,6.09690925 28.1662314,6.01290925 29.9692314,6.15490925 C30.7342314,6.21690925 31.5212314,6.31890925 32.2332314,6.60690925 C33.2032314,7.00290925 33.0872314,7.90690925 33.0972314,8.77290925 C33.1002314,8.89990925 33.1722314,8.99590925 33.2722314,9.05790925 C33.0562314,9.64190925 32.9352314,10.2569092 32.9262314,10.8549092 C32.9242314,10.9169092 33.0202314,10.9209092 33.0362314,10.8639092 C33.7402314,8.49490925 37.9562314,4.72890925 39.5822314,8.53390925 C40.2482314,10.0939092 39.8882314,12.0339092 39.0532314,13.4699092 C38.5592314,14.3169092 37.6872314,14.6999092 36.7032314,14.7499092 C36.0152314,14.7819092 35.3922314,14.5249092 34.9302314,14.0489092 C34.4022314,13.5019092 34.9722314,12.8289092 35.2222314,12.2599092 C35.2962314,12.0909092 35.1202314,11.9359092 34.9592314,11.9209092 C33.6052314,11.7889092 33.1282314,13.0999092 33.3842314,14.1529092 C33.7202314,15.5279092 35.5592314,16.0069092 36.8052314,16.0499092 C37.1072314,16.0609092 37.3862314,16.0309092 37.6522314,15.9809092 C39.0712314,18.0949092 40.0812314,20.4659092 40.7132314,22.8789092 C41.1242314,24.4459092 41.3572314,26.0529092 41.4512314,27.6699092 C40.9302314,28.0319092 40.4512314,28.4889092 40.0502314,28.9429092 C40.0032314,28.9989092 40.0802314,29.0599092 40.1332314,29.0169092 C40.5522314,28.6679092 41.0052314,28.3259092 41.4772314,28.0669092 C41.4782314,28.0689092 41.4782314,28.0719092 41.4782314,28.0729092 C41.7862314,27.9319092 42.1002314,27.8069092 42.4212314,27.6919092 C43.0532314,27.5489092 43.7122314,27.6319092 44.3772314,28.1149092 C45.7372314,29.0989092 45.7202314,31.3289092 45.5142314,32.7419092 C45.2392314,34.6079092 44.0372314,36.2769092 42.5402314,37.4519092 C41.1612314,38.5349092 38.7522314,38.8469092 38.5962314,36.7469092 C38.5862314,36.6059092 38.3782314,36.5459092 38.2752314,36.6359092 C36.6382314,38.0709092 38.6392314,39.2059092 40.1762314,39.2119092 C43.2342314,39.2199092 45.3132314,36.3309092 46.1872314,33.8869092 C46.8532314,32.0189092 46.7762314,29.1339092 45.1742314,27.6679092 L45.1742314,27.6679092 Z" id="Fill-198"></path>
                <path d="M32.9322314,17.2269092 C29.3572314,16.4999092 25.0782314,17.6339092 22.8242314,20.4399092 C22.8112314,20.4549092 22.8352314,20.4789092 22.8522314,20.4679092 C25.7512314,18.3819092 29.0832314,18.2089092 32.4692314,19.2299092 C35.1442314,20.0399092 36.9462314,21.8529092 38.7642314,23.7489092 C38.8632314,23.8519092 39.0382314,23.8079092 39.0622314,23.6699092 C39.6652314,20.3059092 36.1102314,17.8739092 32.9322314,17.2269092" id="Fill-199"></path>
                <path d="M39.0332314,10.4879092 C38.6292314,9.43490925 37.4342314,8.47590925 36.2122314,8.46390925 C35.5912314,8.45590925 35.0852314,8.72090925 34.7762314,9.23390925 C34.3872314,9.88390925 34.5172314,10.7669092 34.6562314,11.4639092 C34.7192314,11.7869092 35.2872314,11.7119092 35.2602314,11.3859092 C35.2292314,10.9669092 35.2212314,10.5479092 35.3102314,10.1359092 C35.3652314,9.87990925 35.4342314,9.71890925 35.5952314,9.54690925 C35.6072314,9.53890925 35.6672314,9.48690925 35.6862314,9.47190925 C35.7052314,9.45790925 35.7122314,9.45290925 35.7142314,9.45090925 C35.7152314,9.45090925 35.7252314,9.44790925 35.7652314,9.43090925 C35.7842314,9.42390925 35.8062314,9.41590925 35.8272314,9.40990925 C35.8812314,9.39790925 35.9372314,9.38990925 35.9912314,9.38590925 C36.0142314,9.38590925 36.0392314,9.38690925 36.0612314,9.38990925 C36.1152314,9.39390925 36.1682314,9.40190925 36.2222314,9.40990925 C36.2472314,9.41590925 36.2742314,9.42390925 36.2992314,9.43090925 C36.3672314,9.45090925 36.4342314,9.47490925 36.4992314,9.49890925 C36.5172314,9.50690925 36.5352314,9.51290925 36.5512314,9.52190925 C36.5212314,9.50990925 36.6342314,9.56290925 36.6312314,9.56090925 C36.6882314,9.58990925 36.7422314,9.62190925 36.7972314,9.65390925 C36.8522314,9.68690925 36.9052314,9.72290925 36.9612314,9.76090925 C36.9832314,9.77490925 37.0042314,9.79090925 37.0252314,9.80790925 C37.0322314,9.81090925 37.0432314,9.81990925 37.0552314,9.83090925 C37.1562314,9.91490925 37.2542314,10.0029092 37.3472314,10.0929092 C37.3952314,10.1369092 37.4382314,10.1829092 37.4832314,10.2309092 C37.5042314,10.2529092 37.5252314,10.2779092 37.5462314,10.3019092 C37.5482314,10.3029092 37.5502314,10.3029092 37.5522314,10.3069092 C37.6262314,10.4019092 37.6932314,10.5019092 37.7532314,10.6049092 C37.7702314,10.6339092 37.7832314,10.6629092 37.7992314,10.6899092 C37.8102314,10.7199092 37.8442314,10.7969092 37.8532314,10.8279092 C37.8722314,10.8779092 37.8832314,10.9309092 37.8942314,10.9829092 C37.8982314,10.9919092 37.8982314,10.9989092 37.8982314,11.0139092 C37.8992314,11.0549092 37.8992314,11.0959092 37.8982314,11.1359092 C37.8892314,11.1629092 37.8832314,11.1889092 37.8772314,11.2149092 C37.8742314,11.2229092 37.8742314,11.2249092 37.8732314,11.2309092 C37.8702314,11.2389092 37.8652314,11.2469092 37.8582314,11.2609092 C37.8462314,11.2809092 37.8332314,11.3009092 37.8212314,11.3219092 C37.8182314,11.3259092 37.8152314,11.3299092 37.8132314,11.3309092 C37.7942314,11.3529092 37.7472314,11.3939092 37.7172314,11.4219092 C37.6602314,11.4619092 37.6022314,11.5009092 37.5382314,11.5359092 C37.5292314,11.5419092 37.5202314,11.5449092 37.5092314,11.5509092 C37.4822314,11.5629092 37.4352314,11.5839092 37.4142314,11.5929092 C37.3032314,11.6339092 37.1882314,11.6659092 37.0732314,11.6969092 C37.0332314,11.7049092 36.9952314,11.7159092 36.9532314,11.7249092 C36.9552314,11.6779092 36.9582314,11.6339092 36.9542314,11.5749092 C36.9402314,11.2239092 36.8322314,10.7939092 36.3742314,10.7739092 C35.9552314,10.7549092 35.6232314,11.2809092 35.5712314,11.6379092 C35.5172314,11.9929092 35.5452314,12.3359092 35.7122314,12.6649092 C35.8422314,12.9189092 36.0802314,13.1379092 36.4092314,13.0999092 C37.2302314,13.0049092 38.1822314,12.8059092 38.7432314,12.1729092 C39.1592314,11.7019092 39.2542314,11.0629092 39.0332314,10.4879092" id="Fill-200"></path>
                <path d="M9.86823144,19.6389092 C8.03823144,19.6389092 8.07423144,22.3249092 9.90523144,22.3249092 C11.7352314,22.3249092 11.7012314,19.6389092 9.86823144,19.6389092" id="Fill-201"></path>
                <path d="M27.8932314,20.7049092 C27.1192314,20.7049092 26.4802314,21.3439092 26.4912314,22.0689092 C26.5022314,22.8059092 27.1572314,23.3919092 27.9302314,23.3919092 C28.7022314,23.3919092 29.3412314,22.7549092 29.3302314,22.0299092 C29.3182314,21.2929092 28.6672314,20.7049092 27.8932314,20.7049092" id="Fill-202"></path>
                <path d="M16.9192314,32.8249092 C15.8352314,32.8829092 14.7872314,33.0349092 13.7392314,33.2569092 C14.3532314,29.2339092 15.5192314,25.1249092 17.5492314,21.5449092 C17.5862314,21.4829092 17.4902314,21.4209092 17.4422314,21.4739092 C14.3792314,24.7959092 13.1442314,29.7329092 12.3572314,34.0099092 C12.2842314,34.3929092 12.7442314,34.7029092 13.1092314,34.6299092 C14.3862314,34.3749092 15.6262314,34.2099092 16.9352314,34.1989092 C17.8762314,34.1919092 17.8512314,32.7759092 16.9192314,32.8249092" id="Fill-203"></path>
                <path d="M12.8502314,43.2299092 C10.4682314,43.2299092 10.7462314,46.7199092 13.1182314,46.7199092 C15.5012314,46.7199092 15.2242314,43.2299092 12.8502314,43.2299092" id="Fill-204"></path>
                <path d="M44.8832314,30.4469092 C44.5822314,29.3659092 43.6062314,28.3919092 42.3352314,28.7079092 C40.9432314,29.0529092 40.7902314,30.4439092 40.9952314,31.5809092 C41.0692314,32.0069092 41.7512314,32.2469092 42.1072314,31.9799092 C42.5232314,31.6699092 42.7882314,31.3529092 43.0022314,30.8909092 C43.1252314,30.6279092 43.0292314,30.4059092 42.8402314,30.2679092 C42.9252314,30.2429092 43.0242314,30.2599092 43.1462314,30.3399092 C43.6802314,30.6989092 43.9152314,31.2199092 43.9622314,31.8189092 C44.0682314,33.1499092 42.9472314,35.3619092 41.4252314,35.6259092 C41.3982314,35.6299092 41.4082314,35.6709092 41.4352314,35.6639092 C43.4782314,35.1269092 45.4492314,32.4719092 44.8832314,30.4469092" id="Fill-205"></path>
                <path d="M12.3252314,23.5829092 C11.3182314,23.9419092 7.02123144,24.4269092 8.25523144,22.3449092 C8.29323144,22.2829092 8.19223144,22.2169092 8.14823144,22.2719092 C7.48223144,23.0959092 7.85323144,23.8039092 8.77223144,24.2329092 C9.92023144,24.7639092 11.4912314,24.7979092 12.6072314,24.2089092 C12.9622314,24.0259092 12.7122314,23.4459092 12.3252314,23.5829092" id="Fill-206"></path>
                <path d="M29.5262314,23.7699092 C28.9202314,24.2509092 28.4172314,24.5519092 27.5972314,24.4409092 C26.6982314,24.3179092 25.5162314,23.5959092 24.8232314,23.0979092 C24.8012314,23.0829092 24.7852314,23.1129092 24.7972314,23.1279092 C25.5552314,24.0299092 26.1492314,24.7439092 27.3162314,25.1779092 C28.3332314,25.5579092 29.4702314,25.3029092 30.2382314,24.5929092 C30.7462314,24.1219092 30.0922314,23.3239092 29.5262314,23.7699092" id="Fill-207"></path>
                <path d="M35.3812314,23.3619092 C35.3372314,22.8399092 34.4702314,22.8829092 34.5232314,23.4029092 C35.1502314,29.4429092 23.1262314,30.8439092 23.9902314,24.4469092 C23.9922314,24.4239092 23.9502314,24.4239092 23.9482314,24.4469092 C23.0682314,31.7629092 35.9332314,30.0429092 35.3812314,23.3619092" id="Fill-208"></path>
                <path d="M13.7292314,24.6379092 C13.6472314,24.4529092 13.3942314,24.5239092 13.3512314,24.6919092 C13.1752314,25.3899092 13.3542314,26.1439092 12.5972314,26.5869092 C11.9082314,26.9869092 10.9392314,26.6349092 10.2412314,26.4499092 C8.69823144,26.0389092 7.00823144,25.0099092 6.25323144,23.6339092 C6.23623144,23.5999092 6.18123144,23.6239092 6.19323144,23.6569092 C6.88323144,25.3929092 8.91923144,26.8779092 10.7922314,27.2969092 C12.5342314,27.6869092 14.5822314,26.5509092 13.7292314,24.6379092" id="Fill-209"></path>
            </g>
        </g>
    </g>
</svg>