<?xml version="1.0" encoding="UTF-8"?>
<svg width="47px" height="48px" viewBox="0 0 47 48" version="1.1" xmlns="http://www.w3.org/2000/svg" xmlns:xlink="http://www.w3.org/1999/xlink">
    <title>Group 46</title>
    <g id="Page-1" stroke="none" stroke-width="1" fill="none" fill-rule="evenodd">
        <g id="vectorstock_1327683" transform="translate(-255.000000, -360.000000)" fill="#0A0B09">
            <g id="Group-46" transform="translate(255.681842, 360.890314)">
                <path d="M3.21915849,36.6906861 C2.54915849,36.5746861 2.02615849,36.0786861 1.68415849,35.5176861 C1.34415849,34.9596861 1.22515849,34.2976861 1.44215849,33.6786861 C1.69715849,32.9566861 2.59715849,32.7786861 3.28315849,32.6276861 C3.76215849,33.8136861 4.32515849,34.9636861 4.96715849,36.0646861 C4.42115849,36.3996861 3.94615849,36.8166861 3.21915849,36.6906861 Z M35.1551585,7.19968611 C35.8251585,6.28968611 36.5391585,5.04368611 37.8141585,5.06968611 C38.6071585,5.08668611 39.3061585,5.84068611 39.7101585,6.49768611 C40.1461585,7.21168611 40.4091585,8.13768611 40.2061585,8.88768611 C40.0101585,9.60668611 39.1131585,9.63868611 38.3411585,9.89568611 C37.3591585,8.90668611 36.2941585,8.00168611 35.1551585,7.19968611 Z M39.4261585,11.0456861 C40.2651585,11.0076861 41.0911585,10.4926861 41.4681585,9.68968611 C42.0491585,8.44968611 41.6821585,6.97768611 41.0551585,5.83168611 C40.3921585,4.62868611 39.2261585,3.66068611 37.8141585,3.59968611 C36.1391585,3.52568611 34.7331585,5.03668611 34.0691585,6.47468611 C30.9091585,4.48568611 27.3021585,3.21968611 23.6021585,2.85468611 C23.8681585,2.75768611 24.1341585,2.66268611 24.3951585,2.57468611 C25.2701585,2.28668611 26.1661585,2.11768611 27.0801585,2.04668611 C27.9171585,1.98368611 28.3631585,2.12968611 29.0681585,1.64568611 C29.3991585,1.41868611 29.5251585,0.928686115 29.1991585,0.627686115 C28.0491585,-0.437313885 26.2151585,0.100686115 24.8251585,0.446686115 C23.2491585,0.836686115 21.3071585,1.53668611 20.1901585,2.75168611 C19.9171585,3.05068611 20.1201585,3.46868611 20.5011585,3.50468611 C20.7971585,3.53068611 21.0921585,3.51568611 21.3841585,3.47868611 C28.9701585,4.88668611 35.7241585,8.08768611 40.0551585,14.7646861 C43.7671585,20.4866861 44.5591585,27.2256861 41.3081585,33.3046861 C35.4951585,44.1646861 19.8141585,47.6586861 10.3791585,39.5496861 C4.67215849,34.6476861 2.46815849,26.0006861 2.93915849,18.7566861 C3.46715849,10.6406861 8.27815849,3.89168611 16.5651585,2.47168611 C16.6431585,2.45768611 16.6231585,2.33168611 16.5471585,2.33568611 C11.1851585,2.48168611 6.68515849,4.95068611 3.92215849,9.57468611 C1.16715849,14.1796861 0.642158493,19.8886861 1.32415849,25.1136861 C1.60815849,27.2936861 2.12015849,29.4546861 2.86215849,31.5296861 C1.82515849,31.6016861 0.802158493,32.1376861 0.305158493,33.0776861 C-0.221841507,34.0706861 -0.00484150651,35.2606861 0.490158493,36.2146861 C0.978158493,37.1546861 1.90315849,37.9146861 2.94315849,38.1346861 C3.90015849,38.3336861 5.03415849,37.9936861 5.72415849,37.2866861 C6.29715849,38.1476861 6.92015849,38.9736861 7.60315849,39.7556861 C11.5271585,44.2626861 17.5561585,46.5036861 23.4451585,46.4276861 C34.1071585,46.2916861 44.7741585,38.4766861 45.6781585,27.4376861 C46.1761585,21.3876861 43.3601585,15.5056861 39.4261585,11.0456861 L39.4261585,11.0456861 Z" id="Fill-300"></path>
                <path d="M32.9001585,20.9836861 C27.8261585,15.5926861 23.4291585,9.59568611 18.2521585,4.32368611 C18.1871585,4.25868611 18.0781585,4.34268611 18.1251585,4.42068611 C21.7201585,10.5586861 26.4231585,16.1636861 31.2361585,21.4086861 C29.7611585,22.4446861 28.2051585,23.3556861 26.9231585,24.6436861 C26.2731585,25.2976861 27.2421585,26.2366861 27.9221585,25.6436861 C29.4591585,24.2986861 31.2871585,23.3066861 32.9001585,22.0546861 C33.2341585,21.7956861 33.1561585,21.2546861 32.9001585,20.9836861" id="Fill-301"></path>
                <path d="M14.6011585,5.93468611 C13.2711585,6.35968611 12.2481585,6.99168611 11.4611585,8.15868611 C10.7071585,9.28168611 10.7541585,10.3506861 10.7481585,11.6316861 C10.7481585,11.8596861 11.0671585,11.8926861 11.1351585,11.6836861 C11.7021585,9.92768611 13.4951585,8.60068611 15.1971585,8.10168611 C16.5891585,7.69468611 15.9801585,5.49368611 14.6011585,5.93468611" id="Fill-302"></path>
                <path d="M24.1271585,5.56268611 C23.1541585,5.56268611 22.3431585,6.37468611 22.3431585,7.34868611 C22.3431585,8.31968611 23.1541585,9.13068611 24.1271585,9.13068611 C25.0991585,9.13068611 25.9101585,8.31968611 25.9101585,7.34868611 C25.9101585,6.37468611 25.0991585,5.56268611 24.1271585,5.56268611" id="Fill-303"></path>
                <path d="M17.2061585,9.68668611 C14.6951585,9.68668611 14.6951585,13.5776861 17.2061585,13.5776861 C19.7151585,13.5776861 19.7151585,9.68668611 17.2061585,9.68668611" id="Fill-304"></path>
                <path d="M33.2871585,33.1376861 C31.7051585,33.6876861 30.2361585,34.5316861 28.6551585,35.0996861 C26.9981585,35.6956861 25.2031585,35.9286861 23.4481585,35.8686861 C19.5581585,35.7336861 16.2721585,33.5716861 14.6701585,30.0286861 C14.6121585,29.9006861 14.4371585,29.9956861 14.4571585,30.1166861 C15.2071585,34.1616861 18.5451585,36.8196861 22.4961585,37.5136861 C26.1381585,38.1526861 31.8371585,37.3086861 33.5741585,33.5106861 C33.6591585,33.3266861 33.5181585,33.0556861 33.2871585,33.1376861" id="Fill-305"></path>
            </g>
        </g>
    </g>
</svg>