<?xml version="1.0" encoding="UTF-8"?>
<svg width="56px" height="57px" viewBox="0 0 56 57" version="1.1" xmlns="http://www.w3.org/2000/svg" xmlns:xlink="http://www.w3.org/1999/xlink">
    <title>Group 26</title>
    <g id="Page-1" stroke="none" stroke-width="1" fill="none" fill-rule="evenodd">
        <g id="vectorstock_1327683" transform="translate(-69.000000, -412.000000)" fill="#1B1A19">
            <g id="Group-26" transform="translate(69.687497, 412.769915)">
                <path d="M52.9035029,29.9650853 C52.7105029,30.6380853 52.5665029,31.3150853 52.4235029,31.9980853 C52.3055029,32.5680853 51.5995029,32.3630853 51.0515029,32.2850853 C51.1045029,30.6470853 51.0125029,29.0010853 50.7665029,27.3810853 C50.7085029,27.0060853 50.6425029,26.6390853 50.5705029,26.2740853 C51.1655029,25.1510853 52.6975029,25.0510853 53.8965029,24.8990853 C53.9355029,26.6170853 53.3695029,28.3330853 52.9035029,29.9650853 Z M3.83850287,35.8040853 C1.97150287,35.8350853 0.992502874,35.0640853 0.784502874,33.2050853 C0.641502874,31.9320853 0.812502874,30.6280853 0.919502874,29.3500853 C2.35750287,30.1080853 2.58950287,31.4250853 3.07050287,32.9230853 C3.09350287,32.9950853 3.18450287,32.9880853 3.20850287,32.9230853 C3.22050287,32.8930853 3.22750287,32.8620853 3.23650287,32.8320853 C3.40250287,33.8380853 3.62050287,34.8350853 3.89350287,35.8130853 C3.87250287,35.8120853 3.85850287,35.8040853 3.83850287,35.8040853 Z M54.5235029,24.4450853 C54.4955029,24.2690853 54.2805029,24.1810853 54.1245029,24.2210853 C52.8925029,24.5280853 51.2025029,24.6750853 50.4745029,25.8390853 C47.8935029,14.0500853 37.0385029,7.35008532 25.9855029,4.35408532 C25.5095029,4.22408532 25.3305029,4.92108532 25.7835029,5.08208532 C35.2045029,8.41008532 44.4945029,13.3340853 48.1855029,23.2210853 C51.5265029,32.1690853 49.0145029,42.8790853 41.7595029,49.1370853 C35.2375029,54.7630853 25.4285029,54.9840853 17.9035029,51.3800853 C11.7225029,48.4190853 7.20650287,42.6950853 5.00550287,36.2880853 C3.16750287,30.9340853 3.05050287,24.9750853 4.99350287,19.6390853 C7.34350287,13.1840853 12.8365029,8.86408532 19.1915029,6.68808532 C19.2135029,6.68008532 19.2045029,6.64608532 19.1825029,6.65208532 C12.8685029,8.77308532 7.51650287,12.9760853 4.76650287,19.1330853 C3.14450287,22.7640853 2.62650287,26.7580853 2.96650287,30.6870853 C2.47950287,29.7580853 1.61050287,28.9560853 0.792502874,28.5750853 C0.553502874,28.4630853 0.332502874,28.6030853 0.301502874,28.8580853 C-0.0654971263,31.9450853 -0.910497126,37.2160853 3.83850287,36.7030853 C3.95750287,36.6900853 4.04850287,36.6370853 4.11950287,36.5670853 C4.15350287,36.6810853 4.18550287,36.7940853 4.22050287,36.9070853 C8.51350287,50.2740853 22.9625029,58.7270853 36.5825029,53.8530853 C45.3435029,50.7180853 50.3185029,42.3010853 50.9895029,33.4670853 C52.2205029,33.9690853 53.3955029,33.5420853 53.6295029,32.0630853 C54.0255029,29.5680853 54.9155029,26.9910853 54.5235029,24.4450853 L54.5235029,24.4450853 Z" id="Fill-11"></path>
                <path d="M46.5395029,25.2670853 C43.8695029,24.8660853 40.9385029,25.2540853 38.2455029,25.3480853 C35.0325029,25.4600853 31.8195029,25.6070853 28.6065029,25.7580853 C22.4935029,26.0450853 16.1585029,25.9670853 10.0975029,26.8330853 C10.0125029,26.8460853 10.0415029,26.9690853 10.1175029,26.9750853 C16.1885029,27.5140853 22.5205029,26.8720853 28.6065029,26.6980853 C31.8195029,26.6070853 35.0325029,26.5260853 38.2455029,26.4700853 C40.9585029,26.4240853 43.8615029,26.7190853 46.5395029,26.3080853 C47.0565029,26.2290853 47.0585029,25.3450853 46.5395029,25.2670853" id="Fill-12"></path>
                <path d="M36.7155029,29.1040853 C34.6965029,28.5780853 32.3775029,28.8750853 30.3035029,28.9210853 C27.6535029,28.9810853 25.0355029,29.0440853 22.3955029,29.3080853 C22.2575029,29.3210853 22.2575029,29.5090853 22.3955029,29.5230853 C24.7725029,29.7600853 27.1255029,29.8390853 29.5125029,29.8920853 C31.8275029,29.9420853 34.4615029,30.3140853 36.7155029,29.7280853 C37.0245029,29.6470853 37.0245029,29.1830853 36.7155029,29.1040853" id="Fill-13"></path>
                <path d="M29.1275029,19.7950853 C27.3775029,19.2320853 26.5295029,21.3950853 26.7395029,22.7510853 C26.7595029,22.8830853 26.9485029,22.8580853 26.9825029,22.7510853 C27.2585029,21.8840853 27.6225029,20.1300853 28.9085029,20.5870853 C30.0725029,20.9990853 29.8615029,22.4960853 29.7595029,23.4100853 C29.7045029,23.8920853 30.4875029,24.1040853 30.6845029,23.6600853 C31.3115029,22.2480853 30.6525029,20.2870853 29.1275029,19.7950853" id="Fill-14"></path>
                <path d="M17.5445029,19.5320853 C16.8735029,19.5420853 16.2045029,19.5130853 15.5365029,19.5120853 C16.5755029,19.0050853 17.6175029,18.5080853 18.6185029,17.9180853 C18.5085029,18.4870853 18.9395029,19.1680853 19.5515029,19.1570853 C19.7985029,19.2070853 20.0485029,19.1870853 20.2895029,19.0450853 C20.6185029,18.8540853 20.8245029,18.4930853 20.8245029,18.1130853 C20.8245029,18.0380853 20.8105029,17.9640853 20.7945029,17.8930853 C20.7975029,17.8950853 20.7985029,17.8960853 20.8025029,17.8990853 C21.2895029,18.3040853 21.7845029,18.6970853 22.2655029,19.1080853 C20.7045029,19.3980853 19.1395029,19.5090853 17.5445029,19.5320853 Z M23.5515029,19.0510853 C22.4825029,18.0590853 21.2385029,17.2820853 20.1565029,16.3060853 C19.9895029,16.1560853 19.7805029,16.1670853 19.6125029,16.3060853 C18.0855029,17.5770853 16.3015029,18.4490853 14.6485029,19.5330853 C14.2305029,19.5560853 13.8135029,19.5990853 13.3995029,19.6840853 C13.1565029,19.7340853 13.1595029,20.1170853 13.3995029,20.1690853 C13.4885029,20.1890853 13.5795029,20.2050853 13.6705029,20.2220853 C13.5805029,20.2890853 13.4895029,20.3520853 13.4025029,20.4220853 C13.3205029,20.4860853 13.4255029,20.6120853 13.5115029,20.5630853 C13.6765029,20.4690853 13.8455029,20.3780853 14.0125029,20.2880853 C17.0035029,20.8020853 20.4535029,20.4530853 23.3525029,19.8010853 C23.6785029,19.7290853 23.7925029,19.2750853 23.5515029,19.0510853 L23.5515029,19.0510853 Z" id="Fill-15"></path>
                <path d="M33.2845029,19.2340853 C34.1845029,18.9100853 35.1625029,18.5000853 35.8965029,17.9760853 C35.8965029,18.5680853 36.3915029,19.0640853 36.9855029,19.0640853 C37.5775029,19.0640853 38.0715029,18.5680853 38.0715029,17.9760853 C38.0715029,17.9370853 38.0645029,17.8990853 38.0605029,17.8590853 C38.7935029,18.2360853 39.5525029,18.5600853 40.3205029,18.8700853 C37.9785029,19.0880853 35.6305029,19.0760853 33.2845029,19.2340853 Z M42.0415029,18.6950853 C40.2525029,17.9690853 38.3955029,17.3980853 36.8115029,16.2650853 C36.6185029,16.1260853 36.3385029,16.2720853 36.2795029,16.4820853 C35.9245029,17.7610853 32.5275029,18.7470853 31.5235029,19.5080853 C31.3905029,19.6080853 31.4615029,19.8730853 31.6495029,19.8040853 C31.9195029,19.7040853 32.2545029,19.5930853 32.6225029,19.4670853 C35.7615029,19.8010853 38.8995029,19.9590853 42.0415029,19.4830853 C42.4895029,19.4160853 42.3645029,18.8260853 42.0415029,18.6950853 L42.0415029,18.6950853 Z" id="Fill-16"></path>
                <path d="M18.8825029,11.9460853 C18.0575029,12.9860853 17.2665029,14.0290853 16.2725029,14.9200853 C15.2955029,15.7960853 14.1485029,16.5720853 13.3885029,17.6490853 C13.3315029,17.7300853 13.4385029,17.8080853 13.5115029,17.7720853 C15.6975029,16.7320853 18.7215029,14.6750853 19.2725029,12.1740853 C19.3175029,11.9670853 19.0395029,11.7500853 18.8825029,11.9460853" id="Fill-17"></path>
                <path d="M42.2635029,16.3870853 C40.9385029,16.0350853 39.6975029,15.4920853 38.6595029,14.5840853 C37.6155029,13.6690853 37.2165029,12.5040853 36.9065029,11.1980853 C36.8435029,10.9340853 36.4005029,10.9120853 36.3525029,11.1980853 C35.7855029,14.5460853 39.4195029,16.3170853 42.1585029,16.7690853 C42.4045029,16.8100853 42.5155029,16.4530853 42.2635029,16.3870853" id="Fill-18"></path>
                <path d="M20.1515029,1.21708532 C19.0825029,2.08008532 18.4295029,3.19008532 17.7705029,4.38308532 C17.1485029,5.51008532 16.1635029,7.01408532 16.1635029,8.34608532 C16.1635029,8.53008532 16.4305029,8.68008532 16.5615029,8.51108532 C17.3035029,7.55108532 17.6015029,6.14208532 18.0925029,5.04408532 C18.6715029,3.74708532 19.3525029,2.39708532 20.1785029,1.23808532 C20.1915029,1.22108532 20.1655029,1.20408532 20.1515029,1.21708532" id="Fill-19"></path>
                <path d="M22.7515029,0.886085316 C21.8195029,1.82708532 21.0435029,3.05208532 20.3935029,4.20108532 C19.7615029,5.31708532 18.8765029,6.74608532 18.9355029,8.06608532 C18.9465029,8.32908532 19.2595029,8.39508532 19.4035029,8.19308532 C20.1595029,7.14508532 20.4825029,5.76308532 21.0845029,4.60708532 C21.7025029,3.42208532 22.4575029,2.23408532 22.9025029,0.974085316 C22.9325029,0.887085316 22.8115029,0.825085316 22.7515029,0.886085316" id="Fill-20"></path>
                <path d="M25.3905029,0.0370853159 C24.5945029,1.00208532 24.0065029,2.04708532 23.5235029,3.20408532 C23.0605029,4.30908532 22.0835029,6.10808532 22.5715029,7.29608532 C22.6345029,7.44708532 22.8625029,7.57508532 22.9925029,7.40708532 C23.6325029,6.58708532 23.6125029,5.27408532 23.9015029,4.27408532 C24.3105029,2.86008532 24.9545029,1.50608532 25.5605029,0.167085316 C25.6055029,0.0650853159 25.4735029,-0.0649146841 25.3905029,0.0370853159" id="Fill-21"></path>
            </g>
        </g>
    </g>
</svg>