<?xml version="1.0" encoding="UTF-8"?>
<svg width="45px" height="48px" viewBox="0 0 45 48" version="1.1" xmlns="http://www.w3.org/2000/svg" xmlns:xlink="http://www.w3.org/1999/xlink">
    <title>Group 54</title>
    <g id="Page-1" stroke="none" stroke-width="1" fill="none" fill-rule="evenodd">
        <g id="vectorstock_1327683" transform="translate(-502.000000, -249.000000)" fill="#0A0B09">
            <g id="Group-54" transform="translate(502.502676, 249.829376)">
                <path d="M42.2633244,17.2286238 C41.6963244,18.2626238 40.5023244,19.0976238 39.5613244,19.7556238 C39.1823244,20.0216238 38.6413244,20.4246238 38.0833244,20.7166238 C37.9953244,19.8836238 37.8583244,19.0596238 37.6753244,18.2446238 C37.7753244,18.1546238 37.8793244,18.0686238 37.9873244,17.9966238 C38.5383244,17.6376238 39.2633244,17.5116238 39.9083244,17.4746238 C39.9803244,17.4716238 39.9953244,17.3716238 39.9243244,17.3466238 C39.2243244,17.1016238 38.5953244,17.0986238 37.8883244,17.3216238 C37.7723244,17.3576238 37.6333244,17.4056238 37.4863244,17.4686238 C37.4213244,17.2106238 37.3513244,16.9536238 37.2733244,16.6996238 C38.0013244,16.6116238 38.7233244,16.4446238 39.4493244,16.3006238 C40.1403244,16.1646238 43.0903244,15.7176238 42.2633244,17.2286238 Z M3.12232442,8.34262385 C3.39432442,7.26862385 4.40432442,5.70162385 5.70632442,5.94462385 C6.64332442,6.11762385 6.65032442,7.13162385 6.80232442,7.96262385 C6.48532442,8.24262385 6.18532442,8.53862385 5.89132442,8.84262385 C5.83332442,8.14762385 5.55232442,7.48562385 5.06432442,7.20762385 C4.98232442,7.16062385 4.84832442,7.19862385 4.83432442,7.30062385 C4.73932442,7.85162385 4.92732442,8.39962385 4.93732442,8.94962385 C4.95132442,9.63562385 4.47432442,10.0866238 4.33332442,10.7106238 C3.80232442,11.4436238 3.31832442,12.2186238 2.88532442,13.0366238 C2.83532442,11.4536238 2.71932442,9.92162385 3.12232442,8.34262385 Z M41.3273244,15.0296238 C39.9033244,14.9506238 38.3653244,15.3536238 37.0323244,15.9706238 C36.8943244,15.5796238 36.7483244,15.1896238 36.5863244,14.8056238 C33.9233244,8.52562385 27.8113244,4.85062385 21.2113244,4.23462385 C20.6753244,4.18362385 20.4713244,5.00862385 20.9383244,5.24562385 C23.9243244,6.76362385 27.2413244,7.96862385 29.9073244,10.0436238 C32.6273244,12.1606238 34.3923244,15.2086238 35.2053244,18.5236238 C36.6293244,24.3086238 35.0713244,30.6856238 32.0333244,35.6906238 C29.0393244,40.6296238 23.9713244,44.4666238 18.0463244,44.6126238 C12.6783244,44.7426238 7.64332442,41.8686238 4.78432442,37.4116238 C-0.347675578,29.4156238 0.432324422,15.7086238 7.15532442,8.78762385 C7.24132442,8.82362385 7.34432442,8.81762385 7.41332442,8.74362385 C7.56432442,8.58762385 7.66332442,8.41062385 7.73232442,8.22462385 C10.4313244,5.72662385 13.9983244,4.27062385 18.4403244,4.56162385 C18.5603244,4.56862385 18.5573244,4.38862385 18.4403244,4.37662385 C14.1603244,3.94362385 10.5993244,5.05662385 7.78232442,7.16562385 C7.65932442,6.53662385 7.31832442,5.90862385 6.95032442,5.47362385 C6.22632442,4.62062385 4.81432442,4.77462385 4.02932442,5.41962385 C1.80632442,7.24062385 1.50132442,11.1476238 2.54232442,13.7086238 C-2.38067558,23.8106238 -0.249675578,39.1166238 9.77232442,44.4706238 C14.9253244,47.2216238 20.8683244,47.3576238 26.0543244,44.6706238 C31.1023244,42.0526238 34.6233244,36.9956238 36.5953244,31.7946238 C37.7863244,28.6476238 38.3523244,25.2156238 38.1713244,21.8416238 C38.9023244,21.5656238 39.6273244,21.0526238 40.1333244,20.7296238 C41.4413244,19.8936238 43.0593244,18.7376238 43.5323244,17.1776238 C43.9603244,15.7636238 42.4463244,15.0906238 41.3273244,15.0296238 L41.3273244,15.0296238 Z" id="Fill-273"></path>
                <path d="M20.4933244,38.8926238 C17.4723244,40.8616238 13.5233244,38.2946238 12.0143244,35.6366238 C10.9373244,33.7466238 10.9853244,31.2216238 12.4233244,29.5896238 C12.7243244,29.4376238 13.0113244,29.2796238 13.2893244,29.1246238 C13.0433244,30.0526238 12.9893244,31.1006238 12.9533244,31.9946238 C12.9423244,32.2336238 13.1673244,32.4596238 13.4083244,32.4516238 C14.5183244,32.4026238 15.8923244,32.2786238 16.5993244,31.2856238 C17.1663244,30.4866238 17.2223244,29.3796238 17.3103244,28.3896238 C17.9233244,28.5626238 18.5123244,28.8346238 19.0683244,29.1336238 C20.4283244,29.8606238 21.6083244,31.0526238 22.2023244,32.4876238 C23.1193244,34.7046238 22.5663244,37.5416238 20.4933244,38.8926238 Z M16.3813244,28.2256238 C16.2733244,28.9736238 16.1903244,29.7706238 15.8563244,30.4356238 C15.4903244,31.1736238 14.6523244,31.3856238 13.8733244,31.4866238 C13.9223244,30.5726238 14.1003244,29.6276238 14.0623244,28.7226238 C14.5373244,28.4986238 15.0343244,28.3136238 15.6213244,28.2386238 C15.8783244,28.2066238 16.1313244,28.2086238 16.3813244,28.2256238 Z M23.8743244,31.7846238 C23.0573244,29.8416238 21.2113244,28.4056238 19.2863244,27.6646238 C17.7023244,27.0546238 15.5643244,26.9506238 13.9263244,27.7096238 C13.3463244,27.8506238 12.8003244,28.0866238 12.3143244,28.4626238 C10.1753244,30.1356238 9.71532442,32.8796238 10.4503244,35.3726238 C11.7023244,39.6166238 16.8183244,42.5996238 21.0013244,40.7456238 C24.3963244,39.2416238 25.1903244,34.9076238 23.8743244,31.7846238 L23.8743244,31.7846238 Z" id="Fill-274"></path>
                <path d="M19.0573244,19.1956238 C18.6623244,19.1666238 18.3713244,19.4046238 18.0593244,19.6096238 C17.7953244,19.7836238 17.5133244,19.9226238 17.2293244,20.0606238 C16.8753244,20.2316238 16.4293244,20.3336238 16.1773244,20.2966238 C15.8353244,20.2446238 15.6653244,20.1286238 15.4383244,19.8786238 C15.2533244,19.6726238 15.1063244,19.3306238 15.0243244,18.9986238 C14.8823244,18.4176238 14.9423244,17.6166238 15.3073244,17.1666238 C15.7883244,16.5676238 16.6613244,16.7746238 17.3423244,17.0916238 C17.7463244,17.2786238 18.0493244,16.7576238 17.6883244,16.4976238 C16.7723244,15.8356238 15.5983244,15.5606238 14.6933244,16.3976238 C13.9513244,17.0826238 13.8253244,18.2206238 13.9573244,19.1636238 C14.1003244,20.1766238 14.7463244,21.1046238 15.7403244,21.4206238 C16.3243244,21.6036238 16.9843244,21.5006238 17.5483244,21.2906238 C18.2473244,21.0286238 19.3823244,20.3876238 19.4273244,19.5686238 C19.4383244,19.3526238 19.2483244,19.2096238 19.0573244,19.1956238" id="Fill-275"></path>
                <path d="M17.2073244,11.1466238 C15.0893244,11.1466238 15.0893244,14.4296238 17.2073244,14.4296238 C19.3243244,14.4296238 19.3243244,11.1466238 17.2073244,11.1466238" id="Fill-276"></path>
                <path d="M23.6773244,12.6346238 C21.4933244,12.6346238 21.4933244,16.0236238 23.6773244,16.0236238 C25.8653244,16.0236238 25.8653244,12.6346238 23.6773244,12.6346238" id="Fill-277"></path>
                <path d="M17.8103244,1.04262385 C17.3983244,-0.452376151 15.6263244,-0.0323761515 14.5633244,0.426623849 C13.2113244,1.00762385 12.0143244,1.90862385 11.2273244,3.16262385 C11.1593244,3.26862385 11.2693244,3.41562385 11.3913244,3.37762385 C12.3843244,3.05462385 13.3463244,2.66262385 14.3473244,2.36862385 C14.8373244,2.22462385 15.4023244,2.10662385 15.9163244,2.17762385 C16.4643244,2.25362385 16.9223244,2.37662385 17.4153244,2.01762385 C17.7313244,1.78662385 17.9263244,1.44462385 17.8103244,1.04262385" id="Fill-278"></path>
                <path d="M29.1843244,1.17162385 C27.9663244,0.245623849 26.0483244,0.0936238485 25.1953244,1.50262385 C25.0573244,1.73162385 25.2003244,1.97862385 25.4253244,2.06662385 C26.2563244,2.39762385 27.1613244,2.35762385 27.9763244,2.72262385 C28.8443244,3.11262385 29.4513244,4.01962385 30.0003244,4.76062385 C30.2123244,5.04562385 30.8013244,5.10362385 30.8703244,4.64662385 C31.0983244,3.16162385 30.3293244,2.04462385 29.1843244,1.17162385" id="Fill-279"></path>
            </g>
        </g>
    </g>
</svg>