<?xml version="1.0" encoding="UTF-8"?>
<svg width="62px" height="57px" viewBox="0 0 62 57" version="1.1" xmlns="http://www.w3.org/2000/svg" xmlns:xlink="http://www.w3.org/1999/xlink">
    <title>Group 45</title>
    <g id="Page-1" stroke="none" stroke-width="1" fill="none" fill-rule="evenodd">
        <g id="vectorstock_1327683" transform="translate(-312.000000, -357.000000)" fill="#0A0B09">
            <g id="Group-45" transform="translate(312.217537, 357.724977)">
                <path d="M46.7494628,22.0750233 C46.6364628,21.7640233 46.5164628,21.4540233 46.3904628,21.1520233 C46.1344628,20.5260233 45.8484628,19.9150233 45.5344628,19.3250233 C45.7064628,19.0040233 45.7094628,18.4930233 46.0794628,18.3210233 C46.8104628,17.9830233 46.1524628,16.8990233 45.5214628,17.3880233 C45.2674628,17.5860233 45.0544628,17.9160233 44.9374628,18.2760233 C44.5804628,17.6860233 44.1914628,17.1180233 43.7734628,16.5740233 C44.3154628,16.0360233 44.9444628,15.5770233 45.7024628,15.4370233 C46.9524628,15.2060233 47.3544628,16.6750233 47.5004628,17.6060233 C47.6684628,18.6670233 47.8754628,19.6410233 47.6944628,20.7250233 C47.6054628,21.2440233 47.3824628,21.6330233 46.9584628,21.9340233 C46.8774628,21.9880233 46.8104628,22.0340233 46.7494628,22.0750233 Z M44.7864628,38.8190233 C39.8554628,52.0810233 21.2364628,54.1490233 11.2204628,45.7240233 C7.99046283,43.0070233 5.74446283,39.3410233 4.69646283,35.3380233 C4.70446283,35.3000233 4.70746283,35.2660233 4.71746283,35.2260233 C4.90146283,34.1400233 5.03746283,33.0830233 5.43146283,32.0430233 C6.11246283,30.2500233 7.11146283,28.4860233 8.15246283,26.8780233 C9.88646283,24.2070233 12.0204628,21.4620233 14.5634628,19.4200233 C13.6844628,20.5340233 13.2094628,22.0010233 13.0644628,23.4010233 C12.8564628,25.4120233 13.5534628,28.0470233 15.7784628,28.6020233 C18.1454628,29.1880233 20.5284628,27.6870233 21.6494628,25.5960233 C21.6944628,27.2920233 22.4704628,28.9780233 24.2024628,28.7360233 C24.3774628,28.7120233 24.4334628,28.4210233 24.2304628,28.4020233 C22.3764628,28.2180233 22.6174628,25.0930233 23.2494628,23.9390233 C23.8344628,22.8730233 25.1794628,23.1260233 25.9594628,23.7840233 C26.9774628,24.6450233 27.5034628,26.1590233 27.7604628,27.4280233 C27.8854628,28.0430233 28.9104628,27.9900233 28.9844628,27.3730233 C29.1284628,26.2000233 28.6094628,24.7830233 27.7604628,23.6590233 C28.4144628,23.9810233 29.1364628,24.1610233 29.8854628,24.1450233 C32.9234628,24.0710233 36.1414628,20.6870233 34.8974628,17.5550233 C34.5024628,16.5590233 33.7494628,15.7920233 32.8354628,15.2900233 C33.2834628,15.3300233 33.7164628,15.3730233 34.1144628,15.4120233 C36.1924628,15.6110233 38.4474628,15.3790233 40.4704628,15.9230233 C41.1634628,16.5690233 41.7984628,17.2940233 42.3554628,18.1030233 C46.4824628,24.1040233 47.3084628,32.0310233 44.7864628,38.8190233 Z M3.20146283,43.1120233 C1.98646283,42.6160233 1.35846283,41.1820233 1.18146283,39.9750233 C1.05146283,39.0940233 1.16546283,38.2640233 1.32546283,37.3990233 C1.61246283,35.8620233 2.91546283,36.5820233 3.73846283,37.2590233 C3.76046283,37.3230233 3.78346283,37.3880233 3.80346283,37.4510233 C3.34346283,37.5420233 2.90346283,37.7710233 2.68546283,38.0680233 C2.11546283,38.8280233 2.43446283,39.8200233 2.88646283,40.5540233 C2.93546283,40.6370233 3.06346283,40.5790233 3.04046283,40.4860233 C2.90346283,39.9720233 2.74146283,39.0570233 3.25946283,38.6750233 C3.44446283,38.5390233 3.67046283,38.5490233 3.88446283,38.5940233 C4.02046283,38.6220233 4.13846283,38.6640233 4.25346283,38.7010233 C4.77246283,40.0110233 5.41346283,41.2740233 6.17046283,42.4780233 C5.31346283,43.1710233 4.48846283,43.6410233 3.20146283,43.1120233 Z M25.8054628,21.9970233 C24.6694628,21.4720233 23.4154628,21.5800233 22.3704628,22.8590233 C22.3464628,22.8880233 22.3264628,22.9190233 22.3034628,22.9490233 C22.2534628,22.3260233 21.9934628,21.6360233 21.5934628,20.9750233 C22.0204628,20.7810233 22.4774628,20.6460233 22.9414628,20.5310233 C23.5834628,20.3750233 24.3214628,20.4330233 24.9464628,20.2360233 C25.1184628,20.8670233 25.4154628,21.4670233 25.8054628,21.9970233 Z M26.1424628,16.5460233 C26.1524628,16.5410233 26.1644628,16.5360233 26.1754628,16.5270233 C26.2944628,16.4170233 26.4174628,16.3180233 26.5464628,16.2250233 C26.6254628,16.1740233 26.7104628,16.1240233 26.8004628,16.0800233 C26.8074628,16.2200233 26.9074628,16.3460233 27.0804628,16.3030233 C29.3604628,15.7090233 32.4084628,15.1520233 33.7284628,17.6840233 C35.2094628,20.5260233 31.6794628,23.0920233 29.1914628,22.9540233 C26.0774628,22.7800233 24.1724628,18.4470233 26.1424628,16.5460233 Z M4.09046283,28.5050233 C4.52346283,23.1550233 7.18746283,19.0850233 10.8294628,15.7140233 C10.8834628,15.6890233 10.9284628,15.6510233 10.9534628,15.6010233 C12.2374628,14.4230233 13.6424628,13.3300233 15.1144628,12.2970233 C15.1584628,12.2660233 15.1184628,12.1940233 15.0724628,12.2250233 C13.6484628,13.1060233 12.2614628,14.0510233 10.9614628,15.0800233 C10.8904628,14.7640233 10.7224628,14.4670233 10.6304628,14.1260233 C10.4284628,13.3910233 10.4774628,12.5980233 10.6284628,11.8610233 C10.9584628,10.2830233 11.9614628,9.15902329 13.5124628,8.96402329 C13.5594628,9.34002329 13.7084628,9.66902329 13.9344628,9.94702329 C13.3494628,12.6680233 17.9364628,13.0400233 19.6834628,12.9620233 C21.6044628,12.8730233 23.4384628,11.9530233 24.2614628,10.5490233 C24.3074628,10.6320233 24.3794628,10.6990233 24.4774628,10.7340233 C27.5734628,11.7670233 31.0134628,11.6970233 34.1884628,12.5430233 C36.0164628,13.0300233 37.7174628,13.8080233 39.2024628,14.8830233 C37.5244628,14.5780233 35.7414628,14.5680233 34.1514628,14.5020233 C32.8974628,14.4510233 31.3404628,14.4050233 29.8644628,14.6200233 C29.2564628,14.6540233 28.6604628,14.7930233 28.1104628,15.0370233 C27.3754628,15.2930233 26.7144628,15.6600233 26.1784628,16.1720233 C25.2384628,16.7710233 24.7434628,17.8170233 24.7744628,19.0730233 C24.0954628,19.0030233 23.3014628,19.3290233 22.6984628,19.5360233 C22.1424628,19.7290233 21.6044628,19.9690233 21.1114628,20.2820233 C19.8454628,18.6780233 17.8254628,17.5140233 16.2654628,18.5080233 C16.0874628,18.6200233 16.1734628,18.9550233 16.3864628,18.9570233 C17.8814628,18.9820233 19.4614628,19.7410233 20.4064628,20.9110233 C20.3764628,21.1120233 20.5304628,21.3310233 20.7274628,21.3650233 C21.2534628,22.2260233 21.4414628,23.2570233 21.0674628,24.3580233 C20.3354628,26.5110233 17.3904628,28.8390233 15.1354628,27.4040233 C13.6614628,26.4690233 13.5234628,24.2640233 13.7084628,22.7240233 C13.9374628,20.7950233 14.9754628,18.8090233 16.8464628,18.0670233 C17.0004628,18.0050233 16.9034628,17.7790233 16.7514628,17.8330233 C16.0264628,18.0780233 15.4194628,18.4900233 14.9204628,19.0100233 C12.0654628,20.8590233 9.61346283,23.1440233 7.63646283,25.9500233 C6.54246283,27.5070233 5.73546283,29.1880233 4.88446283,30.8810233 C4.58646283,31.4740233 4.36346283,32.0800233 4.18446283,32.7060233 C4.01146283,31.3200233 3.97546283,29.9110233 4.09046283,28.5050233 Z M21.7614628,8.21502329 C21.1404628,9.63802329 18.9214628,10.0710233 17.5534628,10.1780233 C15.6194628,10.3290233 13.5754628,9.17302329 15.0374628,7.15102329 C17.1844628,4.18202329 23.2674628,4.78602329 23.8714628,8.76702329 C24.2304628,11.1500233 20.7074628,11.6900233 19.0844628,11.9120233 C17.7814628,12.0900233 14.4514628,12.1190233 14.2884628,10.3000233 C16.3624628,11.9560233 21.8034628,11.2010233 22.0854628,8.30302329 C22.1044628,8.11102329 21.8394628,8.03602329 21.7614628,8.21502329 Z M23.9474628,6.62002329 C23.5814628,6.08602329 23.1104628,5.64102329 22.5604628,5.29702329 C24.4254628,3.97802329 27.3604628,3.29002329 29.3534628,4.65202329 C30.9094628,5.71502329 31.0294628,8.22102329 31.0394628,9.93202329 C30.5214628,9.86102329 29.9904628,9.80202329 29.4544628,9.75902329 C29.2284628,7.09102329 26.3214628,5.13102329 23.9474628,6.62002329 Z M24.1324628,6.90302329 C25.9544628,6.56102329 27.9874628,7.78102329 28.0664628,9.69102329 C26.8634628,9.66502329 25.6584628,9.74102329 24.5284628,9.98702329 C24.8514628,9.09002329 24.7834628,8.03702329 24.1324628,6.90302329 Z M29.0914628,1.51002329 C31.0014628,2.23502329 32.2364628,4.22802329 33.0884628,5.97902329 C33.6004628,7.03602329 33.9164628,8.17402329 34.0844628,9.32902329 C34.1424628,9.74402329 34.0994628,10.1430233 34.1474628,10.5020233 C33.4774628,10.3420233 32.7984628,10.2090233 32.1174628,10.0940233 C32.1284628,10.0470233 32.1364628,9.99802329 32.1354628,9.94402329 C32.1064628,7.83102329 31.7934628,4.72102329 29.6514628,3.60902329 C27.1324628,2.30302329 24.3124628,3.24902329 22.4414628,5.22102329 C22.0264628,4.97202329 21.5684628,4.77702329 21.0914628,4.63602329 C22.3994628,1.73202329 26.1674628,0.400023289 29.0914628,1.51002329 Z M58.8094628,34.5180233 C58.4284628,34.4700233 57.9584628,34.9120233 58.2734628,35.2870233 C60.6334628,38.0800233 58.3174628,42.9190233 55.2274628,44.0010233 C51.5454628,45.2870233 48.5734628,42.0580233 47.2494628,38.6900233 C47.4524628,38.0590233 47.6284628,37.4180233 47.7754628,36.7710233 C48.0274628,37.6940233 48.4774628,38.5660233 49.1544628,39.3410233 C50.4594628,40.8360233 53.0944628,41.3500233 54.7184628,40.0710233 C56.5304628,38.6450233 57.0794628,36.1350233 56.0574628,34.0930233 C55.7154628,33.4070233 54.9434628,32.7310233 54.1354628,33.0420233 C53.3624628,33.3410233 53.1024628,34.5920233 52.9614628,35.3140233 C52.9004628,35.6290233 53.3224628,35.7800233 53.4444628,35.4700233 C53.8274628,34.4790233 54.4944628,33.8600233 55.0614628,35.1220233 C55.3404628,35.7380233 55.1874628,36.4910233 55.0104628,37.1070233 C54.5544628,38.6580233 53.2144628,39.6190233 51.6004628,39.3080233 C49.5034628,38.9020233 48.5114628,36.1710233 48.2194628,34.1550233 C48.6374628,30.5010233 48.2454628,26.7190233 47.1424628,23.2300233 C47.3164628,23.1670233 47.4844628,23.0910233 47.6484628,22.9940233 C49.1944628,22.0710233 49.2634628,19.7040233 48.8834628,18.1510233 C48.5564628,16.8180233 47.9174628,14.9630233 46.3254628,14.7860233 C45.2224628,14.6610233 44.3014628,15.5150233 43.6354628,16.4010233 C42.0104628,14.3410233 39.9524628,12.6630233 37.4524628,11.5810233 C36.7914628,11.2940233 36.1084628,11.0530233 35.4204628,10.8460233 C35.6714628,10.2500233 35.4354628,9.45002329 35.3264628,8.79002329 C35.1064628,7.45202329 34.5934628,6.20902329 33.9794628,5.01002329 C32.9704628,3.02602329 31.4284628,1.16202329 29.2854628,0.399023289 C25.6734628,-0.891976711 22.0754628,1.06402329 21.0244628,4.61802329 C17.9704628,3.74702329 14.0514628,5.01402329 13.5234628,8.33502329 C13.5024628,8.47102329 13.4954628,8.60302329 13.4954628,8.72902329 C11.9554628,8.68602329 10.6164628,9.52102329 10.0074628,11.0190233 C9.59346283,12.0450233 9.29046283,14.7110233 10.3714628,15.5540233 C9.47346283,16.2960233 8.62646283,17.0790233 7.84346283,17.9180233 C7.73546283,17.2240233 7.18046283,16.6030233 6.89746283,15.9230233 C6.36246283,14.6320233 6.73346283,13.4790233 7.10746283,12.2110233 C7.86746283,9.64002329 10.2484628,8.08602329 12.8194628,7.83702329 C12.9834628,7.82002329 12.9784628,7.58902329 12.8134628,7.58402329 C10.0554628,7.47402329 7.24246283,8.79902329 6.06346283,11.4020233 C5.46246283,12.7230233 5.17846283,14.1220233 5.41346283,15.5540233 C5.57546283,16.5500233 6.15946283,18.2200233 7.14446283,18.6970233 C6.82246283,19.0740233 6.51346283,19.4620233 6.22046283,19.8610233 C3.99546283,16.5920233 3.40046283,12.9780233 5.17746283,9.31002329 C6.74346283,6.07602329 10.6364628,5.32402329 13.7094628,6.68702329 C13.8624628,6.75502329 13.9574628,6.54602329 13.8204628,6.45802329 C10.6574628,4.41302329 6.65246283,4.79802329 4.56946283,8.17302329 C2.09246283,12.1940233 2.77146283,16.7910233 5.34146283,20.5220233 C5.41746283,20.6350233 5.51246283,20.7010233 5.61546283,20.7350233 C4.46146283,22.5030233 3.59546283,24.4780233 3.14246283,26.7110233 C2.45346283,30.1160233 2.64946283,33.5450233 3.59146283,36.7710233 C2.91546283,36.0150233 2.00046283,35.3710233 1.04846283,36.0970233 C-0.147537168,37.0110233 -0.0795371684,38.9750233 0.101462832,40.2930233 C0.334462832,41.9540233 1.42846283,43.8270233 3.13346283,44.3200233 C4.04146283,44.5830233 6.05346283,44.4290233 6.91746283,43.5860233 C7.24146283,44.0440233 7.58646283,44.4910233 7.94746283,44.9290233 C9.02946283,46.2400233 10.2584628,47.3910233 11.5874628,48.3880233 C12.3494628,49.4170233 12.7564628,50.7760233 12.6674628,51.9830233 C12.5854628,53.1080233 11.3684628,54.0310233 10.3524628,54.2440233 C9.70446283,54.3790233 8.63946283,53.9230233 8.04146283,53.2580233 C8.27046283,52.5830233 8.00046283,51.7860233 7.52546283,51.2300233 C7.12446283,50.7600233 6.50646283,50.9330233 6.24046283,51.4280233 C5.39546283,52.9990233 6.64346283,54.4840233 8.02246283,55.2170233 C9.67946283,56.0990233 11.5334628,55.9230233 12.8404628,54.4950233 C14.1484628,53.0670233 13.9794628,51.0020233 13.0174628,49.3740233 C21.8234628,54.9470233 34.3434628,54.2710233 42.0774628,46.9900233 C44.2214628,44.9740233 45.7834628,42.5420233 46.8174628,39.8980233 C47.3184628,41.4920233 48.0994628,43.0210233 49.0534628,44.1030233 C50.8494628,46.1330233 53.6484628,46.4480233 56.1294628,45.6030233 C58.6104628,44.7530233 60.0114628,42.5270233 60.7474628,40.1400233 C61.2844628,38.3950233 61.0774628,34.8100233 58.8094628,34.5180233 L58.8094628,34.5180233 Z" id="Fill-397"></path>
                <path d="M19.2474628,22.0930233 C18.9404628,21.6960233 18.4814628,21.4370233 17.9834628,21.3720233 C17.4884628,21.3110233 16.9784628,21.4490233 16.5824628,21.7570233 C16.3194628,21.9610233 16.0944628,22.2570233 15.9684628,22.5800233 C15.9474628,22.6200233 15.9264628,22.6570233 15.9084628,22.7000233 C15.7264628,23.1550233 15.7284628,23.6760233 15.9164628,24.1300233 C16.3024628,25.0630233 17.4494628,25.5800233 18.3904628,25.1580233 C19.0534628,24.8630233 19.5804628,24.2400233 19.6334628,23.4970233 C19.6674628,22.9830233 19.5714628,22.5080233 19.2474628,22.0930233" id="Fill-398"></path>
                <path d="M30.7854628,18.5730233 C30.7034628,18.2640233 30.5564628,17.9960233 30.3364628,17.7690233 C30.3364628,17.7690233 30.3364628,17.7690233 30.3344628,17.7690233 C30.1174628,17.5500233 29.8634628,17.3980233 29.5674628,17.3090233 C29.4184628,17.2680233 29.2654628,17.2450233 29.1114628,17.2430233 C29.1124628,17.2410233 29.1154628,17.2400233 29.1154628,17.2400233 C29.1074628,17.2400233 29.1024628,17.2380233 29.0954628,17.2370233 L29.0674628,17.2400233 C28.9374628,17.2410233 28.8074628,17.2570233 28.6784628,17.2840233 C28.6604628,17.2870233 28.6444628,17.2880233 28.6254628,17.2900233 C28.3304628,17.3660233 28.0744628,17.5090233 27.8514628,17.7140233 C27.7764628,17.7690233 27.7034628,17.8240233 27.6364628,17.8850233 C27.4744628,18.0330233 27.3994628,18.1610233 27.3304628,18.3110233 C27.3244628,18.3230233 27.3214628,18.3330233 27.3134628,18.3450233 C27.1174628,18.6690233 27.0604628,19.0710233 27.1524628,19.4390233 C27.1864628,19.5740233 27.2424628,19.6920233 27.3094628,19.8030233 C27.3054628,19.8030233 27.3014628,19.8030233 27.2974628,19.8000233 C27.3134628,19.8230233 27.3344628,19.8450233 27.3504628,19.8690233 C27.3844628,19.9180233 27.4194628,19.9660233 27.4584628,20.0110233 C27.4934628,20.0580233 27.5274628,20.1070233 27.5664628,20.1540233 C27.7784628,20.4050233 28.0514628,20.5210233 28.3454628,20.6420233 C28.3804628,20.6540233 28.4144628,20.6590233 28.4494628,20.6670233 C28.4864628,20.6820233 28.5234628,20.6970233 28.5624628,20.7080233 C28.8704628,20.7950233 29.1774628,20.8030233 29.4874628,20.7250233 C29.7994628,20.6470233 30.0674628,20.4950233 30.2974628,20.2740233 C30.3024628,20.2700233 30.3034628,20.2670233 30.3074628,20.2610233 C30.6384628,19.9520233 30.8274628,19.4910233 30.8374628,19.0420233 C30.8214628,18.8860233 30.8024628,18.7300233 30.7854628,18.5730233" id="Fill-399"></path>
                <path d="M24.3944628,35.9380233 C23.6364628,35.1990233 23.4484628,34.0430233 23.5514628,33.0200233 C23.6424628,32.0660233 24.4544628,31.3530233 25.4844628,31.6040233 C26.2574628,31.7920233 26.7564628,32.7500233 27.0604628,33.3960233 C27.3284628,33.9670233 28.1714628,33.7410233 28.2204628,33.1520233 C28.3144628,31.9990233 28.6004628,30.5640233 29.4794628,29.7500233 C30.3554628,28.9390233 30.9294628,30.2080233 31.0474628,30.8700233 C31.1594628,31.5300233 31.1084628,32.2220233 31.1054628,32.8910233 C31.1024628,33.0760233 31.1674628,33.2250233 31.2634628,33.3380233 C30.5314628,33.6230233 29.8054628,33.9300233 29.0934628,34.1920233 C27.5184628,34.7720233 25.9394628,35.3000233 24.3944628,35.9380233 Z M34.2044628,32.4650233 C33.6164628,32.5570233 33.0324628,32.7180233 32.4534628,32.9070233 C32.4674628,30.9640233 32.5064628,28.2840233 29.9534628,28.2100233 C28.2834628,28.1630233 27.4174628,30.0010233 27.1174628,31.6290233 C26.0184628,30.6610233 24.4964628,30.0550233 23.5104628,31.5450233 C22.6424628,32.8490233 23.0424628,34.9980233 24.2714628,35.9900233 C23.9194628,36.1360233 23.5674628,36.2900233 23.2194628,36.4490233 C23.1334628,36.4880233 23.1524628,36.6230233 23.2524628,36.6140233 C25.0524628,36.4460233 26.6744628,35.9430233 28.3904628,35.3890233 C30.3494628,34.7580233 32.5614628,34.2820233 34.4014628,33.3650233 C34.8334628,33.1490233 34.7664628,32.3760233 34.2044628,32.4650233 L34.2044628,32.4650233 Z" id="Fill-400"></path>
                <path d="M34.1544628,34.4970233 C33.8454628,34.3670233 33.3474628,34.4480233 33.2914628,34.8650233 C33.2054628,35.5080233 33.5314628,36.0220233 33.4274628,36.6630233 C33.3034628,37.4460233 32.7074628,38.1160233 32.1844628,38.6660233 C31.3384628,39.5580233 30.2774628,40.1790233 29.0954628,40.4740233 C27.1784628,40.9520233 23.1184628,41.5740233 23.1414628,38.6130233 C23.1414628,38.5190233 22.9964628,38.5000233 22.9754628,38.5950233 C22.2274628,41.9610233 26.7524628,42.3400233 29.0334628,41.9760233 C30.8034628,41.6920233 32.2964628,40.7420233 33.5414628,39.4720233 C34.5264628,38.4670233 36.1684628,35.3470233 34.1544628,34.4970233" id="Fill-401"></path>
            </g>
        </g>
    </g>
</svg>