<?xml version="1.0" encoding="UTF-8"?>
<svg width="49px" height="58px" viewBox="0 0 49 58" version="1.1" xmlns="http://www.w3.org/2000/svg" xmlns:xlink="http://www.w3.org/1999/xlink">
    <title>Group 75</title>
    <g id="Page-1" stroke="none" stroke-width="1" fill="none" fill-rule="evenodd">
        <g id="vectorstock_1327683" transform="translate(-500.000000, -70.000000)" fill="#0A0B09">
            <g id="Group-75" transform="translate(500.541607, 70.884511)">
                <path d="M44.641393,33.5644893 C40.389393,33.5634893 36.896393,31.3934893 34.873393,27.6804893 C32.855393,23.9764893 32.984393,19.6544893 33.621393,15.6434893 C33.683393,15.2394893 33.150393,14.9474893 32.921393,15.3504893 C30.627393,19.4144893 31.214393,24.6204893 33.258393,28.6244893 C34.985393,32.0064893 38.017393,34.1464893 41.546393,34.7734893 C38.778393,35.7184893 35.808393,36.2644893 32.976393,36.6744893 C32.952393,36.6774893 32.959393,36.7134893 32.981393,36.7134893 C37.092393,36.6894893 40.952393,36.4614893 44.823393,34.9164893 C45.512393,34.6414893 45.468393,33.5654893 44.641393,33.5644893" id="Fill-325"></path>
                <path d="M42.240393,17.8364893 C41.404393,17.6804893 40.828393,17.2614893 40.225393,16.6754893 C39.584393,16.0574893 38.833393,15.5654893 38.193393,14.9394893 C37.687393,14.4474893 37.243393,13.9084893 36.869393,13.3114893 C36.495393,12.7134893 36.360393,12.1554893 35.737393,11.7404893 C35.174393,11.3644893 34.271393,11.6014893 33.965393,12.2044893 C33.033393,14.0384893 35.237393,15.6194893 36.528393,16.5574893 C38.257393,17.8104893 40.070393,18.3534893 42.200393,18.1374893 C42.358393,18.1194893 42.423393,17.8714893 42.240393,17.8364893" id="Fill-326"></path>
                <path d="M30.580393,12.9774893 C27.168393,15.5434893 20.537393,20.2224893 16.681393,16.1164893 C16.267393,15.6714893 15.396393,15.9934893 15.443393,16.6274893 C16.104393,25.5794893 29.203393,18.2764893 31.208393,13.6044893 C31.362393,13.2404893 30.994393,12.6664893 30.580393,12.9774893" id="Fill-327"></path>
                <path d="M25.830393,22.8624893 C25.795393,22.8494893 25.755393,22.8394893 25.717393,22.8274893 C25.415393,22.7374893 25.194393,22.4624893 25.194393,22.1444893 C25.194393,21.8234893 25.415393,21.5484893 25.717393,21.4584893 C25.755393,21.4484893 25.795393,21.4344893 25.830393,21.4254893 C26.298393,21.2854893 26.775393,21.6654893 26.775393,22.1444893 C26.775393,22.6194893 26.298393,23.0004893 25.830393,22.8624893 Z M26.474393,20.1924893 C23.375393,20.1924893 23.375393,24.9954893 26.474393,24.9954893 C29.569393,24.9954893 29.569393,20.1924893 26.474393,20.1924893 L26.474393,20.1924893 Z" id="Fill-328"></path>
                <path d="M36.544393,21.5674893 C36.544393,21.9564893 36.218393,22.2824893 35.828393,22.2824893 C35.437393,22.2824893 35.114393,21.9564893 35.114393,21.5674893 L35.114393,21.4174893 C35.114393,21.0264893 35.437393,20.7004893 35.828393,20.7004893 C36.218393,20.7004893 36.544393,21.0264893 36.544393,21.4174893 L36.544393,21.5674893 Z M35.964393,19.7974893 C33.406393,19.7974893 33.406393,23.7634893 35.964393,23.7634893 C38.522393,23.7634893 38.522393,19.7974893 35.964393,19.7974893 L35.964393,19.7974893 Z" id="Fill-329"></path>
                <path d="M35.848393,38.9364893 C30.722393,41.3284893 24.727393,41.7284893 19.852393,38.5254893 C17.611393,37.0524893 15.992393,34.8764893 15.093393,32.3634893 C14.093393,29.5764893 14.817393,26.8484893 14.316393,24.0574893 C14.222393,23.5304893 13.440393,23.4724893 13.202393,23.9114893 C11.738393,26.5914893 12.526393,30.5454893 13.565393,33.2744893 C14.559393,35.8904893 16.390393,38.0704893 18.685393,39.6444893 C23.859393,43.1944893 30.879393,42.1754893 36.079393,39.3304893 C36.343393,39.1874893 36.110393,38.8124893 35.848393,38.9364893" id="Fill-330"></path>
                <path d="M45.132393,21.4484893 C45.029393,21.1774893 44.615393,21.2794893 44.692393,21.5694893 C46.635393,29.1754893 46.694393,38.1904893 42.839393,45.2294893 C38.680393,52.8264893 30.315393,55.0194893 22.225393,53.5744893 C9.01839301,51.2174893 0.463393007,37.2084893 3.21639301,24.2824893 C5.02639301,15.7674893 11.882393,11.0524893 19.815393,8.66348931 C20.305393,8.51548931 20.219393,7.76048931 19.692393,7.76348931 C18.138393,7.77648931 16.638393,7.96948931 15.199393,8.31848931 C14.901393,8.20448931 14.611393,8.04448931 14.446393,7.81048931 C14.334393,7.65348931 14.271393,7.51948931 14.227393,7.37548931 C14.148393,7.12948931 14.152393,7.17848931 14.168393,6.92448931 C14.170393,6.86948931 14.157393,6.80148931 14.142393,6.73548931 C14.141393,6.71248931 14.137393,6.67948931 14.136393,6.66448931 C14.129393,6.57548931 14.131393,6.48648931 14.134393,6.39848931 C14.137393,6.35548931 14.140393,6.31548931 14.144393,6.27348931 C14.145393,6.26748931 14.146393,6.26248931 14.148393,6.25248931 C14.164393,6.14648931 14.193393,6.04348931 14.222393,5.94148931 C14.248393,5.85248931 14.279393,5.76348931 14.313393,5.67648931 C14.315393,5.67148931 14.317393,5.66748931 14.321393,5.65848931 C14.340393,5.61548931 14.363393,5.57248931 14.384393,5.52948931 C14.468393,5.36148931 14.572393,5.20148931 14.683393,5.04848931 C14.697393,5.03248931 14.797393,4.90748931 14.818393,4.87948931 C14.884393,4.80848931 14.948393,4.74148931 15.019393,4.67548931 C15.084393,4.61148931 15.153393,4.55148931 15.227393,4.49248931 C15.229393,4.48848931 15.233393,4.48848931 15.241393,4.48248931 C15.289393,4.44548931 15.339393,4.41148931 15.393393,4.37948931 C15.469393,4.33048931 15.547393,4.28648931 15.627393,4.24348931 C15.667393,4.22448931 15.686393,4.21248931 15.697393,4.20648931 C15.707393,4.20348931 15.719393,4.19948931 15.746393,4.18848931 C15.829393,4.15748931 15.912393,4.13448931 15.994393,4.11148931 C16.037393,4.10248931 16.076393,4.09548931 16.119393,4.08748931 C16.127393,4.08748931 16.132393,4.08748931 16.146393,4.08648931 C16.229393,4.07948931 16.314393,4.08048931 16.400393,4.08648931 C16.414393,4.08648931 16.422393,4.08648931 16.431393,4.08648931 C16.446393,4.08948931 16.466393,4.09648931 16.503393,4.10448931 C16.535393,4.11148931 16.632393,4.14648931 16.676393,4.15948931 C16.757393,4.19648931 16.834393,4.23848931 16.905393,4.28448931 C16.917393,4.29048931 16.937393,4.30548931 16.957393,4.31948931 C16.980393,4.34048931 17.006393,4.36248931 17.031393,4.38348931 C17.117393,4.46148931 17.191393,4.54948931 17.268393,4.63748931 C17.286393,4.66148931 17.309393,4.69248931 17.317393,4.70248931 C17.364393,4.77048931 17.407393,4.84048931 17.452393,4.91348931 C17.534393,5.04948931 17.620393,5.18848931 17.700393,5.32748931 C17.877393,5.63848931 17.973393,5.88348931 18.090393,6.21248931 C18.188393,6.48648931 18.231393,6.80148931 18.509393,6.96148931 C18.731393,7.09548931 18.955393,7.06948931 19.157393,6.95448931 C19.359393,7.22548931 19.616393,7.42348931 19.945393,7.48148931 C19.996393,7.49048931 20.062393,7.44648931 20.037393,7.38748931 C19.853393,6.89848931 19.823393,5.92848931 19.710393,5.35848931 C19.508393,4.32548931 19.304393,2.69348931 20.057393,1.83148931 C21.269393,0.449489311 22.038393,3.25048931 22.107393,3.91548931 C22.202393,4.84748931 22.169393,5.94648931 21.867393,6.87148931 C21.776393,7.07348931 21.699393,7.27148931 21.633393,7.46748931 C21.345393,8.31848931 22.728393,8.91548931 23.099393,8.08348931 C23.123393,8.02348931 23.150393,7.95848931 23.176393,7.89048931 C23.177393,7.89148931 23.177393,7.89148931 23.177393,7.89148931 C23.725393,6.28348931 25.161393,3.92248931 27.152393,5.13048931 C29.458393,6.53148931 26.028393,8.98648931 24.906393,9.56748931 C23.819393,10.1314893 24.801393,11.8324893 25.870393,11.2144893 C28.272393,9.82348931 31.206393,6.49948931 28.344393,3.97748931 C26.689393,2.51748931 25.002393,3.04448931 23.704393,4.24948931 C23.644393,1.89048931 22.812393,-0.421510689 20.370393,0.065489311 C18.602393,0.416489311 18.223393,2.01348931 18.315393,3.57648931 C18.123393,3.36748931 17.904393,3.17648931 17.647393,3.01548931 C16.829393,2.51048931 15.840393,2.58348931 15.009393,3.00848931 C14.250393,3.39448931 13.625393,4.11348931 13.268393,4.87848931 C12.900393,5.65948931 12.670393,6.72248931 13.182393,7.48848931 C13.492393,7.95648931 13.977393,8.27348931 14.483393,8.50648931 C10.029393,9.77148931 6.24539301,12.6184893 3.55239301,16.7024893 C0.187393007,21.8034893 -0.558606993,28.2054893 0.365393007,34.1334893 C2.56839301,48.2424893 16.127393,58.1064893 30.263393,56.1064893 C37.288393,55.1134893 42.916393,50.6374893 45.578393,44.0694893 C48.560393,36.7174893 47.894393,28.7534893 45.132393,21.4484893" id="Fill-331"></path>
            </g>
        </g>
    </g>
</svg>