<?xml version="1.0" encoding="UTF-8"?>
<svg width="70px" height="61px" viewBox="0 0 70 61" version="1.1" xmlns="http://www.w3.org/2000/svg" xmlns:xlink="http://www.w3.org/1999/xlink">
    <title>Group 77</title>
    <g id="Page-1" stroke="none" stroke-width="1" fill="none" fill-rule="evenodd">
        <g id="vectorstock_1327683" transform="translate(-308.000000, -11.000000)" fill="#0A0B09">
            <g id="Group-77" transform="translate(308.610486, 11.004152)">
                <path d="M55.1295143,39.980848 C52.5295143,51.745848 39.5755143,59.554848 27.9225143,57.085848 C16.3625143,54.638848 10.4075143,42.859848 11.3605143,31.779848 C11.8385143,26.195848 14.0835143,21.063848 18.1445143,17.179848 C20.4335143,14.986848 23.1155143,13.320848 25.9665143,11.985848 C26.9825143,11.654848 27.9725143,11.265848 28.9595143,10.861848 C29.0525143,10.821848 29.0975143,10.746848 29.1065143,10.666848 C30.2355143,10.239848 31.3785143,9.84884804 32.5235143,9.48784804 C31.0185143,12.655848 30.3115143,15.943848 34.0565143,15.457848 C35.9385143,15.211848 37.3885143,14.347848 38.4605143,13.078848 C38.4925143,13.107848 38.5265143,13.133848 38.5695143,13.158848 C43.6475143,15.951848 48.6455143,18.494848 52.0945143,23.347848 C55.4935143,28.131848 56.3825143,34.310848 55.1295143,39.980848 Z M39.9385143,10.538848 C40.1915143,10.957848 40.4895143,11.347848 40.7935143,11.728848 C41.2265143,12.274848 41.7265143,12.772848 42.2705143,13.216848 C41.2215143,12.824848 40.1485143,12.506848 39.0515143,12.285848 C39.4005143,11.752848 39.6925143,11.163848 39.9385143,10.538848 Z M40.5385143,6.92284804 C42.5965143,5.10284804 45.3415143,4.38984804 48.0435143,4.26584804 C50.3655143,4.16184804 54.0555143,4.54984804 55.0945143,7.05584804 C55.6725143,8.45284804 55.0195143,9.96284804 54.3655143,11.197848 C53.3575143,13.104848 51.4785143,14.326848 49.3315143,14.435848 C47.4395143,14.532848 45.5935143,13.793848 44.0355143,12.775848 C43.1825143,12.216848 42.4095143,11.559848 41.7215143,10.803848 C41.3655143,10.412848 41.0675143,9.98184804 40.7895143,9.53484804 C40.6495143,9.31484804 40.5275143,9.22284804 40.3915143,9.12884804 C40.5595143,8.40384804 40.6275143,7.65184804 40.5385143,6.92284804 Z M68.1855143,40.800848 C67.9555143,38.302848 65.8025143,37.482848 63.5905143,38.016848 C63.5595143,38.024848 63.5755143,38.068848 63.6035143,38.063848 C66.1335143,37.608848 68.1505143,38.972848 67.5885143,41.675848 C67.1115143,43.970848 65.1535143,45.440848 62.9425143,45.837848 C60.1745143,46.331848 57.7845143,44.923848 57.4395143,42.128848 C57.3965143,41.772848 57.3765143,41.413848 57.3725143,41.053848 C58.1285143,37.877848 58.2435143,34.546848 57.7685143,31.284848 C56.9735143,25.797848 53.9115143,20.937848 49.6265143,17.494848 C48.6545143,16.715848 47.6285143,15.984848 46.5565143,15.327848 C47.6415143,15.579848 48.7655143,15.655848 49.8695143,15.520848 C53.5745143,15.067848 57.1945143,10.960848 56.2095143,7.10184804 C55.4025143,3.93784804 51.2215143,3.25084804 48.5005143,3.27184804 C46.7525143,3.28384804 44.9815143,3.65184804 43.3665143,4.31584804 C42.1245143,4.82884804 41.0545143,5.45084804 40.4925143,6.60884804 C40.4235143,6.24984804 40.3175143,5.89784804 40.1605143,5.55884804 C39.5695143,4.28384804 38.0775143,3.82284804 36.8645143,4.43584804 C36.7105143,4.51684804 36.6995143,4.78484804 36.8645143,4.85884804 C37.7905143,5.28084804 38.8035143,5.52384804 39.1145143,6.60284804 C39.4245143,7.68584804 39.0245143,8.94584804 38.6415143,9.95684804 C37.7505143,12.315848 36.0625143,14.160848 33.4375143,14.402848 C30.0175143,14.720848 35.0005143,5.64684804 35.7685143,4.43584804 C35.8385143,4.32884804 35.6735143,4.24084804 35.5995143,4.33784804 C35.0435143,5.07084804 33.6365143,7.17284804 32.5855143,9.35584804 C31.3915143,9.68684804 30.1915143,10.047848 28.9985143,10.446848 C28.9565143,10.426848 28.9045143,10.417848 28.8435143,10.436848 C25.2855143,11.485848 21.5275143,12.615848 17.7895143,12.552848 C16.0665143,12.522848 14.1305143,12.110848 13.1715143,10.538848 C12.1165143,8.80484804 12.7095143,6.23684804 13.6865143,4.61084804 C15.7265143,1.21384804 20.4135143,0.807848042 23.9555143,1.08484804 C27.5605143,1.36984804 32.0045143,2.75384804 34.2945143,5.74084804 C34.3695143,5.83884804 34.5335143,5.75284804 34.4635143,5.64184804 C32.5025143,2.45484804 28.6135143,0.944848042 25.0925143,0.298848042 C21.4075143,-0.377151958 17.1215143,-0.018151958 14.1925143,2.54084804 C11.6855143,4.72784804 10.5155143,9.73484804 13.3675143,12.109848 C15.9545143,14.263848 20.2675143,13.475848 23.4785143,12.679848 C21.5215143,13.634848 19.6565143,14.752848 17.9575143,16.095848 C13.6455143,19.506848 10.7305143,24.227848 9.70751431,29.638848 C8.86851431,34.086848 9.11451431,38.772848 10.3915143,43.099848 C10.3345143,44.393848 10.2785143,45.672848 9.96951431,46.941848 C9.32151431,49.600848 6.68051431,51.850848 3.82351431,51.247848 C1.83851431,50.828848 1.06951431,48.643848 1.11051431,46.840848 C1.16451431,44.349848 2.84551431,42.249848 5.18051431,41.502848 C5.27351431,41.473848 5.23351431,41.345848 5.14051431,41.360848 C2.45251431,41.814848 0.52651431,43.813848 0.0855143102,46.491848 C-0.29648569,48.831848 0.59651431,51.470848 2.86151431,52.506848 C5.88551431,53.893848 9.54751431,52.035848 11.0015143,49.268848 C11.3985143,48.517848 11.6485143,47.700848 11.8155143,46.866848 C12.0395143,47.346848 12.2825143,47.815848 12.5355143,48.281848 C12.5325143,48.365848 12.5295143,48.451848 12.5275143,48.543848 C12.5045143,49.465848 12.1275143,50.330848 11.6205143,51.082848 C10.6645143,52.491848 8.61951431,53.309848 6.98851431,53.358848 C6.90651431,53.360848 6.88651431,53.479848 6.96851431,53.502848 C8.97151431,54.035848 10.6835143,53.704848 12.2325143,52.302848 C12.7195143,51.861848 13.2945143,51.057848 13.6805143,50.182848 C15.9835143,53.637848 19.1605143,56.481848 23.1885143,58.231848 C34.2905143,63.050848 47.7245143,58.161848 54.2615143,48.296848 C54.5525143,47.852848 54.8235143,47.399848 55.0775143,46.942848 C55.3555143,47.526848 55.6855143,48.072848 56.0285143,48.546848 C57.4495143,50.497848 59.9345143,51.259848 62.0825143,50.123848 C62.1645143,50.080848 62.1295143,49.933848 62.0335143,49.942848 C59.7695143,50.166848 58.1575143,49.196848 56.9965143,47.298848 C56.5325143,46.537848 56.2865143,45.705848 56.1135143,44.849848 C56.1775143,44.701848 56.2455143,44.551848 56.3085143,44.401848 C57.5375143,47.320848 61.5465143,48.074848 64.3145143,46.997848 C66.7405143,46.053848 68.4245143,43.395848 68.1855143,40.800848 L68.1855143,40.800848 Z" id="Fill-354"></path>
                <path d="M32.3055143,6.71384804 C29.6675143,5.52384804 27.0675143,4.87784804 24.1655143,4.82484804 C21.7825143,4.78184804 18.1115143,5.13084804 16.4495143,7.06684804 C16.2795143,7.26684804 16.4385143,7.58684804 16.7115143,7.51684804 C17.8305143,7.23084804 18.8305143,6.61984804 19.9435143,6.28384804 C21.3075143,5.87084804 22.7455143,5.70384804 24.1655143,5.64884804 C26.8275143,5.54284804 29.7445143,5.97484804 32.2855143,6.75884804 C32.3125143,6.76684804 32.3295143,6.72484804 32.3055143,6.71384804" id="Fill-355"></path>
                <path d="M52.4485143,8.73084804 C51.9505143,7.01484804 48.8555143,6.72784804 47.3855143,6.64184804 C45.2515143,6.51284804 43.0165143,6.98884804 41.1365143,7.99684804 C41.0895143,8.02284804 41.1235143,8.10884804 41.1775143,8.08584804 C43.0305143,7.31284804 45.0315143,7.12484804 47.0205143,7.31784804 C48.1185143,7.42584804 49.2095143,7.74084804 50.2045143,8.21684804 C50.8755143,8.54084804 51.3625143,9.06984804 52.1185143,9.16384804 C52.3425143,9.19184804 52.5065143,8.92684804 52.4485143,8.73084804" id="Fill-356"></path>
                <path d="M40.2555143,46.478848 C40.1505143,47.167848 39.7095143,47.714848 39.1345143,48.074848 C37.7945143,48.917848 36.1445143,48.241848 35.1885143,47.164848 C36.2025143,47.166848 37.2045143,47.029848 38.2055143,46.642848 C38.8965143,46.374848 39.6555143,45.863848 40.2535143,45.217848 C40.2485143,45.626848 40.3195143,46.040848 40.2555143,46.478848 Z M40.8755143,44.391848 C41.2895143,43.688848 41.4765143,42.900848 41.2315143,42.122848 C41.1605143,41.901848 40.8295143,41.761848 40.6595143,41.972848 C40.1695143,42.576848 39.9725143,43.364848 39.5875143,44.044848 C39.1165143,44.880848 38.2705143,45.419848 37.3945143,45.751848 C35.7515143,46.374848 33.7685143,46.412848 32.0325143,46.478848 C31.8455143,46.483848 31.7895143,46.779848 31.9855143,46.813848 C33.0455143,47.001848 34.0975143,47.157848 35.1395143,47.164848 C35.1395143,47.167848 35.1375143,47.172848 35.1375143,47.177848 C35.5545143,49.155848 37.6225143,49.860848 39.3885143,49.147848 C40.2605143,48.795848 40.9995143,48.078848 41.3225143,47.188848 C41.6425143,46.312848 41.7585143,44.952848 40.8755143,44.391848 L40.8755143,44.391848 Z" id="Fill-357"></path>
                <path d="M39.0805143,27.200848 C38.2055143,27.200848 38.2055143,25.842848 39.0805143,25.842848 C39.9565143,25.842848 39.9565143,27.200848 39.0805143,27.200848 Z M39.0765143,25.125848 C36.5505143,25.125848 36.5505143,29.039848 39.0765143,29.039848 C41.5985143,29.039848 41.5985143,25.125848 39.0765143,25.125848 L39.0765143,25.125848 Z" id="Fill-358"></path>
                <path d="M29.1395143,28.486848 C28.2785143,28.486848 28.2785143,27.150848 29.1395143,27.150848 C29.9995143,27.150848 29.9995143,28.486848 29.1395143,28.486848 Z M29.1605143,26.122848 C26.5765143,26.122848 26.5765143,30.132848 29.1605143,30.132848 C31.7475143,30.132848 31.7475143,26.122848 29.1605143,26.122848 L29.1605143,26.122848 Z" id="Fill-359"></path>
                <path d="M30.3245143,21.383848 C29.4775143,20.020848 26.7315143,20.668848 25.5375143,21.212848 C23.9235143,21.948848 22.4085143,23.382848 22.3964942,25.255848 C22.3935143,25.504848 22.7265143,25.584848 22.8505143,25.380848 C23.6935143,24.015848 24.4555143,22.943848 26.0405143,22.402848 C26.7315143,22.169848 27.4725143,22.116848 28.1975143,22.116848 C28.9095143,22.118848 29.5325143,22.393848 30.1665143,21.985848 C30.3635143,21.857848 30.4555143,21.593848 30.3245143,21.383848" id="Fill-360"></path>
                <path d="M42.5505143,22.076848 C41.9325143,20.954848 41.0015143,20.356848 39.7605143,20.079848 C38.8125143,19.868848 36.8375143,19.826848 36.3685143,20.872848 C36.2675143,21.096848 36.3295143,21.431848 36.6165143,21.484848 C37.4415143,21.633848 38.2025143,21.042848 39.0395143,20.956848 C40.2705143,20.831848 41.5105143,21.368848 42.3965143,22.195848 C42.4795143,22.271848 42.6055143,22.175848 42.5505143,22.076848" id="Fill-361"></path>
                <path d="M38.1215143,34.297848 C36.2715143,32.436848 35.4805143,29.771848 34.7585143,27.312848 C34.7205143,27.184848 34.5025143,27.203848 34.5185143,27.344848 C34.8215143,29.904848 35.3885143,32.398848 36.9675143,34.450848 C36.3185143,34.700848 35.6515143,34.895848 35.0145143,35.177848 C34.7695143,35.286848 34.8605143,35.647848 35.0835143,35.714848 C36.1515143,36.029848 37.0795143,35.570848 38.0205143,35.077848 C38.3065143,34.927848 38.3385143,34.517848 38.1215143,34.297848" id="Fill-362"></path>
            </g>
        </g>
    </g>
</svg>