<?xml version="1.0" encoding="UTF-8"?>
<svg width="47px" height="48px" viewBox="0 0 47 48" version="1.1" xmlns="http://www.w3.org/2000/svg" xmlns:xlink="http://www.w3.org/1999/xlink">
    <title>Group 32</title>
    <g id="Page-1" stroke="none" stroke-width="1" fill="none" fill-rule="evenodd">
        <g id="vectorstock_1327683" transform="translate(-320.000000, -479.000000)" fill="#0A0B09">
            <g id="Group-32" transform="translate(320.105832, 479.955620)">
                <path d="M39.4341675,16.8373801 C39.3521675,16.5373801 39.3231675,16.2773801 39.3021675,15.9793801 C39.2981675,15.9253801 39.3121675,15.6343801 39.2941675,15.7543801 C39.3021675,15.7043801 39.3841675,15.4473801 39.3251675,15.5873801 C39.3401675,15.5493801 39.3621675,15.5123801 39.3831675,15.4773801 C39.3851675,15.4683801 39.3841675,15.4713801 39.3851675,15.4673801 C39.5021675,15.3333801 39.3521675,15.4623801 39.5101675,15.3723801 C39.5191675,15.3683801 39.5161675,15.3703801 39.5191675,15.3663801 C39.5551675,15.3513801 39.5951675,15.3413801 39.6351675,15.3313801 C39.8301675,15.2793801 39.6281675,15.3203801 39.7841675,15.3103801 C40.0861675,15.2943801 40.0661675,15.3053801 40.3301675,15.3643801 C40.8531675,15.4783801 41.1631675,15.6313801 41.6291675,15.9083801 C42.4371675,16.3823801 43.2391675,17.1363801 43.4571675,17.9303801 C43.5571675,18.2923801 43.5091675,18.5653801 43.2751675,18.9313801 C42.9881675,19.3823801 42.3181675,19.7543801 41.7671675,20.0003801 C41.6671675,20.0433801 41.5761675,20.1283801 41.4861675,20.2163801 C40.9271675,19.1593801 40.2611675,18.1563801 39.5051675,17.2073801 C39.4901675,17.0853801 39.4681675,16.9623801 39.4341675,16.8373801 Z M41.9241675,21.1143801 C42.5071675,21.0423801 43.1161675,20.7533801 43.6191675,20.3423801 C43.4881675,21.5513801 43.2471675,22.7513801 42.9021675,23.9303801 C42.6611675,22.9603801 42.3361675,22.0163801 41.9241675,21.1143801 Z M24.4571675,1.41038013 C24.3471675,1.46438013 24.4251675,1.66038013 24.5431675,1.61438013 C31.7121675,-1.05161987 37.8711675,2.09838013 41.3581675,8.62638013 C42.5871675,10.9283801 43.3331675,13.3843801 43.6151675,15.8743801 C43.5711675,15.8283801 43.5301675,15.7813801 43.4851675,15.7393801 C42.3841675,14.6703801 39.0381675,12.9223801 38.2341675,15.2193801 C38.1841675,15.3643801 38.1651675,15.5123801 38.1581675,15.6663801 C35.6231675,13.0093801 32.4011675,10.8453801 29.0331675,9.23238013 C28.4971675,8.97638013 28.0831675,9.68438013 28.5691675,10.0273801 C35.0661675,14.6453801 41.1591675,19.5003801 41.3351675,27.8163801 C41.2171675,28.0473801 41.2431675,28.2573801 41.3401675,28.4193801 C41.3351675,28.7133801 41.3271675,29.0093801 41.3101675,29.3123801 C40.7531675,38.3873801 32.3501675,44.3733801 23.7761675,44.0153801 C16.5461675,43.7153801 11.3471675,37.9473801 9.25216753,31.4083801 C9.48416753,31.1973801 9.42716753,30.7553801 9.07016753,30.6193801 C9.04816753,30.6123801 9.02916753,30.6003801 9.00816753,30.5923801 C8.57516753,29.0403801 8.31716753,27.4563801 8.24716753,25.9013801 C7.85216753,17.1043801 14.1971675,11.1713801 21.5281675,7.66238013 C21.3831675,15.1543801 21.9971675,22.9433801 19.6571675,30.1663801 C19.5021675,30.6453801 19.9261675,31.2593801 20.4531675,31.2093801 C23.0331675,30.9783801 25.7181675,30.9393801 28.2501675,30.3923801 C28.6991675,30.2963801 28.7141675,29.5623801 28.2501675,29.4753801 C26.0811675,29.0613801 23.8141675,29.2703801 21.6021675,29.4633801 C23.6921675,22.3493801 23.1841675,14.2823801 22.0671675,7.07438013 C22.0201675,6.76538013 21.5441675,6.85538013 21.5381675,7.14938013 L21.5381675,7.15138013 C21.5131675,7.15338013 21.4861675,7.15638013 21.4601675,7.16938013 C17.3731675,8.94938013 13.8321675,11.3413801 11.2621675,14.4213801 C11.3801675,13.6103801 11.2071675,12.7573801 10.4631675,12.4663801 C9.39316753,12.0453801 8.10616753,13.0503801 7.36616753,13.7063801 C6.39416753,14.5643801 5.47616753,15.7713801 5.37316753,17.1063801 C5.33116753,17.6873801 5.55816753,18.2543801 5.96116753,18.6703801 C6.54016753,19.2693801 7.31216753,19.4543801 8.10916753,19.3343801 C8.31716753,19.3033801 8.33416753,18.9903801 8.16516753,18.8983801 C7.33216753,18.4533801 6.18716753,18.1913801 6.27916753,17.0393801 C6.35616753,16.0733801 7.15916753,15.1583801 7.82216753,14.5203801 C8.40216753,13.9643801 9.26416753,13.2843801 10.0711675,13.2933801 C10.2711675,13.2943801 10.3841675,13.4263801 10.4501675,13.7693801 C10.5701675,14.4013801 10.2761675,15.0233801 10.3191675,15.6493801 C8.14116753,18.7223801 6.87316753,22.4183801 6.90716753,26.8303801 C6.91316753,27.7843801 7.00616753,28.7443801 7.16416753,29.6953801 C0.922167531,25.9553801 -0.207832469,17.2303801 2.82916753,10.8723801 C5.95716753,4.32938013 13.1411675,0.487380127 20.2261675,0.473380127 C20.3521675,0.473380127 20.3501675,0.291380127 20.2261675,0.283380127 C12.3641675,-0.114619873 4.36316753,4.64138013 1.32816753,12.0523801 C-0.263832469,15.9363801 -0.457832469,19.8923801 0.926167531,23.8663801 C1.96616753,26.8533801 4.26816753,30.5423801 7.51616753,31.3573801 C9.37316753,38.5593801 15.3261675,44.9703801 22.8321675,45.8723801 C32.4241675,47.0253801 40.8751675,40.7673801 42.9611675,31.3813801 C43.3021675,29.8533801 43.4151675,28.3873801 43.3511675,26.9773801 C49.7171675,15.1893801 38.9081675,-5.59861987 24.4571675,1.41038013 L24.4571675,1.41038013 Z" id="Fill-544"></path>
                <path d="M18.4231675,10.8483801 C17.4881675,10.8483801 16.7071675,11.6293801 16.7071675,12.5613801 C16.7071675,13.4963801 17.4881675,14.2763801 18.4231675,14.2763801 C19.3561675,14.2763801 20.1351675,13.4963801 20.1351675,12.5613801 C20.1351675,11.6293801 19.3561675,10.8483801 18.4231675,10.8483801" id="Fill-545"></path>
                <path d="M25.6431675,10.9433801 C24.7601675,10.9433801 24.0251675,11.6813801 24.0251675,12.5613801 C24.0251675,13.4443801 24.7601675,14.1803801 25.6431675,14.1803801 C26.5251675,14.1803801 27.2611675,13.4443801 27.2611675,12.5613801 C27.2611675,11.6813801 26.5251675,10.9433801 25.6431675,10.9433801" id="Fill-546"></path>
                <path d="M26.4831675,37.4743801 C24.3251675,37.4633801 22.1151675,37.5743801 20.0191675,37.9253801 C19.7861675,37.3233801 19.8101675,36.6733801 20.4131675,36.2133801 C21.2191675,35.5983801 22.1811675,36.3403801 22.6861675,36.9523801 C22.8941675,37.2073801 23.2761675,36.9833801 23.2881675,36.7023801 C23.3271675,35.7433801 23.9791675,35.1823777 24.9231675,35.1823777 C26.1801675,35.1803801 26.6241675,36.4183801 26.4831675,37.4743801 Z M30.6051675,37.6123801 C29.4761675,37.5443801 28.2901675,37.4933801 27.0821675,37.4753801 C27.2401675,36.1033801 26.6831675,34.8313801 25.1941675,34.5553801 C24.0381675,34.3363801 23.0901675,35.0003801 22.7371675,35.9913801 C21.9791675,35.3373801 20.9031675,34.9693801 20.0511675,35.7433801 C19.2691675,36.4543801 19.2941675,37.2703801 19.7401675,37.9803801 C18.8111675,38.1463801 17.9001675,38.3503801 17.0401675,38.6253801 C16.9171675,38.6653801 16.9411675,38.8393801 17.0681675,38.8433801 C20.2821675,38.9533801 23.6501675,38.8583801 26.9461675,38.6983801 C26.9091675,38.7773801 26.8821675,38.8603801 26.8761675,38.9533801 C26.8301675,39.7323801 26.7381675,40.3853801 25.8321675,40.4063801 C25.0711675,40.4253801 24.1011675,40.0803801 23.4031675,39.7993801 C23.3441675,39.7783801 23.3121675,39.8483801 23.3311675,39.8923801 C23.8581675,41.0513801 24.9581675,41.7203801 26.2441675,41.5863801 C27.6781675,41.4423801 28.3271675,40.1053801 28.0531675,38.7933801 C28.0431675,38.7383801 28.0181675,38.6913801 27.9911675,38.6443801 C28.8671675,38.5983801 29.7461675,38.5513801 30.6051675,38.5003801 C31.1781675,38.4643801 31.1781675,37.6453801 30.6051675,37.6123801 L30.6051675,37.6123801 Z" id="Fill-547"></path>
                <path d="M34.1641675,9.29438013 C33.8711675,7.62538013 32.0191675,6.25338013 30.5251675,5.66138013 C28.5641675,4.88138013 26.6641675,4.91538013 24.9501675,6.21738013 C24.9231675,6.23738013 24.9361675,6.28738013 24.9731675,6.27438013 C26.7071675,5.74338013 28.4811675,5.83138013 30.1361675,6.58538013 C31.6621675,7.27738013 32.3121675,8.62438013 33.4731675,9.69738013 C33.7921675,9.98938013 34.2311675,9.69738013 34.1641675,9.29438013" id="Fill-548"></path>
                <path d="M21.6201675,4.82338013 C20.2551675,4.08438013 18.6621675,3.92438013 17.2111675,4.57938013 C15.9351675,5.15438013 14.0451675,6.73138013 14.2071675,8.27738013 C14.2351675,8.53538013 14.5181675,8.78338013 14.7811675,8.60438013 C15.2381675,8.28738013 15.3991675,7.98338013 15.6831675,7.49338013 C16.1151675,6.74338013 16.7511675,6.15338013 17.4821675,5.70738013 C18.7141675,4.95138013 20.1741675,4.90038013 21.5821675,4.97038013 C21.6611675,4.97538013 21.6891675,4.85938013 21.6201675,4.82338013" id="Fill-549"></path>
            </g>
        </g>
    </g>
</svg>