<?xml version="1.0" encoding="UTF-8"?>
<svg width="52px" height="47px" viewBox="0 0 52 47" version="1.1" xmlns="http://www.w3.org/2000/svg" xmlns:xlink="http://www.w3.org/1999/xlink">
    <title>Group 34</title>
    <g id="Page-1" stroke="none" stroke-width="1" fill="none" fill-rule="evenodd">
        <g id="vectorstock_1327683" transform="translate(-440.000000, -480.000000)" fill="#0A0B09">
            <g id="Group-34" transform="translate(440.652848, 480.100606)">
                <path d="M49.2181524,15.2753936 C45.9781524,9.09639363 37.5681524,4.10739363 30.5511524,6.13739363 C30.4101524,6.17739363 30.4371524,6.39139363 30.5831524,6.39139363 C37.5671524,6.37239363 43.7051524,8.66539363 47.7101524,14.6803936 C49.4441524,17.2793936 50.2741524,20.4543936 49.7441524,23.5453936 C49.2461524,26.4783936 47.3961524,28.2433936 45.3481524,29.9433936 C46.2771524,27.2273936 46.6621524,24.3183936 46.5041524,21.6573936 C46.0081524,13.4773936 40.0041524,7.36439363 31.8081524,7.13439363 C31.7521524,7.13439363 31.7541524,7.21639363 31.8081524,7.22039363 C40.0191524,7.85439363 44.9061524,14.3093936 45.3171524,22.2113936 C45.6461524,28.5483936 42.8571524,33.5833936 38.2851524,37.1503936 C44.9141524,28.8363936 44.3141524,16.0553936 35.5671524,8.92339363 C35.0751524,8.52239363 34.3991524,9.01339363 34.6891524,9.59939363 C37.1191524,14.5423936 40.3461524,18.5013936 40.7541524,24.2543936 C41.1511524,29.8503936 37.8891524,34.9463936 33.9131524,38.5723936 C26.5181524,45.3223936 15.1401524,45.7833936 7.86315244,38.7503936 C1.55115244,32.6573936 2.37515244,23.8163936 7.07415244,17.0833936 C11.7151524,10.4323936 20.0201524,6.13539363 28.1371524,6.66639363 C28.2671524,6.67539363 28.2651524,6.48039363 28.1371524,6.46539363 C15.5501524,5.13139363 3.11415244,15.7173936 2.13615244,27.1263936 C1.74515244,25.8353936 1.23015244,24.6143936 1.07915244,23.2043936 C0.906152441,21.5703936 1.20215244,19.9273936 1.65815244,18.3613936 C2.69215244,14.8173936 5.26115244,11.8623936 8.04915244,9.55239363 C13.6361524,4.92239363 22.0361524,2.85839363 28.7291524,6.29639363 C28.7781524,6.32239363 28.8151524,6.25639363 28.7711524,6.22439363 C22.1131524,1.41039363 13.3631524,4.25639363 7.39615244,8.90039363 C4.79615244,10.9233936 2.69215244,13.5723936 1.36115244,16.5753936 C1.27415244,13.5293936 0.660152441,11.2903936 2.47815244,8.34239363 C4.34215244,5.31839363 7.73415244,3.39839363 10.9731524,2.19639363 C16.8461524,0.0213936292 25.5101524,-0.210606371 29.6171524,5.37239363 C29.6591524,5.43039363 29.7561524,5.38139363 29.7151524,5.31339363 C25.7521524,-1.22860637 16.4841524,-0.757606371 10.2001524,1.57939363 C6.84715244,2.82739363 3.77315244,4.94039363 1.75215244,7.91939363 C0.0951524408,10.3583936 -0.855847559,14.7473936 1.06715244,17.2873936 C0.960152441,17.5623936 0.845152441,17.8323936 0.749152441,18.1103936 C-0.296847559,21.1763936 -0.366847559,25.9453936 1.94215244,28.4803936 C1.98315244,28.5263936 2.02915244,28.5523936 2.07715244,28.5603936 C2.07715244,32.9143936 3.80215244,37.3213936 7.87415244,41.1663936 C15.7121524,48.5773936 27.7401524,46.4573936 35.4201524,40.0803936 C35.4391524,40.0683936 35.4541524,40.0523936 35.4691524,40.0393936 C39.7571524,39.0263936 42.8011524,35.7743936 44.5981524,31.8293936 C50.9431524,29.0093936 52.2541524,21.0653936 49.2181524,15.2753936" id="Fill-557"></path>
                <path d="M25.4071524,30.2513936 C23.7151524,33.3183936 21.1011524,33.3703936 18.1601524,33.2873936 C21.2971524,30.8403936 23.0851524,27.4893936 24.1221524,23.5473936 C24.7821524,21.0523936 25.1161524,18.4693936 25.5811524,15.9333936 C26.1011524,13.1193936 27.0621524,10.5263936 27.8741524,7.80239363 C27.8871524,7.75039363 27.8241524,7.73239363 27.7941524,7.76739363 C25.1831524,11.1983936 24.7701524,16.2133936 23.8971524,20.3053936 C22.7801524,25.5483936 21.0191524,30.3833936 16.2461524,33.3193936 C15.7911524,33.5983936 15.9781524,34.3103936 16.5171524,34.3193936 C19.8001524,34.3753936 25.7141524,35.1313936 26.0191524,30.4213936 C26.0411524,30.0873936 25.5601524,29.9743936 25.4071524,30.2513936" id="Fill-558"></path>
                <path d="M20.4761524,38.3643936 C19.3511524,38.3643936 18.4101524,39.3053936 18.4101524,40.4333936 C18.4101524,41.5593936 19.3511524,42.4983936 20.4761524,42.4983936 C21.6041524,42.4983936 22.5461524,41.5593936 22.5461524,40.4333936 C22.5461524,39.3053936 21.6041524,38.3643936 20.4761524,38.3643936" id="Fill-559"></path>
                <path d="M35.5301524,19.4103936 C35.5081524,19.1553936 35.2371524,18.9403936 34.9911524,19.1023936 C34.1081524,19.6703936 33.7361524,20.6513936 32.7691524,21.1763936 C31.4611524,21.8833936 29.9521524,21.3783936 28.8801524,20.5023936 C28.7291524,20.3773936 28.4561524,20.5403936 28.5881524,20.7293936 C29.4291524,21.9273936 30.8411524,22.5543936 32.3091524,22.2943936 C33.6381524,22.0563936 35.6681524,20.9993936 35.5301524,19.4103936" id="Fill-560"></path>
                <path d="M21.6171524,19.3573936 C20.4091524,19.5743936 19.4981524,20.4483936 18.2141524,20.5683936 C16.7261524,20.7103936 15.7031524,19.8383936 14.9791524,18.6243936 C14.7821524,18.2953936 14.2331524,18.5123936 14.3501524,18.8913936 C14.8481524,20.4993936 16.0421524,21.5873936 17.7271524,21.8283936 C19.2251524,22.0423936 21.4971524,21.3263936 22.0761524,19.8143936 C22.1851524,19.5253936 21.8671524,19.3103936 21.6171524,19.3573936" id="Fill-561"></path>
                <path d="M22.9391524,9.93439363 C19.9991524,9.67039363 16.4891524,10.9243936 14.5911524,13.2033936 C14.4851524,13.3293936 14.6521524,13.5053936 14.7731524,13.3863936 C17.0841524,11.1153936 19.9091524,10.9043936 22.9391524,10.5363936 C23.3211524,10.4903936 23.3301524,9.97139363 22.9391524,9.93439363" id="Fill-562"></path>
                <path d="M34.0351524,13.8543936 C33.5581524,13.0093936 32.9461524,12.2243936 32.1691524,11.6323936 C31.5301524,11.1433936 30.4531524,10.4373936 29.6131524,10.6543936 C29.4321524,10.7003936 29.4321524,10.9243936 29.5651524,11.0233936 C29.8251524,11.2113936 30.0381524,11.2393936 30.3521524,11.3233936 C30.8321524,11.4553936 31.2691524,11.6863936 31.7011524,11.9233936 C32.5871524,12.4033936 33.2931524,13.1343936 33.8611524,13.9563936 C33.9341524,14.0603936 34.0991524,13.9683936 34.0351524,13.8543936" id="Fill-563"></path>
            </g>
        </g>
    </g>
</svg>