<?xml version="1.0" encoding="UTF-8"?>
<svg width="52px" height="55px" viewBox="0 0 52 55" version="1.1" xmlns="http://www.w3.org/2000/svg" xmlns:xlink="http://www.w3.org/1999/xlink">
    <title>Group 60</title>
    <g id="Page-1" stroke="none" stroke-width="1" fill="none" fill-rule="evenodd">
        <g id="vectorstock_1327683" transform="translate(-191.000000, -187.000000)" fill="#1B1A19">
            <g id="Group-60" transform="translate(191.257893, 187.486459)">
                <path d="M15.2001067,19.0225413 C15.2061067,19.0125413 15.2131067,19.0055413 15.2181067,18.9965413 C15.2131067,19.0055413 15.2061067,19.0125413 15.2001067,19.0225413" id="Fill-210"></path>
                <path d="M13.8831067,21.0635413 C13.2641067,22.1025413 12.7091067,23.1725413 12.2271067,24.2665413 C12.6461067,23.1555413 13.1061067,22.0685413 13.8531067,21.1015413 C13.8631067,21.0885413 13.8741067,21.0765413 13.8831067,21.0635413 Z M12.0391067,42.9665413 C10.2581067,42.1475413 9.2901067,40.0435413 9.0891067,38.1455413 C9.5591067,38.6435413 10.1321067,39.1365413 10.7281067,39.2815413 C11.0011067,40.3575413 11.3611067,41.4255413 11.8161067,42.4875413 C11.8861067,42.6495413 11.9651067,42.8075413 12.0391067,42.9665413 Z M39.3441067,48.1695413 C31.1311067,54.5985413 19.8571067,52.1615413 14.1111067,43.9745413 C9.4771067,37.3755413 10.0271067,27.9335413 14.0161067,20.9025413 C14.9121067,19.8755413 16.5201067,18.9635413 17.7361067,20.0575413 C19.5871067,21.7255413 17.7631067,25.7595413 15.1271067,23.8405413 C15.0731067,23.7995413 15.0031067,23.8685413 15.0531067,23.9165413 C17.8061067,26.4515413 20.1681067,22.1155413 18.8111067,19.7965413 C18.7691067,19.7255413 18.7231067,19.6625413 18.6801067,19.6015413 C19.6381067,20.2805413 20.4131067,21.3675413 20.7651067,22.2225413 C21.5821067,24.2005413 20.7371067,26.4145413 18.6801067,27.2035413 C18.1521067,27.4065413 15.2091067,27.4645413 16.5311067,26.4255413 C16.8051067,26.2105413 16.4181067,25.8425413 16.1431067,26.0535413 C16.0161067,26.1505413 15.9121067,26.2425413 15.8221067,26.3325413 C14.1031067,27.9605413 13.5431067,31.1275413 16.6651067,31.7335413 C21.4121067,32.6495413 25.0281067,29.3695413 26.8801067,25.4845413 C28.4641067,22.1565413 28.0551067,18.0625413 25.2691067,15.4495413 C22.4611067,12.8115413 17.5861067,13.2435413 14.3291067,14.6465413 C14.3001067,14.6595413 14.3191067,14.7035413 14.3501067,14.6935413 C20.0961067,12.9435413 26.6331067,15.5075413 26.3591067,21.8925413 C26.2421067,24.6785413 24.4261067,27.3865413 22.3901067,29.2925413 C21.0671067,30.5305413 18.6091067,31.7435413 16.7531067,31.3575413 C14.3591067,30.8595413 14.5781067,28.8305413 15.5981067,27.3955413 C15.9811067,27.8555413 17.0451067,28.0775413 17.8801067,28.0535413 C21.6421067,27.9405413 22.7341067,24.1695413 21.7791067,21.2735413 C21.0941067,19.1945413 18.2491067,17.4235413 15.9551067,18.0215413 C16.2601067,17.6375413 16.5721067,17.2615413 16.9011067,16.9025413 C16.9251067,16.8795413 16.8851067,16.8415413 16.8641067,16.8685413 C16.5451067,17.2465413 16.2381067,17.6325413 15.9381067,18.0245413 C15.5501067,18.1255413 15.1761067,18.2895413 14.8321067,18.5365413 C14.2041067,18.9925413 13.6951067,19.5705413 13.2701067,20.2215413 C12.2251067,21.3435413 11.4361067,22.9585413 11.5901067,24.3455413 C11.3451067,25.2315413 11.1371067,26.1015413 10.9191067,26.8845413 C10.8771067,27.0405413 11.0331067,27.1475413 11.1551067,27.1215413 C10.0021067,30.8595413 9.7211067,34.7935413 10.5821067,38.6715413 C10.0291067,38.1735413 9.4441067,37.7295413 9.0001067,37.0665413 C8.8571067,36.8515413 8.4341067,36.8825413 8.3921067,37.1615413 C8.1561067,38.7985413 8.7541067,40.4515413 9.6581067,41.8305413 C10.0911067,42.4925413 10.6851067,43.0345413 11.3861067,43.4345413 C11.7051067,43.6165413 12.0791067,43.7075413 12.4421067,43.7695413 C12.8021067,44.4425413 13.2111067,45.0875413 13.6541067,45.7045413 C11.8901067,44.8145413 10.2511067,44.1485413 8.8561067,42.6575413 C7.0801067,40.7625413 6.7091067,38.1355413 6.6521067,35.7045413 C6.6431067,35.2855413 6.0861067,34.9585413 5.7351067,35.3115413 C4.5541067,36.4995413 3.7881067,37.6845413 3.4061067,39.0865413 C1.4451067,33.4785413 0.203106698,27.7085413 1.3121067,21.7865413 C2.5381067,15.2335413 7.2551067,9.49654132 12.5491067,5.34454132 C17.7661067,1.25354132 24.3851067,-0.432458679 30.7561067,2.19254132 C35.1801067,4.01954132 38.6871067,7.47754132 40.9111067,11.5335413 C39.0751067,9.50454132 36.2311067,8.16154132 34.2361067,6.38154132 C33.9891067,6.16054132 33.6101067,6.44454132 33.7701067,6.72554132 C34.5441067,8.07454132 35.6191067,10.7655413 35.3051067,12.5715413 C35.0821067,12.4955413 34.8561067,12.4175413 34.6301067,12.3485413 C29.2081067,10.6515413 23.3081067,10.8735413 17.9271067,12.5585413 C17.6621067,12.6435413 17.7251067,13.0035413 18.0141067,12.9695413 C24.8211067,12.1775413 31.6381067,12.2755413 37.8941067,15.2295413 C42.6381067,17.4685413 46.5081067,21.0325413 47.9421067,25.9255413 C50.2921067,33.9335413 45.8531067,43.0765413 39.3441067,48.1695413 Z M41.7581067,14.6395413 C41.9421067,15.4045413 41.4411067,15.3545413 40.9371067,15.1785413 C39.2761067,14.1625413 37.4531067,13.3095413 35.5001067,12.6355413 C36.0631067,11.2035413 35.5471067,9.24054132 34.8931067,7.70454132 C36.4941067,8.99854132 38.2441067,10.1125413 39.7851067,11.4725413 C40.4971067,12.0975413 40.9871067,12.7895413 41.3941067,13.6195413 C41.5541067,13.9455413 41.6741067,14.2925413 41.7581067,14.6395413 Z M42.5141067,15.1885413 C42.6641067,15.6305413 42.7951067,16.0775413 42.9141067,16.5255413 C42.6261067,16.3055413 42.3321067,16.0895413 42.0281067,15.8825413 C42.2881067,15.7455413 42.4481067,15.5035413 42.5141067,15.1885413 Z M44.0241067,17.4195413 C42.6461067,10.7535413 38.2471067,5.04954132 31.8961067,1.76054132 C25.8941067,-1.34745868 19.2381067,-0.0444586792 13.7581067,3.36254132 C7.7001067,7.12654132 2.3781067,13.6085413 0.709106698,20.3345413 C-1.0488933,27.4325413 0.724106698,34.5685413 3.1641067,41.3225413 C3.3281067,41.7765413 4.0971067,41.6015413 4.1141067,41.1525413 C4.1821067,39.4855413 4.6711067,38.2065413 5.6361067,36.9975413 C6.0661067,41.5465413 8.5271067,45.9605413 14.0261067,46.1985413 C18.7241067,52.2685413 27.3191067,55.2815413 35.0201067,52.6185413 C43.4111067,49.7175413 48.9731067,41.2145413 50.0981067,33.1125413 C50.9941067,26.6615413 48.4941067,21.2795413 44.0241067,17.4195413 L44.0241067,17.4195413 Z" id="Fill-211"></path>
                <path d="M40.9421067,23.7615413 C40.8391067,23.6485413 40.6441067,23.7485413 40.7021067,23.8905413 C41.9961067,27.1045413 42.7491067,29.8285413 42.2511067,33.3175413 C41.7251067,37.0165413 39.7381067,40.2935413 37.0841067,42.9815413 C32.3081067,47.8155413 25.0161067,48.6845413 18.5231067,46.9985413 C18.4881067,46.9895413 18.4751067,47.0365413 18.5091067,47.0485413 C26.1661067,49.4845413 33.7301067,48.8025413 39.0541067,42.5165413 C43.0811067,37.7605413 45.5741067,28.9085413 40.9421067,23.7615413" id="Fill-212"></path>
                <path d="M28.8451067,32.8635413 C29.4381067,32.2175413 29.9231067,31.4995413 30.3321067,30.7395413 C30.3511067,30.7565413 30.3711067,30.7745413 30.3941067,30.7865413 C30.3941067,30.7955413 30.3941067,30.8075413 30.3941067,30.8195413 C30.3921067,31.0295413 30.4891067,31.1755413 30.6241067,31.2665413 C30.6411067,31.3115413 30.6651067,31.3575413 30.6821067,31.4015413 C30.6131067,31.3725413 30.5521067,31.3345413 30.5091067,31.2935413 C30.4811067,31.2665413 30.4411067,31.3115413 30.4761067,31.3335413 C30.5631067,31.3875413 30.6381067,31.4345413 30.7201067,31.4795413 C30.7401067,31.5255413 30.7561067,31.5695413 30.7781067,31.6155413 C30.9291067,31.9115413 31.2411067,31.9505413 31.5031067,31.8435413 C31.6521067,31.8775413 31.8261067,31.7905413 31.8681067,31.6415413 C32.0911067,30.8615413 32.2611067,29.9555413 32.0871067,29.1565413 C31.9931067,28.7205413 31.4521067,28.6715413 31.1941067,28.9365413 C31.1851067,28.9205413 31.1761067,28.9045413 31.1621067,28.8885413 C31.1621067,28.8885413 31.1581067,28.8855413 31.1581067,28.8845413 C31.3951067,28.2495413 31.6041067,27.6025413 31.7821067,26.9545413 C31.8321067,26.7805413 31.8881067,26.5665413 31.9431067,26.3305413 C32.7261067,28.1225413 33.3211067,29.9885413 33.5831067,31.9115413 C33.9761067,34.7785413 30.4981067,33.0275413 28.8451067,32.8635413 Z M32.0291067,25.9585413 C32.3371067,24.5225413 32.5231067,22.5125413 31.1971067,21.9635413 C30.9521067,21.8615413 30.7291067,22.0025413 30.6541067,22.2275413 C30.4331067,22.8925413 30.7121067,23.6225413 30.7441067,24.3075413 C30.7981067,25.4625413 30.5771067,26.6545413 30.3441067,27.7825413 C29.9981067,29.4565413 29.4741067,31.3165413 28.5951067,32.8515413 L28.5911067,32.8515413 C28.3811067,32.8555413 28.2321067,33.1095413 28.3451067,33.2635413 C28.3271067,33.2935413 28.3071067,33.3275413 28.2881067,33.3595413 C28.2701067,33.3845413 28.3101067,33.4105413 28.3321067,33.3895413 C28.3571067,33.3655413 28.3791067,33.3385413 28.4051067,33.3135413 C28.4181067,33.3215413 28.4271067,33.3315413 28.4421067,33.3375413 C30.3411067,34.1365413 32.1281067,34.8605413 34.1831067,34.2625413 C34.3131067,34.2255413 34.4451067,34.0765413 34.4491067,33.9475413 C34.5311067,30.9565413 33.4671067,28.4535413 32.0291067,25.9585413 L32.0291067,25.9585413 Z" id="Fill-213"></path>
                <path d="M21.0941067,39.4255413 C21.0671067,40.7145413 19.8401067,41.0705413 18.8291067,40.3805413 C17.7061067,39.6135413 16.7271067,38.3455413 15.9121067,37.1505413 C16.0181067,37.1825413 16.1231067,37.2095413 16.2251067,37.2365413 C16.6451067,37.3375413 17.0801067,37.3905413 17.5201067,37.4095413 C17.5141067,37.4685413 17.5141067,37.5265413 17.5221067,37.5865413 C17.4621067,37.8085413 17.5581067,38.0895413 17.8021067,38.1795413 C17.9791067,38.2445413 18.1641067,38.2965413 18.3481067,38.3455413 C18.6001067,38.4955413 18.8791067,38.5625413 19.1861067,38.5825413 C19.2711067,38.6105413 19.3521067,38.6075413 19.4261067,38.5855413 C19.7551067,38.5495413 19.9481067,38.2645413 19.9361067,37.9765413 C20.0351067,37.7455413 19.9851067,37.4815413 19.7631067,37.2765413 C19.7441067,37.2545413 19.7191067,37.2365413 19.6931067,37.2145413 C20.0711067,37.1375413 20.4471067,37.0395413 20.8131067,36.9275413 C20.8081067,36.9375413 20.8021067,36.9455413 20.8001067,36.9595413 C20.6921067,37.7995413 21.1131067,38.5785413 21.0941067,39.4255413 Z M22.5891067,36.1795413 C20.9611067,36.7265413 19.2491067,36.9285413 17.5321067,36.6925413 C15.5201067,36.4145413 14.8361067,35.1955413 13.4931067,34.0265413 C13.3681067,33.9175413 13.1831067,33.9585413 13.1521067,34.1275413 C12.8531067,35.7365413 14.4411067,36.7145413 15.8971067,37.1455413 C16.9061067,38.8945413 17.6191067,41.5845413 19.8981067,41.5935648 C21.1381067,41.5985413 21.9051067,40.8045413 22.1201067,39.7095413 C22.2941067,38.8245413 21.9131067,37.3425413 21.0641067,36.8515413 C21.6061067,36.6715413 22.1301067,36.4575413 22.6131067,36.2265413 C22.6401067,36.2125413 22.6191067,36.1685413 22.5891067,36.1795413 L22.5891067,36.1795413 Z" id="Fill-214"></path>
                <path d="M29.7111067,38.1375413 C29.5211067,37.3035413 28.6481067,36.2025413 27.6541067,36.3965413 C27.4701067,36.4345413 27.3621067,36.6675413 27.4261067,36.8265413 C27.5391067,37.1015413 27.6801067,37.2865413 27.9141067,37.4835413 C28.2791067,37.7935413 28.4121067,38.2555413 28.5781067,38.6735413 C28.8341067,39.3245413 28.9011067,40.0355413 28.9591067,40.7305413 C27.9981067,40.7755413 27.0391067,40.6585413 26.1411067,40.3005413 C26.1131067,40.2895413 26.0951067,40.3345413 26.1221067,40.3495413 C27.1711067,40.8765413 28.1471067,41.3125413 29.3331067,41.4815413 C29.5411067,41.5105413 29.7881067,41.3755413 29.8051067,41.1625413 C29.8941067,40.1485413 29.9381067,39.1375413 29.7111067,38.1375413" id="Fill-215"></path>
                <path d="M38.3061067,11.1185413 C37.7041067,10.7295413 37.1441067,10.7655413 36.4651067,10.9275413 C36.4481067,10.9315413 36.4381067,10.9465413 36.4391067,10.9615413 C36.4531067,11.2205413 36.4711067,11.4755413 36.4481067,11.7335413 C36.4471067,11.7675413 36.5061067,11.7675413 36.5041067,11.7335413 C36.4791067,11.4655413 36.3901067,10.9905413 36.7751067,10.9625413 C37.0831067,10.9435413 37.5221067,11.2315413 37.7751067,11.3755413 C38.1021067,11.5605413 38.3601067,11.8455413 38.5731067,12.1365413 C38.7631067,12.3975413 38.8031067,12.6045413 39.1211067,12.7315413 C39.2371067,12.7775413 39.4081067,12.6965413 39.4351067,12.5785413 C39.5731067,11.9795413 38.7761067,11.4185413 38.3061067,11.1185413" id="Fill-216"></path>
            </g>
        </g>
    </g>
</svg>