<?xml version="1.0" encoding="UTF-8"?>
<svg width="61px" height="47px" viewBox="0 0 61 47" version="1.1" xmlns="http://www.w3.org/2000/svg" xmlns:xlink="http://www.w3.org/1999/xlink">
    <title>Group 71</title>
    <g id="Page-1" stroke="none" stroke-width="1" fill="none" fill-rule="evenodd">
        <g id="vectorstock_1327683" transform="translate(-248.000000, -73.000000)" fill="#1B1A19">
            <g id="Group-71" transform="translate(248.575240, 73.258183)">
                <path d="M57.8437601,25.2328167 C56.7777601,29.6198167 53.2107601,36.2338167 47.9617601,37.3908167 C49.8657601,36.6258167 51.0417601,34.9158167 52.2297601,33.1698167 C55.2457601,28.7368167 56.6067601,23.8148167 56.5657601,18.5708167 C56.5657601,18.5578167 56.4977601,18.5678167 56.4977601,18.5898167 C56.2877601,22.3988167 55.4037601,25.8728167 53.7087601,29.3298167 C52.4547601,31.8858167 50.0487601,36.7518167 46.7657601,37.4168167 C46.6447601,37.4408167 46.5127601,37.5008167 46.4227601,37.5648167 C46.3677601,37.5668167 46.3187601,37.5698167 46.2657601,37.5698167 C51.4697601,32.3048167 53.6527601,25.2558167 54.4577601,17.8788167 C54.9397601,13.4818167 54.5837601,9.04381671 51.5237601,5.54681671 C50.0177601,3.82581671 48.0297601,2.60281671 45.8687601,1.73081671 C51.8147601,3.52481671 56.2127601,7.72381671 57.9857601,14.0368167 C59.0137601,17.7038167 58.7307601,21.5788167 57.8437601,25.2328167 Z M43.4007601,38.4568167 C37.4857601,44.1798167 27.3557601,46.3788167 19.6187601,42.8978167 C13.9857601,40.3628167 11.5427601,33.6648167 11.1117601,28.1798167 C10.2687601,17.3678167 18.1877601,6.45981671 28.6397601,2.18681671 C26.7147601,3.29981671 25.1017601,4.84381671 24.0727601,6.86581671 C21.0757601,12.7458167 26.6157601,16.1668167 32.2217601,15.3168167 C36.8657601,14.6108167 42.9857601,9.46881671 37.7547601,5.49881671 C34.6097601,3.11181671 27.2017601,6.53981671 29.0247601,10.4638167 C29.0677601,10.5348167 29.1307601,10.5688167 29.2197601,10.5728167 C31.1567601,10.7708167 32.0867601,9.81881671 33.3157601,8.50181671 C33.4167601,8.39081671 31.6207601,8.39081671 31.2397601,8.79181671 C31.1357601,8.90081671 31.0337601,9.00781671 30.9357601,9.11481671 C30.7767601,8.73581671 30.7927601,8.29881671 30.9937601,7.80281671 C31.7257601,6.20981671 33.2787601,5.67581671 35.6537601,6.19681671 C37.5387601,7.05181671 37.8157601,9.29581671 37.2787601,10.9248167 C35.6417601,15.9228167 27.3767601,15.9388167 25.7187601,11.2028167 C25.0027601,9.14981671 25.9527601,6.86581671 27.0607601,5.12281671 C30.5067601,-0.30218329 38.6777601,0.40981671 43.9167601,2.71181671 C51.0057601,5.82581671 52.4227601,11.7138167 51.9267601,18.5218167 C51.6737601,21.9578167 50.9887601,25.3788167 49.7697601,28.5938167 C48.5547601,30.4118167 47.5447601,32.2938167 45.9377601,33.9128167 C45.0507601,34.7998167 43.9107601,35.5048167 42.8387601,36.1788167 C40.1127601,37.8898167 37.5767601,37.3968167 35.7077601,35.2868167 C35.6897601,35.2648167 35.5697601,35.2958167 35.5787601,35.3258167 C36.5207601,38.1218167 39.2097601,38.3378167 41.7917601,37.2628167 C43.5217601,36.5398167 45.3097601,35.5088167 46.8987601,34.2408167 C45.8977601,35.7438167 44.7387601,37.1598167 43.4007601,38.4568167 Z M59.9117601,17.2078167 C59.2537601,7.10381671 50.9427601,0.79281671 40.7927601,0.31281671 C40.6767601,0.29381671 40.5577601,0.26681671 40.4427601,0.24681671 C37.3157601,-0.26018329 33.8927601,0.00581671037 30.9007601,1.11981671 C19.4677601,4.33181671 10.6707601,14.4988167 9.52676007,25.7688167 C8.08976007,14.4498167 16.3347601,0.0748167104 29.3547601,1.50981671 C29.3917601,1.51381671 29.5627601,1.44581671 29.5017601,1.43481671 C23.8737601,0.38681671 17.6977601,2.92281671 14.3227601,7.31581671 C10.6447601,12.1078167 6.39576007,21.1838167 8.19776007,27.8808167 C7.49476007,28.4918167 6.41476007,28.8758167 5.59176007,28.9538167 C3.91676007,29.1188167 2.26176007,28.0608167 1.59576007,26.6588167 C1.12276007,25.6658167 1.06876007,24.3918167 1.49276007,23.3918167 C1.98676007,22.2278167 3.75876007,22.1088167 4.77676007,22.6428167 C6.31276007,23.4498167 4.61876007,25.3318167 3.82276007,25.9318167 C3.68376007,26.0418167 3.89476007,26.1318167 4.00276007,26.0558167 C4.99376007,25.3608167 5.70376007,24.7228167 5.75676007,23.5078167 C5.79976007,22.5778167 5.13176007,21.7668167 4.09676007,21.6928167 C1.75576007,21.5248167 0.17676007,22.7648167 0.11276007,25.0128167 C0.0377600696,27.4988167 1.72676007,29.7178167 4.36776007,30.1448167 C5.71376007,30.3648167 7.42576007,30.1278167 8.73876007,29.4168167 C8.84176007,29.6468167 8.95376007,29.8718167 9.07176007,30.0948167 C9.05876007,30.1188167 9.04376007,30.1418167 9.03476007,30.1678167 C8.75376007,31.1838167 8.73976007,31.7858167 7.90176007,32.6248167 C6.11776007,34.4108167 2.66976007,35.5048167 0.16176007,35.0738167 C0.12076007,35.0678167 -0.0542399304,35.1398167 0.0167600696,35.1588167 C2.18576007,35.7288167 4.54976007,34.9918167 6.53876007,34.1698167 C7.23376007,33.8828167 8.73876007,33.1248167 9.79676007,32.2018167 C11.0917601,38.4748167 15.5277601,43.7358167 22.4847601,45.0538167 C28.9187601,46.2728167 36.8847601,44.3808167 42.2177601,40.8778167 C43.3627601,40.1268167 44.3977601,39.3068167 45.3487601,38.4378167 C56.0017601,39.5888167 60.4077601,24.8448167 59.9117601,17.2078167 L59.9117601,17.2078167 Z" id="Fill-46"></path>
                <path d="M28.2117601,30.1638167 C28.1707601,29.7408167 26.8287601,30.2038167 26.6777601,30.3968167 C25.2467601,32.2688167 24.0367601,32.9878167 21.5187601,33.0828167 C20.3107601,33.1298167 19.0957601,33.0598167 17.8827601,33.0158167 C22.3537601,30.3588167 22.0627601,24.1548167 23.1567601,19.6948167 C23.1827601,19.6008167 22.8627601,19.6708167 22.8267601,19.7468167 C20.9647601,23.7388167 20.8517601,31.4128167 15.8157601,33.1388167 C15.5157601,33.2418167 14.7877601,33.8068167 15.5477601,33.8258167 C18.2937601,33.8868167 28.6587601,35.0528167 28.2117601,30.1638167" id="Fill-47"></path>
                <path d="M37.7577601,17.4258167 C35.1017601,20.9398167 30.1637601,17.6088167 26.8237601,20.4468167 C26.6137601,20.6248167 27.0907601,20.5868167 27.1967601,20.5128167 C29.8387601,18.6658167 32.5567601,20.9708167 35.2057601,20.2988167 C36.8977601,19.8688167 39.2677601,18.7768167 40.3597601,17.4548167 C41.0967601,16.5608167 38.2977601,16.7138167 37.7577601,17.4258167" id="Fill-48"></path>
                <path d="M19.6547601,18.0818167 C19.2287601,17.7328167 18.5387601,17.6468167 18.0057601,17.5598167 C16.8667601,17.3768167 15.2047601,17.6508167 14.1587601,18.0798167 C13.6537601,18.2888167 13.4077601,18.9278167 14.0377601,19.1528167 C14.9507601,19.4788167 15.8827601,19.0658167 16.7627601,18.8018167 C18.1957601,18.3668167 19.6437601,18.8218167 20.9647601,19.3618167 C20.9867601,19.3718167 21.0387601,19.3428167 21.0117601,19.3218167 C20.4977601,18.9738167 20.1347601,18.4748167 19.6547601,18.0818167" id="Fill-49"></path>
                <path d="M26.2387601,38.6088167 C25.5027601,38.4818167 24.6477601,38.7348167 23.9017601,38.7588167 C22.3437601,38.8078167 20.6247601,39.1308167 19.3127601,38.1268167 C19.0787601,37.9468167 18.2987601,38.2888167 18.5767601,38.5218167 C19.5937601,39.3798167 20.8847601,39.5118167 22.2047601,39.4998167 C22.9207601,39.4938167 23.6377601,39.4798167 24.3567601,39.4698167 C24.7887601,39.4628167 25.9587601,39.0978167 25.9077601,39.7438167 C25.8017601,41.2408167 24.0387601,41.6818167 22.7637601,41.7738167 C22.1457601,41.8188167 21.4987601,41.7218167 20.9487601,41.4468167 C20.4607601,41.2028167 20.4977601,40.6988167 20.0647601,40.4428167 C19.8937601,40.3418167 19.6037601,40.4088167 19.4767601,40.5458167 C18.4327601,41.6558167 20.8267601,42.4568167 21.6267601,42.5808167 C23.1227601,42.8118167 25.1627601,42.4728167 26.2747601,41.4338167 C27.1247601,40.6398167 27.8647601,38.8898167 26.2387601,38.6088167" id="Fill-50"></path>
                <path d="M26.5467601,35.8808167 C26.5557601,35.4618167 25.3577601,35.8548167 25.2167601,35.9828167 C24.7967601,36.3618167 24.3727601,36.7328167 23.9187601,37.0708167 C23.5307601,37.3588167 23.2377601,36.1138167 23.1867601,35.9188167 C23.1007601,35.6078167 22.3947601,35.8498167 22.2307601,35.9308167 C21.4527601,36.3218167 20.6757601,36.7108167 19.8977601,37.0998167 C19.3887601,37.3578167 20.0827601,37.4878167 20.3587601,37.3648167 C20.9337601,37.1088167 21.5087601,36.8528167 22.0827601,36.5978167 C22.5327601,38.2588167 23.9227601,37.9108167 25.1477601,37.1228167 C25.2737601,37.7198167 25.5627601,38.1748167 26.2607601,38.5378167 C26.4197601,38.6218167 27.1057601,38.4968167 27.0407601,38.2408167 C26.8287601,37.4048167 26.5337601,36.7608167 26.5467601,35.8808167" id="Fill-51"></path>
                <path d="M31.8057601,3.54781671 C31.7277601,3.56981671 31.7807601,3.59681671 31.8327601,3.58281671 C40.5857601,1.46681671 45.5847601,7.68081671 46.6357601,14.9208167 C47.3447601,19.8098167 44.1327601,37.2208167 35.6317601,30.8708167 C35.5707601,30.8248167 35.2127601,30.8968167 35.2427601,30.9868167 C36.2077601,33.7948167 39.2777601,33.3808167 41.5727601,32.4448167 C46.3257601,30.5148167 47.2897601,24.0078167 47.9617601,19.8438167 C49.4797601,10.4388167 42.6917601,0.28681671 31.8057601,3.54781671" id="Fill-52"></path>
                <path d="M32.5847601,23.2648167 C32.3387601,23.5018167 32.0507601,23.7128167 31.7427601,23.8748167 C31.5247601,23.9878167 31.3577601,23.9488167 31.2247601,23.8368167 C31.4437601,23.7788167 31.6527601,23.6818167 31.7907601,23.5148167 C31.8077601,23.4778167 31.8027601,23.4498167 31.7647601,23.4278167 C31.7447601,23.4048167 31.7257601,23.3838167 31.6987601,23.3648167 C31.6717601,23.3428167 31.6207601,23.3428167 31.5787601,23.3368167 C31.5657601,23.2038167 31.5507601,23.0718167 31.5377601,22.9418167 C31.8967601,23.0628167 32.2627601,23.1628167 32.6347601,23.2118167 C32.6167601,23.2288167 32.6037601,23.2478167 32.5847601,23.2648167 Z M33.5417601,22.2688167 C33.0287601,22.5608167 31.7427601,21.9358167 31.1947601,21.8048167 C30.3567601,21.6018167 29.5417601,21.5638167 28.6997601,21.6358167 C28.6727601,21.6358167 28.6437601,21.6288167 28.6167601,21.6288167 C28.5387601,21.6288167 28.4237601,21.6438167 28.3067601,21.6728167 C28.2817601,21.6768167 28.2577601,21.6768167 28.2337601,21.6798167 C28.2007601,21.6838167 28.1557601,21.7088167 28.1127601,21.7378167 C27.9257601,21.8198167 27.7847601,21.9518167 27.8487601,22.1458167 C27.9577601,22.4738167 28.0477601,22.5218167 28.3727601,22.7018167 C28.9367601,23.0168167 29.1397601,23.1428167 29.3797601,23.7168167 C29.6397601,24.3328167 30.0497601,24.9198167 30.8197601,24.9638167 C32.4347601,25.0538167 33.7697601,23.9378167 34.6657601,22.7638167 C35.2237601,22.0318167 33.9827601,22.0178167 33.5417601,22.2688167 L33.5417601,22.2688167 Z" id="Fill-53"></path>
                <path d="M19.1837601,22.9668167 C18.9647601,23.3308167 18.7417601,23.3768167 18.5257601,23.2858167 C18.6777601,23.2148167 18.7797601,23.1228167 18.7957601,23.0288167 L18.7977601,23.0248167 C18.7997601,23.0188167 18.7957601,23.0098167 18.7977601,23.0028167 C18.7977601,22.9858167 18.8087601,22.9668167 18.7997601,22.9498167 C18.7997601,22.9458167 18.7977601,22.9448167 18.7977601,22.9418167 C18.7977601,22.8318167 18.7637601,22.7028167 18.7447601,22.6148167 C18.7417601,22.6048167 18.7407601,22.5958167 18.7377601,22.5868167 C18.9477601,22.6318167 19.1537601,22.6488167 19.3587601,22.6428167 C19.3027601,22.7528167 19.2467601,22.8608167 19.1837601,22.9668167 Z M20.0797601,21.6708167 C19.6187601,21.8668167 19.1057601,21.6018167 18.6687601,21.4758167 C18.2147601,21.3448167 17.7517601,21.3558167 17.2857601,21.3838167 C16.1847601,21.4538167 15.1177601,22.0948167 14.2477601,22.6818167 C13.3667601,23.2778167 14.7137601,23.6078167 15.2677601,23.2228167 C15.3117601,23.1928167 15.3537601,23.1658167 15.3947601,23.1378167 C15.4257601,23.1378167 15.4517601,23.1388167 15.4877601,23.1338167 C16.8147601,22.9578167 17.4457601,24.3068167 18.8447601,24.0798167 C19.9667601,23.8998167 20.5657601,22.8988167 21.0697601,22.0398167 C21.3947601,21.4898167 20.3477601,21.5568167 20.0797601,21.6708167 L20.0797601,21.6708167 Z" id="Fill-54"></path>
                <path d="M34.9537601,21.2238167 C33.6387601,20.3628167 32.0347601,20.3558167 30.5087601,20.3798167 C29.6507601,20.3938167 28.3447601,20.3648167 27.9177601,21.2328167 C27.8677601,21.3338167 28.0687601,21.3048167 28.1077601,21.2498167 C28.7067601,20.4338167 30.2247601,20.8468167 31.0707601,20.9528167 C32.2257601,21.0998167 33.2787601,21.4608167 34.4037601,21.6698167 C34.6147601,21.7088167 35.3337601,21.4758167 34.9537601,21.2238167" id="Fill-55"></path>
                <path d="M21.0117601,20.8598167 C19.1087601,18.8828167 16.0347601,20.2368167 14.1337601,21.4178167 C14.1047601,21.4358167 14.1357601,21.4608167 14.1617601,21.4518167 C14.9527601,21.1818167 15.7437601,20.9388167 16.5697601,20.7778167 C18.0417601,20.4918167 18.9717601,20.8568167 20.3127601,21.3408167 C20.5427601,21.4268167 21.3127601,21.1728167 21.0117601,20.8598167" id="Fill-56"></path>
            </g>
        </g>
    </g>
</svg>