<?xml version="1.0" encoding="UTF-8"?>
<svg width="55px" height="55px" viewBox="0 0 55 55" version="1.1" xmlns="http://www.w3.org/2000/svg" xmlns:xlink="http://www.w3.org/1999/xlink">
    <title>Group 78</title>
    <g id="Page-1" stroke="none" stroke-width="1" fill="none" fill-rule="evenodd">
        <g id="vectorstock_1327683" transform="translate(-372.000000, -16.000000)" fill="#1B1A19">
            <g id="Group-78" transform="translate(372.246800, 16.010129)">
                <path d="M22.3602001,24.9968706 C21.2722001,24.9968706 20.3532001,25.8418706 20.3442001,26.8788706 C20.3362001,27.9038706 21.2412001,28.7868706 22.3322001,28.7868706 C23.4222001,28.7868706 24.3402001,27.9438706 24.3482298,26.9068706 C24.3542001,25.8798706 23.4522001,24.9968706 22.3602001,24.9968706" id="Fill-123"></path>
                <path d="M39.5092001,25.7398706 C38.4472001,25.7398706 37.5512001,26.5608706 37.5442001,27.5758706 C37.5362001,28.5768706 38.4182001,29.4368706 39.4812001,29.4368706 C40.5462001,29.4368706 41.4422001,28.6148706 41.4492001,27.6018706 C41.4562001,26.5998706 40.5742001,25.7398706 39.5092001,25.7398706" id="Fill-124"></path>
                <path d="M43.1102001,20.0428706 C41.3202001,19.9578706 39.4642001,20.8298706 38.1322001,21.8928706 C37.9502001,22.0388706 38.1852001,22.2628706 38.3712001,22.1828706 C39.6732001,21.6208706 41.1342001,21.3648706 42.5502001,21.6228706 C43.1142001,21.7238706 43.6832001,21.9658706 44.1212001,22.3168706 C44.6692001,22.7548706 44.7452001,23.3468706 45.4012001,23.7108706 C45.8972001,23.9828706 46.6332001,23.7388706 46.7612001,23.1818706 C47.1872001,21.3068706 44.7832001,20.1298706 43.1102001,20.0428706" id="Fill-125"></path>
                <path d="M23.9372001,20.9588706 C21.6162001,19.5648706 18.4632001,19.7198706 16.4732001,21.5718706 C15.5232001,22.4538706 17.0722001,23.8818706 17.9302001,22.9368706 C19.2442001,21.4878706 21.4632001,21.3018706 23.2052001,22.1588706 C24.0432001,22.5728706 24.7372001,21.4378706 23.9372001,20.9588706" id="Fill-126"></path>
                <path d="M32.1132001,34.9558706 C31.4522001,35.1568706 30.8392001,35.3438706 30.1902001,35.4348706 C30.2922001,32.2368706 30.9032001,29.0308706 29.9322001,25.9048706 C29.8412001,25.6148706 29.4142001,25.7368706 29.4612001,26.0258706 C30.0242001,29.5778706 28.4612001,32.8858706 28.2392001,36.3938706 C28.2052001,36.9368706 28.6992001,37.2548706 29.2002001,37.3168706 C30.4412001,37.4658706 31.4722001,37.2028706 32.6712001,36.9178706 C34.0172001,36.5978706 33.4302001,34.5548706 32.1132001,34.9558706" id="Fill-127"></path>
                <path d="M52.3242001,15.4738706 C49.5162001,12.5348706 41.4412001,10.8838706 38.9292001,10.5568706 C34.7742001,10.0148706 29.4722001,9.8958706 24.8672001,11.0978706 C21.6502001,11.2228706 18.4452001,11.4928706 15.2372001,11.7258706 C16.6032001,7.1048706 18.3252001,3.2208706 23.7502001,1.8478706 C27.7262001,0.839870598 32.4472001,1.3508706 36.4962001,1.7938706 C40.2462001,2.2058706 44.0462001,3.1558706 47.2882001,5.0158706 C51.3922001,7.3738706 52.7002001,11.3828706 52.3242001,15.4738706 Z M46.2022001,13.4808706 C47.3592001,15.4938706 41.2172001,13.4318706 40.5982001,13.2538706 C40.3152001,13.1728706 40.0182001,13.3948706 40.0172001,13.6688706 C40.0172001,14.0208706 40.0672001,14.3088706 40.1502001,14.5658706 C39.6412001,14.4878706 39.1352001,14.4028706 38.6372001,14.2978706 C37.1082001,13.9738706 36.2592001,12.9958706 34.9632001,12.3458706 C34.6302001,12.1788706 34.2472001,12.3908706 34.2302001,12.7438706 C34.1882001,13.5318706 34.3272001,14.1768706 34.6392001,14.7128706 C31.9932001,14.1498706 29.5652001,13.2238706 27.4642001,11.4728706 C30.2872001,11.1148706 33.1812001,11.1348706 35.7282001,11.2928706 C37.8282001,11.4178706 42.4542001,11.9678706 46.1732001,13.2728706 C46.1582001,13.3408706 46.1632001,13.4138706 46.2022001,13.4808706 Z M51.3522001,20.0048706 C50.7492001,21.1118706 50.0932001,22.1858706 49.4392001,23.2738706 C48.4702001,24.8848706 48.1262001,26.4058706 46.6842001,27.7868706 C46.4002001,28.0598706 46.4412001,28.5838706 46.8222001,28.7648706 C47.2852001,28.9818706 47.5262001,29.0748706 48.0252001,29.2228706 C48.4202001,29.3118706 48.8142001,29.4038706 49.2092001,29.4968706 C49.2032001,29.7128706 49.1852001,29.8998706 49.1642001,30.0888706 C48.4422001,29.9468706 47.7692001,29.7678706 47.2582001,29.1628706 C46.9262001,28.7728706 46.3472001,29.3308706 46.6772001,29.7218706 C47.3002001,30.4538706 48.1352001,30.6728706 49.0282001,30.8538706 C48.6912001,32.0098706 47.8662001,32.2618706 46.5482001,31.5938706 C46.1912001,31.4868706 45.8242001,31.8388706 45.9342001,32.1748706 C47.9362001,38.3458706 48.5342001,45.4718706 42.5442001,49.8578706 C38.6222001,52.7318706 33.2222001,52.2608706 28.9422001,50.4738706 C23.6912001,48.2818706 20.0122001,43.5728706 17.3072001,38.9728706 C13.5802001,32.6378706 14.1352001,24.8578706 15.6842001,18.0028706 C17.8182001,14.1028706 22.0122001,12.3308706 26.5142001,11.6138706 C29.2092001,14.2858706 32.6942001,15.6148706 36.5242001,16.1778706 C37.2622001,16.2858706 37.5542001,15.3508706 36.8322001,15.1128706 C35.6362001,13.9728706 35.3012001,13.5978706 35.8322001,13.9888706 C36.2912001,14.3468706 36.8022001,14.6148706 37.3672001,14.7898706 C38.5662001,15.3008706 39.8652001,15.4318706 41.1502001,15.6148706 C41.5332001,15.7658706 41.9982001,15.8398706 42.5552001,15.8468706 C43.0682001,15.8518706 43.1942001,15.0998706 42.6792001,14.9948706 C42.6342001,14.9818706 42.5872001,14.9778706 42.5382001,14.9678706 C41.7872001,14.6238706 41.5882001,14.5218706 41.9412001,14.6688706 C43.0352001,15.0158706 44.1242001,15.2688706 45.2542001,15.4848706 C45.7082001,15.5698706 46.4562001,15.8928706 46.8822001,15.5688706 C47.6012001,15.0208706 47.6522001,14.2948706 47.2682001,13.6908706 C50.3272001,14.9688706 52.4282001,16.8548706 51.2592001,19.5758706 C51.1882001,19.7428706 51.2402001,19.8968706 51.3522001,20.0048706 Z M51.4712001,6.5638706 C48.2272001,2.8108706 43.4822001,1.2388706 38.5522001,0.545870598 C33.3312001,-0.189129402 27.4802001,-0.344129402 22.3962001,1.1128706 C17.2052001,2.5988706 15.7792001,7.2228706 14.9872001,11.7458706 C13.4012001,11.8598706 11.8142001,11.9688706 10.2212001,12.0418706 C7.13520007,12.1798706 2.34120007,12.4158706 0.692200068,15.4888706 C-0.483799932,17.6798706 -0.242799932,20.2318706 2.04620007,21.7498706 C5.75320007,24.2058706 9.80920007,23.3148706 14.0752001,23.3548706 C14.5532001,23.3598706 14.5502001,22.6888706 14.0802001,22.6618706 C11.2912001,22.4888706 8.47120007,22.7708706 5.71120007,22.2538706 C4.07220007,21.9448706 2.62620007,21.0738706 1.60120007,19.8158706 C-1.47279993,16.0548706 4.24820007,13.7878706 6.58620007,13.3458706 C9.82920007,12.7398706 13.2722001,12.9258706 16.5562001,12.5428706 C18.7012001,12.2948706 20.8332001,11.9678706 22.9732001,11.6848706 C19.8642001,12.8178706 17.2342001,14.6818706 15.7542001,17.6078706 C15.7422001,17.5808706 15.7052001,17.5708706 15.6962001,17.6068706 C15.6772001,17.6838706 15.6642001,17.7598706 15.6452001,17.8378706 C15.5982001,17.9318706 15.5472001,18.0268706 15.5042001,18.1258706 C15.4872001,18.1648706 15.5402001,18.1848706 15.5712001,18.1648706 C13.9232001,25.4498706 12.8942001,32.5078706 16.2292001,39.5718706 C18.8902001,45.2018706 23.9552001,50.0978706 30.0602001,52.3068706 C34.7362001,54.0048706 40.1262001,53.3928706 44.0112001,50.3858706 C49.6312001,46.0358706 48.8332001,38.7298706 47.1582001,32.8128706 C49.2302001,33.4118706 51.2352001,33.1198706 51.8202001,30.6508706 C52.3222001,28.5318706 49.8942001,28.3228706 48.2522001,27.9238706 C50.0272001,25.7328706 51.1982001,22.7838706 52.0782001,20.0998706 C52.0882001,20.0898706 52.0972001,20.0858706 52.1032001,20.0728706 C52.1212001,20.0428706 52.1362001,20.0118706 52.1532001,19.9828706 C52.9752001,19.0928706 53.3222001,18.2628706 53.3002001,17.4978706 C54.5712001,13.8208706 54.2092001,9.7338706 51.4712001,6.5638706 L51.4712001,6.5638706 Z" id="Fill-128"></path>
                <path d="M36.7272001,41.7238706 C33.8702001,41.7238706 33.8702001,45.9218706 36.7272001,45.9218706 C39.5842001,45.9218706 39.5842001,41.7238706 36.7272001,41.7238706" id="Fill-129"></path>
            </g>
        </g>
    </g>
</svg>