<?xml version="1.0" encoding="UTF-8"?>
<svg width="67px" height="50px" viewBox="0 0 67 50" version="1.1" xmlns="http://www.w3.org/2000/svg" xmlns:xlink="http://www.w3.org/1999/xlink">
    <title>Group 73</title>
    <g id="Page-1" stroke="none" stroke-width="1" fill="none" fill-rule="evenodd">
        <g id="vectorstock_1327683" transform="translate(-373.000000, -78.000000)" fill="#0A0B09">
            <g id="Group-73" transform="translate(373.295901, 78.344521)">
                <path d="M60.172099,24.6574786 C60.103099,24.7564786 60.030099,24.8584786 59.957099,24.9614786 C59.977099,19.2924786 57.177099,14.0874786 52.729099,10.6154786 C53.589099,9.86647855 54.450099,9.36947855 54.527099,10.3124786 C54.562099,10.7054786 54.956099,10.8414786 55.253099,10.6114786 C56.027099,10.0114786 56.638099,9.48547855 57.196099,8.81447855 C57.860099,9.84547855 58.315099,10.9874786 58.536099,12.2484786 C58.624099,13.0514786 59.487099,13.4904786 60.133099,12.9064786 C60.306099,12.7704786 60.481099,12.6344786 60.656099,12.4984786 C60.762099,13.1354786 60.872099,13.7744786 60.960099,14.5074786 C61.049099,15.2714786 61.767099,15.8484786 62.515099,15.4894786 C62.510099,16.7884786 62.560099,18.0664786 62.770099,19.3874786 C63.088099,21.3634786 61.242099,23.1204786 60.172099,24.6574786 Z M8.75009904,30.7224786 C6.88109904,29.4884786 4.87109904,28.4964786 3.00009904,27.2624786 C3.68509904,27.1894786 4.36409904,27.1454786 4.93609904,27.1724786 C5.56609904,27.2004786 5.90609904,26.3544786 5.45109904,25.9324786 C3.94309904,24.5284786 2.80009904,23.1014786 1.95209904,21.3184786 C2.24109904,21.4164786 2.52909904,21.5314786 2.80509904,21.6744786 C3.48809904,21.9464786 3.86309904,21.0994786 3.64109904,20.5874786 C3.31609904,19.6524786 2.99109904,18.7174786 2.66909904,17.7834786 C3.18909904,17.9724786 3.71009904,18.1624786 4.21609904,18.4164786 C4.74309904,18.6814786 5.40409904,18.3624786 5.40609904,17.7314786 C5.41009904,16.8094786 5.39609904,15.8934786 5.37409904,14.9764786 C5.84709904,15.1064786 6.38709904,14.8344786 6.44009904,14.1834786 C6.52109904,13.2284786 6.64709904,12.3264786 6.73309904,11.4234786 C7.21609904,11.7134786 7.93209904,11.4524786 8.07609904,10.8764786 C9.14209904,10.1884786 10.206099,9.49847855 11.273099,8.80847855 C11.672099,8.98847855 12.259099,8.96147855 12.472099,8.49447855 C12.744099,7.89747855 13.794099,8.10347855 14.698099,8.34947855 C12.351099,10.5494786 10.411099,13.1684786 9.11909904,16.2394786 C6.96409904,21.3524786 7.09309904,26.2924786 8.75009904,30.7224786 Z M64.783099,13.5384786 C64.788099,12.7064786 63.825099,12.1274786 63.101099,12.5734786 C63.013099,12.6264786 62.925099,12.6824786 62.837099,12.7364786 C62.678099,11.9514786 62.515099,11.1644786 62.385099,10.3654786 C62.286099,9.76047855 61.390099,9.38847855 60.894099,9.75947855 C60.440099,10.1044786 60.148099,10.3264786 59.880099,10.5614786 C59.357099,9.45547855 58.613099,8.65847855 57.762099,7.41047855 C57.487099,7.00847855 56.936099,6.99647855 56.665099,7.41047855 C55.673099,8.90747855 55.274099,9.77947855 54.503099,8.58347855 C54.429099,8.46747855 54.253099,8.42647855 54.147099,8.53747855 C53.578099,9.16947855 52.962099,9.74747855 52.345099,10.3224786 C49.219099,8.00147855 45.337099,6.51547855 41.078099,6.29047855 C40.268099,6.24747855 40.020099,7.38147855 40.676099,7.77047855 C45.106099,10.3964786 49.712099,12.1804786 53.295099,16.0794786 C57.850099,21.0344786 56.458099,27.8344786 53.640099,33.2334786 C47.408099,45.1674786 33.482099,48.0884786 22.055099,42.0974786 C11.908099,36.7774786 6.25909904,25.8664786 11.659099,15.1754786 C16.541099,5.50747855 27.836099,0.749478551 38.174099,0.603478551 C38.555099,0.597478551 38.554099,0.023478551 38.174099,0.013478551 C30.405099,-0.205521449 21.922099,2.24447855 15.812099,7.34447855 C14.892099,6.93447855 13.994099,6.53747855 13.113099,6.02547855 C12.760099,5.82047855 12.375099,5.90747855 12.079099,6.15947855 C10.739099,7.28547855 11.203099,6.15647855 9.51309904,6.63247855 C8.12109904,7.02447855 7.35509904,7.72747855 6.85509904,8.78347855 C6.79609904,8.71147855 6.73709904,8.63947855 6.68109904,8.56747855 C6.21409904,7.90547855 4.93409904,8.05147855 5.00809904,9.02047855 C5.04909904,9.55647855 5.04209904,10.0804786 5.02009904,10.6054786 C4.62409904,9.92247855 3.35109904,10.0314786 3.45709904,10.9594786 C3.67509904,12.8304786 3.76509904,14.6844786 3.80209904,16.5584786 C3.12109904,16.3144786 2.43109904,16.0934786 1.77709904,15.7764786 C1.22509904,15.5124786 0.394099043,15.9534786 0.644099043,16.6484786 C1.02609904,17.6974786 1.35009904,18.7174786 1.72209904,19.7334786 C1.46509904,19.6784786 1.20209904,19.6364786 0.935099043,19.6144786 C0.445099043,19.5304786 -0.166900957,19.9394786 0.0420990426,20.5074786 C0.799099043,22.5564786 1.82409904,24.1994786 3.21009904,25.7294786 C2.81809904,25.7824786 2.36109904,25.8864786 1.06509904,26.0424786 C0.528099043,26.1044786 -0.0139009574,26.8394786 0.554099043,27.2814786 C3.13309904,29.3024786 5.99809904,30.4814786 9.06609904,31.5114786 C11.746099,37.8844786 17.590099,43.1284786 24.310099,46.1904786 C37.884099,52.3764786 52.174099,45.4914786 58.222099,32.5224786 C58.568099,31.7794786 58.856099,31.0364786 59.097099,30.2934786 C60.886099,28.6384786 62.188099,25.5954786 63.506099,23.7374786 C66.141099,20.0194786 64.754099,18.0784786 64.783099,13.5384786 L64.783099,13.5384786 Z" id="Fill-456"></path>
                <path d="M45.777099,25.4224786 C44.802099,21.4164786 40.398099,21.8074786 37.463099,23.2284786 C38.445099,18.1964786 40.059099,13.1534786 40.336099,8.05347855 C40.350099,7.78947855 39.964099,7.75647855 39.891099,7.99347855 C38.240099,13.3204786 37.146099,18.8944786 35.930099,24.3344786 C35.804099,24.8914786 36.373099,25.3674786 36.892099,25.0754786 C43.337099,21.4234786 46.600099,27.3324786 42.413099,31.9534786 C40.959099,33.5604786 38.780099,34.4734786 36.759099,35.0754786 C32.056099,36.4734786 28.517099,34.5534786 27.208099,29.9034786 C27.123099,29.6024786 26.608099,29.5604786 26.552099,29.9034786 C25.067099,38.7704786 36.463099,37.7794786 41.417099,34.7924786 C44.664099,32.8364786 46.693099,29.1824786 45.777099,25.4224786" id="Fill-457"></path>
                <path d="M43.014099,12.2524786 C42.136099,12.2524786 41.403099,12.9834786 41.403099,13.8604786 C41.403099,14.7384786 42.136099,15.4724786 43.014099,15.4724786 C43.893099,15.4724786 44.626099,14.7384786 44.626099,13.8604786 C44.626099,12.9834786 43.893099,12.2524786 43.014099,12.2524786" id="Fill-458"></path>
                <path d="M33.011099,11.4234786 C30.700099,11.4234786 30.700099,15.0084786 33.011099,15.0084786 C35.323099,15.0084786 35.323099,11.4234786 33.011099,11.4234786" id="Fill-459"></path>
                <path d="M41.065099,38.0864786 C39.992099,38.5284786 38.977099,39.0514786 37.980099,39.6474786 C37.107099,40.1674786 36.014099,40.7824786 35.647099,41.7724786 C35.493099,42.1844786 35.878099,42.5014786 36.237099,42.5474786 C37.084099,42.6534786 37.992099,42.0764786 38.704099,41.6674786 C39.654099,41.1224786 40.627099,40.6134786 41.657099,40.2304786 C43.002099,39.7304786 42.376099,37.5474786 41.065099,38.0864786" id="Fill-460"></path>
                <path d="M31.463099,4.26447855 C30.651099,4.75947855 30.201099,5.67647855 29.671099,6.44247855 C29.114099,7.23947855 28.587099,7.94647855 28.379099,8.89847855 C28.304099,9.24047855 28.590099,9.54547855 28.936099,9.45847855 C29.875099,9.22447855 30.448099,8.58347855 31.033099,7.83947855 C31.643099,7.05747855 32.497099,6.22247855 32.741099,5.24547855 C32.921099,4.52347855 32.134099,3.85847855 31.463099,4.26447855" id="Fill-461"></path>
            </g>
        </g>
    </g>
</svg>