<?xml version="1.0" encoding="UTF-8"?>
<svg width="57px" height="50px" viewBox="0 0 57 50" version="1.1" xmlns="http://www.w3.org/2000/svg" xmlns:xlink="http://www.w3.org/1999/xlink">
    <title>Group 18</title>
    <g id="Page-1" stroke="none" stroke-width="1" fill="none" fill-rule="evenodd">
        <g id="vectorstock_1327683" transform="translate(-7.000000, -304.000000)" fill="#1B1A19">
            <g id="Group-18" transform="translate(7.402291, 304.882970)">
                <path d="M52.1657089,20.4590302 C50.2917089,22.3880302 47.9157089,23.6180302 45.2457089,22.2730302 C42.7327089,21.0070302 41.4577089,17.7640302 42.1997089,15.2510302 C42.5647089,14.0250302 43.4867089,12.8640302 44.7457089,12.3700302 C46.1787089,11.8110302 47.8427089,12.5170302 48.8767089,13.4800302 C50.1337089,14.6460302 48.7027089,16.0830302 47.4917089,16.5700302 C47.0937089,16.7280302 46.6337089,16.6700302 46.2397089,16.7540302 C45.9527089,16.5230302 45.3927089,16.6520302 45.4497089,17.0740302 C45.4617089,17.1760302 45.5847089,17.6750302 45.5777089,17.5080302 C45.5937089,17.8490302 45.8397089,18.1840302 46.2097089,18.2540302 C49.0897089,18.7940302 52.1357089,15.3050302 50.3647089,12.8790302 C49.0197089,11.0410302 46.1827089,10.1870302 44.0077089,11.0070302 C41.6537089,11.8900302 40.4397089,14.3230302 40.2577089,16.5820302 C40.0657089,18.9820302 41.6287089,21.6420302 43.5597089,23.1130302 C44.7577089,24.0240302 46.2237089,24.4350302 47.6917089,24.3570302 C49.1017089,28.5080302 49.8657089,32.9630302 48.2827089,37.1710302 C47.1187089,40.2570302 44.7357089,42.7380302 41.8167089,44.4310302 C35.8247089,47.9140302 27.5957089,48.1310302 21.4147089,44.9850302 C17.0327089,42.7550302 14.3327089,38.9750302 12.9817089,34.5740302 C14.2897089,32.9450302 14.8567089,30.6350302 14.4597089,28.6120302 C14.0777089,26.6710302 12.7497089,25.0700302 10.6397089,24.7020302 C8.84970886,24.3900302 7.24270886,25.0480302 6.63170886,26.7090302 C6.23570886,27.7830302 6.47870886,29.2920302 7.20570886,30.2000302 C8.09770886,31.3090302 9.55570886,30.9090302 9.80870886,29.5680302 C9.91470886,29.0070302 9.21270886,28.6070302 8.77670886,29.0380302 C8.71270886,29.0990302 8.65170886,29.1430302 8.60170886,29.1730302 C8.59570886,29.1600302 8.58770886,29.1490302 8.57970886,29.1350302 C8.32370886,28.7410302 8.25970886,28.1420302 8.31570886,27.6910302 C8.52370886,26.0140302 10.6397089,26.2590302 11.6697089,27.1730302 C13.1687089,28.5070302 12.7247089,31.1810302 11.9647089,32.7420302 C10.9697089,34.7770302 9.12770886,35.2810302 6.95570886,34.7020302 C3.28370886,33.7220302 1.73970886,29.8360302 1.59570886,26.5680302 C1.46470886,23.6620302 2.38470886,19.6150302 5.65170886,18.5050302 C6.66870886,18.1570302 7.72270886,18.2730302 8.75170886,18.4750302 C9.17870886,19.1320302 9.63770886,19.7540302 10.1087089,20.3400302 C12.7737089,23.6390302 16.6947089,26.0410302 21.0987089,26.5090302 C25.3897089,26.9650302 29.5807089,25.5420302 32.7467089,22.7980302 C36.5057089,19.5420302 39.2927089,13.0660302 38.6617089,7.84103018 C39.2897089,6.01603018 41.5027089,5.44603018 43.4947089,5.34903018 C45.8197089,5.23903018 47.9407089,5.80403018 49.9057089,6.96003018 C54.8797089,9.88903018 56.1967089,16.3030302 52.1657089,20.4590302 Z M45.9567089,4.58903018 C43.6467089,4.32803018 39.7437089,4.64503018 38.4637089,6.70503018 C37.7087089,3.41703018 35.4117089,0.809030184 30.8797089,0.141030184 C26.0237089,-0.574969816 20.4917089,1.50903018 17.0417089,4.72103018 C14.2557089,7.31803018 13.5447089,11.5680302 14.8867089,14.9680302 C15.8037089,17.3030302 17.8637089,19.0930302 20.5377089,19.3260302 C23.7727089,19.6070302 27.2637089,17.7960302 28.9287089,15.2030302 C30.3077089,13.0530302 30.0057089,10.2260302 28.1327089,8.44203018 C25.8287089,6.25103018 22.2237089,7.14803018 19.8237089,8.64303018 C19.3467089,8.94103018 19.2927089,9.55503018 19.6917089,9.93403018 C20.1077089,10.3300302 20.4797089,10.6530302 21.0087089,10.9090302 C21.9057089,11.3490302 22.5057089,10.1690302 21.7317089,9.64303018 C21.7157089,9.63403018 21.7057089,9.62403018 21.6897089,9.61103018 C23.1827089,9.04703018 24.8937089,8.84303018 26.2377089,9.83903018 C27.4207089,10.7120302 27.6427089,12.2700302 27.0807089,13.5300302 C25.7027089,16.6140302 20.2887089,18.6110302 17.7987089,15.6230302 C15.5117089,12.8770302 16.2277089,8.57803018 18.6797089,6.16703018 C21.8447089,3.05903018 27.8587089,1.12803018 32.2047089,2.91503018 C37.3287089,5.02303018 36.5167089,11.1780302 34.9497089,15.2310302 C33.4137089,19.2040302 30.1377089,22.6610302 25.8207089,23.9600302 C21.7937089,25.1750302 17.4097089,24.1240302 14.1317089,21.7070302 C10.2497089,18.8430302 6.80370886,13.4290302 7.65870886,8.64503018 C8.50770886,3.88103018 13.5947089,1.61703018 18.0277089,0.513030184 C18.3277089,0.440030184 18.2557089,-0.0229698157 17.9427089,0.00203018429 C13.3437089,0.399030184 8.46570886,2.61703018 6.67570886,6.90303018 C5.24570886,10.3210302 6.23570886,14.1220302 8.06670886,17.3500302 C5.62970886,16.8660302 3.20070886,18.0780302 1.76270886,20.1400302 C-0.194291145,22.9440302 -0.373291145,26.7590302 0.501708855,29.9230302 C1.44770886,33.3300302 4.12870886,36.1120302 7.90070886,36.6330302 C9.93170886,36.9140302 11.5907089,36.1360302 12.7467089,34.8510302 C14.0467089,41.3760302 19.3047089,46.2880302 26.1277089,47.9720302 C32.9257089,49.6510302 40.6397089,48.1220302 45.8427089,43.5790302 C48.2117089,41.5090302 49.8317089,38.7650302 50.4727089,35.7800302 C50.8337089,34.1100302 50.8687089,32.3850302 50.6857089,30.6930302 C50.5777089,29.6850302 50.3737089,28.6830302 50.1267089,27.6980302 C49.8317089,26.5090302 49.1227089,25.3630302 48.4517089,24.2710302 C48.9147089,24.1950302 49.3707089,24.0730302 49.8117089,23.8980302 C52.1567089,22.9800302 54.0217089,20.7290302 55.0377089,18.5900302 C56.0217089,16.5200302 56.0707089,14.1810302 55.3977089,12.0270302 C54.1677089,8.09203018 50.2217089,5.06803018 45.9567089,4.58903018 L45.9567089,4.58903018 Z" id="Fill-110"></path>
                <path d="M28.4087089,29.6610302 C26.5027089,29.3210302 24.2437089,30.1070302 22.5347089,30.8430302 C20.7537089,31.6120302 18.9377089,32.8250302 18.1987089,34.5990302 C18.0307089,35.0040302 18.4887089,35.3250302 18.8447089,35.0380302 C20.1947089,33.9470302 21.5997089,32.9860302 23.2587089,32.3610302 C24.0527089,32.0630302 24.8917089,31.8500302 25.7197089,31.6610302 C26.6207089,31.4550302 27.5607089,31.4810302 28.4517089,31.2580302 C29.2797089,31.0560302 29.2667089,29.8130302 28.4087089,29.6610302" id="Fill-111"></path>
                <path d="M43.1067089,24.8470302 C42.3937089,23.3510302 39.8567089,24.1580302 38.6557089,24.6710302 C36.8967089,25.4220302 35.2097089,26.5780302 34.3467089,28.2530302 C34.3057089,28.3370302 34.3997089,28.4190302 34.4857089,28.3720302 C35.9527089,27.5870302 37.2687089,26.5930302 38.8707089,26.0450302 C39.6997089,25.7610302 40.5527089,25.6850302 41.4227089,25.6970302 C42.0957089,25.7050302 42.5057089,25.8010302 42.9887089,25.3160302 C43.1007089,25.2040302 43.1787089,24.9940302 43.1067089,24.8470302" id="Fill-112"></path>
                <path d="M37.6637089,27.6700302 C35.8367089,28.1840302 36.6817089,30.8680302 38.5097089,30.3500302 C40.3357089,29.8340302 39.4907089,27.1550302 37.6637089,27.6700302" id="Fill-113"></path>
                <path d="M25.3437089,32.9110302 C23.5337089,33.4230302 24.3717089,36.0780302 26.1807089,35.5660302 C27.9897089,35.0540302 27.1527089,32.4000302 25.3437089,32.9110302" id="Fill-114"></path>
                <path d="M32.5237089,34.8130302 C32.2427089,35.3160302 32.1957089,35.8510302 31.8107089,36.3110302 C31.5507089,36.6250302 31.2007089,36.8540302 30.8277089,37.0330302 C31.0367089,34.9880302 30.4497089,32.5080302 29.0617089,31.0070302 C28.9777089,30.9130302 28.8277089,31.0390302 28.8917089,31.1380302 C30.0117089,32.9000302 30.4247089,35.6420302 29.8557089,37.6050302 C29.7687089,37.9130302 30.0967089,38.1860302 30.4077089,38.0990302 C31.8307089,37.7160302 33.7947089,36.5600302 33.2087089,34.8820302 C33.1087089,34.5930302 32.6787089,34.5350302 32.5237089,34.8130302" id="Fill-115"></path>
                <path d="M40.2387089,36.6730302 C37.3537089,37.5720302 34.5687089,39.7380302 32.9147089,42.1230302 C32.8437089,42.2220302 33.0107089,42.3340302 33.0907089,42.2460302 C35.1237089,39.9450302 37.8627089,38.7790302 40.6217089,37.4740302 C41.1027089,37.2490302 40.7337089,36.5180302 40.2387089,36.6730302" id="Fill-116"></path>
                <path d="M39.8967089,38.9320302 C38.2827089,39.3140302 36.3967089,40.5230302 35.3837089,41.7760302 C35.2357089,41.9610302 35.3827089,42.2670302 35.6487089,42.1870302 C36.3227089,41.9790302 36.8927089,41.5710302 37.4947089,41.2270302 C38.3797089,40.7260302 39.2587089,40.3070302 40.2127089,39.9360302 C40.8637089,39.6810302 40.5977089,38.7650302 39.8967089,38.9320302" id="Fill-117"></path>
            </g>
        </g>
    </g>
</svg>