<?xml version="1.0" encoding="UTF-8"?>
<svg width="45px" height="54px" viewBox="0 0 45 54" version="1.1" xmlns="http://www.w3.org/2000/svg" xmlns:xlink="http://www.w3.org/1999/xlink">
    <title>Group 58</title>
    <g id="Page-1" stroke="none" stroke-width="1" fill="none" fill-rule="evenodd">
        <g id="vectorstock_1327683" transform="translate(-256.000000, -240.000000)" fill="#1B1A19">
            <g id="Group-58" transform="translate(256.821778, 240.057906)">
                <path d="M26.5792224,26.5940941 C28.2562224,26.3150941 30.2112224,26.8460941 31.9762224,27.2710941 C31.0832224,24.3130941 29.9952224,21.4430941 29.4652224,18.3850941 C29.4592224,18.3520941 29.5112224,18.3370941 29.5202224,18.3700941 C30.4942224,21.6850941 32.3442224,24.7320941 33.5762224,27.9700941 C33.7412224,28.3990941 33.3262224,28.7260941 32.9302224,28.7740941 C30.9612224,29.0160941 28.1272224,28.6370941 26.4292224,27.6680941 C26.0062224,27.4250941 26.0262224,26.6870941 26.5792224,26.5940941" id="Fill-69"></path>
                <path d="M24.8302224,16.6340941 C24.9632224,16.1730941 25.2892224,15.7740941 25.7272224,15.5320941 C26.1752224,15.2830941 26.7232224,15.2190941 27.2262224,15.3470941 C27.7482224,15.4860941 28.0862224,15.7900941 28.3912224,16.1950941 C28.6522224,16.5460941 28.6772224,16.9930941 28.7162224,17.3990941 C28.7612224,17.8720941 28.4802224,18.4000941 28.1392224,18.7210941 C27.7712224,19.0730941 27.2632224,19.2710941 26.7422224,19.2710941 C25.7392224,19.2710941 24.6772224,18.4170941 24.7702224,17.3990941 C24.7752224,17.3350941 24.7782224,17.2680941 24.7772224,17.2010941 C24.7652224,17.0200941 24.7742224,16.8340941 24.8302224,16.6340941" id="Fill-70"></path>
                <path d="M33.2732224,18.4030941 C35.4562224,18.4030941 35.4562224,21.6040941 33.2732224,21.6040941 C31.0912224,21.6040941 31.0912224,18.4030941 33.2732224,18.4030941" id="Fill-71"></path>
                <path d="M35.8472224,12.1890941 C36.8742224,11.5110941 38.0562224,11.2980941 39.3542224,11.4700941 C40.4662224,11.6160941 40.6742224,10.1550941 39.5602224,10.0330941 C37.7032224,9.83109406 36.0222224,10.2440941 34.6212224,11.3750941 C33.4462224,10.6600941 32.1522224,10.0430941 30.7232224,9.55709406 C29.8832224,9.27609406 29.5822224,10.4870941 30.3632224,10.7990941 C56.6602224,21.2970941 31.7452224,64.7140941 9.56722238,47.1820941 C2.61322238,41.6830941 1.17422238,31.7210941 2.75622238,23.6790941 C3.42022238,23.9440941 4.13722238,23.9920941 4.78722238,23.6440941 C5.06322238,23.4990941 4.97522238,23.1430941 4.70622238,23.0540941 C3.60522238,22.6860941 2.72922238,22.5840941 2.02222238,21.5910941 C1.33722238,20.6220941 1.16422238,19.3630941 1.41822238,18.2410941 C2.12222238,15.1460941 7.17122238,15.8380941 6.45422238,19.0130941 C6.38422238,19.3220941 6.87422238,19.5610941 7.02522238,19.2390941 C7.70322238,17.7890941 7.32422238,16.4700941 6.06022238,15.5900941 C9.75022238,10.2030941 15.9012224,6.97709406 23.2742224,7.09309406 C23.4602224,7.24409406 23.7362224,7.28909406 23.9842224,7.11909406 C23.9622224,7.48209406 24.2662224,7.86109406 24.7482224,7.73509406 C24.8482224,7.70909406 24.9442224,7.66309406 25.0392224,7.63009406 C25.0642224,7.85809406 25.2252224,8.08109406 25.5332224,8.10909406 C27.5482224,8.27309406 29.7192224,7.23309406 31.2292224,6.05209406 C32.5362224,5.02809406 33.4652224,2.47909406 31.1432224,1.95209406 C30.6922224,1.84809406 30.2982224,2.30009406 30.5392224,2.69509406 C30.8282224,3.16809406 31.2412224,3.52409406 31.0722224,4.10009406 C30.8932224,4.71209406 30.2112224,5.23209406 29.7062224,5.59909406 C28.7202224,6.31309406 27.4212224,6.96209406 26.1402224,7.09709406 C27.3602224,6.30809406 28.3892224,5.04509406 29.0232224,3.94409406 C29.8552224,2.50609406 29.4722224,0.42909406 27.3072224,0.86609406 C26.9122224,0.94509406 26.8002224,1.55209406 27.1892224,1.71509406 C27.5722224,1.87609406 27.9912224,1.97309406 28.0142224,2.40809406 C28.0442224,2.96309406 27.6132224,3.55809406 27.3162224,4.00309406 C26.7142224,4.91509406 25.6982224,6.11209406 24.5782224,6.53109406 C25.6072224,5.33309406 26.1452224,3.55809406 25.8602224,2.09809406 C25.5842224,0.68709406 23.5772224,-0.95090594 22.3482224,0.67909406 C22.1892224,0.88909406 22.3662224,1.13809406 22.5782224,1.21609406 C23.0322224,1.38609406 23.6912224,1.23309406 24.0722224,1.53009406 C24.4622224,1.83509406 24.4762224,2.44909406 24.4842224,2.88209406 C24.4992224,4.08009406 24.1422224,5.46209406 23.2352224,6.33709406 C23.1862224,6.38209406 23.1622224,6.43009406 23.1352224,6.47809406 C15.0332224,5.98209406 8.88922238,9.61609406 5.04622238,15.0710941 C3.46222238,14.5440941 1.82822238,15.2510941 0.81922238,16.5010941 C-0.36677762,17.9700941 -0.11877762,20.1470941 0.63922238,21.7150941 C0.81922238,22.0900941 1.10222238,22.4680941 1.44622238,22.8040941 C-1.22777762,32.4410941 1.35022238,43.8690941 10.3252224,49.8410941 C21.0132224,56.9500941 34.8512224,50.3700941 40.2722224,40.5570941 C45.4302224,31.2210941 44.5692224,18.5200941 35.8472224,12.1890941" id="Fill-72"></path>
                <path d="M35.4902224,35.4320941 C34.4832224,41.6680941 23.0892224,43.9590941 18.1772224,40.3350941 C17.5882224,39.8990941 17.9862224,39.0270941 18.6762224,39.2490941 C23.4912224,40.8010941 32.9282224,41.0200941 34.5432224,35.2150941 C34.6842224,34.7040941 35.5782224,34.8930941 35.4902224,35.4320941" id="Fill-73"></path>
                <path d="M25.7742224,9.99009406 C23.4862224,10.1140941 21.2472224,10.8000941 19.6162224,12.3630941 C19.0312224,12.9220941 19.9072224,13.7310941 20.5192224,13.2160941 C22.1492224,11.8540941 23.9622224,11.8350941 25.9902224,11.5110941 C26.9022224,11.3650941 26.6842224,9.94309406 25.7742224,9.99009406" id="Fill-74"></path>
                <path d="M5.22722238,17.2630941 C4.76422238,17.0580941 4.28622238,17.1340941 3.84022238,17.3290941 C3.39022238,17.5260941 3.03422238,17.9290941 2.78222238,18.3200941 C2.54422238,18.6890941 2.56122238,19.1460941 2.62922238,19.5630941 C2.64222238,19.6470941 2.78222238,19.6400941 2.80122238,19.5630941 C2.92522238,19.0460941 3.51622238,18.4720941 3.99422238,18.2080941 C4.73922238,17.7940941 4.80422238,18.5000941 5.37122238,18.7310941 C5.61722238,18.8290941 5.83822238,18.7510941 5.93922238,18.5130941 C6.15722238,18.0010941 5.69622238,17.4740941 5.22722238,17.2630941" id="Fill-75"></path>
            </g>
        </g>
    </g>
</svg>