<?xml version="1.0" encoding="UTF-8"?>
<svg width="50px" height="53px" viewBox="0 0 50 53" version="1.1" xmlns="http://www.w3.org/2000/svg" xmlns:xlink="http://www.w3.org/1999/xlink">
    <title>Group 21</title>
    <g id="Page-1" stroke="none" stroke-width="1" fill="none" fill-rule="evenodd">
        <g id="vectorstock_1327683" transform="translate(-72.000000, -353.000000)" fill="#0A0B09">
            <g id="Group-21" transform="translate(72.914216, 353.955108)">
                <path d="M45.4807842,34.1898916 C44.5307842,34.3108916 43.6457842,33.9908916 42.7967842,33.6058916 C42.9457842,33.0488916 43.0757842,32.4918916 43.1907842,31.9308916 C43.4667842,31.9448916 43.7467842,31.9448916 44.0237842,31.9718916 C44.3817842,32.0058916 44.6677842,32.0698916 45.0037842,31.9188916 C45.0487842,31.8978916 45.0767842,31.8338916 45.0487842,31.7888916 C44.8467842,31.4658916 44.5787842,31.3748916 44.2107842,31.3028916 C43.9257842,31.2478916 43.6297842,31.1918916 43.3357842,31.1688916 C43.3597842,31.0278916 43.3857842,30.8868916 43.4077842,30.7448916 C44.7407842,30.9128916 47.8797842,31.2938916 47.1607842,33.1778916 C46.9107842,33.8398916 46.1137842,34.1058916 45.4807842,34.1898916 Z M39.4607842,37.0388916 C37.3067842,41.9898916 33.5557842,46.4938916 28.6287842,48.8438916 C23.7067842,51.1908916 18.1097842,50.3828916 13.5197842,47.6498916 C5.32078424,42.7628916 3.49178424,32.3078916 5.98678424,23.7058916 C6.01978424,23.5948916 6.05378424,23.4878916 6.08678424,23.3798916 C6.55778424,23.2948916 6.76578424,22.7308916 6.41378424,22.3828916 C9.29478424,14.1858916 16.3767842,7.69189162 25.3377842,7.56489162 C28.7417842,9.37289162 32.3377842,10.8028916 35.4657842,13.0958916 C38.1927842,15.0998916 40.1427842,17.9488916 41.0897842,21.1848916 C42.6207842,26.4078916 41.5907842,32.1408916 39.4607842,37.0388916 Z M5.69978424,20.6238916 C5.50278424,20.4638916 5.20378424,20.4548916 4.96078424,20.4038916 C4.68978424,20.3488916 4.41778424,20.2968916 4.14478424,20.2478916 C4.06478424,20.2338916 4.02178424,20.3608916 4.09278424,20.3978916 C4.33778424,20.5288916 4.58178424,20.6588916 4.82878424,20.7828916 C5.04178424,20.8918916 5.26778424,21.0608916 5.51078424,21.0738916 C5.40378424,21.3348916 5.29878424,21.5988916 5.19878424,21.8628916 C4.81278424,21.7738916 4.42078424,21.7078916 4.09678424,21.6138916 C3.19878424,21.3538916 2.13178424,21.0678916 1.42278424,20.4228916 C1.08978424,20.1228916 1.15978424,19.8178916 1.45978424,19.4998916 C1.89578424,19.0398916 2.82578424,19.3368916 3.32478424,19.4848916 C4.16078424,19.7348916 4.97178424,20.0928916 5.78778424,20.4218916 C5.75778424,20.4878916 5.73078424,20.5558916 5.69978424,20.6238916 Z M47.2537842,31.0348916 C46.2787842,30.2208916 44.7257842,30.0598916 43.4827842,30.2558916 C43.8467842,27.6778916 43.8417842,25.0878916 43.4117842,22.6108916 C42.8027842,19.0908916 41.1157842,15.8128916 38.5977842,13.2848916 C37.7367842,12.4198916 36.7887842,11.6588916 35.7847842,10.9638916 C33.3147842,8.22389162 31.3217842,5.17189162 30.7427842,1.40789162 C30.9397842,1.30689162 31.1027842,1.15389162 31.2207842,0.869891624 C31.3017842,0.677891624 31.2097842,0.440891624 31.0437842,0.326891624 C30.6877842,0.0808916243 30.3027842,0.0628916243 29.8787842,0.00689162434 C29.3057842,-0.0691083757 28.9577842,0.497891624 29.0067842,0.996891624 C29.1817842,2.71689162 29.6377842,4.31289162 30.3357842,5.81089162 C28.8657842,4.52889162 27.3107842,3.35089162 25.6187842,2.37389162 C23.9987842,1.43889162 21.7987842,0.336891624 19.8947842,0.838891624 C19.3587842,0.980891624 19.0847842,1.75589162 19.6347842,2.08889162 C21.2477842,3.06289162 23.2247842,3.35589162 24.9087842,4.26589162 C26.6317842,5.19789162 28.1937842,6.41889162 29.6967842,7.67789162 C28.2417842,7.04189162 26.7687842,6.45589162 25.3377842,5.88089162 C24.5767842,5.57589162 23.9507842,6.75089162 24.6317842,7.17789162 C22.2667842,7.12389162 19.9007842,7.46689162 17.6557842,8.32989162 C13.6037842,9.88689162 10.2697842,12.9478916 7.89878424,16.5338916 C7.18778424,17.6078916 6.55778424,18.7458916 6.00778424,19.9268916 C4.20878424,18.7518916 0.470784239,16.7478916 0.0127842393,19.9828916 C-0.150215761,21.1478916 1.28378424,21.8608916 2.13078424,22.2418916 C2.83878424,22.5578916 3.59178424,22.7748916 4.33578424,22.9868916 C4.47078424,23.0268916 4.61478424,23.0738916 4.76178424,23.1228916 C2.81578424,29.2118916 2.95878424,36.0438916 5.82478424,41.7338916 C10.3057842,50.6408916 21.6507842,54.7468916 30.5417842,49.9698916 C36.2807842,46.8898916 40.5267842,41.0418916 42.5077842,34.6108916 C44.4337842,35.4088916 47.2597842,35.6158916 48.0577842,33.4138916 C48.3817842,32.5128916 47.9447842,31.6128916 47.2537842,31.0348916 L47.2537842,31.0348916 Z" id="Fill-286"></path>
                <path d="M21.3047842,13.4058916 C18.6667842,14.0808916 16.0647842,14.8438916 14.5867842,17.3328916 C14.5187842,17.4508916 14.6367842,17.6418916 14.7797842,17.5558916 C15.8457842,16.9088916 16.8577842,16.2738916 18.0527842,15.8868916 C19.2107842,15.5068916 20.4597842,15.3898916 21.6627842,15.2278916 C22.8467842,15.0658916 22.4687842,13.1088916 21.3047842,13.4058916" id="Fill-287"></path>
                <path d="M33.5667842,18.2528916 C33.4447842,18.1068916 33.4687842,17.8398916 33.3387842,17.6478916 C32.8917842,16.9808916 32.1887842,16.4268916 31.6157842,15.8688916 C30.5607842,14.8338916 29.0717842,13.3418916 27.6367842,12.8768916 C26.6847842,12.5678916 26.2147842,13.7518916 26.8877842,14.3498916 C28.0567842,15.3858916 29.6337842,16.2598916 30.9637842,17.0828916 C31.5317842,17.4368916 32.1197842,17.9328916 32.7417842,18.1858916 C32.9637842,18.2768916 33.3287842,18.2398916 33.4947842,18.3328916 C33.5467842,18.3628916 33.6107842,18.3008916 33.5667842,18.2528916" id="Fill-288"></path>
                <path d="M28.2917842,16.3318916 C27.5637842,16.0778916 26.7457842,16.4738916 26.4927842,17.2008916 C26.2387842,17.9278916 26.6327842,18.7478916 27.3607842,19.0008916 C28.0897842,19.2548916 28.9057842,18.8578916 29.1597842,18.1308916 C29.4127842,17.4048916 29.0197842,16.5858916 28.2917842,16.3318916" id="Fill-289"></path>
                <path d="M20.5677842,16.2888916 C19.9137842,16.0608916 19.1747842,16.4188916 18.9447842,17.0728916 C18.7167842,17.7288916 19.0737842,18.4658916 19.7297842,18.6968916 C20.3867842,18.9238916 21.1247842,18.5688916 21.3507842,17.9128916 C21.5817842,17.2568916 21.2257842,16.5188916 20.5677842,16.2888916" id="Fill-290"></path>
                <path d="M25.1577842,40.6588916 C21.6507842,43.1718916 17.6807842,43.4638916 13.7257842,41.7168916 C9.70178424,39.9388916 6.98478424,35.9268916 8.06078424,31.4858916 C8.08378424,31.3998916 7.96678424,31.3558916 7.93178424,31.4378916 C6.01978424,36.0038916 8.61078424,40.4018916 12.8077842,42.4948916 C16.6577842,44.4168916 22.7327842,44.9478916 25.7087842,41.1558916 C25.9857842,40.8018916 25.4827842,40.4258916 25.1577842,40.6588916" id="Fill-291"></path>
                <path d="M10.2457842,31.8958916 C9.77978424,30.7378916 7.39078424,30.5548916 6.35778424,30.8148916 C6.28178424,30.8328916 6.26278424,30.9498916 6.34678424,30.9758916 C6.96778424,31.1648916 7.62378424,31.1918916 8.25178424,31.3818916 C8.89378424,31.5758916 9.41278424,32.0908916 10.0847842,32.1328916 C10.2167842,32.1398916 10.2917842,32.0068916 10.2457842,31.8958916" id="Fill-292"></path>
                <path d="M23.8987842,25.0108916 C23.1297842,24.8098916 22.3607842,24.6158916 21.5987842,24.4018916 C22.5277842,23.6598916 23.1357842,22.5538916 23.4787842,21.3948916 C23.8377842,20.1718916 23.8267842,18.3388916 22.6797842,17.5368916 C22.5787842,17.4658916 22.4007842,17.5598916 22.4447842,17.6918916 C23.1687842,19.9208916 22.6957842,23.1848916 20.0807842,24.0158916 C19.5757842,24.1758916 19.4467842,24.8798916 20.0057842,25.0878916 C21.1907842,25.5268916 22.3987842,26.0368916 23.6697842,26.1418916 C24.3127842,26.1938916 24.5437842,25.1788916 23.8987842,25.0108916" id="Fill-293"></path>
            </g>
        </g>
    </g>
</svg>