<?xml version="1.0" encoding="UTF-8"?>
<svg width="51px" height="57px" viewBox="0 0 51 57" version="1.1" xmlns="http://www.w3.org/2000/svg" xmlns:xlink="http://www.w3.org/1999/xlink">
    <title>Group 14</title>
    <g id="Page-1" stroke="none" stroke-width="1" fill="none" fill-rule="evenodd">
        <g id="vectorstock_1327683" transform="translate(-131.000000, -184.000000)" fill="#1B1A19">
            <g id="Group-14" transform="translate(131.351109, 184.509889)">
                <path d="M42.746891,32.765111 C41.529891,38.992111 38.189891,45.428111 33.676891,50.091111 C31.740891,52.090111 29.434891,53.824111 26.529891,54.235111 C22.214891,54.846111 18.708891,51.073111 16.437891,48.151111 C13.828891,44.799111 11.735891,41.159111 10.189891,37.330111 C12.708891,36.794111 15.321891,36.482111 17.668891,35.886111 C17.680891,35.881111 17.686891,35.872111 17.696891,35.869111 C17.744891,35.984111 17.789891,36.097111 17.835891,36.204111 C18.821891,38.538111 19.938891,40.242111 19.049891,42.838111 C18.902891,43.271111 19.480891,43.637111 19.862891,43.398111 C21.505891,42.367111 23.187891,41.503111 25.040891,40.855111 C25.593891,40.663111 25.386891,39.818111 24.814891,40.003111 C23.275891,40.497111 21.830891,41.133111 20.431891,41.886111 C20.849891,39.527111 19.753891,37.724111 18.693891,35.407111 C18.218891,34.365111 17.275891,31.386111 19.355891,31.431111 C20.568891,31.458111 21.998891,32.181111 23.035891,32.868111 C23.078891,33.011111 23.121891,33.153111 23.162891,33.296111 C23.253891,33.607111 23.625891,33.741111 23.929891,33.659111 C28.201891,32.524111 32.500891,31.489111 36.768891,30.349111 C37.234891,30.227111 37.298891,29.677111 37.080891,29.347111 C35.773891,27.387111 34.892891,25.493111 34.316891,23.202111 C34.271891,23.021111 34.005891,23.085111 33.971891,23.243111 C28.737891,23.413111 22.711891,22.644111 17.977891,25.276111 C17.665891,25.449111 17.859891,25.852111 18.203891,25.758111 C23.330891,24.347111 28.634891,23.707111 33.959891,23.308111 C34.151891,25.424111 34.711891,27.368111 35.564891,29.300111 C31.730891,30.267111 27.770891,31.007111 24.072891,32.377111 C23.035891,30.010111 21.944891,27.663111 21.151891,25.208111 C21.121891,25.115111 20.951891,25.142111 20.970891,25.240111 C21.451891,27.751111 22.236891,30.187111 22.967891,32.641111 C21.449891,31.284111 18.659891,29.162111 17.319891,31.572111 C17.047891,32.059111 16.969891,32.628111 17.003891,33.217111 C15.887891,30.892111 15.123891,28.366111 15.209891,25.822111 C15.216891,25.526111 14.919891,25.368111 14.644891,25.471111 C12.321891,26.357111 9.942891,27.073111 7.572891,27.810111 C7.367891,26.469111 7.231891,25.115111 7.156891,23.749111 C8.731891,23.140111 10.274891,22.364111 11.789891,21.794111 C15.651891,20.346111 18.518891,17.218111 22.064891,15.248111 C22.245891,15.147111 22.080891,14.856111 21.887891,14.942111 C18.727891,16.347111 15.959891,18.381111 12.888891,19.942111 C10.186891,21.316111 6.298891,23.495111 2.904891,23.597111 C8.076891,21.425111 11.604891,16.762111 14.963891,12.570111 C19.711891,6.64811104 24.814891,1.90711104 32.994891,1.21211104 C37.581891,0.822111043 40.572891,4.07311104 38.346891,8.15811104 C36.656891,11.264111 31.367891,15.367111 27.693891,12.733111 C25.310891,11.025111 25.228891,8.57811104 27.812891,7.16811104 C28.597891,6.73911104 29.629891,6.46311104 30.531891,6.60511104 C31.162891,6.70611104 31.018891,7.23011104 30.650891,7.80311104 C30.499891,7.76311104 30.328891,7.75611104 30.199891,7.85511104 C29.586891,8.32311104 29.412891,8.94611104 29.138891,9.63811104 C28.929891,10.165111 29.738891,10.471111 30.094891,10.120111 C30.318891,9.89811104 30.652891,9.54811104 30.981891,9.13711104 C31.257891,9.07111104 31.484891,8.82411104 31.421891,8.53811104 C32.185891,7.39811104 32.625891,6.06611104 31.001891,5.62311104 C29.017891,5.08111104 26.304891,6.28111104 25.234891,7.89611104 C23.607891,10.347111 25.668891,12.967111 27.980891,14.210111 C29.627891,15.095111 31.463891,14.868111 33.185891,14.111111 C36.361891,16.776111 39.525891,18.917111 41.490891,22.634111 C43.154891,25.788111 43.413891,29.349111 42.746891,32.765111 Z M9.720891,36.127111 C8.770891,33.552111 8.065891,30.897111 7.627891,28.186111 C8.150891,28.061111 8.674891,27.935111 9.197891,27.808111 C9.530891,27.729111 14.377891,26.567111 14.381891,26.507111 C14.178891,29.366111 15.343891,32.393111 16.658891,34.980111 C14.417891,35.422111 12.027891,35.671111 9.720891,36.127111 Z M49.939891,19.038111 C49.714891,15.611111 46.672891,5.69411104 41.081891,8.00411104 C40.793891,8.12311104 40.793891,8.54711104 41.052891,8.68711104 C43.159891,9.83411104 44.574891,10.510111 45.784891,12.644111 C46.943891,14.689111 47.527891,17.344111 47.886891,19.623111 C48.652891,24.474111 47.212891,29.934111 44.172891,33.973111 C44.258891,33.615111 44.340891,33.256111 44.414891,32.902111 C44.781891,31.146111 44.822891,29.318111 44.576891,27.510111 C46.103891,25.055111 46.224891,22.154111 45.424891,19.367111 C44.621891,16.563111 42.346891,12.615111 38.931891,12.312111 C38.703891,12.291111 38.509891,12.558111 38.681891,12.739111 C40.716891,14.860111 42.653891,16.479111 43.802891,19.257111 C44.755891,21.561111 45.119891,24.211111 44.428891,26.598111 C43.375891,21.046111 39.617891,15.830111 34.123891,13.642111 C35.977891,12.609111 37.623891,11.059111 38.634891,9.78811104 C40.614891,7.30611104 41.395891,3.05911104 38.133891,1.10511104 C34.535891,-1.05188896 29.620891,0.401111043 25.945891,1.64511104 C14.566891,5.49611104 12.478891,20.385111 0.388891,23.320111 C-0.204109,23.465111 -0.0591089998,24.186111 0.422891,24.346111 C2.721891,25.117111 4.941891,24.604111 7.098891,23.772111 C7.190891,25.145111 7.294891,26.507111 7.439891,27.853111 C5.110891,28.578111 2.789891,29.325111 0.536891,30.275111 C0.502891,30.291111 0.533891,30.340111 0.567891,30.326111 C2.789891,29.393111 5.131891,28.790111 7.480891,28.222111 C7.787891,30.943111 8.265891,33.615111 9.112891,36.256111 C7.149891,36.681111 5.264891,37.293111 3.603891,38.340111 C3.633891,35.949111 3.570891,33.721111 1.628891,31.854111 C1.423891,31.658111 1.083891,31.884111 1.259891,32.122111 C2.899891,34.340111 2.356891,37.109111 2.273891,39.635111 C2.256891,40.109111 2.943891,40.373111 3.312891,40.094111 C5.096891,38.747111 7.259891,38.003111 9.528891,37.479111 C9.645891,37.795111 9.767891,38.111111 9.894891,38.426111 C11.605891,42.647111 14.066891,46.973111 16.962891,50.561111 C21.728891,56.461111 28.285891,57.089111 34.057891,52.208111 C39.157891,47.897111 42.433891,40.916111 44.029891,34.565111 C48.373891,30.544111 50.314891,24.811111 49.939891,19.038111 L49.939891,19.038111 Z" id="Fill-217"></path>
                <path d="M10.952891,30.508111 C10.489891,30.464111 10.029891,30.663111 9.761891,31.022111 C9.630891,31.200111 9.552891,31.398111 9.530891,31.611111 C9.507891,31.827111 9.542891,32.035111 9.633891,32.232111 C9.705891,32.306111 9.787891,32.470111 9.862891,32.581111 C10.093891,32.906111 10.535891,33.077111 10.938891,33.040111 C11.395891,33.000111 11.688891,32.735111 11.906891,32.377111 C11.788891,32.574111 11.854891,32.487111 11.887891,32.442111 C12.448891,31.684111 11.928891,30.597111 10.952891,30.508111" id="Fill-218"></path>
                <path d="M24.596891,26.803111 C23.862891,26.803111 23.209891,27.250111 23.154891,27.980111 C23.103891,28.636111 23.664891,29.346111 24.398891,29.346111 C25.130891,29.346111 25.785891,28.900111 25.839891,28.169111 C25.892891,27.514111 25.332891,26.803111 24.596891,26.803111" id="Fill-219"></path>
                <path d="M29.232891,44.247111 C28.597891,43.583111 27.584891,43.053111 26.615891,43.053111 C25.552891,43.053111 24.591891,43.299111 23.786891,43.988111 C23.044891,44.623111 22.588891,45.524111 22.524891,46.467111 C22.459891,47.442111 22.820891,48.419111 23.511891,49.143111 C24.146891,49.808111 25.161891,50.336111 26.130891,50.336111 C27.191891,50.336111 28.154891,50.092111 28.960891,49.401111 C29.701891,48.767111 30.158891,47.867111 30.220891,46.926111 C30.287891,45.949111 29.923891,44.971111 29.232891,44.247111" id="Fill-220"></path>
            </g>
        </g>
    </g>
</svg>