<?xml version="1.0" encoding="UTF-8"?>
<svg width="49px" height="47px" viewBox="0 0 49 47" version="1.1" xmlns="http://www.w3.org/2000/svg" xmlns:xlink="http://www.w3.org/1999/xlink">
    <title>Group 52</title>
    <g id="Page-1" stroke="none" stroke-width="1" fill="none" fill-rule="evenodd">
        <g id="vectorstock_1327683" transform="translate(-442.000000, -302.000000)" fill="#0A0B09">
            <g id="Group-52" transform="translate(442.351653, 302.134347)">
                <path d="M44.6143473,28.7916529 C41.7373473,41.9926529 26.3053473,47.2076529 14.9753473,41.7396529 C7.42134727,38.0916529 4.10134727,29.4156529 4.51434727,21.4846529 C4.66234727,18.6596529 5.42534727,16.0686529 6.65134727,13.7626529 C6.43834727,15.3896529 7.00034727,17.0026529 8.78034727,18.3286529 C10.2273473,19.4046529 11.8103473,19.5216529 13.2473473,19.0506529 C11.5003473,21.6086529 10.0123473,24.3576529 8.17034727,26.8626529 C7.87334727,27.2656529 8.28534727,27.7486529 8.69534727,27.7796529 C12.5633473,28.0626529 16.4293473,27.8936529 20.2013473,26.9516529 C21.1953473,26.7056529 20.7673473,25.1436529 19.7783473,25.4226529 C16.5203473,26.3456529 13.1763473,26.6306529 9.80634727,26.5706529 C11.4293473,24.0086529 12.6973473,21.2256529 14.2393473,18.6196529 C15.1273473,18.1336529 15.9213473,17.4366529 16.5343473,16.5976529 C18.1263473,20.4506529 24.9053473,18.8486529 27.8973473,17.3346529 C29.9533473,16.2946529 32.1983473,14.3356529 32.4333473,11.8896529 C32.7113473,9.03465289 30.8313473,6.96465289 28.6633473,5.39265289 C39.1743473,9.12765289 47.4853473,15.6146529 44.6143473,28.7916529 Z M24.9003473,2.56265289 C23.9843473,2.47265289 23.8523473,3.88265289 24.6893473,4.11965289 C25.1963473,4.26465289 25.6953473,4.42265289 26.1943473,4.57665289 C26.1903473,4.71865289 26.2443473,4.86665289 26.3923473,4.97265289 C28.5543473,6.48365289 31.2343473,8.57265289 31.2553473,11.4766529 C31.2723473,13.7066529 29.0263473,15.3536529 27.3043473,16.3206529 C24.9333473,17.6546529 17.2083473,19.7426529 17.4103473,14.8956529 C17.4363473,14.3046529 16.5343473,14.0306529 16.2683473,14.5856529 C15.0463473,17.1496529 13.0263473,18.3936529 10.2063473,17.7046529 C7.01934727,16.9276529 6.91134727,14.2236529 7.85034727,11.8166529 C10.8253473,7.56065289 15.4943473,4.52065289 20.7453473,3.17865289 C20.8333473,3.15665289 20.7943473,3.03165289 20.7083473,3.04565289 C-1.74865273,6.27965289 -2.12865273,38.0186529 18.3663473,44.7866529 C31.2953473,49.0606529 43.9793473,39.9736529 46.8113473,27.4106529 C50.1593473,12.5596529 38.2703473,3.88665289 24.9003473,2.56265289 L24.9003473,2.56265289 Z" id="Fill-319"></path>
                <path d="M13.6073473,8.09265289 C10.5363473,8.09265289 10.5363473,12.8576529 13.6073473,12.8576529 C16.6793473,12.8576529 16.6793473,8.09265289 13.6073473,8.09265289" id="Fill-320"></path>
                <path d="M21.7103473,7.63865289 C20.4273473,7.63865289 19.3613473,8.70565289 19.3613473,9.98565289 C19.3613473,11.2666529 20.4273473,12.3326529 21.7103473,12.3326529 C22.9873473,12.3326529 24.0563473,11.2666529 24.0563473,9.98565289 C24.0563473,8.70565289 22.9873473,7.63865289 21.7103473,7.63865289" id="Fill-321"></path>
                <path d="M31.6523473,35.6036529 C29.6863473,36.6766529 27.6833473,35.6886529 26.5423473,34.0156529 C27.7273473,33.6056529 28.8983473,33.1016529 30.0593473,32.5366529 C30.2343473,33.0866529 30.7083473,33.6596529 30.9743473,34.0786529 C31.0093473,34.1386529 31.1153473,34.1216529 31.1103473,34.0436529 C31.0663473,33.4926529 31.0753473,32.7226529 30.7843473,32.1986529 C30.7973473,32.1876529 30.8153473,32.1846529 30.8303473,32.1746529 C31.6073473,31.7746529 32.3233473,31.3286529 33.0033473,30.8566529 C34.0063473,32.6566529 33.5393473,34.5736529 31.6523473,35.6036529 Z M40.8293473,18.1206529 C37.9953473,30.5976529 24.3493473,35.0166529 13.1153473,35.5886529 C12.8943473,35.6016529 12.8923473,35.9296529 13.1153473,35.9356529 C17.7013473,36.0206529 22.0303473,35.5146529 26.2203473,34.1156529 C27.1123473,36.5416529 29.4163473,37.7106529 31.9593473,36.5936529 C34.5223473,35.4666529 35.1073473,32.5366529 33.7223473,30.3016529 C37.6033473,27.3196529 39.9503473,23.2066529 42.2803473,18.7326529 C42.8333473,17.6686529 41.0773473,17.0276529 40.8293473,18.1206529 L40.8293473,18.1206529 Z" id="Fill-322"></path>
                <path d="M20.4803473,2.02665289 C17.3873473,1.78465289 13.8713473,2.96965289 10.9193473,3.73665289 C7.80434727,4.54965289 2.92534727,6.52065289 1.07934727,2.97265289 C0.974347274,2.77065289 0.716347274,2.81665289 0.602347274,2.97265289 C-1.77065273,6.22265289 3.49834727,6.96165289 5.49534727,6.65565289 C10.6013473,5.86565289 15.3983473,2.57865289 20.4803473,2.23265289 C20.6163473,2.22365289 20.6143473,2.03465289 20.4803473,2.02665289" id="Fill-323"></path>
                <path d="M21.0803473,0.501652886 C17.9053473,-0.169347114 13.1093473,-0.367347114 10.1563473,1.19165289 C9.65934727,1.45165289 9.93934727,2.11465289 10.4153473,2.15665289 C12.1243473,2.31265289 13.8933473,1.94465289 15.6023473,1.78765289 C17.4323473,1.61465289 19.2783473,1.68265289 21.0803473,1.30365289 C21.4773473,1.21765289 21.4773473,0.586652886 21.0803473,0.501652886" id="Fill-324"></path>
            </g>
        </g>
    </g>
</svg>