<?xml version="1.0" encoding="UTF-8"?>
<svg width="48px" height="55px" viewBox="0 0 48 55" version="1.1" xmlns="http://www.w3.org/2000/svg" xmlns:xlink="http://www.w3.org/1999/xlink">
    <title>Group 10</title>
    <g id="Page-1" stroke="none" stroke-width="1" fill="none" fill-rule="evenodd">
        <g id="vectorstock_1327683" transform="translate(-133.000000, -75.000000)" fill="#1B1A19">
            <g id="Group-10" transform="translate(133.069408, 75.762006)">
                <path d="M10.0525915,32.3159943 C11.2545915,33.4559943 13.0465915,33.6839943 14.6395915,34.0549943 C19.9035915,35.2779943 25.3715915,35.7299943 30.6105915,37.0349943 C30.3685915,38.8029943 29.1775915,40.2729943 26.8505915,40.8319943 C24.1515915,41.4819943 21.1665915,41.3679943 18.4785915,40.7019943 C14.7185915,39.7639943 7.60759153,36.5639943 10.0525915,32.3159943 Z M30.6475915,36.7429943 C27.2005915,35.5419943 23.6255915,34.7759943 20.0265915,34.0269943 C17.8645915,33.5779943 15.7535915,32.9259943 13.6035915,32.4639943 C11.6015915,32.0369943 9.96559153,31.0189943 11.7445915,29.0269943 C13.8715915,26.6469943 19.1555915,27.6379943 21.9775915,28.3139943 C24.9875915,29.0359943 28.3845915,30.4309943 29.8365915,33.2259943 C30.4515915,34.4029943 30.7315915,35.6249943 30.6475915,36.7429943 Z M9.62659153,31.7829943 C9.18859153,32.2319943 8.80959153,32.7419943 8.63959153,33.3209943 C7.08159153,38.6139943 16.5885915,41.7359943 20.6755915,42.1719943 C23.7155915,42.4949943 27.8265915,42.5929943 30.2315915,40.4429943 C30.4895915,38.4339943 30.8035915,36.4359943 31.7005915,34.6229943 C31.4085915,33.4909943 30.8685915,32.4069943 30.1785915,31.5029943 C28.0555915,28.7139943 24.2015915,27.3049943 20.7405915,26.7759943 C17.5765915,26.2929943 12.7555915,25.3729943 10.5405915,28.2779943 C9.82959153,29.2119943 9.00659153,30.6449943 9.62659153,31.7829943 L9.62659153,31.7829943 Z" id="Fill-221"></path>
                <path d="M18.3615915,20.6859943 C18.5205915,20.5829943 18.8095915,20.5689943 18.9705915,20.6779943 C19.7165915,21.1799943 18.8485915,21.5739943 18.8155915,22.1459943 C18.7685915,22.9569943 20.0385915,23.8509943 20.6295915,24.2589943 C23.2045915,26.0359943 26.2835915,26.1779943 27.9225915,23.2669943 C27.9405915,23.2389943 27.9815915,23.2579943 27.9815915,23.2849943 C27.9465915,26.8259943 23.8995915,26.9219943 21.2235915,25.9109943 C19.5205915,25.2679943 15.6535915,22.4499943 18.3615915,20.6859943" id="Fill-222"></path>
                <path d="M29.0705915,17.7199943 C29.2785915,17.5259943 29.5225915,17.3919943 29.8015915,17.3169943 C30.0965915,17.2429943 30.3905915,17.2429943 30.6835915,17.3179943 C31.0895915,17.7689943 31.4945915,18.2209943 31.8995915,18.6699943 C32.0375915,19.2349943 31.7815915,19.7799943 31.2625915,20.0779943 C30.7845915,20.3549943 30.6385915,20.3749943 30.2365915,20.4009943 C29.3345915,20.4609943 28.5805915,19.6359943 28.5825876,18.8279943 C28.5835915,18.4129943 28.7615915,18.0109943 29.0705915,17.7199943" id="Fill-223"></path>
                <path d="M19.1815915,15.0689943 C21.2195915,15.6579943 20.3415915,18.6859943 18.2945915,18.0939943 C16.2545915,17.5039943 17.1305915,14.4749943 19.1815915,15.0689943" id="Fill-224"></path>
                <path d="M4.40559153,19.6709943 C4.78459153,19.5289943 5.12559153,19.6339943 5.34259153,19.9619943 C5.66259153,20.4459943 5.14859153,20.7989943 4.74259153,20.9479943 C4.47959153,21.0429943 4.30759153,21.2289943 4.11159153,21.3949943 C4.13159153,21.7199943 4.30559153,22.0169943 4.47959153,22.2939943 C4.56959153,22.4349943 4.39659153,22.6109943 4.24859153,22.4989943 C4.01459153,22.3169943 3.78359153,22.1319943 3.60559153,21.8989943 C3.45259153,21.6959943 3.18159153,21.3279943 3.18258877,21.0739943 C3.18559153,20.3099943 3.70359153,19.9339943 4.40559153,19.6709943" id="Fill-225"></path>
                <path d="M41.8285915,31.2209943 C42.2455915,31.1839943 42.7045915,31.1059943 42.9635915,30.7559943 C43.1665915,30.4789943 42.9965915,30.0319943 42.8835915,29.7589943 C42.6675915,29.2309943 43.4935915,28.9849943 43.6685915,29.5309943 C43.8405915,30.0679943 43.9225915,30.7159943 43.5185915,31.1839943 C43.1065915,31.6659943 42.4005915,31.6029943 41.8285915,31.4599943 C41.7005915,31.4279943 41.6705915,31.2349943 41.8285915,31.2209943" id="Fill-226"></path>
                <path d="M30.1435915,15.2649943 C31.1405915,15.4249943 32.0585915,16.0429943 32.8255915,16.6429943 C33.2215915,16.9539943 33.4515915,17.3419943 33.6905915,17.7649943 C33.8415915,18.0369943 33.7565915,18.1899943 33.8465915,18.4669943 C33.8745915,18.5529943 33.7865915,18.6289943 33.7025915,18.5769943 C33.5495915,18.4839943 33.3625915,18.5139943 33.2075915,18.4269943 C32.8035915,18.2009943 32.3685915,18.0509943 31.9725915,17.8109943 C31.2295915,17.3609943 30.4075915,17.1829943 29.6355915,16.8099943 C28.7725915,16.3909943 29.1575915,15.1099943 30.1435915,15.2649943" id="Fill-227"></path>
                <path d="M17.7185915,13.0109943 C18.4385915,12.8779943 19.2525915,13.1339943 19.9305915,13.3539943 C20.4915915,13.5359943 21.2685915,13.7879943 21.4905915,14.3739943 C21.4995915,14.3989943 21.4965915,14.4299943 21.4735915,14.4469943 C21.0145915,14.7639943 20.3635915,14.6639943 19.8375915,14.5849943 C19.1705915,14.4869943 18.5505915,14.5259943 17.8875915,14.5879943 C16.7945915,14.6889943 16.6755915,13.2049943 17.7185915,13.0109943" id="Fill-228"></path>
                <path d="M1.87659153,17.8419943 C3.72359153,16.7829943 5.77659153,18.3709943 6.99259153,19.5939943 C7.04359153,19.6429943 6.96559153,19.7219943 6.90759153,19.6809943 C5.74359153,18.8509943 3.91859153,17.7239943 2.45359153,18.5989943 C1.37759153,19.2419943 1.19359153,20.7159943 1.24959153,21.8049943 C1.31659153,23.0909943 1.88259153,24.4669943 3.04759153,25.2009943 C4.22759153,25.9409943 5.67859153,25.5749943 6.89159153,25.0229943 C6.89159153,24.5099943 7.50959153,24.0079943 8.09459153,24.3889943 C8.20359153,24.4629943 8.28459153,24.5309943 8.35859153,24.6109943 C8.56059153,24.5959943 8.76759153,24.7389943 8.68159153,24.9729943 C8.67359153,24.9979943 8.66559153,25.0219943 8.65659153,25.0449943 C8.78959153,25.3759943 8.66859153,25.6979943 8.35159153,25.9179943 C6.42359153,31.5809943 5.40859153,37.9719943 8.46859153,43.4149943 C11.0845915,48.0659943 16.3985915,50.8479943 21.6645915,51.9569943 C26.9855915,53.0759943 31.5255915,51.3379943 34.9975915,47.4339943 C37.8785915,44.1929943 39.7185915,39.6089943 39.6435915,35.3029943 C39.2395915,34.9179943 39.0025915,34.3799943 39.0325915,33.6719943 C39.0615915,33.0159943 40.1705915,32.8169943 40.2875915,33.5209943 C40.4545915,34.5239943 41.6315915,34.8259943 42.5535915,34.8849943 C43.7435915,34.9609943 44.8395915,34.4529943 45.4075915,33.4489943 C47.0385915,30.5629943 43.9225915,27.7679943 41.0525915,29.4819943 C41.0715915,19.6159943 40.8385915,8.48399433 28.8945915,4.70899433 C24.7995915,3.41499433 20.3625915,3.92699433 16.5505915,5.73099433 C12.6395915,7.58299433 10.5255915,11.4869943 9.19659153,15.2579943 C8.87159153,16.1779943 8.83359153,18.8949943 7.63159153,19.2539943 C6.44059153,19.6069943 5.53359153,17.7559943 5.83359153,16.8709943 C5.88659153,16.7119943 5.97259153,16.5709943 6.07959153,16.4509943 C5.96159153,16.3029943 5.86159153,16.1379943 5.77359153,15.9779943 C5.52659153,15.5469943 5.67859153,14.9299943 5.98259153,14.5619943 C6.14659153,14.3679943 6.35059153,14.2219943 6.59659153,14.1279943 C6.59859153,14.1259943 6.60459153,14.1259943 6.60959153,14.1229943 C6.63959153,14.0779943 6.66459153,14.0319943 6.70259153,13.9899943 C6.76759153,13.9159943 6.84959153,13.8479943 6.93759153,13.7889943 C6.14059153,13.1549943 6.47459153,11.7749943 7.45459153,11.6349943 C7.65859153,11.4149943 7.93659153,11.2629943 8.27959153,11.2429943 C7.06059153,10.5959943 7.67359153,8.93199433 9.04459153,9.08299433 C9.11659153,9.09099433 9.18859153,9.09899433 9.26159153,9.10799433 C9.08759153,8.85599433 9.00559153,8.54599433 9.08859153,8.21899433 C9.22059153,7.69199433 9.72259153,7.30699433 10.2915915,7.29399433 C10.3655915,7.29099433 10.4265915,7.29799433 10.4875915,7.30499433 C10.3025915,6.58399433 10.7725915,5.71999433 11.6435915,5.77099433 C11.6365915,5.75499433 11.6255915,5.73899433 11.6185915,5.72099433 C11.4855915,5.38399433 11.4965915,5.04799433 11.5605915,4.69899433 C11.7005915,3.92999433 12.5275915,3.42299433 13.3245915,3.53199433 C13.5075915,2.73599433 14.2495915,2.06699433 15.3135915,2.37599433 C15.3445915,2.38299433 15.3685915,2.39799433 15.3975915,2.40699433 C15.6375915,1.70899433 16.4735915,1.16199433 17.2605915,1.38999433 C17.4795915,1.45399433 17.6765915,1.53799433 17.8515915,1.65599433 C18.2135915,1.13599433 18.9055915,0.944994331 19.5495915,1.13199433 C19.8255915,1.21199433 20.0455915,1.37999433 20.2015915,1.59499433 C20.3155915,1.29999433 20.5245915,1.07699433 20.7825915,0.927994331 C20.8015915,0.916994331 20.8195915,0.898994331 20.8385915,0.885994331 C20.8565915,0.876994331 20.8715915,0.867994331 20.8855915,0.857994331 C21.1885915,0.679994331 21.5695915,0.673994331 21.9105915,0.777994331 C21.9325915,0.781994331 21.9515915,0.783994331 21.9715915,0.788994331 C22.0325915,0.806994331 22.0775915,0.824994331 22.1315915,0.841994331 C22.5905915,0.213994331 23.4465915,-0.163005669 24.2485915,0.0689943311 C24.6355915,0.179994331 24.9715915,0.385994331 25.2275915,0.647994331 C25.5265915,0.392994331 25.9125915,0.228994331 26.3245915,0.228994331 C26.6395915,0.183994331 26.9495915,0.212994331 27.2485915,0.320994331 C27.2925915,0.343994331 27.3375915,0.365994331 27.3815915,0.388994331 C27.4675915,0.426994331 27.5495915,0.467994331 27.6275915,0.517994331 C27.6495915,0.527994331 27.6715915,0.538994331 27.6945915,0.551994331 C27.7875915,0.600994331 27.8755915,0.668994331 27.9545915,0.746994331 C28.3025915,0.502994331 28.7725915,0.407994331 29.3505915,0.573994331 C29.8955915,0.731994331 30.2685915,1.05099433 30.5005915,1.43699433 C30.5395915,1.44499433 30.5765915,1.45099433 30.6165915,1.46499433 C30.6495915,1.47199433 30.6765915,1.49199433 30.7075915,1.50399433 C30.7785915,1.43399433 30.8485915,1.36599433 30.9305915,1.30599433 C31.0645915,1.22999433 31.1985915,1.15499433 31.3315915,1.08199433 C31.6335915,0.959994331 31.9485915,0.919994331 32.2715915,0.954994331 L32.4065915,1.25299433 C32.4555915,1.25899433 32.5045915,1.26599433 32.5535915,1.27999433 C32.8645915,1.36899433 33.0905915,1.59499433 33.2015915,1.86499433 C33.5755915,1.56199433 34.0745915,1.40699433 34.5575915,1.54799433 C34.9655915,1.66499433 35.3035915,1.84899433 35.5435915,2.19699433 C35.7765915,2.53499433 35.8545915,2.95699433 35.7625915,3.35099433 C35.6945915,3.63199433 35.5295915,3.89299433 35.3055915,4.09999433 C35.7745915,3.74899433 36.3995915,3.58399433 36.9945915,3.75699433 C38.0245915,4.05299433 38.7005915,5.00299433 38.4285915,6.02799433 C38.4245915,6.03799433 38.4205915,6.04899433 38.4175915,6.05999433 C38.5525915,6.07199433 38.6925915,6.09799433 38.8365915,6.13899433 C39.5555915,6.34699433 39.9675915,6.80499433 40.1395915,7.33299433 C40.2055915,7.34099433 40.2705915,7.34999433 40.3425915,7.37199433 C40.7935915,7.50099433 41.0635915,7.80299433 41.1825915,8.14299433 C41.2415915,8.15599433 41.2975915,8.16599433 41.3585915,8.18399433 C42.3715915,8.47599433 42.7825915,9.25399433 42.7445915,10.0289943 C43.7585915,10.5029943 43.9985915,11.5759943 43.6815915,12.4279943 C43.9855915,12.6119943 44.2195915,12.8519943 44.3895915,13.1509943 C44.5385915,13.4209943 44.6125915,13.7199943 44.6175915,14.0209943 C44.6195915,14.0519943 44.6245915,14.0819943 44.6275915,14.1109943 C44.6255915,14.1439943 44.6195915,14.1759943 44.6175915,14.2099943 C44.6175915,14.2349943 44.6125915,14.2629943 44.6105915,14.2889943 C44.5785915,14.5199943 44.5065915,14.7379943 44.3945915,14.9469943 C44.3835915,14.9669943 44.3715915,14.9859943 44.3605915,15.0039943 C44.3585915,15.0089943 44.3545915,15.0149943 44.3525915,15.0219943 C44.4555915,15.1159943 44.5515915,15.2209943 44.6355915,15.3469943 C44.9105915,15.7579943 45.0025915,16.2609943 44.8895915,16.7349943 C44.8485915,16.9039943 44.7725915,17.0629943 44.6865915,17.2149943 C45.8815915,18.0739943 45.6105915,19.9839943 44.3945915,20.4289943 C44.4015915,20.4709943 44.4105915,20.5109943 44.4145915,20.5529943 C45.0985915,20.8729943 45.5205915,21.5579943 45.3215915,22.3049943 C45.2605915,22.5379943 45.1305915,22.7469943 44.9655915,22.9269943 C45.2315915,23.3269943 45.3265915,23.8279943 45.1675915,24.2979943 C45.1125915,24.4629943 45.0245915,24.6069943 44.9245915,24.7399943 C45.1255915,25.0949943 45.1985915,25.4739943 45.1365915,25.8799943 C45.1595915,25.7109943 45.1825915,25.5449943 45.2055915,25.3759943 C45.2085915,25.4619943 45.2155915,25.5449943 45.2215915,25.6309943 C45.1995915,25.9889943 45.0825915,26.3199943 44.8735915,26.6199943 C44.8365915,26.6699943 44.7915915,26.7139943 44.7515915,26.7599943 C44.8195915,27.1059943 44.7755915,27.4679943 44.6245915,27.7919943 C44.5165915,28.0209943 44.3535915,28.2219943 44.1565915,28.3869943 C46.0045915,29.4229943 47.0485915,31.8029943 46.3085915,33.8139943 C45.5535915,35.8699943 41.6535915,36.7559943 39.8915915,35.5099943 C40.9805915,44.8539943 32.9515915,54.8519943 22.4655915,53.4309943 C16.8645915,52.6759943 11.1705915,49.7549943 8.00959153,45.2289943 C4.00259153,39.4909943 5.08759153,32.5609943 7.43359153,26.3919943 C5.70759153,27.1689943 3.67759153,27.4869943 2.04859153,26.3209943 C0.568591533,25.2629943 -0.0214084672,23.3819943 0.000591532818,21.6929943 C0.0185915328,20.2819943 0.525591533,18.6149943 1.87659153,17.8419943" id="Fill-229"></path>
            </g>
        </g>
    </g>
</svg>