<?xml version="1.0" encoding="UTF-8"?>
<svg width="51px" height="56px" viewBox="0 0 51 56" version="1.1" xmlns="http://www.w3.org/2000/svg" xmlns:xlink="http://www.w3.org/1999/xlink">
    <title>Group 20</title>
    <g id="Page-1" stroke="none" stroke-width="1" fill="none" fill-rule="evenodd">
        <g id="vectorstock_1327683" transform="translate(-10.000000, -356.000000)" fill="#0A0B09">
            <g id="Group-20" transform="translate(10.546673, 356.498314)">
                <path d="M46.5373266,27.8186858 C46.0133266,28.0196858 45.4253266,27.9906858 44.9703266,27.6386858 C44.6593266,27.3976858 44.4133266,27.1026858 44.0123266,27.0626858 C43.8233266,26.4846858 43.6093266,25.9156858 43.3753266,25.3556858 C44.0333266,24.4676858 44.3063266,23.7126858 45.5723266,23.5606858 C46.6513266,23.4306858 47.6913266,23.9816858 48.0373266,25.0296858 C48.4263266,26.2056858 47.6263266,27.4026858 46.5373266,27.8186858 Z M4.58132662,26.6766858 C3.88832662,27.3816858 3.43532662,27.8606858 2.44732662,27.2776858 C1.70332662,26.8376858 1.17132662,25.9356858 1.12832662,25.0776858 C1.07732662,24.0216858 2.10332662,23.2026858 3.11132662,23.3586858 C4.31732662,23.5436858 4.71132662,24.4546858 5.14532662,25.4306858 C5.18332662,25.5136858 5.24832662,25.5526858 5.31832662,25.5646858 C5.18632662,25.8836858 5.06332662,26.2076858 4.94632662,26.5336858 C4.81632662,26.5316858 4.68432662,26.5726858 4.58132662,26.6766858 Z M49.4303266,24.6436858 C48.9603266,22.9196858 47.0783266,22.0026858 45.3953266,22.2536858 C44.4283266,22.3966858 43.1973266,23.1556858 42.8253266,24.1466858 C39.6433266,17.6476858 33.4043266,12.8156858 25.6653266,13.5386858 C25.4973266,13.5546858 25.4083266,13.7076858 25.4303266,13.8376858 C22.9113266,14.0126858 21.5343266,16.7166858 21.7243266,19.4016858 C21.9673266,22.8586858 24.6933266,25.4136858 27.9973266,25.1516858 C27.8013266,25.4836858 27.6853266,25.8696858 27.6853266,26.2796858 C27.6853266,27.5056858 28.7103266,28.5336858 29.9403266,28.5336858 C31.1683266,28.5336858 32.1953266,27.5056858 32.1953266,26.2796858 C32.1953266,25.3526858 31.6123266,24.5446858 30.8013266,24.2006858 C31.7823266,23.5506858 32.5623266,22.6016858 32.8833266,21.4666858 C33.4113266,19.6016858 31.7793266,17.9166858 30.1213266,17.3926858 C28.5453266,16.8956858 26.4143266,17.2296858 25.4783266,18.7596858 C24.4993266,20.3646858 25.4753266,21.8136858 27.1623266,22.2096858 C27.7813266,22.3536858 28.1223266,21.5376858 27.5893266,21.1956858 C27.1183266,20.8916858 26.3213266,20.4286858 26.6363266,19.7576858 C26.8633266,19.2766858 27.4503266,19.0246858 27.9193266,18.8736858 C29.0763266,18.4966858 31.0603266,19.3316858 31.1523266,20.6696858 C31.2243266,21.7156858 29.9423266,22.5516858 29.1653266,22.9626858 C28.0383266,23.5606858 26.6583266,23.5166858 25.5553266,22.9156858 C23.9113266,22.0226858 23.2273266,19.9626858 23.2553266,18.2046858 C23.2863266,16.2046858 24.6173266,14.7126858 26.4863266,14.2816858 C29.8233266,15.2686858 33.1983266,16.1316858 36.0143266,18.3266858 C39.0973266,20.7316858 40.9723266,24.3976858 42.1043266,28.0676858 C44.0853266,34.4806858 42.7633266,42.0206858 38.2063266,47.0486858 C28.6853266,57.5546858 10.3393266,51.6636858 6.26132662,38.8186858 C2.98832662,28.5166858 9.51932662,17.4746858 19.0083266,13.3506858 C20.9283266,13.3056858 22.8473266,12.9096858 24.3983266,12.3166858 C24.5963266,12.2416858 24.5623266,11.9706858 24.3483266,11.9526858 C24.1843266,11.9396858 24.0163266,11.9266858 23.8523266,11.9186858 C23.9153266,11.9086858 23.9783266,11.8976858 24.0413266,11.8876858 C24.1323266,11.8736858 24.1113266,11.7166858 24.0213266,11.7266858 C23.6513266,11.7736858 23.2853266,11.8296858 22.9203266,11.8896858 C20.8753266,11.8696858 18.8353266,12.0686858 16.8103266,11.5796858 C14.0213266,10.9086858 11.7413266,8.9956858 11.7133266,5.9286858 C11.6893266,3.3626858 14.4333266,1.3166858 16.8483266,1.9396858 C18.5203266,2.3716858 19.6343266,4.1546858 19.2043266,5.8076858 C18.7373266,7.6196858 17.0593266,7.3786858 16.0273266,6.3206858 C15.4063266,5.6846858 14.3163266,6.5096858 14.7923266,7.2726858 C17.0003266,10.8236858 21.6643266,8.0046858 21.1123266,4.3516858 C20.4143266,-0.257314198 15.0483266,-1.1793142 11.8603266,1.4626858 C8.58732662,4.1786858 9.46332662,9.1776858 12.5743266,11.6016858 C13.9633266,12.6836858 15.8023266,13.2006858 17.7163266,13.3256858 C14.4853266,14.6056858 11.5833266,16.5726858 9.19032662,19.2956858 C7.78432662,20.8956858 6.62532662,22.6936858 5.73432662,24.6126858 C5.59632662,23.4496858 4.28032662,22.4666858 3.22232662,22.2876858 C1.69032662,22.0296858 0.15332662,23.2146858 0.0123266203,24.7686858 C-0.11767338,26.2126858 0.79632662,27.6166858 2.01032662,28.3346858 C2.74132662,28.7676858 3.64332662,28.7816858 4.35832662,28.4266858 C3.86332662,30.3126858 3.60432662,32.2606858 3.60932662,34.2196858 C3.64332662,47.2816858 17.2033266,57.2266858 29.7403266,54.5446858 C39.1043266,52.5396858 45.0873266,43.1646858 45.1233266,33.9726858 C45.1293266,32.2426858 44.9133266,30.5036858 44.5063266,28.8086858 C44.5303266,28.8276858 44.5553266,28.8446858 44.5773266,28.8616858 C45.2983266,29.3646858 46.3113266,29.3166858 47.1013266,29.0486858 C48.9493266,28.4236858 49.9303266,26.4906858 49.4303266,24.6436858 L49.4303266,24.6436858 Z" id="Fill-294"></path>
                <path d="M18.1043266,21.0456858 C16.6833266,21.0456858 15.4993266,22.2296858 15.4993266,23.6476858 C15.4993266,25.0656858 16.6833266,26.2476858 18.1043266,26.2476858 C19.5213266,26.2476858 20.7023266,25.0656858 20.7023266,23.6476858 C20.7023266,22.2296858 19.5213266,21.0456858 18.1043266,21.0456858" id="Fill-295"></path>
                <path d="M27.1333266,31.9716858 C24.5933266,31.3496858 23.8143266,29.0106858 24.4513266,26.6336858 C24.4873266,26.5016858 24.2993266,26.4606858 24.2493266,26.5796858 C23.1603266,29.1766858 23.5283266,31.6586858 26.0453266,32.7886858 C25.3113266,33.5926858 24.3773266,34.0136858 23.2213266,34.1086858 C22.3233266,34.1786858 21.4763266,33.7826858 20.6073266,34.0416858 C20.2643266,34.1436858 20.1433266,34.5776858 20.3983266,34.8346858 C21.3273266,35.7806858 23.0103266,35.5456858 24.2063266,35.3036858 C25.6343266,35.0166858 26.7443266,34.0266858 27.4783266,32.8166858 C27.6663266,32.5036858 27.4923266,32.0586858 27.1333266,31.9716858" id="Fill-296"></path>
                <path d="M35.5793266,39.8376858 C35.1313266,40.8736858 34.1563266,41.6006858 33.1953266,42.1226858 C31.5953266,42.9896858 29.4473266,43.2866858 28.2133266,42.0126858 C30.0923266,41.7986858 31.9113266,40.9186858 33.3883266,39.7776858 C34.1053266,39.2226858 34.9223266,38.2826858 35.4753266,37.2376858 C35.7133266,38.1276858 36.0273266,38.8136858 35.5793266,39.8376858 Z M29.9113266,37.9616858 C30.9113266,38.5696858 31.9333266,37.7526858 32.0993266,36.5056858 C32.5373266,36.6326858 33.0573266,36.6946858 33.5523266,36.6606858 C33.1923266,37.3576858 32.7043266,37.9806858 32.1563266,38.5466858 C31.4023266,39.3256858 30.4913266,39.8276858 29.5123266,40.1666858 C29.9803266,39.5826858 30.1323266,38.7816858 29.9113266,37.9616858 Z M35.9403266,36.3916858 C35.9173266,36.3736858 35.8923266,36.3616858 35.8683266,36.3476858 C36.2593266,35.2376858 36.2713266,34.0896858 35.5133266,33.2026858 C35.3113266,32.9666858 34.9763266,33.0816858 34.8223266,33.2906858 C34.3763266,33.8956858 34.2173266,34.7536858 34.0043266,35.5056858 C33.4273266,35.8936858 32.8593266,36.0826858 31.9353266,35.6586858 C31.7153266,35.5576858 31.3373266,35.6706858 31.3763266,35.9796858 C31.3953266,36.1126858 31.4143266,36.2476858 31.4313266,36.3816858 C31.5093266,37.3466858 30.8993266,37.6216858 29.6013266,37.2046858 C29.4973266,37.0326858 29.2153266,37.1436858 29.2733266,37.3416858 C29.7563266,38.9656858 28.9933266,39.9436858 27.6903266,40.6346858 C27.1233266,40.7396858 26.5553266,40.8156858 25.9953266,40.8836858 C25.4563266,40.9506858 25.2333266,41.7686858 25.8533266,41.9066858 C26.4273266,42.0326858 27.0053266,42.0766858 27.5793266,42.0586858 C28.4103266,44.0666858 31.2983266,44.0216858 33.1713266,43.2196858 C34.5333266,42.6356858 35.7323266,41.6556858 36.4093266,40.3206858 C36.9863266,39.1786858 37.0173266,37.2536858 35.9403266,36.3916858 L35.9403266,36.3916858 Z" id="Fill-297"></path>
                <path d="M46.4423266,24.7336858 C45.7583266,24.4856858 45.0883266,24.6876858 44.5063266,25.0816858 C44.2443266,25.2586858 44.4683266,25.6336858 44.7503266,25.5006858 C45.1943266,25.2946858 45.6803266,25.1676858 46.1593266,25.3206858 C46.6893266,25.4926858 46.7013266,26.1286858 47.1423266,26.3686858 C47.2833266,26.4456858 47.4283266,26.3726858 47.4813266,26.2296858 C47.7153266,25.6286858 46.9613266,24.9206858 46.4423266,24.7336858" id="Fill-298"></path>
                <path d="M3.83232662,24.5566858 C3.17532662,24.4546858 2.57532662,24.5756858 2.02232662,24.9436858 C1.88332662,25.0346858 1.96832662,25.2606858 2.13832662,25.2166858 C2.63232662,25.0866858 3.15232662,25.1046858 3.64632662,25.2276858 C4.01132662,25.3196858 4.41032662,25.6976858 4.79632662,25.5366858 C4.89932662,25.4946858 4.99032662,25.4136858 4.98232662,25.2916858 C4.95432662,24.7356858 4.27832662,24.6256858 3.83232662,24.5566858" id="Fill-299"></path>
            </g>
        </g>
    </g>
</svg>