<?xml version="1.0" encoding="UTF-8"?>
<svg width="70px" height="52px" viewBox="0 0 70 52" version="1.1" xmlns="http://www.w3.org/2000/svg" xmlns:xlink="http://www.w3.org/1999/xlink">
    <title>Group</title>
    <g id="Page-1" stroke="none" stroke-width="1" fill="none" fill-rule="evenodd">
        <g id="vectorstock_1327683" transform="translate(0.000000, -12.000000)" fill="#1B1A19">
            <g id="Group" transform="translate(0.000000, 12.000000)">
                <path d="M64.3140784,16.4897596 C64.2670784,16.5987596 64.2240784,16.7077596 64.1770784,16.8167596 C64.1540784,15.5127596 63.9380784,14.2297596 63.3620784,13.1977596 C63.1570784,12.8347596 62.6520784,12.7207596 62.3130784,12.9947596 C61.7260784,13.4737596 61.2510784,14.0097596 60.8650784,14.5827596 C60.8650784,14.5737596 60.8650784,14.5657596 60.8660784,14.5557596 C60.8990784,11.7317596 60.4960784,8.98575957 59.2660784,6.66875957 C61.3800784,5.00975957 64.4030784,3.81275957 67.2120784,3.51275957 C65.2480784,4.90975957 63.7040784,6.72275957 62.5680784,8.82275957 C62.3720784,9.18775957 62.8280784,9.66675957 63.2270784,9.55475957 C64.0630784,9.32475957 64.8530784,9.09375957 65.6720784,9.05475957 C65.1070784,9.40375957 64.6300784,9.84375957 64.2640784,10.4997596 C64.0830784,10.8247596 64.1670784,11.1977596 64.5530784,11.3437596 C65.5340784,11.7167596 66.5550784,11.7347596 67.5550784,11.9597596 C66.3230784,13.4657596 65.1590784,14.6087596 64.3140784,16.4897596 Z M62.1840784,21.7927596 C61.8090784,22.5707596 61.3770784,23.3227596 60.8150784,24.0307596 C60.7830784,24.0697596 60.7730784,24.1097596 60.7540784,24.1497596 C60.5670784,22.1377596 60.6400784,20.1197596 60.7350784,18.1047596 C61.1000784,16.8347596 61.5920784,15.6137596 62.4830784,14.6297596 C63.0060784,16.4747596 62.9490784,19.4967596 62.1840784,21.7927596 Z M58.8860784,19.5597596 C58.7350784,19.6957596 53.6470784,22.2147596 53.6350784,20.7207596 C53.6250784,19.6787596 53.3950784,18.6497596 53.1150784,17.6477596 C52.6390784,15.9327596 51.4580784,13.5887596 49.5170784,12.9887596 C44.2140784,11.3427596 42.2460784,16.7937596 42.5100784,20.7397596 C42.5490784,21.3137596 42.6090784,21.9627596 42.6980784,22.6557596 C42.2650784,22.6847596 41.8730784,22.8067596 41.4800784,22.9637596 C40.2130784,18.9417596 34.7040784,13.8427596 30.4080784,17.9337596 C28.4210784,19.8257596 28.1180784,21.9167596 28.3200784,24.5087596 C28.4020784,25.5477596 28.5540784,26.5727596 28.6090784,27.6137596 C28.6700784,28.7547596 26.9470784,30.1957596 26.2800784,30.8727596 C24.9160784,32.2697596 23.3710784,33.5157596 21.8340784,34.7387596 C18.6760784,29.1457596 18.3360784,23.5687596 20.6890784,17.4947596 C22.9840784,11.5827596 27.5530784,6.48775957 33.5370784,3.72275957 C39.1690784,1.11375957 46.2460784,1.29575957 52.0300784,3.26475957 C58.2650784,5.38775957 59.0140784,10.9717596 58.9340784,16.4647596 C58.9190784,17.4987596 58.9360784,18.5177596 58.9680784,19.5317596 C58.9390784,19.5327596 58.9100784,19.5377596 58.8860784,19.5597596 Z M48.5490784,30.6867596 C45.7750784,30.7997596 44.4070784,24.8397596 44.1020784,23.0197596 C43.6160784,20.1397596 43.2130784,15.8527596 46.4080784,14.2347596 C50.1090784,12.3587596 52.0940784,17.1097596 52.6540784,20.1187596 C52.3900784,20.1347596 52.1300784,20.2977596 52.1430784,20.5677596 C52.2890784,23.2927596 53.2340784,30.4967596 48.5490784,30.6867596 Z M40.8670784,30.6297596 C40.0960784,33.1087596 36.1800784,33.7727596 33.9330784,33.1307596 C31.8520784,32.5357596 31.1600784,29.8277596 30.7140784,28.1207596 C30.6010784,27.6837596 30.1290784,27.5757596 29.7950784,27.7147596 C29.8200784,26.0787596 29.6370784,24.4527596 29.6750784,22.8157596 C29.7780784,18.2847596 34.6600784,16.6707596 37.9060784,19.6457596 C38.9790784,20.6267596 39.8570784,22.2127596 40.4370784,23.9517596 C40.4270784,24.1137596 40.4530784,24.2747596 40.5240784,24.4137596 C40.5520784,24.4677596 40.5860784,24.5167596 40.6230784,24.5617596 C41.2300784,26.6937596 41.3810784,28.9747596 40.8670784,30.6297596 Z M18.2050784,33.1867596 C17.4600784,33.1017596 16.5020784,33.1637596 15.8100784,33.5487596 C16.6480784,29.8667596 13.9080784,28.2667596 10.7120784,26.5737596 C12.1940784,26.2777596 13.6070784,26.5097596 15.1600784,26.9617596 C16.0510784,27.2217596 16.5200784,25.9957596 15.6490784,25.6727596 C13.1080784,24.7297596 10.1570784,24.0367596 8.14907841,22.2187596 C9.37907841,22.0687596 10.5920784,21.8847596 11.8000784,21.5797596 C12.4370784,21.4187596 12.4710784,20.6837596 11.8990784,20.4217596 C9.93007841,19.5247596 6.07207841,19.2877596 3.13007841,19.9167596 C7.18907841,17.1287596 14.4350784,18.3207596 18.7360784,19.3927596 C18.7630784,19.3987596 18.7900784,19.4007596 18.8180784,19.4037596 C17.7320784,23.3067596 17.7390784,27.3807596 19.2740784,31.1677596 C19.6920784,32.1937596 20.1590784,33.1407596 20.7410784,34.0387596 C20.0110784,33.5467596 19.1040784,33.2887596 18.2050784,33.1867596 Z M19.4780784,36.0737596 C19.0280784,36.4287596 18.3770784,36.4837596 17.8340784,36.3407596 C17.4230784,36.2317596 15.8780784,35.1557596 16.4840784,34.6477596 C17.3640784,33.9077596 19.2350784,34.2927596 20.2790784,34.9907596 C20.0110784,35.3577596 19.8760784,35.7587596 19.4780784,36.0737596 Z M68.7470784,11.1207596 C67.7480784,10.7467596 66.7110784,10.7347596 65.6950784,10.5037596 C66.2700784,9.87175957 66.9900784,9.61875957 67.8500784,9.27775957 C68.3360784,9.08575957 68.2460784,8.40975957 67.7910784,8.25075957 C66.5700784,7.81975957 65.4590784,7.89175957 64.2890784,8.14475957 C65.5040784,6.21775957 67.1110784,4.56775957 69.1720784,3.39775957 C69.5540784,3.17875957 69.5290784,2.51475957 68.9960784,2.50675957 C65.5210784,2.46175957 61.5970784,3.92575957 59.0110784,6.22675957 C58.0320784,4.57175957 56.6020784,3.15475957 54.5520784,2.12675957 C48.9860784,-0.666240432 41.9050784,-0.476240432 36.0850784,1.35575957 C28.5630784,3.71975957 21.8780784,10.4437596 19.2470784,18.0317596 C13.5400784,16.6587596 3.54907841,15.2967596 0.0940784146,21.2257596 C-0.264921585,21.8427596 0.476078415,22.5637596 1.09407841,22.0727596 C2.58607841,20.8887596 6.08907841,20.5967596 8.80607841,20.9147596 C8.12607841,21.0117596 7.44507841,21.0917596 6.75407841,21.1707596 C6.24007841,21.2267596 6.12507841,21.8177596 6.39107841,22.1557596 C7.52707841,23.5957596 9.12207841,24.5287596 10.8360784,25.2807596 C10.1880784,25.4057596 9.54007841,25.5997596 8.89007841,25.8947596 C8.50807841,26.0697596 8.38207841,26.6997596 8.81107841,26.9097596 C12.3330784,28.6147596 16.2400784,29.5957596 15.2180784,34.0537596 C15.1270784,34.1807596 15.0530784,34.3177596 15.0010784,34.4727596 C14.5120784,35.9537596 16.3840784,37.5137596 17.7550784,37.7347596 C19.1620784,37.9657596 21.3860784,37.0407596 21.5350784,35.5247596 C21.6040784,35.4687596 21.6590784,35.4047596 21.6940784,35.3287596 C21.7770784,35.4277596 21.8540784,35.5277596 21.9410784,35.6247596 C22.0680784,35.7687596 22.3370784,35.6077596 22.2350784,35.4417596 C22.1460784,35.2947596 22.0680784,35.1487596 21.9850784,35.0017596 C23.6570784,33.8897596 25.2790784,32.7337596 26.8310784,31.4727596 C27.3700784,31.0347596 29.1090784,29.8207596 29.6210784,28.9097596 C30.7920784,32.9807596 33.5530784,35.9467596 38.5070784,34.1977596 C43.1110784,32.5697596 42.8310784,28.5827596 41.9520784,24.8007596 C42.1350784,24.7227596 42.3140784,24.6397596 42.4930784,24.5567596 C42.5220784,24.5437596 42.6700784,24.4957596 42.7130784,24.4787596 C42.7440784,24.4737596 42.7760784,24.4667596 42.8060784,24.4617596 C42.8200784,24.4617596 42.8350784,24.4617596 42.8570784,24.4647596 C42.9040784,24.4647596 42.9510784,24.4607596 42.9980784,24.4567596 C43.6740784,27.7667596 45.1650784,31.3287596 48.4350784,31.9667596 C50.5880784,32.3867596 52.3500784,29.7637596 53.0380784,28.2507596 C53.9160784,26.3207596 53.9940784,23.7897596 53.5090784,21.6407596 C55.5770784,21.8677596 57.5500784,21.3417596 58.9750784,19.8767596 C59.1150784,23.8087596 59.5610784,27.6207596 60.1010784,31.6147596 C60.5320784,34.8417596 60.8080784,38.0257596 59.5900784,41.1287596 C58.8730784,42.9527596 57.4750784,44.5317596 55.8270784,45.7827596 C55.8040784,45.1827596 55.7150784,44.5547596 55.5660784,43.9087596 C55.5180784,43.7057596 55.1980784,43.7647596 55.2320784,43.9687596 C55.7340784,47.1987596 54.9760784,49.5437596 51.2550784,50.2747596 C48.2780784,50.8627596 45.3150784,48.7897596 44.5620784,46.1797596 C44.4820784,45.9057596 43.9880784,45.8887596 44.0000784,46.2107596 C44.0460784,47.4377596 44.7250784,48.5047596 45.7020784,49.3277596 C36.1660784,48.6257596 27.2680784,43.9447596 22.3750784,35.9977596 C22.3550784,35.9657596 22.3080784,35.9887596 22.3240784,36.0207596 C25.8130784,44.4777596 37.2990784,51.0067596 46.8130784,50.3067596 C46.9080784,50.2997596 46.9790784,50.2617596 47.0380784,50.2137596 C48.2780784,50.8497596 49.7070784,51.1707596 50.9600784,51.0647596 C54.5560784,50.7547596 55.9050784,48.6407596 55.8340784,45.9037596 C55.9280784,46.1247596 56.0060784,46.3397596 56.0700784,46.5707596 C60.1010784,43.6727596 61.7380784,38.9607596 61.8120784,34.1087596 C61.8540784,31.3787596 61.3280784,28.6327596 60.9580784,25.9127596 C62.5560784,25.2887596 63.2060784,23.3597596 63.5760784,21.7387596 C63.9350784,20.9007596 64.2140784,20.0197596 64.4870784,19.0667596 C65.3070784,16.2167596 67.2780784,14.2727596 69.0380784,11.9757596 C69.2680784,11.6697596 69.0940784,11.2547596 68.7470784,11.1207596 L68.7470784,11.1207596 Z" id="Fill-250"></path>
                <path d="M48.3180784,19.7547596 C44.1570784,19.4507596 43.6230784,25.5447596 47.7730784,25.8487596 C51.9320784,26.1537596 52.4680784,20.0567596 48.3180784,19.7547596" id="Fill-251"></path>
                <path d="M35.6050784,22.7587596 C31.4470784,22.4557596 30.9130784,28.5487596 35.0610784,28.8527596 C39.2190784,29.1557596 39.7550784,23.0617596 35.6050784,22.7587596" id="Fill-252"></path>
                <path d="M54.5530784,34.4937596 C53.5840784,36.1517596 52.6050784,36.3867596 50.7850784,36.0727596 C49.9300784,35.9227596 49.1530784,35.9567596 48.3850784,36.3547596 C47.6480784,36.7367596 47.3400784,37.4057596 47.2240784,38.1497596 C47.0010784,39.6157596 44.3500784,39.2127596 43.3940784,39.8887596 C43.1540784,40.0587596 43.2390784,40.4647596 43.5220784,40.5427596 C44.6240784,40.8467596 45.9790784,40.6647596 46.9660784,40.1167596 C47.4500784,39.8477596 47.8630784,39.7087596 48.1890784,39.2567596 C48.6800784,38.5787596 48.2930784,37.5937596 49.4440784,37.2447596 C50.4620784,36.9347596 51.6400784,37.6347596 52.6980784,37.4637596 C54.1330784,37.2357596 54.9250784,36.3387596 55.6030784,35.1737596 C55.9940784,34.5007596 54.9520784,33.8137596 54.5530784,34.4937596" id="Fill-253"></path>
                <path d="M46.5840784,33.1307596 C45.3390784,33.6197596 44.3990784,34.4747596 43.1480784,34.9017596 C43.2510784,33.1947596 43.3550784,31.4847596 43.4590784,29.7737596 C43.4900784,29.2447596 42.6510784,29.1797596 42.5960784,29.7057596 C42.3950784,31.6587596 42.1950784,33.6067596 41.9950784,35.5597596 C41.9600784,35.9117596 42.2990784,36.1687596 42.6510784,36.1217596 C44.2280784,35.8987596 46.0990784,35.1527596 47.2790784,34.1277596 C47.8220784,33.6547596 47.2470784,32.8707596 46.5840784,33.1307596" id="Fill-254"></path>
            </g>
        </g>
    </g>
</svg>