<?xml version="1.0" encoding="UTF-8"?>
<svg width="44px" height="52px" viewBox="0 0 44 52" version="1.1" xmlns="http://www.w3.org/2000/svg" xmlns:xlink="http://www.w3.org/1999/xlink">
    <title>Group 22</title>
    <g id="Page-1" stroke="none" stroke-width="1" fill="none" fill-rule="evenodd">
        <g id="vectorstock_1327683" transform="translate(-134.000000, -300.000000)" fill="#0A0B09">
            <g id="Group-22" transform="translate(134.984462, 300.590068)">
                <path d="M37.0625381,23.5089315 C36.7965381,23.3679315 36.5335381,23.4049315 36.3295381,23.5339315 C36.2545381,23.3479315 36.1685381,23.1649315 36.0895381,22.9839315 C36.1035381,22.9809315 36.1155381,22.9859315 36.1305381,22.9789315 C37.0715381,22.5719315 38.1075381,22.3059315 39.0085381,21.8229315 C39.2555381,21.6879315 39.4065381,21.4009315 39.4085381,21.1259315 C39.4085381,20.8899315 39.3375381,20.7179315 39.1715381,20.5549315 C38.9755381,20.3599315 38.6595381,20.2589315 38.3865381,20.3479315 C37.3175381,20.6989315 36.3975381,21.5459315 35.8915381,22.5499315 C35.7765381,22.3109315 35.6585381,22.0769315 35.5335381,21.8409315 C35.5465381,21.8269315 35.5625381,21.8159315 35.5745381,21.7939315 C36.1845381,20.7999315 37.1605381,20.0849315 38.1785381,19.5509315 C39.2755381,18.9749315 41.3985381,18.6659315 41.5175381,20.4529315 C41.6385381,22.2499315 38.6325381,24.3569315 37.0625381,23.5089315 Z M16.3095381,49.0499315 C6.47053808,49.9429315 1.29353808,40.3959315 1.46153808,31.8039315 C1.52853808,28.2689315 2.51453808,25.0999315 4.14253808,22.3329315 C5.15653808,33.0179315 25.5095381,37.2939315 29.7635381,26.8649315 C29.7885381,26.7979315 29.6795381,26.7539315 29.6465381,26.8159315 C24.4945381,36.2049315 5.73753808,31.7849315 5.66053808,20.9819315 C5.65953808,20.7269315 5.56153808,20.5369315 5.41753808,20.4119315 C8.44053808,16.3669315 12.9095381,13.3369315 17.7945381,11.4639315 C18.0175381,11.3779315 17.9285381,11.0209315 17.6935381,11.0969315 C15.9235381,11.6749315 14.2495381,12.3799315 12.6795381,13.2029315 C12.6055381,13.1159315 12.4895381,13.0589315 12.3285381,13.0609315 C7.08653808,13.1609315 5.69353808,9.38893153 5.52453808,5.12393153 C8.26553808,7.62293153 12.6105381,7.37393153 16.2015381,7.25893153 C19.5695381,7.15193153 22.5195381,7.14393153 25.5095381,8.95693153 C28.3355381,10.6749315 30.3745381,13.8549315 31.7525381,16.9769315 C28.5875381,13.9619315 24.4355381,11.8079315 20.1215381,10.8369315 C19.6135381,10.7219315 19.3185381,11.3969315 19.7675381,11.6769315 C23.2465381,13.8509315 27.0195381,15.2249315 30.2365381,17.8549315 C26.1445381,16.8649315 21.4645381,17.3109315 17.9285381,19.3339315 C17.8505381,19.3789315 17.9045381,19.5089315 17.9915381,19.4809315 C22.7395381,17.8199315 27.1245381,18.2829315 31.8355381,19.3589315 C34.4675381,22.2029315 35.7925381,25.7939315 35.8167678,29.7819315 C35.8725381,39.9039315 25.6795381,48.1989315 16.3095381,49.0499315 Z M21.1215381,1.67793153 C22.4705381,4.27093153 25.5885381,5.16093153 28.2965381,6.06693153 C30.9195381,6.94893153 33.6305381,7.89193153 35.0125381,10.4679315 C36.6385381,13.5079315 36.7735381,17.8389315 34.8805381,20.7549315 C34.1565381,19.6199315 33.3125381,18.5519315 32.3595381,17.5719315 C30.9265381,12.5379315 27.9115381,8.04593153 22.6315381,6.44493153 C22.2445381,6.32893153 21.8375381,6.24293153 21.4135381,6.17693153 C20.4885381,4.70993153 20.5915381,3.18593153 21.1215381,1.67793153 Z M42.7035381,20.2389315 C42.5035381,18.4839315 40.7175381,17.7929315 39.1855381,18.1169315 C37.6055381,18.4469315 36.0035381,19.8839315 35.2285381,21.3119315 C35.1695381,21.2109315 35.1045381,21.1149315 35.0445381,21.0189315 C38.7405381,18.3779315 37.5835381,11.7869315 35.1855381,8.65393153 C31.9135381,4.37993153 23.1875381,5.90693153 21.5725381,0.32893153 C21.4395381,-0.12106847 20.8245381,-0.0980684701 20.6835381,0.32893153 C20.0365381,2.28893153 19.6405381,4.31593153 20.5115381,6.07193153 C15.3485381,5.66093153 8.46953808,7.89193153 5.42953808,3.06493153 C5.09353808,2.53193153 4.26453808,2.74593153 4.24953808,3.38293153 C4.13053808,8.58293153 5.51653808,13.9839315 11.1505381,14.0679315 C4.89453808,17.8539315 0.685538079,23.7689315 0.0605380791,31.8039315 C-0.675461921,41.2899315 5.35053808,50.6279315 15.3545381,50.8849315 C25.6995381,51.1489315 36.0625381,41.8539315 37.3795381,31.6909315 C37.6765381,29.3919315 37.4845381,27.2029315 36.8985381,25.1659315 C39.3085381,26.2429315 42.9675381,22.5559315 42.7035381,20.2389315 L42.7035381,20.2389315 Z" id="Fill-540"></path>
                <path d="M17.6135381,11.7879315 C17.6525381,11.6989315 17.5635381,11.5669315 17.4615381,11.6359315 C13.3845381,14.4319315 11.8895381,21.3279315 9.94553808,25.6079315 C9.77753808,25.9749315 9.88453808,26.4959315 10.3465381,26.5919315 C12.4915381,27.0339315 16.2435381,27.7609315 16.9355381,24.9069315 C17.0105381,24.6009315 16.7075381,24.4119315 16.4465381,24.5319315 C14.5875381,25.3609315 13.3205381,25.6479315 11.4545381,25.4129315 C12.2125381,23.5759315 12.9215381,21.7159315 13.6545381,19.8659315 C14.7735381,17.0379315 16.4085381,14.5379315 17.6135381,11.7879315" id="Fill-541"></path>
                <path d="M20.4825381,14.4879315 C20.1385381,14.1459315 19.6675381,13.9509315 19.1835381,13.9509315 C18.4945381,13.9509315 17.9735381,14.3149315 17.5955381,14.8599315 C17.4635381,15.0499315 17.3735381,15.2609315 17.3135381,15.4879315 C17.1495381,16.0969315 17.3205381,16.7599315 17.7695381,17.2059315 C18.1755381,17.6139315 18.9235381,17.8919315 19.4895381,17.6629315 C19.7045381,17.5749315 19.9135381,17.4939315 20.1115381,17.3749315 C21.1225381,16.7649315 21.3295381,15.3349315 20.4825381,14.4879315" id="Fill-542"></path>
                <path d="M10.7495381,16.2029315 C8.94953808,16.2029315 8.94953808,18.9939315 10.7495381,18.9939315 C12.5505381,18.9939315 12.5505381,16.2029315 10.7495381,16.2029315" id="Fill-543"></path>
            </g>
        </g>
    </g>
</svg>