<?xml version="1.0" encoding="UTF-8"?>
<svg width="60px" height="58px" viewBox="0 0 60 58" version="1.1" xmlns="http://www.w3.org/2000/svg" xmlns:xlink="http://www.w3.org/1999/xlink">
    <title>Group 65</title>
    <g id="Page-1" stroke="none" stroke-width="1" fill="none" fill-rule="evenodd">
        <g id="vectorstock_1327683" transform="translate(-436.000000, -187.000000)" fill="#0A0B09">
            <g id="Group-65" transform="translate(436.956768, 187.151020)">
                <path d="M14.2342317,31.2189797 C13.0872317,31.8179797 11.2752317,31.5939797 10.1762317,30.7279797 C10.1972317,30.4399797 9.95123169,30.1219797 9.62523169,30.0839797 C9.61123169,30.0809797 9.59623169,30.0839797 9.58423169,30.0809797 C9.39823169,29.7949797 9.27223169,29.4729797 9.23923169,29.1129797 C9.11323169,27.7939797 9.79123169,26.6289797 10.7902317,25.7769797 C10.8352317,25.8769797 10.9042317,25.9679797 11.0292317,26.0299797 C12.5362317,26.7579797 15.3182317,25.9179797 16.0432317,27.9669797 C16.5192317,29.3139797 15.3352317,30.6439797 14.2342317,31.2189797 Z M36.6972317,10.1479797 C36.7442317,8.32797967 38.2332317,7.06297967 39.9382317,6.38397967 C41.9952317,6.10097967 43.9282317,6.61197967 44.5322317,8.80097967 C45.0072317,10.5199797 44.3482317,12.5229797 42.7342317,13.3569797 C40.5512317,14.4769797 36.6302317,12.7469797 36.6972317,10.1479797 Z M55.9202317,27.0039797 C52.9802317,20.7019797 47.7302317,16.8789797 41.7182317,15.2319797 C42.1252317,15.2039797 42.5222317,15.1409797 42.8972317,15.0339797 C45.7292317,14.2189797 46.5982317,11.4509797 46.0902317,9.02897967 C47.6432317,8.84297967 49.2402317,8.77497967 50.7632317,9.02897967 C51.7932317,9.20197967 52.7452317,9.63097967 53.5252317,10.3239797 C54.2602317,10.9759797 54.2802317,11.7859797 55.2492317,12.1439797 C55.5192317,12.2419797 55.8792317,12.0829797 56.0122317,11.8339797 C57.1872317,9.55797967 53.4032317,7.75897967 51.7052317,7.35997967 C49.7592317,6.90597967 47.5462317,7.12697967 45.8512317,8.18497967 C45.7422317,7.88597967 45.6202317,7.59697967 45.4712317,7.32397967 C48.1172317,4.92897967 52.8542317,4.71497967 55.9202317,6.24997967 C57.0002317,6.79197967 57.9502317,5.14497967 56.8632317,4.63197967 C53.2782317,2.93697967 47.6632317,3.46397967 45.1862317,6.85597967 C45.1172317,6.76197967 45.0572317,6.66297967 44.9862317,6.57397967 C47.8322317,3.49697967 51.1642317,1.12897967 55.6902317,2.03497967 C56.0932317,2.11597967 56.6032317,1.99897967 56.7952317,1.58897967 C56.8762317,1.41497967 56.9082317,1.28497967 56.9282317,1.09497967 C56.9722317,0.687979666 56.5992317,0.233979666 56.2132317,0.153979666 C52.4412317,-0.618020334 45.2842317,1.53797967 44.5112317,6.05697967 C43.3332317,4.95897967 41.6162317,4.56297967 39.5532317,5.67197967 C37.4072317,6.24997967 35.5522317,7.74697967 35.3512317,10.1479797 C35.1782317,12.1769797 36.4522317,13.6889797 38.1572317,14.5219797 C34.1362317,13.9989797 29.9222317,14.3419797 25.9172317,15.5189797 C25.4622317,15.6559797 25.5312317,16.4119797 26.0312317,16.3709797 C36.4122317,15.5279797 46.2142317,16.1799797 52.6162317,25.5669797 C58.7102317,34.5089797 56.4582317,45.2639797 47.2182317,50.7799797 C39.8032317,55.2029797 29.4092317,54.9739797 22.7492317,49.3269797 C17.0272317,44.4749797 16.1312317,37.6029797 17.5272317,30.9109797 C17.9622317,30.1569797 18.1872317,29.3029797 18.1472317,28.4279797 C19.2732317,24.5509797 21.0812317,20.8319797 23.0582317,17.7079797 C23.1442317,17.5759797 22.9372317,17.4579797 22.8492317,17.5859797 C20.8932317,20.5699797 19.1312317,23.8119797 17.8572317,27.1529797 C17.1782317,25.6849797 15.4332317,24.5909797 13.7172317,24.3879797 C13.9512317,24.3459797 14.1842317,24.3139797 14.4092317,24.3099797 C14.6302317,24.3029797 14.6222317,23.9949797 14.4092317,23.9739797 C11.4452317,23.6789797 8.18423169,25.8579797 7.74923169,28.9119797 C7.68323169,29.3819797 7.70423169,29.8119797 7.78523169,30.2129797 C5.67023169,30.6759797 3.53623169,32.1419797 2.11023169,33.4619797 C0.493231685,34.9609797 -1.08976831,38.6569797 1.00323169,40.5119797 C1.39323169,40.8559797 2.47023169,41.6179797 2.88123169,40.8029797 C3.51423169,39.5579797 2.11323169,38.4619797 2.34023169,37.1089797 C2.83523169,34.1489797 5.98823169,32.8759797 8.54623169,31.7449797 C9.79323169,33.2019797 12.1942317,33.7819797 14.1002317,33.4259797 C14.9232317,33.2689797 15.6832317,32.8719797 16.3282317,32.3349797 C15.0112317,38.7759797 15.9892317,45.2909797 21.2722317,50.8049797 C28.2722317,58.1139797 40.2012317,57.1919797 48.4332317,52.8519797 C58.3422317,47.6299797 60.4012317,36.6059797 55.9202317,27.0039797 L55.9202317,27.0039797 Z" id="Fill-479"></path>
                <path d="M8.87723169,32.7969797 C4.81123169,33.5739797 3.48323169,41.7149797 8.23923169,42.3169797 C9.09023169,42.4259797 9.31623169,41.3069797 8.86923169,40.7919797 C7.87823169,39.6449797 7.10223169,39.0979797 7.14723169,37.4299797 C7.18623169,35.9069797 8.20123169,34.3569797 9.11123169,33.1999797 C9.26123169,33.0119797 9.12723169,32.7499797 8.87723169,32.7969797" id="Fill-480"></path>
                <path d="M14.9642317,40.2769797 C14.8852317,39.9549797 14.6002317,39.6769797 14.2812317,39.5949797 C12.8042317,39.2219797 12.0052317,38.9069797 11.2562317,37.5169797 C10.6142317,36.3199797 10.7552317,34.6459797 11.0862317,33.3969797 C11.1082317,33.3079797 10.9872317,33.2259797 10.9252317,33.3029797 C9.71523169,34.7299797 9.23723169,36.3739797 9.59023169,38.2189797 C9.96223169,40.1439797 12.1382317,41.5999797 14.0232317,41.5109797 C14.4692317,41.4899797 14.8302317,41.2279797 14.9642317,40.7929797 C15.0192317,40.6109797 15.0072317,40.4609797 14.9642317,40.2769797" id="Fill-481"></path>
                <path d="M47.8292317,27.8679797 C42.4352317,30.2749797 33.8472317,26.9439797 31.2632317,21.6879797 C31.2012317,21.5639797 31.0082317,21.6519797 31.0442317,21.7799797 C32.4382317,27.0379797 40.0342317,31.5569797 45.7722317,30.4629797 C44.0392317,32.3639797 42.0202317,33.7389797 39.8392317,35.4109797 C39.4752317,35.6909797 39.6792317,36.2439797 40.1542317,36.1569797 C43.9852317,35.4609797 46.7422317,31.9309797 48.9672317,29.0049797 C49.5342317,28.2609797 48.4892317,27.5739797 47.8292317,27.8679797" id="Fill-482"></path>
                <path d="M47.4282317,39.1439797 C44.9662317,45.0909797 37.3942317,46.4739797 31.6882317,45.9669797 C24.1132317,45.2929797 20.2952317,40.2699797 19.9942317,33.0279797 C19.9742317,32.5119797 19.2492317,32.4079797 19.0982317,32.9059797 C14.2732317,48.7039797 43.6782317,53.6509797 47.7052317,39.2189797 C47.7562317,39.0359797 47.4962317,38.9769797 47.4282317,39.1439797" id="Fill-483"></path>
                <path d="M27.0582317,20.3309797 C25.2292317,20.3309797 25.2292317,23.1669797 27.0582317,23.1669797 C28.8872317,23.1669797 28.8872317,20.3309797 27.0582317,20.3309797" id="Fill-484"></path>
                <path d="M34.0972317,17.9809797 C33.2332317,17.4759797 32.2852317,18.1369797 32.2202317,19.0569797 C32.2252317,18.9849797 32.2292317,18.9099797 32.2352317,18.8359797 C31.8562317,19.8209797 33.1712317,20.7779797 34.0132317,20.2049797 C34.1322317,20.1229797 34.2582317,20.0499797 34.3492317,19.9389797 C34.8452317,19.3209797 34.8462317,18.4209797 34.0972317,17.9809797" id="Fill-485"></path>
                <path d="M20.6122317,9.39397967 C20.3422317,9.10897967 19.7662317,9.22697967 19.6902317,9.63897967 C19.4612317,10.8269797 19.8302317,11.9989797 19.8072317,13.2079797 C19.7722317,15.0969797 19.4342317,16.6619797 18.4302317,18.2829797 C18.3612317,18.3909797 18.5232317,18.4759797 18.5932317,18.3789797 C20.2332317,16.1949797 23.0662317,11.9809797 20.6122317,9.39397967" id="Fill-486"></path>
                <path d="M30.0992317,6.40297967 C29.8352317,6.16397967 29.5012317,6.29297967 29.3742317,6.59297967 C28.9242317,7.67597967 29.1192317,8.79697967 28.8512317,9.92997967 C28.5932317,11.0129797 28.0762317,12.1329797 27.4092317,13.0099797 C27.1222317,13.3829797 27.7022317,13.7299797 28.0142317,13.4759797 C29.1472317,12.5519797 30.0222317,11.7749797 30.5942317,10.4129797 C31.1502317,9.08197967 31.2162317,7.41397967 30.0992317,6.40297967" id="Fill-487"></path>
            </g>
        </g>
    </g>
</svg>