<?xml version="1.0" encoding="UTF-8"?>
<svg width="59px" height="54px" viewBox="0 0 59 54" version="1.1" xmlns="http://www.w3.org/2000/svg" xmlns:xlink="http://www.w3.org/1999/xlink">
    <title>Group 11</title>
    <g id="Page-1" stroke="none" stroke-width="1" fill="none" fill-rule="evenodd">
        <g id="vectorstock_1327683" transform="translate(-186.000000, -72.000000)" fill="#1B1A19">
            <g id="Group-11" transform="translate(186.813783, 72.479874)">
                <path d="M28.5552171,22.8421258 C26.0502171,22.8421258 26.0502171,26.5241258 28.5552171,26.5241258 C31.0642171,26.5241258 31.0642171,22.8421258 28.5552171,22.8421258" id="Fill-40"></path>
                <path d="M40.8352171,21.2201258 C38.3292171,21.2201258 38.3292171,24.9001258 40.8352171,24.9001258 C43.3432171,24.9001258 43.3432171,21.2201258 40.8352171,21.2201258" id="Fill-41"></path>
                <path d="M53.5902171,25.9971258 C53.6412171,23.7971258 53.4082171,21.5721258 52.9062171,19.3421258 C53.0032171,19.3171258 53.0852171,19.2861258 53.1202171,19.2441258 C53.2672171,19.0481258 53.4402171,18.8701258 53.6432171,18.7091258 C54.6162171,17.8311258 55.0532171,18.8771258 55.3602171,19.3891258 C55.7952171,20.1091258 55.9392171,20.9411258 56.0112171,21.7331258 C56.1472171,23.2311258 55.0332171,24.9551258 53.5902171,25.9971258 Z M44.3202171,43.6411258 C40.3592171,47.9731258 34.3432171,51.5761258 27.6242171,51.3821258 C21.7582171,51.2131258 16.7842171,47.4821258 13.5282171,43.7451258 C9.24921707,38.8391258 6.77921707,32.9661258 7.16521707,27.1891258 C7.36121707,27.1061258 7.52121707,26.9911258 7.56321707,26.8451258 C7.98821707,25.4061258 8.01321707,23.9091258 8.41021707,22.4481258 C8.61921707,21.6841258 8.93521707,20.8371258 9.24521707,20.0501258 C9.46121707,19.6491258 9.70721707,19.2531258 9.95921707,18.8571258 C10.7952171,18.6501258 11.9032171,21.6531258 11.8732171,21.5591258 C12.0732171,22.2021258 13.3012171,21.7721258 13.5812171,21.4321258 C14.7122171,20.0551258 14.3532171,19.3751258 14.1742171,18.1211258 C15.6742171,18.4821258 16.8272171,19.0381258 18.2092171,19.8741258 C18.6542171,20.1441258 19.7732171,19.9081258 19.8292171,19.3871258 C19.9672171,18.0651258 19.7492171,16.9631258 19.1372171,16.0271258 C20.0572171,16.3871258 20.9502171,16.8231258 21.8322171,17.4121258 C22.2802171,17.7121258 23.4712171,17.4321258 23.5232171,16.9041258 C23.5822171,16.2531258 23.7312171,15.4801258 23.2872171,14.8791258 C22.8972171,14.3511258 21.8482171,13.6001258 21.0982171,12.9311258 C22.0762171,13.0321258 23.0422171,13.2221258 23.5762171,13.7661258 C24.4642171,14.6751258 23.7922171,14.3091258 24.8432171,14.9051258 C25.3032171,15.1661258 26.1222171,14.9511258 26.3802171,14.5611258 C28.2392171,11.7541258 24.5472171,10.0421258 22.1002171,8.56612576 C24.2012171,8.52812576 25.7512171,8.93112576 27.6992171,10.4161258 C28.2062171,10.8021258 29.4292171,10.5701258 29.3792171,9.90512576 C29.2172171,7.75412576 28.5862171,6.90912576 27.3382171,5.62412576 C28.8902171,5.95812576 29.8282171,6.81312576 30.1392171,8.19612576 C30.3102171,8.85412576 31.9582171,8.45012576 31.8902171,7.80412576 C31.7072171,6.12712576 30.7502171,5.05612576 29.3732171,4.20112576 C33.7742171,4.40212576 38.0392171,4.62812576 42.0762171,6.45412576 C44.4892171,7.54112576 46.2852171,9.41212576 47.6472171,11.5081258 C47.7862171,12.1591258 47.8792171,12.8371258 47.9132171,13.5481258 C47.9262171,13.8371258 48.4422171,13.8751258 48.9232171,13.7611258 C49.2312171,14.3861258 49.5112171,15.0141258 49.7612171,15.6291258 C47.3682171,15.2251258 44.7772171,15.6071258 42.4812171,16.1531258 C40.6342171,16.5931258 36.7312171,17.6831258 36.6612171,19.6701258 C36.6522171,19.8841258 37.1522171,19.8001258 37.2222171,19.6591258 C38.2502171,17.5331258 42.8762171,16.7881258 45.1802171,16.5231258 C47.0212171,16.3111258 48.5512171,16.8071258 50.2412171,16.8711258 C50.3002171,17.0371258 50.3632171,17.2051258 50.4182171,17.3701258 C53.5872171,26.4551258 51.1432171,36.1791258 44.3202171,43.6411258 Z M3.53221707,32.6691258 C3.40921707,32.2851258 3.26621707,31.9061258 3.12421707,31.5281258 C4.03821707,32.2071258 5.11921707,32.5941258 6.32221707,32.4271258 C6.66421707,34.5441258 7.36621707,36.6321258 8.35321707,38.6471258 C5.72821707,37.4741258 4.26521707,34.9591258 3.53221707,32.6691258 Z M1.48521707,27.0801258 C1.10421707,26.0891258 0.502217073,24.1211258 2.72321707,24.3781258 C4.79821707,24.6221258 5.84721707,26.5671258 6.10921707,28.1011258 C6.11021707,28.1081258 6.12121707,28.1081258 6.12321707,28.1171258 C6.03621707,29.3081258 6.07321707,30.5021258 6.22021707,31.6921258 C3.79021707,32.1151258 2.03421707,28.4991258 1.48521707,27.0801258 Z M18.7632171,3.77112576 C27.9032171,-0.916874242 41.3452171,0.263125758 46.1412171,7.80912576 C45.5722171,7.31412576 44.9812171,6.83512576 44.3452171,6.39112576 C40.0272171,3.35712576 33.4222171,3.24212576 28.0262171,3.47712576 C27.8012171,3.37012576 27.5752171,3.26512576 27.3382171,3.16212576 C26.9682171,3.00012576 25.9382171,3.36512576 26.4722171,3.67912576 C26.6122171,3.76212576 26.7492171,3.84612576 26.8842171,3.92912576 C26.8962171,4.01012576 26.9762171,4.07512576 27.1542171,4.09112576 C27.4442171,4.27112576 27.7182171,4.46012576 27.9812171,4.64912576 C27.2212171,4.49612576 26.4162171,4.42812576 25.6232171,4.43112576 C25.2342171,4.43312576 24.2982171,4.84812576 24.7112171,5.26812576 C25.8562171,6.43012576 26.7062171,7.28412576 27.1932171,8.45112576 C25.2232171,7.48312576 23.3522171,7.40412576 20.3692171,7.70112576 C20.0922171,7.72812576 19.0012171,8.12712576 19.4992171,8.49912576 C20.9612171,9.58912576 24.7342171,10.9101258 25.0822171,12.9031258 C24.9022171,12.7221258 24.7062171,12.5661258 24.4642171,12.4781258 C22.8972171,11.9201258 21.3622171,11.9351258 19.7012171,11.6661258 C19.2602171,11.5961258 18.2802171,11.9141258 18.4442171,12.4101258 C18.9412171,13.9181258 20.6212171,14.1781258 21.3172171,15.4211258 C19.7882171,14.7111258 18.3222171,14.3651258 16.2572171,13.8041258 C15.7092171,13.6531258 14.1102171,14.3161258 14.9982171,14.7301258 C16.8152171,15.5801258 17.7442171,16.6341258 17.9702171,18.1091258 C16.6332171,17.4341258 15.5672171,17.1421258 13.5222171,16.8421258 C13.1592171,16.7881258 12.2942171,17.0101258 12.3072171,17.4201258 C12.3182171,17.8351258 12.3822171,18.2331258 12.4372171,18.6201258 C11.7092171,17.6301258 10.6432171,17.0101258 9.11421707,17.9241258 C6.53621707,19.4671258 6.62121707,23.1621258 6.27021707,25.8071258 C5.64821707,24.7591258 4.44421707,23.9201258 3.07921707,23.7371258 C2.76721707,23.6971258 2.47321707,23.6911258 2.19121707,23.7031258 C4.12521707,15.0931258 9.83521707,8.35212576 18.7632171,3.77112576 Z M56.7062171,19.5631258 C55.9112171,17.7611258 54.1162171,17.6421258 52.7772171,18.7831258 C52.7272171,18.5831258 52.6932171,18.3821258 52.6392171,18.1811258 C52.0142171,15.8391258 50.9862171,13.6091258 49.5602171,11.5831258 C47.8752171,1.45112576 34.4192171,-1.79387424 23.6112171,0.912125758 C11.8772171,3.84712576 2.05321707,13.5601258 1.42121707,23.8101258 C0.559217073,24.0451258 -0.012782927,24.6321258 1.0658141e-14,25.6361258 C0.011217073,26.5871258 0.377217073,27.8561258 1.03121707,29.0431258 C0.208217073,29.9431258 2.12521707,34.1441258 2.46421707,34.9011258 C3.40121707,36.9951258 6.01721707,38.7141258 8.54621707,39.2511258 C8.57521707,39.2571258 8.61921707,39.2551258 8.66921707,39.2501258 C10.1412171,42.0621258 12.1822171,44.7191258 14.6992171,47.0671258 C22.3722171,54.2111258 33.9752171,53.7881258 42.0982171,47.5141258 C49.3172171,41.9421258 53.1792171,34.5311258 53.5622171,26.6911258 C56.6792171,25.2581258 57.9252171,22.3321258 56.7062171,19.5631258 L56.7062171,19.5631258 Z" id="Fill-42"></path>
                <path d="M30.6092171,19.4021258 C28.0012171,18.8921258 25.9082171,19.0851258 23.3882171,19.8841258 C21.7212171,20.4111258 19.2532171,21.5171258 18.7892171,23.2741258 C18.6852171,23.6631258 19.6152171,23.3791258 19.7422171,23.2761258 C21.3882171,21.9431258 22.7282171,20.8221258 24.8462171,20.1791258 C26.7122171,19.6161258 28.5622171,19.7971258 30.4592171,19.5921258 C30.5402171,19.5851258 30.8122171,19.4421258 30.6092171,19.4021258" id="Fill-43"></path>
                <path d="M39.2072171,32.0971258 C38.7082171,31.1661258 38.0202171,30.3571258 37.4372171,29.4771258 C36.5022171,28.0751258 36.2922171,25.7051258 36.3162171,24.1221258 C36.3162171,24.0521258 36.1782171,24.0721258 36.1732171,24.1331258 C35.9592171,25.7371258 36.1452171,27.1861258 36.5522171,28.7531258 C36.8992171,30.0881258 37.9052171,31.1061258 38.4842171,32.3481258 C39.4542171,34.4251258 36.1452171,33.0341258 35.5902171,32.9271258 C34.5532171,32.7271258 33.0242171,34.0191258 32.4992171,32.5661258 C32.3972171,32.2741258 31.7572171,32.3881258 31.7502171,32.6841258 C31.7232171,33.6621258 32.6692171,34.7021258 33.8012171,34.1951258 C34.8792171,33.7071258 35.5272171,33.7061258 36.6082171,34.0871258 C37.2002171,34.2951258 37.7752171,34.3411258 38.3922171,34.2381258 C39.4212171,34.0651258 39.5952171,32.8201258 39.2072171,32.0971258" id="Fill-44"></path>
                <path d="M35.0462171,39.1651258 C34.2982171,39.1761258 33.5612171,39.1481258 32.8252171,39.1141258 C33.3602171,38.8211258 33.6912171,38.4031258 34.1472171,38.0231258 C35.3712171,38.9921258 36.8652171,38.9741258 38.0572171,38.1681258 C38.2392171,38.5231258 38.5392171,38.7551258 38.9002171,38.9061258 C37.6152171,38.9541258 36.3362171,39.1461258 35.0462171,39.1651258 Z M41.0592171,38.7741258 C39.9992171,38.6561258 39.1102171,38.4641258 38.9242171,37.3471258 C38.8842171,37.1011258 38.0182171,37.3981258 37.9202171,37.5151258 C37.0322171,38.5881258 35.6372171,38.2821258 34.6962171,37.5221258 C34.5332171,37.3901258 34.0932171,37.5571258 33.9462171,37.6491258 C33.1882171,38.1291258 32.9422171,38.7901258 32.0862171,39.0831258 C31.7062171,39.0651258 31.3272171,39.0491258 30.9402171,39.0411258 C30.8272171,39.0401258 30.2872171,39.2441258 30.5722171,39.2601258 C30.7412171,39.2701258 30.9052171,39.2821258 31.0732171,39.2931258 C30.9332171,39.3571258 30.8072171,39.4431258 30.9782171,39.4421258 C31.3592171,39.4391258 31.7622171,39.4501258 32.1442171,39.3731258 C32.9152171,39.4361258 33.6842171,39.4971258 34.4672171,39.5081258 C35.7042171,39.5281258 39.1742171,38.7631258 39.2042171,40.1581258 C39.2482171,42.1521258 37.8172171,43.4481258 35.7792171,42.2751258 C34.6662171,41.6361258 34.7562171,40.4071258 33.4422171,40.1151258 C33.3412171,40.0901258 32.6202171,40.1921258 32.6992171,40.3661258 C33.1722171,41.4001258 33.2902171,42.0531258 34.3202171,42.7741258 C35.0792171,43.3051258 36.3872171,43.4291258 37.2842171,43.2961258 C39.8402171,42.9161258 40.5972171,41.4571258 40.3802171,39.1551258 C40.4012171,39.1551258 40.4192171,39.1571258 40.4412171,39.1571258 C40.6182171,39.1551258 41.5702171,38.8311258 41.0592171,38.7741258 L41.0592171,38.7741258 Z" id="Fill-45"></path>
            </g>
        </g>
    </g>
</svg>