<?xml version="1.0" encoding="UTF-8"?>
<svg width="55px" height="52px" viewBox="0 0 55 52" version="1.1" xmlns="http://www.w3.org/2000/svg" xmlns:xlink="http://www.w3.org/1999/xlink">
    <title>Group 19</title>
    <g id="Page-1" stroke="none" stroke-width="1" fill="none" fill-rule="evenodd">
        <g id="vectorstock_1327683" transform="translate(-70.000000, -298.000000)" fill="#0A0B09">
            <g id="Group-19" transform="translate(70.287434, 298.869911)">
                <path d="M51.0695656,26.9760889 C50.1705656,27.0000889 49.3365656,26.4080889 48.7275656,25.7320889 C48.5835656,24.6990889 48.3495656,23.6790889 48.0295656,22.6850889 C48.3055656,22.7120889 48.5875656,22.7160889 48.7955656,22.7640889 C49.1495656,22.8450889 49.4975656,22.9930889 49.7855656,23.2190889 C50.0185656,23.4040889 50.5675656,23.7460889 50.6415656,24.0390889 C50.6475656,24.0560889 50.6755656,24.0520889 50.6725656,24.0340889 C50.6195656,23.6240889 50.7685656,23.3740889 50.5975656,22.9730889 C50.4385656,22.5930889 49.9435656,22.3330889 49.5965656,22.1660889 C49.2005656,21.9750889 48.3125656,21.6450889 47.6885656,21.7220889 C47.5505656,21.3720889 47.4075656,21.0220889 47.2485656,20.6800889 C49.4695656,21.0350889 51.7375656,21.9630889 52.3225656,24.3400889 C52.5915656,25.4380889 52.4745656,26.9420889 51.0695656,26.9760889 Z M7.43656558,21.3270889 C6.51956558,21.0780889 5.25656558,21.5110889 4.49456558,21.8260889 C3.38656558,22.2840889 2.72756558,23.0160889 2.80856558,24.2430889 C2.81356558,24.3470889 2.98256558,24.3830889 3.00156558,24.2680889 C3.18856558,23.1700889 4.37056558,22.5930889 5.34156558,22.3370889 C5.91856558,22.1830889 6.56556558,22.2430889 7.16556558,22.1600889 C6.92956558,22.9300889 6.72956558,23.7160889 6.57556558,24.5090889 C6.40156558,24.4840889 6.21456558,24.5490889 6.08256558,24.7540889 C5.40456558,25.8040889 4.58056558,26.6200889 3.40356558,27.0950889 C2.45356558,27.4810889 1.11556558,27.5500889 0.952565579,26.2620889 C0.489565579,22.5960889 4.78656558,20.8470889 7.79356558,20.3720889 C7.66556558,20.6860889 7.54756558,21.0050889 7.43656558,21.3270889 Z M47.0275656,20.2220889 C46.2975656,18.7590889 45.3635656,17.3950889 44.2225656,16.1940889 C40.4435656,12.2150889 33.5825656,9.52308892 28.1145656,9.97508892 C27.9755656,9.98708892 27.8475656,10.0360889 27.7375656,10.1110889 C28.0755656,8.57508892 28.6225656,7.05708892 29.3985656,5.72208892 C29.9425656,4.79208892 30.6775656,3.92508892 31.7175656,3.55508892 C32.7125656,3.20008892 33.7065656,3.77808892 34.7055656,3.52008892 C34.9805656,3.45008892 35.0885656,3.13208892 34.9625656,2.89308892 C33.6025656,0.366088923 29.9205656,2.28708892 28.6855656,3.87208892 C28.1705656,4.53408892 27.7645656,5.30308892 27.4705656,6.12608892 C28.1675656,3.01308892 28.5525656,-0.499911077 26.5205656,0.0590889234 C26.3375656,0.109088923 26.1985656,0.365088923 26.3275656,0.534088923 C27.2115656,1.69108892 26.8005656,3.84108892 26.6025656,5.21308892 C26.3535656,6.91408892 25.9265656,8.68608892 26.0025656,10.4110889 C26.0095656,10.5770889 26.2425656,10.6120889 26.2905656,10.4500889 C26.3875656,10.1370889 26.6775656,9.22108892 26.9895656,8.05508892 C26.8165656,9.25908892 26.8545656,10.4880889 27.1075656,11.6030889 C27.1585656,11.8330889 27.4565656,11.7490889 27.4815656,11.5520889 C27.4945656,11.4660889 27.5105656,11.3790889 27.5235656,11.2920889 C27.5755656,11.3420889 27.6415656,11.3910889 27.7205656,11.4280889 C31.1035656,13.0500889 34.8785656,13.5690889 38.2445656,15.2880889 C41.8765656,17.1410889 44.2625656,20.0790889 45.5495656,23.9180889 C47.8545656,30.7960889 44.6945656,37.9540889 39.6805656,42.7180889 C34.5775656,47.5680889 27.0965656,50.1010889 20.2155656,48.0790889 C14.5815656,46.4210889 10.6785656,41.6470889 8.92956558,36.2080889 C7.14856558,30.6680889 7.51356558,24.3700889 10.1555656,19.1680889 C13.0105656,13.5510889 18.8855656,10.8720889 25.0355656,11.6900889 C25.3125656,11.7260889 25.3765656,11.2490889 25.1005656,11.1980889 C25.0615656,11.1910889 25.0235656,11.1860889 24.9855656,11.1800889 C26.4735656,10.6740889 25.7415656,7.04708892 25.4875656,6.09708892 C24.9615656,4.14808892 23.5795656,1.19408892 21.1995656,1.18008892 C20.6015656,1.17608892 20.0245656,1.71408892 20.3495656,2.29408892 C20.5195656,2.59708892 20.9355656,2.69908892 21.2335656,2.81408892 C21.8505656,3.05308892 22.2875656,3.51608892 22.7145656,4.00408892 C23.6545656,5.07408892 24.1355656,6.54108892 24.4815656,7.89508892 C24.7585656,8.98608892 24.4235656,10.1170889 24.6525656,11.1280889 C19.7075656,10.3330889 14.9655656,11.3020889 11.3285656,14.9490889 C9.85656558,16.4270889 8.74256558,18.1800889 7.92656558,20.0720889 C4.20656558,19.5570889 -0.790434421,22.6570889 0.105565579,26.8470889 C0.393565579,28.1850889 1.83856558,28.4330889 2.97256558,28.2650889 C4.17056558,28.0860889 5.44556558,27.3290889 6.28756558,26.3400889 C6.19956558,27.0750889 6.14056558,27.8110889 6.10956558,28.5450889 C5.66256558,40.1680889 13.6955656,51.1830889 26.0145656,50.8730889 C36.5625656,50.6080889 46.6455656,41.9380889 48.5985656,31.6080889 C48.8705656,30.1740889 48.9595656,28.7150889 48.8785656,27.2650889 C49.5175656,27.7000889 50.2485656,27.9830889 51.0695656,28.0260889 C52.3465656,28.0950889 53.3305656,27.0550889 53.4095656,25.8230889 C53.6455656,22.1370889 50.3665656,19.9080889 47.0275656,20.2220889 L47.0275656,20.2220889 Z" id="Fill-280"></path>
                <path d="M20.9825656,36.1120889 C20.4685656,36.7600889 19.6875656,37.0860889 18.8775656,37.0890889 C16.8235656,37.1030889 16.7685656,35.3030889 16.5985656,33.7700889 C17.1365656,33.7170889 17.6685656,33.6770889 18.1915656,33.6660889 C18.4195656,33.6610889 18.6465656,33.6640889 18.8735656,33.6610889 C18.8265656,33.8790889 18.7815656,34.0950889 18.7495656,34.3160889 C18.7115656,34.5540889 18.6415656,34.8390889 18.6935656,35.0790889 C18.7525656,35.3350889 18.8475656,35.3910889 19.0025656,35.5850889 C19.0365656,35.6290889 19.1155656,35.6240889 19.1485656,35.5850889 C19.2585656,35.4580889 19.3825656,35.4090889 19.4435656,35.2450889 C19.5315656,35.0210889 19.5515656,34.7870889 19.5935656,34.5480889 C19.6485656,34.2460889 19.7265656,33.9490889 19.8145656,33.6560889 C20.4045656,33.6610889 20.9925656,33.6740889 21.5845656,33.6930889 C21.5365656,34.5460889 21.5795656,35.3570889 20.9825656,36.1120889 Z M41.1705656,32.5550889 C41.0245656,33.0340889 40.8545656,33.5570889 40.7045656,34.1000889 C40.6495656,34.0790889 40.5905656,34.0610889 40.5255656,34.0520889 C35.4275656,33.4370889 30.3395656,32.7510889 25.2135656,32.4000889 C22.6915656,32.2280889 20.1455656,32.2230889 17.6205656,32.3190889 C15.7885656,32.3870889 13.5625656,32.3660889 11.7485656,33.0070889 C11.7255656,32.1550889 11.5535656,31.3370889 11.1915656,30.6890889 C10.8895656,30.1510889 10.1515656,30.5360889 10.2505656,31.0860889 C10.4315656,32.0920889 10.6345656,33.0040889 10.6135656,34.0400889 C10.5955656,34.9720889 10.4995656,35.8680889 10.6335656,36.7990889 C10.6495656,36.9050889 10.8015656,36.9060889 10.8495656,36.8270889 C11.2775656,36.0980889 11.5795656,35.1160889 11.6955656,34.1050889 C12.9505656,34.1740889 14.2605656,34.0240889 15.5605656,33.8800889 C14.7105656,35.9030889 16.5185656,38.3590889 18.7165656,38.5510889 C21.2255656,38.7680889 23.4385656,36.1740889 23.0705656,33.7550889 C23.9845656,33.7990889 24.8955656,33.8520889 25.8075656,33.9060889 C30.6925656,34.1970889 35.5515656,34.8220889 40.4135656,35.3630889 C40.3015656,36.0120889 40.2635656,36.6530889 40.3715656,37.2460889 C40.4615656,37.7490889 41.2595656,37.7310889 41.3635656,37.2460889 C41.4965656,36.6270889 41.4665656,35.9770889 41.5305656,35.3460889 C41.6155656,34.4820889 41.7715656,33.6190889 41.9365656,32.7660889 C42.0305656,32.2670889 41.3185656,32.0600889 41.1705656,32.5550889 L41.1705656,32.5550889 Z" id="Fill-281"></path>
                <path d="M29.6245656,25.8240889 C29.3885656,25.2120889 28.3565656,25.0360889 28.2025656,25.8240889 C28.0065656,26.8420889 28.0735656,28.5270889 26.6505656,28.6180889 C25.3565656,28.7020889 25.1585656,27.0230889 25.0225656,26.0900889 C24.9875656,25.8600889 24.6675656,25.8670889 24.5645656,26.0310889 C23.4245656,27.8310889 24.4345656,30.0610889 26.5435656,30.2810889 C28.7435656,30.5100889 30.3705656,27.7570889 29.6245656,25.8240889" id="Fill-282"></path>
                <path d="M38.7455656,18.5990889 C36.9385656,17.3630889 34.3605656,17.3510889 32.2725656,17.6770889 C30.2625656,17.9950889 28.5865656,18.6000889 27.4045656,20.2120889 C25.9555656,19.0080889 24.3905656,18.0400889 22.4585656,17.8550889 C20.1125656,17.6290889 17.8285656,18.8650889 15.8355656,19.9200889 C15.7475656,19.9670889 15.8105656,20.1080889 15.9055656,20.0830889 C17.7805656,19.5640889 19.7505656,18.8690889 21.7065656,18.8010889 C23.8515656,18.7290889 25.6215656,20.0400889 27.1325656,21.4080889 C27.3945656,21.6450889 27.7995656,21.6070889 27.9895656,21.2980889 C29.0475656,19.5620889 30.8535656,18.8010889 32.8425656,18.9420889 C34.6105656,19.0660889 36.1905656,20.1950889 37.8045656,20.8300889 C39.1655656,21.3670889 39.8165656,19.3330889 38.7455656,18.5990889" id="Fill-283"></path>
                <path d="M22.7265656,20.1200889 C20.6795656,20.1200889 20.6795656,23.2970889 22.7265656,23.2970889 C24.7755656,23.2970889 24.7755656,20.1200889 22.7265656,20.1200889" id="Fill-284"></path>
                <path d="M31.9685656,20.0900889 C29.8825656,20.0900889 29.8825656,23.3260889 31.9685656,23.3260889 C34.0535656,23.3260889 34.0535656,20.0900889 31.9685656,20.0900889" id="Fill-285"></path>
            </g>
        </g>
    </g>
</svg>