<?xml version="1.0" encoding="UTF-8"?>
<svg width="54px" height="57px" viewBox="0 0 54 57" version="1.1" xmlns="http://www.w3.org/2000/svg" xmlns:xlink="http://www.w3.org/1999/xlink">
    <title>Group 4</title>
    <g id="Page-1" stroke="none" stroke-width="1" fill="none" fill-rule="evenodd">
        <g id="vectorstock_1327683" transform="translate(-9.000000, -127.000000)" fill="#1B1A19">
            <g id="Group-4" transform="translate(9.094192, 127.865775)">
                <path d="M50.4068082,16.9682245 C51.5918082,24.4022245 47.0238082,31.9632245 49.9508082,39.1112245 C47.3988082,38.9692245 45.7358082,37.9552245 45.6448082,35.7412245 C45.6448082,35.6062245 45.6428082,35.4702245 45.6418082,35.3332245 C45.6238082,34.6982245 44.4168082,34.7512245 44.3878082,35.4042245 C44.3778082,35.6132245 44.3798082,35.8182245 44.3928082,36.0142245 C44.3618082,39.4132245 43.2788082,42.4532245 45.3318082,44.9112245 C43.6848082,44.5112245 42.2158082,43.8982245 41.0798082,42.7352245 C39.2458082,40.8642245 39.5608082,38.2302245 39.5508082,35.8332245 C40.3818082,34.1302245 41.1008082,32.4062245 41.6808082,30.6712245 C43.6788082,24.6892245 44.9998082,14.1662245 37.2328082,11.1032245 C37.1028082,11.0502245 36.9528082,11.0482245 36.8128082,11.0762245 C36.8788082,9.57422451 35.9018082,8.17322451 33.6978082,7.31322451 C30.2358082,5.96022451 24.9478082,7.87422451 26.5718082,11.4612245 C27.7728082,14.1202245 31.9668082,13.7512245 31.8078082,10.5772245 C31.7648082,9.78222451 30.2208082,9.85222451 30.2348082,10.6602245 C30.2708082,12.4512245 28.5418082,11.7102245 28.0718082,10.5872245 C27.3758082,8.91222451 29.7078082,8.26422451 31.1598082,8.36822451 C33.7548082,8.55122451 35.9908082,10.3682245 34.7778082,12.5742245 C33.7368082,14.4622245 31.0248082,15.6632245 28.7858082,16.3722245 C25.3238082,17.4662245 22.4068082,16.7522245 20.6588082,14.3752245 C14.9718082,6.65322451 29.9568082,1.31022451 37.5288082,2.03522451 C46.1788082,2.86322451 49.4478082,10.9592245 50.4068082,16.9682245 Z M29.9278082,47.7582245 C27.7168082,50.8012245 24.6238082,55.2942245 19.6868082,53.9142245 C15.7568082,52.8152245 13.3768082,49.4742245 11.5898082,46.6812245 C8.13380817,41.2702245 6.19980817,35.3572245 5.24280817,29.2252245 C7.16780817,28.7792245 9.30280817,28.6232245 10.8568082,28.3112245 C12.8418082,27.9102245 15.5468082,26.5302245 14.7618082,24.6792245 C14.5428082,24.1592245 13.4578082,24.0872245 13.2628082,24.7602245 C12.5168082,27.3502245 8.52580817,27.6012245 5.13780817,28.5062245 C4.86780817,26.6242245 4.68680817,24.7252245 4.58180817,22.8112245 C6.64180817,22.1922245 8.74380817,20.6962245 10.1508082,19.6182245 C13.9708082,16.6892245 16.0368082,13.0282245 18.5018082,9.49022451 C18.0048082,11.5642245 18.4658082,13.7172245 19.8398082,15.5322245 C22.7138082,19.3372245 29.1688082,18.0712245 33.3828082,15.5822245 C35.0308082,14.6092245 36.1178082,13.4072245 36.5718082,12.1962245 C38.6478082,14.4872245 40.4728082,16.4392245 41.2268082,19.4022245 C42.1258082,22.9302245 41.3358082,26.8382245 40.2248082,30.4392245 C38.2548082,36.8222245 34.0688082,42.0632245 29.9278082,47.7582245 Z M2.32880817,21.5822245 C4.15780817,20.5922245 5.88180817,19.5182245 7.34680817,18.1542245 C9.42080817,16.2242245 10.3008082,13.7612245 11.7548082,11.5742245 C13.4188082,9.07622451 15.6758082,6.93522451 18.5698082,5.29322451 C20.2878082,4.31622451 22.6948082,3.23522451 25.0708082,2.69222451 C24.0018082,3.23022451 22.9828082,3.83922451 22.0408082,4.52422451 C20.7248082,5.47922451 19.7668082,6.58622451 19.1488082,7.75822451 C16.4148082,10.6842245 14.4928082,13.9942245 11.5258082,16.8012245 C10.0178082,18.2302245 4.94080817,22.6372245 2.32880817,21.5822245 Z M49.0788082,6.95622451 C46.8468082,3.26222451 42.6978082,0.197224512 37.2128082,0.0132245123 C34.0438082,-0.0937754877 30.7578082,0.451224512 27.7298082,1.55022451 C22.8738082,1.46922451 18.0198082,3.43722451 14.4038082,6.55322451 C11.9378082,8.67822451 10.1238082,11.1442245 8.66380817,13.7392245 C6.79580817,17.0682245 4.18680817,18.9182245 0.455808174,20.9482245 C-0.0871918256,21.2412245 -0.122191826,21.7372245 0.229808174,22.0812245 C1.22780817,23.0492245 2.47780817,23.2402245 3.78380817,23.0032245 C3.86580817,24.9332245 4.02780817,26.8542245 4.27880817,28.7572245 C2.51080817,29.3232245 1.01980817,30.1552245 0.421808174,31.7372245 C0.315808174,32.0132245 0.801808174,32.0742245 0.931808174,31.8172245 C1.54680817,30.6132245 2.84580817,29.9132245 4.36880817,29.4602245 C5.35680817,36.3342245 7.56380817,42.9542245 11.6418082,48.9002245 C13.4028082,51.4662245 16.0588082,54.2882245 19.7878082,55.1172245 C23.7388082,55.9972245 26.6378082,53.7022245 28.9448082,51.1192245 C32.4678082,47.1732245 35.6728082,42.9132245 38.1628082,38.4832245 C38.0518082,40.3562245 38.2298082,42.1722245 39.7058082,43.6382245 C41.7218082,45.6352245 44.4988082,46.2462245 47.6678082,46.6722245 C48.5848082,46.7962245 48.9978082,45.8472245 48.3118082,45.4802245 C45.0568082,43.7322245 45.1708082,41.2162245 45.4418082,38.5002245 C46.5508082,39.6642245 48.4668082,40.2042245 50.8628082,40.1582245 C51.4048082,40.1492245 51.6148082,39.6772245 51.4548082,39.3542245 C48.4428082,33.1952245 51.8108082,26.8182245 52.3908082,20.3042245 C52.8018082,15.6802245 51.4708082,10.9122245 49.0788082,6.95622451 L49.0788082,6.95622451 Z" id="Fill-91"></path>
                <path d="M30.3028082,22.5962245 C28.8818082,23.0592245 27.5438082,23.6572245 26.0748082,24.0132245 C24.2848082,24.4462245 23.5578082,22.9732245 22.5298082,22.2172245 C21.8478082,21.7162245 20.5818082,22.5012245 21.1098082,23.1522245 C22.1968082,24.4912245 23.7618082,25.6052245 25.9758082,25.2122245 C28.1878082,24.8192245 33.4028082,20.8222245 34.7258082,23.4002245 C34.7828082,23.5082245 35.0118082,23.4162245 34.9748082,23.3052245 C34.3698082,21.5322245 32.1538082,21.9942245 30.3028082,22.5962245" id="Fill-92"></path>
                <path d="M14.4228082,29.5172245 C12.1158082,30.2042245 9.80980817,30.8932245 7.50280817,31.5812245 C6.90380817,31.7602245 7.10580817,32.4582245 7.71680817,32.3112245 C8.25880817,32.1812245 8.80080817,32.0502245 9.34380817,31.9192245 C9.35680817,31.9972245 9.38380817,32.0732245 9.43780817,32.1422245 C11.0378082,34.0972245 14.7978082,32.2322245 15.2778082,30.1782245 C15.3728082,29.7702245 14.9988082,29.3462245 14.4228082,29.5172245" id="Fill-93"></path>
                <path d="M28.9758082,25.5992245 C26.6678082,26.2852245 24.3618082,26.9752245 22.0538082,27.6622245 C21.4558082,27.8412245 21.6588082,28.5402245 22.2698082,28.3922245 C22.8128082,28.2622245 23.3548082,28.1302245 23.8958082,28.0012245 C23.9098082,28.0782245 23.9338082,28.1562245 23.9898082,28.2222245 C25.5918082,30.1782245 29.3508082,28.3142245 29.8308082,26.2582245 C29.9248082,25.8522245 29.5498082,25.4272245 28.9758082,25.5992245" id="Fill-94"></path>
                <path d="M21.0938082,39.0032245 C21.3748082,40.1962245 20.5038082,40.6752245 19.3068082,41.0042245 C19.0498082,38.7772245 19.9548082,36.4282245 20.2058082,34.1842245 C20.2188082,34.0702245 19.9908082,34.0592245 19.9618082,34.1712245 C19.3288082,36.6922245 18.0298082,39.1662245 18.0698082,41.7172245 C18.0738082,41.9882245 18.3318082,42.2502245 18.7038082,42.2092245 C21.3388082,41.9202245 23.6448082,40.8262245 23.1138082,38.4712245 C22.8808082,37.4432245 20.8568082,37.9822245 21.0938082,39.0032245" id="Fill-95"></path>
                <path d="M16.1588082,45.8952245 C17.4458082,45.8822245 18.6498082,46.0152245 19.9198082,45.6772245 C20.2908082,46.1242245 20.7788082,46.3772245 21.3508082,46.5442245 C19.2598082,46.8852245 16.7078082,47.6472245 16.1588082,45.8952245 Z M23.6018082,46.5302245 C23.5728082,46.4982245 23.5348082,46.4712245 23.4748082,46.4532245 C22.4048082,46.1512245 21.1598082,46.0102245 20.8098082,44.9862245 C20.7018082,44.6762245 20.3938082,44.5512245 19.9908082,44.6782245 C18.4648082,45.1552245 16.9828082,44.9032245 15.4378082,45.0492245 C15.1278082,45.0752245 14.9328082,45.3632245 14.9588082,45.5792245 C15.3368082,48.7402245 19.0018082,47.6272245 21.8888082,47.1542245 C22.5758082,47.0422245 24.2798082,47.0032245 23.8848082,47.9332245 C23.6458082,48.4952245 22.6268082,48.8302245 22.0498082,49.1002245 C20.3618082,49.8872245 17.8298082,50.1452245 17.7208082,48.2422245 C17.7098082,48.0592245 17.3308082,48.0882245 17.3118082,48.2752245 C16.9448082,51.6172245 23.2878082,50.6542245 24.8118082,48.3402245 C25.4548082,47.3672245 24.5988082,46.7672245 23.6018082,46.5302245 L23.6018082,46.5302245 Z" id="Fill-96"></path>
            </g>
        </g>
    </g>
</svg>