<?xml version="1.0" encoding="UTF-8"?>
<svg width="51px" height="47px" viewBox="0 0 51 47" version="1.1" xmlns="http://www.w3.org/2000/svg" xmlns:xlink="http://www.w3.org/1999/xlink">
    <title>Group 9</title>
    <g id="Page-1" stroke="none" stroke-width="1" fill="none" fill-rule="evenodd">
        <g id="vectorstock_1327683" transform="translate(-190.000000, -20.000000)" fill="#1B1A19">
            <g id="Group-9" transform="translate(190.778392, 20.472815)">
                <path d="M46.2516078,23.5241852 C46.1436078,22.5681852 45.9796078,21.6191852 45.7466078,20.6831852 C46.1486078,20.6701852 46.5586078,20.5581852 46.9466078,20.4021852 C46.8096078,21.0151852 46.7626078,21.6531852 46.6206078,22.2811852 C46.5256078,22.7021852 46.3976078,23.1151852 46.2516078,23.5241852 Z M43.8366078,15.6221852 C43.8626078,14.7691852 44.0706078,13.9701852 44.4026078,13.1441852 C44.6066078,12.6351852 45.3006078,11.4361852 46.1306078,12.0141852 C46.5586078,12.3101852 46.7626078,12.8541852 46.9446078,13.3061852 C47.2976078,14.1881852 47.3486078,15.1911852 47.4286078,16.1221852 C47.4656078,16.5521852 46.9906078,20.9101852 45.8306078,19.3081852 C45.7396078,19.1821852 45.5376078,19.1351852 45.3026078,19.1451852 C44.9146078,17.9411852 44.4266078,16.7611852 43.8366078,15.6221852 Z M38.7426078,7.32918517 C36.1806078,5.43518517 33.1796078,4.02118517 29.9826078,3.44318517 C30.0636078,3.02118517 30.1806078,2.57218517 30.3256078,2.14218517 C33.6546078,2.77718517 36.0726078,4.43618517 38.7016078,6.43518517 C40.6266078,7.90018517 42.9156078,9.63618517 43.9396078,11.8461852 C43.8046078,11.9631852 43.6726078,12.0821852 43.5596078,12.2151852 C42.8406078,10.3941852 39.8816078,8.16718517 38.7426078,7.32918517 Z M29.8205169,4.91818517 C29.8186078,4.64918517 29.8496078,4.26818517 29.9156078,3.83918517 C32.4126078,4.53518517 34.6366078,5.84018517 36.7456078,7.29118517 C38.2186078,8.30218517 39.4516078,9.51118517 40.5256078,10.8971852 C40.7986078,11.2471852 41.0476078,11.6171852 41.2986078,11.9831852 C38.2866078,8.74118517 33.9306078,6.59518517 29.8205169,4.91818517 Z M2.22460779,25.1501852 C2.20060779,25.0571852 2.17560779,24.9641852 2.15960779,24.8661852 C1.98960779,23.8951852 1.97360779,22.9291852 1.98460779,21.9581852 C2.33060779,22.0501852 2.70060779,22.0391852 3.06560779,21.8951852 C2.71260779,22.9521852 2.43060779,24.0381852 2.22460779,25.1501852 Z M1.85760779,16.7641852 C2.07060779,16.1851852 3.12460779,13.7201852 4.25760779,14.8941852 C4.30960779,14.9481852 4.34460779,15.0111852 4.38360779,15.0771852 C4.36860779,15.1331852 4.34860779,15.1911852 4.33860779,15.2511852 C4.30960779,15.3851852 4.40060779,15.4451852 4.52860779,15.4581852 C4.65360779,16.0611852 4.45560779,16.8391852 4.33860779,17.3361852 C4.30560779,17.4691852 4.56060779,17.4351852 4.61260779,17.3681852 C5.15960779,16.6561852 5.72360779,15.4081852 5.32460779,14.5271852 C6.78760779,10.9201852 11.1246078,7.42018517 14.9666078,6.37918517 C14.9516078,6.43418517 14.9276078,6.48318517 14.9126078,6.53718517 C14.8636078,6.71718517 14.8116078,7.10618517 14.7446078,7.59418517 C14.6646078,7.60318517 14.5796078,7.61818517 14.5506078,7.63818517 C9.42360779,11.0501852 5.60460779,15.4501852 3.54060779,20.5941852 C3.24460779,20.5191852 2.86560779,20.5531852 2.58560779,20.7351852 C2.51260779,20.7831852 2.00460779,19.9101852 1.89760779,19.6721852 C1.45960779,18.7011852 1.49160779,17.7501852 1.85760779,16.7641852 Z M15.6756078,4.54818517 C15.6146078,4.67818517 15.5496078,4.80418517 15.4926078,4.93618517 C15.3066078,4.89018517 15.0896078,4.88518517 14.8206078,4.97218517 C10.8006078,6.29718517 6.30860779,9.90418517 4.75260779,13.9021852 C4.67860779,13.8571852 4.59960779,13.8131852 4.51060779,13.7761852 C3.98660779,13.5501852 3.49660779,13.5591852 3.04860779,13.7051852 C5.06760779,8.57418517 9.81260779,5.00118517 15.6756078,4.54818517 Z M48.4356078,12.5741852 C47.8026078,11.1041852 46.4616078,10.7521852 45.0506078,11.2291852 C44.7956078,9.04318517 40.9146078,6.46118517 39.3886078,5.38118517 C36.5986078,3.39718517 33.9836078,1.75718517 30.4276078,1.85218517 C30.7556078,0.997185166 31.2306078,0.276185166 31.8636078,0.112185166 C31.9876078,0.0791851662 32.0476078,-0.0188148338 31.8736078,0.00318516618 C29.6426078,0.270185166 28.4836078,2.99818517 27.8896078,4.74418517 C27.4216078,6.11318517 27.6156078,7.67018517 27.4646078,9.08218517 C27.3186078,10.4521852 26.5736078,10.9321852 25.8956078,12.0151852 C25.7146078,12.3001852 26.3986078,12.3051852 26.5036078,12.3051852 C28.6556078,12.2981852 29.9946078,10.9831852 30.1556078,9.02418517 C30.2286078,8.16018517 30.0856078,7.28518517 29.9636078,6.41218517 C37.2386078,10.8261852 42.8666078,15.6731852 44.0236078,24.5561852 C44.5786078,28.8271852 43.6486078,33.2961852 41.6626078,37.1351852 C38.1426078,43.9451852 28.9176078,45.4421852 21.6816078,45.1551852 C11.1096078,44.7351852 3.74160779,38.5591852 3.11060779,28.5321852 C2.58160779,20.0901852 7.80960779,12.5991852 14.7226078,7.76618517 C14.5046078,9.36918517 14.1426078,11.8481852 13.2656078,11.9271852 C11.6986078,12.0641852 11.3076078,14.1421852 13.0616078,13.8831852 C14.9126078,13.6091852 16.0486078,12.6061852 16.4216078,10.8321852 C17.0676078,7.76818517 16.9466078,4.75018517 18.2606078,1.80318517 C18.4586078,1.36418517 17.6616078,1.33718517 17.4586078,1.60718517 C17.0676078,2.12618517 16.7116078,2.65218517 16.3886078,3.19118517 C16.3196078,3.18718517 16.2656078,3.17318517 16.1796078,3.17718517 C9.68960779,3.57618517 4.17360779,8.05718517 2.52560779,13.9391852 C1.92460779,14.3021852 1.42260779,14.8941852 1.05960779,15.4731852 C0.00860778706,17.1441852 -0.436392213,18.9421852 0.549607787,20.7421852 C0.606607787,20.8481852 0.673607787,20.9451852 0.738607787,21.0381852 C0.715607787,22.0401852 0.531607787,23.3071852 0.796607787,24.2101852 C0.980607787,24.8351852 1.08560779,25.4741852 1.27060779,26.0991852 C1.48160779,26.8181852 1.85160779,27.3191852 1.74260779,28.1141852 C1.72960779,28.2151852 1.77660779,28.2781852 1.84760779,28.3231852 C1.79560779,29.3131852 1.79260779,30.3211852 1.86060779,31.3481852 C2.59560779,42.5371852 14.8286078,46.3531852 24.8786078,45.7641852 C34.9826078,45.1731852 43.4326078,40.8651852 45.7976078,31.0411852 C46.2166078,29.3021852 46.4126078,27.5381852 46.3966078,25.7851852 C47.1096078,24.8171852 47.6356078,23.7711852 48.0516078,22.6501852 C48.4366078,21.6111852 48.9886078,20.3211852 48.4456078,19.2831852 C49.7586078,17.5371852 49.2156078,14.4001852 48.4356078,12.5741852 L48.4356078,12.5741852 Z" id="Fill-57"></path>
                <path d="M20.9336078,38.5281852 C20.6476078,38.2721852 20.3756078,38.0431852 20.1066078,37.8401852 C23.4416078,37.9911852 26.8136078,37.3731852 29.8656078,36.0501852 C27.8446078,38.9301852 24.6286078,41.8151852 20.9336078,38.5281852 Z M30.9276078,34.5531852 C27.1596078,36.6191852 22.6466078,37.4501852 18.3246078,36.9371852 C17.9776078,36.8481852 17.6006078,36.7901852 17.1786078,36.7701852 C16.0026078,36.5641852 14.8486078,36.2621852 13.7356078,35.8501852 C13.4556078,35.7461852 12.6286078,36.1121852 13.0346078,36.2821852 C14.1246078,36.7351852 15.2476078,37.0871852 16.3926078,37.3441852 C16.4316078,37.3821852 16.4906078,37.4181852 16.5896078,37.4481852 C19.9096078,38.3811852 21.2866078,41.2921852 25.1426078,40.5571852 C28.5956078,39.8961852 30.3836078,37.5781852 32.1076078,34.8401852 C32.5036078,34.2061852 31.1736078,34.4171852 30.9276078,34.5531852 L30.9276078,34.5531852 Z" id="Fill-58"></path>
                <path d="M26.0686078,25.5791852 C25.8986078,25.3811852 25.1146078,25.5941852 25.1386078,25.8691852 C25.2706078,27.1991852 26.4226078,29.6371852 24.8856078,30.5881852 C23.8936078,31.1981852 22.3606078,31.4831852 21.2046078,31.4011852 C19.7396078,31.2991852 20.2766078,29.7211852 20.4926078,28.9851852 C20.8426078,27.7991852 21.4336078,26.8031852 21.4716078,25.5481852 C21.5346078,23.5311852 21.4186078,21.5541852 20.9856078,19.5761852 C20.9536078,19.4301852 20.4466078,19.5501852 20.4676078,19.7081852 C20.9306078,22.7981852 20.8566078,25.7691852 19.5586078,28.6381852 C18.8186078,30.2771852 18.6246078,31.8501852 20.8556078,32.0561852 C24.9646078,32.4361852 29.3756078,29.4351852 26.0686078,25.5791852" id="Fill-59"></path>
                <path d="M31.6236078,38.8991852 C31.5726078,38.5571852 30.8826078,38.8571852 30.7646078,38.9931852 C29.2086078,40.8361852 27.6476078,41.6471852 25.1616078,41.8821852 C22.7706078,42.1101852 19.9886078,42.1971852 18.3476078,40.2491852 C18.3176078,40.2151852 18.1826078,40.2491852 18.2046078,40.2951852 C19.4676078,42.9281852 22.9096078,42.7951852 25.5116078,42.5951852 C27.4166078,42.4511852 32.0026078,41.3641852 31.6236078,38.8991852" id="Fill-60"></path>
                <path d="M17.5536078,18.5911852 C16.3526078,18.8591852 15.0916078,18.9671852 13.8596078,18.9601852 C13.4566078,18.9601852 13.0246078,18.9461852 12.6296078,18.8651852 C12.1046078,18.7561852 11.8196078,17.9761852 11.4626078,17.6571852 C10.8796078,17.1371852 8.59860779,17.4691852 8.97960779,18.4971852 C10.1916078,21.7881852 15.6386078,20.1691852 17.8476078,18.9321852 C18.2096078,18.7321852 17.7976078,18.5351852 17.5536078,18.5911852" id="Fill-61"></path>
                <path d="M33.5546078,15.5771852 C33.1266078,15.1611852 32.1026078,15.4601852 31.6616078,15.6711852 C31.1946078,15.8981852 31.0786078,16.3121852 30.7526078,16.6601852 C29.7006078,17.7751852 27.4456078,19.1771852 25.8606078,18.4731852 C25.7586078,18.4291852 25.2146078,18.5661852 25.3436078,18.6891852 C26.4076078,19.7151852 28.4216078,19.0321852 29.5876078,18.5601852 C30.8546078,18.0501852 33.0406078,17.1191852 33.6206078,15.8121852 C33.6596078,15.7191852 33.6386078,15.6391852 33.5546078,15.5771852" id="Fill-62"></path>
                <path d="M31.5406078,19.4581852 C30.8946078,19.1041852 29.9926078,19.3241852 29.3796078,19.6421852 C29.1346078,19.7691852 28.9756078,19.9361852 28.8496078,20.1201852 C28.7116078,19.8591852 28.6106078,19.5811852 28.5826078,19.3001852 C28.5566078,19.0311852 27.5556078,19.2511852 27.5506078,19.5631852 C27.5296078,20.4171852 28.1006078,21.3881852 28.8256078,21.8811852 C29.7436078,22.5041852 31.1416078,22.0771852 31.8216078,21.3221852 C32.2766078,20.8211852 32.1796078,19.8101852 31.5406078,19.4581852" id="Fill-63"></path>
                <path d="M16.6446078,20.7001852 C16.5696078,20.0341852 15.0736078,20.3991852 15.0096078,20.9691852 C14.9876078,21.1751852 14.9636078,21.3851852 14.9296078,21.5941852 C13.9006078,21.5951852 12.8936078,21.7381852 12.0206078,22.3281852 C11.5936078,22.6161852 11.3126078,23.1121852 11.6476078,23.5601852 C11.9386078,23.9531852 12.6176078,24.0441852 13.0696078,24.1331852 C14.2496078,24.3651852 15.6656078,24.1241852 16.3476078,23.0921852 C16.8196078,22.3801852 16.7336078,21.4941852 16.6446078,20.7001852" id="Fill-64"></path>
                <path d="M20.8676078,1.33718517 C19.3796078,2.76418517 18.8906078,4.53718517 18.7066078,6.49418517 C18.4906078,8.85218517 17.9236078,10.2911852 16.5536078,12.2571852 C16.3066078,12.6091852 18.6866078,12.5801852 19.1156078,11.8671852 C20.0206078,10.3621852 20.7336078,9.03218517 20.5976078,7.26818517 C20.4426078,5.25618517 20.1486078,3.03818517 21.4746078,1.31118517 C21.6326078,1.10418517 20.9706078,1.23918517 20.8676078,1.33718517" id="Fill-65"></path>
                <path d="M26.4526078,0.284185166 C24.6776078,0.777185166 23.7626078,2.11418517 23.1056078,3.69418517 C22.7416078,4.56918517 22.6066078,5.55618517 22.4386078,6.47718517 C22.2106078,7.72318517 22.8306078,10.4531852 21.2796078,11.1391852 C20.9646078,11.2781852 20.4806078,11.5881852 20.4676078,11.9691852 C20.4646078,12.0251852 20.4626078,12.0831852 20.4616078,12.1421852 C20.4536078,12.3971852 20.6066078,12.5321852 20.8516078,12.6181852 C22.9216078,13.3341852 24.2616078,11.2841852 24.7806078,9.75318517 C25.6476078,7.21018517 23.5326078,2.32718517 26.6526078,0.650185166 C26.9846078,0.472185166 26.7906078,0.190185166 26.4526078,0.284185166" id="Fill-66"></path>
                <path d="M46.2616078,14.6371852 C46.0716078,14.1551852 45.8246078,13.7021852 45.6746078,13.2031852 C45.5436078,12.7731852 44.6436078,13.0151852 44.7146078,13.4461852 C44.7806078,13.8651852 44.8986078,14.2621852 45.0256078,14.6651852 C45.1636078,15.1101852 45.1816078,15.5551852 45.3806078,15.9741852 C45.5376078,16.3041852 46.1926078,16.2441852 46.3216078,15.9071852 C46.5026078,15.4271852 46.4506078,15.1121852 46.2616078,14.6371852" id="Fill-67"></path>
                <path d="M2.59860779,15.9921852 C2.54360779,16.6191852 2.16360779,17.1321852 2.05560779,17.7411852 C2.03560779,17.7871852 2.04760779,17.8271852 2.08960779,17.8591852 C2.12060779,17.8811852 2.15460779,17.9061852 2.18760779,17.9301852 C2.41460779,18.1021852 3.04560779,17.9021852 3.21260779,17.7191852 C3.43060779,17.4741852 3.42560779,17.1391852 3.52460779,16.8331852 C3.64560779,16.4611852 3.71760779,16.1011852 3.70760779,15.7111852 C3.70060779,15.4871852 2.62560779,15.6891852 2.59860779,15.9921852" id="Fill-68"></path>
            </g>
        </g>
    </g>
</svg>