<?xml version="1.0" encoding="UTF-8"?>
<svg width="54px" height="61px" viewBox="0 0 54 61" version="1.1" xmlns="http://www.w3.org/2000/svg" xmlns:xlink="http://www.w3.org/1999/xlink">
    <title>Group 28</title>
    <g id="Page-1" stroke="none" stroke-width="1" fill="none" fill-rule="evenodd">
        <g id="vectorstock_1327683" transform="translate(-129.000000, -466.000000)" fill="#1B1A19">
            <g id="Group-28" transform="translate(129.925148, 466.838181)">
                <path d="M51.3398521,22.6338194 C51.2038521,22.8778194 50.9908521,23.0598194 50.7628521,23.1408194 C50.3048521,23.3018194 49.8548521,23.2558194 49.3948521,23.4198194 C48.8418521,22.4948194 48.3148521,21.5528194 47.8088521,20.6028194 C48.3368521,20.2338194 48.9158521,19.9398194 49.5838521,19.9328194 C50.3498521,19.9248194 50.8708521,20.4268194 51.1968521,20.9618194 C51.5138521,21.4838194 51.5708521,22.2068194 51.3398521,22.6338194 Z M47.4168521,29.8648194 C48.3388521,38.0768194 45.4438521,47.8198194 38.1998521,53.5528194 C30.7698521,59.4368194 19.8848521,56.5278194 13.4238521,50.9738194 C7.29585213,45.7058194 5.06285213,37.8458194 5.09255433,30.6178194 C5.11785213,23.9398194 7.31485213,16.7738194 11.8788521,11.2028194 C11.6708521,14.9548194 13.6668521,18.0748194 19.5468521,17.2618194 C21.3008521,17.0188194 22.5088521,16.0808194 23.2428521,14.7808194 C22.5418521,22.3328194 21.2818521,29.8428194 19.6968521,37.3018194 C19.5238521,38.1118194 20.9678521,38.4588194 21.1448521,37.6438194 C21.8468521,34.3938194 28.0138521,35.8888194 30.6258521,34.7928194 C30.9318521,34.6638194 30.8298521,34.2748194 30.5358521,34.2008194 C28.2638521,33.6238194 24.0628521,33.5838194 21.5968521,34.9308194 C22.7608521,27.7268194 23.5858521,20.4948194 23.8618521,13.2338194 C23.9968521,12.7188194 24.0788521,12.1758194 24.1138521,11.6188194 C25.5258521,15.9708194 31.5848521,18.0488194 35.5498521,14.5638194 C36.3838521,13.8298194 36.9378521,12.9428194 37.2658521,11.9778194 C42.8448521,16.7038194 46.6058521,22.6368194 47.4168521,29.8648194 Z M12.6978521,10.2498194 C14.8288521,7.88181937 17.4218521,5.84881937 20.4918521,4.32481937 C20.8838521,4.71381937 21.2298521,5.16181937 21.5318521,5.64481937 C21.2888521,5.57181937 21.0348521,5.52381937 20.7658521,5.52381937 C19.4548521,5.52381937 18.3628521,6.46081937 18.3628521,7.58381937 C18.3628521,8.70581937 19.4548521,9.64381937 20.7658521,9.64381937 C21.5778521,9.64381937 22.3038521,9.28381937 22.7408521,8.74381937 C23.4268521,12.2268194 22.1708521,15.9868194 18.2378521,16.3728194 C13.4178521,16.8438194 12.2278521,13.7568194 12.6978521,10.2498194 Z M15.9498521,2.71681937 C15.9608521,2.71681937 15.9718521,2.71981937 15.9838521,2.71781937 C17.6878521,2.51281937 19.1338521,3.09381937 20.2598521,4.11081937 C17.4328521,5.41381937 14.9888521,7.12281937 12.9038521,9.11781937 C13.4498521,6.69181937 14.6708521,4.22781937 15.9498521,2.71681937 Z M29.5648521,6.76781937 C31.9708521,8.07781937 34.2098521,9.53281937 36.2368521,11.1328194 C36.0528521,11.8938194 35.7448521,12.6228194 35.2878521,13.2848194 C34.1428521,14.9338194 31.7388521,15.6068194 29.6058521,15.3528194 C27.1798521,15.0628194 25.7388521,13.1288194 24.9728521,11.3228194 C24.5548521,10.3388194 24.3038521,9.15781937 24.2568521,7.93381937 C24.4598521,9.06181937 25.6158521,9.94981937 26.9818521,9.94981937 C28.4868521,9.94981937 29.7428521,8.87281937 29.7428521,7.58381937 C29.7428521,7.29781937 29.6778521,7.02381937 29.5648521,6.76781937 Z M25.6428521,2.62681937 C25.7108521,2.78881937 25.9868521,2.88881937 26.1668521,2.74181937 C27.5158521,1.62281937 29.2158521,0.472819366 31.1998521,0.893819366 C32.8558521,1.24681937 34.0068521,2.65281937 34.7818521,3.84881937 C35.8418521,5.48281937 36.4968521,7.54981937 36.4438521,9.54281937 C33.7678521,7.73281937 30.7748521,6.18481937 27.5298521,4.91881937 C27.2208521,4.79981937 26.9458521,5.00481937 26.9298521,5.21981937 C25.5458521,5.24481937 24.3958521,6.17781937 24.2508521,7.33881937 C24.2808521,5.66981937 24.7068521,3.96981937 25.6428521,2.62681937 Z M3.15485213,26.3758194 C3.05985213,26.1978194 2.86085213,26.0738194 2.59585213,26.1638194 C2.36885213,26.2438194 2.01085213,26.4378194 1.87485213,26.4858194 C1.73785213,26.5338194 1.61385213,26.5938194 1.48085213,26.6488194 C1.56585213,26.6148194 1.50685213,26.6198194 1.45385213,26.6318194 C1.44885213,26.6208194 1.44485213,26.6158194 1.43385213,26.5988194 C1.41785213,26.5728194 1.43885213,26.6278194 1.39185213,26.4878194 C1.16685213,25.8398194 1.38485213,24.8618194 1.62485213,24.1078194 C1.84385213,23.4278194 2.21585213,22.5018194 2.99585213,22.1668194 C3.23885213,22.0628194 3.56485213,22.1678194 3.82385213,22.3528194 C3.92685213,22.4248194 4.01585213,22.5048194 4.10085213,22.5858194 C3.73885213,23.8578194 3.42085213,25.1238194 3.15485213,26.3758194 Z M52.3248521,20.3958194 C51.7918521,19.5388194 50.7378521,18.9178194 49.5838521,18.9658194 C48.7528521,18.9998194 48.0048521,19.3418194 47.3928521,19.8258194 C44.1278521,13.5788194 41.4358521,7.03081937 35.9768521,1.94781937 C35.9578521,1.92881937 35.9278521,1.95581937 35.9458521,1.97481937 C41.2738521,7.32381937 43.3348521,14.1748194 46.8068521,20.3768194 C46.7698521,20.4178194 46.7288521,20.4588194 46.6938521,20.5018194 C44.5608521,16.5768194 41.4518521,13.1778194 37.6058521,10.3608194 C37.8558521,7.82081937 36.9188521,5.03281937 35.6118521,3.06881937 C34.0138521,0.664819366 31.4698521,-0.416180634 29.0958521,0.145819366 C29.0828521,0.132819366 29.0618521,0.124819366 29.0358521,0.129819366 C26.0788521,0.770819366 24.5238521,2.97581937 23.9138521,5.46781937 C23.8748521,5.44581937 23.8088521,5.45881937 23.8068521,5.51181937 C23.8028521,5.69281937 23.7918521,5.87281937 23.7868521,6.05281937 C23.6878521,6.59181937 23.6308521,7.13881937 23.6098521,7.68181937 C23.1498521,6.23081937 22.4058521,4.88581937 21.4198521,3.88581937 C21.6828521,3.76781937 21.9448521,3.65081937 22.2148521,3.53881937 C22.3708521,3.47481937 22.2338521,3.28381937 22.0798521,3.34181937 C21.7878521,3.45281937 21.5108521,3.57881937 21.2268521,3.69581937 C19.9448521,2.49281937 18.2878521,1.86081937 16.3608521,2.26681937 C16.4578521,2.16781937 16.5558521,2.07381937 16.6528521,1.98881937 C16.6928521,1.95181937 16.6318521,1.90081937 16.5898521,1.93381937 C16.4348521,2.05581937 16.2818521,2.18581937 16.1318521,2.31981937 C16.0478521,2.34181937 15.9628521,2.36181937 15.8778521,2.38681937 C15.7158521,2.43481937 15.7038521,2.57081937 15.7828521,2.65381937 C13.9178521,4.49481937 12.4758521,7.30881937 12.0178521,9.99281937 C8.64485213,13.5278194 6.31785213,17.8548194 4.97285213,22.4268194 C4.96385213,22.4108194 4.95085213,22.3978194 4.94085213,22.3838194 C7.21385213,15.6348194 9.55185213,8.90581937 14.2238521,3.00581937 C14.2398521,2.98581937 14.2018521,2.96681937 14.1848521,2.98781937 C9.65085213,8.40181937 6.33485213,15.1298194 4.33285213,21.7828194 C3.87385213,21.4558194 3.30685213,21.2748194 2.73685213,21.4038194 C1.54085213,21.6738194 0.882852129,22.9488194 0.499852129,23.8418194 C0.107852129,24.7588194 -0.232147871,26.0488194 0.204852129,26.9978194 C0.777852129,28.2398194 2.59685213,27.8828194 3.17385213,26.8078194 C3.19785213,26.7608194 3.20985213,26.7098194 3.21485213,26.6578194 C3.31385213,26.7178194 3.47185213,26.7028194 3.51885213,26.5688194 C3.90785213,25.4518194 4.28485213,24.3298194 4.66285213,23.2078194 C4.68685213,23.2348194 4.71085213,23.2618194 4.73585213,23.2878194 C3.32385213,28.6038194 3.21185213,34.1958194 4.30485213,39.2138194 C5.77585213,45.9728194 9.95085213,52.3158194 16.8048521,56.0548194 C24.5168521,60.2628194 34.4208521,60.4618194 41.0578521,54.6708194 C48.3978521,48.2708194 50.9558521,37.6268194 49.5748521,28.9778194 C49.1338521,26.1988194 48.2748521,23.5978194 47.0548521,21.1878194 C47.1038521,21.1488194 47.1538521,21.1088194 47.2018521,21.0678194 C47.7618521,22.0268194 48.3568521,22.9668194 49.0108521,23.8818194 C49.0298521,24.0308194 49.1258521,24.1788194 49.2698521,24.2728194 C49.2858521,24.2838194 49.3038521,24.2898194 49.3188521,24.2998194 C49.7468521,24.8768194 50.1958521,25.4458194 50.6768521,25.9978194 C50.7928521,26.1328194 51.0498521,26.0158194 50.9448521,25.8648194 C50.6418521,25.4228194 50.3528521,24.9748194 50.0678521,24.5228194 C51.0428521,24.5858194 52.1528521,23.9378194 52.5418521,23.2358194 C53.0438521,22.3288194 52.8608521,21.2598194 52.3248521,20.3958194 L52.3248521,20.3958194 Z" id="Fill-37"></path>
                <path d="M39.4148521,42.0448194 C29.7978521,42.0608194 19.9988521,41.2238194 10.7208521,43.8898194 C10.5858521,43.9298194 10.6398521,44.1048194 10.7808521,44.0748194 C20.1178521,42.0618194 29.8978521,42.8888194 39.4148521,42.9598194 C40.1038521,42.9658194 40.1038521,42.0428194 39.4148521,42.0448194" id="Fill-38"></path>
                <path d="M39.5608521,45.2978194 C32.6798521,43.5598194 24.9988521,44.4988194 18.0028521,45.1088194 C17.9188521,45.1158194 17.9158521,45.2228194 18.0028521,45.2228194 C25.1848521,45.2148194 32.1868521,45.0138194 39.2658521,46.2178194 C39.9658521,46.3358194 40.2568521,45.4738194 39.5608521,45.2978194" id="Fill-39"></path>
            </g>
        </g>
    </g>
</svg>