<?xml version="1.0" encoding="UTF-8"?>
<svg width="65px" height="56px" viewBox="0 0 65 56" version="1.1" xmlns="http://www.w3.org/2000/svg" xmlns:xlink="http://www.w3.org/1999/xlink">
    <title>Group 76</title>
    <g id="Page-1" stroke="none" stroke-width="1" fill="none" fill-rule="evenodd">
        <g id="vectorstock_1327683" transform="translate(-246.000000, -10.000000)" fill="#1B1A19">
            <g id="Group-76" transform="translate(246.592491, 10.911982)">
                <path d="M52.7755092,36.9100175 C50.1005092,42.9590175 45.0535092,48.2990175 38.6855092,50.9800175 C32.9255092,53.4020175 26.4495092,53.4150175 20.5785092,51.5840175 C21.8035092,51.7140175 23.0625092,51.5660175 24.2355092,51.2210175 C25.1925092,50.9390175 27.1385092,50.0920175 26.9285092,48.9020175 C26.8945092,48.7230175 26.7545092,48.5960175 26.5575092,48.6080175 C25.7445092,48.6550175 25.0575092,49.4810175 24.3325092,49.8070175 C23.2375092,50.3020175 21.9675092,50.4180175 20.7695092,50.3240175 C18.2235092,50.1250175 16.5005092,48.8680175 15.9625092,46.5070175 C15.8875092,46.1790175 15.3975092,46.1190175 15.3205092,46.4820175 C14.9915092,48.0110175 15.7535092,49.2750175 16.9215092,50.1650175 C12.4625092,48.0790175 8.57150918,44.8800175 5.95150918,40.8480175 C1.19350918,33.5320175 0.790509179,23.6290175 4.08250918,15.7340175 C5.44550918,12.4640175 7.56950918,9.48601751 10.4185092,7.24401751 C11.7945092,8.07401751 12.8905092,9.35001751 13.6795092,10.6770175 C14.9725092,12.8470175 15.4325092,15.3770175 16.7095092,17.5280175 C15.8455092,18.2810175 15.1225092,19.2040175 14.5545092,20.2570175 C13.3065092,22.5800175 13.0765092,25.7050175 14.9455092,27.7890175 C16.9965092,30.0730175 20.3595092,30.3200175 23.1445092,29.3450175 C21.4895092,31.0810175 20.3275092,33.3320175 19.6555092,35.4380175 C18.5725092,38.8390175 18.8265092,43.4740175 22.9205092,44.9690175 C26.2725092,46.1920175 28.9595092,42.9940175 30.4445092,40.6150175 C31.7985092,38.4520175 33.0955092,35.7680175 33.1415092,33.1620175 C34.6175092,35.0220175 37.2175092,35.7960175 39.7745092,35.0530175 C42.4625092,34.2760175 44.3025092,31.4610175 44.9885092,29.0400175 C45.0955092,28.6670175 45.1565092,28.2110175 45.1685092,27.7220175 C48.4095092,27.7060175 51.4875092,26.4420175 54.6775092,26.0280175 C54.9955092,29.6660175 54.3505092,33.3480175 52.7755092,36.9100175 Z M12.0245092,6.10601751 C15.6575092,3.81801751 19.9685092,3.01801751 24.2465092,3.32001751 C24.1435092,3.36601751 24.0395092,3.40901751 23.9425092,3.45901751 C23.6165092,3.62101751 23.8455092,4.08701751 24.1715092,4.06101751 C24.3205092,4.05201751 24.4725092,4.03001751 24.6245092,4.01501751 C23.3565092,4.81301751 22.0085092,5.49501751 20.7785092,6.35101751 C20.4475092,6.58301751 20.6115092,7.17301751 21.0655092,7.10501751 C21.5535092,7.03001751 22.0445092,6.95601751 22.5335092,6.88201751 C21.5095092,7.56001751 20.4755092,8.21601751 19.3565092,8.75701751 C19.0425092,8.90701751 18.9715092,9.45701751 19.4255092,9.49001751 C19.8815092,9.52601751 20.3245092,9.51701751 20.7615092,9.47501751 C19.9065092,10.1360175 19.1405092,10.8870175 18.6005092,11.8230175 C18.3835092,12.1960175 18.8235092,12.5420175 19.1975092,12.4430175 C19.8575092,12.2670175 20.5395092,12.1890175 21.2145092,12.0710175 C20.8855092,13.1190175 20.7335092,14.2150175 20.5255092,15.2940175 C20.5095092,15.3880175 20.5255092,15.4760175 20.5655092,15.5500175 C19.3695092,15.8360175 18.3005092,16.3320175 17.3685092,17.0020175 C16.6695092,13.4850175 14.7065092,8.77001751 11.3835092,6.53001751 C11.5945092,6.38501751 11.8055092,6.24301751 12.0245092,6.10601751 Z M27.3005092,2.67601751 C27.3065092,2.75901751 27.3175092,2.84501751 27.3315092,2.93901751 C27.4115092,3.37501751 28.0875092,3.57401751 28.2995092,3.10101751 C28.7125092,2.15601751 29.2955092,1.17701751 30.4615092,0.993017513 C31.5675092,0.817017513 32.3675092,1.89201751 32.7735092,2.69501751 C32.9865092,3.11401751 33.4985092,3.11701751 33.7545092,2.73801751 C35.2775092,0.482017513 37.1045092,3.98601751 37.7255092,5.23101751 C37.8855092,5.54901751 38.4115092,5.75301751 38.6725092,5.39701751 C41.0355092,2.17101751 42.1855092,6.20901751 42.8675092,8.12801751 C43.0045092,8.51001751 43.4975092,8.53801751 43.7715092,8.28201751 C44.6145092,7.49801751 45.5835092,6.82001751 46.6075092,6.26301751 C47.0785092,6.00901751 47.6075092,5.76701751 48.1505092,5.70601751 C48.6305092,5.65301751 47.6675092,7.51701751 47.5885092,7.66201751 C47.3905092,8.02801751 47.7985092,8.38001751 48.1725092,8.27201751 C48.9305092,8.05201751 49.6735092,8.02401751 50.4265092,8.01501751 C49.6975092,8.59801751 49.2345092,9.35201751 49.8085092,10.2850175 C50.5805092,11.5320175 52.4745092,12.1880175 53.8415092,12.9470175 C52.8365092,13.4990175 51.9995092,14.2760175 51.0175092,14.8800175 C50.6885092,15.0860175 50.8665092,15.4820175 51.1795092,15.5740175 C51.5485092,15.6850175 51.8885092,15.8260175 52.2105092,15.9910175 C51.8745092,15.9910175 51.6135092,16.2600175 51.6055092,16.6100175 C51.5955092,17.1590175 51.5195092,17.7030175 51.4655092,18.2490175 C51.1875092,18.1920175 50.9065092,18.1420175 50.6365092,18.0630175 C50.1115092,17.9050175 49.8205092,18.5610175 50.0545092,18.9210175 C50.6735092,19.8820175 51.5055092,21.6590175 50.3735092,22.6130175 C49.1345092,23.6630175 48.6535092,20.8160175 48.6115092,20.2490175 C48.5625092,19.6110175 47.6745092,19.6640175 47.5075092,20.2050175 C47.1485092,21.3640175 46.4835092,22.3750175 45.7555092,23.3500175 C45.0225092,22.5020175 44.1435092,21.7700175 43.4985092,20.8570175 C43.2025092,20.4360175 42.5955092,20.6350175 42.4705092,21.0710175 C42.2785092,21.7500175 41.8355092,23.3230175 40.8035092,23.2260175 C39.7845092,23.1280175 39.6635092,21.2240175 39.6255092,20.5720175 C39.5845092,19.8950175 38.6225092,19.9480175 38.4495092,20.5280175 C38.1275092,21.6030175 37.4655092,23.1740175 36.0005092,22.9190175 C34.7125092,22.6960175 34.1725092,20.9470175 33.9785092,19.9470175 C33.8905092,19.4830175 33.1765092,19.2660175 32.9525092,19.7740175 C32.6235092,20.5130175 31.7605092,22.2210175 30.6285092,21.5270175 C29.5155092,20.8430175 29.7995092,19.0170175 30.0225092,18.0230175 C30.1555092,17.4200175 29.2385092,17.3090175 29.0575092,17.8630175 C28.7845092,18.6880175 27.8715092,21.4500175 26.6535092,19.9780175 C25.8275092,18.9750175 25.6415092,17.4670175 25.5475092,16.2440175 C25.5265092,15.9960175 25.2245092,15.7860175 24.9685092,15.8970175 C24.6135092,16.0480175 23.9805092,16.4590175 23.7335092,15.8930175 C23.5175092,15.3980175 23.6225092,14.6680175 23.6385092,14.1500175 C23.6505092,13.8250175 23.2025092,13.6880175 22.9575092,13.8450175 C22.5265092,14.1180175 22.0555092,14.3250175 21.5935092,14.5450175 C21.7745092,13.5580175 21.9575092,12.5650175 22.3715092,11.6410175 C22.5385092,11.2680175 22.1785092,10.9170175 21.7805092,11.0250175 C21.2175092,11.1780175 20.6395092,11.2520175 20.0635092,11.3430175 C20.8385092,10.4060175 21.8805092,9.68201751 22.9125092,9.00201751 C23.3145092,8.73601751 22.9855092,8.13401751 22.5245092,8.28501751 C22.0685092,8.43201751 21.6255092,8.55401751 21.1715092,8.63701751 C22.2795092,7.98001751 23.3395092,7.24901751 24.4315092,6.56201751 C24.7625092,6.35301751 24.5745092,5.80901751 24.1685092,5.86301751 C23.6665092,5.92801751 23.1675092,5.99401751 22.6685092,6.05901751 C23.7925092,5.31301751 24.9475092,4.60401751 26.0505092,3.82801751 C26.2035092,3.72101751 26.2165092,3.54701751 26.1435092,3.41601751 C26.1855092,3.35401751 26.1865092,3.26701751 26.1405092,3.20201751 C26.5155092,3.00201751 26.8975092,2.81701751 27.3005092,2.67601751 Z M33.4005092,31.0420175 C32.9365092,29.8730175 32.9545092,28.7330175 33.3095092,27.6940175 C33.8085092,27.6200175 34.0935092,27.0330175 33.7995092,26.6450175 C34.4335092,25.5890175 35.4185092,24.6900175 36.5865092,24.0550175 C37.5485092,24.0080175 38.2685092,23.3500175 38.7865092,22.5490175 C39.0885092,23.3740175 39.6345092,24.0720175 40.6045092,24.3230175 C41.1525092,24.4670175 41.6175092,24.3310175 42.0095092,24.0450175 C42.6955092,24.6050175 43.4455092,24.9480175 43.8635092,25.8420175 C44.0245092,26.1840175 44.1135092,26.5420175 44.1585092,26.9090175 C43.7575092,27.0190175 43.6895092,27.6520175 44.1755092,27.6900175 C44.1765092,27.6890175 44.1795092,27.6900175 44.1825092,27.6890175 C44.1665092,28.0940175 44.1065092,28.4960175 44.0275092,28.8820175 C43.5835092,31.0320175 42.0565092,33.1490175 39.9265092,34.0700175 C37.2515092,35.2270175 34.3445092,33.4140175 33.4005092,31.0420175 Z M24.3975092,28.8000175 C25.7085092,28.1160175 27.1665092,26.9710175 28.1265092,25.6350175 C29.3565092,26.4700175 30.8765092,26.9260175 32.3035092,27.4260175 C31.8745092,28.6130175 31.7905092,29.9240175 32.1285092,31.1630175 C32.1635092,31.2840175 32.2065092,31.3990175 32.2475092,31.5170175 C32.1115092,32.6470175 31.6975092,33.8220175 31.3915092,34.8540175 C30.9625092,36.3020175 30.3235092,37.7020175 29.5945092,39.0350175 C28.5905092,40.8670175 26.3475092,44.3820175 23.6355092,43.5320175 C20.0055092,42.3940175 20.1365092,38.1510175 20.8855092,35.3210175 C21.4565092,33.1590175 22.6715092,30.6450175 24.3975092,28.8000175 Z M15.7415092,26.4490175 C12.8765092,22.6660175 16.7655092,17.1930175 20.7475092,15.7310175 C20.8905092,15.8110175 21.0755092,15.8220175 21.2335092,15.7210175 C21.7205092,15.4030175 22.2585092,15.1710175 22.7795092,14.9080175 C22.8545092,16.2200175 23.2755092,17.2220175 24.7255092,16.8480175 C24.8625092,18.3330175 25.2375092,20.4390175 26.6465092,21.1490175 C27.1305092,21.3940175 27.5585092,21.3940175 27.9355092,21.2380175 C28.1605092,26.4050175 19.4035092,31.2830175 15.7415092,26.4490175 Z M28.5335092,20.8290175 C28.6645092,20.7050175 28.7845092,20.5660175 28.8955092,20.4130175 C29.0275092,21.2810175 29.4105092,22.0690175 30.2475092,22.4500175 C31.5245092,23.0280175 32.5495092,22.3120175 33.2545092,21.3610175 C33.6625092,22.4700175 34.3655092,23.4780175 35.5385092,23.8850175 C34.4335092,24.3850175 33.5485092,25.1990175 32.9255092,26.1720175 C31.5015092,25.6220175 29.9305092,25.4100175 28.4155092,25.2060175 C29.2755092,23.8110175 29.5455092,22.2530175 28.5335092,20.8290175 Z M51.7535092,19.4590175 C52.2065092,19.6010175 52.5865092,19.3560175 52.5985092,18.9020175 C52.6005092,18.8060175 52.6125092,18.7080175 52.6185092,18.6120175 C53.5705092,20.5900175 54.1935092,22.6170175 54.5115092,24.6650175 C54.4305092,24.6740175 54.3525092,24.6830175 54.2745092,24.6930175 C52.7565092,24.8980175 51.2615092,25.3160175 49.7985092,25.7350175 C48.2465092,26.1800175 46.7045092,26.4900175 45.1205092,26.7500175 C44.9425092,25.1820175 44.2375092,23.5640175 42.7805092,23.1760175 C42.9625092,22.8930175 43.1125092,22.5860175 43.2385092,22.2860175 C43.9255092,23.0390175 44.7095092,23.7160175 45.2985092,24.5450175 C45.4885092,24.8150175 45.9745092,24.8710175 46.1895092,24.5910175 C46.8215092,23.7750175 47.4175092,22.9530175 47.8925092,22.0700175 C48.3545092,23.2860175 49.2455092,24.3370175 50.7205092,23.6420175 C52.4085092,22.8500175 52.2025092,20.9200175 51.5935092,19.4180175 C51.6445092,19.4300175 51.7005092,19.4420175 51.7535092,19.4590175 Z M62.7395092,26.4900175 C61.1565092,24.9020175 58.5445092,24.4780175 56.1875092,24.5410175 C55.6955092,21.9740175 54.6075092,19.5960175 53.0015092,17.4460175 C53.5935092,17.6300175 54.1935092,17.7890175 54.7745092,18.0040175 C55.4055092,18.2380175 55.8785092,17.5300175 55.4095092,17.0790175 C54.4005092,16.1200175 53.3715092,15.5300175 52.1155092,15.0820175 C52.9745092,14.4560175 53.7755092,13.7500175 54.7825092,13.3460175 C55.0425092,13.2420175 55.1765092,12.8720175 54.9105092,12.6940175 C53.8515092,11.9740175 52.6725092,11.4420175 51.5835092,10.7670175 C51.1155092,10.4820175 50.6065092,10.1310175 50.3975092,9.62401751 C50.0815092,8.86401751 51.8185092,8.14301751 52.2805092,7.92601751 C52.7305092,7.71501751 52.6445092,7.02101751 52.0795092,7.06701751 C50.9705092,7.16501751 49.9025092,7.09001751 48.8255092,7.23501751 C49.2865092,6.12601751 49.5945092,4.65101751 47.8925092,4.83801751 C46.4755092,4.99401751 44.9755092,5.99601751 43.7845092,6.94601751 C43.5015092,5.60301751 42.6955092,4.16901751 41.6205092,3.40901751 C40.4115092,2.54901751 39.2035092,3.18801751 38.3415092,4.08901751 C37.1915092,2.13201751 35.1905092,-0.200982487 33.3425092,1.63201751 C32.7295092,0.736017513 31.8345092,-0.0449824874 30.6405092,0.00201751264 C29.4525092,0.0510175126 28.6055092,0.697017513 28.0035092,1.55801751 C27.9315092,1.54801751 27.8585092,1.54601751 27.7775092,1.56401751 C26.7365092,1.81301751 25.8925092,2.39801751 25.0275092,2.96801751 C20.5025092,2.30501751 15.8975092,2.78101751 11.8595092,4.95401751 C11.3195092,5.24801751 10.7975092,5.56901751 10.2925092,5.91101751 C8.93650918,5.28001751 7.39050918,5.05701751 5.64450918,5.43201751 C3.51150918,5.88901751 1.14050918,7.17801751 0.220509179,9.14501751 C-0.665490821,11.0310175 1.29250918,11.9720175 3.00050918,11.8880175 C3.61950918,11.8590175 3.67150918,10.9140175 3.04350918,10.8550175 C2.51250918,10.8020175 1.32250918,10.7870175 1.19150918,10.1340175 C1.06850918,9.53901751 1.64450918,8.89701751 2.01150918,8.48601751 C3.34750918,7.00401751 5.55050918,6.17201751 7.58650918,6.32401751 C8.16850918,6.36601751 8.72050918,6.49401751 9.24150918,6.68301751 C6.54150918,8.81301751 4.46250918,11.6400175 2.99850918,14.6460175 C-1.11349082,23.0910175 -0.688490821,33.5870175 4.19150918,41.6510175 C10.2445092,51.6500175 23.7925092,56.9050175 35.5065092,54.2380175 C48.1635092,51.3550175 57.7035092,38.0630175 56.3825092,25.9030175 C57.0415092,25.8920175 57.7035092,25.9300175 58.3775092,26.0390175 C59.8145092,26.2740175 62.6745092,27.1960175 62.5315092,29.0200175 C62.3935092,30.7360175 59.8435092,29.6530175 59.0555092,29.1790175 C58.4405092,28.8110175 57.7495092,29.8240175 58.3575092,30.2040175 C59.7205092,31.0520175 61.8625092,31.8690175 63.2225092,30.5310175 C64.4855092,29.2920175 63.8385092,27.5900175 62.7395092,26.4900175 L62.7395092,26.4900175 Z" id="Fill-255"></path>
                <path d="M39.0185092,25.9300175 C38.0085092,25.4810175 36.7705092,25.9020175 36.2975092,26.8560175 C35.8205092,27.8120175 36.2665092,28.9830175 37.2745092,29.4330175 C38.2845092,29.8830175 39.5205092,29.4620175 39.9985092,28.5070175 C40.4715092,27.5510175 40.0265092,26.3800175 39.0185092,25.9300175" id="Fill-256"></path>
                <path d="M23.9485092,21.2620175 C21.7705092,20.2910175 20.1795092,23.4890175 22.3555092,24.4590175 C24.5375092,25.4320175 26.1285092,22.2340175 23.9485092,21.2620175" id="Fill-257"></path>
                <path d="M22.4895092,46.6250175 C19.7825092,46.6740175 18.3635092,44.5490175 16.9705092,42.6640175 C15.4595092,40.6150175 13.3245092,38.8220175 10.5045092,39.0560175 C9.82450918,39.1130175 9.81850918,40.0180175 10.4555092,40.1530175 C11.8035092,40.4380175 13.0115092,40.6560175 14.1315092,41.4800175 C15.0795092,42.1780175 15.7665092,43.1680175 16.4615092,44.0820175 C17.6415092,45.6330175 19.0765092,47.2780175 21.1725092,47.6640175 C24.0495092,48.1950175 31.6045092,45.6010175 31.9135092,50.0700175 C31.9155092,50.0880175 31.9395092,50.0860175 31.9435092,50.0710175 C33.4855092,45.3910175 25.0645092,46.5760175 22.4895092,46.6250175" id="Fill-258"></path>
            </g>
        </g>
    </g>
</svg>