<?xml version="1.0" encoding="UTF-8"?>
<svg width="55px" height="45px" viewBox="0 0 55 45" version="1.1" xmlns="http://www.w3.org/2000/svg" xmlns:xlink="http://www.w3.org/1999/xlink">
    <title>Group 56</title>
    <g id="Page-1" stroke="none" stroke-width="1" fill="none" fill-rule="evenodd">
        <g id="vectorstock_1327683" transform="translate(-379.000000, -249.000000)" fill="#0A0B09">
            <g id="Group-56" transform="translate(379.225003, 249.840682)">
                <path d="M51.6589974,22.3123182 C51.4209974,23.5363182 49.5689974,23.4933182 48.6419974,23.4513182 C48.1009974,23.4253182 47.3309974,23.1463182 46.6139974,23.0073182 C46.6139974,22.4613182 46.5919974,21.9153182 46.5529974,21.3753182 C46.8809974,21.2803182 47.2129974,21.1993182 47.5639974,21.1603182 C48.2049974,21.0843182 48.8309974,21.2863182 49.4609974,21.1773182 C49.7189974,21.1343182 49.7459974,20.8033182 49.6019974,20.6373182 C48.9669974,19.9063182 47.5709974,19.9423182 46.4309974,20.2053182 C46.4079974,20.0263182 46.3859974,19.8473182 46.3599974,19.6683182 C48.4189974,18.5103182 52.2239974,19.4093182 51.6589974,22.3123182 Z M3.3519974,17.2893182 C2.5149974,17.1923182 1.3519974,16.9313182 1.1369974,16.0003182 C0.983997401,15.3313182 1.5159974,14.5563182 1.9859974,14.0843182 C2.5749974,13.4923182 3.3789974,13.0803182 4.2279974,13.1193182 C4.6329974,13.1373182 5.0269974,13.3273182 5.3339974,13.5853182 C5.5239974,13.7453182 5.6699974,13.9433182 5.8329974,14.1283182 C5.6949974,14.3213182 5.5659974,14.5183182 5.4369974,14.7173182 C5.2139974,14.5703182 4.9699974,14.4543182 4.7349974,14.3323182 C4.4469974,14.1853182 4.2079974,14.0843182 3.8829974,14.0583182 C3.5939974,14.0353182 3.5209974,14.3903182 3.6699974,14.5733182 C3.8349974,14.7703182 3.9999974,14.8873182 4.2179974,15.0203182 C4.4629974,15.1743182 4.6989974,15.3543182 4.9469974,15.5003182 C4.5339974,16.2073182 4.1679974,16.9283182 3.8659974,17.6653182 C3.7799974,17.4733182 3.6099974,17.3193182 3.3519974,17.2893182 Z M50.0279974,18.0143182 C48.8969974,17.7583182 47.2439974,17.7563182 46.1239974,18.4003182 C44.3039974,10.1533182 35.9339974,4.85131823 28.1599974,3.13531823 C27.6169974,3.01531823 27.2979974,3.73331823 27.7809974,4.03331823 C33.7569974,7.76031823 40.7259974,10.8023182 42.7179974,18.2333182 C44.4129974,24.5683182 42.0839974,32.2583182 37.1979974,36.5833182 C27.6679974,45.0243182 10.0369974,39.1823182 5.5209974,27.8913182 C1.0079974,16.6203182 13.4109974,5.70031823 23.7129974,4.68431823 C23.9249974,4.66431823 23.9329974,4.33731823 23.7129974,4.34931823 C16.9149974,4.71431823 10.5299974,8.09931823 6.3539974,13.4453182 C6.2359974,13.2733182 6.0969974,13.1173182 5.9499974,12.9693182 C5.5069974,12.5333182 4.9229974,12.2653182 4.3099974,12.1883182 C3.1459974,12.0423182 1.9969974,12.6033182 1.1699974,13.3913182 C0.370997401,14.1513182 -0.172002599,15.2583182 0.0499974011,16.3723182 C0.347997401,17.8593182 2.0689974,18.3413182 3.3519974,18.5083182 C3.4239974,18.5203182 3.4899974,18.5163182 3.5459974,18.5003182 C1.8369974,23.4233182 2.5599974,28.8533182 5.7869974,33.3343182 C12.8709974,43.1703182 28.3649974,47.8383182 38.5899974,40.0573182 C43.3119974,36.4623182 46.0639974,30.7183182 46.5379974,24.8293182 C47.7429974,25.1113182 49.2849974,25.0863182 49.9209974,25.0383182 C51.7179974,24.9083182 53.1369974,23.9263182 53.2549974,22.0403182 C53.3849974,19.9723182 51.9459974,18.4473182 50.0279974,18.0143182 L50.0279974,18.0143182 Z" id="Fill-312"></path>
                <path d="M36.1659974,29.3223182 C34.7669974,30.3783182 33.1709974,31.1483182 31.5069974,31.6783182 C28.2559974,32.7143182 24.6599974,32.5793182 21.3819974,31.7583182 C18.0749974,30.9313182 14.9989974,29.2033182 12.6269974,26.7553182 C11.6309974,25.7293182 10.7239974,24.4313182 10.0219974,23.0233182 C12.6289974,25.5023182 17.7509974,26.4343182 20.5029974,27.0983182 C23.9099974,27.9193182 27.2779974,28.8793182 30.7599974,29.3423182 C32.1749974,29.5333182 33.6289974,29.5303182 35.0269974,29.2343182 C35.7989974,29.0703182 36.5879974,28.7333182 37.3609974,28.3383182 C36.9739974,28.6873182 36.5699974,29.0163182 36.1659974,29.3223182 Z M40.9129974,24.2723182 C40.8979974,24.1313182 40.7399974,24.0453182 40.6269974,24.1543182 C39.9659974,24.7883182 39.6049974,25.6563182 39.0879974,26.4103182 C39.0289974,26.4973182 38.9639974,26.5813182 38.8999974,26.6683182 C37.8619974,27.0913182 36.8589974,27.6193182 35.7979974,27.9903182 C34.3459974,28.4963182 32.7409974,28.2713182 31.2499974,28.1293182 C28.0419974,27.8213182 24.8859974,26.8913182 21.7709974,26.1053182 C19.3029974,25.4833182 16.7979974,24.9873182 14.3809974,24.1823182 C13.0799974,23.7493182 11.8049974,23.1273182 10.7389974,22.2583182 C9.7619974,21.4613182 9.3039974,20.4043182 8.7479974,19.3383182 C8.6279974,18.7053182 8.5609974,18.0773182 8.5589974,17.4613182 C8.5579974,17.3833182 8.4459974,17.3853182 8.4399974,17.4613182 C8.2899974,19.4103182 8.2139974,21.0623182 8.8189974,22.9483182 C9.3489974,24.6103182 10.3559974,26.0873182 11.4709974,27.4103182 C13.9019974,30.2903182 17.3939974,32.1993182 20.9699974,33.2513182 C24.6539974,34.3363182 28.6359974,34.3453182 32.2949974,33.1673182 C34.0539974,32.5993182 35.6559974,31.6823182 37.0739974,30.5023182 C38.6879974,29.1643182 41.1519974,26.5473182 40.9129974,24.2723182 L40.9129974,24.2723182 Z" id="Fill-313"></path>
                <path d="M27.4819974,13.8413182 C26.0429974,13.2683182 24.1279974,13.9483182 23.6949974,15.5143182 C23.5609974,15.9903182 24.1669974,16.3353182 24.5149974,15.9903182 C25.2009974,15.3153182 25.9299974,14.5933182 26.9709974,15.0523182 C27.8799974,15.4573182 27.9699974,16.5103182 28.3179974,17.3293182 C28.3659974,17.4473182 28.5389974,17.4463182 28.6179974,17.3703182 C29.8009974,16.2143182 28.8169974,14.3733182 27.4819974,13.8413182" id="Fill-314"></path>
                <path d="M23.9609974,0.638318226 C23.0339974,-0.492681774 21.2989974,0.124318226 20.1769974,0.623318226 C18.9119974,1.18331823 17.4679974,2.37231823 17.3329974,3.83731823 C17.3099974,4.07031823 17.6129974,4.15031823 17.7599974,4.01431823 C18.6859974,3.16331823 19.4989974,2.33431823 20.6949974,1.85231823 C21.7209974,1.43931823 22.7869974,1.57731823 23.8049974,1.21931823 C24.0669974,1.12731823 24.1299974,0.846318226 23.9609974,0.638318226" id="Fill-315"></path>
                <path d="M37.1049974,1.54031823 C35.9109974,0.698318226 33.4849974,0.307318226 32.5069974,1.62331823 C32.3649974,1.81431823 32.5289974,2.04431823 32.7069974,2.11531823 C33.7959974,2.55931823 35.0169974,2.13731823 36.1449974,2.65531823 C37.5049974,3.28131823 37.4869974,4.50531823 38.1219974,5.63131823 C38.2639974,5.88331823 38.6939974,5.91031823 38.8259974,5.63131823 C39.5459974,4.12031823 38.2999974,2.38131823 37.1049974,1.54031823" id="Fill-316"></path>
                <path d="M22.5779974,9.65431823 C20.7109974,9.65431823 20.7109974,12.5513182 22.5779974,12.5513182 C24.4459974,12.5513182 24.4459974,9.65431823 22.5779974,9.65431823" id="Fill-317"></path>
                <path d="M31.6629974,12.1283182 C29.7609974,12.1283182 29.7609974,15.0743182 31.6629974,15.0743182 C33.5629974,15.0743182 33.5629974,12.1283182 31.6629974,12.1283182" id="Fill-318"></path>
            </g>
        </g>
    </g>
</svg>