<?xml version="1.0" encoding="UTF-8"?>
<svg width="46px" height="52px" viewBox="0 0 46 52" version="1.1" xmlns="http://www.w3.org/2000/svg" xmlns:xlink="http://www.w3.org/1999/xlink">
    <title>Group 70</title>
    <g id="Page-1" stroke="none" stroke-width="1" fill="none" fill-rule="evenodd">
        <g id="vectorstock_1327683" transform="translate(-256.000000, -129.000000)" fill="#1B1A19">
            <g id="Group-70" transform="translate(256.330439, 129.428946)">
                <path d="M0.116561035,18.3530537 C0.795561035,16.5830537 3.78556103,16.6390537 5.11456103,17.6270537 C5.16456103,17.6640537 5.09956103,17.7270537 5.05256103,17.7060537 C4.07556103,17.2900537 1.85156103,17.3680537 1.41256103,18.5250537 C1.17756103,19.1430537 1.53256103,19.7760537 2.14156103,20.0120537 C2.81156103,20.2750537 3.53556103,19.9530537 4.15256103,20.1860537 C4.53656103,20.3310537 4.66956103,20.7160537 4.38756103,21.0240537 C4.19056103,21.2370537 3.90456103,21.3470537 3.58656103,21.3970537 C0.789561035,26.7120537 1.39456103,32.9110537 3.84656103,38.2730537 C6.57156103,44.2270537 12.008561,47.7170537 18.601561,48.9610537 C24.718561,50.1160537 31.130561,48.6340537 36.292561,45.4540537 C39.263561,43.6220537 41.323561,40.8380537 41.601561,37.4560537 C41.895561,33.8600537 39.043561,30.0910537 37.978561,26.7220537 C37.801561,26.1610537 38.460561,25.7690537 38.958561,26.0090537 C42.446561,26.5750537 43.320561,25.5410537 41.580561,22.9070537 C41.072561,23.0170537 40.863561,23.2160537 40.410561,23.1560537 C39.657561,23.0520537 39.180561,23.0030537 38.762561,22.3150537 C38.195561,21.3860537 38.241561,19.8390537 38.026561,18.9000537 C37.392561,16.1230537 36.848561,13.3330537 36.328561,10.5370537 C35.105561,7.14905374 33.674561,4.39805374 30.260561,2.51205374 C26.602561,0.491053738 21.759561,0.676053738 17.819561,1.63405374 C10.717561,3.36305374 7.87356103,8.48105374 6.64656103,14.4690537 C9.14556103,9.54305374 16.072561,6.04405374 21.628561,6.32105374 C23.305561,6.40305374 22.702561,8.23805374 22.107561,8.98905374 C21.542561,9.70905374 20.444561,10.0030537 19.589561,10.2770537 C19.129561,10.4240537 18.615561,10.4550537 18.487561,10.4600537 C18.622561,10.4580537 19.262561,10.4550537 20.831561,10.5440537 C22.931561,10.6590537 24.668561,8.88205374 26.318561,7.95205374 C26.589561,7.80205374 26.870561,8.00105374 26.898561,8.26505374 C27.253561,11.8230537 25.324561,11.8300537 23.223561,13.1650537 C28.378561,13.0180537 36.518561,11.0690537 32.698561,4.40205374 C32.673561,4.36105374 32.741561,4.32505374 32.767561,4.36605374 C34.289561,6.76005374 35.333561,8.97705374 32.822561,11.2930537 C29.984561,13.9120537 25.543561,14.3460537 21.754561,14.1510537 C21.310561,14.1270537 21.030561,13.6180537 21.380561,13.3020537 C21.898561,12.8270537 22.159561,12.6150537 22.880561,12.3650537 C24.472561,12.0150537 25.425561,10.9210537 25.744561,9.07905374 C24.833561,9.55005374 24.044561,10.2360537 23.136561,10.7300537 C21.462561,11.6470537 19.441561,11.2400537 17.855561,10.4520537 C17.503561,10.2750537 17.697561,9.82205374 18.041561,9.79405374 C19.737561,9.87405374 20.699561,8.95205374 20.925561,7.02405374 C20.261561,7.12605374 19.598561,7.24105374 18.941561,7.37205374 C16.995561,7.74505374 15.797561,7.90605374 14.021561,8.74505374 C11.196561,10.0790537 7.86756103,13.2130537 6.41856103,15.8650537 C6.40956103,15.8780537 6.39656103,15.8790537 6.38756103,15.8880537 C6.33556103,16.2140537 6.28156103,16.5390537 6.23556103,16.8690537 C6.55756103,16.7670537 6.95356103,16.8080537 7.41256103,17.0850537 C8.48256103,17.7270537 9.70556103,18.0720537 10.767561,18.7780537 C11.771561,19.4430537 12.656561,20.2560537 13.467561,21.1200537 C13.661561,21.3250537 13.412561,21.6630537 13.146561,21.5110537 C12.194561,20.9610537 11.214561,20.4970537 10.164561,20.1340537 C9.31656103,19.8440537 7.95456103,19.3780537 7.05256103,19.6360537 C5.48256103,20.0870537 5.05756103,18.6940537 5.43056103,17.7100537 C5.35156103,17.6470537 5.30156103,17.5520537 5.31556103,17.4130537 C5.77556103,13.5950537 6.06656103,9.58405374 8.69756103,6.44105374 C11.278561,3.35505374 14.622561,1.49505374 18.622561,0.502053738 C22.668561,-0.505946262 27.015561,0.0630537383 30.773561,1.68005374 C34.421561,3.24305374 35.935561,6.49405374 36.843561,9.91505374 C37.054561,9.90405374 37.265561,10.0000537 37.343561,10.2650537 C38.308561,13.5210537 39.639561,17.3070537 39.715561,20.7000537 C39.732561,21.4310537 43.587561,21.4550537 44.159561,22.8020537 C45.378561,25.6730537 42.363561,27.8490537 39.619561,27.4920537 C41.710561,33.7260537 44.906561,38.8330537 39.332561,44.4630537 C34.496561,49.3480537 26.403561,50.7670537 19.697561,50.1210537 C5.82556103,48.7860537 -4.14443897,33.1250537 3.36556103,21.4250537 C2.64556103,21.4710537 1.80256103,21.2330537 1.30456103,21.0110537 C0.310561035,20.5660537 -0.259438965,19.3360537 0.116561035,18.3530537" id="Fill-81"></path>
                <path d="M18.296561,22.2920537 C19.621561,21.7500537 20.978561,21.4800537 22.418561,21.4310537 C23.662561,21.3890537 25.736561,21.4570537 26.357561,22.6360537 C26.618561,23.1290537 26.291561,23.6330537 25.724561,23.6840537 C24.686561,23.7770537 23.698561,22.9600537 22.700561,22.6830537 C21.314561,22.3020537 19.824561,22.3200537 18.418561,22.5640537 C18.251561,22.5940537 18.122561,22.3640537 18.296561,22.2920537" id="Fill-82"></path>
                <path d="M20.351561,23.9790537 C21.183561,23.9790537 21.884561,24.6250537 21.889561,25.4190537 C21.895561,26.2010537 21.203561,26.8750537 20.371561,26.8750537 C19.538561,26.8750537 18.836561,26.2290537 18.830561,25.4380537 C18.823561,24.6530537 19.515561,23.9790537 20.351561,23.9790537" id="Fill-83"></path>
                <path d="M10.087561,23.0560537 C10.715561,22.6720537 11.572561,22.7760537 11.976561,23.4410537 C12.391561,24.1170537 12.016561,25.0780537 11.186561,25.2640537 C10.859561,25.3380537 10.631561,25.3220537 10.308561,25.2700537 C9.75956103,25.1830537 9.37256103,24.6170537 9.37056103,24.1210537 C9.36556103,23.6420537 9.66256103,23.2660537 10.087561,23.0560537" id="Fill-84"></path>
                <path d="M9.39656103,33.4570537 C10.620561,32.4920537 12.097561,31.9360537 13.341561,30.9950537 C14.998561,29.7380537 15.169561,26.8700537 15.160561,25.0520537 C15.159561,25.0030537 15.238561,25.0030537 15.238561,25.0520537 C15.224561,26.8840537 15.348561,28.5480537 14.628561,30.2840537 C13.945561,31.9380537 12.252561,32.7610537 10.859561,33.8280537 C12.237561,34.4680537 14.417561,34.0930537 15.792561,34.0860537 C16.540561,34.0810537 16.546561,35.1670537 15.797561,35.1830537 C13.771561,35.2260537 11.032561,35.7320537 9.39156103,34.3020537 C9.15356103,34.0950537 9.14156103,33.6610537 9.39656103,33.4570537" id="Fill-85"></path>
                <path d="M10.628561,39.3250537 C16.050561,38.9610537 21.469561,38.6460537 26.910561,38.8050537 C27.114561,38.8100537 27.115561,39.0940537 26.910561,39.1040537 C21.854561,39.3320537 16.848561,39.9690537 11.843561,40.6710537 C13.335561,42.7840537 16.159561,41.7450537 18.521561,41.3080537 C20.872561,40.8710537 23.323561,40.5240537 25.715561,40.4330537 C26.197561,40.4160537 26.295561,41.1090537 25.829561,41.2190537 C22.373561,42.0380537 18.419561,43.0940537 14.859561,43.3680537 C12.295561,43.5630537 10.623561,42.6280537 9.86256103,40.2820537 C9.70556103,39.7910537 10.131561,39.3600537 10.628561,39.3250537" id="Fill-86"></path>
            </g>
        </g>
    </g>
</svg>