<?xml version="1.0" encoding="UTF-8"?>
<svg width="50px" height="47px" viewBox="0 0 50 47" version="1.1" xmlns="http://www.w3.org/2000/svg" xmlns:xlink="http://www.w3.org/1999/xlink">
    <title>Group 30</title>
    <g id="Page-1" stroke="none" stroke-width="1" fill="none" fill-rule="evenodd">
        <g id="vectorstock_1327683" transform="translate(-191.000000, -480.000000)" fill="#1B1A19">
            <g id="Group-30" transform="translate(191.238673, 480.923367)">
                <path d="M5.94832715,7.78963273 C5.98332715,7.79163273 6.01732715,7.78963273 6.04832715,7.79763273 C5.69232715,7.72363273 5.70332715,7.73663273 5.94832715,7.78963273" id="Fill-259"></path>
                <path d="M39.1363272,14.0376327 C43.3003272,13.4126327 44.2293272,13.6776327 41.9253272,14.8336327 C41.0323272,14.4896327 40.0923272,14.2236327 39.1363272,14.0376327 Z M19.3773272,41.7156327 C12.9053272,40.3716327 9.80532715,33.7766327 9.29532715,28.1376327 C9.28732715,28.0526327 9.29132715,27.9706327 9.28232715,27.8836327 C12.2763272,27.2556327 15.1993272,26.2986327 18.2513272,26.1596327 C17.4093272,29.3156327 16.9923272,32.5686327 16.2383272,35.7466327 C16.1153272,36.2656327 16.4993272,36.8816327 17.1193272,36.8426327 C19.1513272,36.7196327 21.0133272,36.1676327 22.8433272,35.3356327 C23.8363272,34.8826327 22.9713272,33.5276327 21.9853272,33.9466327 C20.7813272,34.4596327 19.5643272,34.8306327 18.2833272,35.0076327 C18.9413272,32.0776327 19.2633272,29.0846327 19.9213272,26.1626327 L19.9453272,26.1626327 C20.5733272,26.2006327 21.1083272,25.6296327 21.1053272,25.0606327 C21.1003272,24.1176327 21.1023272,22.9856327 20.9553272,21.8816327 C20.9743272,21.8816327 20.9843272,21.8896327 21.0013272,21.8896327 C21.7073272,21.8896327 22.4343272,21.8156327 23.1463272,21.7076327 C23.2443272,22.5206327 23.3193272,23.3356327 23.3023272,24.1706327 C23.2893272,24.6916327 23.8763272,25.1456327 24.4133272,24.9736327 C27.5273272,23.9866327 31.3003272,24.1196327 34.2113272,22.6806327 C37.0073272,21.3006327 35.8433272,17.3436327 35.1613272,14.9976327 C35.2843272,14.9996327 35.4063272,14.9956327 35.5333272,14.9996327 C37.8523272,16.9676327 39.4883272,19.7096327 40.0213272,23.7256327 C41.4063272,34.1246327 30.2313272,43.9726327 19.3773272,41.7156327 Z M10.5323272,20.2686327 C12.2703272,20.2356327 13.9603272,19.9126327 15.6953272,19.6456327 C18.5083272,19.2156327 18.7403272,21.7946327 18.7723272,23.9676327 C15.4903272,24.0456327 12.4313272,25.1076327 9.26332715,25.8096327 C9.36632715,23.8776327 9.79832715,22.0166327 10.5323272,20.2686327 Z M7.32332715,25.4746327 C6.99432715,24.5276327 6.62332715,23.5896327 6.30632715,22.6376327 C6.07332715,21.9456327 5.75532715,21.0286327 6.09932715,20.3226327 C6.37232715,19.7566327 7.40832715,19.6586327 8.29232715,19.5946327 C8.37532715,19.8336327 8.55732715,20.0346327 8.82432715,20.1486327 C8.07632715,21.8196327 7.56832715,23.6036327 7.32332715,25.4746327 Z M32.4473272,21.2726327 C29.9633272,21.9976327 27.4583272,22.2196327 25.0003272,22.9976327 C24.8993272,21.2166327 24.6833272,19.1066327 23.8363272,17.5496327 C26.7993272,16.3086327 30.0523272,15.5686327 33.2913272,15.7266327 C33.8823272,17.6356327 34.8243272,20.5766327 32.4473272,21.2726327 Z M19.6273272,10.6126327 C19.9823272,10.4236327 19.6723272,9.95263273 19.3163272,10.1056327 C18.4733272,10.4716327 17.6823272,10.8876327 16.9213272,11.3276327 C16.9943272,11.1876327 16.8553272,11.0096327 16.6663272,11.0926327 C13.7983272,12.3686327 11.2283272,13.7426327 8.25932715,13.4786327 C9.34932715,13.1946327 10.4343272,12.7966327 11.5393272,12.2676327 C12.2843272,11.9076327 11.9273272,10.7746327 11.1163272,10.7946327 C7.38632715,9.91963273 6.25632715,9.58363273 7.73132715,9.78263273 C9.68132715,10.0186327 11.6363272,10.1976327 13.5873272,10.4116327 C14.2813272,10.4866327 14.6453272,9.65663273 14.3453272,9.15863273 C13.6373272,7.96663273 12.2553272,6.88563273 11.4443272,5.62363273 C12.4293272,6.44663273 13.5983272,6.93963273 15.3553272,7.13363273 C15.8213272,7.18363273 16.3593272,6.68363273 16.2993272,6.23763273 C16.1893272,5.43263273 16.1223272,4.64463273 16.0703272,3.85363273 C17.4313272,5.37763273 18.9623272,6.29963273 21.7073272,6.18063273 C22.4963272,6.14363273 22.9033272,5.41263273 22.5703272,4.75963273 C22.3683272,4.16463273 22.1653272,3.56663273 21.9643272,2.97163273 C28.1993272,5.75463273 35.2543272,1.69663273 41.0743272,5.45163273 C40.2523272,5.55963273 39.4653272,5.85463273 38.5263272,6.46663273 C37.7583272,6.96763273 38.0283272,8.10663273 39.0053272,8.13763273 C43.0893272,9.12063273 44.3123272,9.70063273 42.6763272,9.86963273 C41.6413272,10.0066327 40.5253272,10.0756327 39.5913272,10.5896327 C38.2903272,11.3156327 38.2223272,11.7326327 37.8093272,12.9626327 C33.3613272,9.22563273 26.8243272,7.51063273 20.4143272,8.25563273 C19.5903272,8.35063273 19.2153272,9.60963273 20.2013272,9.76263273 C25.3413272,10.5586327 30.3083272,11.4956327 34.0133272,13.8586327 C29.9843272,13.5296327 25.8983272,14.6186327 22.3013272,16.2856327 C21.4523272,16.6776327 21.8603272,17.6726327 22.5913272,17.8526327 C22.6683272,18.4946327 22.7693272,19.1306327 22.8683272,19.7696327 C22.2513272,19.8676327 21.6373272,19.9716327 21.0013272,19.9906327 C20.8133272,19.9956327 20.6593272,20.0476327 20.5283272,20.1206327 C20.0943272,18.9336327 19.3443272,17.9436327 17.9623272,17.5256327 C16.0563272,16.9506327 13.7673272,17.7126327 11.6093272,18.1466327 C13.4453272,15.0356327 16.2363272,12.4126327 19.6273272,10.6126327 Z M44.2793272,16.0086327 C45.3763272,15.4606327 46.3073272,14.6706327 45.6613272,13.6216327 C44.3473272,11.4986327 35.4403272,11.7866327 44.3033272,11.3616327 C44.9393272,11.3326327 45.3123272,10.7276327 45.0103272,10.1876327 C44.3763272,9.03963273 43.7063272,8.21063273 42.8993272,7.61063273 C43.1563272,7.57963273 43.4163272,7.54963273 43.6713272,7.51863273 C44.6933272,7.67663273 45.4053272,6.65563273 44.6813272,5.87663273 C42.5383272,3.57063273 39.9903272,1.42263273 36.5143272,1.41363273 C31.0403272,1.40063273 25.9073272,4.13563273 20.9813272,0.241632734 C20.4183272,-0.199367266 19.2153272,0.00963273401 19.3303272,0.889632734 C19.4703272,1.97563273 19.7083272,2.89963273 20.0403272,3.81863273 C18.1913272,3.15163273 16.7803272,2.03163273 15.8383272,0.427632734 C15.3183272,-0.297367266 14.0193272,-0.072367266 14.0293272,0.889632734 C14.0553272,2.95763273 15.2973272,8.78763273 10.8483272,2.12563273 C10.4313272,1.49863273 9.39232715,1.58963273 9.17532715,2.33063273 C8.68232715,4.03263273 8.63132715,4.89563273 9.59832715,6.45363273 C10.0073272,7.11463273 10.9073272,7.74563273 11.4903272,8.25563273 C12.5023272,9.14163273 7.01432715,8.03163273 5.94832715,7.78963273 C5.38732715,7.74363273 4.77332715,8.20863273 4.99832715,8.79163273 C5.68832715,10.5776327 6.55632715,11.5356327 7.85732715,12.0016327 C6.85032715,12.2876327 5.84032715,12.4666327 4.81032715,12.4666327 C3.22332715,11.7736327 2.84332715,11.7926327 0.878327152,11.7326327 C-0.156672848,11.7016327 -0.328672848,13.1506327 0.640327152,13.4106327 C1.15232715,13.5496327 1.65732715,13.6566327 2.15532715,13.7426327 C4.31732715,14.3406327 6.39632715,15.3686327 8.64632715,15.3686327 C10.5183272,15.3686327 12.4363272,14.3466327 14.1583272,13.2306327 C12.3353272,14.7186327 10.8353272,16.4526327 9.70932715,18.3916327 C9.69532715,18.3926327 9.68132715,18.3926327 9.66532715,18.3936327 C9.58032715,18.2856327 9.46332715,18.2006327 9.31232715,18.1546327 C7.24232715,17.5626327 4.66632715,18.0436327 3.96632715,20.1956327 C3.23332715,22.4536327 5.17632715,25.4206327 5.71732715,27.5636327 C5.82032715,27.9666327 6.30632715,28.3676327 6.76232715,28.3146327 C6.89632715,28.2996327 7.02832715,28.2746327 7.16232715,28.2556327 C7.16532715,28.9636327 7.18932715,29.6816327 7.26532715,30.4066327 C8.02332715,37.8506327 13.3733272,43.9236327 21.2753272,44.9086327 C32.8593272,46.3526327 42.6903272,35.6956327 43.2843272,25.6006327 C43.5043272,21.8796327 42.5223272,18.7026327 40.7413272,16.1026327 C40.7983272,16.1266327 40.8523272,16.1586327 40.9103272,16.1806327 C41.0253272,16.6666327 41.4663272,17.0646327 42.0973272,16.8436327 C42.1243272,16.8346327 42.1613272,16.8256327 42.1943272,16.8136327 C44.4863272,18.0996327 46.1663272,20.0706327 46.2503272,22.7646327 C45.7733272,22.6136327 45.5593272,22.1706327 45.1303272,21.7166327 C44.2623272,20.8006327 42.8603272,22.1456327 43.7083272,23.0616327 C44.9393272,24.3836327 45.5593272,24.9626327 47.5133272,24.6566327 C47.9883272,24.5816327 48.2193272,24.1236327 48.2623272,23.7256327 C48.6553272,20.2506327 46.9073272,17.6766327 44.2793272,16.0086327 L44.2793272,16.0086327 Z" id="Fill-260"></path>
                <path d="M14.7663272,20.7066327 C12.4753272,20.7066327 12.4753272,24.0726327 14.7663272,24.0726327 C17.0573272,24.0726327 17.0573272,20.7066327 14.7663272,20.7066327" id="Fill-261"></path>
                <path d="M28.4163272,17.4426327 C27.2863272,17.4426327 26.7843272,18.2156327 26.4473272,19.0916327 C26.3203272,19.1016327 26.1913272,19.1136327 26.0633272,19.1226327 C25.8643272,19.1406327 25.8643272,19.4006327 26.0633272,19.4146327 C26.1913272,19.4276327 26.3203272,19.4386327 26.4473272,19.4506327 C26.7843272,20.3256327 27.2863272,21.0956327 28.4163272,21.0956327 C29.4693272,21.0956327 30.3473272,20.2676327 30.3473272,19.2696327 C30.3473272,18.2756327 29.4693272,17.4426327 28.4163272,17.4426327" id="Fill-262"></path>
                <path d="M28.8673272,37.7336327 C28.7603272,37.4336327 28.5113272,37.1096327 28.1543272,37.0536327 C27.3343272,36.9266327 26.5113272,37.1766327 25.7103272,37.3426327 C24.5013272,37.5926327 23.2963272,37.8386327 22.0613272,37.9206327 C21.0743272,37.9846327 21.0593272,39.3476327 22.0613272,39.3816327 C23.5853272,39.4356327 25.0973272,39.2556327 26.6103272,39.1046327 C27.3913272,39.0236327 29.3273272,39.0046327 28.8673272,37.7336327" id="Fill-263"></path>
            </g>
        </g>
    </g>
</svg>