<?xml version="1.0" encoding="UTF-8"?>
<svg width="48px" height="51px" viewBox="0 0 48 51" version="1.1" xmlns="http://www.w3.org/2000/svg" xmlns:xlink="http://www.w3.org/1999/xlink">
    <title>Group 53</title>
    <g id="Page-1" stroke="none" stroke-width="1" fill="none" fill-rule="evenodd">
        <g id="vectorstock_1327683" transform="translate(-501.000000, -297.000000)" fill="#0A0B09">
            <g id="Group-53" transform="translate(501.013110, 297.867095)">
                <path d="M29.4248902,5.14490487 C25.1598902,4.11590487 20.4258902,4.99090487 16.7108902,7.24190487 C16.0868902,7.61890487 15.4948902,8.04890487 14.9338902,8.51390487 C14.7968902,8.42690487 14.6138902,8.40990487 14.4378902,8.52590487 C12.5388902,9.76890487 11.1878902,11.6809049 9.81889023,13.4499049 C9.10389023,14.3719049 8.37689023,15.3189049 7.73689023,16.2939049 C7.46189023,16.7179049 7.24889023,17.2309049 7.02289023,17.7429049 C6.18889023,15.7409049 4.54989023,14.1989049 2.08589023,14.6529049 C-0.80810977,15.1839049 -0.0731097702,18.7019049 0.65989023,20.6329049 C0.98989023,21.5119049 1.49189023,22.3049049 1.92189023,23.1359049 C2.51189023,24.2789049 2.19589023,25.4229049 1.98689023,26.6119049 C1.75189023,27.9229049 2.02089023,28.9679049 3.03989023,29.8709049 C3.71189023,30.4689049 4.58689023,30.9579049 5.29989023,30.1939049 C6.04489023,29.3949049 5.65889023,27.6119049 5.42989023,26.7049049 C5.41989023,26.6529049 5.33789023,26.6609049 5.34689023,26.7139049 C5.48089023,27.6459049 5.50789023,28.6129049 5.20389023,29.5159049 C4.59989023,31.3039049 2.72089023,28.4929049 2.61889023,27.8149049 C2.45789023,26.7289049 3.00689023,25.6159049 2.96189023,24.5239049 C2.91289023,23.3259049 2.30589023,22.3319049 1.80189023,21.2729049 C1.15189023,19.9119049 0.18089023,17.1349049 1.61589023,15.9899049 C2.85089023,15.0069049 4.29989023,16.1589049 4.81989023,17.2649049 C5.25089023,18.1839049 5.41189023,19.3459049 5.59789023,20.3409049 C5.76889023,21.2529049 6.80189023,21.5039049 7.41589023,20.8429049 C7.89989023,20.3189049 8.19389023,19.6659049 8.45389023,19.0039049 C10.3708902,16.0519049 11.9978902,13.0109049 14.6348902,10.5399049 C17.5668902,7.79490487 21.2368902,6.48190487 25.2188902,6.40690487 C30.6828902,6.30190487 35.5548902,9.21090487 38.7758902,13.4819049 C45.5518902,22.4739049 45.0818902,36.2719049 36.2658902,43.6939049 C31.0828902,48.0609049 23.6998902,49.6099049 17.5528902,46.3629049 C14.0148902,44.4959049 11.6788902,40.8989049 9.97389023,37.4089049 C8.34089023,34.0739049 7.10289023,30.4609049 6.04089023,26.9029049 C6.03689023,26.8879049 6.01089023,26.8979049 6.01589023,26.9149049 C8.11289023,33.7639049 9.49289023,41.2569049 15.0968902,46.2599049 C20.0328902,50.6689049 27.2578902,50.5119049 32.9658902,47.8189049 C38.2348902,45.3329049 42.3828902,40.6439049 44.1728902,35.1069049 C45.7918902,30.0989049 45.4758902,24.6049049 43.8958902,19.6359049 C41.7228902,12.7999049 36.5498902,6.86290487 29.4248902,5.14490487" id="Fill-385"></path>
                <path d="M32.0958902,13.3569049 C31.3098902,12.8139049 28.0438902,10.3479049 27.0738902,11.6609049 C27.0298902,11.7219049 26.9928902,11.7889049 26.9658902,11.8559049 C26.8228902,11.9559049 26.7168902,12.1049049 26.7058902,12.2729049 C26.6598902,12.8979049 26.7848902,13.3889049 27.0008902,13.9769049 C27.3388902,14.9009049 27.4808902,15.9019049 27.7278902,16.8519049 C28.1498902,18.4719049 28.7658902,19.8799049 29.6338902,21.3079049 C31.1028902,23.7249049 32.9798902,25.8839049 35.0538902,27.7939049 C35.8948902,28.5689049 36.7378902,29.3499049 37.4658902,30.2369049 C37.6328902,30.4399049 37.8218902,30.9559049 37.9318902,30.7699049 C37.6998902,31.1589049 37.0348902,31.2829049 36.6468902,31.4219049 C34.6328902,32.1409049 32.3808902,31.9579049 30.3858902,32.7119049 C30.2558902,32.7609049 30.3118902,32.9779049 30.4518902,32.9489049 C32.7238902,32.4829049 35.1698902,33.2379049 37.4208902,32.5549049 C38.2088902,32.3159049 39.0908902,31.9139049 39.2868902,31.0319049 C39.4668902,30.2209049 38.5538902,29.2609049 38.0948902,28.7169049 C37.2478902,27.7129049 36.2758902,26.8099049 35.3438902,25.8829049 C34.2578902,24.7949049 33.3648902,23.5239049 32.4758902,22.2739049 C31.1168902,20.3599049 30.1548902,18.4259049 29.6528902,16.1359049 C29.4508902,15.2229049 29.2608902,14.1319049 28.8258902,13.2279049 C29.7388902,13.5959049 30.6418902,13.9739049 31.5258902,14.4039049 C32.8958902,15.0679049 34.9488902,15.8779049 35.9208902,17.1109049 C36.0818902,17.3149049 36.4108902,17.1349049 36.2758902,16.8979049 C35.4228902,15.4159049 33.4638902,14.3019049 32.0958902,13.3569049" id="Fill-386"></path>
                <path d="M23.4218902,12.4149049 C21.9608902,12.3909049 20.8418902,14.0839049 20.0448902,15.1419049 C19.0508902,16.4569049 18.2178902,17.8669049 17.2998902,19.2319049 C17.2918902,19.2459049 17.3128902,19.2599049 17.3238902,19.2489049 C18.5078902,18.1429049 19.7398902,17.0749049 20.9748902,16.0269049 C21.9438902,15.2079049 23.6288902,14.2989049 23.8658902,12.9799049 C23.9198902,12.6899049 23.7268902,12.4189049 23.4218902,12.4149049" id="Fill-387"></path>
                <path d="M24.3468902,16.0819049 C23.6178902,15.7939049 22.7688902,16.1649049 22.4828902,16.8929049 C22.1978902,17.6159049 22.5568902,18.4259049 23.2508902,18.7399049 C23.8558902,19.0109049 24.5938902,18.7989049 24.9808902,18.2689049 C25.5298902,17.5189049 25.2108902,16.4199049 24.3468902,16.0819049" id="Fill-388"></path>
                <path d="M31.1468902,16.5069049 C31.1118902,16.5519049 31.0788902,16.5939049 31.0458902,16.6369049 C30.6508902,17.1529049 30.6578902,17.8959049 31.0548902,18.4079049 C31.4378902,18.8979049 32.1778902,19.1319049 32.7578902,18.8569049 C32.8058902,18.8339049 32.8558902,18.8089049 32.9048902,18.7869049 C33.2688902,18.6149049 33.5548902,18.3589049 33.7118902,17.9789049 C33.9158902,17.4899049 33.8378902,16.9129049 33.5108902,16.4919049 C32.9168902,15.7279049 31.7328902,15.7429049 31.1468902,16.5069049" id="Fill-389"></path>
                <path d="M14.1518902,5.59290487 C12.3258902,6.56590487 11.6208902,8.49390487 10.3738902,10.0159049 C8.80289023,11.9309049 7.58089023,14.0949049 6.58689023,16.3539049 C6.56589023,16.4039049 6.63389023,16.4419049 6.66289023,16.3939049 C7.46489023,14.9949049 8.35489023,13.6719049 9.36989023,12.4159049 C10.2158902,11.3719049 11.2078902,10.4709049 12.0408902,9.41890487 C12.9048902,8.32590487 13.7098902,7.57790487 14.9038902,6.87190487 C15.3778902,6.59090487 15.3628902,6.05490487 15.0428902,5.69890487 C14.8188902,5.44690487 14.4258902,5.44490487 14.1518902,5.59290487" id="Fill-390"></path>
                <path d="M13.2588902,2.53390487 C11.2908902,3.89890487 9.53289023,6.09990487 8.25589023,8.10490487 C6.93989023,10.1709049 6.04689023,12.4019049 5.99886114,14.8729049 C5.99589023,15.0159049 6.22589023,15.0269049 6.24589023,14.8859049 C6.55989023,12.3829049 7.75489023,10.2489049 9.35089023,8.33290487 C10.8238902,6.55890487 12.7068902,5.33390487 14.3518902,3.76190487 C15.0428902,3.10690487 14.0118902,2.01190487 13.2588902,2.53390487" id="Fill-391"></path>
                <path d="M12.2158902,0.210904873 C7.96189023,3.84390487 4.28389023,8.00890487 4.77389023,13.9609049 C4.78689023,14.1029049 5.01189023,14.0869049 5.02289023,13.9499049 C5.34189023,8.48690487 9.25889023,4.68690487 13.3498902,1.53290487 C14.2348902,0.847904873 13.0738902,-0.525095127 12.2158902,0.210904873" id="Fill-392"></path>
                <path d="M37.2158902,3.68390487 C36.4648902,3.77090487 36.1628902,4.63390487 36.7058902,5.16690487 C37.4398902,5.88490487 38.1978902,6.43990487 38.8518902,7.28490487 C39.6958902,8.36990487 40.4548902,9.52090487 41.2038902,10.6749049 C43.2368902,13.8109049 44.8328902,17.3669049 44.4028902,21.1909049 C44.3848902,21.3509049 44.6028902,21.3959049 44.6438902,21.2409049 C45.7268902,17.4459049 44.4788902,13.3659049 42.5538902,10.0479049 C41.7728902,8.70290487 40.9698902,7.37590487 40.0738902,6.10590487 C39.4968902,5.28690487 38.4108902,3.54190487 37.2158902,3.68390487" id="Fill-393"></path>
                <path d="M41.3638902,3.81090487 C41.0378902,3.80190487 40.8228902,4.11190487 41.0078902,4.40290487 C41.7308902,5.53390487 42.6498902,6.45090487 43.2598902,7.67590487 C43.9008902,8.96490487 44.4378902,10.3779049 44.8408902,11.7569049 C45.6668902,14.6059049 45.2278902,17.6409049 45.5338902,20.5529049 C45.5468902,20.7029049 45.7468902,20.6909049 45.7788902,20.5609049 C46.5748902,17.4109049 46.8918902,14.1729049 46.2198902,10.9619049 C45.7358902,8.64790487 44.2558902,3.91490487 41.3638902,3.81090487" id="Fill-394"></path>
                <path d="M35.5898902,39.3909049 C33.2128902,38.5089049 28.8478902,39.6729049 27.8578902,42.2039049 C27.7058902,42.5959049 27.8038902,42.9299049 28.0898902,43.2249049 C28.1078902,43.2469049 28.1288902,43.2649049 28.1448902,43.2839049 C28.3238902,43.4689049 28.6018902,43.4559049 28.8258902,43.3989049 C29.3038902,43.2759049 29.3868902,42.8919049 29.6408902,42.5329049 C30.0438902,41.9649049 30.7148902,41.6159049 31.2878902,41.2489049 C32.5078902,40.4719049 34.0318902,39.4969049 35.5418902,39.5499049 C35.6258902,39.5519049 35.6848902,39.4269049 35.5898902,39.3909049" id="Fill-395"></path>
                <path d="M1.95589023,18.1649049 C1.26289023,20.1549049 3.27789023,22.0799049 3.89889023,23.8009049 C3.93489023,23.9019049 4.08389023,23.8549049 4.05889023,23.7509049 C3.75789023,22.6149049 3.12889023,21.6029049 2.71489023,20.5079049 C2.47489023,19.8789049 2.30689023,19.0389049 2.59689023,18.4019049 C2.89889023,17.7339049 3.93989023,19.0609049 4.20989023,19.2119049 C4.41189023,19.3189049 4.73389023,19.1589049 4.69789023,18.9069049 C4.53889023,17.8189049 2.45889023,16.7259049 1.95589023,18.1649049" id="Fill-396"></path>
            </g>
        </g>
    </g>
</svg>