<?xml version="1.0" encoding="UTF-8"?>
<svg width="48px" height="49px" viewBox="0 0 48 49" version="1.1" xmlns="http://www.w3.org/2000/svg" xmlns:xlink="http://www.w3.org/1999/xlink">
    <title>Group 43</title>
    <g id="Page-1" stroke="none" stroke-width="1" fill="none" fill-rule="evenodd">
        <g id="vectorstock_1327683" transform="translate(-442.000000, -359.000000)" fill="#0A0B09">
            <g id="Group-43" transform="translate(442.612143, 359.100777)">
                <path d="M2.07885698,16.9102228 C1.93985698,16.9012228 1.97785698,16.9042228 1.81785698,16.8662228 C1.76485698,16.8562228 1.51085698,16.7642228 1.60785698,16.8062228 C1.36685698,16.7002228 1.38585698,16.7092228 1.22585698,16.5162228 C1.31285698,16.6202228 1.17685698,16.4242228 1.15685698,16.3812228 C1.15485698,16.3732228 1.15285698,16.3692228 1.14985698,16.3572228 C1.13385698,16.3182228 1.12185698,16.2762228 1.11285698,16.2362228 C1.06785698,16.0592228 1.09585698,16.2172228 1.08385698,16.0762228 C1.07685698,15.9692228 1.07985698,15.8612228 1.08585698,15.7562228 C1.09585698,15.6262228 1.08185698,15.7332228 1.11585698,15.5622228 C1.13685698,15.4642228 1.16285698,15.3652228 1.19085698,15.2702228 C1.26685698,15.0232228 1.30185698,14.9432228 1.42485698,14.7152228 C1.80285698,13.9922228 2.42385698,13.3442228 3.17485698,13.1482228 C3.49685698,13.0632228 3.82685698,13.1032228 4.15485698,13.2862228 C4.65485698,13.5662228 4.87185698,14.0932228 5.26985698,14.4712228 C5.32485698,14.5242228 5.37585698,14.5802228 5.42685698,14.6382228 C5.41485698,14.6512228 5.40585698,14.6672228 5.39385698,14.6832228 C4.71185698,13.7762228 3.25885698,14.0902228 2.45685698,14.7042228 C2.32885698,14.8052228 2.43685698,15.0042228 2.58885698,14.9282228 C3.01985698,14.7122228 3.47585698,14.6052228 3.95585698,14.6882228 C4.26685698,14.7402228 4.55385698,15.1002228 4.78985698,15.2932228 C4.82785698,15.3282228 4.87185698,15.3512228 4.91685698,15.3682228 C4.62285698,15.8042228 4.34685698,16.2532228 4.08985698,16.7182228 C3.41485698,16.7752228 2.76785698,16.9552228 2.07885698,16.9102228 Z M31.936857,4.41822281 C26.449857,2.29922281 19.853857,2.29622281 14.288857,4.12522281 C13.741857,4.30522281 13.201857,4.50922281 12.674857,4.73322281 C15.651857,1.93122281 19.891857,0.871222809 23.922857,1.15222281 C26.110857,1.30522281 28.219857,1.74822281 30.184857,2.74922281 C31.086857,3.21122281 31.918857,3.79422281 32.669857,4.47722281 C32.799857,4.59422281 32.928857,4.74022281 33.057857,4.90122281 C32.685857,4.72522281 32.313857,4.56222281 31.936857,4.41822281 Z M44.826857,13.7942228 C44.109857,13.2132228 42.990857,12.8142228 42.129857,13.3112228 C41.003857,13.9602228 40.896857,15.7532228 40.876857,16.8832228 C40.876857,16.9332228 40.944857,16.9302228 40.950857,16.8832228 C41.058857,15.9012228 41.222857,14.6512228 42.040857,13.9822228 C42.516857,13.5902228 43.063857,13.7422228 43.493857,14.0002228 C44.023857,14.3152228 44.600857,14.9482228 44.930857,15.4382228 C45.035857,15.5922228 45.129857,15.7532228 45.217857,15.9182228 C45.262857,16.0002228 45.302857,16.0812228 45.341857,16.1642228 C45.354857,16.1912228 45.366857,16.2172228 45.378857,16.2422228 C45.374857,16.2402228 45.422857,16.3462228 45.427857,16.3632228 C45.490857,16.5262228 45.542857,16.6932228 45.586857,16.8622228 C45.605857,16.9442228 45.621857,17.0262228 45.638857,17.1092228 C45.640857,17.1162228 45.641857,17.1312228 45.644857,17.1462228 C45.647857,17.1872228 45.649857,17.2312228 45.655857,17.2722228 C45.659857,17.3502228 45.660857,17.4272228 45.658857,17.5042228 C45.658857,17.5312228 45.648857,17.6142228 45.647857,17.6562228 C45.637857,17.7102228 45.623857,17.7642228 45.611857,17.8162228 C45.602857,17.8522228 45.590857,17.8842228 45.577857,17.9182228 C45.575857,17.9242228 45.575857,17.9252228 45.574857,17.9292228 C45.574857,17.9302228 45.574857,17.9302228 45.572857,17.9332228 C45.543857,17.9942228 45.507857,18.0542228 45.468857,18.1102228 C45.450857,18.1342228 45.429857,18.1572228 45.408857,18.1792228 C45.382857,18.2052228 45.354857,18.2302228 45.326857,18.2532228 C45.255857,18.3052228 45.179857,18.3482228 45.100857,18.3872228 C45.094857,18.3892228 45.093857,18.3902228 45.090857,18.3922228 C45.051857,18.4072228 45.011857,18.4202228 44.973857,18.4322228 C44.882857,18.4612228 44.789857,18.4842228 44.696857,18.5022228 C44.670857,18.5072228 44.645857,18.5112228 44.617857,18.5152228 C44.608857,18.5172228 44.525857,18.5272228 44.508857,18.5272228 C44.368857,18.5392228 44.230857,18.5422228 44.091857,18.5402228 C43.798857,18.5372228 43.491857,18.5002228 43.298857,18.4692228 C43.135857,18.4432228 42.974857,18.4072228 42.813857,18.3742228 C42.460857,18.2972228 42.286857,18.4442228 41.967857,18.4862228 C41.951857,18.4902228 41.938857,18.4932228 41.922857,18.4982228 C41.876857,18.4202228 41.824857,18.3442228 41.776857,18.2672228 C41.822857,17.9252228 41.925857,17.5982228 42.075857,17.2862228 C42.368857,16.6842228 42.907857,16.2542228 43.407857,15.8322228 C43.545857,15.7162228 43.416857,15.5362228 43.275857,15.5182228 C42.425857,15.4052228 41.831857,16.0442228 41.359857,16.6812228 C41.259857,16.8162228 41.144857,16.9922228 41.039857,17.1892228 C40.700857,16.7332228 40.341857,16.2942228 39.961857,15.8762228 C39.965857,15.8672228 39.967857,15.8592228 39.970857,15.8482228 C40.883857,11.6092228 38.356857,8.16722281 35.024857,5.99522281 C35.255857,5.11022281 34.073857,4.17722281 33.504857,3.63922281 C32.697857,2.87622281 31.759857,2.24922281 30.779857,1.73022281 C28.714857,0.631222809 26.262857,0.0132228087 23.922857,3.19744231e-14 C19.622857,-0.0217771913 15.098857,1.58522281 12.275857,4.91022281 C10.955857,5.50722281 9.71085698,6.24922281 8.59085698,7.16922281 C7.05385698,8.42922281 5.99485698,10.2482228 5.45785698,12.1532228 C5.45185698,12.1772228 5.48585698,12.1852228 5.49385698,12.1642228 C6.42985698,9.66522281 8.59685698,7.77422281 10.871857,6.48122281 C13.440857,5.02322281 16.417857,4.29922281 19.335857,3.97722281 C24.872857,3.36222281 31.573857,4.16822281 35.934857,7.95222281 C36.992857,8.87122281 37.873857,10.0152228 38.395857,11.3222228 C38.855857,12.4742228 38.936857,13.6222228 38.912857,14.8142228 C34.966857,11.1232228 29.427857,9.17822281 24.080857,8.91022281 C23.742857,8.89322281 23.684857,9.40322281 24.002857,9.49022281 C28.140857,10.6212228 32.368857,11.9942228 35.904857,14.4942228 C39.493857,17.0322228 41.764857,20.8322228 42.575857,25.1232228 C44.282857,34.1752228 37.870857,43.4092228 28.970857,45.2712228 C22.284857,46.6682228 14.971857,44.8752228 9.90985698,40.2622228 C5.54185698,36.2852228 3.11985698,30.4832228 3.20985698,24.5932228 C3.26485698,20.9272228 4.48385698,17.3672228 6.63985698,14.4082228 C9.31085698,10.7422228 13.370857,8.36622281 17.622857,6.98522281 C17.802857,6.92722281 17.730857,6.64822281 17.544857,6.70022281 C12.942857,7.99722281 8.76385698,10.4512228 5.85485698,14.0822228 C5.83285698,13.9772228 5.80285698,13.8772228 5.75585698,13.7942228 C5.59685698,13.5112228 5.40985698,13.2422228 5.19285698,13.0002228 C4.86285698,12.6292228 4.41685698,12.3472228 3.93485698,12.2342228 C2.98885698,12.0142228 2.06785698,12.4822228 1.38585698,13.1112228 C0.197856979,14.2082228 -0.877143021,16.8612228 1.07985698,17.8072228 C1.76685698,18.1382228 2.65285698,18.1702228 3.45085698,17.9942228 C3.34585698,18.2262228 3.24185698,18.4582228 3.14785698,18.6942228 C0.926856979,24.1802228 1.61585698,30.4072228 4.27785698,35.6022228 C7.14485698,41.1972228 12.400857,45.2962228 18.484857,46.8102228 C22.116857,47.7142228 26.059857,47.7252228 29.715857,46.9602228 C33.981857,46.0682228 37.809857,43.4802228 40.455857,40.0562228 C44.914857,34.2892228 45.877857,26.3042228 42.634857,19.7902228 C42.740857,19.8062228 42.845857,19.8212228 42.952857,19.8352228 C43.268857,19.8762228 43.581857,19.9012228 43.903857,19.9032228 C44.389857,19.9062228 44.905857,19.8522228 45.365857,19.6742228 C46.193857,19.3582228 46.722857,18.7192228 46.837857,17.8382228 C47.038857,16.3322228 45.939857,14.6982228 44.826857,13.7942228 L44.826857,13.7942228 Z" id="Fill-371"></path>
                <path d="M17.583857,12.8632228 C17.492857,13.1962228 17.136857,13.4002228 16.802857,13.3072228 C16.577857,13.2452228 16.390857,13.0532228 16.351857,12.8212228 C16.352857,12.8232228 16.352857,12.8252228 16.357857,12.8272228 C16.329857,12.7402228 16.329857,12.6502228 16.357857,12.5632228 C16.352857,12.5642228 16.352857,12.5662228 16.351857,12.5682228 C16.352857,12.5552228 16.355857,12.5392228 16.359857,12.5262228 C16.413857,12.1822228 16.833857,11.9982228 17.139857,12.0822228 C17.476857,12.1742228 17.675857,12.5282228 17.583857,12.8632228 Z M17.289857,11.1252228 C16.241857,11.1252228 15.369857,11.9982228 15.369857,13.0442228 C15.369857,14.0902228 16.241857,14.9642228 17.289857,14.9642228 C18.334857,14.9642228 19.207857,14.0902228 19.207857,13.0442228 C19.207857,11.9982228 18.334857,11.1252228 17.289857,11.1252228 L17.289857,11.1252228 Z" id="Fill-372"></path>
                <path d="M23.492857,15.4372228 C23.181857,15.4372228 22.922857,15.1772228 22.922857,14.8672228 C22.922857,14.6912228 22.994857,14.5552228 23.110857,14.4552228 C23.289857,14.1752228 23.690857,14.1752228 23.869857,14.4552228 C23.985857,14.5552228 24.058857,14.6912228 24.058857,14.8672228 C24.058857,15.1772228 23.800857,15.4372228 23.492857,15.4372228 Z M23.477857,13.5372228 C22.576857,13.5372228 21.826857,14.2862228 21.826857,15.1832228 C21.826857,16.0792228 22.576857,16.8292228 23.477857,16.8292228 C24.371857,16.8292228 25.120857,16.0792228 25.120857,15.1832228 C25.120857,14.2862228 24.371857,13.5372228 23.477857,13.5372228 L23.477857,13.5372228 Z" id="Fill-373"></path>
                <path d="M19.587857,15.9602228 C18.232857,18.6262228 15.916857,21.0212228 12.983857,21.8742228 C12.623857,21.9832228 12.476857,22.3172228 12.536857,22.6642228 C12.705857,23.6672228 13.146857,24.5212228 13.893857,25.2132228 C14.545857,25.8162228 15.618857,26.4892228 16.516857,26.1512228 C16.766857,26.0572228 16.919857,25.7802228 16.768857,25.5272228 C16.394857,24.8982228 15.731857,24.7382228 15.136857,24.3672228 C14.538857,23.9942228 14.162857,23.4892228 13.935857,22.8732228 C16.840857,21.6182228 18.745857,19.0152228 19.722857,16.0182228 C19.748857,15.9372228 19.626857,15.8862228 19.587857,15.9602228" id="Fill-374"></path>
                <path d="M32.253857,33.0702228 C30.260857,36.8162228 26.072857,38.4122228 21.977857,38.0812228 C20.034857,37.9232228 18.083857,37.2502228 16.444857,36.2102228 C14.758857,35.1402228 13.524857,33.4892228 12.475857,31.8222228 C12.322857,31.5782228 11.996857,31.7482228 12.036857,32.0072228 C12.707857,36.4952228 17.638857,39.0602228 21.769857,39.3792228 C26.301857,39.7282228 30.633857,37.4272228 32.444857,33.1812228 C32.500857,33.0542228 32.322857,32.9402228 32.253857,33.0702228" id="Fill-375"></path>
                <path d="M19.240857,8.56422281 C17.194857,8.01322281 14.672857,9.38922281 13.360857,10.8852228 C13.245857,11.0132228 13.412857,11.1712228 13.540857,11.0682228 C14.323857,10.4472228 15.170857,10.0442228 16.140857,9.81522281 C17.149857,9.57722281 18.059857,9.89122281 19.059857,9.86922281 C19.806857,9.85222281 19.971857,8.76222281 19.240857,8.56422281" id="Fill-376"></path>
                <path d="M27.506857,13.2892228 C27.102857,12.3202228 26.774857,11.5062228 25.875857,10.9072228 C25.106857,10.3942228 23.780857,10.1092228 22.942857,10.5472228 C22.561857,10.7462228 22.650857,11.3582228 23.062857,11.4572228 C23.846857,11.6492228 24.596857,11.3902228 25.373857,11.7642228 C26.088857,12.1082228 26.756857,12.7742228 27.170857,13.4332228 C27.276857,13.6032228 27.590857,13.4892228 27.506857,13.2892228" id="Fill-377"></path>
            </g>
        </g>
    </g>
</svg>