<?xml version="1.0" encoding="UTF-8"?>
<svg width="48px" height="49px" viewBox="0 0 48 49" version="1.1" xmlns="http://www.w3.org/2000/svg" xmlns:xlink="http://www.w3.org/1999/xlink">
    <title>Group 48</title>
    <g id="Page-1" stroke="none" stroke-width="1" fill="none" fill-rule="evenodd">
        <g id="vectorstock_1327683" transform="translate(-192.000000, -298.000000)" fill="#1B1A19">
            <g id="Group-48" transform="translate(192.265997, 298.221439)">
                <path d="M5.8180029,13.8585606 C8.4040029,11.2235606 11.8280029,9.3975606 15.4930029,8.1125606 C13.0850029,8.1975606 10.8920029,8.2415606 8.5090029,9.2585606 C5.7550029,10.4365606 3.0320029,12.4625606 1.7150029,15.0855606 C1.5780029,15.3625606 1.0940029,15.1715606 1.1970029,14.8825606 C2.2780029,11.8065606 4.0280029,9.6115606 6.9450029,7.8435606 C9.3720029,6.3765606 13.3220029,5.3035606 16.3310029,5.9105606 C15.0880029,5.3135606 13.6600029,5.0485606 12.2890029,4.9345606 C9.5380029,4.7025606 6.5690029,5.3135606 4.0330029,6.3035606 C3.9330029,6.3395606 3.8390029,6.2155606 3.8950029,6.1395606 C5.7590029,3.5975606 9.1420029,2.9515606 12.2760029,3.0945606 C13.7290029,3.1665606 17.2960029,3.7555606 18.9230029,5.1495606 C19.2390029,4.8695606 19.5860029,4.6165606 19.9500029,4.3775606 C19.6640029,4.0775606 19.3860029,3.7665606 19.0600029,3.4855606 C17.9800029,2.5455606 16.5150029,2.1045606 15.1130029,1.8235606 C12.4280029,1.2865606 9.2890029,1.2315606 6.5810029,1.5985606 C6.4890029,1.6095606 6.4500029,1.4945606 6.5410029,1.4695606 C9.5610029,0.584560597 12.3530029,-0.352439403 15.5910029,0.132560597 C17.5480029,0.422560597 20.4480029,1.6045606 21.6520029,3.4235606 C22.3140029,3.0985606 22.9820029,2.8085606 23.6040029,2.5415606 C26.0860029,1.4725606 28.7570029,0.926560597 31.4750029,0.817560597 C37.3710029,0.580560597 42.8010029,3.3135606 46.2420029,7.7555606 C46.3250029,7.8645606 46.1540029,7.9695606 46.0570029,7.8935606 C41.8720029,4.6235606 37.0030029,2.4165606 31.4890029,2.5275606 C29.3840029,2.5705606 27.3030029,3.0495606 25.3460029,3.7825606 C28.4190029,3.2885606 31.6570029,3.6025606 34.6480029,4.3605606 C37.4550029,5.0725606 40.1360029,6.3805606 42.2300029,8.3015606 C43.9280029,9.8575606 45.7440029,12.6355606 45.2000029,14.9625606 C45.1630029,15.1275606 44.9370029,15.0965606 44.8810029,14.9645606 C44.4210029,13.8715606 44.2640029,12.7415606 43.6990029,11.6725606 C43.0940029,10.5305606 42.1720029,9.5835606 41.1680029,8.7535606 C39.1180029,7.0565606 36.4580029,6.0945606 33.8380029,5.5275606 C31.1480029,4.9415606 28.2960029,4.9085606 25.5860029,5.3665606 C24.3650029,5.5715606 23.1730029,5.9025606 22.0400029,6.3765606 C23.1300029,6.1615606 24.2160029,5.9795606 25.2770029,5.8275606 C25.3340029,5.7815606 25.3940029,5.7395606 25.4590029,5.7145606 C27.4350029,4.9145606 30.3970029,5.7045606 32.3960029,6.2225606 C34.4410029,6.7515606 36.3100029,7.6945606 37.9750029,8.9245606 C41.7580029,11.7165606 43.8570029,16.3395606 44.8420029,20.6475606 C44.8530029,20.6955606 44.7800029,20.7335606 44.7550029,20.6845606 C42.8440029,16.9815606 41.0890029,13.0925606 37.7010029,10.3685606 C36.0570029,9.0465606 34.0310029,8.2515606 31.9600029,7.7615606 C29.8100029,7.2515606 27.3240029,7.6815606 25.3090029,6.8625606 C25.1120029,6.7795606 25.0210029,6.6465606 24.9920029,6.4965606 C15.1960029,9.1415606 4.9200029,13.2435606 2.3900029,23.6275606 C0.00500290291,33.4155606 6.4200029,42.9025606 16.4940029,45.4255606 C32.5950029,49.4615606 43.6690029,33.5465606 40.2240029,19.8335606 C39.0150029,15.0135606 35.9000029,10.8645606 31.6540029,8.0105606 C31.5330029,7.9315606 31.6440029,7.7355606 31.7720029,7.8175606 C43.4510029,15.1435606 44.8640029,31.0295606 36.2820029,41.0815606 C32.0110029,46.0855606 25.1110029,48.3965606 18.4470029,47.4915606 C9.3290029,46.2515606 2.2530029,40.3325606 0.415002903,31.6985606 C-0.956997097,25.2725606 1.1310029,18.6305606 5.8180029,13.8585606" id="Fill-118"></path>
                <path d="M15.4050029,25.3665606 C15.5480029,26.1625606 15.7530029,26.8925606 16.0000029,27.4565606 C17.2100029,30.2445606 19.3420029,32.4625606 22.2670029,33.6975606 C23.6230029,34.2695606 24.9540029,34.5335606 26.2280029,34.5455606 C23.8640029,36.0115606 21.4480029,37.2045606 18.9250029,35.6065606 C16.2410029,33.9085606 15.5980029,30.9515606 15.4960029,28.0885606 C15.4630029,27.1895606 15.4010029,26.2755606 15.4050029,25.3665606 Z M13.9090029,28.6355606 C14.0490029,31.7605606 14.7750029,34.6005606 17.4480029,36.6685606 C19.6930029,38.4095606 22.6630029,38.0085606 25.0960029,36.8665606 C27.0950029,35.9275606 29.6720029,34.6155606 31.4220029,33.0145606 C33.6880029,31.5305606 35.3570029,29.0915606 35.9860029,26.2065606 C36.0070029,26.1145606 35.8560029,26.0435606 35.8120029,26.1405606 C33.5700029,31.1855606 28.2300029,35.0055606 22.5100029,31.9355606 C20.2090029,30.6975606 18.3730029,28.6765606 17.7070029,26.2155606 C17.3370029,24.8565606 17.1450029,23.4475606 17.3030029,22.0435606 C17.4440029,20.7965606 18.0500029,19.5435606 17.7300029,18.2955606 C17.6760029,18.0795606 17.3700029,17.9555606 17.1720029,18.0845606 C16.1490029,18.7465606 15.5890029,19.9715606 15.3480029,21.3575606 C14.0300029,23.3035606 13.8200029,26.6935606 13.9090029,28.6355606 L13.9090029,28.6355606 Z" id="Fill-119"></path>
                <path d="M26.5430029,11.1645606 C27.5250029,11.1555606 28.3500029,11.9255606 28.3570029,12.8535606 C28.3650029,13.7815606 27.5520029,14.5635606 26.5700029,14.5695849 C25.5900029,14.5745606 24.7650029,13.8075606 24.7569699,12.8775606 C24.7510029,11.9495606 25.5650029,11.1715606 26.5430029,11.1645606" id="Fill-120"></path>
                <path d="M34.0840029,16.1185606 C35.0130029,16.1115606 35.7970029,16.8385606 35.8030271,17.7165606 C35.8080029,18.5995606 35.0380029,19.3365606 34.1120029,19.3445606 C33.1800029,19.3515606 32.4020029,18.6215606 32.3950029,17.7405606 C32.3870029,16.8635606 33.1570029,16.1235606 34.0840029,16.1185606" id="Fill-121"></path>
                <path d="M24.9190029,24.7645606 C25.4640029,24.7965606 26.0100029,24.8425606 26.5460029,24.9345606 C27.4450029,20.6495606 28.1270029,16.3205606 30.9900029,12.7345606 C31.1510029,12.5325606 31.5020029,12.7025606 31.3590029,12.9345606 C28.8820029,16.9725606 28.7700029,21.6795606 28.0990029,26.1905606 C28.0610029,26.4515606 27.7520029,26.7415606 27.4810029,26.7865606 C26.1580029,27.0085606 24.9640029,26.4985606 24.5090029,25.2785606 C24.4230029,25.0405606 24.6510029,24.7485606 24.9190029,24.7645606" id="Fill-122"></path>
            </g>
        </g>
    </g>
</svg>