<?xml version="1.0" encoding="UTF-8"?>
<svg width="50px" height="50px" viewBox="0 0 50 50" version="1.1" xmlns="http://www.w3.org/2000/svg" xmlns:xlink="http://www.w3.org/1999/xlink">
    <title>Group 2</title>
    <g id="Page-1" stroke="none" stroke-width="1" fill="none" fill-rule="evenodd">
        <g id="vectorstock_1327683" transform="translate(-11.000000, -72.000000)" fill="#0A0B09">
            <g id="Group-2" transform="translate(11.176824, 72.073914)">
                <path d="M39.2811759,8.33908572 C36.1231759,6.40108572 32.6811759,4.90208572 29.1661759,3.71508572 C31.0121759,2.73908572 32.7791759,1.87308572 34.9881759,2.07308572 C37.2771759,2.27908572 39.3391759,3.73108572 40.9481759,5.27108572 C42.6061759,6.85708572 43.7991759,8.89208572 44.3931759,11.1040857 C44.5281759,11.5970857 44.6091759,12.0770857 44.6491759,12.5470857 C44.4371759,12.3530857 44.2251759,12.1620857 44.0271759,11.9770857 C42.5681759,10.6230857 40.9761759,9.38208572 39.2811759,8.33908572 Z M47.1001759,23.1260857 C46.7451759,22.1180857 46.3091759,21.1680857 45.8051759,20.2710857 C46.2111759,20.1000857 46.5691759,19.7720857 46.7781759,19.4300857 C50.0871759,13.9780857 47.2531759,6.84408572 42.8211759,3.00208572 C38.9961759,-0.31291428 31.1741759,-1.80291428 28.3231759,3.44108572 C28.0911759,3.36608572 27.8601759,3.28908572 27.6281759,3.21808572 C19.9141759,0.81708572 11.6421759,0.25308572 3.68817591,1.75808572 C3.43417591,1.80808572 3.49417591,2.22208572 3.75117591,2.20908572 C11.2711759,1.87008572 18.9441759,3.67608572 26.0021759,6.16908572 C29.7341759,7.48808572 33.3071759,9.25008572 36.6131759,11.4240857 C37.2981759,11.8740857 37.9731759,12.3380857 38.6421759,12.8170857 C32.1201759,8.50708572 23.4311759,6.60008572 16.3791759,5.69408572 C15.8751759,5.62808572 15.7901759,6.44008572 16.2611759,6.56508572 C25.1551759,8.91508572 34.8471759,11.2850857 41.5581759,17.9760857 C45.9061759,22.3060857 47.4331759,28.9340857 45.9311759,34.7870857 C45.1171759,37.9620857 43.0421759,40.4500857 40.4641759,42.3480857 C37.5491759,43.3120857 35.2381759,44.8740857 31.9531759,45.0790857 C28.4251759,45.2980857 24.9371759,44.0880857 22.0071759,42.2030857 C14.4591759,37.3460857 15.5071759,29.1810857 21.2131759,23.3240857 C21.3491759,23.1870857 21.1501759,22.9940857 21.0061759,23.1150857 C14.5531759,28.5170857 13.3481759,36.4660857 19.8431759,42.3900857 C22.2971759,44.6300857 26.6851759,46.3220857 30.9671759,46.5970857 C19.6781759,49.1580857 7.50817591,43.7280857 2.97417591,32.7770857 C0.564175912,26.9520857 1.05317591,19.5430857 5.02617591,14.5670857 C8.58917591,10.1050857 14.9911759,8.90608572 20.3221759,8.33808572 C20.4461759,8.32508572 20.4491759,8.13208572 20.3221759,8.14208572 C8.17017591,9.01008572 -2.04182409,15.4200857 0.350175912,29.1390857 C2.82317591,43.3300857 16.5621759,50.4570857 30.0771759,48.5830857 C42.9271759,46.8040857 51.5911759,35.8490857 47.1001759,23.1260857 L47.1001759,23.1260857 Z" id="Fill-445"></path>
                <path d="M15.5901759,10.4480857 C14.0741759,10.4480857 12.8071759,11.7150857 12.8071759,13.2330857 C12.8071759,14.7490857 14.0741759,16.0170857 15.5901759,16.0170857 C17.1091759,16.0170857 18.3741759,14.7490857 18.3741759,13.2330857 C18.3741759,11.7150857 17.1091759,10.4480857 15.5901759,10.4480857" id="Fill-446"></path>
                <path d="M26.1031759,11.0890857 C22.3221759,11.0890857 22.3221759,16.9530857 26.1031759,16.9530857 C29.8831759,16.9530857 29.8831759,11.0890857 26.1031759,11.0890857" id="Fill-447"></path>
                <path d="M17.7651759,18.7540857 C15.8321759,18.4450857 13.1371759,19.8410857 13.5281759,22.1840857 C13.7041759,23.2510857 14.3211759,23.7690857 15.3361759,24.0330857 C16.5321759,24.3450857 16.1161759,24.5460857 15.6811759,25.7400857 C14.8711759,27.9560857 13.1531759,27.5450857 11.2841759,26.3600857 C11.0861759,26.2360857 10.7871759,26.3960857 10.8031759,26.6350857 C10.9141759,28.2160857 10.8541759,28.9180857 11.6271759,29.3780857 C8.89417591,29.9350857 7.00617591,31.4960857 8.38317591,34.7040857 C9.70317591,37.7800857 13.7841759,37.1180857 14.3911759,33.9780857 C14.6251759,32.7690857 13.0411759,32.3850857 12.5861759,33.4840857 C11.8491759,35.2560857 10.7911759,34.9550857 9.54017591,33.8120857 C6.97617591,31.4750857 11.6961759,30.0310857 13.2241759,29.8910857 C13.6091759,29.8580857 13.7521759,29.2620857 13.3221759,29.1760857 C12.7801759,29.0670857 11.6031759,29.0370857 11.5311759,28.2040857 C11.5081759,27.9140857 11.2241759,27.0720857 11.7571759,27.3920857 C12.6331759,27.9210857 14.0791759,27.8380857 15.0661759,27.9630857 C15.1561759,27.9750857 15.2601759,27.9010857 15.3031759,27.8260857 C16.0131759,26.5650857 16.5231759,25.2120857 16.9251759,23.8220857 C16.9791759,23.6420857 16.8311759,23.4450857 16.6421759,23.4510857 C12.7041759,23.5440857 14.6601759,18.9950857 17.6931759,19.2840857 C17.9951759,19.3150857 18.0671759,18.8020857 17.7651759,18.7540857" id="Fill-448"></path>
            </g>
        </g>
    </g>
</svg>