<?xml version="1.0" encoding="UTF-8"?>
<svg width="44px" height="58px" viewBox="0 0 44 58" version="1.1" xmlns="http://www.w3.org/2000/svg" xmlns:xlink="http://www.w3.org/1999/xlink">
    <title>Group 42</title>
    <g id="Page-1" stroke="none" stroke-width="1" fill="none" fill-rule="evenodd">
        <g id="vectorstock_1327683" transform="translate(-503.000000, -356.000000)" fill="#1B1A19">
            <g id="Group-42" transform="translate(503.237800, 356.302257)">
                <path d="M37.8152002,26.7057428 C37.7962002,26.6897428 37.7632002,26.7187428 37.7832002,26.7387428 C38.6022002,27.4437428 38.7502002,28.9707428 38.9012002,29.9457428 C38.9102002,30.0017428 38.9132002,30.0597428 38.9222002,30.1177428 C36.0262002,29.8597428 32.8452002,31.0237428 30.0812002,31.7787428 C26.5282002,32.7507428 22.9962002,33.8077428 19.5102002,34.9867428 C17.7792002,35.5717428 6.78420017,38.6657428 8.29220017,41.7797428 C8.30420017,41.8027428 8.34420017,41.7837428 8.33520017,41.7617428 C7.78320017,40.1157428 11.5092002,38.6997428 12.6332002,38.1797428 C15.6392002,36.7857428 18.8482002,35.7657428 22.0242002,34.7807428 C24.9022002,33.8887428 27.8102002,33.0817428 30.7282002,32.3177428 C33.5042002,31.5907428 36.1412002,31.1987428 38.9782002,30.7397428 C38.9792002,30.7387428 38.9812002,30.7367428 38.9832002,30.7367428 C39.0212002,31.3437428 39.0052002,31.9487428 38.9912002,32.5647428 C38.9812002,33.1107428 39.8322002,33.1597428 39.8842002,32.6157428 C40.0652002,30.6527428 39.3732002,28.0697428 37.8152002,26.7057428" id="Fill-165"></path>
                <path d="M9.57520017,44.0787428 C7.79520017,42.0347428 7.30820017,38.8727428 7.18320017,36.3167428 C7.18320017,36.2877428 7.13820017,36.2877428 7.13620017,36.3167428 C7.05820017,39.1067428 7.01520017,42.3767428 8.89620017,44.6907428 C9.25920017,45.1367428 9.95920017,44.5227428 9.57520017,44.0787428" id="Fill-166"></path>
                <path d="M31.6302002,33.9937428 C28.1582002,35.1207428 24.4772002,35.2757428 21.2022002,36.9517428 C21.1792002,36.9637428 21.1972002,37.0027428 21.2212002,36.9927428 C24.6172002,35.5547428 28.3362002,35.6497428 31.8822002,34.7467428 C32.4752002,34.5967428 32.2112002,33.8077428 31.6302002,33.9937428" id="Fill-167"></path>
                <path d="M30.1832002,27.2257428 C29.9422002,26.3097428 28.9762002,25.7567428 28.0962002,25.4717428 C25.9692002,24.7827428 23.4482002,25.8997428 23.9342002,28.2617428 C23.9442002,28.3127428 24.0272002,28.2947428 24.0262002,28.2457428 C23.9272002,26.1287428 25.8772002,25.7147428 27.6792002,26.1827428 C28.3212002,26.3497428 29.0012002,26.6867428 29.3122002,27.2727428 C29.7022002,28.0127428 28.7542002,28.4587428 28.8862002,29.1467428 C28.8992002,29.2177428 28.9572002,29.2657428 29.0322002,29.2757428 C30.0032002,29.4187428 30.3602002,27.8947428 30.1832002,27.2257428" id="Fill-168"></path>
                <path d="M31.5482002,21.1167428 C30.9422002,22.3877428 29.5452002,22.6677428 28.7722002,21.3967428 C28.7482002,21.3587428 28.7212002,21.3377428 28.6892002,21.3197428 C28.1592002,20.4827428 27.7392002,19.6897428 28.0382002,18.6047428 C28.3632002,17.4237428 29.3902002,17.0717428 30.4952002,17.6367428 C31.8172002,18.3127428 32.1322002,19.8987428 31.5482002,21.1167428 Z M31.3552002,17.2517428 C29.9662002,16.3117428 28.1212002,16.2037428 27.4082002,17.9227428 C26.9342002,19.0677428 27.2852002,21.0727428 28.5012002,21.7477428 C29.2722002,22.9847428 30.6632002,23.0467428 31.7152002,21.9657428 C32.9362002,20.7067428 32.8952002,18.2967428 31.3552002,17.2517428 L31.3552002,17.2517428 Z" id="Fill-169"></path>
                <path d="M23.1422002,20.6727428 C22.8502002,19.3217428 20.8232002,17.2157428 19.2402002,18.2267428 C19.0772002,18.3307428 19.0732002,18.5487428 19.2442002,18.6497428 C19.7702002,18.9537428 20.3992002,18.9027428 20.9572002,19.1637428 C21.6512002,19.4867428 22.0742002,20.1507428 22.2822002,20.8307428 C22.6802002,22.1467428 22.0982002,23.3557428 21.0582002,24.1297428 C21.1512002,23.9417428 21.1222002,23.7367428 21.0092002,23.5547428 C20.9822002,23.5127428 20.9572002,23.4717428 20.9322002,23.4307428 C20.9582002,23.4757428 20.9562002,23.4687428 20.9242002,23.4097428 C20.8952002,23.3557428 20.8662002,23.2997428 20.8412002,23.2447428 C20.8012002,23.1627428 20.7652002,23.0787428 20.7182002,23.0007428 C20.5402002,22.6967428 20.2732002,22.4817428 19.9802002,22.2757428 C19.5802002,21.9917428 18.9572002,22.2777428 18.9352002,22.7457428 C18.9182002,23.0457428 18.9052002,23.3437428 18.8892002,23.6427428 C18.8732002,23.9467428 19.0882002,24.2287428 19.3952002,24.3157428 C19.5762002,24.3667428 19.7482002,24.3407428 19.9002002,24.2707428 C19.9192002,24.2757428 19.9412002,24.2777428 19.9602002,24.2827428 C19.9912002,24.2927428 20.0222002,24.3017428 20.0492002,24.3147428 C20.1282002,24.3427428 20.2032002,24.3747428 20.2832002,24.4077428 C20.3712002,24.4457428 20.4652002,24.4527428 20.5602002,24.4457428 C20.4502002,24.5037428 20.3402002,24.5617428 20.2292002,24.6107428 C18.5962002,25.3257428 17.6482002,24.2647428 17.3972002,22.8257428 C17.1642002,21.4757428 17.5932002,19.9677428 18.4832002,18.9017428 C18.5212002,18.8577428 18.4562002,18.7997428 18.4142002,18.8417428 C16.4122002,20.8947428 16.2142002,26.6897428 20.5482002,25.2977428 C22.5772002,24.6507428 23.5482002,22.5697428 23.1422002,20.6727428" id="Fill-170"></path>
                <path d="M30.4262002,20.7277428 C30.3102002,20.3537428 29.8162002,20.2527428 29.4812002,20.3917428 C29.3902002,20.4297428 29.3162002,20.4867428 29.2532002,20.5557428 C29.0012002,20.6727428 28.8602002,20.9607428 28.9522002,21.2427428 C28.9802002,21.3197428 29.0152002,21.3917428 29.0432002,21.4647428 C29.0502002,21.5027428 29.0562002,21.5407428 29.0632002,21.5777428 C29.0812002,21.6947428 29.1442002,21.7767428 29.2262002,21.8297428 C29.5092002,22.1687428 30.1882002,22.2067428 30.3312002,21.7087428 C30.4292002,21.3707428 30.5332002,21.0727428 30.4262002,20.7277428" id="Fill-171"></path>
                <path d="M11.5052002,15.9537428 C8.03920017,17.4587428 5.85920017,20.9397428 4.36620017,24.1017428 C3.11120017,26.7657428 1.45120017,31.1487428 3.19420017,33.8987428 C3.39420017,34.2147428 3.81820017,33.9557428 3.82520017,33.6667428 C3.90920017,30.0317428 4.26220017,26.9467428 5.79320017,23.5167428 C7.01720017,20.7667428 8.78720017,17.6627428 11.5942002,16.1097428 C11.6852002,16.0577428 11.6022002,15.9137428 11.5052002,15.9537428" id="Fill-172"></path>
                <path d="M9.22120017,15.8007428 C5.83620017,18.1967428 3.30420017,21.4077428 1.64120017,25.0657428 C0.462200173,27.6597428 -1.15379983,32.7727428 1.22320017,35.1827428 C1.38020017,35.3437428 1.65420017,35.2087428 1.65820017,35.0077428 C1.71120017,33.5257428 1.19320017,32.0867428 1.24820017,30.5727428 C1.32320017,28.4417428 2.12420017,26.3017428 3.02920017,24.3787428 C4.50520017,21.2417428 6.60020017,18.1837428 9.25320017,15.8347428 C9.27020017,15.8177428 9.24420017,15.7857428 9.22120017,15.8007428" id="Fill-173"></path>
                <path d="M40.9402002,35.6837428 C39.3042002,43.1967428 33.3742002,51.0877428 25.8102002,54.1287428 C17.1692002,57.6037428 9.14120017,51.1677428 6.39920017,43.6537428 C3.79220017,36.5177428 5.29720017,28.0067428 8.81220017,21.1747428 C8.41420017,22.9007428 8.04420017,25.6067428 9.67520017,26.7387428 C11.0642002,27.6997428 12.6392002,27.0777428 13.7512002,26.0377428 C15.3952002,24.4987428 15.5102002,22.3307428 14.5292002,20.4657428 C12.3572002,16.3417428 9.45620017,22.5197428 11.9812002,22.4917428 C12.0932002,22.4917428 12.2002002,22.3737428 12.1102002,22.2777428 C10.3772002,20.4497428 13.3022002,19.7417428 14.0062002,21.1577428 C14.3902002,21.9317428 14.4532002,22.7887428 14.2232002,23.6007428 C13.8472002,24.9157428 12.6562002,26.2757428 11.1332002,26.3497428 C9.05820017,26.4507428 9.48120017,23.3007428 9.62020017,22.1587428 C9.87520017,20.0627428 10.6442002,18.2207428 12.3352002,16.7977428 C13.4082002,15.8977428 14.8992002,15.0257428 16.5752002,14.3137428 C16.9342002,14.2527428 17.2702002,14.1587428 17.5442002,14.0557428 C17.7892002,13.9567428 18.0322002,13.8257428 18.2672002,13.6717428 C21.7852002,12.4937428 25.7452002,12.1117428 28.3602002,13.5397428 C31.6332002,16.1207428 34.9292002,18.8637428 37.3792002,21.9917428 C37.4082002,22.1137428 37.4872002,22.2027428 37.5862002,22.2587428 C40.4692002,26.0377428 42.0912002,30.3817428 40.9402002,35.6837428 Z M18.1512002,9.65174277 C18.7932002,8.48874277 19.5312002,7.36674277 20.2802002,6.26974277 C21.5412002,4.41674277 22.8262002,2.40874277 24.7092002,1.05974277 C25.4802002,0.506742772 26.3832002,0.250742772 27.1462002,0.958742772 C28.4592002,2.17874277 27.8072002,4.03274277 26.9892002,5.28074277 C25.4872002,7.57074277 22.6372002,9.28474277 19.9482002,10.2297428 C19.6002002,9.75074277 18.8752002,9.54474277 18.1512002,9.65174277 Z M41.9142002,29.5037428 C41.6202002,27.7087428 40.9662002,26.0377428 40.0722002,24.4817428 C40.0792002,24.4697428 40.0872002,24.4647428 40.0892002,24.4527428 C41.6172002,20.0477428 40.3672002,15.2177428 36.7602002,12.0167428 C33.1152002,8.78074277 28.4912002,7.85174277 23.7412002,9.25674277 C23.7132002,9.26374277 23.7262002,9.30674277 23.7542002,9.29774277 C32.7302002,6.65574277 41.7762002,15.0607428 39.4322002,23.4487428 C39.0612002,22.8817428 38.6592002,22.3317428 38.2332002,21.7977428 C37.8792002,15.3597428 31.0522002,8.84274277 23.9712002,10.5647428 C23.9422002,10.5717428 23.9552002,10.6127428 23.9852002,10.6067428 C30.3452002,9.31874277 36.2942002,14.8537428 37.2312002,20.6157428 C36.3132002,19.5927428 35.3232002,18.6287428 34.3072002,17.7217428 C32.4912002,16.1107428 30.4232002,14.7377428 28.4152002,13.3517428 C28.3722002,13.3217428 28.3272002,13.3347428 28.2972002,13.3607428 C25.9532002,11.4337428 22.6622002,11.5687428 19.5502002,12.4367428 C19.7882002,12.0977428 19.9832002,11.7397428 20.0922002,11.3837428 C20.1772002,11.1047428 20.1842002,10.8577428 20.1352002,10.6417428 C22.8572002,10.1377428 25.5962002,7.85974277 27.1742002,5.91974277 C28.3472002,4.47874277 29.3572002,1.03474277 26.8382002,0.130742772 C24.6142002,-0.665257228 22.4852002,2.37774277 21.4412002,3.74374277 C20.0642002,5.55174277 18.8832002,7.60174277 17.9682002,9.68874277 C17.9532002,9.69174277 17.9372002,9.69374277 17.9202002,9.69674277 C17.7342002,9.74074277 17.6862002,9.97474277 17.7942002,10.0967428 C17.6962002,10.3307428 17.5982002,10.5647428 17.5052002,10.7977428 C17.4952002,10.8217428 17.5382002,10.8377428 17.5482002,10.8157428 C17.6562002,10.5917428 17.7752002,10.3757428 17.8902002,10.1557428 C17.9022002,10.1587428 17.9102002,10.1647428 17.9232002,10.1667428 C18.4302002,10.2517428 18.9382002,10.3117428 19.2092002,10.5347428 C19.1912002,10.6157428 19.2612002,10.7197428 19.3632002,10.7347428 C19.4372002,10.9047428 19.4272002,11.1347428 19.2932002,11.4557428 C19.0732002,11.9797428 18.6592002,12.4737428 18.1802002,12.8657428 C17.3652002,13.1477428 16.5752002,13.4667428 15.8322002,13.8007428 C15.2152002,13.8337428 14.6212002,13.6837428 14.3232002,13.1627428 C13.7042002,12.0837428 15.1092002,10.8797428 15.9272002,10.3867428 C15.9532002,10.3707428 15.9292002,10.3357428 15.9042002,10.3467428 C14.7812002,10.8837428 13.4842002,11.9737428 13.9212002,13.3067428 C14.0822002,13.7997428 14.4482002,14.0877428 14.8982002,14.2377428 C14.4752002,14.4437428 14.0732002,14.6507428 13.6952002,14.8517428 C11.4462002,16.0507428 9.97220017,17.6177428 9.18920017,19.8377428 C5.14620017,26.3947428 3.41120017,34.3277428 5.02120017,41.8027428 C6.64520017,49.3377428 13.4212002,56.7667428 22.1422002,56.0087428 C30.6132002,55.2737428 37.1002002,47.5567428 40.2032002,40.6997428 C41.8032002,37.1597428 42.5402002,33.3217428 41.9142002,29.5037428 L41.9142002,29.5037428 Z" id="Fill-174"></path>
                <path d="M16.3702002,10.3877428 C16.4002002,10.3967428 16.4102002,10.3537428 16.3822002,10.3457428 C11.9552002,9.15274277 1.71520017,7.11474277 0.640200173,13.5817428 C-0.263799827,19.0127428 9.65020017,16.0167428 11.8742002,14.1947428 C12.0232002,14.0717428 11.8672002,13.8797428 11.7002002,13.9337428 C9.32220017,14.7007428 -0.0527998274,18.2207428 1.71520017,12.9097428 C3.33720017,8.03474277 12.5252002,9.73274277 16.3702002,10.3877428" id="Fill-175"></path>
                <path d="M11.9972002,11.6557428 C9.89820017,11.6977428 7.41820017,11.2137428 5.69120017,12.6627428 C5.57620017,12.7597428 5.69020017,12.9627428 5.83620017,12.8877428 C7.83020017,11.8997428 9.76020017,11.6297428 11.9972002,11.6977428 C12.0292002,11.6997428 12.0292002,11.6547428 11.9972002,11.6557428" id="Fill-176"></path>
                <path d="M25.3142002,2.32374277 C24.3422002,2.41774277 23.5272002,3.50874277 22.9982002,4.20974277 C22.2142002,5.24974277 21.5942002,6.39474277 20.9632002,7.52274277 C20.9472002,7.54874277 20.9882002,7.56774277 21.0042002,7.54374277 C21.7142002,6.61674277 22.4252002,5.69674277 23.2232002,4.83374277 C23.6462002,4.37574277 24.1172002,3.94974277 24.5762002,3.52374277 C24.9192002,3.20874277 25.3042002,3.01874277 25.5382002,2.62474277 C25.6362002,2.46274277 25.4962002,2.30674277 25.3142002,2.32374277" id="Fill-177"></path>
            </g>
        </g>
    </g>
</svg>