<?xml version="1.0" encoding="UTF-8"?>
<svg width="48px" height="54px" viewBox="0 0 48 54" version="1.1" xmlns="http://www.w3.org/2000/svg" xmlns:xlink="http://www.w3.org/1999/xlink">
    <title>Group 17</title>
    <g id="Page-1" stroke="none" stroke-width="1" fill="none" fill-rule="evenodd">
        <g id="vectorstock_1327683" transform="translate(-133.000000, -244.000000)" fill="#1B1A19">
            <g id="Group-17" transform="translate(133.177556, 244.817000)">
                <path d="M3.51744422,22.309 C2.69344422,22.909 1.29944422,22.324 1.28444422,21.317 C1.27744422,20.777 1.93044422,20.475 2.40944422,20.577 C3.09344422,20.724 3.47844422,21.272 3.88744422,21.753 C3.90044422,21.768 3.92244422,21.767 3.93544422,21.78 C3.86544422,21.924 3.80044422,22.07 3.73344422,22.213 C3.65944422,22.229 3.58444422,22.258 3.51744422,22.309 Z M42.2094442,14.396 C41.8344442,13.943 41.4274442,13.509 40.9954442,13.09 C41.0664442,11.83 43.3744442,11.624 44.1034442,12.543 C44.7074442,13.305 44.3594442,14.17 43.4474442,14.365 C43.0864442,14.442 42.6364442,14.397 42.2094442,14.396 Z M43.1854442,15.688 C43.7794442,15.642 44.3834442,15.52 44.8614442,15.177 C46.0494442,14.326 45.8244442,12.545 44.8814442,11.607 C43.5454442,10.277 40.8794442,10.791 40.1464442,12.316 C36.2144442,9.011 30.3974442,7.229 25.1644442,7.179 C25.1014442,7.091 25.0084442,7.03 24.8854442,7.03559335 C22.0924442,7.171 19.8924442,10.313 18.5664442,12.316 C17.6964442,13.631 17.0394442,15.068 16.4214442,16.504 C15.9914442,17.503 15.0634442,19.068 15.6784442,20.131 C15.8294442,20.392 16.1804442,20.454 16.4424442,20.321 C17.4024442,19.835 17.6134442,18.406 17.9534442,17.523 C18.4574442,16.212 19.0704442,14.952 19.7364442,13.709 C20.4084442,12.454 21.1604442,11.241 22.1074442,10.153 C22.8224442,9.327 23.6964442,8.722 24.5414442,8.06 C29.3854442,9.295 34.3644442,9.988 38.3734442,13.106 C42.5514442,16.353 44.2324442,21.412 44.3794442,26.382 C44.6464442,35.505 39.2244442,44.891 30.6134442,49.148 C26.7204442,51.074 22.2114442,51.596 18.0014442,50.355 C12.7874442,48.821 8.85644422,44.632 6.16244422,40.313 C3.40044422,35.887 2.37744422,30.573 3.49944422,25.533 C4.60644422,20.552 7.94544422,16.277 12.4224442,13.526 C13.4384442,12.902 14.5214442,12.374 15.6354442,11.922 C15.0144442,12.533 14.4184442,13.165 13.8494442,13.818 C12.7314442,15.105 11.8134442,16.553 11.0574442,18.053 C10.6824442,18.799 10.3704442,19.574 10.0964442,20.358 C9.75544422,21.328 9.84844422,21.825 10.2404442,22.7 C10.3704442,22.993 10.8234442,22.99 11.0324442,22.795 C11.6174442,22.254 11.8164442,22.037 12.0744442,21.259 C12.3064442,20.552 12.5494442,19.851 12.8354442,19.163 C13.4634442,17.644 14.4134442,16.276 15.3644442,14.925 C16.3334442,13.545 17.4724442,12.281 18.6544442,11.063 C19.8014442,9.885 20.8044442,8.56 21.9434442,7.405 C21.9934442,7.352 21.9274442,7.261 21.8594442,7.302 C21.1284442,7.768 20.3054442,8.111 19.5624442,8.584 C18.8674442,9.024 18.2534442,9.569 17.6334442,10.096 C17.0574442,10.582 16.5034442,11.092 15.9614442,11.61 C11.4884442,13.166 7.64944422,15.906 5.07944422,19.759 C4.87644422,20.064 4.70244422,20.379 4.52244422,20.694 C4.11344422,19.996 3.23344422,19.485 2.45444422,19.342 C1.27244422,19.125 0.123444223,19.963 0.00944422267,21.097 C-0.0855557773,22.02 0.548444223,22.83 1.35744422,23.283 C1.94144422,23.608 2.59044422,23.673 3.19144422,23.517 C2.05744422,26.588 1.72844422,29.923 2.18444422,33.15 C3.48944422,42.372 11.3644442,51.845 21.6094442,52.653 C30.7934442,53.377 39.0514442,46.837 43.0604442,39.522 C46.9224442,32.474 47.8494442,22.602 43.1854442,15.688 L43.1854442,15.688 Z" id="Fill-151"></path>
                <path d="M14.2504442,44.182 C14.9084442,43.52 15.3234442,42.829 16.2094442,42.41 C16.4774442,42.285 16.7184442,42.586 16.5234442,42.795 C16.1224442,43.23 15.8004442,43.727 15.4504442,44.203 C17.5264442,44.589 19.6264442,44.796 21.7434442,44.813 C22.9064442,44.823 24.0774442,44.748 25.2294442,44.592 C26.1884442,44.462 27.2094442,44.122 28.1664442,44.373 C28.4744442,44.454 28.5474442,44.807 28.3464442,45.02 C27.6664442,45.748 26.5954442,45.827 25.6284442,45.958 C24.3454442,46.129 23.0334442,46.113 21.7434442,46.06 C20.8304442,46.024 19.9164442,45.948 19.0054442,45.831 C19.0644442,45.93 19.0254442,46.069 18.8884442,46.113 C18.6654442,46.182 18.4444442,46.233 18.2234442,46.282 C19.0584442,48.051 22.3044442,47.93 24.0164442,47.758 C24.9964442,47.659 26.2384442,47.436 26.9844442,46.775 C27.7654442,46.084 28.7994442,46.713 28.1384442,47.619 C26.9514442,49.257 23.3754442,49.152 21.5994442,48.97 C19.9394442,48.798 16.8854442,48.042 17.0914442,45.926 C17.1064442,45.772 17.1754442,45.645 17.2804442,45.565 C16.3334442,45.396 15.3934442,45.194 14.4654442,44.955 C14.1004442,44.864 14.0004442,44.433 14.2504442,44.182" id="Fill-152"></path>
                <path d="M28.2444442,20.12 C27.3044442,20.12 26.5194442,20.864 26.5194442,21.753 C26.5194442,22.644 27.3044442,23.386 28.2444442,23.386 C29.1854442,23.386 29.9694442,22.644 29.9694442,21.753 C29.9694442,20.864 29.1854442,20.12 28.2444442,20.12" id="Fill-153"></path>
                <path d="M15.5184442,23.269 C14.6614442,23.269 13.9474442,23.948 13.9474442,24.76 C13.9474442,25.571 14.6614442,26.247 15.5184442,26.247 C16.3764442,26.247 17.0924442,25.571 17.0924442,24.76 C17.0924442,23.948 16.3764442,23.269 15.5184442,23.269" id="Fill-154"></path>
                <path d="M25.7334442,34.185 C24.3224442,35.418 22.6404442,35.744 20.8904442,35.652 C25.0234442,32.604 22.5514442,25.81 20.5904442,21.851 C20.4884442,21.646 20.2134442,21.807 20.2384442,21.992 C20.8184442,26.033 24.4594442,33.52 18.5704442,35.404 C17.9814442,35.592 17.8654442,36.513 18.5704442,36.644 C21.5104442,37.195 24.3764442,37.065 26.6454442,35.049 C27.2544442,34.507 26.3434442,33.651 25.7334442,34.185" id="Fill-155"></path>
                <path d="M19.7914442,6.549 C17.2474442,7.319 14.9894442,8.727 12.4514442,9.552 C10.3654442,10.227 7.96244422,9.919 6.16944422,11.267 C5.54744422,11.733 6.25844422,12.444 6.84644422,12.37 C11.7904442,11.732 15.9154442,9.622 20.0074442,7.032 C20.2584442,6.871 20.1064442,6.455 19.7914442,6.549" id="Fill-156"></path>
                <path d="M22.0364442,5.318 C20.0994442,4.659 20.3594442,2.421 20.3834442,0.842 C20.3854442,0.564 20.2134442,0.245 19.9414442,0.117 C19.6104442,-0.039 19.3794442,-0.039 19.0484442,0.117 C18.7764442,0.245 18.6014442,0.564 18.6084442,0.842 C18.6544442,2.97 19.1974442,5.693 21.7874442,6.18 C22.3854442,6.289 22.6094442,5.513 22.0364442,5.318" id="Fill-157"></path>
            </g>
        </g>
    </g>
</svg>