<?xml version="1.0" encoding="UTF-8"?>
<svg width="46px" height="51px" viewBox="0 0 46 51" version="1.1" xmlns="http://www.w3.org/2000/svg" xmlns:xlink="http://www.w3.org/1999/xlink">
    <title>Group 12</title>
    <g id="Page-1" stroke="none" stroke-width="1" fill="none" fill-rule="evenodd">
        <g id="vectorstock_1327683" transform="translate(-134.000000, -129.000000)" fill="#1B1A19">
            <g id="Group-12" transform="translate(134.277247, 129.018875)">
                <path d="M22.9747535,12.8411249 C21.8237535,12.6941249 20.4687535,12.9571249 19.3067535,13.0601249 C18.0137535,13.1761249 16.7577535,13.3491249 15.5667535,13.8581249 C14.6337535,14.2561249 15.4467535,15.6351249 16.3767535,15.1731249 C17.4377535,14.6471249 18.6577535,14.4911249 19.8277535,14.3221249 C20.8907535,14.1691249 22.2717535,14.0591249 23.1307535,13.4031249 C23.3257535,13.2541249 23.2287535,12.8751249 22.9747535,12.8411249" id="Fill-87"></path>
                <path d="M14.8367535,16.4891249 C14.0707535,16.4891249 13.4317535,17.0931249 13.4317535,17.8191249 C13.4317535,18.5441249 14.0707535,19.1511249 14.8367535,19.1511249 C15.6037535,19.1511249 16.2417535,18.5441249 16.2417535,17.8191249 C16.2417535,17.0931249 15.6037535,16.4891249 14.8367535,16.4891249" id="Fill-88"></path>
                <path d="M9.92575348,18.0311249 C9.92575348,17.3371249 9.31575348,16.7591249 8.58175348,16.7591249 C7.98375348,16.7591249 7.44575348,17.1461249 7.28575348,17.6911249 C7.18875348,18.0251249 7.24975348,18.3971249 7.43475348,18.6921249 C7.62775348,19.1231249 8.07475348,19.4211249 8.58175348,19.4211249 C9.08975348,19.4211249 9.53475348,19.1231249 9.72775348,18.6921249 C9.85475348,18.4941249 9.92575348,18.2611249 9.92575348,18.0311249" id="Fill-89"></path>
                <path d="M31.2887535,46.3121249 C26.6037535,48.4101249 21.1717535,48.6421249 16.3477535,47.0761249 C16.3207535,46.9861249 16.2687535,46.9041249 16.1827535,46.8441249 C14.9847535,46.0001249 13.0977535,45.5431249 12.7147535,44.0431249 C20.2777535,43.4451249 24.1067535,36.6771249 26.8037535,30.6311249 C28.7297535,28.1181249 29.9787535,24.9671249 29.6577535,22.0471249 C29.6477535,21.9601249 29.5177535,21.9581249 29.5097535,22.0471249 C29.3357535,24.1401249 28.8467535,26.0891249 27.7437535,27.9251249 C26.6627535,29.7341249 25.1757535,31.3051249 23.5177535,32.6501249 C20.4817535,35.1121249 16.5047535,36.5361249 12.5487535,35.9511249 C12.6637535,35.9041249 12.7747535,35.8551249 12.8907535,35.8051249 C13.0547535,35.7331249 13.9597535,35.4991249 13.9507535,35.1601249 C13.8927535,33.3951249 13.8367535,31.6361249 13.7807535,29.8711249 C13.7797535,29.7961249 13.6617535,29.7961249 13.6597535,29.8711249 C13.6047535,31.5671249 13.5507535,33.2611249 13.4987535,34.9551249 C12.6507535,35.0361249 11.9197535,35.5871249 11.0397535,35.6441249 C10.6097535,35.6721249 10.5207535,36.2221249 10.9377535,36.3541249 C15.5687535,37.8031249 20.2967535,36.3061249 23.9727535,33.4901249 C24.7167535,32.9221249 25.4297535,32.2501249 26.0877535,31.5041249 C23.1327535,36.9751249 19.1617535,42.8931249 12.1557535,43.1571249 C11.9017535,43.1651249 11.6537535,43.3611249 11.6687535,43.6181249 C11.6997535,44.2071249 11.9047535,44.7231249 12.2147535,45.1831249 C11.9237535,45.0041249 11.6337535,44.8221249 11.3507535,44.6271249 C6.36475348,41.1941249 3.75575348,35.9241249 3.33275348,30.3941249 C4.70975348,30.2761249 6.08275348,30.1481249 7.45675348,30.0011249 C9.59275348,29.7741249 12.0487535,29.7551249 14.0507535,28.9731249 C14.4737535,28.8071249 14.4107535,28.2671249 13.9427535,28.2221249 C11.8267535,28.0231249 9.56175348,28.5721249 7.45675348,28.7981249 C6.06275348,28.9501249 4.66775348,29.0981249 3.27375348,29.2501249 C3.26375348,28.8301249 3.26975348,28.4131249 3.28375348,27.9971249 C3.70875348,27.5491249 4.12375348,27.0961249 4.53375348,26.6361249 C5.61775348,25.4141249 6.64075348,24.1381249 7.64475348,22.8581249 C9.54075348,20.4441249 11.3017535,17.9491249 13.2477535,15.5701249 C13.7327535,15.6391249 14.0267535,15.1341249 13.9647535,14.7121249 C14.0397535,14.6261249 14.1107535,14.5371249 14.1847535,14.4501249 C14.2037535,14.4291249 14.1737535,14.3961249 14.1487535,14.4191249 C14.0827535,14.4881249 14.0177535,14.5601249 13.9507535,14.6281249 C13.8807535,14.3741249 13.6687535,14.1631249 13.2737535,14.1631249 C11.8437535,14.1621249 10.3887535,13.8691249 8.94375348,13.7341249 C12.1347535,9.93612492 16.4987535,7.05112492 21.5707535,6.07712492 C21.6177535,6.06712492 21.6387535,6.03812492 21.6467535,6.00512492 C24.1637535,5.37612492 26.6607535,4.66312492 29.1377535,3.90712492 C30.7857535,3.40412492 32.4217535,2.87812492 34.0527535,2.33712492 C35.1487535,1.97512492 36.1547535,1.41712492 37.2447535,1.16412492 C34.9387535,2.87912492 31.9607535,4.38012492 31.0847535,7.06212492 C30.9957535,7.33512492 31.2357535,7.59112492 31.5177535,7.60012492 C32.5837535,7.63412492 33.6187535,7.43512492 34.6547535,7.24512492 C33.1297535,8.05012492 31.6157535,9.08012492 31.7457535,10.5581249 C31.7627535,10.7571249 31.8897535,10.9971249 32.1267535,11.0311249 C33.6997535,11.2621249 35.2697535,11.2361249 36.8467535,11.2001249 C36.2267535,11.8871249 35.5597535,12.6241249 35.3517535,13.4541249 C32.2927535,11.1011249 28.6607535,9.35712492 24.9957535,8.36912492 C24.5667535,8.25312492 24.3087535,8.83512492 24.6937535,9.04512492 C29.1997535,11.5141249 33.8347535,13.7531249 37.2857535,17.5491249 C40.4957535,21.0791249 42.0997535,25.7761249 42.1737535,30.4001249 C42.2907535,37.3601249 37.8377535,43.3811249 31.2887535,46.3121249 Z M4.24775348,22.3021249 C5.07075348,19.6291249 6.39875348,17.0471249 8.13675348,14.7451249 C9.70675348,14.8821249 11.6077535,14.9621249 13.0797535,15.5281249 C13.0827535,15.5281249 13.0867535,15.5291249 13.0917535,15.5321249 C11.1777535,17.5921249 9.39975348,19.7631249 7.61775348,21.9231249 C6.51975348,23.2541249 5.42175348,24.5861249 4.25975348,25.8691249 C3.96375348,26.1971249 3.66075348,26.5181249 3.35575348,26.8371249 C3.49375348,25.3091249 3.79075348,23.7871249 4.24775348,22.3021249 Z M37.8567535,15.6461249 C37.6057535,15.3921249 37.3437535,15.1441249 37.0767535,14.9001249 C37.2987535,14.8951249 37.5137535,14.8691249 37.7017535,14.8361249 C37.7347535,15.1101249 37.7837535,15.3831249 37.8567535,15.6461249 Z M38.6607535,12.7421249 C38.7907535,12.1271249 39.0667535,11.3071249 39.7367535,11.0461249 C40.4567535,10.7651249 40.9887535,11.3301249 41.2747535,11.8691249 C41.9117535,13.0721249 41.8687535,14.7121249 41.6037535,15.9981249 C41.4887535,16.5481249 41.2987535,17.2141249 40.8067535,17.5701249 C40.4437535,17.8371249 40.0477535,17.6061249 39.6447535,17.6671249 C39.3517535,17.2921249 39.0417535,16.9271249 38.7227535,16.5701249 C38.7287535,14.9871249 38.7007535,12.6631249 40.4397535,13.1521249 C40.4997535,13.1691249 40.5357535,13.0971249 40.4977535,13.0541249 C39.6627535,12.1111249 38.8207535,12.9351249 38.4727535,13.8181249 C38.5237535,13.4311249 38.5897535,13.0641249 38.6607535,12.7421249 Z M41.0917535,19.7901249 C40.8397535,19.3601249 40.5667535,18.9411249 40.2807535,18.5301249 C40.4997535,18.5251249 40.7267535,18.4731249 40.9027535,18.3871249 C41.5897535,18.0571249 41.9307535,17.3301249 42.1617535,16.6741249 C42.7477535,15.0051249 42.7227535,12.6481249 41.7207535,11.1231249 C40.7017535,9.56812492 38.7697535,10.3101249 38.1387535,11.7271249 C37.7867535,12.5131249 37.6177535,13.4951249 37.6677535,14.4571249 C37.1877535,14.3871249 36.5407535,14.3381249 36.1827535,14.0691249 C35.9017535,13.8581249 36.3807535,13.2891249 36.5077535,13.1131249 C37.0367535,12.3771249 37.7017535,11.7351249 38.2807535,11.0381249 C38.5407535,10.7251249 38.4017535,10.2261249 37.9217535,10.2201249 C36.2307535,10.2071249 34.5157535,10.3101249 32.8277535,10.1311249 C33.0577535,9.35912492 34.0667535,8.78812492 34.7067535,8.39012492 C35.5887535,7.84612492 36.5437535,7.41312492 37.4267535,6.86812492 C37.8147535,6.63112492 37.6917535,5.98512492 37.1797535,6.00512492 C35.4827535,6.07412492 33.8797535,6.67612492 32.1927535,6.74812492 C32.8847535,5.45012492 34.2927535,4.48012492 35.4737535,3.64012492 C36.7247535,2.74512492 38.0627535,1.93412492 39.1997535,0.910124919 C39.5747535,0.569124919 39.2457535,0.0921249191 38.8167535,0.0371249191 C37.4497535,-0.132875081 36.1997535,0.308124919 34.9547535,0.807124919 C33.3527535,1.44912492 31.7057535,1.95512492 30.0487535,2.46212492 C26.7707535,3.47112492 23.4597535,4.38112492 20.1157535,5.17312492 C16.9957535,5.91212492 13.8347535,6.50512492 10.6357535,6.83612492 C9.06975348,6.99712492 7.49375348,7.07212492 5.91575348,7.07012492 C4.26875348,7.06812492 2.62675348,6.82512492 0.985753476,6.85312492 C0.413753476,6.86412492 0.348753476,7.58912492 0.854753476,7.76212492 C3.60375348,8.70212492 6.98875348,8.39012492 9.84475348,8.14212492 C12.1527535,7.94512492 14.4407535,7.58012492 16.7077535,7.12512492 C13.1537535,8.51112492 10.1017535,10.8121249 7.69775348,13.6561249 C6.62375348,13.6071249 4.56775348,13.5451249 4.15775348,14.3361249 C4.10775348,14.4321249 4.12975348,14.5471249 4.23275348,14.6041249 C4.65375348,14.8411249 5.24875348,14.6601249 5.71575348,14.6391249 C6.11175348,14.6221249 6.50675348,14.6301249 6.90175348,14.6511249 C5.21575348,16.8651249 3.89675348,19.3601249 3.01475348,21.9811249 C2.30475348,24.0851249 1.91775348,26.2471249 1.85075348,28.4001249 C1.40775348,28.8751249 0.903753476,29.3711249 0.388753476,29.5671249 C-0.155246524,29.7751249 -0.149246524,30.6711249 0.539753476,30.6191249 C0.988753476,30.5851249 1.43675348,30.5501249 1.88575348,30.5141249 C2.23475348,35.7891249 4.52375348,40.8551249 8.73375348,44.6661249 C19.5707535,54.4711249 39.1937535,49.7501249 43.3747535,36.0161249 C44.9957535,30.6871249 43.9177535,24.5791249 41.0917535,19.7901249 L41.0917535,19.7901249 Z" id="Fill-90"></path>
            </g>
        </g>
    </g>
</svg>