<?xml version="1.0" encoding="UTF-8"?>
<svg width="57px" height="44px" viewBox="0 0 57 44" version="1.1" xmlns="http://www.w3.org/2000/svg" xmlns:xlink="http://www.w3.org/1999/xlink">
    <title>Group 59</title>
    <g id="Page-1" stroke="none" stroke-width="1" fill="none" fill-rule="evenodd">
        <g id="vectorstock_1327683" transform="translate(-187.000000, -248.000000)" fill="#1B1A19">
            <g id="Group-59" transform="translate(187.488281, 248.217470)">
                <path d="M55.4547192,19.6855302 C53.4527192,15.4475302 46.1737192,17.9325302 46.2317192,22.0785302 C46.2557192,23.8145302 48.1467192,24.6035302 49.7107192,24.3195302 C50.9777192,24.0935302 52.2447192,22.6115302 50.6987192,21.9085302 C50.5447192,21.8395302 49.7567192,21.8495302 49.9767192,22.1775302 C49.6407192,23.3955302 49.1557192,23.5885302 48.5177192,22.7565302 C48.3237192,22.3625302 48.2497192,21.9515302 48.2927192,21.5255302 C48.2857192,19.7795302 51.1097192,17.9835302 52.7397192,19.2275302 C54.7377192,20.7565302 53.1427192,23.5395302 51.9577192,24.9705302 C51.1477192,25.9525302 50.0937192,26.8645302 48.6797192,26.5045302 C47.2887192,26.1485302 46.3007192,25.3925302 45.6257192,24.2075302 C45.4907192,23.9655302 45.3807192,23.7295302 45.2847192,23.4925302 C45.3527192,22.4305302 45.2727192,21.3325302 45.0117192,20.2065302 C45.1597192,19.4935302 45.4267192,18.7935302 45.7677192,18.1125302 C48.2207192,16.7625302 49.6037192,14.1695302 49.5847192,11.3645302 C49.5607192,7.52253021 45.4047192,4.44053021 42.2527192,2.76153021 C36.5317192,-0.291469788 23.5807192,-1.95646979 19.3177192,3.99753021 C19.2377192,4.11053021 19.6507192,4.12253021 19.7207192,4.05453021 C25.0317192,-1.06446979 36.4137192,0.455530212 42.2507192,4.24953021 C46.6137192,7.08253021 49.5727192,14.5775302 44.0727192,17.4775302 C43.8457192,16.9995302 43.5947192,16.5195302 43.3067192,16.0345302 C43.8177192,15.9055302 44.3157192,15.6205302 44.5937192,15.3245302 C45.6447192,14.1935302 45.9867192,12.3725302 45.1937192,11.0305302 C44.5147192,9.88253021 42.7337192,9.73153021 41.5237192,10.0125302 C40.6077192,10.2275302 38.4587192,11.3405302 39.1107192,12.4865302 C39.3297192,12.8715302 40.4667192,12.6615302 40.7277192,12.4315302 C41.2697192,11.9595302 41.3997192,11.2595302 42.0487192,10.8165302 C42.6907192,10.3775302 43.1137192,10.7995302 43.5587192,11.4385302 C44.0347192,12.1265302 43.9657192,13.1595302 43.8397192,13.9315302 C43.7727192,14.3565302 43.5697192,14.7195302 43.3207192,15.0665302 C43.2267192,15.1785302 43.1377192,15.2915302 43.0477192,15.4025302 C43.0037192,15.4525302 42.9577192,15.5045302 42.9137192,15.5545302 C42.8877192,15.5905302 42.8697192,15.6075302 42.8467192,15.6345302 C42.7717192,15.6195302 42.6897192,15.6135302 42.6037192,15.6125302 C42.5927192,15.5825302 42.5807192,15.5565302 42.5747192,15.5155302 C42.4477192,15.3955302 41.6907192,15.4175302 41.8037192,15.6105302 C41.8467192,15.6835302 41.9077192,15.7285302 41.9587192,15.7815302 C41.9427192,15.8085302 41.9287192,15.8375302 41.9387192,15.8695302 C42.0957192,16.6575302 42.2647192,17.4115302 42.4177192,18.1485302 C41.9087192,18.3665302 42.1197192,18.5875302 42.5327192,18.7315302 C42.9267192,20.7185302 43.1737192,22.6265302 42.8287192,24.8355302 C42.2227192,28.7295302 39.0337192,31.6645302 35.9997192,34.0345302 C30.2137192,38.5505302 22.4977192,41.2535302 15.0427192,41.5715302 C10.2657192,41.7775302 3.6497192,40.8405302 1.9827192,35.9325302 C1.1167192,33.3685302 1.9497192,30.1685302 2.4727192,27.6355302 C3.8687192,20.8655302 7.0997192,13.6835302 12.6147192,9.00953021 C12.6797192,9.30253021 12.7717192,9.60853021 12.9267192,9.93053021 C13.0137192,10.1105302 13.6357192,10.1045302 13.7007192,9.90553021 C13.9117192,9.24853021 13.8527192,8.75653021 13.8047192,8.07553021 C13.7377192,7.12553021 14.2377192,6.29253021 14.8927192,5.62953021 C15.8647192,4.63853021 17.4017192,4.18153021 18.6747192,3.64753021 C18.8517192,3.57553021 18.5337192,3.49453021 18.4497192,3.52753021 C15.9987192,4.38653021 12.3377192,5.79053021 12.5377192,8.54453021 C5.6017192,13.8435302 2.0397192,22.4055302 0.389719205,30.5105302 C-0.179280795,33.3055302 -0.525280795,37.4725302 2.3187192,39.3915302 C5.5607192,41.5755302 9.4937192,42.1625302 13.3817192,42.3835302 C23.9237192,42.9775302 42.0127192,36.2845302 44.9117192,25.7185302 C45.7707192,26.7595302 46.9977192,27.4645302 48.6037192,27.6765302 C52.5157192,28.1945302 57.1627192,23.3125302 55.4547192,19.6855302" id="Fill-138"></path>
                <path d="M17.3817192,35.3665302 C18.1467192,34.9075302 18.7987192,34.2755302 19.4147192,33.5785302 C19.8207192,33.8815302 20.3817192,34.0155302 20.9357192,33.9815302 C21.7417192,33.9245302 22.1487192,33.5445302 22.3537192,32.9985302 C22.7657192,33.3935302 23.5527192,33.4625302 24.4117192,33.3745302 C23.5977192,33.8435302 22.6757192,34.2455302 21.6157192,34.5885302 C20.3487192,34.9935302 18.8987192,35.2555302 17.3817192,35.3665302 Z M31.6217192,27.0315302 C31.6587192,26.3035302 30.0007192,26.4275302 29.7577192,26.9495302 C28.6777192,29.2475302 27.5167192,31.0375302 25.8217192,32.4035302 C24.4807192,32.7215302 22.9887192,33.2255302 22.5497192,31.8245302 C22.5157192,31.7155302 22.1577192,31.7205302 22.1087192,31.8185302 C21.8117192,32.4455302 20.8017192,34.7955302 20.0287192,32.8365302 C19.9157192,32.5495302 19.0757192,32.5855302 18.9137192,32.8205302 C18.2557192,33.7785302 17.5927192,34.8085302 16.5877192,35.4105302 C13.3897192,35.5435302 9.9907192,35.0495302 7.4687192,33.9205302 C7.4437192,33.9135302 7.3787192,33.9305302 7.4167192,33.9545302 C14.3817192,38.5375302 31.1077192,37.0215302 31.6217192,27.0315302 L31.6217192,27.0315302 Z" id="Fill-139"></path>
                <path d="M19.0997192,5.28053021 C19.3377192,5.22753021 19.2527192,4.97653021 19.0307192,5.00153021 C17.2907192,5.19053021 16.0237192,5.96753021 15.2917192,7.49653021 C14.6447192,8.84153021 14.3207192,11.2745302 16.0797192,11.9315302 C16.4327192,12.0625302 17.1057192,11.9035302 16.9757192,11.4435302 C16.8607192,11.0455302 16.5847192,10.7275302 16.4137192,10.3455302 C16.1657192,9.79653021 16.2257192,9.10453021 16.2727192,8.52553021 C16.4077192,6.82253021 17.2907192,5.67753021 19.0997192,5.28053021" id="Fill-140"></path>
                <path d="M20.1777192,11.3105302 C19.7957192,10.8905302 19.7507192,10.1435302 19.7367192,9.62053021 C19.7097192,8.43953021 20.4087192,7.05453021 21.5907192,6.57553021 C21.7147192,6.52353021 21.5897192,6.42953021 21.4997192,6.44353021 C19.8757192,6.71453021 18.7677192,8.11653021 18.3187192,9.54253021 C17.9267192,10.7815302 18.7677192,13.1145302 20.5367192,12.6245302 C20.7427192,12.5685302 20.9727192,12.4505302 20.9767192,12.2105302 C20.9767192,11.7485302 20.4637192,11.6205302 20.1777192,11.3105302" id="Fill-141"></path>
                <path d="M22.0937192,7.65853021 C22.0597192,7.68053021 22.1187192,7.69653021 22.1407192,7.69153021 C24.6407192,6.70253021 29.6217192,7.98753021 31.9077192,8.91453021 C34.6037192,10.0025302 35.4847192,12.0005302 36.5787192,14.3255302 C36.6997192,14.5855302 37.4957192,14.6005302 37.5637192,14.2925302 C38.8737192,8.40753021 26.0567192,5.45353021 22.0937192,7.65853021" id="Fill-142"></path>
                <path d="M40.1337192,9.31253021 C37.9417192,7.64453021 35.5647192,6.57553021 32.8417192,5.93353021 C28.8787192,5.00253021 26.2427192,5.71153021 22.2887192,5.91353021 C22.0157192,5.92653021 22.0347192,6.20053021 22.3037192,6.21253021 C25.3987192,6.34853021 28.0757192,5.85453021 31.1717192,6.67053021 C34.0227192,7.41953021 36.4177192,8.62553021 38.7767192,10.3125302 C39.5077192,10.8345302 41.0937192,10.0435302 40.1337192,9.31253021" id="Fill-143"></path>
                <path d="M20.9817192,4.71053021 C20.8377192,4.78253021 21.0747192,4.87653021 21.1647192,4.83853021 C26.5187192,2.65753021 38.6487192,4.15853021 41.4777192,9.51353021 C41.7217192,9.97853021 42.8337192,9.90553021 42.9037192,9.35253021 C43.7677192,2.29753021 24.9407192,2.68953021 20.9817192,4.71053021" id="Fill-144"></path>
                <path d="M10.3267192,10.0025302 C8.8077192,10.9395302 7.4707192,12.0105302 5.5397192,11.4345302 C4.1697192,11.0245302 3.0667192,9.88853021 3.5507192,8.43753021 C3.7357192,7.88553021 5.6917192,5.61753021 6.0897192,6.61053021 C6.2617192,7.04353021 6.1217192,7.63753021 6.0037192,8.05853021 C5.9497192,8.22153021 5.8847192,8.37653021 5.8007192,8.52553021 C5.7707192,8.57653021 5.7427192,8.60853021 5.7107192,8.63353021 C5.7517192,8.62953021 5.8017192,8.62453021 5.8667192,8.62553021 C5.8137192,8.62553021 5.7497192,8.63753021 5.6887192,8.65053021 C5.6387192,8.68553021 5.5957192,8.69453021 5.5857192,8.68553021 C5.3937192,8.75653021 5.2217192,8.89453021 5.2297192,9.09453021 C5.2587192,9.88253021 6.3657192,9.97253021 6.9377192,9.66353021 C7.7737192,9.21353021 7.9927192,8.22553021 8.0997192,7.39453021 C8.4697192,4.57853021 5.3417192,4.59753021 3.5747192,5.82553021 C1.4817192,7.27953021 0.595719205,9.95753021 3.0427192,11.5325302 C4.0997192,12.2105302 5.7057192,12.4515302 6.9437192,12.3035302 C8.4047192,12.1255302 9.4877192,10.9935302 10.5377192,10.1325302 C10.6807192,10.0145302 10.4307192,9.93253021 10.3267192,10.0025302" id="Fill-145"></path>
                <path d="M5.7107192,8.63353021 C5.6007192,8.64653021 5.5707192,8.67553021 5.5857192,8.68553021 C5.6197192,8.67153021 5.6527192,8.65853021 5.6887192,8.65053021 C5.6967192,8.64553021 5.7037192,8.63953021 5.7107192,8.63353021" id="Fill-146"></path>
                <path d="M21.0487192,27.0225302 C20.0877192,24.3565302 15.9327192,25.3665302 15.8157192,27.9465302 C15.7927192,28.3955302 16.4227192,28.4005302 16.5787192,28.0435302 C16.8777192,27.3545302 17.4057192,26.7845302 18.1637192,26.5485302 C19.1497192,26.2395302 19.6397192,26.8455302 20.2277192,27.4735302 C20.5477192,27.8205302 21.2057192,27.4575302 21.0487192,27.0225302" id="Fill-147"></path>
                <path d="M27.4257192,34.1125302 C26.0897192,35.5405302 25.4227192,36.8265302 23.3867192,37.5685302 C21.2887192,38.3345302 18.8837192,38.1425302 17.0007192,36.9895302 C16.6867192,36.8005302 16.4197192,37.2565302 16.7127192,37.4575302 C18.7477192,38.8505302 21.2527192,39.0515302 23.6277192,38.4015302 C25.4257192,37.9095302 27.9917192,36.3175302 28.0207868,34.3445302 C28.0267192,34.0685302 27.6317192,33.8905302 27.4257192,34.1125302" id="Fill-148"></path>
                <path d="M11.8277192,19.5625302 C9.2327192,19.5625302 9.2327192,23.3705302 11.8277192,23.3705302 C14.4257192,23.3705302 14.4257192,19.5625302 11.8277192,19.5625302" id="Fill-149"></path>
                <path d="M23.8697192,17.1615302 C21.2757192,17.1615302 21.2757192,20.9715302 23.8697192,20.9715302 C26.4647192,20.9715302 26.4647192,17.1615302 23.8697192,17.1615302" id="Fill-150"></path>
            </g>
        </g>
    </g>
</svg>