<?xml version="1.0" encoding="UTF-8"?>
<svg width="60px" height="49px" viewBox="0 0 60 49" version="1.1" xmlns="http://www.w3.org/2000/svg" xmlns:xlink="http://www.w3.org/1999/xlink">
    <title>Group 38</title>
    <g id="Page-1" stroke="none" stroke-width="1" fill="none" fill-rule="evenodd">
        <g id="vectorstock_1327683" transform="translate(-376.000000, -421.000000)" fill="#0A0B09">
            <g id="Group-38" transform="translate(376.530841, 421.471761)">
                <path d="M28.8641589,21.0032389 C27.6961589,21.0032389 26.7171589,21.9802389 26.7171589,23.1522389 C26.7171589,24.3182389 27.6961589,25.2972389 28.8641589,25.2972389 C30.0331589,25.2972389 31.0101589,24.3182389 31.0101589,23.1522389 C31.0101589,21.9802389 30.0331589,21.0032389 28.8641589,21.0032389" id="Fill-535"></path>
                <path d="M40.4191589,23.2272389 C40.4251589,22.7502389 40.2711589,22.2912389 39.9121589,21.9332389 C39.3771589,21.4022389 38.4031589,21.2012389 37.7501589,21.6562389 C37.3301589,21.9472389 37.0401589,22.2692389 36.9021589,22.7712389 C36.5881589,23.9052389 37.4701589,25.0572389 38.6431589,25.0572389 C39.5441589,25.0572389 40.1811589,24.4392389 40.3651589,23.6822389 C40.3651589,23.6842389 40.3651589,23.6872389 40.3651589,23.6902389 L40.3721589,23.6692389 C40.3801589,23.6302389 40.3771589,23.5902389 40.3831589,23.5502389 C40.4011589,23.4452389 40.4191589,23.3372389 40.4191589,23.2272389" id="Fill-536"></path>
                <path d="M53.9081589,20.4442389 C53.0531589,20.5972389 53.3651589,21.7602389 54.0981589,21.8452389 C54.3411589,21.8702389 54.5801589,21.9052389 54.8231589,21.9412389 C54.5191589,22.7412389 53.7781589,23.2082389 52.5841589,23.3222389 C52.4311589,23.3272389 52.3111589,23.4222389 52.2641589,23.5672389 C51.7801589,24.8422389 51.0211589,25.8892389 50.0241589,26.7242389 C50.7431589,22.2892389 50.3271589,17.8282389 48.8611589,13.7802389 C49.4491589,13.6272389 50.0521589,13.5142389 50.6921589,13.4912389 C52.1381589,13.4472389 53.4531589,14.1062389 54.8071589,14.4892389 C54.9631589,14.5342389 55.0791589,14.3642389 55.0081589,14.2292389 C53.8841589,12.0812389 50.7641589,11.8192389 48.4531589,12.7312389 C46.9981589,9.22323894 44.7441589,6.07023894 41.7741589,3.57623894 C43.9061589,4.18923894 45.9351589,4.63223894 48.0251589,5.59023894 C49.5691589,6.29723894 51.0631589,6.93823894 52.6631589,7.37123894 C52.5581589,7.46723894 52.4411589,7.57223894 52.2871589,7.71223894 C51.8191589,8.14123894 52.1211589,8.81423894 52.6301589,9.01123894 C56.5621589,10.5192389 59.7071589,19.4312389 53.9081589,20.4442389 Z M8.17115895,21.9222389 C8.44515895,21.9222389 8.67215895,21.8472389 8.85715895,21.7312389 C8.80015895,22.0682389 8.73715895,22.4052389 8.69515895,22.7502389 C8.28915895,22.9732389 7.90115895,23.4222389 7.58415895,23.7492389 C7.37615895,23.9672389 7.23515895,23.9352389 7.15415895,23.9032389 C6.40515895,23.5722389 5.99115895,22.5192389 5.77115895,21.7602389 C5.51315895,20.8852389 5.37015895,19.8032389 5.79915895,18.9532389 C6.35215895,17.8642389 7.73215895,17.9752389 8.77815895,18.2152389 C8.82415895,18.6392389 8.76915895,19.0332389 8.70815895,19.4382389 C8.55515895,19.3702389 8.37415895,19.3322389 8.17115895,19.3322389 C6.49915895,19.3322389 6.49915895,21.9222389 8.17115895,21.9222389 Z M7.44415895,27.9722389 C7.64615895,27.7772389 7.56315895,27.3682389 7.26815895,27.3092389 C6.31915895,27.1192389 0.959158947,25.9282389 2.48415895,24.0242389 C2.62315895,23.8472389 2.70515895,23.5992389 2.56515895,23.3912389 C0.343158947,20.1002389 0.470158947,15.7722389 4.46815895,13.8822389 C4.94615895,13.6582389 4.85615895,12.9832389 4.46815895,12.7342389 C4.34815895,12.6562389 4.25015895,12.5922389 4.16115895,12.5402389 C4.96815895,11.7492389 5.85115895,11.1142389 6.84815895,10.5492389 C10.0941589,10.0852389 13.5961589,9.39723894 16.6871589,8.13923894 C14.4481589,9.99023894 12.5791589,12.2372389 11.1961589,14.8072389 C8.00915895,13.9362389 4.14315895,14.7202389 3.49215895,17.8142389 C3.45815895,17.9692389 3.66615895,18.0622389 3.75315895,17.9212389 C5.20415895,15.5482389 8.09415895,15.0672389 10.7041589,15.7532389 C10.2791589,16.6512389 9.92215895,17.5922389 9.61515895,18.5632389 C9.65115895,18.2972389 9.65315895,18.0222389 9.61215895,17.7332389 C9.59115895,17.5762389 9.43515895,17.4672389 9.30015895,17.4212389 C7.80115895,16.9132389 5.92715895,16.7402389 4.88215895,18.1752389 C4.04315895,19.3322389 4.09415895,20.9362389 4.45415895,22.2512389 C4.78715895,23.4782389 5.49315895,24.8102389 6.73715895,25.2972389 C7.36215895,25.5412389 8.04915895,25.3062389 8.55315895,24.8542389 C8.53515895,26.4212389 8.72115895,27.9412389 9.07215895,29.4062389 C7.94915895,29.0712389 6.51015895,28.8752389 7.44415895,27.9722389 Z M54.2861589,8.16623894 C54.5221589,7.99723894 54.7561589,7.83123894 54.9901589,7.66123894 C55.5281589,7.36823894 55.4851589,6.36023894 54.8071589,6.26023894 C50.5201589,5.62923894 45.5741589,1.32723894 41.1761589,3.02523894 C41.1611589,3.03323894 41.1521589,3.04723894 41.1381589,3.05623894 C39.6061589,1.86423894 37.9031589,0.837238942 36.0271589,0.020238942 C35.8031589,-0.080761058 35.6101589,0.222238942 35.8301589,0.356238942 C41.3641589,3.65523894 45.4251589,7.98123894 47.6341589,13.1242389 C47.1481589,13.4062389 46.7221589,13.7452389 46.4041589,14.1412389 C43.1271589,14.4052389 39.8721589,14.7772389 36.6571589,15.4782389 C36.5231589,15.5072389 36.5811589,15.7052389 36.7151589,15.6812389 C38.6211589,15.3272389 40.5361589,15.0852389 42.4681589,14.9062389 C43.2931589,14.8312389 47.0221589,14.1882389 47.0461589,15.0542389 C47.1121589,17.3912389 47.2821589,19.7152389 47.2121589,22.0562389 C47.1851589,23.0462389 47.0811589,24.0332389 46.8021589,24.9862389 C46.3071589,26.6712389 43.6471589,26.8942389 42.2661589,27.0512389 C40.0821589,27.3002389 37.7501589,26.8012389 35.6161589,27.2182389 C35.5251589,27.2362389 35.4781589,27.3122389 35.4631589,27.3932389 C32.5631589,18.9922389 34.6561589,9.01323894 35.5151589,0.440238942 C35.5261589,0.339238942 35.3601589,0.319238942 35.3401589,0.414238942 C33.1821589,10.6222389 30.5091589,23.7272389 37.0431589,32.8762389 C34.0411589,33.3532389 30.5341589,33.6212389 28.6181589,30.8212389 C28.4381589,30.5542389 27.9401589,30.7162389 28.0701589,31.0542389 C29.5111589,34.8782389 34.8621589,34.1972389 38.0831589,33.7392389 C38.3941589,33.6932389 38.5741589,33.2322389 38.3901589,32.9872389 C37.1371589,31.2972389 36.2131589,29.4942389 35.5421589,27.6142389 C35.5661589,27.6312389 35.5831589,27.6552389 35.6161589,27.6612389 C38.6571589,28.3042389 44.6651589,28.3642389 46.9821589,25.8752389 C47.9001589,24.8952389 47.7511589,22.6532389 47.7791589,21.4452389 C47.8341589,19.0652389 47.5751589,16.6962389 47.5371589,14.3192389 C47.5371589,14.2752389 47.5211589,14.2322389 47.4981589,14.1952389 C47.6651589,14.1352389 47.8341589,14.0842389 47.9981589,14.0312389 C49.6551589,18.3762389 50.0221589,23.2782389 48.8801589,28.6162389 C48.3231589,31.2282389 47.3871589,33.7412389 46.1291589,36.0102389 C45.9971589,35.8462389 45.7981589,35.7242389 45.5191589,35.7082389 C38.6381589,35.2912389 31.0901589,36.4142389 25.4481589,40.5872389 C25.1791589,40.7862389 25.4091589,41.2102389 25.7181589,41.0432389 C31.8631589,37.7242389 38.5651589,37.8132389 45.3241589,37.3562389 C41.3111589,43.6032389 34.6601589,47.5042389 26.5371589,45.2632389 C16.8851589,42.6062389 9.54715895,33.7242389 9.72615895,23.6732389 C9.77515895,20.9332389 10.4091589,18.3502389 11.4871589,15.9942389 C12.9221589,16.5112389 14.2161589,17.3742389 15.0531589,18.4642389 C15.1911589,18.6462389 15.5111589,18.5482389 15.4451589,18.3002389 C15.4201589,18.2192389 15.3931589,18.1482389 15.3641589,18.0702389 C19.8311589,17.4382389 24.3191589,17.3712389 28.8241589,17.3222389 C31.7451589,17.2942389 31.2561589,19.8532389 31.5201589,22.1432389 C31.8161589,24.6922389 32.4301589,26.9322389 29.3721589,27.6252389 C25.0141589,28.6132389 20.6511589,29.5572389 16.2361589,30.2332389 C14.9401589,30.4292389 15.6521589,25.5252389 15.6581589,24.7932389 C15.6791589,22.7912389 15.6251589,20.7632389 15.0881589,18.8342389 C15.0541589,18.7142389 14.8831589,18.7412389 14.8781589,18.8602389 C14.7361589,22.8462389 15.1571589,26.7212389 14.6721589,30.7222389 C14.6471589,30.9442389 14.8911589,31.0462389 15.0691589,31.0202389 C20.8501589,30.2392389 26.5531589,29.0652389 32.2571589,27.8522389 C32.4481589,27.8112389 32.5631589,27.6212389 32.5701589,27.4422389 C32.7121589,23.8742389 32.1331589,20.3852389 31.8301589,16.8422389 C31.8101589,16.6142389 31.6451589,16.3812389 31.3871589,16.3992389 C26.0161589,16.7542389 20.6381589,16.9872389 15.3471589,18.0192389 C14.8441589,16.6552389 13.5321589,15.6322389 11.9481589,15.0452389 C14.9321589,9.33423894 20.5881589,5.07223894 26.8651589,3.28223894 C26.9511589,3.26023894 26.9141589,3.12323894 26.8251589,3.14723894 C23.8631589,3.86123894 21.1221589,5.04923894 18.7141589,6.64223894 C18.6571589,6.30223894 18.4031589,5.99323894 18.0111589,6.02023894 C14.3221589,6.27723894 10.7721589,7.88523894 7.12215895,8.69423894 C6.98915895,8.65523894 6.84215895,8.64123894 6.68115895,8.69323894 C6.42715895,8.77423894 6.17315895,8.85723894 5.92115895,8.93723894 C5.60315895,9.03623894 5.43115895,9.23723894 5.35315895,9.45723894 C4.13315895,10.2552389 3.10815895,11.1692389 2.21515895,12.4192389 C1.94815895,12.8012389 2.21115895,13.4522389 2.67015895,13.5342389 C2.67715895,13.5382389 2.68115895,13.5382389 2.68515895,13.5412389 C1.27915895,14.6642389 0.161158947,16.0962389 0.0131589472,18.0082389 C-0.174841053,20.3962389 1.73115895,22.8932389 0.668158947,24.9142389 C0.542158947,25.1532389 0.602158947,25.4682389 0.850158947,25.6062389 C1.81915895,26.1422389 2.79415895,26.7352389 3.82215895,27.1522389 C4.81215895,27.5502389 6.79815895,27.4982389 5.88815895,28.4382389 C5.64415895,28.6932389 5.84115895,29.0372389 6.15115895,29.0772389 C7.17615895,29.1992389 8.14915895,29.6622389 9.16315895,29.7632389 C11.2371589,37.7212389 18.3411589,43.9422389 26.1851589,46.5442389 C38.1901589,50.5222389 46.3131589,40.2582389 49.3281589,29.9022389 C49.5741589,29.0572389 49.7601589,28.2102389 49.9201589,27.3592389 C49.9331589,27.3522389 49.9461589,27.3492389 49.9571589,27.3402389 C51.3521589,26.2512389 52.3331589,24.3592389 54.1531589,24.2902389 C55.4601589,24.2392389 55.9301589,22.5232389 56.2451589,21.5572389 C56.2871589,21.4372389 56.2661589,21.3032389 56.2231589,21.1792389 C60.6641589,18.7412389 58.4121589,10.9162389 54.2861589,8.16623894 L54.2861589,8.16623894 Z" id="Fill-537"></path>
                <path d="M29.1171589,13.4122389 C27.1481589,13.3732389 25.2111589,13.8002389 23.2791589,14.1142389 C23.1551589,14.1322389 18.3941589,14.7572389 18.5481589,15.0582389 C18.5351589,15.0362389 18.5121589,15.0362389 18.4921589,15.0512389 C18.3811589,15.1412389 18.2681589,15.2332389 18.1571589,15.3262389 C17.8871589,15.5462389 18.1371589,15.9092389 18.4091589,15.9382389 C20.0071589,16.0942389 21.8671589,15.7842389 23.4901589,15.6732389 C25.3661589,15.5462389 27.2381589,15.3422389 29.1171589,15.2242389 C30.2731589,15.1502389 30.2901589,13.4392389 29.1171589,13.4122389" id="Fill-538"></path>
                <path d="M44.2571589,12.2412389 C41.5881589,12.2772389 38.7011589,12.3332389 36.1201589,13.0852389 C35.9021589,13.1522389 35.8971589,13.4682389 36.1201589,13.5312389 C38.7251589,14.2532389 41.5841589,13.8762389 44.2571589,13.8722389 C45.3091589,13.8692389 45.3091589,12.2272389 44.2571589,12.2412389" id="Fill-539"></path>
            </g>
        </g>
    </g>
</svg>