<?xml version="1.0" encoding="UTF-8"?>
<svg width="50px" height="44px" viewBox="0 0 50 44" version="1.1" xmlns="http://www.w3.org/2000/svg" xmlns:xlink="http://www.w3.org/1999/xlink">
    <title>Group 35</title>
    <g id="Page-1" stroke="none" stroke-width="1" fill="none" fill-rule="evenodd">
        <g id="vectorstock_1327683" transform="translate(-499.000000, -483.000000)" fill="#0A0B09">
            <g id="Group-35" transform="translate(499.942495, 483.840688)">
                <path d="M39.9085055,12.9383116 C40.2985055,13.4833116 40.9325055,13.8633116 41.8095055,13.8633116 C44.9805055,13.8633116 44.9805055,8.9473116 41.8095055,8.9473116 C39.7745055,8.9473116 39.0485055,10.9763116 39.6305055,12.4283116 C39.5715055,12.2973116 39.5185055,12.1603116 39.4695055,12.0193116 C38.5415055,9.2453116 39.6375055,5.5383116 41.4675055,3.3473116 C41.8185055,2.9273116 42.2255055,2.5723116 42.6795055,2.2883116 C43.0245055,2.2883116 43.3555055,2.2513116 43.6565055,2.1483116 C43.7805055,2.1053116 43.8495055,1.9993116 43.8555055,1.8873116 C44.7455055,2.2373116 45.8035055,2.5623116 46.3715055,3.3753116 C47.0105055,4.2933116 47.1255055,5.4833116 47.1125055,6.5713116 C47.0825055,9.0223116 46.1795055,11.8113116 44.4345055,13.5783116 C42.9045055,15.1283116 40.9255055,14.5333116 39.9085055,12.9383116 Z M43.7405055,18.6203116 C38.2565055,18.7703116 32.5955055,19.3793116 27.4085055,21.1473116 C24.4365055,22.1613116 21.5695055,23.4123116 18.5525055,24.2993116 C14.8515055,25.3883116 12.7495055,25.6613116 11.5355055,21.8563116 C11.4835055,21.6913116 11.2175055,21.7153116 11.2235055,21.8993116 C11.3535055,26.4913116 13.4255055,26.3883116 17.6095055,25.7503116 C21.5235055,25.1513116 25.2455055,23.3003116 28.9835055,22.0703116 C33.9465055,20.4403116 39.5795055,20.1813116 44.7675055,20.1363116 C44.7865055,20.1363116 44.7955055,20.1273116 44.8115055,20.1273116 C45.7845055,21.7913116 46.2195055,23.7073116 45.8145055,25.9463116 C44.1135055,35.3153116 31.7725055,39.6003116 23.6005055,39.8473116 C12.7295055,40.1813116 2.83950547,30.5473116 8.95050547,19.7953116 C9.27850547,19.2163116 9.63650547,18.6703116 10.0185055,18.1523116 C12.2755055,16.4693116 14.4235055,14.6433116 16.5325055,12.7723116 C18.9735055,11.5193116 21.6805055,10.6613116 24.4545055,10.0413116 C25.3315055,14.0543116 30.4455055,16.4783116 34.5885055,15.1033116 C35.3065055,14.8673116 35.9415055,14.5033116 36.4885055,14.0473116 C36.6195055,14.3623116 36.7845055,14.6593116 36.9935055,14.9293116 C36.5875055,15.2493116 36.2045055,15.5643116 35.9585055,16.0553116 C35.8325055,16.2993116 35.9405055,16.5813116 36.2055055,16.6653116 C37.2335055,16.9893116 37.8755055,16.1923116 38.5015055,15.4893116 C38.7575055,15.2023116 38.7695055,14.7623116 38.4985055,14.4983116 C38.8155055,14.6803116 39.1225055,14.8703116 39.4295055,15.0603116 C39.4575055,15.0873116 39.4845055,15.1133116 39.5105055,15.1383116 C39.8995055,15.4853116 40.3085055,15.7453116 40.7305055,15.9283116 C41.8685055,16.7393116 42.8985055,17.6293116 43.7405055,18.6203116 Z M35.8485055,13.0783116 C35.2895055,13.5873116 34.6265055,13.9553116 33.9105055,14.1963116 C34.3885055,13.7743116 34.6615055,13.1643116 34.7215055,12.5303116 C35.0945055,12.7073116 35.4715055,12.8913116 35.8485055,13.0783116 Z M23.0375055,6.5593116 C23.2505055,6.3313116 23.4585055,6.0983116 23.6695055,5.8673116 C23.6965055,5.9993116 23.7285055,6.1343116 23.7675055,6.2683116 C23.8815055,6.6433116 24.4395055,6.6613116 24.5415055,6.2683116 C24.7075055,5.6423116 24.8135055,4.9843116 24.9955055,4.3623116 C25.0805055,4.2603116 25.1665055,4.1643116 25.2485055,4.0673116 C25.6885055,3.5423116 26.3495055,2.9233116 26.4005055,2.2333116 C27.0485055,1.7863116 27.8435055,1.5803116 28.6305055,1.5383116 C31.1165055,1.4033116 33.7245055,2.6583116 35.4625055,4.3723116 C37.2805055,6.1633116 38.0725055,8.8323116 37.1235055,11.2033116 C37.1515055,10.7163116 36.3605055,10.6153116 36.2635055,11.0953116 C36.2195055,11.3083116 36.1915055,11.5253116 36.1725055,11.7423116 C35.6005055,11.4993116 35.0325055,11.2733116 34.4725055,11.0573116 C34.1145055,10.3033116 33.3925055,9.7343116 32.3015055,9.7343116 C31.9155055,9.7343116 31.5785055,9.8073116 31.2825055,9.9333116 C31.0165055,9.8463116 30.7585055,9.7643116 30.5055055,9.6843116 C30.0805055,9.5513116 29.7935055,10.2103116 30.2005055,10.4083116 C30.2865055,10.4493116 30.3765055,10.4943116 30.4645055,10.5363116 C29.4635055,11.7213116 29.7255055,13.8753116 31.2475055,14.5533116 C30.5815055,14.5273116 29.9245055,14.4243116 29.3065055,14.2503116 C27.0265055,13.6143116 25.3355055,12.0123116 24.7565055,9.9763116 C28.5335055,9.1583116 32.4125055,8.7693116 35.8945055,8.4223116 C36.2195055,8.3893116 36.2265055,7.8833116 35.8945055,7.9083116 C32.2215055,8.1803116 28.3415055,8.4953116 24.5935055,9.2003116 C24.4875055,8.4203116 24.5355055,7.5953116 24.7655055,6.7443116 C24.7795055,6.6923116 24.7045055,6.6743116 24.6885055,6.7223116 C24.3855055,7.6083116 24.2815055,8.4543116 24.3405055,9.2493116 C22.4615055,9.6123116 20.6205055,10.0723116 18.8545055,10.6803116 C20.2955055,9.3533116 21.6955055,7.9833116 23.0375055,6.5593116 Z M35.8685055,1.5873116 C37.2345055,1.7223116 38.6055055,1.8073116 39.9735055,1.9453116 C40.4715055,1.9933116 41.0435055,2.1133116 41.6205055,2.1983116 C40.1585055,3.0073116 39.0155055,4.4523116 38.3115055,6.1283116 C37.6115055,4.4043116 36.2875055,2.9433116 34.7625055,1.8683116 C34.5345055,1.7053116 34.2985055,1.5553116 34.0575055,1.4113116 C34.6615055,1.4673116 35.2645055,1.5283116 35.8685055,1.5873116 Z M6.34650547,21.0213116 C5.92450547,21.8823116 5.61350547,22.7343116 5.38350547,23.5733116 C4.84850547,23.8863116 4.31850547,24.1893116 3.64850547,24.2613116 C2.67550547,24.3673116 1.36850547,24.0263116 1.26250547,22.8773116 C1.12250547,21.3423116 2.60150547,19.9763116 3.95050547,19.6083116 C5.10650547,19.2913116 6.01150547,19.7233116 6.60950547,20.5233116 C6.52150547,20.6903116 6.43250547,20.8503116 6.34650547,21.0213116 Z M45.9285055,14.4883116 C47.6965055,12.4873116 48.5565055,9.6643116 48.7095055,7.0383116 C48.7995055,5.4973116 48.5655055,3.7723116 47.6435055,2.4893116 C46.7285055,1.2163116 45.1805055,0.539311603 43.7235055,1.3483116 C43.6345055,1.3983116 43.5925055,1.4713116 43.5875055,1.5493116 C43.5835055,1.5493116 43.5805055,1.5503116 43.5785055,1.5523116 C42.6515055,1.0623116 41.3195055,1.1823116 40.3085055,1.1103116 C38.9465055,1.0133116 37.5785055,0.943311603 36.2125055,0.887311603 C35.1515055,0.845311603 34.0895055,0.849311603 33.0295055,0.874311603 C31.2185055,0.049311603 29.1485055,-0.273688397 27.2335055,0.264311603 C26.1345055,0.571311603 25.1895055,1.2673116 24.5375055,2.1673116 C23.7695055,3.0493116 23.0845055,4.0143116 22.3225055,4.9003116 C21.7395055,5.5763116 21.1365055,6.2353116 20.5275055,6.8853116 C20.8485055,5.4923116 20.7945055,3.9853116 19.9885055,3.0113116 C19.7835055,2.7623116 19.3705055,2.9133116 19.2935055,3.1943116 C19.0705055,4.0173116 19.2655055,4.6963116 19.2865055,5.5523116 C19.3165055,6.6233116 18.9825055,7.7113116 18.5415055,8.6753116 C18.4575055,8.8583116 18.3605055,9.0363116 18.2585055,9.2113116 C17.9955055,9.4713116 17.7355055,9.7333116 17.4695055,9.9903116 C16.6515055,10.7843116 15.8185055,11.5643116 14.9775055,12.3373116 C14.7205055,12.4713116 14.4705055,12.6063116 14.2225055,12.7493116 C15.0085055,11.9373116 15.7135055,11.0433116 16.3335055,10.0203116 C17.3565055,8.3323116 18.0545055,5.4623116 16.5785055,3.8823116 C16.3345055,3.6203116 15.9675055,3.8453116 15.9375055,4.1503116 C15.8485055,5.0103116 16.0625055,5.8063116 16.0435055,6.6713116 C16.0165055,7.8043116 15.4445055,8.9893116 14.9455055,9.9713116 C14.2985055,11.2443116 13.3705055,12.4543116 12.4225055,13.6043116 C13.9565055,10.8973116 14.7355055,7.2603116 12.2955055,5.3483116 C12.1235055,5.2123116 11.7525055,5.2663116 11.7905055,5.5563116 C12.0215055,7.3603116 12.4955055,8.9683116 12.2115055,10.8123116 C11.9655055,12.4043116 11.3175055,14.0633116 10.4865055,15.4673116 C10.3925055,15.5543116 10.2955055,15.6313116 10.2035055,15.7213116 C10.8345055,14.5773116 11.1315055,13.3403116 11.2175055,11.8973116 C11.3275055,10.0293116 10.7975055,7.1663116 8.94650547,6.2743116 C8.57850547,6.0983116 8.13850547,6.3853116 8.24850547,6.8123116 C8.65550547,8.3913116 9.62050547,9.6353116 9.82550547,11.3263116 C10.0445055,13.1703116 9.57550547,15.3313116 8.83350547,17.0183116 C8.81050547,17.0763116 8.82350547,17.1283116 8.84350547,17.1803116 C8.80250547,17.2273116 8.75750547,17.2703116 8.71650547,17.3223116 C9.03450547,16.0663116 9.04750547,14.7403116 8.84350547,13.3753116 C8.53250547,11.2593116 7.44650547,8.3093116 5.15050547,7.7113116 C4.79850547,7.6223116 4.54650547,7.9883116 4.70150547,8.2953116 C5.55150547,9.9743116 6.63450547,11.3343116 7.16150547,13.1923116 C7.70450547,15.1143116 7.79550547,17.3593116 7.29850547,19.3253116 C7.20950547,19.4703116 7.11750547,19.6083116 7.02950547,19.7563116 C6.48750547,19.0503116 5.51450547,18.6423116 4.51950547,18.5993116 C2.36650547,18.5043116 0.496505473,20.2763116 0.0685054733,22.3023116 C-0.512494527,25.0513116 2.72850547,26.1633116 5.01050547,25.5233116 C4.05350547,34.2923116 13.0365055,41.1893116 21.5645055,42.0093116 C31.6985055,42.9843116 44.2195055,37.6323116 47.6905055,27.5193116 C49.3705055,22.6263116 47.2075055,18.8703116 43.6875055,16.0273116 C44.5135055,15.7453116 45.2865055,15.2143116 45.9285055,14.4883116 L45.9285055,14.4883116 Z" id="Fill-501"></path>
                <path d="M46.3175055,20.3133116 C46.1215055,19.8783116 45.5805055,19.7683116 45.1635055,19.8453116 C43.4975055,20.1513116 41.8645055,20.5853116 40.2465055,21.0843116 C38.9945055,21.4723116 37.4435055,21.9873116 36.5005055,22.9273116 C36.4305055,22.9973116 36.4575055,23.1383116 36.5625055,23.1593116 C37.7455055,23.4043116 38.9285055,23.0343116 40.1035055,22.8423116 C41.8895055,22.5533116 43.6345055,22.0723116 45.4355055,21.8523116 C45.8575055,21.8003116 46.3395055,21.5803116 46.4215055,21.1033116 C46.4755055,20.7783116 46.4515055,20.6133116 46.3175055,20.3133116" id="Fill-502"></path>
            </g>
        </g>
    </g>
</svg>