<?xml version="1.0" encoding="UTF-8"?>
<svg width="50px" height="56px" viewBox="0 0 50 56" version="1.1" xmlns="http://www.w3.org/2000/svg" xmlns:xlink="http://www.w3.org/1999/xlink">
    <title>Group 69</title>
    <g id="Page-1" stroke="none" stroke-width="1" fill="none" fill-rule="evenodd">
        <g id="vectorstock_1327683" transform="translate(-318.000000, -132.000000)" fill="#0A0B09">
            <g id="Group-69" transform="translate(318.241439, 132.803749)">
                <path d="M42.6795614,43.5472508 C43.2245614,42.0272508 43.5165614,40.4652508 43.5165614,39.0372508 C43.5135614,38.5672508 42.9025614,38.2842508 42.5685614,38.6432508 C41.3855614,39.9292508 40.3175614,40.8862508 38.6505614,41.1832508 C40.4075614,38.4682508 42.4615614,36.3582508 42.3025614,32.8182508 C42.2805614,32.3852508 41.7805614,32.1692508 41.4585614,32.4692508 C39.8095614,34.0112508 38.0305614,35.3102508 35.8505614,35.5542508 C38.2605614,33.6702508 39.3495614,31.0432508 39.1045614,27.7522508 C39.0705614,27.2482508 38.4175614,27.0252508 38.1345614,27.4892508 C36.7345614,29.8082508 34.3425614,31.0072508 31.7595614,31.2882508 C37.2085614,25.7272508 38.2245614,13.9482508 32.1705614,8.86625077 C33.8075614,9.60225077 35.4105614,10.4562508 36.9645614,11.5132508 C41.9195614,14.8892508 45.2295614,19.9892508 46.6375614,25.7682508 C48.2995614,32.5912508 46.5035614,38.7712508 42.6795614,43.5472508 Z M39.3295614,46.8512508 C39.2135614,46.9952508 39.0895614,47.1292508 38.9645614,47.2632508 C35.6785614,49.9092508 31.6495614,51.8112508 27.3185614,52.7322508 C15.7455614,55.1872508 5.42556144,48.5262508 2.08456144,37.7652508 C3.36356144,38.6622508 5.11856144,38.6362508 6.73056144,38.2132508 C7.23956144,38.0782508 7.27056144,37.4242508 6.86856144,37.1542508 C4.88156144,35.8192508 3.29756144,34.2082508 2.42356144,32.0352508 C3.46956144,32.1992508 4.29456144,31.9952508 5.46656144,31.4412508 C5.71756144,31.3232508 5.82156144,30.9282508 5.65856144,30.7032508 C3.10356144,27.0782508 2.95856144,22.5782508 4.11156144,18.4402508 C4.35256144,18.0032508 4.60456144,17.5662508 4.87156144,17.1452508 C8.20356144,11.9342508 13.9825614,8.89225077 19.7395614,7.16725077 C19.9225614,7.11225077 19.8475614,6.83725077 19.6615614,6.88625077 C17.9755614,7.34625077 16.2895614,7.91825077 14.6605614,8.61725077 C14.6545614,8.37125077 14.4945614,8.13025077 14.1765614,8.13725077 C12.1135614,8.17725077 10.8015614,7.07925077 10.5705614,5.20125077 C12.1885614,5.76125077 13.8275614,6.07625077 15.5585614,6.13525077 C16.1455614,6.15325077 16.1735614,5.35925077 15.6865614,5.17425077 C13.9915614,4.52225077 13.4235614,3.29125077 13.4695614,1.77725077 C16.1895614,4.17325077 19.0415614,5.29125077 22.6855614,5.48425077 C25.3355614,6.34525077 27.9305614,7.13925077 30.4405614,8.13625077 C37.7325614,12.8542508 36.5605614,26.4672508 30.0245614,31.4362508 C29.6215614,31.7432508 29.7235614,32.4182508 30.2965614,32.4312508 C33.2535614,32.4882508 36.1375614,31.4632508 38.0755614,29.2912508 C37.8975614,32.0232508 36.5795614,34.1192508 33.9555614,35.6042508 C33.4715614,35.8782508 33.7485614,36.4872508 34.2085614,36.5472508 C36.9915614,36.9052508 39.2555614,35.6762508 41.2785614,33.9562508 C40.9605614,36.9952508 38.7925614,38.9162508 37.2195614,41.5392508 C37.0215614,41.8732508 37.2785614,42.3152508 37.6625614,42.3142508 C39.5725614,42.3012508 40.9875614,41.5852508 42.2995614,40.4392508 C41.9855614,42.8692508 40.9445614,44.8852508 39.3295614,46.8512508 Z M1.42556144,35.1672508 C1.19756144,34.0002508 1.06456144,32.8082508 1.01856144,31.6102508 C1.69056144,33.9862508 3.17156144,35.8032508 5.06556144,37.2762508 C3.89156144,37.2612508 2.86256144,36.8112508 1.69056144,36.3642508 C1.59556144,35.9702508 1.50556144,35.5722508 1.42556144,35.1672508 Z M2.76256144,21.3062508 C2.64756144,22.0752508 2.57656144,22.8582508 2.54956144,23.6652508 C2.50256144,25.0392508 2.75456144,26.4002508 3.06756144,27.7302508 C3.41856144,29.2212508 5.87156144,32.0962508 1.66956144,30.6342508 C1.39256144,30.5382508 1.13256144,30.6882508 1.00456144,30.9162508 C0.968561439,27.6502508 1.57256144,24.3442508 2.76256144,21.3062508 Z M48.7465614,28.1512508 C47.0005614,15.2712508 35.4775614,5.18625077 22.4665614,4.51725077 C22.1775614,4.50225077 22.0385614,4.72825077 22.0485614,4.95625077 C18.8695614,4.01025077 15.8595614,2.43025077 13.4345614,0.170250773 C13.0345614,-0.204749227 12.5055614,0.0882507735 12.4455614,0.578250773 C12.2315614,2.35925077 12.5805614,3.87625077 13.6395614,4.95925077 C12.4585614,4.77325077 11.3085614,4.46725077 10.1625614,4.01625077 C9.85456144,3.89425077 9.54156144,4.20025077 9.53356144,4.49425077 C9.48256144,7.13225077 11.0605614,8.90325077 13.5515614,9.11625077 C10.1975614,10.7082508 7.14356144,12.8942508 4.88356144,15.8802508 C4.79956144,15.8022508 4.63356144,15.7862508 4.56856144,15.9092508 C4.30156144,16.3812508 4.08056144,16.8542508 3.87256144,17.3342508 C0.651561439,22.3872508 -0.445438561,28.4742508 0.158561439,34.4362508 C1.52856144,47.9542508 13.5485614,56.2452508 26.6245614,54.4992508 C39.5425614,52.7692508 50.5785614,41.6642508 48.7465614,28.1512508 L48.7465614,28.1512508 Z" id="Fill-488"></path>
                <path d="M18.6195614,32.5682508 C17.9615614,32.3632508 11.3635614,30.3012508 12.2705614,29.4032508 C13.5855614,28.1022508 14.7255614,26.6462508 15.8075614,25.1502508 C18.2485614,21.7702508 19.5575614,17.8392508 19.8485614,13.7042508 C19.8615614,13.5132508 19.5805614,13.5232508 19.5575614,13.7042508 C18.7325614,19.9692508 15.3335614,25.1842508 10.8505614,29.4932508 C10.6245614,29.7122508 10.7015614,30.0642508 10.9465614,30.2272508 C13.2515614,31.7702508 15.7095614,33.1772508 18.5515614,33.0772508 C18.8465614,33.0662508 18.9035614,32.6542508 18.6195614,32.5682508" id="Fill-489"></path>
                <path d="M24.0795614,14.7352508 C23.1345614,14.7352508 22.3465614,15.5232508 22.3465614,16.4672508 C22.3465614,17.4122508 23.1345614,18.1992508 24.0795614,18.1992508 C25.0225614,18.1992508 25.8095614,17.4122508 25.8095614,16.4672508 C25.8095614,15.5232508 25.0225614,14.7352508 24.0795614,14.7352508" id="Fill-490"></path>
                <path d="M14.6365614,14.2912508 C12.4225614,14.2912508 12.4225614,17.7222508 14.6365614,17.7222508 C16.8495614,17.7222508 16.8495614,14.2912508 14.6365614,14.2912508" id="Fill-491"></path>
                <path d="M23.1575614,10.4352508 C20.9465614,10.4242508 17.8035614,11.5472508 15.8045614,10.2212508 C15.7715614,10.2002508 15.7425614,10.2452508 15.7665614,10.2722508 C17.5395614,12.3602508 21.0765614,12.5202508 23.2955614,10.9472508 C23.5105614,10.7962508 23.4485614,10.4372508 23.1575614,10.4352508" id="Fill-492"></path>
                <path d="M31.1865614,41.2962508 C29.5155614,44.4712508 24.4995614,45.9352508 20.8545614,46.1752508 C16.6765614,46.4472508 13.1435614,44.2022508 10.9465614,41.2432508 C10.5975614,40.7712508 11.4145614,40.3842508 11.7795614,40.8102508 C14.4185614,43.9082508 18.1455614,45.2062508 22.4305614,44.5652508 C25.7765614,44.0632508 27.6205614,41.9692508 30.3615614,40.5632508 C30.9195614,40.2782508 31.4315614,40.8282508 31.1865614,41.2962508" id="Fill-493"></path>
            </g>
        </g>
    </g>
</svg>