<?xml version="1.0" encoding="UTF-8"?>
<svg width="60px" height="45px" viewBox="0 0 60 45" version="1.1" xmlns="http://www.w3.org/2000/svg" xmlns:xlink="http://www.w3.org/1999/xlink">
    <title>Group 13</title>
    <g id="Page-1" stroke="none" stroke-width="1" fill="none" fill-rule="evenodd">
        <g id="vectorstock_1327683" transform="translate(-186.000000, -133.000000)" fill="#0A0B09">
            <g id="Group-13" transform="translate(186.149838, 133.100253)">
                <path d="M23.9611617,18.8477472 C22.9751617,18.7457472 22.1671617,19.1737472 21.2331617,19.4647472 C20.6901617,19.6337472 20.1331617,19.7747472 19.5741617,19.8807472 C21.3081617,17.0357472 23.1491617,13.5707472 22.8541617,10.4137472 C22.8231617,10.0827472 22.3631617,9.88874719 22.1791617,10.2317472 C21.3311617,11.8307472 20.8891617,13.6527472 20.1101617,15.3027472 C19.2311617,17.1687472 18.0701617,18.8967472 16.8941617,20.5857472 C16.4791617,21.1837472 17.0331617,22.0357472 17.7191617,22.0207472 C19.7601617,21.9727472 23.0631617,21.7167472 24.4921617,20.1267472 C24.9541617,19.6107472 24.6111617,18.9147472 23.9611617,18.8477472" id="Fill-474"></path>
                <path d="M19.5541617,7.56174719 C18.4011617,7.56174719 17.4351617,8.52574719 17.4351617,9.67874719 C17.4351617,10.8347472 18.4011617,11.7967472 19.5541617,11.7967472 C20.7101617,11.7967472 21.6721617,10.8347472 21.6721617,9.67874719 C21.6721617,8.52574719 20.7101617,7.56174719 19.5541617,7.56174719" id="Fill-475"></path>
                <path d="M24.6961617,6.35574719 C23.4871617,6.35574719 22.4751617,7.36774719 22.4751617,8.57774719 C22.4751617,9.78774719 23.4871617,10.7977472 24.6961617,10.7977472 C25.9081617,10.7977472 26.9161617,9.78774719 26.9161617,8.57774719 C26.9161617,7.36774719 25.9081617,6.35574719 24.6961617,6.35574719" id="Fill-476"></path>
                <path d="M56.3211617,15.6927472 C56.3111617,15.7147472 56.3011617,15.7497472 56.2811617,15.8237472 C56.2651617,15.8857472 56.2601617,15.9197472 56.2541617,15.9397472 C56.2481617,15.9487472 56.2341617,15.9667472 56.2081617,16.0147472 C56.1931617,16.0417472 56.1761617,16.0637472 56.1631617,16.0887472 C56.1511617,16.0927472 56.0611617,16.2017472 56.0261617,16.2387472 C56.0101617,16.2507472 56.0181617,16.2467472 56.0101617,16.2557472 C55.9431617,16.3007472 55.8721617,16.3407472 55.8021617,16.3807472 C55.7831617,16.3917472 55.7171617,16.4217472 55.6761617,16.4407472 C55.6141617,16.4637472 55.5491617,16.4857472 55.4851617,16.5057472 C54.9431617,16.6757472 54.7731617,16.6647472 54.1721617,16.6697472 C53.9641617,16.6717472 53.7701617,16.6777472 53.5731617,16.6827472 C53.0251617,15.1257472 52.2631617,13.6857472 51.3291617,12.3597472 C51.2541617,11.6107472 51.0831617,10.8677472 51.1581617,10.1007472 C51.1691617,9.95974719 51.2231617,9.79074719 51.3151617,9.63074719 C51.3241617,9.63474719 51.3871617,9.56074719 51.3341617,9.59174719 C51.3371617,9.58974719 51.3371617,9.58974719 51.3371617,9.58874719 C51.3561617,9.57474719 51.3661617,9.56274719 51.3691617,9.55974719 C51.3821617,9.55974719 51.4141617,9.55774719 51.5001617,9.54174719 C51.4911617,9.54374719 51.4881617,9.54574719 51.4791617,9.54774719 C51.2381617,9.59574719 51.5931617,9.59474719 51.5701617,9.56874719 C51.6641617,9.58874719 51.7571617,9.60874719 51.8501617,9.63674719 C52.0311617,9.69374719 52.2421617,9.79974719 52.5811617,10.0097472 C53.1801617,10.3847472 53.6851617,10.8557472 54.2421617,11.4617472 C54.8141617,12.0807472 55.2041617,12.6157472 55.6451617,13.3987472 C55.8681617,13.7957472 55.9641617,14.0107472 56.0641617,14.2747472 C56.1251617,14.4407472 56.1781617,14.6097472 56.2231617,14.7807472 C56.2461617,14.8647472 56.2621617,14.9457472 56.2811617,15.0287472 C56.2941617,15.0817472 56.3011617,15.1097472 56.3041617,15.1307472 C56.3041617,15.1357472 56.3041617,15.1377472 56.3081617,15.1477472 C56.3251617,15.3017472 56.3251617,15.4567472 56.3211617,15.6107472 C56.3181617,15.6547472 56.3181617,15.6787472 56.3211617,15.6927472 Z M57.5691617,12.6177472 C56.7151617,11.0897472 55.4521617,9.75174719 54.0311617,8.73974719 C52.9241617,7.95574719 51.3691617,7.30474719 50.1801617,8.27274719 C49.6991617,8.66674719 49.4711617,9.31274719 49.4041617,10.0307472 C44.1401617,4.56274719 35.6711617,1.65274719 28.0011617,1.66374719 C27.2481617,1.66374719 27.0811617,2.79274719 27.8231617,2.98174719 C38.5641617,5.69874719 52.1061617,9.59874719 51.6651617,23.2657472 C51.3341617,33.6957472 38.6001617,39.0547472 30.0091617,40.6027472 C29.4721617,40.6997472 28.9221617,40.7667472 28.3721617,40.8307472 C28.3741617,40.8107472 28.3851617,40.7957472 28.3871617,40.7727472 C28.6351617,37.4707472 28.4231617,33.4627472 30.1581617,30.4627472 C32.6841617,30.3657472 35.5901617,30.5007472 37.8011617,29.2037472 C38.1641617,28.9887472 38.0951617,28.4167472 37.6811617,28.3067472 C35.1921617,27.6407472 32.3921617,28.4317472 29.8581617,28.6637472 C27.1181617,28.9127472 24.3331617,28.8787472 21.6031617,29.2057472 C21.4941617,26.8537472 21.3311617,24.5147472 21.1261617,22.1687472 C21.1161617,22.0357472 20.9321617,22.0357472 20.9201617,22.1687472 C20.6951617,24.7417472 20.5161617,27.3017472 20.4071617,29.8807472 C20.3961617,30.1287472 20.5991617,30.4427472 20.8601617,30.4747472 C23.4281617,30.8337472 26.0901617,30.6707472 28.6941617,30.5327472 C26.5781617,33.0867472 26.5061617,37.8847472 26.2421617,40.7727472 C26.2351617,40.8487472 26.2481617,40.9237472 26.2621617,40.9977472 C16.0791617,41.4177472 5.26516174,36.3697472 2.34216174,26.0487472 C0.631161739,20.0067472 2.02816174,15.0947472 5.08816174,11.2167472 C4.14516174,12.9687472 3.55916174,14.9267472 3.40316174,17.0257472 C3.11816174,20.9297472 3.90816174,26.8867472 8.44116174,28.0257472 C8.76116174,28.1067472 8.98716174,27.7767472 8.84716174,27.4947472 C7.21116174,24.1907472 5.45416174,21.9607472 5.35716174,18.0567472 C5.27216174,14.4447472 6.75416174,10.4097472 8.95816174,7.44174719 C13.9561617,3.59074719 20.6971617,1.24774719 26.5671617,0.25574719 C26.7101617,0.23074719 26.6801617,-0.0152528097 26.5341617,0.000747190261 C12.9281617,1.63374719 -0.0528382606,8.01374719 3.55271368e-15,23.5177472 C0.0491617394,37.8047472 15.8901617,44.4897472 28.0411617,43.6747472 C38.5201617,42.9737472 53.2601617,36.4097472 54.4561617,24.4627472 C54.6471617,22.5357472 54.5481617,20.7227472 54.2101617,19.0247472 C55.7071617,19.0227472 57.2611617,18.4577472 58.0431617,17.2517472 C58.9631617,15.8297472 58.3151617,13.9517472 57.5691617,12.6177472 L57.5691617,12.6177472 Z" id="Fill-477"></path>
                <path d="M15.3191617,3.83674719 C11.3771617,5.84974719 9.17316174,9.81474719 8.38916174,14.0447472 C7.74616174,17.5127472 7.88416174,23.5007472 11.1211617,25.7097472 C11.5391617,25.9927472 12.2201617,25.6217472 12.1691617,25.1067472 C11.8451617,21.7307472 10.2141617,18.9537472 10.3751617,15.3677472 C10.5721617,11.0717472 12.5991617,7.22374719 15.7881617,4.44374719 C16.1341617,4.14174719 15.6921617,3.64374719 15.3191617,3.83674719" id="Fill-478"></path>
            </g>
        </g>
    </g>
</svg>