<?xml version="1.0" encoding="UTF-8"?>
<svg width="53px" height="51px" viewBox="0 0 53 51" version="1.1" xmlns="http://www.w3.org/2000/svg" xmlns:xlink="http://www.w3.org/1999/xlink">
    <title>Group 24</title>
    <g id="Page-1" stroke="none" stroke-width="1" fill="none" fill-rule="evenodd">
        <g id="vectorstock_1327683" transform="translate(-9.000000, -413.000000)" fill="#1B1A19">
            <g id="Group-24" transform="translate(9.395632, 413.569363)">
                <path d="M48.1363684,44.7636373 C46.9383684,45.1746373 42.8903684,45.1226373 42.9643684,43.1566373 C42.9673684,43.0806373 42.9323684,43.0206373 42.8843684,42.9766373 C44.2853684,41.4686373 45.4993684,39.7446373 46.4993684,37.8416373 C48.3333684,37.6976373 50.0633684,38.4326373 50.6723684,40.4036373 C51.2653684,42.3186373 49.8713684,44.1676373 48.1363684,44.7636373 Z M34.4913684,17.4036373 C34.5323684,17.4796373 34.6013684,17.5396373 34.7073684,17.5546373 C35.0493684,17.6016373 35.3763684,17.6626373 35.6743684,17.7526373 C35.6983684,17.7676373 35.7243684,17.7766373 35.7483684,17.7936373 C35.7753684,17.8106373 35.8023684,17.8116373 35.8283684,17.8066373 C36.5333684,18.0556373 37.0183684,18.5116373 36.9483684,19.5026373 C36.8593684,20.7346373 35.8733684,21.9336373 34.8213684,22.4916373 C33.3553684,23.2666373 31.6603684,22.1866373 31.6983684,20.5536373 C31.7343684,18.9956373 33.0163684,17.4136373 34.4913684,17.4036373 Z M17.2413684,46.4836373 C6.42036841,42.5286373 -0.588631593,31.9916373 1.42736841,20.4326373 C2.41236841,14.7886373 5.82236841,9.9346373 10.6173684,6.8726373 C17.1243684,2.7156373 25.1393684,2.8096373 32.5063684,3.8426373 C33.1933684,3.9376373 33.8773684,4.0456373 34.5613684,4.1586373 C36.7603684,5.0396373 38.8483684,6.1166373 40.6963684,7.4466373 C42.2103684,10.1576373 41.4153684,13.8916373 40.1413684,16.8726373 C39.5413684,18.2766373 38.8313684,19.5436373 38.0243684,20.7226373 C38.1343684,20.4266373 38.2183684,20.1266373 38.2683684,19.8296373 C38.6443684,17.5996373 36.7953684,16.2766373 34.7073684,16.8506373 C34.6223684,16.8746373 34.5583684,16.9316373 34.5143684,17.0026373 C32.9513684,16.8146373 31.4573684,18.2796373 30.8943684,19.8246373 C30.0643684,22.0986373 32.1383684,24.3206373 34.4433684,23.9796373 C34.9533684,23.9046373 35.4353684,23.7116373 35.8743684,23.4366373 C35.0163684,24.3956373 34.0943684,25.3186373 33.1013684,26.2306373 C32.7813684,26.5256373 33.1233684,26.9866373 33.4983684,26.9126373 C37.8243684,26.0496373 40.7753684,19.5566373 41.9143684,15.8716373 C42.6663684,13.4386373 42.8913684,10.7146373 42.0553684,8.5206373 C43.0393684,9.3626373 43.9283684,10.2976373 44.7053684,11.3286373 C45.8103684,14.7136373 44.1633684,20.0106373 43.1693684,22.7066373 C42.1683684,25.4256373 40.6613684,27.9976373 38.7293684,30.1526373 C36.7133684,32.4026373 34.3803684,33.1986373 31.5553684,33.8846373 C30.9663684,34.0286373 30.9143684,35.0206373 31.5553684,35.1256373 C37.9553684,36.1786373 42.3333684,28.5816373 44.2463684,23.6436373 C45.2943684,20.9366373 45.6343684,18.0146373 45.6583684,15.1266373 C45.6653684,14.2746373 45.6303684,13.3206373 45.4513684,12.4126373 C46.0463684,13.3566373 46.5513684,14.3796373 46.9503684,15.4846373 C46.9293684,15.5166373 46.9173684,15.5546373 46.9403684,15.5926373 C46.9933684,15.6806373 47.0343684,15.7766373 47.0813684,15.8676373 C47.1883684,16.1886373 47.2923684,16.5126373 47.3793684,16.8466373 C47.5683684,17.5646373 47.7183684,18.2966373 47.8433684,19.0346373 C47.9743684,21.8806373 47.1013684,25.1476373 46.6393684,27.4976373 C45.8083684,31.7316373 44.9873684,35.6896373 40.5903684,37.3976373 C40.2313684,37.5386373 40.0973684,38.1996373 40.5903684,38.2666373 C44.1713684,38.7556373 46.0033684,35.6226373 46.9763684,32.4416373 C46.4723684,34.1836373 45.8253684,35.8696373 45.0473684,37.4566373 C39.8613684,48.0166373 27.5213684,50.2416373 17.2413684,46.4836373 Z M51.4903684,39.6336373 C50.6293684,37.7726373 48.7593684,36.7386373 46.9073684,37.0326373 C47.2873684,36.2416373 47.6343684,35.4226373 47.9423684,34.5756373 C50.1703684,28.4396373 50.7703684,20.2346373 48.0723684,14.1396373 C46.2293684,9.9736373 43.1653684,7.0426373 39.3923684,5.0526373 C39.7173684,5.1166373 40.0453684,5.1796373 40.3723684,5.2426373 C40.3983684,5.2486373 40.4103684,5.2086373 40.3833684,5.2026373 C39.9843684,5.1146373 39.5803684,5.0266373 39.1753684,4.9396373 C37.7173684,4.1886373 36.1583684,3.5736373 34.5193684,3.0836373 C33.9693684,2.9196373 33.7363684,3.6126373 34.0913684,3.9306373 C24.2233684,2.1846373 13.8663684,1.9096373 6.13236841,9.4256373 C-0.734631593,16.0996373 -1.57563159,26.9236373 2.32036841,35.3126373 C6.42436841,44.1466373 16.5023684,49.2616373 25.9053684,49.7606373 C32.2703684,50.0996373 37.8413684,47.8696373 41.9913684,43.8836373 C42.2063684,44.4826373 42.9173684,45.1636373 43.3173684,45.3866373 C44.9873684,46.3206373 47.4283684,46.4946373 49.1613684,45.6456373 C51.2823684,44.6036373 52.5263684,41.8726373 51.4903684,39.6336373 L51.4903684,39.6336373 Z" id="Fill-2"></path>
                <path d="M34.8143684,38.4236373 C28.6693684,42.1626373 21.5423684,40.1646373 15.7223684,36.7216373 C12.4243684,34.7706373 9.81636841,31.8726373 8.10636841,28.4626373 C6.81136841,25.8796373 4.45536841,18.3536373 8.14336841,16.6106373 C8.23036841,16.5696373 8.16836841,16.4216373 8.07736841,16.4536373 C5.12336841,17.5086373 5.43236841,21.9416373 5.78136841,24.4216373 C6.49736841,29.5046373 9.46636841,33.8406373 13.3653684,37.0376373 C18.4903684,41.2386373 30.5803684,45.9006373 35.4613684,39.0686373 C35.7443684,38.6746373 35.2023684,38.1886373 34.8143684,38.4236373" id="Fill-3"></path>
                <path d="M31.1893684,12.2856373 C31.2703684,12.1126373 31.0203684,11.9606373 30.9313684,12.1356373 C27.9563684,17.8206373 22.9633684,22.0456373 17.7763684,25.6626373 C17.2783684,26.0086373 17.4603684,26.7586373 18.0833684,26.7946373 C20.9243684,26.9566373 23.1743684,27.5986373 25.5413684,29.1826373 C25.8053684,29.3576373 26.2403684,29.0606373 26.1093684,28.7456373 C25.0703684,26.2516373 22.3653684,25.6506373 19.8253684,25.5676373 C24.4013684,21.8626373 28.6753684,17.6976373 31.1893684,12.2856373" id="Fill-4"></path>
                <path d="M4.52436841,0.8286373 C1.82936841,3.0556373 2.97036841,9.3196373 7.11236841,8.2586373 C7.16036841,8.2476373 7.15036841,8.1726373 7.10236841,8.1746373 C3.52736841,8.2826373 3.03336841,3.8706373 4.93936841,1.6466373 C5.93336841,0.4896373 7.64936841,0.6536373 8.86836841,1.2916373 C10.3103684,2.0446373 10.8603684,3.6246373 10.5553684,5.1656373 C10.5083684,5.4026373 10.8123684,5.5396373 10.9483684,5.3306373 C13.3493684,1.6166373 7.41736841,-1.5623627 4.52436841,0.8286373" id="Fill-5"></path>
                <path d="M20.5163684,10.2146373 C20.5093684,10.2876373 20.6293684,10.3046373 20.6413684,10.2316373 C21.0223684,7.8916373 25.2913684,7.1986373 26.1333684,9.5606373 C26.7973684,11.4246373 25.0743684,13.1026373 23.4713684,13.5896373 C22.5893684,13.8556373 21.6243684,13.8566373 20.7323684,13.6546373 C20.2683684,13.5506373 19.8943684,13.1076373 19.6673684,12.7236373 C19.3073684,12.1126373 19.8743684,11.5466373 20.2933684,11.1756373 C20.4773684,11.0126373 20.3413684,10.6306373 20.0813684,10.6626373 C19.0503684,10.7876373 18.0713684,11.5506373 18.4173684,12.7216373 C18.7853684,13.9666373 19.8703684,14.7666373 21.1463684,14.8806373 C24.0173684,15.1376373 26.8293684,13.7426373 27.0883684,10.6666373 C27.4193684,6.7626373 20.7853684,6.6546373 20.5163684,10.2146373" id="Fill-6"></path>
                <path d="M33.7673684,18.1406373 L33.5573684,18.1406373 C32.8433684,18.1406373 32.2493684,18.7346373 32.2493684,19.4476373 C32.2493684,20.1606373 32.8433684,20.7566373 33.5573684,20.7566373 L33.7673684,20.7566373 C34.4803684,20.7566373 35.0763684,20.1606373 35.0763684,19.4476373 C35.0763684,18.7346373 34.4803684,18.1406373 33.7673684,18.1406373" id="Fill-7"></path>
                <path d="M22.7063684,9.2416373 C22.2513684,9.2416373 21.8873684,9.4786373 21.6633684,9.8356373 C21.6203684,9.8896373 21.5763684,9.9386373 21.5383684,10.0026373 C21.3593684,10.3006373 21.3893684,10.6226373 21.5403684,10.8996373 C21.5423684,10.9076373 21.5443684,10.9146373 21.5463684,10.9226373 C21.5443684,10.9236373 21.5403684,10.9246373 21.5383684,10.9256373 C21.5423684,10.9326373 21.5463684,10.9356373 21.5513684,10.9426373 C21.5543684,10.9526373 21.5583684,10.9626373 21.5633684,10.9726373 C21.6133684,11.1886373 21.7393684,11.3896373 21.9373684,11.4746373 C21.9643684,11.4876373 21.9913684,11.4966373 22.0173684,11.5066373 C22.2253684,11.6416373 22.4673684,11.7226373 22.7063684,11.7226373 C23.3833684,11.7226373 23.9483684,11.1576373 23.9483684,10.4806373 C23.9483684,9.8056373 23.3833684,9.2416373 22.7063684,9.2416373" id="Fill-8"></path>
                <path d="M22.2433684,16.4256373 C21.0353684,16.3996373 19.7893684,16.5536373 18.6693684,15.9946373 C17.4563684,15.3916373 16.9933684,13.9606373 16.8603684,12.7096373 C16.8453684,12.5736373 16.6543684,12.5696373 16.6453684,12.7096373 C16.5503684,14.2246373 16.9063684,15.7146373 18.1053684,16.7256373 C19.3213684,17.7486373 21.0853684,17.7586373 22.3843684,16.9446373 C22.6193684,16.7966373 22.5243684,16.4306373 22.2433684,16.4256373" id="Fill-9"></path>
                <path d="M32.7253684,25.1886373 C31.8873684,24.3566373 30.4343684,25.3206373 29.9893684,23.8616373 C29.8413684,23.3846373 29.9733684,22.7666373 29.9793684,22.2756373 C29.9893684,21.6526373 30.0223684,20.9746373 30.3043684,20.4066373 C30.3453684,20.3246373 30.2343684,20.2236373 30.1693684,20.3046373 C29.3653684,21.2976373 29.0023684,23.0826373 29.2763684,24.3206373 C29.5513684,25.5596373 31.7833684,26.4526373 32.7253684,25.5216373 C32.8163684,25.4326373 32.8163684,25.2776373 32.7253684,25.1886373" id="Fill-10"></path>
            </g>
        </g>
    </g>
</svg>