<?xml version="1.0" encoding="UTF-8"?>
<svg width="56px" height="48px" viewBox="0 0 56 48" version="1.1" xmlns="http://www.w3.org/2000/svg" xmlns:xlink="http://www.w3.org/1999/xlink">
    <title>Group 62</title>
    <g id="Page-1" stroke="none" stroke-width="1" fill="none" fill-rule="evenodd">
        <g id="vectorstock_1327683" transform="translate(-315.000000, -192.000000)" fill="#0A0B09">
            <g id="Group-62" transform="translate(315.279591, 192.394539)">
                <path d="M7.08140922,21.8194615 C6.10140922,22.1754615 5.24340922,22.8214615 4.13940922,22.6714615 C2.81040922,22.4914615 1.98940922,21.2124615 1.60040922,20.0524615 C1.02840922,18.3404615 1.39740922,16.2864615 2.72540922,15.0444615 C3.64440922,14.1854615 5.10240922,13.9314615 6.26840922,14.3194615 C7.19640922,14.6304615 7.67340922,15.3694615 7.90440922,16.2244615 C7.47340922,15.8544615 6.92340922,15.6194615 6.32140922,15.6194615 C4.98340922,15.6194615 3.86640922,16.7354615 3.86640922,18.0734615 C3.86640922,19.4124615 4.98340922,20.5294615 6.32140922,20.5294615 C6.61940922,20.5294615 6.90740922,20.4654615 7.17440922,20.3624615 C7.12440922,20.8494615 7.08840922,21.3354615 7.08140922,21.8194615 Z M36.1584092,6.03646149 C35.6094092,5.90246149 35.0624092,6.40946149 35.0654092,6.91246149 C35.0534092,6.58246149 35.0444092,6.24846149 35.0274092,5.91646149 C35.0234092,5.87946149 34.9704092,5.87946149 34.9664092,5.91646149 C34.5024092,11.0234615 33.6564092,16.0564615 34.2254092,21.1914615 C34.2724092,21.6044615 34.5434092,21.9664615 34.9964092,21.9624615 C36.6564092,21.9364615 38.2814092,22.2144615 39.8974092,22.5594615 C42.1894092,23.0474615 45.8314092,25.2644615 41.5454092,26.8174615 C39.3424092,27.6174615 36.2244092,26.2274615 34.2794092,25.2834615 C32.9194092,24.6234615 31.9254092,23.0654615 30.4924092,22.7534615 C30.1674092,22.6834615 29.7764092,22.8454615 29.7014092,23.2014615 C28.7214092,27.8514615 44.1704092,32.1274615 45.5414092,25.5684615 C46.1824092,22.4964615 42.7744092,21.3934615 40.3844092,20.7964615 C39.5014092,20.5754615 38.6004092,20.4734615 37.6954092,20.3904615 C35.4794092,20.1914615 35.6604092,21.1224615 35.2884092,18.1664615 C35.1894092,17.3794615 35.1334092,16.5854615 35.0944092,15.7894615 C35.4174092,16.3634615 36.0094092,16.7784615 36.8664092,16.7784615 C39.6174092,16.7784615 39.6174092,12.5124615 36.8664092,12.5124615 C35.9534092,12.5124615 35.3494092,12.9854615 35.0434092,13.6154615 C35.0354092,11.4094615 35.1334092,9.19346149 35.0684092,6.99546149 C35.0874092,7.15946149 35.1664092,7.31846149 35.3314092,7.45246149 C40.0574092,11.2334615 45.0774092,13.6954615 48.4914092,18.9404615 C51.8144092,24.0414615 51.1974092,32.1594615 48.3214092,37.3184615 C46.4214092,40.7244615 43.3224092,42.5734615 39.8214092,43.3874615 C40.3584092,42.9424615 40.8504092,42.3914615 41.2964092,41.6984615 C44.4214092,36.8344615 35.3204092,37.3134615 44.8344092,33.6694615 C45.5044092,33.4134615 45.4404092,32.3884615 44.6584092,32.3784615 C33.6534092,32.2374615 19.3184092,30.6244615 15.7244092,18.1984615 C15.4724092,17.3314615 14.1154092,17.7034615 14.3724092,18.5724615 C17.8944092,30.5684615 30.8504092,32.7574615 41.8904092,33.5204615 C40.5434092,34.2174615 39.3074092,35.0534615 38.0674092,36.1044615 C37.6984092,36.4204615 37.6914092,37.1344615 38.0674092,37.4464615 C37.0434092,39.5614615 36.0234092,41.6744615 34.9964092,43.7904615 C34.8784092,43.7974615 34.7934092,43.8404615 34.7204092,43.8984615 C31.3234092,43.8454615 27.8964092,43.1144615 25.0384092,42.0724615 C14.7244092,38.3114615 6.45840922,27.2354615 10.1054092,16.0974615 C13.9494092,4.35846149 30.2914092,-0.48953851 41.2324092,0.76446149 C41.3914092,0.78346149 41.4324092,0.50546149 41.2704092,0.47946149 C28.9154092,-1.63853851 13.8164092,3.24646149 8.48840922,15.4154615 C8.47640922,15.4344615 8.46940922,15.4574615 8.45940922,15.4804615 C8.19840922,14.6734615 7.70140922,13.9534615 6.86240922,13.4324615 C5.15140922,12.3704615 2.98840922,12.9574615 1.60040922,14.2424615 C-0.398590776,16.0964615 -0.347590776,19.3824615 0.781409224,21.6574615 C1.87540922,23.8544615 5.45740922,25.0854615 7.10540922,23.0374615 C7.63440922,32.3524615 15.8244092,40.8254615 24.0194092,44.4934615 C33.2984092,48.6514615 45.1924092,47.9394615 51.3964092,39.1154615 C60.6434092,25.9674615 50.0104092,9.40046149 36.1584092,6.03646149 L36.1584092,6.03646149 Z" id="Fill-449"></path>
                <path d="M51.2354092,3.11946149 C43.4074092,0.91246149 34.5434092,1.33646149 26.7994092,3.71046149 C26.4354092,3.81946149 26.4864092,4.44646149 26.8934092,4.39846149 C34.6734092,3.48246149 43.0074092,3.18946149 50.5524092,5.60146149 C52.1324092,6.10446149 52.8314092,3.56946149 51.2354092,3.11946149" id="Fill-450"></path>
                <path d="M30.6324092,12.5324615 C29.3124092,12.5324615 28.2064092,13.6344615 28.2064092,14.9564615 C28.2064092,16.2784615 29.3124092,17.3824615 30.6324092,17.3824615 C31.9554092,17.3824615 33.0594092,16.2784615 33.0594092,14.9564615 C33.0594092,13.6344615 31.9554092,12.5324615 30.6324092,12.5324615" id="Fill-451"></path>
            </g>
        </g>
    </g>
</svg>