<?xml version="1.0" encoding="UTF-8"?>
<svg width="46px" height="50px" viewBox="0 0 46 50" version="1.1" xmlns="http://www.w3.org/2000/svg" xmlns:xlink="http://www.w3.org/1999/xlink">
    <title>Group 51</title>
    <g id="Page-1" stroke="none" stroke-width="1" fill="none" fill-rule="evenodd">
        <g id="vectorstock_1327683" transform="translate(-383.000000, -302.000000)" fill="#0A0B09">
            <g id="Group-51" transform="translate(383.408455, 302.694470)">
                <path d="M40.0335454,12.8545295 C37.4665454,9.71952952 34.1335454,7.54652952 30.3755454,6.24552952 C30.0555454,5.96752952 29.6125454,5.87152952 29.1375454,5.85252952 C28.9425454,5.79652952 28.7445454,5.73952952 28.5505454,5.68652952 C28.2735454,5.61452952 28.0655454,5.72452952 27.9555454,5.90152952 C27.7825454,5.91352952 27.6155454,5.92552952 27.4615454,5.92952952 C27.0825454,5.94052952 26.8435454,6.11152952 26.6855454,6.45352952 C25.1125454,9.82952952 24.7175454,13.5835295 24.8145454,17.2705295 C24.9015454,20.6475295 25.2615454,24.3015295 26.4875454,27.4705295 C27.2285454,29.3895295 29.7935454,33.9365295 26.7055454,34.9115295 C25.0885454,35.4165295 23.1255454,35.1215295 21.4855454,34.8915295 C19.8765454,34.6665295 18.2945454,34.2885295 16.6835454,34.0995295 C16.4795454,34.0765295 16.4125454,34.4065295 16.6135454,34.4535295 C19.9035454,35.2415295 23.2075454,36.9215295 26.6675454,36.2985295 C29.9465454,35.7095295 29.8265454,32.6655295 29.0305454,30.0955295 C28.5795454,28.6415295 27.9285454,27.2585295 27.4855454,25.8045295 C26.9195454,23.9535295 26.7795454,21.8665295 26.5725454,19.9485295 C26.1215454,15.7665295 26.2705454,11.3535295 27.9235454,7.43552952 C28.2945454,7.41752952 28.6665454,7.39852952 29.0375454,7.39852952 C29.4255454,7.39852952 29.6495454,7.46352952 29.8815454,7.47452952 C34.2615454,9.59352952 38.2765454,12.7165295 40.6955454,16.9715295 C43.3705454,21.6775295 43.9535454,27.7495295 42.0925454,32.8425295 C38.5875454,42.4415295 26.6285454,46.6045295 17.2365454,46.3565295 C12.2995454,46.2255295 7.58954541,44.4695295 4.49654541,40.4935295 C1.58454541,36.7515295 0.900545413,31.6955295 1.40454541,27.1045295 C2.01854541,21.5525295 4.60954541,16.1135295 8.42954541,12.0545295 C12.3275454,7.91452952 17.6105454,5.53052952 23.0575454,4.18552952 C23.2825454,4.13052952 23.2075454,3.78152952 22.9805454,3.83152952 C17.7905454,4.98952952 12.8515454,7.06452952 8.84954541,10.6315295 C4.86254541,14.1815295 2.09054541,19.1185295 0.762545413,24.2615295 C-1.55645459,33.2185295 1.32454541,43.5485295 10.6325454,46.9685295 C15.3315454,48.6955295 20.8115454,48.3425295 25.6175454,47.2635295 C30.4495454,46.1815295 35.1325454,43.9995295 38.8075454,40.6525295 C46.7595454,33.4095295 46.6635454,20.9495295 40.0335454,12.8545295" id="Fill-414"></path>
                <path d="M24.6235454,41.1455295 C23.1915454,41.3045295 21.7805454,41.6485295 20.3415454,41.8215295 C18.8545454,42.0005295 17.3265454,41.7665295 15.9085454,41.3175295 C13.0295454,40.4055295 10.6145454,38.2055295 8.93654541,35.7545295 C7.27954541,33.3385295 6.97354541,30.3465295 7.06954541,27.4875295 C7.16654541,24.4945295 7.81954541,21.4575295 8.99654541,18.7005295 C9.06054541,18.5515295 8.80954541,18.4325295 8.73654541,18.5785295 C6.00854541,24.0325295 4.69354541,31.6055295 8.10554541,37.0245295 C9.89554541,39.8635295 12.4775454,42.0635295 15.6735454,43.1355295 C18.6195454,44.1175295 22.5765454,44.0455295 25.0415454,41.9565295 C25.4375454,41.6215295 25.0575454,41.0995295 24.6235454,41.1455295" id="Fill-415"></path>
                <path d="M30.3675454,9.39052952 C29.8475454,9.05152952 29.1665454,9.02252952 28.6135454,9.31052952 C28.0735454,9.59752952 27.7155454,10.1605295 27.6885454,10.7715295 C27.6735454,11.0865295 27.7395454,11.3805295 27.8855454,11.6585295 C28.0015454,11.8755295 28.1545454,12.0575295 28.3425454,12.2085295 C28.4115454,12.2745295 28.4875454,12.3345295 28.5705454,12.3905295 C28.8195454,12.5475295 29.0915454,12.6375295 29.3875454,12.6515295 C29.9875454,12.6765295 30.5005454,12.3795295 30.8415454,11.9005295 C31.0535454,11.6045295 31.1235454,11.2835295 31.1605454,10.9275295 C31.2235454,10.3295295 30.8575454,9.70652952 30.3675454,9.39052952" id="Fill-416"></path>
                <path d="M24.1845454,8.78152952 C24.1115454,8.16352952 23.7855454,7.66252952 23.2245454,7.37552952 C22.7915454,7.15752952 22.2085454,7.16552952 21.7605454,7.35852952 C21.3495454,7.53752952 21.0205454,7.78152952 20.8215454,8.19752952 C20.7015454,8.45352952 20.6515454,8.72252952 20.6705454,9.00552952 C20.6905454,9.29852952 20.7845454,9.56052952 20.9485454,9.80652952 L21.0205454,9.93752952 C21.1765454,10.1635295 21.3805454,10.3375295 21.6285454,10.4575295 C21.7845454,10.5305295 21.9465454,10.5725295 22.1145454,10.5905295 C22.1245454,10.5935295 22.1325454,10.5965295 22.1425454,10.5975295 C22.4355454,10.6535295 22.7245454,10.6335295 23.0095454,10.5375295 C23.3025454,10.4335295 23.5495454,10.2655295 23.7545454,10.0275295 C23.8735454,9.91752952 23.9455454,9.77752952 24.0255454,9.62452952 C24.1425454,9.40452952 24.2125454,9.02952952 24.1845454,8.78152952" id="Fill-417"></path>
                <path d="M26.2405454,2.89652952 C22.9805454,1.32952952 19.3745454,1.78552952 16.0565454,2.90952952 C14.1645454,3.55152952 12.3625454,4.46052952 10.6685454,5.51352952 C9.41954541,6.28652952 7.63954541,7.22852952 7.16054541,8.71752952 C7.05554541,9.05052952 7.33954541,9.50952952 7.73354541,9.39052952 C8.98754541,9.00852952 9.91854541,7.94352952 10.9595454,7.18652952 C12.4155454,6.13152952 14.0095454,5.26852952 15.6475454,4.53952952 C18.8085454,3.13152952 22.7425454,2.10252952 26.1405454,3.16852952 C26.3225454,3.22452952 26.4065454,2.97552952 26.2405454,2.89652952" id="Fill-418"></path>
                <path d="M26.4515454,0.804529516 C24.1435454,-0.166470484 21.6745454,-0.137470484 19.2385454,0.258529516 C16.8645454,0.641529516 14.1115454,1.43352952 12.1125454,2.79452952 C11.8905454,2.94552952 12.0015454,3.37652952 12.2935454,3.32152952 C14.4415454,2.92452952 16.5435454,1.91552952 18.6275454,1.25052952 C21.1485454,0.446529516 23.8625454,0.0795295165 26.4285454,0.871529516 C26.4685454,0.883529516 26.4875454,0.817529516 26.4515454,0.804529516" id="Fill-419"></path>
                <path d="M35.9025454,5.04652952 C33.3325454,3.90052952 30.4405454,3.67352952 27.6625454,3.86452952 C27.4805454,3.87752952 27.4595454,4.13752952 27.6505454,4.15452952 C30.0645454,4.35352952 32.4505454,4.94252952 34.6855454,5.87952952 C35.8555454,6.36852952 36.9565454,7.06652952 37.8675454,7.94752952 C38.7285454,8.77352952 39.1115454,9.89752952 39.9995454,10.6705295 C40.3195454,10.9465295 40.7615454,10.8125295 40.8225454,10.3775295 C41.1795454,7.86052952 37.8365454,5.90952952 35.9025454,5.04652952" id="Fill-420"></path>
                <path d="M38.1605454,2.15452952 C37.0975454,1.50152796 35.8115454,1.25252952 34.5895454,1.11552952 C32.3615454,0.863529516 29.5485454,0.940529516 27.6325454,2.27252952 C27.5995454,2.29652952 27.6345454,2.34652952 27.6705454,2.33352952 C29.4525454,1.68252952 31.8325454,1.93352952 33.6685454,2.20252952 C34.7725454,2.36252952 35.9065454,2.65652952 36.8785454,3.21852952 C37.5645454,3.61152952 37.9995454,4.41352952 38.7345454,4.65952952 C38.9115454,4.72152952 39.1335454,4.67452952 39.2405454,4.50552952 C39.8255454,3.58252952 38.9365454,2.63352952 38.1605454,2.15452952" id="Fill-421"></path>
            </g>
        </g>
    </g>
</svg>