<?xml version="1.0" encoding="UTF-8"?>
<svg width="50px" height="50px" viewBox="0 0 50 50" version="1.1" xmlns="http://www.w3.org/2000/svg" xmlns:xlink="http://www.w3.org/1999/xlink">
    <title>Group 57</title>
    <g id="Page-1" stroke="none" stroke-width="1" fill="none" fill-rule="evenodd">
        <g id="vectorstock_1327683" transform="translate(-318.000000, -247.000000)" fill="#0A0B09">
            <g id="Group-57" transform="translate(318.596389, 247.592496)">
                <path d="M39.6626107,26.3245041 C40.5776107,28.9815041 40.8126107,31.6865041 39.9336107,34.3825041 C39.1176107,36.8845041 37.2446107,38.8995041 35.3136107,40.6105041 C32.2566107,43.3245041 28.4646107,45.2135041 24.5416107,46.3065041 C16.8486107,48.4465041 7.98261072,46.7895041 3.89261072,39.3345041 C0.126610721,32.4695041 1.65761072,23.7505041 5.40061072,17.2385041 C7.30061072,13.9375041 9.84361072,10.9915041 13.1116107,8.99850411 C16.3246107,7.03950411 20.0656107,6.09950411 23.7436107,5.48750411 C23.8876107,5.46350411 23.8456107,5.21550411 23.7006107,5.23150411 C18.5706107,5.77550411 13.3586107,7.04350411 9.29561072,10.3915041 C9.01561072,10.6205041 8.74861072,10.8615041 8.48261072,11.1055041 C11.7776107,7.07150411 15.8536107,3.72150411 20.6626107,1.60450411 C20.7416107,1.74450411 20.9036107,1.82350411 21.0706107,1.84150411 C21.8246107,1.91850411 22.5236107,1.71050411 23.2236107,1.48150411 C23.1406107,1.77350411 23.3936107,2.08150411 23.7186107,2.10650411 C24.8896107,2.19450411 25.9086107,1.65850411 26.9736107,1.30350411 C26.9246107,1.59450411 27.1156107,1.90750411 27.4656107,1.89150411 C28.0476107,1.86850411 28.6036107,1.74450411 29.1596107,1.59750411 C29.1566107,1.81850411 29.2916107,2.04050411 29.5356107,2.10650411 C31.0266107,2.51350411 32.3326107,1.90250411 33.6856107,1.44650411 C33.5306107,1.59150411 33.3836107,1.74650411 33.2536107,1.91750411 C33.0036107,2.23950411 33.1086107,2.64150411 33.4996107,2.77750411 C34.6676107,3.18350411 35.7866107,2.76650411 36.9196107,2.43850411 C36.7056107,2.60750411 36.5066107,2.79350411 36.3306107,3.01050411 C36.1436107,3.24450411 36.1076107,3.70250411 36.4506107,3.83950411 C37.2966107,4.17350411 38.0366107,4.01250411 38.7696107,3.74850411 C38.2206107,4.21950411 37.7786107,4.77050411 37.7016107,5.59750411 C37.6736107,5.89650411 37.9956107,6.14050411 38.2676107,6.13350411 C38.6386107,6.12250411 39.0056107,6.08550411 39.3686107,6.02950411 C38.9176107,6.46950411 38.4726107,6.91450411 38.1886107,7.50450411 C38.0196107,7.85250411 38.1796107,8.23550411 38.5536107,8.34750411 C38.9406107,8.46350411 39.3146107,8.48550411 39.6786107,8.44450411 C39.5276107,8.62850411 39.3836107,8.82050411 39.2586107,9.03050411 C39.0496107,9.38450411 39.2736107,9.82050411 39.6496107,9.92650411 C39.8736107,9.98850411 40.0896107,10.0315041 40.2986107,10.0515041 C40.2126107,10.3685041 40.3826107,10.6765041 40.7046107,10.7955041 C40.3086107,11.2555041 39.9626107,11.7575041 39.6626107,12.3155041 C39.4606107,12.6955041 39.6516107,13.0815041 39.9936107,13.2295041 C39.7256107,13.5885041 39.5106107,13.9905041 39.3596107,14.4595041 C39.2676107,14.7355041 39.4456107,15.1155041 39.7226107,15.2395041 C39.6026107,15.4185041 39.5016107,15.6125041 39.4126107,15.8245041 C39.3876107,15.8845041 39.3706107,15.9395041 39.3596107,15.9935041 C39.1386107,13.4305041 38.5696107,11.0155041 36.3626107,9.11550411 C34.8316107,7.79550411 32.9526107,6.84850411 31.0716107,6.13150411 C29.0596107,5.36150411 26.9656107,4.70850411 24.7936107,4.90350411 C24.2926107,4.94950411 24.1746107,5.68550411 24.6976107,5.80650411 C28.3846107,6.66650411 32.1066107,7.58450411 35.1446107,9.98450411 C38.6286107,12.7285041 37.7426107,17.1355041 38.1486107,21.0345041 C38.1696107,21.2435041 38.2496107,21.4095041 38.3656107,21.5315041 C38.3336107,21.7975041 38.3116107,22.0665041 38.2996107,22.3445041 C38.2896107,22.6735041 38.7616107,22.8675041 38.9756107,22.6065041 C39.2956107,22.2185041 39.5486107,21.7855041 39.7616107,21.3275041 C41.8086107,20.0285041 46.2926107,20.4575041 46.6176107,23.2485041 C46.9096107,25.7395041 41.8826107,25.3915041 40.4316107,25.2515041 C39.8966107,25.1985041 39.5016107,25.8585041 39.6626107,26.3245041 Z M1.33761072,18.8035041 C1.08761072,18.1395041 1.49661072,17.2665041 1.82661072,16.7085041 C2.46561072,15.6335041 3.84461072,14.2145041 4.90761072,15.3615041 C4.00461072,16.7425041 3.22861072,18.2175041 2.58961072,19.7435041 C2.14461072,19.4745041 1.56361072,19.3985041 1.33761072,18.8035041 Z M39.3976107,16.4895041 C39.4736107,16.6715041 39.6066107,16.8365041 39.7356107,17.0165041 C39.6436107,17.2685041 39.5556107,17.5215041 39.4686107,17.7795041 C39.4506107,17.3485041 39.4266107,16.9155041 39.3976107,16.4895041 Z M48.1586107,22.7785041 C47.5176107,19.5145041 43.5066107,18.5265041 40.4816107,19.4015041 C40.6126107,18.9975041 40.7436107,18.5945041 40.8886107,18.2045041 C41.0586107,17.7485041 41.3416107,17.0465041 41.0956107,16.5735041 C41.0166107,16.4235041 40.9196107,16.3105041 40.8006107,16.1875041 C40.6286107,16.0065041 41.2766107,15.5375041 41.4706107,15.4245041 C41.9346107,15.1475041 41.8966107,14.2465041 41.2786107,14.1785041 C41.1766107,14.1675041 41.0786107,14.1495041 40.9786107,14.1285041 C41.2126107,13.7675041 41.5256107,13.4725041 41.9006107,13.2025041 C42.4716107,12.7915041 42.1306107,11.7695041 41.4036107,11.9935041 C41.7616107,11.4985041 42.1826107,11.0555041 42.6766107,10.6555041 C43.1536107,10.2735041 42.7086107,9.58250411 42.1956107,9.57950411 C42.7506107,9.15050411 42.1326107,8.25250411 41.4536107,8.57550411 C41.2976107,8.66450411 41.1486107,8.72350411 41.0026107,8.76650411 C41.4706107,8.27950411 42.0056107,7.84350411 42.4256107,7.32050411 C42.8526107,6.79450411 42.3076107,6.06950411 41.6896107,6.39450411 C41.0666107,6.72150411 40.4196107,7.14550411 39.7266107,7.26450411 C40.2556107,6.63550411 40.9276107,6.10850411 41.3866107,5.41650411 C41.6726107,4.98050411 41.1796107,4.49250411 40.7386107,4.60450411 C40.1676107,4.75050411 39.6006107,4.88250411 39.0246107,4.95950411 C39.5636107,4.12750411 40.9276107,3.55750411 41.5056107,2.87250411 C41.7896107,2.53250411 41.6096107,1.92150411 41.1026107,1.95850411 C40.0756107,2.03050411 39.0076107,2.77050411 37.9636107,2.95150411 C38.4096107,2.63150411 38.8846107,2.34350411 39.2886107,1.97950411 C39.6626107,1.63950411 39.3116107,1.12350411 38.8966107,1.09250411 C37.5006107,0.994504107 36.0786107,1.88250411 34.7026107,1.91450411 C35.1206107,1.56050411 35.5726107,1.24450411 35.9746107,0.869504107 C36.3056107,0.560504107 36.0276107,-0.0194958926 35.5926107,0.000504107401 C34.3606107,0.0565041074 33.1756107,0.686504107 31.9776107,1.02550411 C32.0256107,0.996504107 32.0726107,0.972504107 32.1196107,0.943504107 C32.5496107,0.686504107 32.3546107,-0.0114958926 31.8436107,0.0105041074 C30.7856107,0.0555041074 29.7996107,0.434504107 28.7876107,0.682504107 C28.8936107,0.380504107 28.7066107,-0.0064958926 28.3186107,0.0155041074 C27.3676107,0.0715041074 26.4966107,0.486504107 25.6076107,0.794504107 C25.8196107,0.494504107 25.6996107,0.0025041074 25.2336107,0.0315041074 C23.9446107,0.108504107 22.7656107,0.874504107 21.5026107,0.950504107 C21.5026107,0.947504107 21.5026107,0.944504107 21.5026107,0.941504107 C21.5016107,0.681504107 21.1966107,0.413504107 20.9346107,0.528504107 C14.9266107,3.14250411 10.2726107,7.47850411 6.78561072,12.8635041 C6.23361072,13.5055041 5.71661072,14.1765041 5.23261072,14.8765041 C5.03461072,14.2415041 4.49561072,13.8835041 3.68261072,13.9905041 C2.59161072,14.1375041 1.64161072,15.0805041 1.00761072,15.9135041 C0.323610721,16.8085041 -0.238389279,18.0775041 0.102610721,19.2135041 C0.319610721,19.9355041 1.28061072,20.8655041 2.12761072,20.9115041 C1.63761072,22.2325041 1.24561072,23.5795041 0.948610721,24.9235041 C-1.03438928,33.9365041 2.22361072,44.0945041 11.3846107,47.4645041 C17.6826107,49.7815041 25.0236107,48.3285041 30.8616107,45.4125041 C34.1686107,43.7655041 37.3276107,41.3965041 39.5686107,38.4445041 C42.1626107,35.0345041 42.7016107,30.9685041 41.6036107,26.9725041 C44.5076107,27.0325041 48.8666107,26.3835041 48.1586107,22.7785041 L48.1586107,22.7785041 Z" id="Fill-422"></path>
                <path d="M43.3506107,21.5375041 C41.9786107,21.4585041 40.6306107,22.1995041 39.5146107,22.9165041 C39.4186107,22.9805041 39.5076107,23.1225041 39.6106107,23.0855041 C40.8126107,22.6755041 41.9246107,22.5085041 43.1916107,22.5995041 C44.3816107,22.6855041 45.1136107,23.7905041 46.2296107,23.7935041 C46.4336107,23.7935041 46.5556107,23.5695041 46.5456107,23.3935041 C46.4606107,22.0555041 44.4406107,21.5985041 43.3506107,21.5375041" id="Fill-423"></path>
                <path d="M11.3916107,24.1735041 C11.6246107,24.0695041 11.8806107,24.0315041 12.1056107,23.8985041 C12.4976107,23.6725041 12.9366107,23.3785041 13.2366107,23.0325041 C14.1996107,21.9235041 14.1076107,20.3955041 14.9316107,19.1995041 C15.7736107,17.9755041 16.7476107,16.8475041 16.9896107,15.3385041 C17.0336107,15.0755041 16.7766107,14.8785041 16.5336107,14.9575041 C14.4116107,15.6525041 11.5476107,15.4795041 9.74261072,16.9355041 C9.61261072,17.0425041 9.75361072,17.2505041 9.89261072,17.1515041 C11.6096107,15.9415041 14.1076107,16.1795041 16.1716107,15.7515041 C15.5706107,17.5725041 13.8596107,18.8245041 13.3296107,20.7105041 C13.0656107,21.6445041 12.7876107,22.3045041 11.9696107,22.8245041 C11.5166107,23.1115041 10.5486107,23.2465041 10.3386107,23.8345041 C9.83061072,25.2565041 10.9706107,26.4405041 12.3736107,26.6195041 C14.1716107,26.8485041 15.9436107,26.5265041 16.9186107,24.8815041 C17.0696107,24.6255041 16.7036107,24.3475041 16.4826107,24.5175041 C15.2436107,25.4645041 13.3226107,25.8675041 11.8586107,25.3125041 C11.6336107,25.2275041 10.6036107,24.5365041 11.3916107,24.1735041" id="Fill-424"></path>
                <path d="M25.5016107,18.0915041 C24.3396107,17.4495041 23.2636107,16.7395041 22.0356107,16.2175041 C21.0286107,15.7895041 19.7616107,15.1415041 18.6936107,15.6575041 C18.4736107,15.7635041 18.4786107,16.1045041 18.6856107,16.2225041 C19.5916107,16.7395041 20.7786107,16.7575041 21.7726107,17.1015041 C23.0106107,17.5255041 24.1496107,17.9845041 25.4476107,18.2095041 C25.5176107,18.2195041 25.5716107,18.1305041 25.5016107,18.0915041" id="Fill-425"></path>
                <path d="M19.9886107,18.2105041 C19.7766107,18.2025041 19.5656107,18.2785041 19.4096107,18.4215041 C19.3456107,18.4775041 19.2866107,18.5545041 19.2366107,18.6385041 C19.0706107,18.7845041 18.9596107,19.0055041 18.9516107,19.2175041 C18.9356107,19.6485041 19.2776107,20.0115041 19.7056107,20.0335041 C19.9016107,20.0415041 20.0426107,19.9985041 20.2206107,19.9255041 C20.3806107,19.8655041 20.4956107,19.7205041 20.5956107,19.5935041 C20.7106107,19.4505041 20.7556107,19.2355041 20.7746107,19.0595041 C20.8236107,18.6175041 20.4106107,18.2285041 19.9886107,18.2105041" id="Fill-426"></path>
                <path d="M12.7416107,17.8935041 C12.4936107,17.8935041 12.2706107,17.9515041 12.0776107,18.1185041 C11.8966107,18.2785041 11.7836107,18.5085041 11.7676107,18.7485041 C11.7386107,19.2225041 12.1236107,19.7205041 12.6256107,19.7205041 C12.8746107,19.7205041 13.0966107,19.6645041 13.2866107,19.4955041 C13.4696107,19.3365041 13.5826107,19.1085041 13.5966107,18.8665041 C13.6266107,18.3915041 13.2416107,17.8935041 12.7416107,17.8935041" id="Fill-427"></path>
                <path d="M35.2086107,29.9065041 C31.7396107,34.4855041 27.2656107,37.5655041 21.5836107,38.6485041 C18.5726107,39.2185041 15.2446107,39.3375041 12.2816107,38.4365041 C10.7846107,37.9795041 9.76161072,37.0275041 8.94861072,35.7255041 C8.23361072,34.5825041 7.70261072,33.3685041 6.48961072,32.6855041 C6.02861072,32.4265041 5.64961072,33.0555041 5.89661072,33.4275041 C7.50161072,35.8385041 8.92161072,38.5085041 11.8516107,39.4125041 C14.8256107,40.3345041 18.3616107,40.1185041 21.3886107,39.6115041 C24.1936107,39.1405041 26.9636107,38.2155041 29.3486107,36.6415041 C31.8636107,34.9815041 33.8716107,32.6595041 35.5646107,30.1925041 C35.7316107,29.9515041 35.3876107,29.6685041 35.2086107,29.9065041" id="Fill-428"></path>
                <path d="M25.3296107,40.3565041 C24.5786107,40.2755041 23.8706107,40.6765041 23.1706107,40.9125041 C22.2696107,41.2185041 21.3496107,41.4585041 20.4296107,41.6975041 C18.4866107,42.2025041 16.3946107,42.3705041 14.5166107,41.5485041 C14.3146107,41.4595041 14.1416107,41.7695041 14.3306107,41.8895041 C15.9236107,42.9095041 17.7336107,43.1405041 19.5916107,43.1115041 C20.7416107,43.0935041 21.8526107,42.8995041 22.9656107,42.6235041 C23.8126107,42.4145041 25.0646107,42.2615041 25.6956107,41.6345041 C26.1156107,41.2155041 26.0076107,40.4265041 25.3296107,40.3565041" id="Fill-429"></path>
            </g>
        </g>
    </g>
</svg>