<?xml version="1.0" encoding="UTF-8"?>
<svg width="55px" height="58px" viewBox="0 0 55 58" version="1.1" xmlns="http://www.w3.org/2000/svg" xmlns:xlink="http://www.w3.org/1999/xlink">
    <title>Group 79</title>
    <g id="Page-1" stroke="none" stroke-width="1" fill="none" fill-rule="evenodd">
        <g id="vectorstock_1327683" transform="translate(-439.000000, -14.000000)" fill="#0A0B09">
            <g id="Group-79" transform="translate(439.309495, 14.592539)">
                <path d="M53.4605048,20.2764609 C52.8445048,18.8614609 52.3275048,17.4714609 51.4735048,16.1844609 C50.7165048,15.0434609 49.8475048,13.9744609 48.9245048,12.9644609 C47.1075048,10.9694609 44.6505048,9.44846089 42.1225048,8.54846089 C39.6735048,7.67646089 36.9715048,7.74546089 34.5445048,8.61746089 C32.3595048,9.40146089 28.9135048,11.5284609 28.7905048,14.0874609 C28.7775048,14.3704609 29.0675048,14.5574609 29.3225048,14.4954609 C30.4495048,14.2214609 31.0485048,13.4694609 31.8945048,12.7244609 C32.2885048,12.3784609 32.7165048,12.0534609 33.1675048,11.7534609 C33.0515048,12.0044609 33.1005048,12.3344609 33.3935048,12.5464609 C38.2515048,16.0534609 42.7605048,19.4584609 45.6555048,24.8544609 C48.0485048,29.3094609 48.9545048,34.6484609 47.8575048,39.6074609 C45.1755048,51.7194609 30.9935048,55.3824609 20.3095048,52.2874609 C11.3035048,49.6804609 6.31950482,40.8834609 6.57550482,31.8464609 C6.85150482,22.1104609 12.9575048,13.0824609 21.7335048,9.02846089 C21.0075048,10.5414609 20.6235048,12.1984609 21.3665048,13.3954609 C21.5955048,13.7634609 22.1215048,13.8524609 22.4335048,13.5324609 C23.1895048,12.7614609 23.2955048,11.6544609 23.6125048,10.6624609 C23.9995048,9.44846089 24.6965048,8.32446089 25.5075048,7.35046089 C27.0635048,5.48846089 29.1025048,4.13346089 31.2885048,3.11946089 C35.8465048,1.00646089 41.5515048,0.400460889 46.4765048,1.36346089 C46.5565048,1.37846089 46.5885048,1.26446089 46.5105048,1.23946089 C41.2915048,-0.571539111 35.3785048,-0.350539111 30.2235048,1.59246089 C27.8635048,2.48546089 25.6505048,3.81946089 23.9615048,5.70446089 C23.7605048,5.42446089 23.4405048,5.22646089 22.9885048,5.22046089 C14.3395048,5.13146089 7.46950482,11.7454609 3.55350482,18.9004609 C-0.309495179,25.9604609 -1.71349518,35.3874609 2.88850482,42.4624609 C2.93350482,42.5314609 3.04050482,42.4724609 2.99950482,42.3974609 C-0.789495179,35.2294609 1.43550482,26.5694609 5.27250482,19.9044609 C8.78450482,13.8054609 15.0485048,7.96746089 22.4315048,7.75646089 C22.2295048,8.08546089 22.0315048,8.43246089 21.8505048,8.78746089 C11.7935048,12.7044609 5.04550482,21.9354609 4.41950482,32.7754609 C4.12950482,37.7674609 5.30550482,43.0594609 8.19550482,47.1874609 C11.3645048,51.7124609 16.2245048,54.6054609 21.5755048,55.7894609 C33.0605048,58.3284609 46.4735048,54.0844609 50.4255048,42.1574609 C53.9425048,31.5464609 48.4655048,19.8114609 39.5615048,13.7864609 C37.7775048,12.5764609 35.9745048,11.8484609 33.8685048,11.4224609 C33.8175048,11.4104609 33.7685048,11.4074609 33.7195048,11.4054609 C34.3055048,11.0594609 34.9165048,10.7574609 35.5255048,10.5174609 C37.6385048,9.68346089 39.8985048,9.84146089 42.0215048,10.5234609 C44.3615048,11.2774609 46.3095048,12.8474609 48.1285048,14.4434609 C50.0455048,16.1254609 51.9355048,18.2374609 53.3495048,20.3424609 C53.3965048,20.4124609 53.4935048,20.3514609 53.4605048,20.2764609" id="Fill-363"></path>
                <path d="M32.3675048,45.6574609 C32.2215048,45.3964609 31.8655048,45.3674609 31.6565048,45.5654609 C30.9275048,46.2534609 30.7545048,47.2534609 30.1495048,48.0304609 C29.4655048,48.9024609 28.3875048,49.3864609 27.3065048,49.5104609 C24.9505048,49.7774609 23.0035048,48.0364609 22.4565048,45.8434609 C22.4105048,45.6574609 22.1485048,45.7094609 22.1365048,45.8864609 C21.9415048,49.0474609 24.2255048,51.0534609 27.3065048,51.0584681 C29.6335048,51.0634609 33.9555048,48.4624609 32.3675048,45.6574609" id="Fill-364"></path>
                <path d="M35.2585048,41.8054609 C32.6695048,41.1784609 29.7465048,41.4464609 27.1035048,41.5554609 C23.9915048,41.6844609 20.9095048,42.1334609 17.8055048,42.3644609 C17.7225048,42.3704609 17.7225048,42.4884609 17.8055048,42.4944609 C20.6815048,42.6834609 23.5645048,42.7924609 26.4455048,42.7544609 C29.3315048,42.7164609 32.2215048,43.1364609 35.0865048,43.0784609 C35.8065048,43.0634609 35.9845048,41.9814609 35.2585048,41.8054609" id="Fill-365"></path>
                <path d="M32.1435048,16.9414605 C29.6415048,16.9404609 27.4875048,18.8384609 26.1385048,20.7714609 C24.7125048,22.8174609 23.9265048,25.6664609 24.9435048,28.0494609 C26.1945048,30.9854609 29.4455048,31.9264609 32.4205048,32.1734609 C30.8515048,35.0704609 27.1075048,35.5304609 24.0275048,35.8524609 C23.6475048,35.8924609 23.5175048,36.4454609 23.9315048,36.5504609 C27.9175048,37.5764609 33.1855048,35.7504609 34.5455048,31.6014609 C34.7225048,31.0594609 34.2515048,30.4954609 33.7045048,30.4974609 C31.0335048,30.5114609 27.6565048,30.1554609 26.2725048,27.5054609 C25.2935048,25.6334609 26.0625048,23.2514609 27.0505048,21.5634609 C28.0895048,19.7924609 29.8165048,18.1934609 31.8815048,17.8074609 C34.5975048,17.2954609 36.4695048,19.9394609 37.4505048,22.0704609 C37.4815048,22.1374609 37.5915048,22.0904609 37.5695048,22.0204609 C36.7225048,19.4724609 35.1135048,16.9454609 32.1435048,16.9414605" id="Fill-366"></path>
                <path d="M29.8955048,27.1014609 C29.0555048,27.1014609 29.0555048,25.7984609 29.8955048,25.7984609 C30.7375048,25.7984609 30.7375048,27.1014609 29.8955048,27.1014609 Z M29.5565048,25.0954609 C27.2585048,25.0954609 27.2585048,28.6574609 29.5565048,28.6574609 C31.8545048,28.6574609 31.8545048,25.0954609 29.5565048,25.0954609 L29.5565048,25.0954609 Z" id="Fill-367"></path>
                <path d="M20.3025048,27.3924609 C19.8975048,27.3924609 19.5625048,27.0554609 19.5625048,26.6544609 C19.5625048,26.2524609 19.8975048,25.9154609 20.3025048,25.9154609 C20.7025048,25.9154609 21.0405048,26.2524609 21.0405048,26.6544609 C21.0405048,27.0554609 20.7025048,27.3924609 20.3025048,27.3924609 Z M19.8795048,25.2894609 C17.8325048,25.2894609 17.8325048,28.4654609 19.8795048,28.4654609 C21.9255048,28.4654609 21.9255048,25.2894609 19.8795048,25.2894609 L19.8795048,25.2894609 Z" id="Fill-368"></path>
                <path d="M22.0905048,19.8264609 C20.5095048,18.2364609 18.4475048,17.2454609 16.1675048,17.5654609 C14.1535048,17.8464609 11.6325048,19.0524609 11.5075048,21.3474609 C11.4905048,21.6644609 11.8795048,21.8734609 12.1425048,21.7094609 C13.5795048,20.8174609 14.4195048,19.4804609 16.1255048,18.9674609 C18.0505048,18.3864609 20.2575048,19.0304609 21.8555048,20.1324609 C22.0415048,20.2614609 22.2435048,19.9794609 22.0905048,19.8264609" id="Fill-369"></path>
                <path d="M50.3515048,8.18046089 C47.3865048,3.45746089 41.4765048,3.00646089 36.4115048,3.89846089 C33.6165048,4.39146089 30.8685048,5.50346089 28.5655048,7.16346089 C27.1175048,8.20446089 23.8105048,11.0624609 24.7385048,13.0994609 C24.9215048,13.5034609 25.4545048,13.5484609 25.8005048,13.3764609 C26.6015048,12.9844609 26.8085048,11.8854609 27.2615048,11.1604609 C27.9025048,10.1354609 28.8245048,9.26146089 29.7775048,8.53246089 C31.7345048,7.03246089 34.0765048,6.10146089 36.4535048,5.51746089 C40.8825048,4.42846089 46.8475048,4.83846089 50.2495048,8.25846089 C50.3005048,8.30946089 50.3885048,8.24346089 50.3515048,8.18046089" id="Fill-370"></path>
            </g>
        </g>
    </g>
</svg>