<?xml version="1.0" encoding="UTF-8"?>
<svg width="52px" height="50px" viewBox="0 0 52 50" version="1.1" xmlns="http://www.w3.org/2000/svg" xmlns:xlink="http://www.w3.org/1999/xlink">
    <title>Group 72</title>
    <g id="Page-1" stroke="none" stroke-width="1" fill="none" fill-rule="evenodd">
        <g id="vectorstock_1327683" transform="translate(-317.000000, -78.000000)" fill="#0A0B09">
            <g id="Group-72" transform="translate(317.439899, 78.367327)">
                <path d="M46.2371008,25.1356727 C45.7131008,25.9096727 44.9401008,26.5456727 44.1381008,27.0576727 C44.1601008,18.4586727 39.7031008,9.31367267 32.6751008,4.13267267 C37.3191008,5.07467267 42.0001008,6.40367267 44.9201008,10.4006727 C47.8381008,14.3946727 49.1591008,20.8116727 46.2371008,25.1356727 Z M36.4811008,40.9956727 C29.9151008,47.7506727 17.9361008,49.3426727 11.5451008,41.5256727 C6.7461008,35.6556727 6.8761008,27.1066727 9.9681008,20.5306727 C11.5631008,17.1376727 13.9181008,14.1536727 16.6181008,11.5726727 C19.3371008,8.97467267 22.1891008,6.61867267 25.5041008,4.81067267 C25.5481008,4.78567267 25.5171008,4.71067267 25.4681008,4.72767267 C19.6841008,6.98667267 14.9111008,10.5906727 11.2541008,15.6126727 C9.4551008,18.0846727 8.0571008,20.8546727 7.2081008,23.7696727 C5.1511008,23.2396727 3.0361008,22.2316727 2.4181008,20.0306727 C1.9301008,18.2846727 2.5971008,16.1616727 3.3071008,14.5716727 C5.1851008,10.3666727 8.5541008,6.76067267 12.6421008,4.66567267 C21.8971008,-0.079327326 31.8781008,5.51267267 37.1381008,13.4526727 C42.5781008,21.6666727 43.7751008,33.4916727 36.4811008,40.9956727 Z M47.2771008,9.85267267 C43.7141008,4.62967267 37.3661008,2.59467267 31.3161008,3.19867267 C30.8061008,2.87167267 30.2811008,2.56867267 29.7461008,2.28567267 C21.4511008,-2.09132733 11.6011008,0.010672674 5.4101008,6.94467267 C2.7521008,9.91967267 0.395100797,13.6796727 0.0271007972,17.7306727 C-0.351899203,21.9306727 3.3091008,24.2076727 6.9481008,24.7476727 C6.2981008,27.3766727 6.0971008,30.1076727 6.4461008,32.8376727 C7.1251008,38.1266727 9.7871008,43.2176727 14.3761008,46.0866727 C18.2481008,48.5086727 22.9551008,48.8026727 27.3381008,47.9476727 C31.9331008,47.0516727 36.2381008,44.5156727 39.3071008,40.9986727 C41.9741008,37.9386727 43.4441008,34.1356727 43.9441008,30.1666727 C43.9721008,30.1686727 43.9981008,30.1746727 44.0301008,30.1746727 C45.2651008,30.1746727 46.6041008,29.1156727 47.4511008,28.3096727 C48.4121008,27.3926727 49.1251008,26.2106727 49.6221008,24.9886727 C51.6231008,20.0676727 50.1751008,14.1036727 47.2771008,9.85267267 L47.2771008,9.85267267 Z" id="Fill-342"></path>
                <path d="M17.8721008,30.1056727 C18.1471008,30.3796727 18.5961008,30.3066727 18.7961008,29.9856727 C20.4721008,27.3066727 21.6451008,24.3256727 23.7461008,21.9296727 C24.1741008,21.8166727 24.5641008,21.6406727 24.8671008,21.3696727 C25.2261008,21.0536727 24.9941008,20.5306727 24.6091008,20.3886727 C23.5201008,19.9856727 22.0871008,20.4786727 20.9201008,20.4786727 C19.9521008,20.4756727 19.0041008,20.3346727 18.0751008,20.0906727 C21.0851008,17.1576727 22.8771008,13.3826727 24.2821008,9.41967267 C24.3181008,9.32467267 24.1621008,9.25967267 24.1181008,9.35167267 C22.1901008,13.3846727 19.8671008,17.2006727 16.0811008,19.7406727 C15.4711008,20.1536727 15.6131008,20.9696727 16.2741008,21.2216727 C17.7741008,21.7946727 19.3221008,22.0526727 20.9201008,22.1036727 C21.5571008,22.1236727 22.3511008,22.1506727 23.0971008,22.0536727 C21.1631008,24.0586727 19.8311008,26.5176727 18.2221008,28.7816727 C16.7871008,27.5156727 14.5781008,27.0996727 13.5461008,29.1776727 C13.1711008,29.9346727 13.2031008,30.9056727 13.7741008,31.5606727 C14.0111008,31.8346727 14.2951008,32.0266727 14.6011008,32.1596727 C14.0311008,32.5736727 13.5811008,33.1156727 13.4091008,33.8436727 C13.1511008,34.9306727 13.8261008,36.0056727 14.6411008,36.6596727 C15.4581008,37.3166727 16.6041008,37.6856727 17.6191008,37.3016727 C18.9211008,36.8116727 19.1991008,35.2806727 19.2081008,34.0546727 C19.2121008,33.5306727 18.4131008,33.5336727 18.3961008,34.0546727 C18.3681008,34.9446727 18.2271008,36.1456727 17.2481008,36.4886727 C16.5431008,36.7346727 15.7251008,36.3246727 15.1981008,35.8796727 C13.1841008,34.1826727 15.4921008,32.7646727 17.1691008,32.3426727 C17.8391008,32.1756727 17.7131008,31.0566727 17.0041008,31.1206727 C16.1521008,31.1986727 14.0681008,31.1536727 14.8161008,29.7516727 C15.5281008,28.4176727 17.1431008,29.3766727 17.8721008,30.1056727" id="Fill-343"></path>
                <path d="M26.7661008,11.7926727 C23.5631008,11.7926727 23.5631008,16.7596727 26.7661008,16.7596727 C29.9691008,16.7596727 29.9691008,11.7926727 26.7661008,11.7926727" id="Fill-344"></path>
                <path d="M18.0311008,12.8946727 C15.5861008,12.8946727 15.5861008,16.6856727 18.0311008,16.6856727 C20.4781008,16.6856727 20.4781008,12.8946727 18.0311008,12.8946727" id="Fill-345"></path>
                <path d="M25.6421008,23.8566727 C22.8991008,26.4046727 20.5411008,29.6296727 20.0851008,33.4466727 C19.6841008,36.8086727 20.7891008,41.4636727 23.7521008,43.4286727 C24.1241008,43.6746727 24.7281008,43.2606727 24.5471008,42.8166727 C23.9341008,41.3056727 22.8911008,40.0626727 22.2021008,38.5776727 C21.5081008,37.0856727 21.2641008,35.4436727 21.2761008,33.8126727 C21.3021008,30.1066727 23.4441008,26.7166727 25.8331008,24.0476727 C25.9491008,23.9176727 25.7711008,23.7366727 25.6421008,23.8566727" id="Fill-346"></path>
            </g>
        </g>
    </g>
</svg>