<?xml version="1.0" encoding="UTF-8"?>
<svg width="44px" height="58px" viewBox="0 0 44 58" version="1.1" xmlns="http://www.w3.org/2000/svg" xmlns:xlink="http://www.w3.org/1999/xlink">
    <title>Group 25</title>
    <g id="Page-1" stroke="none" stroke-width="1" fill="none" fill-rule="evenodd">
        <g id="vectorstock_1327683" transform="translate(-14.000000, -469.000000)" fill="#0A0B09">
            <g id="Group-25" transform="translate(14.075370, 469.674262)">
                <path d="M24.6036304,10.4987378 C24.4626304,10.4517378 24.3516304,10.5247378 24.2966304,10.6317378 C24.9086304,7.20273779 25.4146304,3.64573779 24.4246304,0.621737794 C24.3766304,0.475737794 24.1356304,0.450737794 24.1016304,0.621737794 C23.0886304,5.75573779 22.1166304,11.1037378 21.5696304,16.3147378 C21.4506304,17.4747378 23.2846304,17.4767378 23.3916304,16.3147378 C23.5446304,14.6027378 23.9166304,12.7307378 24.2616304,10.8207378 C24.2706304,10.8937378 24.3096304,10.9637378 24.3866304,11.0077378 C33.0836304,15.8087378 40.0056304,22.3127378 40.2976304,32.6437378 C37.7306304,29.7717378 30.2986304,29.8607378 27.6286304,30.0907378 C21.2686304,30.6417378 14.7046304,32.6827378 8.95563037,35.4287378 C8.82663037,35.4927378 8.94063037,35.6787378 9.06863037,35.6217378 C14.3416304,33.2957378 20.0396304,31.8047378 25.7706304,31.2547378 C28.6406304,30.9787378 31.5516304,31.0747378 34.3596304,31.7417378 C36.8716304,32.3337378 38.1416304,34.3637378 40.2376304,35.2487378 C39.8696304,39.4087378 38.2496304,43.3557378 35.7456304,46.5487378 C36.0916304,42.8577378 34.3276304,38.9457378 30.2046304,39.2497378 C30.1676304,39.2527378 30.1526304,39.3177378 30.1966304,39.3247378 C33.2346304,39.8177378 34.6806304,42.2497378 34.6526304,45.1737378 C34.6356304,46.6477378 34.2306304,47.8457378 33.5876304,48.9117378 C30.1966304,52.0907378 25.7586304,54.0817378 20.8316304,54.0577378 C9.74363037,53.9967378 1.92063037,42.8877378 1.36063037,32.7317378 C0.873630371,23.8387378 6.51563037,17.6747378 13.4956304,13.5447378 C13.6806304,13.5747378 13.8786304,13.4877378 13.9586304,13.2767378 C14.6306304,12.8887378 15.3136304,12.5117378 16.0066304,12.1627378 C16.2096304,12.2287378 16.4606304,12.1517378 16.5706304,11.8797378 C17.0906304,11.6257378 17.6096304,11.3817378 18.1336304,11.1477378 C17.9326304,12.3637378 17.6926304,13.5747378 17.3876304,14.7797378 C17.2136304,15.4767378 18.2546304,15.7597378 18.4626304,15.0747378 C19.9316304,10.2407378 19.5116304,5.05173779 19.7816304,0.0747377935 C19.7876304,-0.0102622065 19.6516304,-0.0292622065 19.6366304,0.0517377935 C19.0156304,3.64973779 18.7506304,7.27873779 18.1756304,10.8657378 C17.6806304,11.0637378 17.1916304,11.2747378 16.7066304,11.4867378 C17.3016304,9.71573779 17.3726304,7.66973779 17.6186304,5.83973779 C17.6326304,5.74773779 17.4956304,5.66373779 17.4496304,5.76973779 C16.6276304,7.58773779 16.0766304,9.67873779 15.7146304,11.6397378 C15.6926304,11.7497378 15.7126304,11.8407378 15.7446304,11.9197378 C15.1706304,12.1907378 14.6026304,12.4707378 14.0436304,12.7597378 C14.1956304,11.5057378 14.5006304,10.2447378 14.4536304,8.98473779 C14.4476304,8.87673779 14.3046304,8.86273779 14.2716304,8.96173779 C13.8046304,10.2747378 13.4516304,11.6657378 13.1546304,13.0297378 C13.1386304,13.1127378 13.1436304,13.1837378 13.1576304,13.2457378 C12.5266304,13.5977378 11.9176304,13.9667378 11.3146304,14.3457378 C11.4026304,14.0177378 11.3986304,13.6417378 11.4586304,13.2927378 C11.5826304,12.5647378 11.6736304,11.9047378 11.6426304,11.1627378 C11.6416304,11.0977378 11.5586304,11.0927378 11.5336304,11.1497378 C11.2646304,11.7997378 11.0176304,12.4387378 10.7976304,13.1077378 C10.6196304,13.6477378 10.2326304,14.3117378 10.5586304,14.8357378 C4.23263037,19.0757378 -0.0963696286,25.1467378 0.0016303714,33.8047378 C0.126630371,45.4187378 9.48363037,55.0877378 20.8316304,56.2097378 C32.1016304,57.3257378 41.1796304,46.5667378 42.3466304,36.1937378 C43.7196304,23.9527378 35.8646304,14.3407378 24.6036304,10.4987378" id="Fill-430"></path>
                <path d="M34.9406304,21.7167378 C34.5086304,19.6027378 31.5926304,17.1247378 29.4616304,18.6327378 C29.2816304,18.7577378 29.2576304,19.0227378 29.4616304,19.1457378 C30.8906304,19.9997378 32.3886304,19.9337378 33.2486304,21.6037378 C34.0496304,23.1547378 33.2186304,24.9197378 31.7886304,25.6967378 C27.3366304,28.1117378 23.2976304,21.1767378 28.2996304,19.0167378 C28.4616304,18.9477378 28.3406304,18.7117378 28.1856304,18.7447378 C25.5316304,19.3007378 24.2436304,21.5617378 25.1446304,24.1347378 C26.0986304,26.8657378 29.1276304,27.9827378 31.7696304,27.2497378 C34.2166304,26.5707378 35.4286304,24.1037378 34.9406304,21.7167378" id="Fill-431"></path>
                <path d="M22.0116304,22.5697378 C21.3336304,20.5607378 18.2286304,17.6917378 15.9836304,19.2077378 C15.8026304,19.3307378 15.7556304,19.6447378 15.9836304,19.7547378 C16.6866304,20.0947378 17.5266304,20.1367378 18.2696304,20.3927378 C19.1686304,20.7027378 19.8936304,21.4227378 20.3906304,22.2047378 C21.2086304,23.4967378 21.2896304,25.3447378 19.8676304,26.2217378 C17.9786304,27.3847378 15.6616304,26.2787378 14.5816304,24.5987378 C14.0846304,23.8247378 13.9036304,22.9347378 13.9366304,22.0237378 C13.9916304,20.5577378 15.5856304,20.2957378 16.7356304,20.3497378 C16.8356304,20.3537378 16.8296304,20.2097378 16.7356304,20.2017378 C14.1956304,19.9017378 12.5006304,21.4627378 13.2266304,24.0347378 C14.0096304,26.8167378 16.6836304,28.2157378 19.4226304,27.7667378 C21.9316304,27.3557378 22.7416304,24.7247378 22.0116304,22.5697378" id="Fill-432"></path>
                <path d="M18.9156304,22.2357378 C17.3596304,22.2357378 17.3596304,24.6507378 18.9156304,24.6507378 C20.4716304,24.6507378 20.4716304,22.2357378 18.9156304,22.2357378" id="Fill-433"></path>
                <path d="M31.1956304,21.9707378 C29.8076304,21.9707378 29.8076304,24.1247378 31.1956304,24.1247378 C32.5846304,24.1247378 32.5846304,21.9707378 31.1956304,21.9707378" id="Fill-434"></path>
                <path d="M25.0596304,27.1797378 C24.9896304,27.6687378 24.8746304,28.1717378 24.3416304,28.2907378 C23.8846304,28.3937378 23.2006304,27.9477378 22.8466304,27.7117378 C22.5536304,27.5127378 22.2446304,27.8887378 22.3896304,28.1677378 C22.8456304,29.0357378 23.6186304,29.6507378 24.6356304,29.6387378 C25.7626304,29.6237378 26.4016304,28.6037378 26.5926304,27.6047378 C26.7876304,26.5907378 25.2036304,26.1827378 25.0596304,27.1797378" id="Fill-435"></path>
                <path d="M21.6036304,0.269737794 C21.5886304,0.130737794 21.3846304,0.124737794 21.3806304,0.269737794 C21.1546304,5.54073779 20.1366304,10.6087378 19.2096304,15.7807378 C19.0886304,16.4297378 20.0666304,16.7167378 20.2106304,16.0557378 C21.3196304,10.9187378 22.0596304,5.51873779 21.6036304,0.269737794" id="Fill-436"></path>
            </g>
        </g>
    </g>
</svg>