<?xml version="1.0" encoding="UTF-8"?>
<svg width="44px" height="56px" viewBox="0 0 44 56" version="1.1" xmlns="http://www.w3.org/2000/svg" xmlns:xlink="http://www.w3.org/1999/xlink">
    <title>Group 39</title>
    <g id="Page-1" stroke="none" stroke-width="1" fill="none" fill-rule="evenodd">
        <g id="vectorstock_1327683" transform="translate(-321.000000, -418.000000)" fill="#0A0B09">
            <g id="Group-39" transform="translate(321.586125, 418.427393)">
                <path d="M38.5288753,32.7236065 C38.5018753,33.2616065 38.4098753,33.7916065 38.2668753,34.3116065 C37.9998753,35.2806065 37.4898753,34.8106065 37.0018753,34.3066065 C37.1158753,33.2586065 37.1788753,32.2076065 37.1898753,31.1646065 C37.2068753,29.8046065 37.1128753,28.4536065 36.9248753,27.1166065 C37.3598753,27.4096065 37.7298753,27.9306065 37.9548753,28.3576065 C38.6538753,29.6846065 38.5978753,31.2736065 38.5288753,32.7236065 Z M4.39687535,33.1626065 C4.35087535,33.9936065 4.33387535,34.8546065 4.35087535,35.7296065 C3.81487535,36.1726065 3.36387535,36.6886065 2.73587535,37.0436065 C1.70987535,37.6276065 1.38887535,36.6146065 1.41087535,35.7416065 C1.44587535,34.1916065 2.57187535,31.2876065 4.46287535,31.3696065 C4.49387535,31.3696065 4.52287535,31.3696065 4.54787535,31.3666065 C4.48087535,31.9606065 4.42987535,32.5596065 4.39687535,33.1626065 Z M38.5768753,26.3446065 C38.1948753,25.8566065 37.3048753,25.2876065 36.5998753,25.2526065 C35.9328753,22.0456065 34.7398753,18.9466065 33.2098753,16.0466065 C31.0478753,11.9546065 28.1938753,7.94160652 24.5648753,5.04560652 C24.2678753,4.81260652 23.9138753,5.22060652 24.1238753,5.50560652 C25.8338753,7.83860652 27.7438753,10.0156065 29.4038753,12.3916065 C31.0558753,14.7626065 32.4368753,17.3116065 33.5248753,19.9906065 C34.3158753,21.9436065 34.8928753,23.9406065 35.2518753,25.9636065 C35.0788753,26.2466065 35.0108753,26.5956065 35.0788753,26.9826065 C35.1128753,27.1706065 35.2858753,27.2446065 35.4458753,27.2176065 C35.6608753,28.8516065 35.7328753,30.4976065 35.6618753,32.1576065 C35.6458753,32.3216065 35.6378753,32.4836065 35.6318753,32.6466065 C35.5818753,33.4586065 35.5008753,34.2776065 35.3838753,35.0936065 C34.0918753,43.9166065 27.9058753,53.5046065 18.0138753,53.4306065 C9.11387535,53.3636065 6.05987535,43.2666065 5.72687535,35.9686065 C5.23287535,25.1226065 10.6698753,14.6636065 18.0688753,7.06860652 C18.4678753,6.65860652 18.8778753,6.25860652 19.2878753,5.86160652 C19.4348753,5.71960652 19.2448753,5.47360652 19.0878753,5.61160652 C12.3778753,11.5136065 7.09787535,19.0726065 5.15687535,27.7476065 C5.20787535,27.3746065 5.21987535,26.9846065 5.23587535,26.6126065 C5.29987535,25.2566065 5.38287535,23.9786065 5.75487535,22.6636065 C6.45887535,20.1996065 7.79187535,17.9076065 8.89187535,15.6066065 C10.0748753,13.1236065 11.7998753,10.8816065 13.4658753,8.71160652 C14.8598753,6.89760652 16.3078753,4.41660652 18.5798753,3.66360652 C18.6898753,3.62560652 18.6228753,3.46960652 18.5208753,3.48160652 C16.2418753,3.73660652 14.5848753,5.44860652 13.1498753,7.08160652 C11.2678753,9.22560652 9.34887535,11.3376065 7.95887535,13.8456065 C6.62387535,16.2516065 5.38187535,18.8806065 4.47087535,21.4766065 C4.03087535,22.7316065 3.77687535,24.0706065 3.71687535,25.3966065 C3.66387535,26.5576065 3.29087535,28.1266065 3.77187535,29.2096065 C3.84087535,29.3616065 4.05087535,29.4486065 4.19887535,29.3636065 C4.66587535,29.1006065 4.91087535,28.7056065 5.04787535,28.2546065 C4.87887535,29.0606065 4.73687535,29.8776065 4.62787535,30.7046065 C4.59787535,30.6876065 4.56487535,30.6736065 4.52687535,30.6666065 C1.54587535,30.0396065 -0.229124653,34.2646065 0.0238753474,36.6246065 C0.181875347,38.0946065 1.36887535,39.0416065 2.81487535,38.6926065 C3.37187535,38.5596065 3.97187535,38.2226065 4.44787535,37.7676065 C4.93587535,43.9926065 7.20287535,50.5806065 12.7278753,53.6256065 C16.4758753,55.6896065 21.1678753,55.1086065 24.9298753,53.4216065 C28.9808753,51.6066065 32.0248753,48.1996065 34.0578753,44.3246065 C35.4708753,41.6316065 36.3728753,38.6606065 36.8288753,35.6356065 C36.9098753,35.6996065 36.9928753,35.7606065 37.0828753,35.8196065 C38.8588753,36.9666065 39.6778753,34.5296065 39.9598753,33.2086065 C40.4508753,30.8866065 40.0558753,28.2316065 38.5768753,26.3446065 L38.5768753,26.3446065 Z" id="Fill-509"></path>
                <path d="M25.7358753,30.0946065 C24.5898753,32.2786065 23.0698753,34.6756065 20.7138753,35.6886065 C18.8328753,36.4926065 17.8958753,32.7186065 15.9808753,33.5976065 C15.7988753,33.6816065 15.6358753,33.8926065 15.6848753,34.1066065 C15.9218753,35.1056065 17.3008753,35.7696065 18.0778753,36.3686065 C18.9548753,37.0406065 19.8878753,37.3306065 20.9548753,36.9686065 C23.5738753,36.0816065 25.1338753,32.5596065 26.0338753,30.2146065 C26.1108753,30.0166065 25.8308753,29.9146065 25.7358753,30.0946065" id="Fill-510"></path>
                <path d="M29.1838753,45.2356065 C28.7318753,43.8676065 26.9618753,43.3806065 25.7218753,43.0736065 C23.8778753,42.6196065 21.9268753,42.5636065 20.0418753,42.6986065 C17.3598753,42.8916065 13.2028753,43.5606065 12.2108753,46.5576065 C12.1878753,46.6296065 12.2928753,46.6696065 12.3278753,46.6076065 C13.0158753,45.4426065 14.2598753,45.0326065 15.4648753,44.6106065 C17.0018753,44.0716065 18.6578753,43.8986065 20.2768753,43.8676065 C21.8438753,43.8376065 23.4158753,43.9996065 24.9358753,44.3796065 C26.1998753,44.6966065 27.1408753,45.4246065 28.3068753,45.9076065 C28.7378753,46.0876065 29.3668753,45.7846065 29.1838753,45.2356065" id="Fill-511"></path>
                <path d="M14.6768753,18.9276065 C14.4088753,18.7106065 14.0938753,18.6706065 13.7908753,18.8396065 C11.0038753,20.3866065 9.09387535,23.3766065 8.50787535,26.4586065 C8.48587535,26.5626065 8.63287535,26.6246065 8.68487535,26.5256065 C9.97987535,24.0596065 11.9838753,21.2926065 14.5598753,20.0906065 C14.7988753,19.9786065 14.8988753,19.6866065 14.9088753,19.4496065 C14.9198753,19.2166065 14.8538753,19.0726065 14.6768753,18.9276065" id="Fill-512"></path>
                <path d="M32.4008753,22.1406065 C31.7998753,20.8876065 29.8308753,17.6886065 28.0718753,18.6276065 C27.6328753,18.8626065 27.5008753,19.3666065 27.6938753,19.8066065 C27.9858753,20.4706065 28.7878753,20.6236065 29.3518753,21.0046065 C30.1148753,21.5216065 30.7308753,22.2996065 31.2428753,23.0546065 C32.1258753,24.3666065 32.8368753,26.0216065 33.1058753,27.5846065 C33.1288753,27.7106065 33.3158753,27.7236065 33.3528753,27.6016065 C33.8958753,25.7486065 33.2038753,23.8186065 32.4008753,22.1406065" id="Fill-513"></path>
                <path d="M14.4688753,24.5546065 C14.4138753,24.1466065 14.0808753,23.7916065 13.7028753,23.6566065 C13.1988753,23.4776065 12.6258753,23.6666065 12.3238753,24.1066065 C12.1398753,24.3766065 12.0798753,24.7166065 12.1488753,25.0336065 C12.1518753,25.1286065 12.1768753,25.2206065 12.2298753,25.3056065 C12.2788753,25.3836065 12.3278753,25.4766065 12.3988753,25.5416065 C12.4118753,25.5546065 12.4218753,25.5636065 12.4338753,25.5746065 C12.5778753,25.7286065 12.7578753,25.8446065 12.9578753,25.9066065 C13.1258753,25.9656065 13.3798753,25.9776065 13.5378753,25.9396065 C13.8608753,25.8586065 14.0748753,25.7116065 14.2848753,25.4466065 C14.4788753,25.1996065 14.5098753,24.8506065 14.4688753,24.5546065" id="Fill-514"></path>
                <path d="M30.1738753,23.3926065 C30.0948753,23.2946065 29.9988753,23.1946065 29.8918753,23.1206065 C29.7308753,22.9986065 29.5518753,22.9256065 29.3518753,22.9016065 C29.0708753,22.8666065 28.7838753,22.9466065 28.5588753,23.1196065 C28.1858753,23.4036065 28.0018753,23.9676065 28.2148753,24.4066065 C28.2168753,24.4076065 28.2168753,24.4096065 28.2178753,24.4106065 C28.4138753,25.0146065 29.1098753,25.3596065 29.7168753,25.1056065 C30.3708753,24.8306065 30.6268753,23.9576065 30.1738753,23.3926065" id="Fill-515"></path>
                <path d="M14.6058753,3.92260652 C12.6878753,4.89760652 11.3278753,6.51660652 9.69587535,7.86560652 C7.97287535,9.28860652 6.43487535,11.1266065 5.18987535,12.9736065 C3.84987535,14.9626065 2.85087535,17.2876065 2.15987535,19.5746065 C1.51087535,21.7236065 0.877875347,24.4196065 1.64787535,26.5836065 C1.79387535,26.9896065 2.43487535,27.1386065 2.57587535,26.6276065 C3.15687535,24.4816065 3.10287535,22.2486065 3.74187535,20.0846065 C4.39287535,17.8726065 5.49887535,15.9096065 6.61287535,13.9076065 C7.66187535,12.0216065 9.06387535,10.3706065 10.5278753,8.79460652 C11.1558753,8.11660652 11.8358753,7.49060652 12.3778753,6.73860652 C13.0728753,5.77560652 13.7988753,4.84360652 14.7138753,4.07860652 C14.7988753,4.00860652 14.7028753,3.87260652 14.6058753,3.92260652" id="Fill-516"></path>
                <path d="M11.1048753,3.61960652 C9.61287535,4.40360652 8.29687535,5.60260652 7.04287535,6.71560652 C5.57587535,8.01960652 4.04787535,9.20360652 2.78287535,10.7176065 C1.70687535,12.0086065 1.23987535,13.8066065 0.881875347,15.4066065 C0.480875347,17.2046065 0.146875347,18.9946065 0.188875347,20.8346065 C0.197875347,21.2186065 0.726875347,21.4806065 0.951875347,21.0916065 C1.75387535,19.7106065 1.94987535,18.3006065 2.23387535,16.7546065 C2.54787535,15.0436065 3.01387535,13.3846065 3.86187535,11.8606065 C4.73387535,10.2886065 6.25087535,9.05660652 7.51287535,7.80760652 C8.77787535,6.54860652 9.91687535,5.03960652 11.3218753,3.93560652 C11.4958753,3.79860652 11.2958753,3.52160652 11.1048753,3.61960652" id="Fill-517"></path>
                <path d="M35.1868753,14.4676065 C34.1308753,12.9026065 33.1228753,11.3236065 32.1028753,9.73160652 C31.1058753,8.17060652 30.0178753,6.66260652 28.7638753,5.29960652 C27.8328753,4.29060652 26.6948753,3.20860652 25.2288753,3.26360652 C25.1128753,3.26760652 25.1198753,3.42660652 25.2208753,3.45460652 C26.5518753,3.82560652 27.6888753,5.20460652 28.5108753,6.23760652 C29.5838753,7.58760652 30.4748753,9.07960652 31.3178753,10.5786065 C32.0388753,11.8636065 32.6968753,13.1626065 33.4748753,14.4136065 C34.0448753,15.3266065 34.5798753,16.2536065 35.0598753,17.2196065 C35.5378753,18.1696065 35.6098753,19.2086065 36.0508753,20.1506065 C36.2198753,20.5116065 36.6748753,20.5426065 36.8758753,20.1926065 C37.9008753,18.4346065 36.1658753,15.9136065 35.1868753,14.4676065" id="Fill-518"></path>
                <path d="M38.1268753,12.1106065 C36.9828753,10.5526065 35.5778753,9.21760652 34.3678753,7.71260652 C32.1068753,4.89460652 29.8688753,1.96260652 25.8848753,2.15060652 C25.7168753,2.15860652 25.7258753,2.39460652 25.8878753,2.40760652 C29.5808753,2.73360652 31.3468753,5.80060652 33.2138753,8.60260652 C34.1198753,9.96060652 35.1898753,11.1936065 36.1048753,12.5436065 C36.5828753,13.2506065 37.0258753,13.9916065 37.4208753,14.7436065 C37.8498753,15.5546065 37.9218753,16.3666065 38.1698753,17.2206065 C38.4198753,18.0786065 39.7638753,18.1396065 39.9668753,17.2086065 C40.3368753,15.4846065 39.1048753,13.4406065 38.1268753,12.1106065" id="Fill-519"></path>
                <path d="M40.2078753,9.37360652 C39.0158753,7.85060652 37.6698753,6.45260652 36.4698753,4.93060652 C35.2748753,3.40860652 34.0008753,1.95360652 32.2828753,1.01560652 C30.6408753,0.12060652 28.7908753,-0.0763934799 26.9498753,0.0236065201 C26.8398753,0.0296065201 26.8488753,0.20660652 26.9568753,0.21360652 C29.0548753,0.37560652 30.9388753,0.96360652 32.5398753,2.36060652 C34.0898753,3.70960652 35.1428753,5.51060652 36.3518753,7.14660652 C37.4678753,8.65360652 38.7308753,10.0526065 39.6738753,11.6846065 C40.1178753,12.4496065 40.3258753,13.3026065 40.7428753,14.0766065 C41.0418753,14.6336065 41.9518753,14.7946065 42.1648753,14.0346065 C42.6358753,12.3396065 41.1868753,10.6246065 40.2078753,9.37360652" id="Fill-520"></path>
            </g>
        </g>
    </g>
</svg>