<?xml version="1.0" encoding="UTF-8"?>
<svg width="59px" height="45px" viewBox="0 0 59 45" version="1.1" xmlns="http://www.w3.org/2000/svg" xmlns:xlink="http://www.w3.org/1999/xlink">
    <title>Group 50</title>
    <g id="Page-1" stroke="none" stroke-width="1" fill="none" fill-rule="evenodd">
        <g id="vectorstock_1327683" transform="translate(-318.000000, -306.000000)" fill="#0A0B09">
            <g id="Group-50" transform="translate(318.804445, 306.709357)">
                <path d="M55.9065549,19.8366433 C55.6565549,21.0516433 54.2355549,21.6776433 53.1265549,21.7876433 C51.8195549,21.9176433 51.5145549,21.1806433 50.7925549,20.3126433 C50.7245549,20.2336433 50.6395549,20.1966433 50.5485549,20.1856433 C50.5185549,19.7366433 50.4785549,19.2866433 50.4285549,18.8366433 C50.7275549,18.7596433 51.0175549,18.6676433 51.2425549,18.6256433 C52.2755549,18.4346433 53.3875549,18.5036433 54.1655549,19.2896433 C54.2525549,19.3766433 54.3905549,19.2646433 54.3335549,19.1606433 C53.7945549,18.1866433 52.7755549,17.7416433 51.7185549,17.5456433 C51.3815549,17.4856433 50.7975549,17.4536433 50.2495549,17.5316433 C50.2445549,17.4986433 50.2405549,17.4656433 50.2355549,17.4326433 C52.6595549,17.0016433 56.4885549,17.0176433 55.9065549,19.8366433 Z M47.1315549,25.5186433 C45.9205549,32.3806433 41.0045549,37.8036433 34.4055549,39.8926433 C21.6355549,43.9376433 2.0155549,34.1246433 5.8665549,18.8756433 C9.2025549,5.6626433 25.2535549,-2.7403567 37.4905549,3.6536433 C37.5125549,3.7446433 37.5635549,3.8266433 37.6515549,3.8846433 C41.2385549,6.2436433 44.6015549,8.7896433 46.1505549,12.9266433 C47.5945549,16.7896433 47.8435549,21.4766433 47.1315549,25.5186433 Z M3.7155549,16.7616433 C2.6305549,16.8366433 1.7385549,15.8596433 1.6035549,14.6126433 C1.4845549,13.5066433 1.8515549,12.4016433 2.5635549,11.5626433 C3.7055549,10.2116433 5.6105549,9.6006433 6.3685549,11.5806433 C6.2095549,11.8156433 6.0525549,12.0516433 5.8975549,12.2906433 C5.6075549,11.9716433 5.1185549,11.7756433 4.7175549,11.7596433 C3.8805549,11.7236433 3.6185549,12.4276433 3.4075549,13.0816433 C3.3785549,13.1706433 3.4955549,13.2286433 3.5595549,13.1696433 C3.7915549,12.9536433 4.3455549,12.6286433 4.6925549,12.6936433 C4.9805549,12.7466433 5.1305549,13.0226433 5.3425549,13.2016433 C4.6855549,14.3416433 4.1405549,15.5366433 3.7155549,16.7616433 Z M9.6255549,7.1266433 C9.6825549,7.2296433 9.7455549,7.3276433 9.7995549,7.4306433 C9.8045549,7.4386433 9.8115549,7.4466433 9.8175549,7.4556433 C9.7375549,7.5336433 9.6575549,7.6146433 9.5785549,7.6956433 C9.5945549,7.5056433 9.6115549,7.3166433 9.6255549,7.1266433 Z M55.2905549,15.9806433 C53.5045549,15.2876433 51.6985549,15.7956433 50.0895549,16.6216433 C50.0605549,16.4746433 50.0265549,16.3296433 49.9965549,16.1836433 C50.0265549,16.2036433 50.0595549,16.1596433 50.0335549,16.1366433 C50.0085549,16.1146433 49.9925549,16.0916433 49.9725549,16.0726433 C49.9535549,15.9706433 49.9305549,15.8706433 49.9105549,15.7686433 C50.0755549,15.5586433 50.7425549,15.5096433 50.9945549,15.4366433 C51.7505549,15.2106433 52.4865549,15.0126433 53.2125549,14.6956433 C53.7165549,14.4756433 53.6745549,13.9346433 53.3835549,13.5906433 C54.0355549,13.1096433 53.7075549,12.0286433 52.8955549,11.9636433 C53.2005549,11.4616433 53.0075549,10.8166433 52.5045549,10.5946433 C52.5295549,10.5626433 52.5555549,10.5346433 52.5795549,10.5026433 C53.1725549,9.7506433 52.6445549,8.6556433 51.6325549,8.8766433 C51.3615549,8.9346433 51.0945549,9.0016433 50.8295549,9.0716433 C51.0785549,8.5606433 50.8765549,7.9046433 50.2615549,7.7336433 C49.8315549,7.6146433 49.4495549,7.5666433 49.0635549,7.5836433 C48.9485549,7.4386433 48.7945549,7.3296433 48.6105549,7.2906433 C48.0285549,7.1766433 47.5945549,7.1956433 47.1335549,7.3536433 C47.0665549,7.3346433 46.9975549,7.3196433 46.9285549,7.3116433 C46.8605549,7.3016433 46.7925549,7.2936433 46.7225549,7.2836433 C46.2975549,7.2296433 46.0475549,7.4436433 45.9445549,7.7416433 C45.8395549,7.6226433 45.7405549,7.5026433 45.6325549,7.3886433 C43.5415549,5.2166433 40.8795549,4.1086433 38.0625549,3.2226433 C31.5475549,-0.938356699 24.0405549,-0.810356699 17.5585549,2.1236433 C17.5475549,1.9786433 17.5075549,1.8296433 17.4295549,1.6846433 C17.4025549,1.6306433 17.3745549,1.5746433 17.3445549,1.5186433 C17.2095549,1.2586433 17.0155549,1.1056433 16.8035549,1.0336433 C16.7845549,0.968643301 16.7655549,0.903643301 16.7405549,0.836643301 C16.3725549,-0.180356699 15.0515549,-0.172356699 14.6835549,0.836643301 C14.6755549,0.853643301 14.6695549,0.869643301 14.6645549,0.882643301 C14.1685549,0.684643301 13.5495549,0.845643301 13.3195549,1.4746433 C13.1575549,1.1866433 12.9845549,0.903643301 12.7955549,0.630643301 C12.2085549,-0.219356699 11.1045549,0.168643301 10.9775549,1.1226433 C10.9085549,1.6346433 10.8615549,2.1516433 10.8075549,2.6666433 C10.2505549,2.4856433 9.5515549,2.7516433 9.6405549,3.4716433 C9.6585549,3.6106433 9.6685549,3.7496433 9.6765549,3.8866433 C9.6545549,3.8456433 9.6295549,3.8056433 9.6095549,3.7616433 C9.2485549,3.0006433 8.0675549,3.3966433 8.0755549,4.1756433 C8.0855549,5.0846433 8.0805549,5.9896433 8.0465549,6.8926433 C7.6205549,6.6786433 7.0055549,6.8776433 7.0405549,7.4656433 C7.0865549,8.2086433 7.1665549,8.6336433 7.6175549,9.2176433 C7.7345549,9.3706433 7.9085549,9.3936433 8.0695549,9.3416433 C7.8815549,9.5626433 7.6945549,9.7856433 7.5135549,10.0106433 C6.9485549,9.0536433 6.0085549,8.4446433 4.7495549,8.5136433 C3.1715549,8.5986433 1.8365549,9.7236433 0.939554898,10.9366433 C-0.194445102,12.4736433 -0.288445102,14.6346433 0.584554898,16.2956433 C0.986554898,17.0636433 1.7565549,17.6526433 2.5995549,17.8166433 C2.8905549,17.8736433 3.1535549,17.8446433 3.3965549,17.7656433 C2.1805549,21.9666433 2.3635549,26.4846433 4.2595549,30.5486433 C7.3925549,37.2596433 15.2555549,41.6366433 22.1795549,43.2776433 C32.3105549,45.6766433 43.6925549,41.7236433 48.4105549,32.0516433 C49.8515549,29.0946433 50.5275549,25.8996433 50.6065549,22.6716433 C51.1965549,23.1186433 51.9925549,23.4066433 52.6115549,23.4866433 C54.5155549,23.7286433 56.7835549,22.5896433 57.5455549,20.8086433 C58.3925549,18.8216433 57.1745549,16.7126433 55.2905549,15.9806433 L55.2905549,15.9806433 Z" id="Fill-264"></path>
                <path d="M29.6815549,6.3396433 C29.1895549,4.5496433 25.9845549,4.4006433 24.5705549,4.6196433 C22.6305549,4.9196433 20.5995549,5.7416433 19.4435549,7.3856433 C19.3605549,7.5026433 19.4985549,7.6786433 19.6325549,7.6306433 C21.7905549,6.8606433 24.0835549,7.1376433 26.3125549,7.3126433 C27.0885549,7.3746433 30.1855549,8.1676433 29.6815549,6.3396433" id="Fill-265"></path>
                <path d="M38.2575549,8.6096433 C37.4765549,7.3386433 35.3445549,5.7676433 33.8655549,6.7216433 C33.4735549,6.9726433 33.2355549,7.5556433 33.5345549,7.9766433 C34.2395549,8.9616433 35.5285549,9.0306433 36.5175549,9.6436433 C37.6745549,10.3626433 38.3465549,11.3936433 38.4815549,12.7556433 C38.4975549,12.9046433 38.7025549,12.9476433 38.7515549,12.7926433 C39.1775549,11.3586433 39.0415549,9.8916433 38.2575549,8.6096433" id="Fill-266"></path>
                <path d="M35.0925549,10.0336433 C34.1845549,10.0336433 33.4285549,10.7906433 33.4285549,11.6996433 C33.4285549,12.6046433 34.1845549,13.3646433 35.0925549,13.3646433 C36.0025549,13.3646433 36.7585549,12.6046433 36.7585549,11.6996433 C36.7585549,10.7906433 36.0025549,10.0336433 35.0925549,10.0336433" id="Fill-267"></path>
                <path d="M25.4545549,8.3466433 C25.1155549,8.0046433 24.6035549,7.8706433 24.1375549,7.9986433 C23.6815549,8.1246433 23.3175549,8.4896433 23.1915549,8.9456433 C23.1265549,9.1836433 23.1265549,9.4236433 23.1915549,9.6646433 C23.2555549,9.8946433 23.3735549,10.0716433 23.5245549,10.2236433 C23.4925549,10.1836433 23.4605549,10.1416433 23.4295549,10.1016433 C23.4865549,10.1766433 23.5475549,10.2486433 23.6095549,10.3126433 C23.6635549,10.3586433 23.7215549,10.4056433 23.7815549,10.4486433 C23.7295549,10.4086433 23.6755549,10.3646433 23.6225549,10.3246433 C23.8605549,10.5606433 24.1465549,10.7106433 24.5175549,10.7106433 C24.9655549,10.7106433 25.4125549,10.4696433 25.6315549,10.0736433 C25.7025549,9.9446433 25.7745549,9.8076433 25.8015549,9.6646433 C25.8985549,9.1806433 25.8165549,8.7076433 25.4545549,8.3466433" id="Fill-268"></path>
                <path d="M23.5955549,10.3166433 C23.5885549,10.3056433 23.5795549,10.2946433 23.5725549,10.2856433 C23.5655549,10.2816433 23.5605549,10.2766433 23.5535549,10.2726433 C23.5695549,10.2856433 23.5825549,10.3006433 23.5955549,10.3166433" id="Fill-269"></path>
                <path d="M23.5245549,10.2236433 C23.5395549,10.2446433 23.5555549,10.2646433 23.5725549,10.2856433 C23.5885549,10.2976433 23.6055549,10.3126433 23.6225549,10.3246433 C23.6175549,10.3206433 23.6135549,10.3166433 23.6095549,10.3126433 C23.5795549,10.2846433 23.5525549,10.2526433 23.5245549,10.2236433" id="Fill-270"></path>
                <path d="M45.1895549,22.8136433 C44.8815549,22.3626433 44.2025549,22.4226433 44.0315549,22.9666433 C43.8305549,23.6016433 43.9635549,24.4266433 43.9675549,25.1306433 C41.7955549,24.6936433 39.5075549,24.4526433 37.3105549,24.2136433 C35.1445549,23.9766433 33.1035549,24.2016433 31.1865549,25.2576433 C29.7805549,26.0356433 28.6045549,27.1966433 27.3675549,28.2056433 C26.9425549,28.5516433 26.2625549,29.1266433 25.6695549,29.0186433 C24.6805549,28.8406433 24.2945549,26.7286433 24.0835549,25.9766433 C23.9545549,25.5186433 23.3505549,25.3456433 23.0095549,25.6946433 C20.5115549,28.2676433 17.9055549,25.0256433 15.9385549,23.3556433 C14.1645549,21.8476433 11.2385549,19.5656433 8.6555549,20.0926433 C8.8855549,19.6226433 9.1035549,19.2526433 8.9825549,18.6576433 C8.9475549,18.4776433 8.7425549,18.3836433 8.5765549,18.4246433 C6.9375549,18.8296433 7.3245549,21.5186433 7.7555549,22.6786433 C7.8335549,22.8886433 8.1905549,22.8776433 8.1715549,22.6236433 C8.1235549,21.9996433 8.1795549,21.3996433 8.3625549,20.8166433 C10.0215549,21.2866433 11.4785549,21.5336433 13.0135549,22.5636433 C14.5645549,23.6046433 15.8585549,25.0006433 17.2845549,26.1996433 C19.1625549,27.7776433 21.1775549,28.5876433 23.1125549,27.2746433 C23.5065549,28.5916433 24.1295549,30.0736433 25.5045549,30.3516433 C26.8595549,30.6286433 28.1695549,29.3536433 29.1205549,28.5816433 C31.1415549,26.9436433 32.9875549,25.6736433 35.6975549,25.7296433 C38.4485549,25.7846433 41.1035549,27.2976433 43.8595549,27.1226433 C43.8565549,27.3876433 43.8655549,27.6546433 43.8995549,27.9266433 C43.9455549,28.2896433 44.4705549,28.5526433 44.6725549,28.1336433 C45.0605549,27.3286433 45.1685549,26.5336433 45.2865549,25.6476433 C45.3935549,24.8346433 45.6855549,23.5436433 45.1895549,22.8136433" id="Fill-271"></path>
                <path d="M27.9955549,16.0196433 C27.6715549,16.5416433 27.2925549,17.1436433 26.8195549,17.4266433 C26.4465549,17.6526433 25.8715549,17.7066433 25.5635549,17.6416433 C25.2635549,17.5816433 24.8965549,17.4116433 24.7975549,17.1616433 C24.5595549,16.5606433 25.0485549,15.7836433 25.3315549,15.2836433 C25.3945549,15.1716433 25.2715549,15.0686433 25.1665549,15.1186433 C24.2565549,15.5466433 23.6055549,16.2316433 23.4735549,17.2536433 C23.3605549,18.1306433 24.0085549,18.9546433 24.7585549,19.3076433 C26.8865549,20.3146433 29.4265549,18.7736433 29.5345549,16.4376433 C29.5735549,15.5846433 28.4125549,15.3526433 27.9955549,16.0196433" id="Fill-272"></path>
            </g>
        </g>
    </g>
</svg>