<?xml version="1.0" encoding="UTF-8"?>
<svg width="58px" height="53px" viewBox="0 0 58 53" version="1.1" xmlns="http://www.w3.org/2000/svg" xmlns:xlink="http://www.w3.org/1999/xlink">
    <title>Group 68</title>
    <g id="Page-1" stroke="none" stroke-width="1" fill="none" fill-rule="evenodd">
        <g id="vectorstock_1327683" transform="translate(-377.000000, -129.000000)" fill="#1B1A19">
            <g id="Group-68" transform="translate(377.403841, 129.739123)">
                <path d="M23.1811585,41.9558772 C23.1371585,41.7338772 23.0081585,41.5728772 22.8111585,41.4438772 C22.6111585,41.3138772 22.3661585,41.3498772 22.1491585,41.3888772 C21.6331585,41.4788772 21.5461585,42.1168772 21.8521585,42.4298772 C21.9631585,42.6668772 22.2071585,42.8378772 22.5131585,42.8318772 C22.7051585,42.8268772 22.8901585,42.7468772 23.0221585,42.6148772 C23.2061585,42.4238772 23.2311585,42.1998772 23.1811585,41.9558772" id="Fill-183"></path>
                <path d="M18.4361585,23.8298772 C17.5131585,23.8478772 16.5901585,23.9498772 15.7071585,24.1648772 C17.0131585,22.5018772 18.1101585,20.4808772 20.4771585,20.1238772 C22.4981585,19.8218772 23.5011585,22.7558772 24.1121585,24.3648772 C22.2581585,23.9208772 20.1951585,23.7938772 18.4361585,23.8298772 Z M26.1531585,25.0358772 C25.6211585,24.7998772 25.0471585,24.6068772 24.4451585,24.4468772 C23.9501585,22.5338772 23.1751585,19.9738772 20.8421585,19.6198772 C18.2751585,19.2278772 16.0251585,22.4978772 14.9701585,24.3768772 C13.8701585,24.7458772 12.8641585,25.3308772 12.0611585,26.2048772 C12.0451585,26.2228772 12.0711585,26.2418772 12.0861585,26.2278772 C12.9291585,25.5348772 13.8741585,25.0908772 14.8711585,24.8178772 C14.9411585,24.8928772 15.0661585,24.9248772 15.1501585,24.8288772 C15.1821585,24.7938772 15.2131585,24.7568772 15.2441585,24.7228772 C16.7011585,24.3898772 18.2611585,24.4048772 19.7931585,24.5438772 C21.9021585,24.7388772 23.8331585,25.4748772 25.8931585,25.7928772 C26.3671585,25.8678772 26.5931585,25.2348772 26.1531585,25.0358772 L26.1531585,25.0358772 Z" id="Fill-184"></path>
                <path d="M36.6501585,24.7388772 C38.0361585,23.6168772 38.7481585,20.9808772 40.9451585,21.3388772 C42.8251585,21.6448772 42.2901585,23.9288772 43.2911585,24.7958772 C41.1181585,24.3758772 38.6341585,24.0018772 36.6501585,24.7388772 Z M45.0961585,25.1488772 C44.7801585,25.0908772 44.4481585,25.0248772 44.1041585,24.9568772 C43.1521585,23.3788772 43.2281585,20.7368772 40.7151585,20.6108772 C38.2361585,20.4858772 37.6251585,23.1938772 36.5561585,24.7718772 C36.1671585,24.9218772 35.7941585,25.1168772 35.4511585,25.3668772 C35.3381585,25.4498772 35.4631585,25.6168772 35.5851585,25.5598772 C38.2301585,24.3718772 40.8551585,24.5868772 43.5901585,24.9868772 C43.7191585,25.0458772 43.8651585,25.0888772 44.0331585,25.1128772 C44.0671585,25.1168772 44.1041585,25.0958772 44.1201585,25.0668772 C44.4391585,25.1148772 44.7611585,25.1648772 45.0831585,25.2148772 C45.1251585,25.2228772 45.1431585,25.1578772 45.0961585,25.1488772 L45.0961585,25.1488772 Z" id="Fill-185"></path>
                <path d="M42.0741585,22.8088772 C42.0391585,22.5618772 41.9031585,22.3318772 41.6951585,22.1768772 C41.4601585,22.0018772 41.2191585,21.9718772 40.9321585,21.9758772 C40.6821585,21.9788772 40.4091585,22.1568772 40.2631585,22.3358772 C40.0911585,22.5368772 40.0161585,22.8018772 40.0491585,23.0578772 C40.0811585,23.3078772 40.2201585,23.5368772 40.4271585,23.6938772 C40.6621585,23.8668772 40.9051585,23.8968772 41.1911585,23.8938772 C41.4411585,23.8898772 41.7121585,23.7108772 41.8611585,23.5328772 C42.0321585,23.3318772 42.1081585,23.0668772 42.0741585,22.8088772" id="Fill-186"></path>
                <path d="M21.6301585,21.1238772 C21.0341585,21.1298772 20.5181585,21.5348772 20.4931585,22.1208772 C20.4721585,22.6648772 20.9501585,23.2008772 21.5461585,23.1948772 C22.1441585,23.1878772 22.6591585,22.7828772 22.6821585,22.1978772 C22.7041585,21.6538772 22.2281585,21.1168772 21.6301585,21.1238772" id="Fill-187"></path>
                <path d="M33.9081585,22.4898772 C31.1061585,25.0978772 31.4941585,30.2938772 32.8551585,33.6268772 C32.1341585,33.6938772 31.5391585,33.8788772 30.8601585,34.3048772 C30.7431585,34.3768772 30.8581585,34.5128772 30.9621585,34.5078772 C31.8331585,34.4508772 32.7321585,34.4928772 33.6081585,34.4748772 C33.9081585,34.4678772 34.0951585,34.1028772 33.9801585,33.8628772 C32.4251585,30.6938772 31.7731585,25.5758772 33.9601585,22.5328772 C33.9871585,22.4998772 33.9401585,22.4578772 33.9081585,22.4898772" id="Fill-188"></path>
                <path d="M23.6631585,43.1918772 C23.4531585,43.2328772 23.0611585,42.7078772 22.9751585,42.5978772 C22.7001585,42.2478772 22.5181585,41.8668772 22.3581585,41.4758772 C22.8391585,41.9888772 23.4321585,42.2698772 24.1381585,42.1498772 C24.0851585,42.3758772 23.9611585,43.1328772 23.6631585,43.1918772 Z M24.4411585,40.5398772 C22.2891585,42.3158772 20.9311585,36.6408772 21.2341585,35.3308772 C21.2381585,35.3128772 21.2091585,35.3018772 21.2011585,35.3198772 C20.7021585,36.4918772 20.8891585,38.8298772 21.6741585,40.4488772 C21.5451585,40.9678772 21.7191585,41.4868772 21.8931585,42.0018772 C22.1031585,42.6148772 22.4121585,43.2028772 22.8771585,43.6728772 C23.2061585,44.0028772 23.6951585,44.1628772 24.1461585,43.9808772 C24.7961585,43.7138772 24.9381585,42.8558772 25.0011585,42.2768772 C25.0231585,42.1098772 24.9561585,41.9828772 24.8521585,41.9048772 C25.0371585,41.8088772 25.2271585,41.6948772 25.4261585,41.5448772 C26.1521585,40.9978772 25.1481585,39.9568772 24.4411585,40.5398772 L24.4411585,40.5398772 Z" id="Fill-189"></path>
                <path d="M9.79415854,23.1918772 C9.65915854,23.4878772 9.37715854,23.7178772 8.94615854,23.8098772 C8.79315854,23.2658772 8.88315854,22.7518772 9.39815854,22.4848772 C9.44415854,22.6478772 9.49415854,22.8088772 9.52015854,22.9758772 C9.54115854,23.1028772 9.67215854,23.1868772 9.79415854,23.1918772 Z M47.3621585,25.4718772 C47.3461585,25.4598772 47.3241585,25.4858772 47.3401585,25.4978772 C49.0831585,26.7468772 50.2371585,28.3798772 49.7961585,30.4988772 C49.4161585,32.3308772 47.9081585,33.8108772 46.4431585,34.9488772 C43.9821585,36.8568772 40.8681585,37.6288772 38.0821585,38.9758772 C35.9931585,39.9868772 34.2871585,41.4528772 33.8641585,43.7098772 C33.4511585,45.8968772 34.6761585,47.8328772 36.7341585,48.4278772 C33.4771585,49.7188772 30.0091585,50.4408772 26.4661585,50.4528772 C22.3841585,50.4658772 18.7731585,48.9758772 15.7731585,46.4168772 C13.0951585,44.1308772 11.2881585,41.0558772 10.0961585,37.8728772 C8.74415854,34.2568772 8.08615854,30.4118772 10.4921585,27.0698772 C10.7301585,26.7378772 10.2551585,26.4368772 9.95415854,26.6248772 C9.97515854,26.5498772 9.99215854,26.4758772 10.0071585,26.4088772 C10.0101585,26.3898772 9.98515854,26.3808772 9.97415854,26.3988772 C9.72115854,26.8438772 9.29815854,27.4798772 8.68515854,27.1918772 C8.19415854,26.9588772 7.87115854,26.3538772 7.64615854,25.9138772 C7.10015854,24.8508772 6.70615854,23.5198772 7.18015854,22.3818772 C7.65015854,21.2518772 8.68515854,20.7438772 9.52815854,21.8368772 C9.53815854,21.8478772 9.54515854,21.8628772 9.55515854,21.8748772 C8.34115854,22.1488772 8.09615854,23.2018772 8.48515854,24.2228772 C8.52915854,24.3388772 8.66415854,24.3938772 8.78715854,24.3828772 C9.93015854,24.2848772 10.3881585,23.6718772 10.4151585,22.9688772 C10.7171585,22.8658772 10.9061585,22.4248772 10.4951585,22.2818772 C10.4291585,22.2578772 10.3671585,22.2518772 10.3021585,22.2518772 C9.87415854,20.9558772 8.29015854,19.8388772 7.04615854,21.4448772 C5.86815854,22.9578772 6.41215854,24.9668772 7.34715854,26.4468772 C7.67315854,26.9618772 8.17015854,27.5468772 8.82915854,27.6588772 C8.99915854,27.6878772 9.14415854,27.6688772 9.27215854,27.6168772 C7.75115854,30.2688772 7.72315854,33.3808772 8.56215854,36.4208772 C8.53115854,36.4138772 8.50015854,36.4118772 8.47015854,36.4168772 C6.25115854,36.8558772 4.59915854,36.4438772 3.14015854,34.7588772 C1.64215854,33.0308772 1.02215854,30.5888772 0.815158544,28.4138772 C0.200158544,21.9698772 5.54315854,15.6098772 11.2491585,12.7968772 C11.3291585,12.7568772 11.2841585,12.6358772 11.2001585,12.6718772 C5.01915854,15.2938772 -0.167841456,21.4598772 0.00415854354,28.1168772 C0.108158544,32.1608772 3.05315854,39.5808772 8.67215854,36.8018772 C8.67215854,36.8018772 8.67215854,36.8018772 8.67515854,36.8018772 C9.81915854,40.6068772 12.2921585,44.2568772 14.8721585,46.6748772 C21.1541585,52.5678772 30.5231585,51.9188772 38.0311585,48.5818772 C38.3371585,48.4458772 38.2211585,47.9948772 37.8951585,47.9828772 C35.3491585,47.8838772 34.2821585,45.9708772 34.4881585,43.7588772 C34.6311585,42.2378772 35.7941585,41.0758772 37.0301585,40.2248772 C39.3021585,38.6558772 42.1601585,38.1028772 44.5601585,36.7488772 C46.8641585,35.4488772 49.0341585,33.7858772 50.0431585,31.3618772 C51.0691585,28.8978772 49.3521585,26.8508772 47.3621585,25.4718772 L47.3621585,25.4718772 Z" id="Fill-190"></path>
                <path d="M56.2621585,13.8528772 C55.3041585,12.0658772 53.3041585,10.3178772 51.0341585,10.9718772 C49.3691585,11.4538772 48.7791585,13.7378772 49.2891585,15.1378772 C49.7111585,16.2898772 51.1421585,17.9238772 52.3651585,16.5718772 C53.0551585,15.8108772 52.6791585,14.3648772 51.5171585,15.1168772 C51.3891585,15.1988772 51.4441585,15.3918772 51.6111585,15.3668772 C52.4791585,15.2298772 52.0721585,17.5088772 50.5091585,16.0558772 C50.0061585,15.5888772 49.7651585,14.7778772 49.8081585,14.1268772 C49.9761585,11.4678772 52.2171585,10.8188772 54.2841585,12.4658772 C57.1551585,14.7558772 56.2951585,19.1218772 54.1131585,21.5298772 C52.4371585,23.3808772 49.8581585,23.3488772 47.7881585,22.1568772 C45.5881585,20.8898772 44.4051585,18.4918772 44.1361585,16.1418772 C44.1311585,16.1208772 44.0991585,16.1208772 44.0991585,16.1428772 C43.9531585,19.9178772 46.9821585,23.8748772 51.2521585,23.7058772 C55.8321585,23.5298772 58.1111585,17.2978772 56.2621585,13.8528772" id="Fill-191"></path>
                <path d="M40.0771585,10.8508772 C40.1081585,10.7938772 40.1421585,10.7358772 40.1711585,10.6788772 C40.1421585,10.7358772 40.1081585,10.7918772 40.0771585,10.8508772" id="Fill-192"></path>
                <path d="M40.7211585,9.43087723 C40.5801585,9.81887723 40.4141585,10.1938772 40.2331585,10.5558772 C40.4221585,10.1938772 40.6011585,9.82287723 40.7551585,9.44187723 C40.7611585,9.41987723 40.7281585,9.41087723 40.7211585,9.43087723" id="Fill-193"></path>
                <path d="M40.1711585,10.6788772 C40.1921585,10.6378772 40.2131585,10.5968772 40.2331585,10.5558772 C40.2131585,10.5968772 40.1921585,10.6378772 40.1711585,10.6788772" id="Fill-194"></path>
                <path d="M23.3761585,17.4018772 C20.2411585,16.7418772 17.3311585,14.9608772 16.0471585,12.1048772 C14.5541585,8.78287723 16.2631585,5.09887723 18.8571585,2.77487723 C21.4661585,0.436877234 25.3191585,-0.169122766 28.2291585,2.00187723 C30.2711585,3.52287723 30.8741585,6.27287723 30.2371585,8.56287723 C29.5321585,11.0758772 27.1791585,12.4688772 24.5131585,12.3428772 C22.5751585,12.2528772 20.7841585,10.8878772 21.4981585,8.91987723 C21.9111585,7.78487723 23.2071585,7.24587723 24.3341585,7.01287723 C26.5491585,6.55287723 26.8111585,8.55487723 25.6751585,9.86287723 C25.5611585,9.99587723 25.7981585,10.1418772 25.9121585,10.0088772 C26.4221585,9.40887723 27.2501585,8.30287723 26.6391585,7.50187723 C25.9951585,6.65687723 24.7751585,6.58987723 23.7881585,6.90787723 C21.7181585,7.57287723 19.7611585,10.0468772 21.8171585,11.8648772 C23.7001585,13.5288772 26.8301585,13.1228772 28.7631585,11.7378772 C30.6051585,10.4168772 31.2401585,8.04987723 31.0481585,5.96987723 C30.8301585,3.59587723 29.2291585,1.62887723 27.0111585,0.596877234 C23.9021585,-0.851122766 20.4271585,0.534877234 18.0851585,2.62087723 C15.6321585,4.80887723 14.4091585,8.02387723 15.0661585,11.1538772 C15.6681585,14.0188772 18.1291585,16.0368772 20.8251585,17.1748772 C27.3341585,19.9258772 35.1231585,17.6418772 39.0871585,12.3698772 C35.6521585,16.8008772 29.0021585,18.5788772 23.3761585,17.4018772" id="Fill-195"></path>
                <path d="M39.0871585,12.3698772 C39.4571585,11.8928772 39.7891585,11.3888772 40.0771585,10.8508772 C39.7821585,11.3828772 39.4501585,11.8878772 39.0871585,12.3698772" id="Fill-196"></path>
                <path d="M11.7391585,13.5028772 C6.95015854,15.8328772 4.02015854,21.3818772 3.60415854,26.3088772 C3.45515854,28.0918772 3.37315854,30.1408772 4.17715854,31.8028772 C4.92215854,33.3378772 6.57315854,33.0488772 7.61815854,32.0068772 C7.77315854,31.8508772 7.58115854,31.5768772 7.37215854,31.6588772 C5.54215854,32.3758772 4.90815854,31.6218772 4.57315854,29.9288772 C4.29215854,28.4978772 4.34515854,26.9908772 4.45415854,25.5478772 C4.79515854,21.0978772 7.69515854,15.8668772 11.7861585,13.5918772 C11.8371585,13.5618772 11.7911585,13.4768772 11.7391585,13.5028772" id="Fill-197"></path>
            </g>
        </g>
    </g>
</svg>