<?xml version="1.0" encoding="UTF-8"?>
<svg width="49px" height="54px" viewBox="0 0 49 54" version="1.1" xmlns="http://www.w3.org/2000/svg" xmlns:xlink="http://www.w3.org/1999/xlink">
    <title>Group 6</title>
    <g id="Page-1" stroke="none" stroke-width="1" fill="none" fill-rule="evenodd">
        <g id="vectorstock_1327683" transform="translate(-73.000000, -130.000000)" fill="#1B1A19">
            <g id="Group-6" transform="translate(73.198322, 130.008986)">
                <path d="M23.4646776,50.376014 C12.8676776,50.776014 3.0496776,43.219014 1.7586776,33.254014 C0.883677601,26.515014 3.7876776,20.561014 8.0826776,15.466014 C8.1466776,15.416014 8.1976776,15.356014 8.2346776,15.286014 C8.3446776,15.156014 8.4546776,15.022014 8.5666776,14.891014 C8.4546776,14.876014 8.3496776,14.849014 8.2426776,14.826014 C7.4016776,11.937014 13.3006776,9.65601403 15.2666776,9.00601403 C18.6856776,7.87301403 22.5196776,8.27201403 25.6626776,9.89801403 C29.1176776,11.684014 32.7586776,13.852014 35.9826776,10.591014 C36.2996776,10.266014 35.8936776,9.85201403 35.5106776,9.94701403 C35.0896776,9.97601403 34.6686776,10.011014 34.2476776,10.041014 C32.2476776,9.56301403 32.2586776,8.56101403 34.2796776,7.02901403 C35.0436776,6.94401403 36.0936776,7.34901403 36.7946776,7.57101403 C38.4326776,8.08501403 39.5986776,9.14001403 40.3336776,10.600014 C41.3976776,12.714014 41.2876776,15.672014 41.2196776,17.966014 C41.2146776,18.120014 41.4556776,18.114014 41.4906776,17.979014 C42.7756776,12.952014 42.0406776,6.93601403 35.4716776,6.16901403 C31.0926776,5.65901403 31.1586776,10.811014 34.3846776,10.935014 C31.8416776,12.644014 28.5296776,10.403014 26.1056776,9.03001403 C23.3926776,7.49501403 20.4176776,7.06001403 17.3056776,7.43901403 C14.0786776,7.83201403 6.1636776,10.770014 7.1456776,14.952014 C6.7186776,15.454014 6.3016776,15.966014 5.9036776,16.483014 C5.9166776,5.55401403 19.1146776,0.493014033 28.9416776,1.19901403 C33.5376776,1.52801403 38.5086776,2.75601403 41.1436776,6.60601403 C43.7406776,10.403014 42.4186776,14.773014 41.6086776,18.827014 C41.5896776,18.924014 41.7206776,18.985014 41.7886776,18.910014 C41.9476776,18.728014 42.0906776,18.540014 42.2336776,18.347014 C44.8796776,22.547014 46.3056776,27.242014 45.2816776,32.560014 C43.3836776,42.429014 33.9526776,49.981014 23.4646776,50.376014 Z M2.8196776,20.393014 C2.3516776,20.297014 1.8276776,20.214014 1.4576776,19.905014 C1.0896776,19.600014 1.7216776,18.655014 1.8686776,18.388014 C2.4366776,17.356014 3.8596776,17.732014 4.8686776,17.898014 C4.2606776,18.779014 3.6986776,19.681014 3.1946776,20.608014 C3.1116776,20.506014 2.9886776,20.429014 2.8196776,20.393014 Z M44.8176776,15.117014 C45.6646776,14.713014 46.2596776,15.869014 46.2106776,16.539014 C46.1556776,17.279014 45.8076776,18.039014 45.3776776,18.650014 C45.1976776,18.906014 44.9886776,19.147014 44.7216776,19.326014 C44.7216776,19.329014 44.7136776,19.332014 44.7096776,19.334014 C44.6946776,19.312014 44.6806776,19.284014 44.6596776,19.242014 C44.6256776,19.165014 44.5776776,19.102014 44.5296776,19.048014 C44.2426776,18.568014 43.9416776,18.095014 43.6216776,17.628014 C43.6246776,17.597014 43.6266776,17.567014 43.6216776,17.531014 C43.5376776,16.645014 43.9126776,15.545014 44.8176776,15.117014 Z M45.3636776,20.551014 C45.5816776,20.448014 45.7976776,20.304014 46.0056776,20.115014 C47.0186776,19.194014 47.6046776,17.628014 47.5986776,16.324014 C47.5956776,14.972014 46.1926776,13.417014 44.6756776,13.844014 C44.3926776,13.921014 44.1446776,14.054014 43.9116776,14.205014 C44.3316776,11.590014 43.8256776,8.77201403 42.6596776,6.50401403 C40.2906776,1.88401403 34.8396776,0.583014033 29.8746776,0.115014033 C19.1566776,-0.896985967 4.1666776,4.77801403 4.5316776,16.799014 C3.9126776,16.653014 3.2916776,16.525014 2.6476776,16.552014 C1.6586776,16.593014 0.970677601,17.239014 0.468677601,17.982014 C-0.0393223992,18.730014 -0.186322399,19.805014 0.288677601,20.586014 C0.721677601,21.292014 1.8126776,21.472014 2.5726776,21.607014 C2.6066776,21.612014 2.6396776,21.615014 2.6716776,21.615014 C0.822677601,25.364014 -0.100322399,29.482014 0.435677601,33.991014 C1.6376776,44.116014 11.7776776,51.621014 22.2226776,52.044014 C33.7546776,52.514014 43.3206776,45.123014 46.6866776,34.926014 C48.3806776,29.800014 47.5886776,24.924014 45.3636776,20.551014 L45.3636776,20.551014 Z" id="Fill-97"></path>
                <path d="M24.2386776,18.644014 C23.6886776,18.259014 22.9936776,18.379014 22.3736776,18.521014 C20.7116776,18.898014 19.4086776,20.461014 18.1486776,21.448014 C17.7786776,21.739014 18.1896776,22.320014 18.5806776,22.035014 C19.5656776,21.317014 20.4676776,20.510014 21.5136776,19.867014 C21.8046776,19.688014 22.7306776,19.119014 23.1036776,19.365014 C23.6726776,19.738014 23.6986776,20.357014 24.2376776,20.737014 C24.5926776,20.986014 25.0106776,20.821014 25.1336776,20.437014 C25.3636776,19.730014 24.8326776,19.056014 24.2386776,18.644014" id="Fill-98"></path>
                <path d="M36.8386776,21.928014 C35.6106776,21.259014 34.8656776,19.982014 33.6306776,19.281014 C32.5346776,18.661014 30.5896776,18.978014 30.4126776,20.354014 C30.3426776,20.905014 30.8876776,21.486014 31.5046776,21.233014 C31.9756776,21.043014 32.1766776,20.599014 32.6076776,20.430014 C33.0296776,20.264014 33.8346776,20.891014 34.1296776,21.092014 C34.8966776,21.609014 35.5946776,22.291014 36.4816776,22.630014 C36.9746776,22.818014 37.2986776,22.179014 36.8386776,21.928014" id="Fill-99"></path>
                <path d="M22.6726776,21.271014 C21.8996776,21.137014 21.1306776,21.621014 20.9836776,22.356014 C20.8376776,23.081014 21.3566776,23.817014 22.1286776,23.952014 C22.9006776,24.087014 23.6686776,23.603014 23.8176776,22.870014 C23.9656776,22.142014 23.4466776,21.405014 22.6726776,21.271014" id="Fill-100"></path>
                <path d="M32.9406776,22.460014 C32.1336776,22.319014 31.3326776,22.826014 31.1776776,23.592014 C31.0256776,24.349014 31.5686776,25.117014 32.3736776,25.257014 C33.1776776,25.399014 33.9796776,24.892014 34.1336776,24.127014 C34.2866776,23.368014 33.7466776,22.600014 32.9406776,22.460014" id="Fill-101"></path>
                <path d="M27.8476776,34.710014 C27.5386776,32.673014 27.4436776,30.736014 27.8286776,28.670014 C28.1876776,26.737014 28.6826776,24.876014 28.8966776,22.916014 C28.9056776,22.832014 28.7856776,22.811014 28.7606776,22.892014 C27.3926776,27.156014 26.1476776,30.772014 26.6816776,35.292014 C26.7226776,35.635014 27.0046776,35.824014 27.3516776,35.831014 C26.8656776,36.323014 26.2536776,36.503014 25.5106776,36.372014 C25.1786776,36.319014 24.8656776,36.218014 24.5626776,36.096014 C24.3966776,35.798014 24.0056776,35.722014 23.7026776,35.894014 L23.5466776,35.984014 C23.1636776,36.201014 23.2356776,36.673014 23.4966776,36.935014 C24.6076776,38.043014 27.1426776,37.984014 28.2606776,36.848014 C29.2306776,35.859014 28.9706776,34.934014 27.8476776,34.710014" id="Fill-102"></path>
                <path d="M31.4266776,41.968014 C30.1116776,41.718014 28.8356776,41.343014 27.5486776,40.989014 C26.6906776,40.754014 25.6246776,40.135014 24.6716776,40.445014 C23.1966776,40.928014 22.2026776,41.357014 20.5776776,41.184014 C19.4796776,41.065014 18.4036776,40.808014 17.3046776,40.700014 C16.9476776,40.665014 16.8646776,41.112014 17.2016776,41.211014 C21.9876776,42.604014 26.4586776,42.572014 31.4116776,42.224014 C31.5686776,42.215014 31.5776776,41.997014 31.4266776,41.968014" id="Fill-103"></path>
                <path d="M29.2296776,44.184014 C27.4216776,45.022014 25.6416776,44.953014 23.7776776,44.369014 C21.9916776,43.810014 20.1316776,44.265014 18.4846776,43.185014 C18.3356776,43.086014 18.1006776,43.246014 18.2306776,43.401014 C20.6746776,46.282014 26.1906776,45.953014 29.2526776,44.228014 C29.2766776,44.213014 29.2566776,44.172014 29.2296776,44.184014" id="Fill-104"></path>
            </g>
        </g>
    </g>
</svg>