<?xml version="1.0" encoding="UTF-8"?>
<svg width="51px" height="51px" viewBox="0 0 51 51" version="1.1" xmlns="http://www.w3.org/2000/svg" xmlns:xlink="http://www.w3.org/1999/xlink">
    <title>Group 67</title>
    <g id="Page-1" stroke="none" stroke-width="1" fill="none" fill-rule="evenodd">
        <g id="vectorstock_1327683" transform="translate(-441.000000, -134.000000)" fill="#0A0B09">
            <g id="Group-67" transform="translate(441.331241, 134.215140)">
                <path d="M5.52975941,18.4718599 C3.93675941,18.4718599 3.47775941,20.3868599 4.53175941,21.3348599 C4.60675941,21.4088599 4.68175941,21.4818599 4.76775941,21.5358599 C4.78075941,21.5488599 4.79775941,21.5578599 4.81275941,21.5658599 C4.80875941,21.5628599 4.80575941,21.5588599 4.80075941,21.5548599 C5.01375941,21.6808599 5.24875941,21.7518599 5.48875941,21.7588599 C5.47875941,21.7938599 5.46275941,21.8248599 5.45375941,21.8578599 C4.54375941,22.3018599 3.56375941,22.6708599 2.57475941,22.4578599 C0.895759412,22.0948599 1.32475941,20.1498599 1.84875941,19.0158599 C2.38775941,17.8408599 3.43575941,16.9338599 4.75575941,16.8048599 C6.04275941,16.6798599 6.56575941,17.7388599 6.57075941,18.8438599 C6.31075941,18.6168599 5.96275941,18.4718599 5.52975941,18.4718599 Z M29.5167594,10.9838599 C28.9227594,11.0888599 28.9367594,12.0468599 29.5167594,12.1648599 L29.6497594,12.1908599 C29.2847594,17.9958599 28.6347594,23.8048599 30.1947594,29.4048599 C27.2407594,27.8328599 23.1887594,28.0018599 20.4677594,29.8328599 C20.2917594,29.9538599 20.3317594,30.3128599 20.5887594,30.2788599 C24.2997594,29.8128599 28.3457594,28.6558599 31.1427594,31.9888599 C31.6057594,32.5388599 32.6757594,31.9488599 32.3897594,31.2638599 C29.8677594,25.2768599 30.0447594,18.5838599 29.7077594,12.2018599 C34.3517594,13.1278599 38.7217594,13.4628599 42.5267594,16.6308599 C45.8457594,19.3948599 47.2257594,23.6918599 47.3067594,27.8748599 C47.4487594,35.1708599 43.0067594,41.6878599 36.7497594,44.8568599 C37.2177594,44.2038599 37.5637594,43.4738599 37.7167594,42.6678599 C37.9607594,41.4138599 37.5887594,40.0778599 36.3887594,39.4748599 C34.6257594,38.5938599 32.3357594,39.6608599 30.7647594,40.4598599 C30.6547594,40.5148599 30.7307594,40.6928599 30.8457594,40.6558599 C32.2927594,40.1788599 34.2567594,39.5478599 35.7217594,40.3058599 C36.6697594,40.7928599 36.4717594,41.9348599 36.0777594,42.7258599 C35.5047594,43.8708599 34.5077594,44.7808599 33.4167594,45.4158599 C32.7317594,45.8178599 31.9747594,46.0548599 31.2037594,46.2268599 C30.3867594,46.4088599 29.5797594,46.3268599 28.9557594,46.8908599 C18.1067594,47.3938599 6.97475941,39.8098599 6.69775941,28.4388599 C6.42175941,16.9868599 16.1817594,7.81585993 26.6597594,5.42385993 C27.1677594,5.30985993 26.9477594,4.56185993 26.4497594,4.65385993 C22.2317594,5.43185993 18.2597594,7.12185993 14.8667594,9.52285993 C15.2747594,9.09485993 15.6707594,8.65585993 16.0987594,8.24085993 C20.2177594,4.23785993 24.8227594,2.72685993 30.0777594,0.903859927 C30.5477594,0.741859927 30.4397594,0.116859927 29.9647594,0.0678599267 C21.3717594,-0.817140073 14.5267594,7.11985993 9.77275941,14.2038599 C8.77475941,15.3958599 7.88975941,16.6768599 7.13475941,18.0358599 C7.17175941,17.6638599 7.12275941,17.2898599 6.91575941,16.8878599 C6.59375941,16.2658599 5.88675941,15.9348599 5.22775941,15.8308599 C3.40275941,15.5378599 1.49475941,16.7398599 0.690759412,18.3378599 C-0.204240588,20.1148599 -0.502240588,22.4668599 1.49675941,23.5968599 C2.55475941,24.1938599 3.80875941,24.1418599 4.91775941,23.7098599 C4.47075941,25.5308599 4.21375941,27.4368599 4.23075941,29.4288599 C4.34875941,42.8628599 18.5927594,50.1478599 30.5897594,48.9758599 C41.1027594,47.9498599 48.7027594,38.9938599 49.3877594,28.7258599 C50.1057594,17.9748599 40.1607594,9.07385993 29.5167594,10.9838599 L29.5167594,10.9838599 Z" id="Fill-468"></path>
                <path d="M40.7607594,33.1028599 C36.5427594,33.3268599 32.2857594,34.5448599 28.0747594,35.0638599 C24.2447594,35.5368599 20.3687594,35.7218599 16.5747594,36.4458599 C16.4257594,36.4748599 16.4637594,36.7088599 16.6097594,36.7068599 C23.9037594,36.6358599 34.3457594,37.3618599 40.9357594,33.7478599 C41.2317594,33.5868599 41.1067594,33.0848599 40.7607594,33.1028599" id="Fill-469"></path>
                <path d="M32.8067594,14.3968599 C30.9497594,14.3968599 30.9497594,17.2728599 32.8067594,17.2728599 C34.6617594,17.2728599 34.6617594,14.3968599 32.8067594,14.3968599" id="Fill-470"></path>
                <path d="M38.5937594,7.77985993 C36.8877594,7.14085993 34.7527594,7.73285993 33.0247594,8.05185993 C31.9817594,8.24085993 29.3177594,8.31085993 28.9067594,9.52785993 C28.8837594,9.59585993 28.9067594,9.68885993 28.9607594,9.73685993 C29.7697594,10.4278599 31.3977594,9.69385993 32.3127594,9.53485993 C34.3177594,9.18685993 36.6927594,9.32385993 38.5937594,8.54885993 C38.9637594,8.39985993 38.9817594,7.92485993 38.5937594,7.77985993" id="Fill-471"></path>
                <path d="M24.3667594,9.27585993 C23.3067594,9.02785993 22.2437594,9.60585993 21.2477594,9.95985993 C19.9877594,10.4078599 18.7197594,10.8708599 17.5987594,11.6048599 C17.3187594,11.7868599 17.4967594,12.2148599 17.8257594,12.1408599 C19.0897594,11.8528599 20.2827594,11.3448599 21.5177594,10.9398599 C22.5227594,10.6088599 23.7117594,10.5328599 24.5077594,9.81085993 C24.6837594,9.65185993 24.5977594,9.32885993 24.3667594,9.27585993" id="Fill-472"></path>
                <path d="M20.3047594,12.9068599 C18.7257594,12.9068599 18.7257594,15.3558599 20.3047594,15.3558599 C21.8837594,15.3558599 21.8837594,12.9068599 20.3047594,12.9068599" id="Fill-473"></path>
            </g>
        </g>
    </g>
</svg>