<?xml version="1.0" encoding="UTF-8"?>
<svg width="55px" height="52px" viewBox="0 0 55 52" version="1.1" xmlns="http://www.w3.org/2000/svg" xmlns:xlink="http://www.w3.org/1999/xlink">
    <title>Group 27</title>
    <g id="Page-1" stroke="none" stroke-width="1" fill="none" fill-rule="evenodd">
        <g id="vectorstock_1327683" transform="translate(-70.000000, -475.000000)" fill="#1B1A19">
            <g id="Group-27" transform="translate(70.467748, 475.757567)">
                <path d="M34.2642518,24.2524328 C33.9772518,24.3494328 33.9392518,24.7924328 34.2642518,24.8704328 C35.8532518,25.2544328 37.1282518,25.3724328 37.6372518,27.1794328 C38.0882518,28.7724328 37.4602518,30.6694328 36.7902518,32.1064328 C35.2262518,35.4624328 32.9782518,36.6914328 29.4132518,36.2534328 C25.4382518,35.7664328 21.5302518,35.0014328 17.5982518,34.2514328 C13.8302518,33.5344328 9.54725185,32.3134328 5.68525185,32.7554328 C5.63225185,32.7624328 5.61325185,32.8394328 5.67325185,32.8554328 C8.13725185,33.5244328 10.7442518,33.7634328 13.2502518,34.2664328 C16.2362518,34.8694328 19.1962518,35.5924328 22.1782518,36.2064328 C24.3952518,36.6624328 26.6042518,36.9554328 28.8402518,37.2884328 C30.3552518,37.5154328 31.8592518,37.6764328 33.3552518,37.2614328 C36.4082518,36.4124328 38.5342518,32.3724328 38.8482518,29.4364328 C39.1382518,26.7324328 37.6272518,23.1304328 34.2642518,24.2524328" id="Fill-31"></path>
                <path d="M18.0972518,36.8644328 C17.2322518,37.2974328 16.7952518,37.9754328 15.7722518,38.2284328 C14.5632518,38.5254328 13.2272518,38.2694328 12.0452518,37.9964328 C9.84225185,37.4914328 7.56625185,36.4124328 5.70225185,35.1334328 C5.67125185,35.1114328 5.63625185,35.1604328 5.66125185,35.1874328 C7.70425185,37.2654328 10.3802518,38.5314328 13.2252518,39.0974328 C14.7392518,39.3984328 18.4882518,39.4044328 18.5542518,37.1254328 C18.5612518,36.8834328 18.2942518,36.7654328 18.0972518,36.8644328" id="Fill-32"></path>
                <path d="M42.0002518,14.0314328 C39.7842518,11.8794328 36.6152518,10.2074328 33.8792518,8.83243277 C31.7662518,7.77043277 28.5872518,6.57043277 26.5552518,8.39143277 C26.4712518,8.46743277 26.5852518,8.61943277 26.6782518,8.55043277 C29.1762518,6.65543277 32.9232518,9.07943277 35.1532518,10.3984328 C37.2862518,11.6584328 39.3602518,13.7304328 41.7372518,14.4824328 C41.9972518,14.5644328 42.1902518,14.2154328 42.0002518,14.0314328" id="Fill-33"></path>
                <path d="M2.86425185,15.1414328 C2.61825185,12.7994328 3.89925185,10.6624328 6.06825185,9.75143277 C7.59125185,9.11243277 9.42225185,9.22443277 11.1302518,9.55443277 C9.88625185,10.7794328 8.72525185,12.0784328 7.66325185,13.4284328 C7.42325185,13.7354328 7.18625185,14.0564328 6.95125185,14.3764328 C6.87425185,14.3974328 6.79525185,14.4124328 6.71825185,14.4354328 C6.67225185,14.4494328 6.67025185,14.5204328 6.71825185,14.5334328 C6.75225185,14.5404328 6.78425185,14.5454328 6.81725185,14.5544328 C5.86525185,15.8644328 4.95025185,17.2904328 4.11925185,18.8004328 C3.40925185,17.7074328 2.99525185,16.3764328 2.86425185,15.1414328 Z M12.6962518,14.4574328 C12.4972518,14.6784328 12.3002518,14.8994328 12.1092518,15.1184328 C10.8042518,16.6154328 9.53825185,18.2654328 8.42225185,20.0224328 C7.54825185,20.8664328 6.50325185,21.1284328 5.24925185,20.0994328 C5.10825185,19.9834328 4.97925185,19.8544328 4.85225185,19.7244328 C5.78425185,17.9374328 6.83525185,16.2514328 7.92325185,14.7164328 C7.95625185,14.7184328 7.98925185,14.7174328 8.02125185,14.7194328 C7.82425185,14.8994328 7.66725185,15.1304328 7.57825185,15.4034328 C7.45825185,15.7704328 7.53325185,16.2024328 7.72625185,16.5314328 C8.20325185,17.3464328 9.35825185,17.4954328 10.0262518,16.8284328 C10.6402518,16.2124328 10.5562518,15.1954328 9.90625185,14.6624328 C10.0982518,14.6464328 10.2912518,14.6294328 10.4842518,14.6124328 C11.1192518,14.5564328 12.0202518,14.6664328 12.6962518,14.4574328 Z M40.7592518,7.08543277 C37.7242518,5.30043277 34.3342518,3.84343277 30.9142518,3.00143277 C30.5182518,2.90343277 30.2372518,3.49143277 30.6272518,3.67843277 C38.0862518,7.29443277 46.2942518,10.9084328 49.9532518,18.9124328 C53.7722518,27.2654328 48.5122518,36.1964328 41.8552518,41.1614328 C35.3142518,46.0364328 26.6522518,48.7374328 18.5052518,48.3954328 C12.5712518,48.1464328 6.23825185,45.8494328 3.18425185,40.4584328 C-0.246748154,34.4024328 1.26925185,27.0094328 4.36725185,20.6784328 C4.75625185,21.0394328 5.18325185,21.3494328 5.64725185,21.5824328 C6.26525185,21.8924328 6.83825185,21.9484328 7.35425185,21.8284328 C6.15225185,24.0264328 5.22325185,26.3544328 4.78025185,28.7394328 C4.71125185,29.1094328 4.93225185,29.3674328 5.29325185,29.4114328 C12.1232518,30.2824328 19.2152518,31.2534328 26.1032518,31.2324328 C26.5342518,31.2304328 26.6412518,30.5674328 26.2062518,30.4684328 C19.6292518,28.9944328 12.6352518,29.0554328 5.92125185,28.4094328 C6.47825185,25.5864328 7.70325185,22.8824328 9.22525185,20.3794328 C9.26625185,20.3174328 9.30425185,20.2534328 9.34225185,20.1894328 C10.2442518,18.7274328 11.2422518,17.3334328 12.2692518,16.0284328 C14.0872518,13.7154328 16.3582518,11.2644328 19.0052518,9.62043277 C19.3622518,9.68943277 19.7212518,9.75943277 20.0762518,9.83443277 C21.0022518,10.0284328 21.9092518,10.3224328 22.8122518,10.6214328 C20.6562518,11.6534328 19.0732518,13.7744328 18.7262518,16.4514328 C18.1062518,21.2194328 21.7992518,25.4814328 26.6902518,25.2704328 C30.5112518,25.1054328 33.5742518,21.4424328 34.0392518,17.8254328 C34.2092518,16.5024328 34.0392518,15.2814328 33.5942518,14.2294328 C37.6132518,14.2424328 41.8832518,15.6624328 45.3992518,17.4344328 C47.7372518,18.6124328 49.9462518,20.3554328 50.2682518,23.1354328 C50.4272518,24.4994328 49.6552518,25.6844328 48.5152518,26.3394328 C46.9082518,27.2624328 45.1862518,26.2494328 43.8202518,25.4334328 C43.4772518,25.2284328 43.0952518,25.7114328 43.3912518,25.9894328 C45.2552518,27.7414328 48.0802518,28.0704328 49.9942518,26.2394328 C51.9582518,24.3604328 50.9262518,21.1974328 49.4332518,19.4214328 C47.5832518,17.2224328 44.4772518,16.0704328 41.8292518,15.2204328 C39.1782518,14.3694328 36.3302518,13.8244328 33.5432518,14.1224328 C32.5442518,11.8854328 30.2872518,10.4484328 27.4122518,10.5144328 C27.0802518,10.5234328 26.9862518,11.0414328 27.3302518,11.1124328 C30.6752518,11.7824328 33.2132518,13.5384328 32.9502518,17.2404328 C32.7312518,20.3134328 30.4652518,23.2684328 27.4672518,24.0364328 C23.3892518,25.0824328 19.7862518,21.4114328 19.5512518,17.5534328 C19.3642518,14.5084328 21.0452518,11.9514328 23.5042518,10.8494328 C24.3452518,11.1234328 25.1902518,11.3804328 26.0502518,11.5374328 C26.2692518,11.5784328 26.4112518,11.2914328 26.2052518,11.1674328 C25.7312518,10.8844328 25.2142518,10.6524328 24.6752518,10.4514328 C25.6052518,10.2294328 26.6102518,10.2014328 27.6432518,10.4094328 C27.7912518,10.4394328 27.8542518,10.2204328 27.7062518,10.1814328 C26.3892518,9.84243277 25.1072518,9.87343277 23.9392518,10.2004328 C22.7082518,9.81843277 21.4052518,9.57243277 20.2192518,9.31743277 C20.0462518,9.27943277 19.8722518,9.24643277 19.6982518,9.21443277 C20.9782518,8.50743277 22.3402518,7.99743277 23.7782518,7.79143277 C23.9102518,7.77343277 23.8802518,7.54643277 23.7472518,7.56043277 C22.0872518,7.73543277 20.5302518,8.30143277 19.0742518,9.10543277 C17.3282518,8.82443277 15.5812518,8.75843277 13.8012518,8.93643277 C13.7382518,8.94343277 13.7332518,9.03643277 13.8012518,9.03743277 C15.3382518,9.04743277 16.8692518,9.23943277 18.3842518,9.50743277 C16.4922518,10.6734328 14.7892518,12.2244328 13.2852518,13.8224328 C13.2702518,13.7934328 13.2552518,13.7654328 13.2302518,13.7444328 C12.5722518,13.2004328 11.5562518,13.5784328 10.7692518,13.6914328 C9.98125185,13.8014328 9.18725185,13.9104328 8.40325185,14.0534328 C8.68525185,13.6694328 8.96725185,13.2924328 9.25225185,12.9324328 C10.1212518,11.8294328 11.0592518,10.7654328 12.0552518,9.75343277 C12.4752518,9.85343277 12.8822518,9.95943277 13.2682518,10.0664328 C13.3112518,10.0784328 13.3252518,10.0164328 13.2862518,10.0004328 C12.9362518,9.85543277 12.5812518,9.71643277 12.2212518,9.58843277 C19.0302518,2.75943277 28.5612518,-1.60256723 38.2572518,1.06843277 C38.3412518,1.09143277 38.3772518,0.962432773 38.2932518,0.937432773 C28.3362518,-2.03056723 18.5072518,2.39843277 11.3742518,9.31143277 C9.09925185,8.62643277 6.71025185,8.45543277 4.54525185,9.70943277 C2.30625185,11.0074328 1.63625185,13.6644328 1.99325185,16.0464328 C2.18625185,17.3334328 2.74325185,18.7004328 3.58425185,19.8054328 C-0.177748154,27.1234328 -1.88574815,36.1054328 3.03625185,42.8964328 C6.47225185,47.6384328 12.4592518,49.5794328 18.0632518,50.0864328 C25.9172518,50.7974328 34.1292518,48.2814328 40.7652518,44.1784328 C47.4212518,40.0644328 52.5192518,33.6144328 53.0282518,25.6104328 C53.5592518,17.2704328 47.4422518,11.0164328 40.7592518,7.08543277 L40.7592518,7.08543277 Z" id="Fill-34"></path>
                <path d="M48.1372518,20.0644328 C47.2612518,19.8804328 46.3452518,20.4104328 45.6512518,20.8824328 C45.4722518,21.0034328 45.6312518,21.2844328 45.8212518,21.1734328 C46.4412518,20.8134328 47.6422518,20.1454328 48.3342518,20.7284328 C48.8042518,21.1254328 48.7192518,21.8794328 48.5482518,22.4134328 C48.3342518,23.0834328 47.8262518,23.6894328 47.2062518,23.8954328 C46.2802518,24.2014328 45.4002518,23.5634328 44.6712518,22.9424328 C44.4252518,22.7334328 44.1952518,22.5004328 43.9752518,22.2644328 C43.5542518,21.8114328 42.9252518,22.4704328 43.3082518,22.9324328 C44.1142518,23.9044328 45.1892518,24.7814328 46.5062518,24.8394328 C47.3942518,24.8784328 48.1692518,24.3944328 48.6832518,23.7014328 C49.4212518,22.7084328 49.7752518,20.4084328 48.1372518,20.0644328" id="Fill-35"></path>
                <path d="M30.4092518,18.7124328 C29.0922518,16.1344328 25.4652518,14.6184328 22.6832518,15.2034328 C22.6052518,15.2204328 22.6282518,15.3324328 22.7002518,15.3364328 C23.5452518,15.3824328 24.4572518,15.5534328 25.3452518,15.8434328 C24.2902518,15.9224328 23.4332518,16.8144328 23.4332518,17.8864328 C23.4332518,19.0084328 24.3702518,19.9454328 25.4922518,19.9454328 C26.6142518,19.9454328 27.5512518,19.0084328 27.5512518,17.8864328 C27.5512518,17.4004328 27.3672518,16.9544328 27.0772518,16.6004328 C28.1792518,17.2224328 29.1182518,18.0724328 29.6512518,19.1554328 C29.9012518,19.6614328 30.6662518,19.2164328 30.4092518,18.7124328" id="Fill-36"></path>
            </g>
        </g>
    </g>
</svg>