<?xml version="1.0" encoding="UTF-8"?>
<svg width="50px" height="47px" viewBox="0 0 50 47" version="1.1" xmlns="http://www.w3.org/2000/svg" xmlns:xlink="http://www.w3.org/1999/xlink">
    <title>Group 36</title>
    <g id="Page-1" stroke="none" stroke-width="1" fill="none" fill-rule="evenodd">
        <g id="vectorstock_1327683" transform="translate(-500.000000, -424.000000)" fill="#0A0B09">
            <g id="Group-36" transform="translate(500.119111, 423.999857)">
                <path d="M42.5188888,28.304143 C32.6348888,30.624143 22.4498888,31.124143 12.4418888,32.707143 C12.3188888,32.726143 12.3478888,32.929143 12.4718888,32.921143 C22.6598888,32.278143 32.8928888,31.883143 42.8888888,29.651143 C43.7668888,29.453143 43.3958888,28.098143 42.5188888,28.304143" id="Fill-528"></path>
                <path d="M17.6598888,16.535143 C17.6188888,16.535143 17.6188888,16.598143 17.6598888,16.598143 C17.7008888,16.598143 17.7008888,16.535143 17.6598888,16.535143" id="Fill-529"></path>
                <path d="M30.7918888,14.347143 C32.2478888,13.713143 34.1478888,14.136143 35.8458888,14.663143 C38.1758888,16.218143 40.7688888,17.823143 41.0978888,20.866143 C41.5768888,25.259143 35.9278888,26.936143 32.6588888,26.104143 C28.0788888,24.941143 27.3168888,19.638143 29.1118888,16.015143 C29.3068888,15.619143 29.5408888,15.299143 29.7998888,15.038143 C30.0718888,14.985143 30.3468888,14.931143 30.6128888,14.874143 C30.8868888,14.813143 30.9158888,14.530143 30.7918888,14.347143 Z M13.4418888,39.500143 C5.93188885,34.116143 4.65488885,23.509143 7.24388885,15.248143 C7.77288885,15.424143 8.28688885,15.603143 8.75488885,15.802143 C10.2308888,16.439143 11.6418888,16.900143 13.2118888,17.004143 C11.9418888,17.721143 10.7988888,18.677143 9.86988885,19.891143 C7.19588885,23.387143 9.21988885,27.136143 12.5108888,29.189143 C16.2948888,31.551143 21.7618888,31.150143 24.5848888,27.469143 C27.3188888,23.900143 26.6138888,19.242143 22.6968888,16.895143 C22.5548888,16.810143 22.4138888,17.003143 22.5228888,17.121143 C25.4608888,20.215143 26.6138888,23.903143 23.4628888,27.340143 C20.4348888,30.645143 15.8848888,29.884143 12.4448888,27.820143 C8.91988885,25.701143 9.05788885,21.966143 11.6568888,19.212143 C14.0458888,16.683143 17.6428888,15.552143 21.0458888,15.728143 C21.1168888,15.731143 21.1328888,15.613143 21.0628888,15.603143 C18.6198888,15.263143 16.1478888,15.603143 13.9838888,16.609143 C13.9568888,16.589143 13.9288888,16.572143 13.8908888,16.562143 C11.8598888,16.160143 10.0228888,15.186143 8.18388885,14.265143 C8.01988885,14.183143 7.84688885,14.097143 7.67188885,14.007143 C8.79788885,11.024143 10.4898888,8.46514301 12.5988888,6.41114301 C12.3728888,7.04414301 12.2728888,7.75314301 12.3228888,8.53514301 C12.5028888,11.226143 14.6768888,12.851143 17.1538888,13.244143 C19.7988888,13.661143 22.7628888,12.854143 24.6898888,10.973143 C26.3398888,9.35814301 26.5558888,6.43414301 24.5578888,5.02814301 C22.6278888,3.66914301 19.9458888,3.45114301 17.8188888,4.44714301 C15.9978888,5.29814301 15.4458888,7.76314301 16.8268888,9.22814301 C17.9498888,10.418143 20.4678888,10.311143 21.6718888,9.32614301 C23.1758888,8.10014301 21.3928888,6.09114301 19.8408888,6.59014301 C19.6618888,6.64814301 19.5788888,6.84414301 19.6708888,7.01114301 C20.0698888,7.74714301 21.2808888,7.97214301 20.0328888,8.38614301 C18.9148888,8.75114301 17.5088888,8.46114301 17.4788888,7.09114301 C17.4098888,4.07114301 24.2908888,4.79614301 24.6578888,7.54314301 C25.1708888,11.378143 19.2898888,12.357143 16.6518888,11.943143 C13.0118888,11.376143 12.2778888,7.27514301 14.2128888,4.99314301 C14.7688888,4.56114301 15.3458888,4.15714301 15.9438888,3.78514301 C16.1418888,3.71114301 16.3438888,3.63714301 16.5638888,3.58814301 C16.6648888,3.56714301 16.6578888,3.45314301 16.5958888,3.39914301 C18.3188888,2.41814301 20.1908888,1.68214301 22.1718888,1.23814301 C27.9528888,3.63714301 33.8018888,5.88314301 38.6668888,9.90314301 C38.4688888,10.287143 38.2738888,10.665143 38.0568888,11.022143 C37.4348888,12.043143 36.8138888,13.062143 36.0788888,14.001143 C35.7498888,13.872143 35.4188888,13.755143 35.0878888,13.661143 C34.8518888,13.593143 34.7458888,13.907143 34.9288888,14.039143 C35.0718888,14.140143 35.2168888,14.237143 35.3618888,14.339143 C33.6388888,13.814143 31.9628888,13.546143 30.5348888,14.190143 C30.5288888,14.190143 30.5268888,14.187143 30.5218888,14.187143 C27.1928888,13.992143 23.6378888,14.936143 20.3518888,15.377143 C20.2748888,15.390143 20.3028888,15.494143 20.3678888,15.506143 C23.2168888,15.809143 26.3308888,15.656143 29.2218888,15.148143 C28.9038888,15.482143 28.6058888,15.884143 28.3318888,16.379143 C26.3138888,20.028143 27.8218888,24.950143 31.7478888,26.594143 C35.2068888,28.042143 40.3188888,26.901143 41.6828888,23.000143 C43.0998888,18.949143 39.8758888,15.551143 36.2698888,14.078143 C37.3638888,13.035143 38.4988888,11.799143 39.3098888,10.452143 C44.8588888,15.328143 47.5358888,22.801143 45.3648888,29.977143 C41.3718888,43.170143 23.9048888,47.001143 13.4418888,39.500143 Z M4.71488885,19.655143 C4.61788885,19.681143 4.53188885,19.733143 4.45688885,19.805143 C4.31088885,19.954143 4.23288885,20.157143 4.05688885,20.279143 C3.81388885,20.453143 3.53588885,20.440143 3.26588885,20.366143 C2.43888885,20.140143 1.75988885,19.263143 1.44788885,18.508143 C0.996888845,17.419143 1.27188885,16.348143 2.09188885,15.525143 C2.66888885,14.943143 3.68888885,14.196143 4.46688885,14.870143 C5.23888885,15.539143 5.00088885,16.847143 4.69488885,17.669143 C4.64888885,17.789143 4.83188885,17.852143 4.89688885,17.751143 C5.50488885,16.802143 5.73688885,15.428143 5.24688885,14.524143 C5.51988885,14.640143 5.79688885,14.747143 6.07888885,14.847143 C5.48788885,16.392143 5.02888885,18.003143 4.73588885,19.655143 C4.72988885,19.655143 4.72488885,19.655143 4.71488885,19.655143 Z M42.9038888,6.61514301 C44.2418888,5.40514301 46.0838888,6.57514301 46.1868888,8.16914301 C46.2658888,9.38014301 45.6568888,10.650143 44.8668888,11.536143 C44.4818888,11.965143 44.1758888,12.161143 43.8748888,12.135143 C43.1798888,11.222143 42.4038888,10.353143 41.5598888,9.53114301 C41.5888888,8.44214301 42.0958888,7.34714301 42.9038888,6.61514301 Z M44.7268888,13.344143 C44.9948888,13.230143 45.2528888,13.083143 45.4798888,12.894143 C46.9628888,11.690143 47.7648888,9.46114301 47.4408888,7.60314301 C47.0598888,5.40014301 44.4778888,4.35914301 42.6328888,5.51514301 C41.4908888,6.22814301 40.8818888,7.53714301 40.8408888,8.85814301 C40.6428888,8.68314301 40.4408888,8.51214301 40.2388888,8.34014301 C40.2438888,8.32614301 40.2508888,8.30814301 40.2568888,8.29114301 C40.3168888,8.05914301 40.0178888,7.83514301 39.8338888,8.00714301 C39.6338888,7.84414301 39.4308888,7.68014301 39.2208888,7.52414301 C35.0828888,4.42414301 30.3598888,2.13914301 25.3798888,0.781143013 C26.7608888,0.690143013 28.1768888,0.724143013 29.6188888,0.901143013 C29.7608888,0.919143013 29.7928888,0.672143013 29.6528888,0.653143013 C27.8188888,0.382143013 26.0248888,0.334143013 24.2928888,0.488143013 C23.5658888,0.311143013 22.8328888,0.150143013 22.0968888,0.0131430133 C21.4848888,-0.100856987 21.2348888,0.554143013 21.5708888,0.919143013 C15.4088888,2.29414301 10.2418888,6.37714301 7.11988885,12.468143 C6.94388885,12.812143 6.79088885,13.173143 6.62988885,13.526143 C5.63688885,13.112143 4.57688885,12.846143 3.61388885,13.195143 C3.47488885,13.246143 3.37288885,13.454143 3.51588885,13.566143 C3.53388885,13.581143 3.55488885,13.593143 3.57388885,13.607143 C3.56988885,13.607143 3.56888885,13.605143 3.56388885,13.605143 C2.54188885,13.581143 1.50388885,14.469143 0.874888845,15.188143 C0.300888845,15.846143 0.0238888454,16.683143 0.000888845425,17.549143 C-0.0341111546,19.097143 0.968888845,20.618143 2.23888885,21.429143 C2.93988885,21.877143 3.79888885,21.951143 4.45988885,21.634143 C3.87688885,27.430143 5.19388885,33.434143 8.77288885,38.023143 C16.3768888,47.780143 30.7768888,48.355143 40.3028888,41.109143 C49.6378888,34.011143 50.5418888,22.124143 44.7268888,13.344143 L44.7268888,13.344143 Z" id="Fill-530"></path>
                <path d="M31.8738888,15.208143 C31.0088888,15.208143 30.2868888,15.929143 30.2868888,16.794143 C30.2868888,17.657143 31.0088888,18.380143 31.8738888,18.380143 C32.7378888,18.380143 33.4618888,17.657143 33.4618888,16.794143 C33.4618888,15.929143 32.7378888,15.208143 31.8738888,15.208143" id="Fill-531"></path>
                <path d="M18.7888888,16.912143 C17.9938888,16.912143 17.3298888,17.576143 17.3298888,18.372143 C17.3298888,19.169143 17.9938888,19.833143 18.7888888,19.833143 C19.5858888,19.833143 20.2488888,19.169143 20.2488888,18.372143 C20.2488888,17.576143 19.5858888,16.912143 18.7888888,16.912143" id="Fill-532"></path>
                <path d="M28.1118888,26.116143 C27.1098888,26.321143 26.2288888,27.034143 25.9838888,28.042143 C25.9098888,28.338143 26.3188888,28.641143 26.5418888,28.367143 C26.9648888,27.828143 27.4238888,27.353143 28.1048888,27.179143 C28.7298888,27.017143 29.0438888,27.419143 29.5458888,27.662143 C29.8208888,27.796143 30.2648888,27.642143 30.2268888,27.270143 C30.1248888,26.274143 28.9898888,25.940143 28.1118888,26.116143" id="Fill-533"></path>
                <path d="M31.7348888,33.633143 C28.9298888,33.021143 25.9138888,33.470143 23.0738888,33.586143 C22.9108888,33.595143 22.9108888,33.836143 23.0738888,33.843143 C25.9508888,33.926143 28.7848888,34.033143 31.6488888,34.255143 C32.0088888,34.286143 32.0808888,33.710143 31.7348888,33.633143" id="Fill-534"></path>
            </g>
        </g>
    </g>
</svg>