<?xml version="1.0" encoding="UTF-8"?>
<svg width="53px" height="59px" viewBox="0 0 53 59" version="1.1" xmlns="http://www.w3.org/2000/svg" xmlns:xlink="http://www.w3.org/1999/xlink">
    <title>Group 44</title>
    <g id="Page-1" stroke="none" stroke-width="1" fill="none" fill-rule="evenodd">
        <g id="vectorstock_1327683" transform="translate(-379.000000, -352.000000)" fill="#1B1A19">
            <g id="Group-44" transform="translate(379.944758, 352.983613)">
                <path d="M23.8662423,23.444387 C23.0842423,22.778387 21.5882423,23.433387 20.7812423,23.804387 C19.4382423,24.426387 18.4632423,25.528387 17.8572423,26.770387 C17.8462423,26.794387 17.8782423,26.814387 17.8982423,26.795387 C18.7912423,25.866387 20.0032423,25.128387 21.2512423,24.671387 C22.0862423,24.365387 23.2772423,24.393387 23.8912423,23.787387 C23.9932423,23.689387 23.9692423,23.531387 23.8662423,23.444387" id="Fill-236"></path>
                <path d="M35.7782423,18.546387 C34.7432423,18.216387 33.8872423,18.188387 32.8062423,18.498387 C31.6662423,18.826387 30.4912423,19.841387 30.5892423,21.006387 C30.6122423,21.248387 30.9352423,21.342387 31.1282423,21.207387 C31.7692423,20.763387 32.1802423,20.129387 32.7962423,19.646387 C33.6182423,19.001387 34.6742423,18.591387 35.7682423,18.588387 C35.7912423,18.588387 35.7982423,18.554387 35.7782423,18.546387" id="Fill-237"></path>
                <path d="M44.4452423,30.114387 C45.9222423,39.450387 31.8432423,47.260387 23.3462423,42.748387 C23.3232423,42.736387 23.2962423,42.770387 23.3222423,42.783387 C27.0342423,45.129387 30.5472423,51.848387 38.9482423,48.317387 C46.9202423,44.965387 46.3632423,35.708387 44.7272423,30.061387 C44.6792423,29.895387 44.4192423,29.944387 44.4452423,30.114387" id="Fill-238"></path>
                <path d="M36.1232423,35.847387 C35.6942423,36.124387 34.9092423,36.688387 34.4602423,36.169387 C33.1092423,34.602387 32.1882423,32.746387 31.3102423,30.921387 C30.6692423,29.587387 30.1312423,28.211387 29.5832423,26.844387 C29.5722423,26.816387 29.5282423,26.831387 29.5362423,26.856387 C30.6902423,30.517387 31.9122423,34.115387 34.3692423,37.224387 C34.4662423,37.345387 34.6942423,37.380387 34.8332423,37.310387 C35.1462423,37.150387 35.4752423,37.047387 35.8022423,36.939387 C35.5172423,38.022387 34.5632423,39.185387 33.1662423,38.623387 C32.4872423,38.351387 32.0402423,39.337387 32.7242423,39.603387 C35.0222423,40.502387 37.1462423,38.299387 36.8642423,36.215387 C36.8212423,35.906387 36.4502423,35.638387 36.1232423,35.847387" id="Fill-239"></path>
                <path d="M23.0952423,26.923387 C22.5592423,26.677387 21.7692423,26.760387 21.3902423,27.227387 C21.2402423,27.414387 21.1092423,27.604387 20.9972423,27.812387 C20.7172423,28.348387 20.8752423,28.961387 21.2972423,29.382387 C21.5252423,29.608387 21.8042423,29.760387 22.1462423,29.784387 C22.8662423,29.833387 23.7662423,29.277387 23.8132423,28.584387 C23.8202423,28.505387 23.8272423,28.432387 23.8492423,28.356387 C24.0162423,27.799387 23.6292423,27.173387 23.0952423,26.923387" id="Fill-240"></path>
                <path d="M34.8252423,22.091387 C34.6582423,21.752387 34.3492423,21.482387 33.9712423,21.347387 C33.5452423,21.197387 33.1762423,21.256387 32.7622423,21.383387 C32.3992423,21.493387 32.0892423,21.859387 31.9592423,22.174387 C31.8112423,22.533387 31.8232423,22.942387 31.9982423,23.291387 C32.1642423,23.631387 32.4752423,23.902387 32.8512423,24.034387 C33.2782423,24.185387 33.6452423,24.127387 34.0602423,24.000387 C34.4232423,23.889387 34.7322423,23.524387 34.8632423,23.208387 C35.0122423,22.849387 34.9992423,22.440387 34.8252423,22.091387" id="Fill-241"></path>
                <path d="M48.2802423,15.046387 C48.7932423,17.243387 49.2382423,19.489387 49.4362423,21.731387 C49.5112423,22.599387 49.2012423,23.562387 48.8792423,24.361387 C48.6802423,24.854387 48.4552423,25.137387 48.2292423,25.233387 C47.2432423,23.215387 46.1352423,21.222387 45.0082423,19.235387 C44.9932423,19.108387 44.9762423,18.983387 44.9592423,18.854387 C45.1132423,18.797387 45.2332423,18.662387 45.2062423,18.491387 C44.8822423,16.403387 43.6682423,14.715387 43.5952356,12.510387 C43.5942423,11.878387 43.7052423,11.262387 43.9312423,10.659387 C44.6242423,10.378387 45.3202423,10.099387 46.0142423,9.81838699 C46.5022423,10.213387 46.8842423,10.684387 47.1612423,11.231387 C47.8202423,12.344387 47.9912423,13.815387 48.2802423,15.046387 Z M50.8982423,40.886387 C50.4012423,43.781387 49.2122423,46.522387 47.1402423,48.761387 C44.7622423,51.329387 40.7072423,53.278387 37.4452423,54.700387 C33.6132423,56.370387 30.0012423,55.945387 26.0312423,55.095387 C22.2662423,54.286387 18.9622423,52.817387 18.2932423,48.933387 C18.0092423,47.286387 18.1462423,45.553387 17.9422423,43.887387 C17.7472423,42.291387 17.3702423,40.717387 16.9162423,39.168387 C16.4942423,37.733387 15.9442423,36.345387 15.3402423,34.975387 C15.3692423,34.934387 15.3802423,34.884387 15.3572423,34.837387 C15.2212423,34.577387 15.0852423,34.318387 14.9512423,34.059387 C14.9462423,34.050387 14.9342423,34.050387 14.9242423,34.048387 C14.3822423,32.871387 13.8182423,31.703387 13.2632423,30.531387 C13.6152423,30.715387 13.9662423,30.894387 14.3202423,31.066387 C14.3522423,31.083387 14.3842423,31.037387 14.3522423,31.016387 C14.2302423,30.928387 14.1062423,30.835387 13.9812423,30.749387 C14.0232423,30.732387 14.0462423,30.685387 14.0032423,30.645387 C12.4592423,29.263387 11.5492423,27.278387 10.9622423,25.351387 C11.8352423,25.672387 12.7012423,26.009387 13.5842423,26.309387 C13.7912423,26.379387 14.0722423,26.311387 14.1502423,26.099387 C15.6852423,21.868387 18.0192423,18.983387 22.1972423,16.696387 C23.0762423,16.215387 23.9772423,15.769387 24.8732423,15.317387 C25.2522423,15.124387 25.6312423,14.931387 26.0102423,14.735387 C26.2042423,14.634387 26.3972423,14.531387 26.5912423,14.434387 C26.6312423,14.430387 26.6582423,14.419387 26.6942423,14.413387 C26.4742423,14.981387 26.6902423,15.689387 26.9392423,16.209387 C26.9852423,16.304387 27.0942423,16.316387 27.1892423,16.289387 C29.5522423,15.547387 35.2022423,13.434387 35.3382423,10.443387 C36.9202423,12.438387 36.8242423,15.317387 38.2032423,17.454387 C39.8322423,19.976387 42.0522423,21.920387 44.9222423,23.188387 C45.3272423,23.368387 45.6212423,22.948387 45.5242423,22.626387 C45.3032423,21.913387 45.2072423,21.053387 45.1132423,20.164387 C45.7642423,21.435387 46.4192423,22.697387 47.0522423,23.951387 C46.9912423,23.942387 46.9172423,23.981387 46.9282423,24.047387 C47.1002423,25.115387 47.4902423,25.768387 47.9872423,25.857387 C50.2352423,30.585387 51.8422423,35.368387 50.8982423,40.886387 Z M14.4012423,34.773387 C14.0752423,34.703387 13.8102423,34.459387 13.6092423,34.227387 C13.0652423,33.595387 12.7912423,32.748387 12.4632423,32.010387 C12.0132423,30.998387 11.4742423,29.874387 10.4232423,29.323387 C10.4732423,29.268387 10.4932423,29.205387 10.5012423,29.143387 C11.4182423,29.548387 12.3022423,30.027387 13.1912423,30.491387 C13.8322423,31.869387 14.4312423,33.268387 14.9682423,34.688387 C14.9222423,34.805387 14.7762423,34.851387 14.4012423,34.773387 Z M9.34924228,27.642387 C8.18724228,27.037387 6.36224228,26.550387 4.97324228,26.884387 C3.45124228,26.573387 2.68824228,24.911387 1.30424228,24.849387 C3.97424228,21.152387 8.20924228,19.621387 12.7302423,18.268387 C13.0262423,18.181387 12.9802423,17.782387 12.6652423,17.770387 C9.43724228,17.636387 6.79524228,14.591387 8.09524228,11.795387 C11.1002423,17.499387 21.3172423,9.38738699 23.8522423,6.94638699 C27.0932423,3.82738699 32.5782423,-1.39361301 37.7912423,0.893386993 C41.4062423,2.47738699 42.0362423,7.77038699 42.5692423,10.944387 C42.5702423,10.965387 42.5872423,10.969387 42.6022423,10.969387 C41.9942423,12.936387 42.4342423,15.620387 43.4482423,17.421387 C43.7792423,18.936387 44.0112423,20.465387 44.3922423,21.970387 C41.5962423,20.516387 39.2662423,18.218387 38.0532423,15.461387 C37.1372423,13.377387 37.0422423,11.018387 35.1402423,9.42638699 C34.9422423,9.26138699 34.5732423,9.42338699 34.6642423,9.68238699 C35.3802423,11.690387 32.6832423,13.263387 31.1782423,14.135387 C30.4952423,14.531387 29.7752423,14.871387 29.0522423,15.196387 C28.6802423,15.365387 28.2992423,15.517387 27.9192423,15.665387 C27.8102423,15.706387 27.7012423,15.748387 27.5902423,15.787387 C26.6342423,16.212387 26.7092423,15.541387 27.8202423,13.773387 C27.9662423,13.672387 27.7992423,13.429387 27.6372423,13.517387 C24.3152423,15.369387 20.9142423,16.961387 17.9252423,19.274387 C16.8382423,20.115387 15.9542423,21.140387 15.1622423,22.219387 C14.5082423,23.115387 14.0132423,24.098387 13.6042423,25.107387 C13.3682423,25.693387 10.9682423,24.488387 10.5012423,24.328387 C10.1262423,24.200387 9.84624228,24.507387 9.93224228,24.838387 C10.4292423,26.715387 11.1592423,28.403387 12.5462423,29.709387 C11.5212423,28.965387 10.4892423,28.236387 9.34924228,27.642387 Z M43.7392423,9.15838699 C43.2172423,9.58938699 42.8572423,10.190387 42.6272423,10.887387 C41.9792423,5.44838699 40.1992423,-2.10561301 32.4132423,0.548386993 C27.4672423,2.23438699 24.4022423,6.28138699 20.4692423,9.30138699 C17.8822423,11.286387 10.2512423,15.465387 8.52724228,10.791387 C8.43524228,10.545387 7.99924228,10.436387 7.83124228,10.684387 C5.79324228,13.685387 7.93324228,17.562387 11.4732423,18.184387 C9.36924228,18.906387 7.20424228,19.441387 5.18824228,20.380387 C2.88024228,21.454387 1.30324228,23.223387 0.0552422813,25.270387 C-0.173757719,25.646387 0.363242281,25.896387 0.678242281,25.735387 C2.08024228,25.028387 2.91024228,27.163387 4.26024228,27.493387 C4.29224228,27.571387 4.35124228,27.638387 4.43724228,27.666387 C5.20724228,27.929387 5.99324228,27.853387 6.80124228,27.977387 C7.63924228,28.104387 8.47724228,28.396387 9.27124228,28.663387 C9.47624228,28.731387 9.67724228,28.806387 9.87724228,28.883387 C9.71824228,28.991387 9.63624228,29.051387 9.51124228,29.219387 C9.38224228,29.391387 9.39124228,29.669387 9.63624228,29.758387 C11.3102423,30.369387 11.8222423,32.385387 12.5512423,33.743387 C13.0902423,34.745387 13.9102423,35.561387 15.1202423,35.092387 C15.8622423,37.104387 16.4742423,39.156387 16.8792423,41.243387 C17.5562423,44.709387 16.5562423,48.648387 18.2432423,51.880387 C19.5782423,54.429387 22.8992423,55.566387 25.5942423,56.405387 C29.6312423,57.663387 33.4442423,58.416387 37.5132423,56.860387 C40.8502423,55.583387 44.4962423,53.281387 47.0052423,50.888387 C49.2522423,48.748387 50.5492423,46.175387 51.2452423,43.284387 C52.7602423,37.004387 51.1152423,31.282387 48.4852423,25.765387 C48.7972423,25.600387 49.1312423,25.237387 49.4672423,24.643387 C50.0242423,23.664387 50.2332423,22.427387 50.1702423,21.332387 C50.0082423,18.398387 49.3792423,15.469387 48.6492423,12.617387 C48.1812423,10.792387 46.2002423,7.12438699 43.7392423,9.15838699 L43.7392423,9.15838699 Z" id="Fill-242"></path>
                <path d="M46.8902423,14.368387 C46.7262423,14.074387 46.2912423,14.268387 46.2772423,14.546387 C46.2732423,14.671387 46.2042423,14.798387 46.1262423,14.919387 C45.6192423,14.356387 45.2282423,13.781387 45.0082423,13.058387 C44.6532423,11.877387 46.0042423,12.777387 46.3692423,13.237387 C46.3902423,13.262387 46.4292423,13.235387 46.4092423,13.215387 C45.9462423,12.689387 45.6022423,12.328387 44.8432423,12.236387 C44.7942423,12.232387 44.7382423,12.266387 44.7352423,12.313387 C44.6612423,13.542387 45.1472423,14.506387 45.9162423,15.489387 C46.0472423,15.656387 46.2772423,15.657387 46.4042423,15.486387 C46.4102423,15.478387 46.4182423,15.471387 46.4252423,15.463387 C46.3662423,16.212387 45.9252423,16.891387 46.1062423,17.669387 C46.1822423,17.995387 46.6302423,17.925387 46.7772423,17.710387 C47.4092423,16.807387 47.4132423,15.311387 46.8902423,14.368387" id="Fill-243"></path>
            </g>
        </g>
    </g>
</svg>