<?xml version="1.0" encoding="UTF-8"?>
<svg width="59px" height="47px" viewBox="0 0 59 47" version="1.1" xmlns="http://www.w3.org/2000/svg" xmlns:xlink="http://www.w3.org/1999/xlink">
    <title>Group 55</title>
    <g id="Page-1" stroke="none" stroke-width="1" fill="none" fill-rule="evenodd">
        <g id="vectorstock_1327683" transform="translate(-439.000000, -250.000000)" fill="#0A0B09">
            <g id="Group-55" transform="translate(439.062593, 250.843857)">
                <path d="M31.7214069,5.6071427 C31.1474069,4.1301427 30.8764069,2.3021427 29.8454069,1.0761427 C29.7294069,0.939142697 29.5354069,1.0351427 29.4824069,1.1731427 C28.8314069,2.8341427 29.5264069,5.1411427 29.9314069,6.8131427 C30.3534069,8.5531427 30.8024069,10.7361427 32.2814069,11.8291427 C32.9084069,12.2931427 33.7274069,11.6571427 33.7484069,10.9881427 C33.8034069,9.1911427 32.3654069,7.2741427 31.7214069,5.6071427" id="Fill-306"></path>
                <path d="M49.8994069,7.0251427 C50.1544069,6.5601427 50.7674069,6.2341427 51.2384069,6.0511427 C52.7224069,5.4721427 54.0374069,5.8381427 55.1374069,6.9401427 C56.2654069,8.0681427 55.0564069,9.2001427 54.0524069,9.8061427 C53.4194069,10.1881427 52.7164069,10.3731427 52.0194069,10.6011427 C51.8624069,10.6521427 51.7064069,10.6901427 51.5444069,10.7251427 C51.0544069,9.5371427 50.4604069,8.4041427 49.7614069,7.3491427 C49.7984069,7.2391427 49.8424069,7.1311427 49.8994069,7.0251427 Z M10.7004069,19.8051427 C10.6974069,19.8071427 10.6944069,19.8071427 10.6924069,19.8091427 C10.2464069,19.9921427 9.93140692,20.2391427 9.56240692,20.5401427 C9.76440692,20.3731427 9.43540692,20.6111427 9.37740692,20.6451427 C9.35340692,20.6591427 9.33840692,20.6671427 9.32440692,20.6761427 C9.31640692,20.6781427 9.30340692,20.6831427 9.28740692,20.6861427 C9.24840692,20.6461427 9.18940692,20.5991427 9.19040692,20.6211427 C9.16140692,20.5751427 9.12840692,20.5281427 9.10340692,20.4801427 C9.08240692,20.4441427 9.06340692,20.4081427 9.04840692,20.3691427 C8.96040692,20.1471427 8.90240692,19.9111427 8.85440692,19.6761427 C8.84640692,19.6391427 8.82140692,19.4731427 8.81240692,19.4121427 C8.80040692,19.3011427 8.79140692,19.1901427 8.78440692,19.0801427 C8.76440692,18.7771427 8.76940692,18.4711427 8.78440692,18.1681427 C8.79240692,18.0301427 8.80440692,17.8931427 8.81940692,17.7541427 C8.82040692,17.7471427 8.82040692,17.7461427 8.82140692,17.7421427 C8.83340692,17.6711427 8.84540692,17.5991427 8.85740692,17.5291427 C8.90240692,17.2711427 8.96540692,17.0221427 9.04540692,16.7751427 C9.05340692,16.7401427 9.11540692,16.5831427 9.13140692,16.5331427 C9.16840692,16.4511427 9.20740692,16.3731427 9.24940692,16.2961427 C9.26740692,16.2651427 9.33140692,16.1721427 9.36040692,16.1241427 C9.39740692,16.0841427 9.43640692,16.0461427 9.47640692,16.0061427 C9.46640692,16.0391427 9.67140692,15.9091427 9.52340692,15.9591427 C9.52540692,15.9581427 9.52840692,15.9551427 9.52940692,15.9521427 C9.53340692,15.9501427 9.53640692,15.9491427 9.53740692,15.9491427 C9.69940692,15.9371427 9.66640692,15.9491427 9.83240692,16.0411427 C10.1474069,16.2191427 10.5754069,16.4961427 11.0154069,16.7531427 C10.8364069,17.7591427 10.7374069,18.7801427 10.7004069,19.8051427 Z M22.7854069,20.2231427 C23.0174069,17.5741427 25.2494069,16.1781427 27.6884069,16.0511427 C31.2624069,16.6341427 32.1944069,20.7651427 31.1604069,23.8191427 C30.3614069,26.1691427 27.1064069,27.7661427 25.0034069,26.1271427 C23.2704069,24.7801427 22.5984069,22.3281427 22.7854069,20.2231427 Z M43.5674069,19.2301427 C43.2234069,21.6181427 41.1464069,23.7281427 38.6674069,23.6591427 C35.8354069,23.5791427 35.0554069,20.1261427 35.3764069,17.9221427 C35.7084069,15.6181427 36.8444069,13.6051427 39.0824069,13.2411427 C39.2764069,13.2631427 39.4724069,13.2901427 39.6774069,13.3351427 C40.7224069,13.5581427 41.5844069,14.3731427 42.2844069,15.1231427 C43.2914069,16.2021427 43.7774069,17.7751427 43.5674069,19.2301427 Z M56.0334069,0.860142697 C54.3364069,0.00214269736 52.0744069,0.522142697 50.4374069,1.2631427 C49.0004069,1.9171427 47.8834069,2.8821427 46.9374069,4.0451427 C46.3684069,3.5341427 45.7584069,3.0611427 45.1094069,2.6291427 C41.5234069,0.245142697 36.9614069,-0.247857303 32.7724069,0.100142697 C32.6724069,0.108142697 32.5924069,0.142142697 32.5264069,0.184142697 C32.2854069,-0.0288573026 31.8834069,0.0941426974 31.8654069,0.460142697 C31.7314069,3.5971427 34.0054069,7.0311427 36.2274069,9.0721427 C37.5934069,10.3261427 39.3054069,8.1511427 37.7874069,7.0511427 C35.5984069,5.4691427 34.5414069,3.2731427 33.1634069,1.1161427 C36.9954069,1.5131427 40.8024069,2.2661427 44.0524069,4.4431427 C44.6534069,4.8451427 45.2014069,5.3021427 45.7044069,5.7971427 C44.4474069,7.8561427 43.1634069,10.5091427 42.8194069,13.0161427 C41.4544069,11.9051427 39.0224069,10.7411427 37.7004069,12.0881427 C35.7604069,12.4461427 34.1864069,15.2371427 33.7134069,17.0621427 C32.8094069,20.5551427 34.2444069,25.1161427 38.3344069,25.6061427 C42.1314069,26.0621427 45.2524069,22.6881427 45.6584069,19.1311427 C45.8674069,17.2851427 45.0684069,15.5081427 43.9064069,14.1121427 C44.9584069,11.8891427 45.7344069,9.4111427 46.9584069,7.2421427 C48.4434069,9.2231427 49.4134069,11.6111427 50.0594069,13.9901427 C52.1934069,21.8331427 50.7364069,30.6871427 45.5374069,37.0531427 C43.1844069,39.9351427 40.0574069,42.0501427 36.4274069,42.9151427 C32.2684069,43.9091427 27.9374069,42.6341427 24.3014069,40.6071427 C18.1464069,37.1751427 14.2044069,30.6621427 13.0224069,23.8311427 C12.4464069,20.5131427 12.6854069,17.2201427 13.6414069,14.2361427 C16.5834069,15.4461427 19.1054069,17.6601427 21.1674069,20.0901427 C20.7404069,23.1171427 22.0774069,26.7461427 24.8834069,28.2081427 C28.3504069,30.0131427 32.3014069,26.9761427 33.1434069,23.6051427 C33.6704069,21.4921427 33.2054069,19.1031427 32.0344069,17.2931427 C30.8914069,15.5331427 29.3484069,15.0841427 27.5444069,15.6011427 C24.8344069,15.2991427 22.4284069,16.2361427 21.4984069,18.7511427 C20.4254069,15.7541427 17.5934069,13.5841427 14.3554069,12.3721427 C16.4784069,7.5771427 20.5924069,3.8421427 26.2434069,2.5331427 C26.0114069,5.1111427 26.2474069,7.8951427 26.4454069,10.4741427 C26.5384069,11.6781427 28.4424069,11.6591427 28.3154069,10.4741427 C28.0284069,7.8431427 28.1174069,4.7501427 26.9254069,2.3291427 C26.9164069,2.3081427 26.9024069,2.2981427 26.8934069,2.2831427 C26.9834069,2.0861427 26.8154069,1.7791427 26.5294069,1.8281427 C20.3294069,2.8751427 15.2524069,6.1591427 12.5754069,11.8131427 C10.1354069,11.1851427 7.61340692,11.0761427 5.52840692,11.5421427 C2.60640692,12.1971427 0.234406917,14.5801427 0.0134069173,17.6251427 C-0.158593083,20.0191427 1.33040692,23.0061427 4.13240692,21.6451427 C4.71140692,21.3631427 4.55840692,20.4231427 3.95240692,20.2831427 C2.99040692,20.0621427 2.48140692,19.9041427 2.21540692,18.8801427 C1.94240692,17.8391427 2.33540692,16.6381427 2.82940692,15.7401427 C4.01640692,13.5821427 7.00840692,13.2211427 9.19340692,13.2741427 C10.0994069,13.2961427 10.9744069,13.4261427 11.8214069,13.6371427 C11.6464069,14.1371427 11.4994069,14.6471427 11.3674069,15.1601427 C11.1924069,14.9341427 10.9784069,14.7261427 10.7084069,14.5421427 C10.0984069,14.1301427 9.34140692,14.0711427 8.67740692,14.3781427 C7.41340692,14.9661427 7.01440692,16.6751427 6.85140692,17.9171427 C6.68740692,19.1821427 6.71240692,20.8201427 7.50940692,21.8881427 C8.35040692,23.0091427 9.69640692,23.0271427 10.7434069,22.3831427 C10.9594069,25.4311427 11.7314069,28.4501427 12.9304069,31.1771427 C15.8964069,37.9341427 21.5794069,43.2651427 28.7234069,45.3371427 C36.0774069,47.4721427 43.4754069,44.1151427 48.0444069,38.2951427 C53.8414069,30.9121427 54.9924069,21.1361427 52.1464069,12.3461427 C52.1394069,12.3291427 52.1324069,12.3141427 52.1294069,12.2981427 C53.5894069,12.1511427 55.3134069,11.2201427 56.0704069,10.5761427 C57.8304069,9.0791427 57.8334069,7.0021427 56.1974069,5.4041427 C54.6194069,3.8601427 52.2904069,3.5961427 50.3184069,4.5191427 C49.7904069,4.7691427 49.1584069,5.3081427 48.7204069,5.9311427 C48.5614069,5.7351427 48.4014069,5.5401427 48.2344069,5.3511427 C48.7194069,4.7571427 49.2684069,4.2111427 49.9044069,3.7261427 C51.0644069,2.8431427 52.5734069,2.3291427 54.0204069,2.2771427 C56.0224069,2.2021427 55.9394069,3.7471427 56.7804069,5.0501427 C56.9714069,5.3441427 57.3614069,5.3311427 57.5534069,5.0501427 C58.5854069,3.5311427 57.5034069,1.6051427 56.0334069,0.860142697 L56.0334069,0.860142697 Z" id="Fill-307"></path>
                <path d="M27.8944069,20.9851427 C26.9054069,20.9851427 26.0794069,21.8091427 26.0794069,22.7991427 C26.0794069,23.7881427 26.9054069,24.6151427 27.8944069,24.6151427 C28.8834069,24.6151427 29.7074069,23.7881427 29.7074069,22.7991427 C29.7074069,21.8091427 28.8834069,20.9851427 27.8944069,20.9851427" id="Fill-308"></path>
                <path d="M39.1924069,18.6061427 C38.1664069,18.6061427 37.3104069,19.4611427 37.3104069,20.4881427 C37.3104069,21.5131427 38.1664069,22.3711427 39.1924069,22.3711427 C40.2174069,22.3711427 41.0734069,21.5131427 41.0734069,20.4881427 C41.0734069,19.4611427 40.2174069,18.6061427 39.1924069,18.6061427" id="Fill-309"></path>
                <path d="M37.6744069,26.9171427 C36.3444069,25.1171427 33.3904069,25.8471427 33.4074069,28.1921427 C33.4124069,28.6081427 33.9204069,28.6951427 34.1394069,28.3901427 C34.5374069,27.8351427 35.0614069,27.2341427 35.8194069,27.4031427 C36.3534069,27.5211427 37.2404069,28.6301427 37.6744069,27.6721427 C37.7804069,27.4431427 37.8404069,27.1411427 37.6744069,26.9171427" id="Fill-310"></path>
                <path d="M39.1394069,33.1841427 C38.6154069,33.7901427 38.0194069,34.2891427 37.2604069,34.5791427 C36.4234069,34.8981427 35.5144069,34.8121427 34.6674069,35.0641427 C34.1904069,35.2071427 34.0624069,35.9001427 34.5264069,36.1531427 C36.5434069,37.2541427 39.4674069,36.1851427 40.6054069,34.3161427 C41.1524069,33.4221427 39.8444069,32.3731427 39.1394069,33.1841427" id="Fill-311"></path>
            </g>
        </g>
    </g>
</svg>