<?xml version="1.0" encoding="UTF-8"?>
<svg width="51px" height="60px" viewBox="0 0 51 60" version="1.1" xmlns="http://www.w3.org/2000/svg" xmlns:xlink="http://www.w3.org/1999/xlink">
    <title>Group 41</title>
    <g id="Page-1" stroke="none" stroke-width="1" fill="none" fill-rule="evenodd">
        <g id="vectorstock_1327683" transform="translate(-190.000000, -410.000000)" fill="#1B1A19">
            <g id="Group-41" transform="translate(190.619340, 410.336960)">
                <path d="M47.4686596,27.9620398 C47.1206596,27.5220398 46.8456596,26.8960398 46.2876596,26.4980398 C46.0066596,26.2970398 45.6316596,26.5140398 45.5386596,26.8030398 C45.5056596,26.9030398 45.4836596,27.0080398 45.4706596,27.1170398 C44.7736596,25.0890398 43.8016596,23.1680398 42.6176596,21.3680398 C43.7326596,20.4260398 45.8456596,18.7120398 47.1986596,19.8490398 C48.2886596,20.7620398 48.3846596,22.6290398 48.3906596,23.9310398 C48.3966596,25.2840398 48.1856596,26.8210398 47.4686596,27.9620398 Z M7.33765959,45.1350398 C7.27565959,46.3850398 7.12965959,47.6550398 6.69365959,48.8340398 C4.11865959,47.7660398 2.64365959,45.6280398 3.14765959,42.7330398 C3.38065959,41.3970398 4.39565959,39.0760398 5.89365959,39.6520398 C6.11465959,40.5510398 6.36565959,41.4290398 6.65265959,42.2730398 C6.95865959,43.1680398 7.31065959,44.0540398 7.69765959,44.9260398 C7.55165959,44.8500398 7.34865959,44.9260398 7.33765959,45.1350398 Z M49.5476596,24.1830398 C49.5206596,22.4710398 49.2326596,20.1220398 47.7096596,19.0430398 C45.8356596,17.7130398 43.6306596,19.5050398 42.2966596,20.8890398 C37.9226596,14.5120398 30.8706596,9.71003978 23.8116596,7.25903978 C23.4596596,7.13703978 23.2556596,7.66503978 23.5626596,7.84603978 C28.2626596,10.6120398 32.9846596,13.1410398 36.9876596,16.9090398 C41.0326596,20.7160398 43.8656596,25.5110398 45.0576596,30.9420398 C47.1986596,40.7080398 42.8096596,51.3920398 33.5806596,55.7550398 C26.2346596,59.2300398 18.1706596,56.9580398 12.9036596,51.1230398 C8.21265959,45.9260398 5.85765959,38.6300398 5.63665959,31.7180398 C5.36465959,23.1660398 9.13765959,14.5490398 18.1646596,12.6130398 C18.2366596,12.5970398 18.2056596,12.4910398 18.1336596,12.5030398 C5.76365959,14.7740398 3.34465959,28.3290398 5.72865959,38.9680398 C4.64965959,38.7460398 3.04965959,40.9340398 2.76265959,41.6990398 C1.36465959,45.4200398 3.17665959,48.7780398 6.85265959,50.0670398 C7.06265959,50.1400398 7.37665959,50.0260398 7.47065959,49.8150398 C8.10565959,48.3750398 8.35765959,46.9550398 7.93665959,45.4600398 C10.1286596,50.1470398 13.5286596,54.3380398 18.1246596,56.7850398 C24.9156596,60.3990398 33.2596596,58.6410398 39.0066596,53.8780398 C46.2486596,47.8780398 48.3056596,37.8510398 46.0486596,29.0580398 C46.6626596,29.9150398 47.6526596,30.3660398 48.5036596,29.3740398 C49.6216596,28.0700398 49.5726596,25.7910398 49.5476596,24.1830398 L49.5476596,24.1830398 Z" id="Fill-22"></path>
                <path d="M44.3026596,29.3900398 C40.4766596,24.1150398 32.1156596,26.4770398 27.3226596,28.7530398 C21.3966596,31.5700398 15.0666596,36.8490398 12.4266596,42.9950398 C12.3416596,43.1930398 12.6246596,43.3690398 12.7196596,43.1660398 C15.3186596,37.6930398 20.7676596,33.5200398 25.9566596,30.6790398 C28.8586596,29.0920398 31.9996596,27.8410398 35.3086596,27.4860398 C38.5906596,27.1320398 41.0616596,28.2530398 43.7846596,29.9080398 C44.0936596,30.0940398 44.5316596,29.7060398 44.3026596,29.3900398" id="Fill-23"></path>
                <path d="M30.8396596,30.5300398 C29.0846596,31.0820398 27.4506596,31.9940398 25.8746596,32.9260398 C24.8196596,33.5510398 22.9906596,34.5250398 22.4036596,35.6590398 C22.3516596,35.7600398 22.4146596,35.9290398 22.5516596,35.9150398 C23.3396596,35.8220398 24.0786596,35.2870398 24.7956596,34.9580398 C26.3006596,34.2700398 27.7786596,33.5530398 29.3356596,32.9820398 C30.8006596,32.4460398 32.3126596,31.9590398 33.8766596,31.8640398 C35.0106596,31.7940398 35.8736596,32.4940398 36.9326596,32.5150398 C37.2626596,32.5210398 37.5056596,32.2430398 37.5186596,31.9290398 C37.6476596,28.8920398 32.3466596,30.0570398 30.8396596,30.5300398" id="Fill-24"></path>
                <path d="M31.3556596,23.4740398 C28.8516596,23.2300398 26.4476596,22.7660398 24.3986596,21.2160398 C24.2586596,21.1120398 24.0786596,21.3120398 24.1646596,21.4490398 C25.1096596,22.9580398 26.5116596,23.8490398 28.0856596,24.3990398 C26.3586596,25.1330398 24.9206596,26.3200398 24.7386596,28.4070398 C24.6946596,28.9050398 25.3466596,28.9580398 25.5846596,28.6360398 C27.1066596,26.5780398 29.1466596,25.7010398 31.5746596,25.0920398 C32.5336596,24.8520398 32.2356596,23.5580398 31.3556596,23.4740398" id="Fill-25"></path>
                <path d="M18.7356596,20.9200398 C18.4846596,20.9200398 18.2566596,20.9540398 18.0446596,21.0100398 C19.0686596,20.5040398 20.0776596,19.9680398 20.9916596,19.3580398 C21.3846596,19.0950398 21.1226596,18.5670398 20.6856596,18.6310398 C19.0886596,18.8690398 17.6386596,19.7730398 16.2246596,20.5130398 C14.3656596,21.4880398 12.5146596,22.4670398 10.6516596,23.4330398 C10.3116596,23.6090398 10.5556596,24.0920398 10.8986596,24.0210398 C12.5626596,23.6760398 14.0636596,22.9340398 15.5846596,22.1950398 C16.1246596,21.9310398 16.6816596,21.6690398 17.2406596,21.4000398 C15.6356596,22.6510398 16.1326596,25.9150398 18.7356596,25.9150398 C21.9556596,25.9150398 21.9556596,20.9200398 18.7356596,20.9200398" id="Fill-26"></path>
                <path d="M33.9606596,17.1060398 C32.5366596,16.4850398 30.8526596,16.7920398 29.3306596,16.8710398 C27.5706596,16.9620398 25.8066596,17.2180398 24.1796596,17.9060398 C23.9186596,18.0150398 24.0736596,18.3900398 24.3126596,18.4000398 C25.2166596,18.4320398 26.1246596,18.4250398 27.0316596,18.4060398 C26.9746596,18.4530398 26.9146596,18.4940398 26.8606596,18.5450398 C26.7716596,18.6180398 26.6896596,18.6980398 26.6156596,18.7880398 C26.1696596,19.2640398 25.9786596,19.9520398 26.1556596,20.6000398 C26.3696596,21.3780398 27.0176596,21.8590398 27.7786596,21.9710398 C28.2416596,22.0660398 28.7166596,22.0060398 29.1666596,21.7550398 C29.3396596,21.6570398 29.5236596,21.5410398 29.6466596,21.3860398 C29.9146596,21.0450398 30.0396596,20.9350398 30.1576596,20.5050398 C30.2416596,20.1970398 30.2626596,19.7550398 30.1586596,19.4480398 C30.0226596,19.0380398 29.7736596,18.5970398 29.3976596,18.3430398 C30.9106596,18.3110398 32.5546596,18.6030398 33.9606596,17.9890398 C34.2956596,17.8420398 34.2956596,17.2530398 33.9606596,17.1060398" id="Fill-27"></path>
                <path d="M16.0946596,11.5650398 C12.4466596,11.3340398 8.39765959,14.3290398 5.81265959,16.5820398 C2.87565959,19.1400398 0.310659587,22.6640398 0.00065958693,26.6460398 C-0.0193404131,26.9240398 0.421659587,26.9790398 0.484659587,26.7110398 C1.35965959,22.9130398 3.53065959,19.7590398 6.34865959,17.1200398 C7.72365959,15.8320398 9.29265959,14.7770398 10.9156596,13.8300398 C12.5806596,12.8580398 14.3716596,12.4870398 16.1246596,11.7880398 C16.2436596,11.7410398 16.2286596,11.5730398 16.0946596,11.5650398" id="Fill-28"></path>
                <path d="M18.1816596,10.7790398 C17.1556596,8.41403978 14.2786596,8.07603978 11.9936596,7.93303978 C9.22265959,7.76203978 5.38065959,7.99703978 3.01965959,9.63903978 C2.70765959,9.85703978 2.90865959,10.2800398 3.26665959,10.2270398 C7.47065959,9.60803978 14.6136596,7.19603978 18.1226596,10.8250398 C18.1546596,10.8580398 18.1966596,10.8160398 18.1816596,10.7790398" id="Fill-29"></path>
                <path d="M8.84965959,1.06303978 C8.46265959,1.29003978 8.72065959,1.91803978 9.15565959,1.78903978 C15.5446596,-0.10696022 20.0566596,4.39703978 21.0106596,10.5250398 C21.0256596,10.6150398 21.1516596,10.5820398 21.1596596,10.5040398 C21.7806596,4.08803978 15.2216596,-2.65796022 8.84965959,1.06303978" id="Fill-30"></path>
            </g>
        </g>
    </g>
</svg>