<?xml version="1.0" encoding="UTF-8"?>
<svg width="45px" height="56px" viewBox="0 0 45 56" version="1.1" xmlns="http://www.w3.org/2000/svg" xmlns:xlink="http://www.w3.org/1999/xlink">
    <title>Group 64</title>
    <g id="Page-1" stroke="none" stroke-width="1" fill="none" fill-rule="evenodd">
        <g id="vectorstock_1327683" transform="translate(-502.000000, -190.000000)" fill="#0A0B09">
            <g id="Group-64" transform="translate(502.770205, 190.272169)">
                <path d="M37.3897945,43.2388307 C34.8347945,46.6888307 31.1477945,49.2148307 27.2287945,50.8738307 C19.2667945,54.2418307 8.93479454,54.0568307 3.78479454,46.1438307 C2.38979454,43.9998307 1.54379454,41.6278307 1.13879454,39.1688307 C1.42479454,38.0868307 2.38979454,37.8298307 3.60479454,37.5958307 C7.15079454,36.9128307 10.8137945,36.9128307 14.4137945,36.7768307 C22.0457945,36.4868307 29.7017945,36.3748307 37.3367945,36.2418307 C38.2187945,36.2268307 38.2317945,34.7168307 37.3517945,34.6968307 C35.2997945,34.6508307 33.2587945,34.5288307 31.2107945,34.6638307 C29.0577945,34.8068307 26.9067945,34.9058307 24.7527945,34.9808307 C20.3927945,35.1308307 16.0337945,35.2548307 11.6827945,35.5488307 C9.70379454,35.6808307 7.73179454,35.7518307 5.76579454,36.0108307 C4.30979454,36.2048307 2.26979454,36.4098307 1.09179454,37.3728307 C1.03679454,37.4178307 0.985794545,37.4628307 0.936794545,37.5098307 C0.502794545,32.2378307 1.97579454,26.7038307 4.47979454,22.2028307 C5.86879454,19.7098307 7.62479454,17.3928307 9.69279454,15.4098307 C8.53179454,17.5398307 9.50079454,19.9438307 11.5047945,21.3308307 C13.3657945,22.6148307 15.9157945,22.3488307 17.7377945,21.1648307 C17.8677945,21.0818307 17.9927945,20.9918307 18.1147945,20.8968307 C17.8117945,21.7998307 17.7277945,22.7978307 17.7667945,23.7058307 C17.8607945,25.8368307 19.0317945,27.6798307 20.7517945,28.9028307 C22.4417945,30.1038307 24.6577945,30.6338307 26.5987945,29.7088307 C28.0267945,29.0308307 28.7967945,27.6598307 28.9347945,26.1248307 C29.0797945,24.5258307 28.5087945,23.0408307 27.8707945,21.6058307 C27.8707945,21.6028307 27.8697945,21.5988307 27.8667945,21.5958307 C29.6917945,22.4638307 31.9387945,22.3308307 33.7507945,21.5048307 C35.2567945,20.8188307 36.8787945,19.0498307 37.1257945,17.2788307 C39.6897945,21.1788307 41.1827945,25.8168307 41.3427945,30.4668307 C41.5007945,35.0868307 40.1387945,39.5268307 37.3897945,43.2388307 Z M10.3827945,14.7738307 C11.0417945,14.1848307 11.7317945,13.6258307 12.4507945,13.1078307 C14.6637945,12.7238307 17.0817945,13.1318307 18.4417945,15.1148307 C19.6427945,16.8628307 18.6707945,18.8688307 17.2097945,20.0748307 C15.9537945,21.1138307 14.1797945,21.3428307 12.6677945,20.8098307 C11.7697945,20.4948307 11.0477945,19.7888307 10.5367945,19.0108307 C9.68779454,17.7338307 9.68779454,16.4078307 10.4787945,15.1108307 C10.5687945,14.9618307 10.4967945,14.8318307 10.3827945,14.7738307 Z M25.8957945,14.7178307 C27.1257945,11.9968307 30.5397945,12.0188307 33.0397945,12.5258307 C34.0837945,13.4658307 35.0447945,14.4888307 35.9177945,15.5988307 C35.6177945,16.4108307 35.7417945,17.3298307 35.2877945,18.1428307 C34.8427945,18.9318307 34.1627945,19.5358307 33.3817945,19.9738307 C31.7947945,20.8648307 29.8657945,20.7158307 28.2657945,19.9638307 C26.3157945,19.0448307 24.9447945,16.8238307 25.8957945,14.7178307 Z M38.3557945,16.0868307 C36.6947945,13.7028307 34.6997945,11.6818307 32.3797945,9.93883072 C31.1867945,9.04083072 29.9147945,8.24483072 28.6237945,7.49683072 C27.3797945,6.77483072 25.9377945,6.30983072 24.5997945,5.79283072 C24.2377945,5.65383072 24.0227945,6.19483072 24.3267945,6.39483072 C26.4177945,7.77283072 28.5417945,9.12483072 30.5847945,10.5658307 C31.3147945,11.0778307 32.0117945,11.6268307 32.6817945,12.2088307 C29.9337945,11.3598307 26.9177945,11.3348307 25.0917945,13.9408307 C23.5187945,16.1838307 24.5777945,18.8998307 26.3937945,20.5838307 C26.3767945,20.8648307 26.5057945,21.2238307 26.5797945,21.4198307 C27.1057945,22.8058307 27.3337945,24.4478307 27.1337945,25.9228307 C26.9157945,27.5758307 25.6687945,28.1898307 24.1107945,28.2778307 C22.0287945,28.3978307 19.8477945,26.5268307 19.1877945,24.6528307 C18.6937945,23.2568307 18.6307945,21.2638307 19.2157945,19.7668307 C20.2397945,18.3428307 20.4707945,16.4958307 19.4757945,14.8358307 C18.1307945,12.5998307 15.4717945,12.1648307 13.1117945,12.6488307 C14.6357945,11.6258307 16.2757945,10.7718307 18.0147945,10.1368307 C18.0467945,10.1258307 18.0357945,10.0728307 18.0007945,10.0838307 C15.9447945,10.7458307 14.0257945,11.6918307 12.2637945,12.8688307 C12.1257945,12.9088307 11.9927945,12.9538307 11.8587945,13.0008307 C11.7757945,13.0318307 11.7627945,13.1268307 11.8047945,13.1818307 C7.28979454,16.3358307 3.85179454,20.9988307 1.83979454,26.1498307 C0.290794545,30.1298307 -0.370205455,34.6688307 0.205794545,38.9778307 C0.0447945447,40.0668307 0.449794545,41.3298307 0.940794545,42.3668307 C1.68579454,44.7988307 2.89079454,47.0728307 4.63179454,49.0308307 C10.5027945,55.6298307 20.3487945,55.1628307 27.9127945,52.1768307 C36.0607945,48.9588307 42.1587945,41.8628307 42.9737945,33.0088307 C43.5207945,27.0738307 41.7427945,20.9528307 38.3557945,16.0868307 L38.3557945,16.0868307 Z" id="Fill-402"></path>
                <path d="M21.1727945,10.1988307 C18.0407945,7.25083072 13.1677945,8.62883072 9.63479454,10.0368307 C7.83279454,10.7558307 6.08179454,11.6898307 4.58179454,12.9278307 C3.62079454,13.7228307 1.66779454,15.8868307 2.89679454,17.1928307 C3.13679454,17.4478307 3.49279454,17.3788307 3.69179454,17.1238307 C4.02579454,16.6948307 4.13179454,16.0058307 4.38979454,15.5108307 C4.75579454,14.8108307 5.34879454,14.2528307 5.94479454,13.7478307 C7.20779454,12.6678307 8.72679454,11.8758307 10.2337945,11.1918307 C11.7467945,10.5088307 13.3247945,9.99383072 14.9587945,9.69583072 C16.9227945,9.33783072 19.3147945,9.28483072 21.1007945,10.2838307 C21.1527945,10.3118307 21.2207945,10.2428307 21.1727945,10.1988307" id="Fill-403"></path>
                <path d="M21.2897945,9.06683072 C18.4127945,6.64583072 14.5357945,6.68383072 11.0187945,7.18183072 C9.29779454,7.42683072 7.59679454,7.87983072 5.97979454,8.51683072 C4.58179454,9.06683072 2.65779454,9.89683072 2.47679454,11.5778307 C2.44179454,11.9018307 2.78779454,12.0998307 3.06879454,11.9888307 C4.34479454,11.4848307 5.36379454,10.5008307 6.62479454,9.91383072 C8.08879454,9.23283072 9.66579454,8.79383072 11.2467945,8.48383072 C12.7777945,8.18283072 14.2997945,8.01883072 15.8617945,8.07583072 C17.6787945,8.14083072 19.5887945,8.30283072 21.2247945,9.15783072 C21.2877945,9.18983072 21.3447945,9.11283072 21.2897945,9.06683072" id="Fill-404"></path>
                <path d="M21.9037945,8.09683072 C20.3037945,6.09783072 17.8197945,4.86483072 15.2927945,4.54683072 C13.9587945,4.37883072 12.6067945,4.38583072 11.2657945,4.47983072 C9.95879454,4.57083072 8.36779454,4.70383072 7.28679454,5.51483072 C6.99479454,5.73383072 7.06679454,6.17983072 7.42979454,6.27083072 C8.48879454,6.53983072 9.69079454,6.31283072 10.7627945,6.19983072 C12.0547945,6.06183072 13.3687945,6.03283072 14.6637945,6.14983072 C17.2097945,6.37983072 19.5637945,7.02583072 21.8687945,8.13683072 C21.8897945,8.14783072 21.9207945,8.11983072 21.9037945,8.09683072" id="Fill-405"></path>
                <path d="M19.8377945,3.93683072 C18.3907945,3.00683072 15.6487945,1.15283072 13.9507945,2.42283072 C13.7677945,2.55883072 13.7727945,2.91283072 13.9437945,3.05183072 C14.5197945,3.52383072 15.3897945,3.65583072 16.1087945,3.82783072 C16.9837945,4.03983072 17.7947945,4.44883072 18.5887945,4.86783072 C19.8627945,5.54083072 21.6767945,6.35483072 22.4307945,7.65183072 C22.4707945,7.71783072 22.5617945,7.70183072 22.5847945,7.63483072 C23.1977945,5.96483072 21.0137945,4.69183072 19.8377945,3.93683072" id="Fill-406"></path>
                <path d="M19.2457945,1.06383072 C18.7427945,1.17183072 18.5997945,1.62283072 18.7417945,2.05083072 C18.8957945,2.52183072 20.0187945,2.83583072 20.4177945,3.05983072 C21.8247945,3.83983072 23.0797945,5.26983072 23.4217945,6.87483072 C23.4397945,6.95283072 23.5607945,6.97483072 23.5837945,6.89083072 C24.2227945,4.42683072 22.2307945,0.427830722 19.2457945,1.06383072" id="Fill-407"></path>
                <path d="M24.8937945,2.81283072 C24.7567945,1.88183072 24.3807945,0.500830722 23.4457945,0.0718307218 C23.0057945,-0.130169278 22.4467945,0.109830722 22.3437945,0.591830722 C22.2377945,1.08583072 22.5897945,1.50883072 22.9287945,1.82483072 C23.6277945,2.47483072 24.5467945,3.96183072 24.1777945,4.95483072 C24.1517945,5.02683072 24.2317945,5.11083072 24.3017945,5.05683072 C25.0157945,4.52183072 25.0097945,3.62183072 24.8937945,2.81283072" id="Fill-408"></path>
                <path d="M35.8047945,9.43383072 C34.6847945,7.88383072 32.8417945,6.96183072 31.1317945,6.20383072 C29.2587945,5.37483072 27.3587945,5.39283072 25.3607945,5.62783072 C25.2327945,5.64283072 25.2447945,5.83483072 25.3667945,5.84883072 C28.8477945,6.28483072 32.0977945,7.87283072 34.3767945,10.5918307 C35.1427945,11.5068307 36.4967945,10.3908307 35.8047945,9.43383072" id="Fill-409"></path>
                <path d="M33.8117945,4.70383072 C32.5597945,4.18583072 31.2897945,3.56283072 29.9007945,3.72083072 C28.3827945,3.89283072 26.8987945,4.32383072 25.4397945,4.74583072 C25.1707945,4.82383072 25.2137945,5.25283072 25.5037945,5.23883072 C26.8567945,5.17583072 28.2047945,5.14283072 29.5577945,5.23483072 C30.2257945,5.27883072 30.8517945,5.34283072 31.4887945,5.55983072 C32.1287945,5.77683072 32.7197945,6.12583072 33.3677945,6.33883072 C34.4277945,6.69083072 34.7917945,5.10683072 33.8117945,4.70383072" id="Fill-410"></path>
                <path d="M32.0767945,1.65783072 C31.2907945,1.40283072 30.3517945,1.64083072 29.5817945,1.83983072 C28.0267945,2.24283072 26.4807945,2.92883072 25.2097945,3.91883072 C25.1397945,3.97283072 25.1827945,4.10083072 25.2757945,4.06883072 C26.4337945,3.67583072 27.6957945,3.42183072 28.8937945,3.20283072 C29.6057945,3.06983072 30.3757945,2.97883072 31.1007945,3.05683072 C31.6317945,3.11383072 32.1947945,3.51783072 32.6967945,3.47883072 C32.9687945,3.45883072 33.1887945,3.28683072 33.2577945,3.01883072 C33.4527945,2.24383072 32.6817945,1.85483072 32.0767945,1.65783072" id="Fill-411"></path>
                <path d="M16.1527945,15.2048307 C15.8637945,14.8808307 15.4087945,14.6358307 14.9627945,14.6358307 C14.4977945,14.6358307 14.0747945,14.7588307 13.7197945,15.0748307 C13.3817945,15.3798307 13.1767945,15.8118307 13.1517945,16.2658307 C13.1297945,16.7188307 13.2887945,17.1718307 13.5937945,17.5098307 C13.8847945,17.8338307 14.3377945,18.0778307 14.7857945,18.0778307 C15.2487945,18.0778307 15.6747945,17.9548307 16.0267945,17.6378307 C16.3647945,17.3328307 16.5717945,16.9018307 16.5947945,16.4478307 C16.6177945,15.9928307 16.4577945,15.5418307 16.1527945,15.2048307" id="Fill-412"></path>
                <path d="M29.2487945,14.4398307 C28.4747945,14.4398307 27.8207945,15.0578307 27.8117945,15.8358307 C27.8017945,16.6018307 28.4347945,17.2718307 29.2087945,17.2718307 C29.9797945,17.2718307 30.6327945,16.6568307 30.6427945,15.8768307 C30.6557945,15.1138307 30.0197945,14.4398307 29.2487945,14.4398307" id="Fill-413"></path>
            </g>
        </g>
    </g>
</svg>