<?xml version="1.0" encoding="UTF-8"?>
<svg width="42px" height="48px" viewBox="0 0 42 48" version="1.1" xmlns="http://www.w3.org/2000/svg" xmlns:xlink="http://www.w3.org/1999/xlink">
    <title>Group 29</title>
    <g id="Page-1" stroke="none" stroke-width="1" fill="none" fill-rule="evenodd">
        <g id="vectorstock_1327683" transform="translate(-136.000000, -415.000000)" fill="#0A0B09">
            <g id="Group-29" transform="translate(136.207326, 415.204894)">
                <path d="M6.77667379,8.38410608 C7.32967379,8.11510608 7.76967379,7.94510608 8.39667379,8.04410608 C8.61967379,8.08010608 8.77167379,8.19110608 8.90567379,8.32310608 C8.76767379,8.41210608 8.62667379,8.49610608 8.48767379,8.58610608 C7.20267379,9.44010608 6.07367379,10.4691061 5.08967379,11.6191061 C5.09967379,10.3411061 5.57067379,8.97310608 6.77667379,8.38410608 Z M35.1666738,22.1121061 C37.7596738,19.6701061 42.7126738,15.5191061 38.8526738,11.9641061 C37.2476738,10.4901061 35.0996738,11.4481061 34.0666738,13.0461061 C33.5936738,13.7781061 33.2806738,14.6751061 33.4036738,15.5561061 C33.5316738,16.4691061 34.4806738,17.2791061 35.4046738,16.8061061 C35.8156738,16.5951061 36.0606738,16.2061061 35.8976738,15.7341061 C35.7216738,15.2141061 35.6716738,14.5341061 36.1166738,13.8691061 C36.9396738,12.6391061 38.2546738,13.3891061 38.6746738,14.5851061 C39.1456738,15.9331061 37.8876738,17.6981061 37.1696738,18.7201061 C36.4296738,19.7741061 35.6366738,20.7901061 34.8886738,21.8391061 C34.7816738,21.4701061 34.6716738,21.1041061 34.5426738,20.7411061 C32.9526738,16.1141061 29.4376738,12.3901061 26.0596738,8.97510608 C25.8376738,8.75110608 25.5036738,9.03710608 25.6886738,9.29210608 C27.6536738,12.0001061 29.4956738,14.7911061 30.9026738,17.8381061 C32.2826738,20.8291061 33.4566738,23.7771061 33.5246738,27.1201061 C33.6516738,33.2451061 30.1576738,39.0371061 24.8766738,42.0391061 C19.8526738,44.8961061 13.6606738,44.5891061 8.91467379,41.3171061 C4.54267379,38.3031061 2.27267379,33.0731061 1.66567379,27.9411061 C0.964673787,22.0441061 2.72867379,15.3341061 6.92567379,11.0231061 C7.72067379,10.2071061 8.58967379,9.49110608 9.51167379,8.85710608 C9.57667379,8.88510608 9.64667379,8.90510608 9.72667379,8.91610608 C9.98067379,8.95410608 10.1716738,8.81810608 10.2926738,8.60610608 C10.3196738,8.56210608 10.3426738,8.52010608 10.3696738,8.47610608 C10.4036738,8.41610608 10.4216738,8.34210608 10.4286738,8.26610608 C14.3176738,5.91010608 19.0306738,4.84910608 23.4266738,4.06310608 C23.5796738,4.03310608 23.5336738,3.80110608 23.3796738,3.82410608 C18.8256738,4.46310608 14.2016738,5.38810608 10.1446738,7.59210608 C9.13167379,6.49110608 7.45467379,6.58710608 6.29367379,7.47410608 C4.80967379,8.60610608 4.26367379,10.2901061 4.62567379,12.1251061 C4.62667379,12.1401061 4.63567379,12.1511061 4.64067379,12.1671061 C2.51467379,14.8561061 1.13867379,18.1471061 0.457673787,21.5141061 C-1.57932621,31.5851061 3.21067379,44.0891061 14.2806738,46.1401061 C22.8536738,47.7261061 31.0966738,42.3601061 34.3836738,34.5391061 C36.0506738,30.5811061 36.0926738,26.2441061 34.9806738,22.1671061 C35.0396738,22.1781061 35.1066738,22.1691061 35.1666738,22.1121061 L35.1666738,22.1121061 Z" id="Fill-521"></path>
                <path d="M19.0976738,31.1571061 C17.9706738,30.9851061 17.1596738,31.2041061 16.0856738,31.5341061 C15.8716738,31.5981061 14.5046738,32.2781061 14.3416738,31.9381061 C14.0266738,31.2771061 14.1296738,30.3991061 14.1466738,29.6871061 C14.1716738,28.6531061 14.1696738,27.6161061 14.2366738,26.5821061 C14.5746738,21.4681061 15.3296738,15.8541061 18.5506738,11.6851061 C18.6486738,11.5601061 18.4806738,11.4201061 18.3666738,11.5251061 C13.8816738,15.6701061 11.9736738,22.1671061 11.4346738,28.0681061 C11.2426738,30.1761061 10.6856738,32.8941061 12.5196738,34.4571061 C14.8216738,36.4171061 18.0956738,34.3131061 19.5046738,32.3511061 C19.8066738,31.9351061 19.6836738,31.2481061 19.0976738,31.1571061" id="Fill-522"></path>
                <path d="M20.3926738,0.410106078 C18.8886738,-0.665893922 16.1666738,0.630106078 14.7936738,1.38810608 C14.0936738,1.77710608 10.9566738,4.00610608 13.2176738,4.57210608 C13.3866738,4.61510608 13.5406738,4.49810608 13.6136738,4.34910608 C13.7306738,4.29610608 13.8316738,4.21910608 13.9136738,4.11910608 C14.0706738,3.94610608 14.3056738,3.84210608 14.5136738,3.74610608 C15.2276738,3.40310608 16.0116738,3.18610608 16.7786738,2.99710608 C17.8996738,2.72110608 19.4666738,2.31010608 20.3746738,1.55610608 C20.7176738,1.27310608 20.7906738,0.693106078 20.3926738,0.410106078" id="Fill-523"></path>
                <path d="M32.1046738,5.95910608 C31.1306738,4.42410608 29.4886738,3.65710608 27.7766738,3.24410608 C27.2866738,3.12710608 26.8276738,3.75610608 27.3216738,4.08810608 C28.4836738,4.86510608 29.4856738,5.89410608 30.1736738,7.12310608 C30.8476738,8.32510608 30.7776738,9.79910608 31.6606738,10.8851061 C32.0916738,11.4121061 32.7826738,11.1921061 33.0656738,10.6621061 C33.8946738,9.13010608 32.9446738,7.28410608 32.1046738,5.95910608" id="Fill-524"></path>
                <path d="M28.4906738,30.9461061 C28.1796738,30.3881061 27.4386738,30.5961061 27.1606738,31.0361061 C26.6076738,31.9081061 26.5116738,32.9041061 25.8536738,33.7351061 C25.1796738,34.5861061 24.3556738,35.3441061 23.5136738,36.0211061 C21.8906738,37.3171061 19.9686738,38.3471061 18.6346738,39.9661061 C18.5656738,40.0491061 18.6696738,40.1791061 18.7596738,40.1101061 C20.7246738,38.6251061 23.2766738,38.0141061 25.4266738,36.8441061 C27.3296738,35.8081061 29.7726738,33.2361061 28.4906738,30.9461061" id="Fill-525"></path>
                <path d="M24.3006738,11.7121061 C24.2666738,11.3501061 24.0856738,11.0121061 23.8086738,10.7801061 C23.4976738,10.5181061 23.1596738,10.4591061 22.7696738,10.4591061 C22.4226738,10.4591061 22.0506738,10.6981061 21.8346738,10.9531061 C21.5936738,11.2381061 21.4776738,11.6191061 21.5136738,11.9921061 C21.5506738,12.3541061 21.7306738,12.6911061 22.0076738,12.9251061 C22.3176738,13.1851061 22.6566738,13.2471061 23.0476738,13.2471061 C23.3926738,13.2471061 23.7666738,13.0071061 23.9806738,12.7531061 C24.2226738,12.4651061 24.3386738,12.0881061 24.3006738,11.7121061" id="Fill-526"></path>
                <path d="M18.8476738,8.65810608 C18.8446738,8.65410608 18.8416738,8.65210608 18.8376738,8.64910608 C18.5076738,8.38410608 18.0026738,8.36210608 17.6286738,8.53810608 C17.2436738,8.71510608 16.9786738,9.09110608 16.9406738,9.51410608 C16.8996738,9.93710608 17.0906738,10.3571061 17.4326738,10.6041061 C17.8776738,10.9231061 18.4816738,10.8931061 18.9036738,10.5531061 C18.9076738,10.5501061 18.9096738,10.5481061 18.9126738,10.5481061 C19.1536738,10.3501061 19.3116738,10.0491061 19.3396738,9.73910608 C19.3806738,9.30110608 19.1796738,8.92310608 18.8476738,8.65810608" id="Fill-527"></path>
            </g>
        </g>
    </g>
</svg>