<?xml version="1.0" encoding="UTF-8"?>
<svg width="46px" height="47px" viewBox="0 0 46 47" version="1.1" xmlns="http://www.w3.org/2000/svg" xmlns:xlink="http://www.w3.org/1999/xlink">
    <title>Group 7</title>
    <g id="Page-1" stroke="none" stroke-width="1" fill="none" fill-rule="evenodd">
        <g id="vectorstock_1327683" transform="translate(-74.000000, -192.000000)" fill="#1B1A19">
            <g id="Group-7" transform="translate(74.867839, 192.342637)">
                <path d="M27.1981609,0.809363269 C21.2581609,0.653363269 14.9111609,-0.826636731 8.97916089,0.649363269 C7.03016089,1.13436327 5.15416089,2.07636327 4.62816089,4.03436327 C4.27516089,5.34036327 4.79416089,6.92836327 5.04116089,8.21536327 C5.45116089,10.3543633 4.94316089,13.1393633 4.45616089,15.2253633 C4.31916089,15.8133633 5.21816089,16.2363633 5.52616089,15.6523633 C5.79216089,15.1443633 6.05116089,14.6273633 6.29716089,14.0973633 C6.53916089,14.1263633 6.80016089,14.0163633 6.86516089,13.7533633 C7.26516089,12.1403633 9.38716089,10.9383633 10.5521609,9.77136327 C10.9141609,9.40736327 11.1891609,9.01236327 11.4151609,8.59936327 C13.1901609,9.90936327 15.8731609,9.80536327 17.8621609,8.96936327 C19.6461609,8.21536327 21.4181609,5.89236327 21.4931609,3.87236327 C23.3611609,3.52436327 25.1731609,2.99436327 27.1981609,2.90036327 C28.6151609,2.83236327 28.6271609,0.847363269 27.1981609,0.809363269" id="Fill-130"></path>
                <path d="M28.0701609,42.3873633 C18.8581609,45.7203633 9.04716089,42.7513633 5.50416089,33.7733633 C2.39316089,25.8943633 4.35316089,14.8833633 10.8971609,8.95636327 C10.9311609,8.96936327 10.9551609,8.98736327 10.9931609,8.99936327 C13.5331609,9.78236327 16.9041609,8.52836327 18.9921609,7.15336327 C19.8041609,6.61436327 20.2931609,6.01536327 20.6631609,5.15636327 C20.7461609,4.95836327 20.8801609,4.77836327 21.0361609,4.60836327 C21.0731609,4.63436327 21.1021609,4.66036327 21.1451609,4.67936327 C29.0301609,7.76536327 38.0981609,11.5103633 41.3751609,19.5743633 C45.4211609,29.5373633 37.5521609,38.9573633 28.0701609,42.3873633 Z M5.93216089,11.4983633 C6.22316089,9.40736327 4.90416089,4.27336327 7.67216089,3.53436327 C13.2511609,2.04236327 18.8671609,1.21536327 24.5351609,1.86536327 C22.8241609,2.15836327 21.1641609,2.67036327 20.0841609,3.62836327 C18.9331609,4.64636327 23.7081609,2.11836327 21.8081609,3.73736327 C21.6921609,3.69836327 21.5701609,3.65836327 21.4521609,3.61736327 C20.8591609,3.43036327 20.5951609,4.07936327 20.8801609,4.46636327 C20.1341609,5.02036327 19.0431609,5.78736327 17.4901609,6.83936327 C16.3401609,7.61836327 14.8531609,7.82836327 13.5001609,8.03036327 C13.1531609,8.08536327 12.8901609,8.05236327 12.6711609,7.98336327 C13.0931609,7.82836327 13.4701609,7.63536327 13.7941609,6.98736327 C13.8991609,6.77936327 13.8631609,6.60236327 13.7131609,6.42136327 C12.2801609,4.73036327 9.31216089,7.72936327 10.5651609,8.76636327 C8.11816089,10.8533633 6.31716089,13.5253633 5.09316089,16.4723633 C5.39216089,14.8153633 5.70116089,13.1643633 5.93216089,11.4983633 Z M37.7461609,8.14136327 C38.3641609,7.95536327 38.1381609,9.11936327 38.0181609,9.37136327 C37.8091609,9.80436327 37.1961609,10.6773633 36.5791609,10.7853633 C36.2181609,10.5063633 35.8501609,10.2363633 35.4731609,9.97536327 C36.0841609,9.27136327 36.8391609,8.41536327 37.7461609,8.14136327 Z M44.1031609,23.0833633 C43.3981609,18.1193633 40.8981609,14.3883633 37.4551609,11.4873633 C38.8981609,10.7303633 39.9411609,8.66036327 38.8191609,7.47236327 C37.5051609,6.07936327 35.3601609,8.41636327 34.5291609,9.34736327 C30.8141609,6.96836327 26.4441609,5.25136327 22.1311609,3.84336327 C24.0351609,2.92336327 27.1331609,2.69236327 28.5581609,2.56536327 C29.1651609,2.51336327 29.3951609,1.63636327 28.7141609,1.49936327 C21.2841609,0.0113632692 13.9241609,1.03536327 6.71216089,2.96036327 C5.17516089,3.37536327 4.60616089,4.10536327 4.68416089,5.55936327 C4.79216089,7.57936327 5.23816089,9.42636327 5.09016089,11.4913633 C4.93616089,13.6733633 4.68916089,15.8453633 4.50116089,18.0233633 C4.50116089,18.0273633 4.50516089,18.0303633 4.50516089,18.0353633 C4.39116089,18.3763633 4.27116089,18.7163633 4.17116089,19.0593633 C4.16516089,19.0563633 4.16116089,19.0523633 4.15616089,19.0493633 C3.37816089,18.6803633 2.57916089,18.3613633 1.70616089,18.2613633 C0.87516089,18.1733633 0.0141608902,18.6953633 0,19.5363633 C-0.0228391098,20.9103633 2.42616089,21.2273633 3.46916089,21.1223633 C3.58016089,21.1133633 3.62616089,20.9473633 3.49816089,20.9273633 C3.07316089,20.8663633 2.65916089,20.7123633 2.27216089,20.5423633 C1.90216089,20.3793633 1.27616089,20.1103633 1.12016089,19.7203633 C0.93916089,19.2693633 1.75616089,19.3633633 1.96416089,19.4043633 C2.52816089,19.5163633 3.06316089,19.7563633 3.57716089,20.0013633 C3.69116089,20.0543633 3.80016089,20.0593633 3.90316089,20.0493633 C2.75516089,24.7223633 2.89716089,29.7473633 4.23016089,34.0983633 C7.13916089,43.5833633 16.9951609,47.0033633 26.5221609,44.8003633 C36.5841609,42.4753633 45.5621609,33.3223633 44.1031609,23.0833633 L44.1031609,23.0833633 Z" id="Fill-131"></path>
                <path d="M15.1001609,17.6503633 C14.3641609,17.6503633 13.7441609,18.2203633 13.7381609,18.9213633 C13.7321609,19.6153633 14.3431609,20.2083633 15.0801609,20.2083633 C15.8181609,20.2083633 16.4361609,19.6393633 16.4431609,18.9383633 C16.4481609,18.2463633 15.8361609,17.6503633 15.1001609,17.6503633" id="Fill-132"></path>
                <path d="M26.0701609,16.1453633 C26.0671609,16.1313633 26.0621609,16.1153633 26.0601609,16.1003633 C25.7881609,14.8563633 23.7841609,14.8993633 23.4761609,16.0933633 C23.4691609,16.1083633 23.4641609,16.1243633 23.4611609,16.1393633 C23.2541609,16.9363633 23.8661609,17.7503633 24.7551609,17.7523633 C25.6741609,17.7613633 26.2451609,16.9523633 26.0701609,16.1453633" id="Fill-133"></path>
                <path d="M14.1531609,14.7623633 C14.1561609,14.9313633 13.7531609,15.3203633 13.5541609,15.5133633 C13.2211609,15.8433633 12.8561609,16.1413633 12.5451609,16.4893633 C12.5061609,16.5333633 12.5541609,16.5913633 12.6091609,16.5673633 C13.4571609,16.1813633 14.9941609,16.0033633 15.4191609,15.0873633 C15.8901609,14.0703633 14.1441609,13.7793633 14.1531609,14.7623633" id="Fill-134"></path>
                <path d="M25.7891609,13.3623633 C25.3781609,13.3953633 24.8631609,13.1173633 24.5101609,12.9533633 C24.1141609,12.7693633 23.7491609,12.5413633 23.4611609,12.2233633 C22.8411609,11.5483633 21.8591609,12.8063633 22.7001609,13.1683633 C23.1821609,13.3723633 23.6711609,13.4623633 24.1971609,13.5013633 C24.7241609,13.5403633 25.2761609,13.3773633 25.7891609,13.4363633 C25.8391609,13.4423633 25.8411609,13.3583633 25.7891609,13.3623633" id="Fill-135"></path>
                <path d="M24.3381609,25.1493633 C23.8031609,25.1763633 23.2881609,25.2943633 22.7531609,25.3213633 C22.6211609,25.3283633 22.4631609,25.4063633 22.4421609,25.5443633 C22.3491609,26.1433633 22.3321609,27.0513633 21.7661609,27.4513633 C21.1071609,27.9133633 20.1661609,27.3513633 19.9451609,26.7463633 C19.8221609,26.4003633 19.7421609,26.0523633 19.6041609,25.7123633 C19.5791609,25.6493633 19.5261609,25.5943633 19.4491609,25.5973633 C18.8261609,25.6323633 18.2691609,25.7003633 17.6991609,25.9433633 C17.6291609,25.9743633 17.6771609,26.0843633 17.7501609,26.0633633 C18.3241609,25.8813633 19.2761609,25.5973633 19.4281609,26.3373633 C19.4981609,26.6703633 19.5051609,27.0553633 19.6811609,27.3623633 C20.0471609,28.0013633 20.6631609,28.1523633 21.3941609,28.2033633 C21.9681609,28.2383633 22.6341609,27.8913633 22.8301609,27.3673633 C22.9691609,26.9933633 23.0111609,26.6293633 23.0421609,26.2383633 C23.0861609,25.6653633 23.8661609,25.6723633 24.3971609,25.5923633 C24.6641609,25.5543633 24.6031609,25.1353633 24.3381609,25.1493633" id="Fill-136"></path>
                <path d="M34.5981609,23.5213633 C33.1321609,34.7053633 19.5561609,36.3313633 10.7681609,31.4693633 C10.6901609,31.4263633 10.6281609,31.5343633 10.6991609,31.5803633 C19.9121609,37.5683633 33.9231609,35.5503633 34.9401609,23.5253633 C34.9581609,23.3163633 34.6251609,23.3213633 34.5981609,23.5213633" id="Fill-137"></path>
            </g>
        </g>
    </g>
</svg>