<?xml version="1.0" encoding="UTF-8"?>
<svg width="68px" height="48px" viewBox="0 0 68 48" version="1.1" xmlns="http://www.w3.org/2000/svg" xmlns:xlink="http://www.w3.org/1999/xlink">
    <title>Group 49</title>
    <g id="Page-1" stroke="none" stroke-width="1" fill="none" fill-rule="evenodd">
        <g id="vectorstock_1327683" transform="translate(-245.000000, -305.000000)" fill="#1B1A19">
            <g id="Group-49" transform="translate(245.371548, 305.573993)">
                <path d="M56.1234522,11.4380065 C55.6374522,11.5690065 55.7044522,12.1460065 56.1234522,12.3060065 C57.7804522,12.9280065 59.5884522,13.1360065 61.2004522,13.8490065 C59.4814522,15.2500065 58.8554522,17.4750065 58.4234522,19.7180065 C57.1974522,13.2740065 52.3564522,7.65800653 46.0364522,4.38800653 C52.5024522,5.45400653 59.4654522,6.85600653 64.7324522,10.3500065 C61.8424522,10.6140065 58.9364522,10.6780065 56.1234522,11.4380065 Z M60.2804522,20.2980065 C60.9014522,19.7550065 61.8554522,19.4330065 62.2984522,20.3090065 C62.9334522,21.5590065 62.3274522,23.6030065 61.7404522,24.7580065 C61.4714522,25.2880065 60.9924522,25.9770065 60.3154522,26.0550065 C59.5904522,26.1390065 58.9924522,25.3160065 58.6244522,24.7120065 C58.6864522,24.1370065 58.7234522,23.5660065 58.7244522,22.9960065 C58.9634522,22.5050065 59.1244522,21.9830065 59.2544522,21.4490065 C59.5484522,21.0130065 59.9114522,20.6160065 60.2804522,20.2980065 Z M9.48745219,21.9970065 C8.90545219,23.3480065 8.09945219,23.1910065 7.40845219,22.0080065 C6.49245219,20.4280065 6.89145219,18.4060065 7.97445219,16.9870065 C8.74545219,17.1040065 9.50845219,17.2230065 10.2834522,17.2750065 C9.91345219,18.7450065 9.72645219,20.2640065 9.68145219,21.7980065 C9.60145219,21.8420065 9.52845219,21.9010065 9.48745219,21.9970065 Z M66.1544522,10.2900065 C60.3834522,6.04200653 52.4184522,4.55500653 45.1084522,3.93200653 C44.9734522,3.86700653 44.8384522,3.80000653 44.7014522,3.73900653 C40.1654522,1.69700653 34.4464522,0.0090065302 29.4034522,-1.0658141e-14 C29.0954522,-0.0019934698 29.0414522,0.45600653 29.3164522,0.55300653 C31.9824522,1.50700653 34.8324522,1.93100653 37.5574522,2.72800653 C40.6804522,3.63800653 43.7044522,4.87200653 46.4754522,6.51900653 C47.2824522,7.00300653 48.0514522,7.52800653 48.7894522,8.09300653 C48.0044522,7.91300653 47.1664522,7.83600653 46.2914522,7.82900653 C42.5114522,7.79000653 38.8644522,9.02800653 35.3914522,7.48000653 C36.1914522,7.32900653 36.9994522,7.19100653 37.7924522,6.98800653 C38.2554522,6.87100653 38.2754522,6.22000653 37.8614522,6.04000653 C35.6344522,5.05000653 33.3164522,4.92800653 30.8874522,4.88000653 C29.8644522,4.85800653 27.0344522,5.38700653 29.1444522,3.64400653 C30.0574522,2.89100653 31.2844522,2.43600653 32.3274522,1.86500653 C32.4044522,1.82200653 32.4264522,1.69800653 32.3334522,1.65500653 C31.0404522,1.01600653 29.7014522,0.83600653 28.2724522,0.61700653 C28.2344522,0.61100653 28.2284522,0.66300653 28.2604522,0.66900653 C29.1204522,0.77100653 29.9604522,0.94900653 30.7864522,1.20400653 C32.8714522,1.77200653 30.6794522,2.33600653 30.2184522,2.54100653 C28.9804522,3.09200653 28.0414522,3.75400653 27.3014522,4.83900653 C27.1764522,5.02400653 27.2564522,5.27900653 27.5034522,5.31600653 C30.2124522,5.72500653 33.0654522,5.63400653 35.7064522,6.36400653 C35.0304522,6.48700653 34.3524522,6.60500653 33.6854522,6.76700653 C33.2914522,6.86500653 33.1694522,7.45100653 33.5074522,7.67200653 C35.9714522,9.29300653 38.5744522,9.56400653 41.5094522,9.36500653 C45.2064522,9.11400653 48.1034522,8.73000653 51.2634522,10.2800065 C53.8894522,12.9690065 55.7634522,16.2590065 56.4984522,19.9280065 C58.4514522,29.6690065 50.5094522,38.5330065 41.7324522,42.4040065 C31.6374522,46.8620065 20.0444522,44.0290065 14.4554522,34.7060065 C11.4444522,29.6840065 10.7064522,23.3780065 11.7374522,17.7560065 C12.9884522,10.9410065 18.0284522,6.20400653 23.8214522,2.38400653 C23.8464522,2.36500653 23.8214522,2.32000653 23.7934522,2.33800653 C18.4284522,5.26000653 13.7694522,8.87900653 11.2844522,14.3700065 C11.0094522,14.9800065 10.7744522,15.6080065 10.5714522,16.2480065 C10.0964522,16.1340065 9.61345219,16.0460065 9.13045219,15.9720065 C9.25745219,15.8830065 9.38745219,15.7950065 9.52545219,15.7110065 C9.98045219,15.4410065 9.74445219,14.7200065 9.23945219,14.6730065 C7.29345219,14.4940065 5.36645219,14.7890065 3.42845219,14.7620065 C5.52445219,12.7870065 8.98045219,12.3660065 11.0714522,10.2740065 C11.4604522,9.88600653 10.9944522,9.30000653 10.5104522,9.34000653 C9.47345219,9.42900653 8.44145219,9.50500653 7.41445219,9.53500653 C9.85945219,8.82700653 12.2864522,8.11400653 14.5544522,6.94300653 C15.0184522,6.70400653 14.7644522,6.01600653 14.3084522,5.94700653 C10.2044522,5.31900653 6.17945219,6.92800653 2.12345219,6.60900653 C10.1524522,2.88800653 19.6114522,-0.20799347 28.5784522,0.45100653 C28.6134522,0.45400653 28.6194522,0.40300653 28.5844522,0.39900653 C18.8674522,-0.82399347 8.85245219,2.43700653 0.236452187,6.45700653 C-0.159547813,6.64100653 -0.0195478133,7.22300653 0.371452187,7.31200653 C4.24445219,8.17900653 8.07045219,6.85200653 11.9414522,6.87500653 C9.25245219,7.91300653 6.40345219,8.55200653 3.64945219,9.45000653 C3.06745219,9.64200653 3.19945219,10.5010065 3.79245219,10.5680065 C5.44045219,10.7570065 7.06045219,10.7380065 8.69445219,10.6410065 C6.34245219,12.0750065 3.32045219,12.5660065 1.69145219,14.9270065 C1.45145219,15.2730065 1.60245219,15.8100065 2.09245219,15.8570065 C3.85845219,16.0300065 5.60745219,15.8020065 7.35945219,15.7710065 C7.30945219,15.8060065 7.26045219,15.8440065 7.20745219,15.8770065 C6.73545219,16.1560065 7.00445219,16.8420065 7.49245219,16.9140065 C7.55745219,16.9230065 7.62145219,16.9330065 7.68745219,16.9430065 C5.93145219,18.4420065 5.56245219,20.7870065 6.72445219,22.8460065 C7.13245219,23.5680065 7.82645219,24.1250065 8.70845219,24.1420065 C9.11545219,24.1510065 9.43845219,23.9680065 9.69845219,23.7040065 C9.82645219,26.3720065 10.3574522,29.0310065 11.1434522,31.4650065 C14.4494522,41.7130065 24.5674522,47.6540065 35.6674522,46.0830065 C45.4984522,44.6870065 54.5374522,37.6340065 57.7044522,28.7240065 C58.0284522,27.8140065 58.2664522,26.9090065 58.4344522,26.0080065 C58.7634522,26.4440065 59.1814522,26.8020065 59.7594522,26.9880065 C60.5984522,27.2570065 61.4384522,26.7250065 61.9624522,26.1600065 C63.2834522,24.7310065 63.8244522,21.9320065 63.1564522,20.1490065 C62.6904522,18.8990065 61.3734522,18.7050065 60.2744522,19.3570065 C59.9864522,19.5260065 59.7454522,19.7380065 59.5334522,19.9710065 C59.8774522,17.7490065 60.0744522,15.4990065 62.3014522,14.1630065 C62.5924522,13.9860065 62.6134522,13.5760065 62.3024522,13.4000065 C60.9664522,12.6500065 59.4624522,12.3440065 57.9894522,11.9440065 C60.6344522,11.4490065 63.3494522,11.3850065 66.0284522,11.0640065 C66.4664522,11.0130065 66.4224522,10.4860065 66.1544522,10.2900065 L66.1544522,10.2900065 Z" id="Fill-178"></path>
                <path d="M38.9574522,32.0360065 C38.9744522,31.8720065 38.7984522,31.6850065 38.6184522,31.8120065 C37.0624522,32.9080065 36.2014522,34.0140065 34.0764522,34.0680065 C33.1554522,34.0910065 32.2204522,33.9570065 31.2924522,33.7970065 C39.7764522,29.2540065 41.6374522,12.0530065 31.0024522,9.46000653 C30.9694522,9.45200653 30.9614522,9.50400653 30.9944522,9.51200653 C41.4524522,12.2470065 38.1564522,31.1270065 28.9894522,33.4890065 C28.3744522,33.6460065 28.5724522,34.4940065 29.1184522,34.5860065 C32.1344522,35.1000065 38.5014522,36.6350065 38.9574522,32.0360065" id="Fill-179"></path>
                <path d="M34.9664522,39.5950065 C32.3834522,41.2890065 28.0514522,40.1120065 25.8574522,38.2890065 C25.0754522,37.6420065 24.0164522,38.6930065 24.5794522,39.4600065 C26.7884522,42.4700065 32.6614522,42.4090065 35.0064522,39.6320065 C35.0244522,39.6080065 34.9914522,39.5800065 34.9664522,39.5950065" id="Fill-180"></path>
                <path d="M33.5334522,14.8930065 C33.0824522,14.2790065 31.8884522,13.5830065 31.1874522,14.1540065 C31.1224522,14.2060065 31.1134522,14.3140065 31.1594522,14.3790065 C31.2474522,14.4940065 31.3524522,14.5820065 31.4644522,14.6580065 C30.7054522,14.9600065 29.8994522,15.2550065 29.7124522,16.0950065 C29.6504522,16.3680065 29.7214522,16.6290065 29.8544522,16.8670065 C29.9004522,17.1640065 30.1074522,17.4280065 30.4254522,17.5810065 C30.4544522,17.5940065 30.4834522,17.6010065 30.5164522,17.6130065 C30.6314522,17.7140065 30.7464522,17.8090065 30.8544522,17.8930065 C31.4024522,18.3320065 32.2234522,17.9260065 32.3224522,17.3090065 L32.4934522,16.2790065 C32.5064522,16.1870065 32.5004522,16.0960065 32.4824522,16.0100065 C32.5104522,15.7910065 32.5194522,15.5750065 32.5144522,15.3690065 C32.5144522,15.2950065 32.4954522,15.2230065 32.4684522,15.1530065 C32.5274522,15.1910065 32.5854522,15.2330065 32.6414522,15.2800065 C33.2374522,15.8100065 33.2034522,16.7430065 33.0684522,17.4330065 C32.7404522,19.1120065 31.2614522,20.6780065 29.3814522,20.6410065 C27.1954522,20.5940065 26.0624522,19.1550065 26.7374522,17.2150065 C27.3314522,15.5020065 29.0694522,14.1640065 30.9104522,13.8400065 C31.0974522,13.8080065 31.0584522,13.5110065 30.8684522,13.5280065 C28.5144522,13.7430065 26.5124522,15.3590065 25.7154522,17.4410065 C24.8224522,19.7730065 26.8484522,21.3160065 29.1054522,21.5460065 C31.6014522,21.8030065 33.4594522,19.8090065 34.0014522,17.6700065 C34.2384522,16.7270065 34.1214522,15.6970065 33.5334522,14.8930065" id="Fill-181"></path>
                <path d="M48.1134522,21.9410065 C47.5124522,23.6500065 45.5104522,24.9760065 43.5884522,24.5460065 C42.0384522,24.2000065 42.5964522,22.0010065 42.9224522,21.0450065 C43.4134522,19.6040065 44.3264522,18.1300065 45.8254522,17.4790065 C45.8174522,17.5300065 45.8204522,17.5800065 45.8444522,17.6180065 C46.2164522,18.2550065 46.9634522,18.4090065 47.5434522,18.8500065 C47.2594522,18.8050065 46.9724522,18.7830065 46.6904522,18.8270065 C46.4844522,18.7520065 46.2614522,18.7660065 46.0534522,18.8430065 C45.8224522,18.8930065 45.5934522,18.9800065 45.4134522,19.1230065 C45.1234522,19.3510065 44.9584522,19.7080065 44.9734522,20.0570065 C44.9524522,20.2240065 44.9824522,20.3990065 45.0824522,20.5660065 C45.2274522,20.8040065 45.4024522,20.9840065 45.6154522,21.1690065 C45.8684522,21.3870065 46.0884522,21.5770065 46.4024522,21.7060065 C46.9354522,21.9200065 47.4874522,21.5720065 47.6754522,21.1100065 C47.8814522,20.8480065 48.0914522,20.5850065 48.2984522,20.3220065 C48.3094522,20.3080065 48.3134522,20.2940065 48.3214522,20.2790065 C48.3914522,20.8410065 48.2944522,21.4310065 48.1134522,21.9410065 Z M48.8114522,18.3910065 C48.2974522,17.6470065 47.1014522,16.8210065 46.1574522,17.1760065 C46.1574522,17.1760065 46.1574522,17.1730065 46.1534522,17.1750065 C43.9744522,17.5730065 42.3744522,19.6490065 41.8124522,21.5700065 C41.3184522,23.2430065 41.7724522,25.4470065 43.9654522,25.5820065 C46.6904522,25.7500065 48.8914522,23.8770065 49.4614522,21.4340065 C49.7104522,20.3700065 49.4304522,19.2850065 48.8114522,18.3910065 L48.8114522,18.3910065 Z" id="Fill-182"></path>
            </g>
        </g>
    </g>
</svg>