<?xml version="1.0" encoding="UTF-8"?>
<svg width="53px" height="55px" viewBox="0 0 53 55" version="1.1" xmlns="http://www.w3.org/2000/svg" xmlns:xlink="http://www.w3.org/1999/xlink">
    <title>Group 74</title>
    <g id="Page-1" stroke="none" stroke-width="1" fill="none" fill-rule="evenodd">
        <g id="vectorstock_1327683" transform="translate(-440.000000, -76.000000)" fill="#0A0B09">
            <g id="Group-74" transform="translate(440.052090, 76.385465)">
                <path d="M49.29991,28.6295347 C48.82991,30.1795347 47.95291,31.4515347 46.56991,32.3085347 C45.34691,33.0675347 43.75691,33.2685347 42.99891,32.1895347 C42.90191,31.0225347 42.84591,29.8485347 42.84291,28.6675347 C42.84291,28.4845347 42.57591,28.4895347 42.56191,28.6675347 C42.13391,34.1895347 42.35991,39.7745347 43.82091,45.1235347 C41.20391,45.4045347 38.59591,45.5585347 35.96891,45.7625347 C34.56891,45.8705347 33.14991,45.9765347 31.77791,46.2845347 C31.30191,46.3925347 30.89891,46.5185347 30.52991,46.6695347 C28.33891,46.5255347 25.82691,48.6765347 24.35391,49.8975347 C23.60591,50.5145347 22.44291,51.6715347 21.36591,51.5035347 C19.58291,51.2255347 18.51991,48.2215347 17.89991,46.8555347 C17.74991,46.5245347 17.34791,46.3595347 17.01091,46.3445347 C12.23191,46.1385347 7.39991,46.0955347 2.62191,45.7235347 C6.82291,41.2815347 9.22491,34.7615347 9.43291,28.7625347 C10.21991,29.1975347 11.12391,29.5165347 12.11591,29.6985347 C17.52091,30.6935347 22.43191,28.1315347 24.34091,22.9295347 C25.14091,20.7435347 25.04691,18.2795347 23.85891,16.2655347 C23.38791,15.4645347 22.66391,14.7415347 21.82091,14.2115347 C26.73891,14.6315347 31.72991,14.4185347 36.58491,15.3115347 C36.60691,15.3795347 36.63691,15.4405347 36.67891,15.4975347 C29.50591,15.8575347 24.38591,26.4895347 32.11691,30.4085347 C36.51891,32.6405347 41.29791,30.4635347 43.56091,26.3525347 C45.47491,22.8725347 45.47991,16.6355347 40.45791,16.0595347 C40.09991,16.0185347 39.97891,16.4965347 40.18391,16.7185347 C41.31891,17.9295347 42.61991,19.1035347 43.09491,20.7375347 C43.57891,22.4045347 43.08091,24.1325347 42.24291,25.5835347 C40.25591,29.0265347 36.20991,30.6015347 32.58091,28.8305347 C29.35591,27.2595347 28.88691,23.6655347 30.27791,20.6495347 C31.84591,17.2455347 35.49791,15.2765347 39.17391,16.0815347 C39.26091,16.0985347 39.32191,16.0495347 39.33991,15.9845347 C39.44091,15.9415347 39.53291,15.8755347 39.61091,15.7755347 C40.70191,14.3815347 41.85791,13.4465347 43.61591,13.0435347 C44.94591,12.7365347 46.52991,12.9715347 47.61491,13.8315347 C49.55491,15.3755347 49.89891,18.3475347 50.01691,20.6435347 C50.15391,23.2955347 50.07391,26.0765347 49.29991,28.6295347 Z M3.17691,26.6905347 C2.62191,23.6105347 3.50091,20.3435347 4.76591,17.5435347 C6.07091,14.6565347 8.05391,11.7855347 10.87591,10.2145347 C12.07491,9.54653466 13.47291,9.24453466 14.83591,9.48253466 C15.54691,9.60753466 16.20991,9.88953466 16.83691,10.2455347 C17.62691,10.6895347 18.15191,11.3315347 18.57491,12.1205347 C18.78391,12.5085347 18.88291,12.9315347 19.01791,13.3405347 C18.65891,13.3365347 18.29591,13.3725347 17.94291,13.4655347 C17.72491,13.5215347 17.71591,13.7965347 17.88591,13.9135347 C17.88591,13.9155347 17.88991,13.9175347 17.89391,13.9195347 C13.33591,14.0165347 8.50491,16.3535347 6.71191,20.7785347 C5.37691,24.0705347 6.52391,26.9275347 9.03291,28.5225347 C8.87491,29.3605347 8.68591,30.1885347 8.46791,31.0085347 C5.72291,30.8115347 3.69191,29.5555347 3.17691,26.6905347 Z M22.12691,17.2785347 C22.96691,18.8035347 22.79591,20.7735347 22.30291,22.3665347 C20.93091,26.7995347 16.52191,28.5235347 12.23091,27.8035347 C8.60791,27.1945347 6.84391,24.2865347 8.02691,20.8385347 C9.44091,16.7135347 13.90791,14.4005347 17.99791,13.9865347 C19.53091,15.0175347 21.16791,15.5425347 22.12691,17.2785347 Z M20.65691,8.75453466 C21.36291,7.39153466 21.87891,6.32553466 23.06791,5.28353466 C25.36291,3.27653466 28.96491,1.97453466 32.01191,2.58553466 C34.66391,3.11653466 36.94191,5.18353466 38.14891,7.53553466 C38.70391,8.62053466 38.92191,9.95553466 38.71991,11.1595347 C38.59991,11.8805347 38.27591,12.5115347 37.87491,13.1135347 C37.62091,13.4935347 37.28691,13.7685347 37.01091,14.0865347 C31.84691,12.6585347 26.09291,12.5915347 20.76191,13.2645347 C20.49491,11.7255347 19.87291,10.2715347 20.65691,8.75453466 Z M51.97991,21.2395347 C51.96391,17.9065347 51.26591,14.0445347 48.38091,11.9915347 C46.33791,10.5385347 43.19091,10.6705347 40.88391,11.9545347 C41.39491,10.3585347 41.24891,8.70953466 40.66291,7.13253466 C39.35591,3.63153466 36.05191,0.812534656 32.36991,0.151534656 C28.49591,-0.542465344 23.98991,1.22053466 21.24691,3.94353466 C19.97091,5.21053466 18.80691,7.03253466 18.84791,8.87653466 C18.85991,9.36153466 18.90091,9.86853466 18.98591,10.3655347 C18.23991,9.56053466 17.29991,8.91953466 16.44591,8.57453466 C15.02291,7.99853466 13.50991,7.91753466 12.02391,8.28953466 C8.79891,9.09953466 6.35191,11.9485347 4.67891,14.6615347 C2.09691,18.8545347 -1.34909,28.9225347 5.29491,31.3645347 C6.29191,31.7315347 7.34291,31.6385347 8.35491,31.4045347 C6.85291,36.7845347 4.04591,41.7135347 0.223910001,45.8055347 C-0.252089999,46.3155347 0.0739100013,47.1875347 0.795910001,47.1875347 C5.97591,47.1965347 11.15791,48.0495347 16.33291,48.3655347 C17.60291,51.1385347 19.75591,54.8455347 23.28291,53.2915347 C24.66591,52.6825347 25.86291,51.6305347 27.02391,50.6815347 C27.66691,50.1585347 28.35391,49.6995347 29.08091,49.3035347 C29.38591,49.1355347 29.71091,49.0265347 30.03791,48.9265347 C30.41091,48.9765347 30.78891,48.9865347 31.18791,48.9125347 C32.67091,48.6305347 34.13591,48.3215347 35.61391,48.0115347 C38.71291,47.3565347 41.78991,46.9645347 44.94591,46.7545347 C45.49191,46.7185347 45.97391,46.2185347 45.79291,45.6455347 C44.52991,41.6635347 43.57191,37.6205347 43.12391,33.4985347 C43.45991,33.8315347 43.92691,34.0505347 44.53091,34.0915347 C46.39391,34.2185347 48.10491,33.5445347 49.33791,32.1475347 C51.82991,29.3255347 51.99991,24.8135347 51.97991,21.2395347 L51.97991,21.2395347 Z" id="Fill-347"></path>
                <path d="M17.46391,24.9185347 C16.57591,24.9185347 16.57591,23.5395347 17.46391,23.5395347 C18.35191,23.5395347 18.35191,24.9185347 17.46391,24.9185347 Z M16.76091,23.0695347 C15.61291,23.0695347 14.65491,24.0275347 14.65491,25.1755347 C14.65491,26.3215347 15.61291,27.2805347 16.76091,27.2805347 C17.90691,27.2805347 18.86691,26.3215347 18.86691,25.1755347 C18.86691,24.0275347 17.90691,23.0695347 16.76091,23.0695347 L16.76091,23.0695347 Z" id="Fill-348"></path>
                <path d="M33.50891,26.3425347 C32.64191,26.3425347 32.64191,25.0005347 33.50891,25.0005347 C34.37091,25.0005347 34.37091,26.3425347 33.50891,26.3425347 Z M32.97491,24.2085347 C31.90191,24.2085347 31.01091,25.1025347 31.01091,26.1735347 C31.01091,27.2425347 31.90191,28.1375347 32.97491,28.1375347 C34.04691,28.1375347 34.94091,27.2425347 34.94091,26.1735347 C34.94091,25.1025347 34.04691,24.2085347 32.97491,24.2085347 L32.97491,24.2085347 Z" id="Fill-349"></path>
                <path d="M27.03991,30.2145347 C26.62291,30.7205347 26.17191,31.1955347 25.74491,31.6925347 C25.53391,31.9395347 25.35791,32.2205347 25.18391,32.5065347 C24.77991,31.9275347 24.43091,31.3125347 24.10491,30.6785347 C23.65791,29.8055347 23.38491,28.9295347 22.69591,28.2195347 C22.52791,28.0475347 22.20891,28.1735347 22.21791,28.4175347 C22.28291,30.2965347 23.55691,32.5145347 24.67391,33.9865347 C24.99491,34.4075347 25.48891,34.4005347 25.80691,33.9865347 C26.67491,32.8645347 27.15091,31.8585347 27.50791,30.4875347 C27.57391,30.2335347 27.22491,29.9865347 27.03991,30.2145347" id="Fill-350"></path>
                <path d="M41.75291,37.4775347 C39.36291,36.9605347 36.98791,37.0965347 34.52991,37.0965347 C31.88091,37.0965347 29.23491,37.0945347 26.58891,37.1395347 C21.06291,37.2325347 15.54091,37.3995347 10.02591,37.7565347 C9.84591,37.7675347 9.84391,38.0415347 10.02591,38.0355347 C15.30591,37.8915347 20.58691,37.9235347 25.86591,38.0165347 C28.51291,38.0645347 31.15891,38.1045347 33.80791,38.1355347 C36.49191,38.1685347 39.14091,38.3765347 41.75291,37.8155347 C41.91891,37.7795347 41.91891,37.5135347 41.75291,37.4775347" id="Fill-351"></path>
                <path d="M21.25091,11.1375347 C21.16191,11.1375347 21.16191,11.2765347 21.25091,11.2765347 C21.34191,11.2765347 21.34191,11.1375347 21.25091,11.1375347" id="Fill-352"></path>
                <path d="M32.86491,40.1335347 C30.81391,39.4155347 27.85691,39.8675347 25.71391,40.0815347 C23.14691,40.3355347 20.57991,40.5885347 18.00791,40.7845347 C17.87391,40.7945347 17.87291,40.9845347 18.00791,40.9955347 C20.57691,41.1795347 23.14491,41.3075347 25.71391,41.4315347 C27.87591,41.5365347 30.81891,41.8755347 32.86491,41.1465347 C33.36491,40.9705347 33.36791,40.3085347 32.86491,40.1335347" id="Fill-353"></path>
            </g>
        </g>
    </g>
</svg>