<?xml version="1.0" encoding="UTF-8"?>
<svg width="55px" height="48px" viewBox="0 0 55 48" version="1.1" xmlns="http://www.w3.org/2000/svg" xmlns:xlink="http://www.w3.org/1999/xlink">
    <title>Group 15</title>
    <g id="Page-1" stroke="none" stroke-width="1" fill="none" fill-rule="evenodd">
        <g id="vectorstock_1327683" transform="translate(-8.000000, -249.000000)" fill="#1B1A19">
            <g id="Group-15" transform="translate(8.353534, 249.067474)">
                <path d="M43.4434657,37.5685255 C38.5114657,42.3125255 31.4334657,45.4205255 24.3184657,44.8265255 C20.7044657,44.5245255 17.3484657,43.0885255 14.5804657,40.8975255 C12.2224657,39.0295255 10.7574657,36.2805255 9.9024657,33.5325255 C9.0304657,30.7305255 8.7294657,27.7475255 8.9514657,24.8005255 C9.0754657,24.6945255 9.1994657,24.5875255 9.3174657,24.4755255 C9.7144657,24.1065255 9.7634657,23.5775255 9.5714657,23.1605255 C10.5044657,22.7345255 10.2964657,21.7485255 9.6254657,21.3035255 C9.6634657,21.1045255 9.6544657,20.8955255 9.5994657,20.6995255 C9.8804657,19.5465255 10.2414657,18.4145255 10.6784657,17.3185255 C11.9174657,14.2305255 14.0124657,11.3015255 16.8284657,9.36552552 C17.3314657,9.56352552 17.8524657,9.40652552 18.1754657,9.04452552 C18.5724657,8.99452552 18.9554657,8.89252552 19.3244657,8.74852552 C19.6044657,8.88952552 19.9484657,8.89752552 20.2044657,8.63852552 C20.2454657,8.59452552 20.2824657,8.55252552 20.3184657,8.50852552 C20.3464657,8.53252552 20.3714657,8.55752552 20.3984657,8.58152552 C20.8824657,8.96052552 21.6084657,8.52752552 21.6544657,8.00052552 C21.7314657,7.98452552 21.8074657,7.95752552 21.8734657,7.91652552 C21.8884657,7.94852552 21.9014657,7.97852552 21.9144657,8.01252552 C22.2064657,8.77952552 23.3604657,8.38652552 23.4354657,7.70652552 C23.4484657,7.57352552 23.4684657,7.44452552 23.4934657,7.31652552 C23.8514657,7.48352552 24.3054657,7.35152552 24.5434657,7.02952552 C24.9444657,7.13252552 25.4794657,6.93552552 25.6544657,6.54752552 C25.7164657,6.40352552 25.7864657,6.26452552 25.8554657,6.12552552 C26.1904657,6.50552552 26.8294657,6.60352552 27.1864657,6.08152552 C27.2774657,5.94752552 27.3784657,5.81952552 27.4774657,5.69452552 C27.7194657,5.82052552 28.0144657,5.85152552 28.2654657,5.74952552 C28.6284657,5.94752552 29.0944657,5.92752552 29.3894657,5.55252552 C32.5594657,6.41852552 35.7414657,7.29652552 38.7074657,8.65852552 C38.8514657,8.77152552 39.0214657,8.85152552 39.2084657,8.89752552 C39.4684657,9.02152552 39.7254657,9.15252552 39.9814657,9.28552552 C40.2034657,9.58652552 40.5684657,9.79852552 40.9684657,9.82752552 C40.9774657,9.83152552 40.9874657,9.83752552 40.9974657,9.84252552 C41.1864657,9.95152552 41.3694657,10.0655255 41.5544657,10.1785255 C41.1954657,10.7925255 41.7844657,11.3795255 42.3654657,11.3565255 C42.3824657,11.8025255 42.7404657,12.1235255 43.1484657,12.1635255 C43.2514657,12.5175255 43.5874657,12.8035255 44.0134657,12.7765255 C44.1544657,12.8485255 44.3104657,12.8985255 44.4724657,12.9155255 C44.5754657,13.3875255 45.0804657,13.7305255 45.5924657,13.5465255 C45.8344657,13.8145255 46.0704657,14.0905255 46.2954657,14.3725255 C46.2324657,14.6375255 46.3224657,14.8825255 46.4934657,15.0605255 C46.5364657,15.2625255 46.6534657,15.4415255 46.8094657,15.5685255 C46.8264657,15.7325255 46.8974657,15.8845255 47.0104657,16.0075255 C46.8514657,16.5105255 47.1994657,16.9365255 47.6504657,17.0385255 C47.5624657,17.4365255 47.8194657,17.8425255 48.1904657,18.0195255 C48.2404657,18.1845255 48.3434657,18.3385255 48.4804657,18.4615255 C48.4574657,18.6205255 48.4864657,18.7755255 48.5504657,18.9125255 C48.5014657,19.3255255 48.7944657,19.6665255 49.1834657,19.8275255 C51.1294657,26.2875255 48.2754657,32.9255255 43.4434657,37.5685255 Z M52.8114657,14.6875255 C53.5554657,13.9815255 53.0874657,12.4675255 51.8634657,12.8265255 C51.6684657,12.8835255 51.4734657,12.9385255 51.2784657,12.9915255 C51.3314657,12.9115255 51.3874657,12.8265255 51.4474657,12.7475255 C52.0844657,11.8635255 51.1854657,10.8735255 50.1854657,11.0005255 C50.0734657,11.0145255 49.9604657,11.0225255 49.8484657,11.0265255 C49.8984657,10.9715255 49.9474657,10.9135255 49.9994657,10.8635255 C50.7074657,10.2035255 50.3854657,8.85652552 49.2604657,8.85452552 C49.2134657,8.85452552 49.1694657,8.85852552 49.1234657,8.86052552 C49.2004657,8.67452552 49.2634657,8.48352552 49.3114657,8.28052552 C49.4914657,7.50452552 49.0654657,6.83752552 48.2074657,6.73352552 C47.2844657,6.62452552 46.4604657,6.78852552 45.6564657,7.04752552 C45.6944657,6.86152552 45.7274657,6.67352552 45.7494657,6.47752552 C45.8504657,5.53652552 44.8054657,5.05952552 43.9864657,5.33152552 C43.8244657,4.62152552 42.9994657,4.23652552 42.2434657,4.54052552 C42.1584657,3.74452552 41.2254657,3.03052552 40.4724657,3.53552552 C40.2714657,2.76052552 39.2614657,2.16052552 38.5714657,2.89052552 C38.4444657,3.02652552 38.3154657,3.16052552 38.1874657,3.29352552 C38.0984657,2.52152552 36.8914657,1.95552552 36.2584657,2.60452552 C36.0764657,2.78552552 35.8814657,2.94252552 35.6744657,3.08752552 C35.3654657,2.40952552 34.4294657,2.17152552 33.8324657,2.76452552 C33.9204657,2.05952552 33.3364657,1.60352552 32.7104657,1.62352552 C32.8184657,0.599525521 31.3944657,-0.117474479 30.7164657,0.875525521 C30.6584657,0.961525521 30.5984657,1.04252552 30.5344657,1.12052552 C30.2574657,0.205525521 28.9374657,-0.026474479 28.4674657,0.949525521 C28.4534657,0.905525521 28.4374657,0.864525521 28.4224657,0.819525521 C28.1504657,-0.00547447897 26.9794657,-0.348474479 26.4214657,0.461525521 C26.3474657,0.567525521 26.2784657,0.675525521 26.2104657,0.785525521 C25.8224657,0.00252552103 24.3894657,-0.302474479 24.1324657,0.777525521 C24.0754657,1.01652552 24.0224657,1.25752552 23.9644657,1.49652552 C23.3974657,1.13952552 22.4854657,1.24052552 22.3074657,1.98452552 C22.1854657,2.50852552 22.0664657,3.03152552 21.9384657,3.55352552 C21.7944657,3.30752552 21.6534657,3.05752552 21.5104657,2.80752552 C21.0334657,1.95452552 19.7994657,2.15752552 19.5014657,2.96852552 C18.9434657,2.50452552 17.8764657,2.62452552 17.6794657,3.40352552 C17.6534657,3.50352552 17.6294657,3.60552552 17.6084657,3.70652552 C16.9644657,3.56052552 16.2014657,3.88752552 16.1144657,4.65052552 C16.0824657,4.59952552 16.0524657,4.55052552 16.0214657,4.49852552 C15.3274657,3.35752552 13.7614657,3.93652552 13.7344657,5.10352552 C13.0534657,4.99752552 12.2764657,5.41352552 12.2424657,6.18452552 C12.2324657,6.33152552 12.2294657,6.48152552 12.2264657,6.62752552 C11.6904657,6.45752552 11.0864657,6.78052552 10.7794657,7.26852552 C9.8914657,6.90852552 8.7084657,7.47552552 8.9884657,8.56052552 C9.0364657,8.75152552 9.0934657,8.94252552 9.1534657,9.13052552 C9.0524657,9.05252552 8.9514657,8.97552552 8.8484657,8.89952552 C7.8734657,8.18052552 6.4694657,9.41252552 7.0734657,10.3985255 C7.1294657,10.4945255 7.1864657,10.5885255 7.2434657,10.6835255 C6.2404657,10.5155255 5.4634657,11.7575255 6.1534657,12.6305255 C6.2414657,12.7445255 6.3334657,12.8565255 6.4284657,12.9695255 C6.1144657,12.7855255 5.7944657,12.6145255 5.4814657,12.4585255 C4.3654657,11.9075255 2.8304657,13.2305255 3.9204657,14.1655255 C4.6264657,14.7705255 5.3734657,15.2105255 6.1664657,15.5705255 C6.2144657,15.6125255 6.2644657,15.6575255 6.3134657,15.7005255 C5.9394657,15.5955255 5.5624657,15.4945255 5.1924657,15.3765255 C4.8824657,15.2575255 4.5754657,15.1435255 4.2634657,15.0415255 C2.9974657,14.6375255 2.3374657,15.9685255 2.9174657,16.7975255 C2.6074657,16.8425255 2.3724657,16.9825255 2.2164657,17.1695255 C1.2134657,17.4655255 0.911465703,19.0085255 2.1634657,19.4285255 C2.6014657,19.5775255 3.0514657,19.7135255 3.5004657,19.8485255 C3.2404657,19.8895255 2.9834657,19.9315255 2.7244657,19.9755255 C1.9344657,20.1025255 1.6594657,20.8195255 1.8264657,21.4195255 C1.5454657,21.5145255 1.2614657,21.6135255 0.980465703,21.7155255 C-0.0345342972,22.0815255 0.260465703,23.2785255 1.0274657,23.6895255 C0.729465703,24.2115255 0.854465703,24.9205255 1.4244657,25.2105255 C1.0254657,25.5255255 0.915465703,26.0355255 1.0294657,26.4675255 C0.982465703,26.4905255 0.934465703,26.5125255 0.888465703,26.5335255 C0.311465703,26.8195255 0.167465703,27.3815255 0.320465703,27.8545255 C-0.428534297,28.5855255 0.216465703,29.9305255 1.4164657,29.7355255 C1.6744657,29.6955255 1.9284657,29.6415255 2.1804657,29.5735255 C1.9144657,29.8025255 1.6554657,30.0325255 1.4064657,30.2695255 C0.576465703,31.0645255 1.2094657,32.1535255 2.1784657,32.1995255 C2.0914657,32.3315255 2.0104657,32.4675255 1.9334657,32.6045255 C1.5254657,33.3365255 2.0594657,34.5085255 3.0934657,34.2145255 C3.2894657,34.1585255 3.4824657,34.0985255 3.6724657,34.0375255 C3.5744657,34.6505255 3.9944657,35.3595255 4.7684657,35.1025255 C4.8724657,35.0685255 4.9744657,35.0355255 5.0774657,35.0025255 C4.8964657,35.2215255 4.7164657,35.4415255 4.5404657,35.6645255 C4.1174657,36.1935255 4.7164657,37.0875255 5.4154657,36.8745255 C5.7944657,36.7575255 6.1614657,36.6255255 6.5214657,36.4795255 C6.5784657,36.7005255 6.8224657,36.8525255 7.0854657,36.8155255 C7.0884657,36.8185255 7.0884657,36.8215255 7.0884657,36.8265255 C7.2184657,36.7925255 7.3384657,36.7485255 7.4534657,36.6925255 C8.0634657,36.4585255 8.6584657,36.2145255 9.2264657,35.9175255 C9.3604657,36.2525255 9.4994657,36.5775255 9.6464657,36.9005255 C12.4364657,42.9435255 19.0594657,46.4515255 25.8834657,46.6185255 C33.0564657,46.7925255 40.1674657,43.5235255 45.0804657,38.6935255 C50.0024657,33.8545255 52.8634657,27.1225255 51.3394657,20.4105255 C51.6584657,20.2375255 51.9724657,20.0605255 52.2814657,19.8705255 C52.2984657,19.8695255 52.3164657,19.8695255 52.3344657,19.8695255 C52.6404657,19.8495255 52.8344657,19.6645255 52.9204657,19.4475255 C53.1614657,19.2515255 53.2474657,18.9325255 53.2274657,18.6375255 C53.3774657,18.1895255 52.9484657,17.7485255 52.4834657,17.7305255 C52.6354657,17.6375255 52.7874657,17.5435255 52.9404657,17.4575255 C53.2894657,17.2625255 53.4734657,16.8165255 53.4074657,16.4465255 C53.4794657,16.3935255 53.5584657,16.3395255 53.6304657,16.2835255 C54.3544657,15.7375255 53.7264657,14.4345255 52.8114657,14.6875255 L52.8114657,14.6875255 Z" id="Fill-76"></path>
                <path d="M21.0024657,18.0645255 C18.7954657,18.0645255 18.7954657,21.3005255 21.0024657,21.3005255 C23.2064657,21.3005255 23.2064657,18.0645255 21.0024657,18.0645255" id="Fill-77"></path>
                <path d="M31.3374657,14.2575255 C29.1344657,14.2575255 29.1344657,17.4945255 31.3374657,17.4945255 C33.5434657,17.4945255 33.5434657,14.2575255 31.3374657,14.2575255" id="Fill-78"></path>
                <path d="M31.6234657,22.5215255 C31.1814657,21.3195255 29.7734657,19.7825255 28.3764657,20.8405255 C27.1414657,21.7745255 27.1154657,23.6365255 27.4524657,24.9625255 C27.5714657,25.4275255 28.4164657,25.3355255 28.3514657,24.8455255 C28.2224657,23.8815255 28.3514657,22.8585255 28.8864657,22.0125255 C29.5264657,21.0035255 30.2184657,22.4705255 30.5414657,22.9545255 C30.8864657,23.4755255 31.8514657,23.1435255 31.6234657,22.5215255" id="Fill-79"></path>
                <path d="M34.7444657,31.0905255 C33.8054657,31.4875255 32.8134657,31.9315255 31.7984657,31.9935255 C30.5304657,32.0715255 29.8364657,30.7005255 29.3914657,29.6955255 C30.7114657,29.1315255 32.0334657,28.5685255 33.3494657,28.0015255 C34.0034657,28.9575255 34.4464657,29.9925255 34.7444657,31.0905255 Z M42.1364657,22.8225255 C33.9854657,25.5595255 25.6344657,29.7255255 18.6084657,34.4775255 C18.4154657,34.6085255 18.5894657,34.9075255 18.7974657,34.7855255 C21.8984657,32.9875255 25.1824657,31.5085255 28.4904657,30.0825255 C29.0244657,31.2645255 29.7204657,32.5045255 31.0884657,32.8865255 C32.5174657,33.2855255 34.2364657,32.3385255 35.4964657,31.8435255 C35.7714657,31.7345255 35.9264657,31.5265255 35.8604657,31.2385255 C35.5584657,29.9145255 35.0434657,28.7185255 34.2434657,27.6085255 C37.0584657,26.3765255 39.8324657,25.0855255 42.4694657,23.5655255 C42.8744657,23.3325255 42.6104657,22.6625255 42.1364657,22.8225255 L42.1364657,22.8225255 Z" id="Fill-80"></path>
            </g>
        </g>
    </g>
</svg>