<?xml version="1.0" encoding="UTF-8"?>
<svg width="48px" height="55px" viewBox="0 0 48 55" version="1.1" xmlns="http://www.w3.org/2000/svg" xmlns:xlink="http://www.w3.org/1999/xlink">
    <title>Group 3</title>
    <g id="Page-1" stroke="none" stroke-width="1" fill="none" fill-rule="evenodd">
        <g id="vectorstock_1327683" transform="translate(-73.000000, -71.000000)" fill="#1B1A19">
            <g id="Group-3" transform="translate(73.925074, 71.697990)">
                <path d="M36.6599261,18.0820103 C36.6329261,17.7240103 36.2419261,17.4420103 35.8899261,17.4150103 C35.4389261,17.3780103 35.0249261,17.6970103 34.9709261,18.1190103 C34.8639261,18.3410103 34.8519261,18.6010103 34.9709261,18.8310103 C35.0729261,19.0330103 35.2609261,19.1870103 35.4829261,19.2580103 C35.7999261,19.3570103 36.0699261,19.2640103 36.3319261,19.0970103 C36.6949261,18.8670103 36.6859261,18.4390103 36.6599261,18.0820103" id="Fill-230"></path>
                <path d="M24.3729261,25.5880103 C22.8599261,27.3630103 20.9919261,26.5900103 19.9609261,24.8630103 C19.0029261,23.2610103 18.9889261,21.2860103 19.8839261,19.6750103 C19.8889261,19.7360103 19.8949261,19.7940103 19.9039261,19.8570103 C19.9289261,20.0290103 20.1719261,20.0390103 20.2639261,19.9140103 C20.7209261,19.2930103 21.1359261,18.4280103 22.0329261,18.3670103 C22.8419261,18.3110103 23.6049261,18.9380103 24.1289261,19.4420103 C25.8979261,21.1400103 25.9159261,23.7750103 24.3729261,25.5880103 Z M24.4809261,18.4060103 C22.9309261,17.0270103 19.8379261,17.0580103 19.8709261,19.4370103 C17.9999261,20.9770103 18.4289261,23.9600103 19.5659261,25.8130103 C21.1119261,28.3370103 23.8689261,27.8220103 25.5129261,25.7140103 C27.2989261,23.4260103 26.5669261,20.2590103 24.4809261,18.4060103 L24.4809261,18.4060103 Z" id="Fill-231"></path>
                <path d="M24.0249261,21.0400103 C23.8589261,20.8450103 23.5659261,20.6620103 23.2909261,20.6620103 C22.9989261,20.6620103 22.7489261,20.7030103 22.5139261,20.8810103 C22.2879261,21.0500103 22.1429261,21.3050103 22.1159261,21.5750103 C22.0859261,21.8370103 22.1709261,22.1050103 22.3449261,22.3100103 C22.5089261,22.5070103 22.8039261,22.6870103 23.0779261,22.6870103 C23.3679261,22.6870103 23.6199261,22.6490103 23.8549261,22.4710103 C24.0799261,22.3010103 24.2249261,22.0480103 24.2539261,21.7770103 C24.2799261,21.5130103 24.1969261,21.2480103 24.0249261,21.0400103" id="Fill-232"></path>
                <path d="M43.1329261,19.7130103 C43.6289261,19.7660103 44.1219261,19.7300103 44.5859261,19.5300103 C44.7909261,20.7920103 45.0579261,22.0610103 45.1829261,23.3280103 C44.6709261,22.0560103 43.9719261,20.8430103 43.1329261,19.7130103 Z M44.2209261,32.5710103 C43.0209261,37.9110103 39.7349261,43.0270103 35.6699261,46.8480103 C31.4749261,50.7900103 25.7369261,53.0880103 19.9379261,51.1140103 C14.6389261,49.3090103 11.3489261,44.2920103 9.70992612,39.4500103 C8.07392612,34.6200103 7.70792612,28.8210103 9.28592612,23.9100103 C9.46592612,25.2510103 10.3549261,26.1820103 11.4019261,27.1880103 C11.5919261,27.3690103 11.9789261,27.3470103 12.0129261,27.0370103 C12.3299261,24.1730103 13.3429261,21.4740103 14.6629261,18.8960103 C14.8099261,19.4670103 15.0249261,20.0180103 15.0819261,20.6140103 C15.0999261,20.7950103 15.3459261,20.9390103 15.4979261,20.7720103 C18.6109261,17.3460103 20.7619261,13.7130103 21.4549261,9.24301032 C22.9059261,10.4110103 24.2919261,11.6250103 25.1119261,13.2950103 C25.2629261,13.6060103 25.6859261,13.5280103 25.7709261,13.2190103 C26.2839261,11.3380103 26.9509261,9.34401032 28.6209261,8.13101032 C29.1659261,9.30901032 30.2939261,9.93901032 31.5929261,10.3970103 C32.6079261,10.7530103 34.7999261,10.9770103 35.6479261,11.9170103 C35.0189261,11.8220103 34.3119261,12.0320103 33.8169261,12.4060103 C32.8039261,13.1750103 32.3219261,14.4110103 32.0089261,15.5630103 C31.3969261,17.8050103 31.5559261,21.3140103 33.8879261,22.6620103 C34.1139261,22.7930103 34.3409261,22.8960103 34.5659261,22.9770103 C34.5589261,23.0030103 34.5589261,23.0280103 34.5739261,23.0550103 C34.7539261,23.4080103 35.0479261,23.7020103 35.3989261,23.9220103 C34.8079261,23.6640103 34.2069261,23.4250103 33.6079261,23.1950103 C33.5149261,23.1590103 33.4379261,23.2720103 33.5149261,23.3340103 C35.1099261,24.6280103 37.0309261,25.4660103 38.5599261,26.8120103 C36.6959261,26.9040103 34.8259261,26.9020103 32.9609261,27.0060103 C32.0559261,27.0540103 28.4989261,26.9610103 28.5139261,28.3330103 C28.5159261,28.4620103 28.6189261,28.5470103 28.7399261,28.5830103 C29.3039261,28.7510103 30.0799261,28.3590103 30.6499261,28.2720103 C31.6679261,28.1140103 32.7089261,28.0710103 33.7359261,28.0220103 C35.7419261,27.9310103 37.8009261,28.0470103 39.7889261,27.7650103 C40.2809261,27.6960103 40.4289261,27.1910103 40.0959261,26.8630103 C38.9389261,25.7340103 37.5369261,24.9060103 36.0579261,24.2160103 C36.7849261,24.4390103 37.6059261,24.3720103 38.2099261,23.9010103 C39.4919261,22.8960103 39.8359261,21.2970103 40.0419261,19.8160103 C40.0459261,19.7990103 40.0169261,19.7980103 40.0129261,19.8160103 C39.8769261,21.0990103 39.2949261,22.4800103 38.2969261,23.3770103 C37.2169261,24.3480103 36.2959261,23.6750103 35.3049261,23.1540103 C37.2069261,23.3890103 38.8239261,21.8980103 39.1809261,19.9940103 C39.3989261,18.8360103 39.3009261,17.1900103 38.7099261,15.8860103 C40.8499261,18.1190103 42.7669261,20.3800103 43.8479261,23.3050103 C44.9409261,26.2630103 44.9019261,29.5370103 44.2209261,32.5710103 Z M7.29192612,39.0110103 C6.65392612,38.8320103 5.92492612,38.6680103 5.25292612,38.4290103 C5.76092612,38.2810103 6.24192612,38.0660103 6.69292612,37.7920103 C7.10792612,37.5380103 7.46892612,37.2710103 7.80292612,36.9390103 C7.94492612,37.7310103 8.13092612,38.5160103 8.34992612,39.2910103 C8.00092612,39.1820103 7.63592612,39.1060103 7.29192612,39.0110103 Z M4.30392612,37.5060103 C3.49192612,37.6660103 1.89892612,37.3370103 2.47792612,36.2970103 C3.29192612,34.8280103 5.89492612,34.1560103 7.45892612,34.7170103 C7.48092612,34.7240103 7.49092612,34.6940103 7.47892612,34.6810103 C6.26492612,33.4190103 3.59392612,33.9240103 2.16592612,35.1530103 C1.57692612,32.6600103 1.02192612,30.2630103 1.08292612,27.6640103 C1.16692612,23.9790103 2.14892612,20.3950103 3.90692612,17.1110103 C4.09992612,16.7500103 3.73592612,16.3320103 3.32692612,16.5270103 C2.67892612,16.8330103 2.03592612,17.1430103 1.40392612,17.4760103 C4.22092612,11.9520103 9.23192612,7.49401032 14.9099261,4.64401032 C17.2099261,3.49001032 19.7349261,2.69201032 22.2859261,2.23701032 C23.6639261,1.99001032 25.0659261,1.91801032 26.4589261,2.07201032 C27.4349261,2.17801032 28.2269261,2.61001032 29.0779261,2.94501032 C29.1619261,3.00901032 29.2729261,3.04901032 29.3859261,3.06201032 C29.5439261,3.11701032 29.7029261,3.16701032 29.8669261,3.21201032 C29.9959261,3.24301032 30.1189261,3.13501032 30.0599261,3.01301032 C30.0389261,2.96801032 30.0109261,2.93001032 29.9859261,2.88801032 C31.6279261,2.72901032 33.2049261,2.27801032 34.9059261,2.29801032 C36.5009261,2.31801032 38.6249261,2.53401032 39.9539261,3.56301032 C39.1629261,3.46401032 38.3889261,3.30101032 37.6009261,3.11201032 C36.9879261,2.96501032 36.7719261,3.79101032 37.2709261,4.06001032 C41.7979261,6.49501032 41.5039261,11.8290103 43.2749261,15.8720103 C43.2499261,15.8770103 43.2279261,15.8790103 43.2039261,15.8840103 C42.7419261,15.9880103 42.3479261,16.2500103 42.0029261,16.5520103 C41.7879261,16.7380103 41.5939261,16.9490103 41.4099261,17.1620103 C41.3209261,17.2680103 41.2479261,17.3690103 41.1869261,17.4730103 C40.2429261,16.5310103 39.2129261,15.6780103 38.1399261,14.9310103 C38.1369261,14.9290103 38.1329261,14.9290103 38.1259261,14.9260103 C37.7489261,14.4620103 37.2689261,14.1050103 36.6689261,13.9290103 C36.6269261,13.9160103 36.5959261,13.9760103 36.6299261,14.0000103 C39.2399261,15.8380103 38.5709261,23.9940103 34.4249261,21.4820103 C32.7949261,20.4940103 33.0939261,17.5740103 33.4109261,16.0910103 C33.5909261,15.2530103 33.8579261,14.3710103 34.4289261,13.6940103 C35.0019261,13.0150103 35.4879261,13.3210103 36.2589261,13.3320103 C36.5989261,13.3360103 36.7889261,13.0060103 36.7519261,12.7170103 C36.7629261,12.6750103 36.7719261,12.6270103 36.7679261,12.5770103 C36.5499261,9.27801032 30.1089261,10.7320103 29.1599261,7.54401032 C29.0799261,7.27801032 28.8229261,7.17001032 28.5709261,7.32201032 C26.7159261,8.43601032 25.8899261,10.3670103 25.3209261,12.2980103 C24.3379261,10.7500103 22.9049261,9.57701032 21.4199261,8.41901032 C21.2439261,8.28101032 20.9289261,8.37401032 20.9029261,8.60401032 C20.3919261,13.0710103 18.4189261,16.6720103 15.4669261,20.0860103 C15.3159261,19.4640103 15.0619261,18.8700103 14.9899261,18.2240103 C14.9689261,18.0350103 14.6769261,17.8960103 14.5669261,18.1120103 C13.2009261,20.7510103 11.8579261,23.3700103 11.4199261,26.2860103 C10.5449261,25.4150103 9.80392612,24.4840103 9.59992612,23.2380103 C9.57192612,23.0520103 9.25892612,23.0710103 9.25292612,23.2590103 C9.25092612,23.3420103 9.25192612,23.4220103 9.25392612,23.5020103 C7.61492612,27.1610103 7.07392612,31.4640103 7.60792612,35.6640103 C7.28792612,35.9150103 6.90092612,36.1350103 6.59692612,36.3980103 C5.95592612,36.9510103 5.15192612,37.3370103 4.30392612,37.5060103 Z M43.5339261,16.7700103 C43.6029261,16.7630103 43.6719261,16.7600103 43.7429261,16.7630103 C43.7489261,16.7630103 43.7609261,16.7630103 43.7699261,16.7650103 C43.7949261,16.7680103 43.8179261,16.7720103 43.8409261,16.7760103 C43.8639261,16.7800103 43.9339261,16.8000103 43.9659261,16.8080103 C44.0179261,16.8270103 44.0689261,16.8500103 44.1169261,16.8760103 C44.1279261,16.8810103 44.1339261,16.8840103 44.1379261,16.8860103 C44.1479261,16.8930103 44.1589261,16.9030103 44.1769261,16.9150103 C44.2209261,16.9500103 44.2649261,16.9880103 44.3049261,17.0280103 C44.3059261,17.0290103 44.3059261,17.0290103 44.3089261,17.0310103 C44.3099261,17.0310103 44.3099261,17.0310103 44.3109261,17.0320103 C44.3289261,17.0540103 44.3469261,17.0770103 44.3639261,17.0990103 C44.4009261,17.1500103 44.4329261,17.2020103 44.4639261,17.2550103 C44.4749261,17.2790103 44.4849261,17.3030103 44.4949261,17.3280103 C44.5169261,17.3820103 44.5349261,17.4340103 44.5519261,17.4890103 C44.5549261,17.5060103 44.5599261,17.5180103 44.5639261,17.5260103 C44.5639261,17.5330103 44.5649261,17.5400103 44.5669261,17.5560103 C44.5769261,17.6200103 44.5839261,17.6860103 44.5879261,17.7540103 C44.5879261,17.7790103 44.5879261,17.8030103 44.5879261,17.8270103 C44.5849261,17.8640103 44.5789261,17.9030103 44.5739261,17.9380103 C44.4659261,18.0110103 44.3939261,18.1300103 44.4109261,18.2860103 C44.4129261,18.2960103 44.4129261,18.3060103 44.4149261,18.3170103 C44.3919261,18.3460103 44.3679261,18.3750103 44.3409261,18.4030103 C44.3259261,18.4160103 44.3059261,18.4310103 44.2899261,18.4430103 C44.2649261,18.4620103 44.2389261,18.4780103 44.2139261,18.4950103 C44.2069261,18.4990103 44.2049261,18.5020103 44.1989261,18.5040103 C44.1439261,18.5310103 44.0839261,18.5550103 44.0249261,18.5750103 C44.0129261,18.5780103 44.0009261,18.5810103 43.9899261,18.5850103 C43.9719261,18.5900103 43.9419261,18.5960103 43.9269261,18.5990103 C43.8499261,18.6120103 43.7699261,18.6200103 43.6929261,18.6240103 C43.6839261,18.6260103 43.6579261,18.6260103 43.6379261,18.6270103 C43.5919261,18.6260103 43.5449261,18.6230103 43.4969261,18.6200103 C43.3659261,18.6100103 43.2369261,18.5900103 43.1069261,18.5670103 C43.0919261,18.5620103 43.0779261,18.5590103 43.0709261,18.5580103 C43.0449261,18.5510103 43.0159261,18.5450103 42.9919261,18.5390103 C42.9169261,18.5190103 42.8419261,18.4970103 42.7679261,18.4730103 C42.5449261,18.4030103 42.3519261,18.4540103 42.2079261,18.5650103 C42.0079261,18.3340103 41.8029261,18.1090103 41.5949261,17.8880103 C41.6069261,17.8770103 41.6229261,17.8680103 41.6359261,17.8550103 C41.7399261,17.7600103 41.8439261,17.6690103 41.9529261,17.5790103 C42.1469261,17.4200103 42.3519261,17.2710103 42.5719261,17.1430103 C42.8809261,16.9630103 43.2069261,16.8040103 43.5339261,16.7700103 Z M46.0379261,26.6730103 C45.9769261,26.1180103 45.8729261,25.5720103 45.7379261,25.0340103 C46.0159261,23.0280103 45.5829261,21.0600103 45.2949261,18.9910103 C45.5399261,18.6660103 45.6629261,18.2600103 45.6759261,17.8640103 C45.6969261,17.2840103 45.4379261,16.7160103 45.0119261,16.3070103 C44.5889261,15.8980103 43.9809261,15.7670103 43.4009261,15.8490103 C43.1389261,11.9240103 42.6609261,7.33301032 39.6439261,4.50701032 C40.1479261,4.57001032 40.6539261,4.61001032 41.1709261,4.61901032 C41.5699261,4.62601032 41.7719261,4.17401032 41.5789261,3.87801032 C40.3579261,1.98501032 37.7239261,1.56001032 35.5719261,1.43401032 C34.1259261,1.34601032 31.7199261,1.28801032 30.1909261,2.04301032 C30.2419261,1.81601032 30.3189261,1.60001032 30.4289261,1.38401032 C30.5799261,1.07901032 30.8399261,0.822010321 31.1199261,0.620010321 C31.2269261,0.543010321 31.3469261,0.487010321 31.4679261,0.427010321 C31.5619261,0.383010321 31.5729261,0.278010321 31.6579261,0.219010321 C31.7149261,0.180010321 31.6989261,0.0770103213 31.6219261,0.0700103213 C31.3239261,0.0490103213 31.2569261,-0.00798967867 30.9499261,0.128010321 C30.6409261,0.265010321 30.3769261,0.441010321 30.1319261,0.665010321 C29.9639261,0.817010321 29.8189261,0.990010321 29.6929261,1.17401032 C29.6089261,1.04601032 29.5119261,0.925010321 29.3979261,0.813010321 C28.9509261,0.364010321 28.0149261,-0.176989679 27.3539261,0.0560103213 C27.2909261,0.0770103213 27.2609261,0.167010321 27.3069261,0.214010321 C27.6419261,0.557010321 28.1219261,0.713010321 28.4609261,1.07601032 C28.6779261,1.30301032 28.8479261,1.58601032 28.9199261,1.88401032 C27.4119261,1.07301032 25.0129261,1.15001032 23.5869261,1.26401032 C20.6299261,1.49801032 17.6799261,2.47801032 15.0219261,3.69001032 C8.50292612,6.65901032 2.84392612,12.0420103 0.0279261188,18.3670103 C-0.118073881,18.6940103 0.340926119,19.0370103 0.650926119,18.8520103 C1.27392612,18.4770103 1.91792612,18.1430103 2.57092612,17.8220103 C-0.0730738812,23.2610103 -1.22107388,30.0360103 1.79792612,35.5190103 C1.54192612,35.8170103 1.35492612,36.1450103 1.27092612,36.4920103 C0.943926119,37.8560103 2.70892612,38.6660103 3.87392612,38.6430103 C4.16792612,38.6380103 4.45192612,38.6040103 4.73492612,38.5520103 C5.17492612,38.9370103 5.65292612,39.2520103 6.24492612,39.5170103 C6.99992612,39.8570103 7.86992612,40.3100103 8.70892612,40.4430103 C10.1489261,44.7040103 12.7859261,48.5180103 16.5969261,50.9720103 C27.4049261,57.9380103 38.8879261,48.0050103 43.4579261,39.0120103 C45.3969261,35.1980103 46.5069261,30.9170103 46.0379261,26.6730103 L46.0379261,26.6730103 Z" id="Fill-233"></path>
                <path d="M27.2949261,24.2920103 C26.3259261,26.0800103 25.1069261,27.7140103 23.0669261,28.4770103 C20.3079261,29.5100103 18.7239261,27.5830103 18.4329261,25.1290103 C18.4299261,25.1040103 18.3889261,25.1040103 18.3889261,25.1320103 C18.4099261,27.5360103 19.6099261,29.6480103 22.4279261,29.4180103 C24.9599261,29.2110103 27.4909261,26.7040103 27.5039261,24.3210103 C27.5039261,24.2090103 27.3399261,24.2110103 27.2949261,24.2920103" id="Fill-234"></path>
                <path d="M21.3209261,37.1310103 C20.7639261,38.0540103 19.5269261,38.3040103 18.6939261,37.5560103 C17.8069261,36.7620103 17.5249261,34.9330103 17.5499261,33.7120103 C17.9199261,33.6540103 18.2919261,33.5960103 18.6649261,33.5410103 C18.9279261,33.5020103 19.1939261,33.4660103 19.4599261,33.4320103 C19.7119261,34.2860103 19.9669261,35.1400103 20.0519261,36.0280103 C20.0579261,36.0820103 20.1369261,36.0750103 20.1399261,36.0230103 C20.1909261,35.1250103 20.0789261,34.2510103 19.9019261,33.3800103 C20.5759261,33.3000103 21.2509261,33.2340103 21.9269261,33.1780103 C22.2879261,34.4500103 21.9559261,36.0820103 21.3209261,37.1310103 Z M36.9379261,32.2630103 C32.9139261,31.9980103 28.8809261,31.8460103 24.8479261,31.8990103 C24.0369261,31.9090103 23.2259261,31.9540103 22.4139261,32.0210103 C22.2079261,31.7700103 21.8339261,31.8630103 21.6759261,32.0870103 C20.6239261,32.1890103 19.5759261,32.3250103 18.5389261,32.4660103 C17.0869261,32.6670103 14.7669261,32.6780103 13.7069261,33.7210103 C13.5449261,33.8800103 13.6709261,34.1040103 13.8609261,34.1630103 C14.4989261,34.3620103 14.8629261,34.2290103 15.5369261,34.0840103 C16.1339261,33.9560103 16.7349261,33.8490103 17.3359261,33.7480103 C16.7869261,35.9450103 17.4759261,39.2030103 20.4339261,38.7960103 C22.7069261,38.4840103 23.2949261,35.1890103 22.8309261,33.1060103 C23.5399261,33.0520103 24.2499261,33.0050103 24.9599261,32.9570103 C28.9509261,32.6940103 32.9499261,32.6050103 36.9429261,32.3460103 C36.9999261,32.3430103 36.9919261,32.2680103 36.9379261,32.2630103 L36.9379261,32.2630103 Z" id="Fill-235"></path>
            </g>
        </g>
    </g>
</svg>