<?xml version="1.0" encoding="UTF-8"?>
<svg width="57px" height="67px" viewBox="0 0 57 67" version="1.1" xmlns="http://www.w3.org/2000/svg" xmlns:xlink="http://www.w3.org/1999/xlink">
    <title>Group 8</title>
    <g id="Page-1" stroke="none" stroke-width="1" fill="none" fill-rule="evenodd">
        <g id="vectorstock_1327683" transform="translate(-128.000000, -4.000000)" fill="#1B1A19">
            <g id="Group-8" transform="translate(128.532741, 4.301920)">
                <path d="M29.2252586,19.2530801 C27.5372586,17.8550801 25.5962586,16.8660801 23.5322586,16.0810801 C23.5012586,16.0700801 23.4882586,16.1170801 23.5162586,16.1260801 C25.4392586,16.7010801 27.1542586,17.9360801 28.6552586,19.1670801 C29.2622586,19.6660801 29.8022586,20.2130801 30.3072586,20.8040801 C30.8502586,21.4360801 31.1432586,22.2560801 31.7702586,22.8020801 C31.9222586,22.9330801 32.1362586,22.7660801 32.1192586,22.6050801 C31.9792586,21.2650801 30.2242586,20.0820801 29.2252586,19.2530801" id="Fill-158"></path>
                <path d="M47.4832586,34.7240801 C42.4972586,38.1000801 34.7482586,38.4620801 31.6962586,32.5520801 C29.6102586,28.5080801 31.6762586,25.1800801 34.8342586,22.7930801 C34.8952586,22.8100801 34.9532586,22.8280801 35.0142586,22.8460801 C35.0752586,22.7920801 35.1452586,22.7400801 35.2212586,22.6920801 C35.7892586,22.3370801 36.3632586,22.0080801 36.9512586,21.6920801 C36.8502586,21.6560801 36.7522586,21.6160801 36.6512586,21.5820801 C38.0082586,20.7810801 39.4462586,20.1340801 40.7822586,19.6510801 C40.8092586,19.6420801 40.7972586,19.6010801 40.7702586,19.6100801 C39.1582586,20.1670801 37.5682586,20.6970801 36.0712586,21.3950801 C34.9342586,21.0530801 33.7622586,20.8060801 32.5802586,20.6630801 C35.1642586,20.0570801 37.7602586,19.5190801 40.3302586,18.8650801 C45.2642586,19.5730801 52.5002586,20.8340801 53.4032586,26.5580801 C54.0122586,30.4320801 50.3832586,32.7610801 47.4832586,34.7240801 Z M41.4202586,58.6790801 C34.5632586,65.4640801 23.9432586,66.3800801 16.6442586,59.6550801 C12.8032586,56.1140801 10.7802586,50.9730801 10.7981396,45.9440801 C11.0912586,46.0670801 11.3882586,46.1780801 11.6902586,46.2770801 C17.1302586,48.0780801 23.4522586,46.0220801 26.8882586,41.7650801 C28.2652586,40.0570801 29.0002586,37.7210801 28.9382586,35.5460801 C29.1702586,35.4870801 29.4002586,35.4020801 29.6332586,35.3680801 C30.1022586,35.3010801 30.5062586,35.1320801 30.9512586,34.9840801 C31.0882586,34.9390801 31.2012586,34.8610801 31.3022586,34.7720801 C33.9672586,38.8150801 39.2662586,40.0410801 44.3452586,38.5810801 C45.9222586,38.1280801 47.5302586,37.4410801 49.0222586,36.5510801 C49.0352586,36.6110801 49.0492586,36.6680801 49.0652586,36.7260801 C50.7802586,44.5300801 47.0802586,53.0770801 41.4202586,58.6790801 Z M7.01025863,36.7900801 C7.45925863,36.1550801 7.91125863,35.5200801 8.36325863,34.8840801 C9.84725863,33.4400801 11.8572586,32.2100801 14.0232586,31.4380801 C14.1722586,31.3210801 14.3532586,31.2280801 14.5792586,31.1830801 C14.8142586,31.0100801 15.1182586,30.9010801 15.4972586,30.9010801 L16.0222586,30.9010801 C16.0312586,30.8850801 16.0402586,30.8680801 16.0512586,30.8500801 C17.3962586,30.5720801 18.7542586,30.4900801 20.0402586,30.6670801 C20.0992586,30.6760801 20.1222586,30.5940801 20.0652586,30.5830801 C18.8632586,30.3480801 17.5652586,30.3360801 16.2502586,30.5020801 C16.5172586,30.0350801 16.7822586,29.5710801 17.0472586,29.1100801 C18.4902586,28.7380801 19.8522586,28.1650801 20.4522586,27.8920801 C23.0712586,26.7030801 26.5642586,24.4310801 26.5812586,21.3940801 C29.0982586,21.6720801 31.5712586,21.9900801 33.9532586,22.5660801 C33.3972586,22.9330801 32.8622586,23.3400801 32.3572586,23.8050801 C30.1702586,25.8190801 29.2382586,29.0980801 30.0082586,31.8860801 C30.0672586,32.0930801 30.1272586,32.2930801 30.1962586,32.4920801 C30.0252586,32.5060801 29.8522586,32.5410801 29.6812586,32.5980801 C29.2932586,32.7240801 28.8872586,32.9690801 28.5432586,33.2810801 C27.7902586,31.0630801 25.9382586,29.4170801 22.7452586,29.5040801 C22.4692586,29.5100801 22.4302586,29.9300801 22.6832586,30.0060801 C24.3012586,30.5030801 26.0332586,31.7420801 26.7562586,33.2100801 C28.1432586,36.0190801 26.8112586,39.4310801 24.7512586,41.5930801 C23.3632586,43.0500801 21.5742586,44.1770801 19.6262586,44.8500801 C17.7272586,45.5060801 14.6402586,46.1690801 12.6282586,45.7110801 C8.61925863,44.7990801 5.52525863,40.3740801 7.01025863,36.7900801 Z M12.7192586,28.7780801 C13.4922586,29.6760801 15.1922586,29.5630801 16.8362586,29.1640801 C16.5502586,29.6230801 16.2642586,30.0830801 15.9802586,30.5410801 C13.8642586,30.8500801 11.7272586,31.6220801 9.90225863,32.7120801 C10.8392586,31.3990801 11.7792586,30.0900801 12.7192586,28.7780801 Z M14.0632586,25.4590801 C14.5922586,24.5200801 15.3942586,23.7060801 16.3082586,22.9650801 C16.3512586,23.1980801 16.3922586,23.4310801 16.4282586,23.6620801 C15.4422586,24.6890801 14.7792586,26.0220801 14.5102586,27.3620801 C14.4802586,27.5060801 14.6242586,27.6800801 14.7812586,27.6810801 C17.6972586,27.6930801 23.6112586,25.3880801 22.0492586,21.7860801 C21.8532586,21.3320801 21.0102586,21.6490801 21.1992586,22.1080801 C22.2572586,24.7210801 17.5522586,26.7260801 15.1862586,27.0600801 C15.3802586,26.0130801 15.8282586,24.9760801 16.4912586,24.1020801 C16.5272586,24.3370801 16.5622586,24.5750801 16.5922586,24.8060801 C16.5982586,24.8610801 16.6832586,24.8610801 16.6832586,24.8040801 C16.6852586,24.4950801 16.6792586,24.1840801 16.6742586,23.8730801 C16.8082586,23.7130801 16.9462586,23.5560801 17.0972586,23.4080801 C17.0582586,23.9510801 16.9732586,24.4870801 16.8202586,25.0110801 C16.8052586,25.0580801 16.8792586,25.0850801 16.9042586,25.0410801 C17.3182586,24.3290801 17.6202586,23.5790801 17.8272586,22.8060801 C17.9752586,22.7010801 18.1222586,22.5960801 18.2802586,22.5060801 C18.3862586,22.4480801 18.2842586,22.3110801 18.1802586,22.3590801 C18.0832586,22.4080801 17.9882586,22.4600801 17.8932586,22.5130801 C17.9582586,22.2410801 18.0092586,21.9670801 18.0532586,21.6920801 C18.4702586,21.4090801 18.8892586,21.1380801 19.2982586,20.8710801 C19.1502586,22.0900801 18.7272586,23.2750801 17.9612586,24.3520801 C17.9322586,24.3950801 18.0002586,24.4380801 18.0372586,24.4030801 C19.2412586,23.1770801 19.9242586,21.7600801 20.2072586,20.2660801 C20.2242586,20.2540801 20.2422586,20.2440801 20.2592586,20.2310801 C20.2862586,20.2350801 20.3152586,20.2350801 20.3462586,20.2260801 C20.5102586,20.1770801 20.6822586,20.1370801 20.8552586,20.0990801 C20.7432586,20.5270801 20.6182586,20.9450801 20.4862586,21.3500801 C20.4772586,21.3760801 20.5212586,21.3870801 20.5302586,21.3610801 C20.6952586,20.9340801 20.8512586,20.5050801 21.0012586,20.0710801 C23.0172586,19.6860801 25.4672586,20.1180801 24.5242586,22.6320801 C23.7362586,24.7310801 20.8482586,26.1770801 18.8922586,27.0890801 C16.9102586,28.0130801 11.8412586,29.4060801 14.0632586,25.4590801 Z M17.1192586,22.3440801 C17.1262586,22.5700801 17.1292586,22.7970801 17.1202586,23.0220801 C16.9602586,23.1490801 16.8062586,23.2830801 16.6572586,23.4240801 C16.6482586,23.1890801 16.6342586,22.9530801 16.6192586,22.7190801 C16.7822586,22.5930801 16.9482586,22.4680801 17.1192586,22.3440801 Z M16.5872586,12.6790801 C16.5532586,12.5980801 16.5162586,12.5150801 16.4792586,12.4330801 C18.3432586,14.7270801 19.5652586,17.7310801 19.3272586,20.5730801 C18.9462586,20.7770801 18.5392586,20.9980801 18.1202586,21.2280801 C18.4392586,18.3370801 17.6642586,15.2670801 16.5872586,12.6790801 Z M42.7562586,17.8370801 C42.7272586,17.6270801 42.5552586,17.4440801 42.2792586,17.5210801 C38.7662586,18.5360801 35.3092586,19.3700801 31.9032586,20.6000801 C30.1172586,20.4430801 28.3112586,20.5150801 26.5512586,20.8670801 C26.5332586,20.7420801 26.5162586,20.6190801 26.4882586,20.4930801 C25.9812586,18.1640801 23.1522586,18.4190801 21.2612586,19.2840801 C23.1482586,13.3650801 23.4032586,6.98008014 18.3712586,2.28508014 C14.1962586,-1.61491986 7.96225863,-0.326919855 5.67525863,4.66008014 C5.57025863,4.88808014 5.90625863,5.15408014 6.10725863,4.96208014 C7.68125863,3.45708014 9.30725863,2.06008014 11.5392586,1.55008014 C14.0392586,0.977080145 16.4832586,2.38208014 18.1362586,4.02508014 C22.0462586,7.90208014 22.2612586,14.2390801 21.0372586,19.3890801 C20.7532586,19.5310801 20.4922586,19.6870801 20.2752586,19.8480801 C20.7982586,16.0560801 18.8442586,11.8440801 16.2612586,9.02808014 C14.3442586,6.93908014 11.6832586,5.40108014 8.67825863,5.54108014 C5.36825863,5.69508014 2.95225863,7.85808014 2.34825863,10.8880801 C2.27425863,11.2660801 2.68825863,11.5730801 3.02825863,11.2970801 C4.74925863,9.90308014 6.77725863,8.03808014 9.18525863,8.06108014 C9.65325863,8.06408014 10.1152586,8.13508014 10.5682586,8.25308014 C11.0202586,8.44408014 11.4562586,8.70908014 11.8782586,9.06508014 C13.3662586,10.3290801 14.3582586,12.2000801 15.1142586,13.9220801 C15.9482586,15.8190801 16.3432586,17.8910801 16.7852586,19.8930801 C16.9252586,20.5180801 17.0332586,21.1650801 17.0882586,21.8150801 C16.9152586,21.9160801 16.7422586,22.0210801 16.5692586,22.1280801 C16.2642586,18.9260801 15.2632586,15.7840801 12.7292586,13.4950801 C9.75925863,10.8110801 5.87325863,11.5110801 3.28425863,14.1810801 C0.759258635,16.7870801 -0.738741365,21.2350801 0.371258635,24.6830801 C1.28625863,27.5290801 4.69125863,31.6410801 7.52225863,27.9800801 C7.68425863,27.7700801 7.44225863,27.4710801 7.18725863,27.5820801 C4.54325863,28.7360801 3.16625863,27.3630801 2.10125863,25.1240801 C1.47325863,23.8010801 1.35325863,22.4280801 1.51125863,21.0060801 C1.82225863,18.1640801 3.38025863,15.1360801 5.88725863,13.4880801 C8.91925863,11.4950801 12.3052586,13.8650801 13.9252586,16.3370801 C15.0802586,18.1040801 15.7652586,20.2450801 16.1932586,22.3650801 C13.8592586,23.8630801 11.8022586,25.7630801 12.3572586,28.0570801 C12.4172586,28.3050801 12.5192586,28.5120801 12.6492586,28.6870801 C11.0962586,30.5030801 9.39425863,32.1720801 8.00025863,34.0700801 C7.45725863,34.5330801 6.96625863,35.0280801 6.54925863,35.5500801 C3.40325863,39.4930801 5.92825863,43.4780801 9.86525863,45.5090801 C9.46825863,50.0010801 10.9422586,54.3820801 13.6472586,58.0980801 C18.9462586,65.3850801 28.8402586,67.6270801 37.0162586,63.4910801 C44.1382586,59.8850801 48.7772586,52.5800801 50.4222586,45.2660801 C51.1582586,41.9920801 51.0892586,38.7520801 50.2882586,35.7260801 C53.2002586,33.6510801 55.4262586,30.7540801 55.6102586,27.3120801 C55.9362586,21.2100801 48.6312586,17.5080801 42.7562586,17.8370801 L42.7562586,17.8370801 Z" id="Fill-159"></path>
                <path d="M32.9122586,41.9780801 C32.8522586,43.0550801 32.8912586,44.1700801 32.4052586,45.1580801 C31.5632586,44.6700801 30.8152586,44.0340801 29.9052586,43.6570801 C29.7382586,43.5880801 29.6392586,43.8020801 29.7842586,43.8930801 C30.7432586,44.4910801 31.4342586,45.4050801 32.3522586,46.0590801 C32.4932586,46.1600801 32.7542586,46.1380801 32.8722586,46.0100801 C33.8892586,44.9170801 34.1192586,43.5280801 34.4462586,42.1530801 C34.6622586,41.2360801 32.9652586,41.0270801 32.9122586,41.9780801" id="Fill-160"></path>
                <path d="M41.9572586,52.0850801 C39.4962586,53.8570801 37.7922586,55.9300801 34.5112586,54.2260801 C33.5112586,53.7080801 32.5282586,52.9910801 31.3112586,53.1080801 C27.1722586,53.5060801 21.8292586,59.2870801 17.9772586,55.1360801 C17.7872586,54.9320801 17.5182586,54.8060801 17.2282586,54.9120801 C17.4792586,54.8190801 17.0972586,54.9460801 17.0752586,54.9700801 C17.0332586,55.0120801 16.9902586,55.0530801 16.9482586,55.0960801 C16.7592586,55.2850801 16.7432586,55.6410801 16.9152586,55.8450801 C20.3562586,59.8780801 25.5522586,55.5590801 29.2722586,54.0520801 C32.4702586,52.7540801 34.0622586,55.4380801 37.0032586,55.8660801 C39.2842586,56.1980801 41.4202586,54.4070801 42.9132586,53.0240801 C43.4832586,52.4940801 42.5712586,51.6440801 41.9572586,52.0850801" id="Fill-161"></path>
                <path d="M37.0712586,31.0650801 C36.9872586,30.9150801 36.8792586,30.7840801 36.7582586,30.6630801 C36.4732586,30.3170801 36.0382586,30.0850801 35.5742586,30.0440801 C35.0022586,29.9920801 34.4902586,30.2150801 34.1382586,30.5990801 C34.0072586,30.7130801 33.8912586,30.8420801 33.7992586,30.9880801 C33.5942586,31.3070801 33.5302586,31.6260801 33.5502586,31.9470801 C33.5422586,32.2200801 33.6122586,32.4900801 33.7482586,32.7350801 C33.7502586,32.7400801 33.7512586,32.7440801 33.7512586,32.7490801 C33.7562586,32.7620801 33.7662586,32.7780801 33.7702586,32.7910801 C33.9572586,33.2380801 34.3782586,33.5260801 34.8552586,33.6510801 C34.8622586,33.6540801 34.8672586,33.6590801 34.8732586,33.6600801 C35.3332586,33.7920801 35.8382586,33.7480801 36.2622586,33.5400801 C36.7012586,33.3240801 37.0352586,32.9410801 37.1822586,32.4940801 C37.1942586,32.4630801 37.2072586,32.4310801 37.2202586,32.4000801 C37.3932586,31.9930801 37.2812586,31.4380801 37.0712586,31.0650801" id="Fill-162"></path>
                <path d="M24.0182586,36.6410801 C23.7542586,36.3230801 23.2732586,36.0130801 22.8262586,36.0130801 C22.3472586,36.0130801 21.9412586,36.0660801 21.5502586,36.3570801 C21.1802586,36.6310801 20.9372586,37.0440801 20.8862586,37.4850801 C20.8372586,37.9140801 20.9682586,38.3520801 21.2482586,38.6930801 C21.5132586,39.0120801 21.9952586,39.3220801 22.4422586,39.3220801 C22.9192586,39.3220801 23.3262586,39.2680801 23.7172586,38.9780801 C24.0882586,38.7040801 24.3302586,38.2910801 24.3812586,37.8480801 C24.4312586,37.4210801 24.3012586,36.9820801 24.0182586,36.6410801" id="Fill-163"></path>
                <path d="M13.6472586,35.9990801 C12.5552586,37.5990801 11.0022586,39.8700801 11.1982586,41.8640801 C11.2172586,42.0580801 11.5132586,42.0770801 11.5862586,41.9060801 C12.4162586,39.9870801 12.7512586,37.9260801 13.7062586,36.0290801 C13.7252586,35.9930801 13.6712586,35.9650801 13.6472586,35.9990801" id="Fill-164"></path>
            </g>
        </g>
    </g>
</svg>