<?xml version="1.0" encoding="UTF-8"?>
<svg width="43px" height="49px" viewBox="0 0 43 49" version="1.1" xmlns="http://www.w3.org/2000/svg" xmlns:xlink="http://www.w3.org/1999/xlink">
    <title>Group 37</title>
    <g id="Page-1" stroke="none" stroke-width="1" fill="none" fill-rule="evenodd">
        <g id="vectorstock_1327683" transform="translate(-445.000000, -419.000000)" fill="#0A0B09">
            <g id="Group-37" transform="translate(445.199797, 419.255571)">
                <path d="M1.14420258,28.1384288 C2.28220258,29.3184288 4.07120258,29.8644288 5.58820258,28.9004288 C5.37320258,32.5144288 6.42320258,35.6904288 8.27320258,38.3434288 C4.08920258,38.5984288 2.07420258,31.6774288 1.14420258,28.1384288 Z M21.5342026,1.2854288 C26.6662026,0.636428802 31.6462026,2.3574288 35.3202026,5.9714288 C39.2862026,9.8714288 38.9142026,14.4494288 36.2812026,18.6254288 C36.1472026,18.5774288 35.9672026,18.6194288 35.8782026,18.7204288 C35.2792026,19.3974288 34.6382026,19.9674288 33.9442026,20.4744288 C37.7912026,14.4174288 34.8952026,7.3764288 28.1752026,4.3784288 C28.1712026,4.3714288 28.1712026,4.3644288 28.1682026,4.3564288 C28.1102026,4.2294288 27.9452026,4.1524288 27.8142026,4.1524288 C27.7382026,4.1524288 27.6612026,4.1524288 27.5872026,4.1554288 C27.0942026,4.1554288 27.0672026,4.7954288 27.4782026,4.9594288 C27.5252026,4.9784288 27.5702026,4.9984288 27.6162026,5.0184288 C27.7222026,5.3854288 27.3972026,8.0624288 26.9182026,8.6584288 C26.1202026,9.6534288 24.6192026,9.7224288 23.4612026,9.6414288 C22.2582026,9.5584288 20.9582026,9.0004288 20.0582026,8.2044288 C18.3622026,6.7044288 20.3702026,4.7074288 21.5072026,3.6734288 C21.5202026,3.6604288 21.5032026,3.6404288 21.4882026,3.6484288 C21.2002026,3.7924288 20.9452026,3.9544288 20.7032026,4.1184288 C14.5332026,4.9644288 5.06120258,16.8414288 9.24720258,22.5894288 C8.66820258,22.0674288 8.23420258,21.3634288 7.96420258,20.4554288 C7.85620258,20.1974288 7.66320258,20.0824288 7.38120258,20.1264288 C6.22720258,20.3094288 5.81920258,20.7304288 5.57720258,21.7674288 C4.21520258,21.4704288 2.73820258,21.6974288 1.64320132,22.4554288 C1.63920258,11.6044288 11.1262026,2.5974288 21.5342026,1.2854288 Z M35.6752026,24.7654288 C35.2472026,24.5114288 34.8952026,25.1464288 35.2922026,25.4224288 C40.1422026,28.8254288 41.7182026,36.6384288 37.8632026,41.3774288 C35.1412026,44.7204288 30.4082026,45.7094288 26.3192026,45.7164288 C21.7542026,45.7224288 17.2312026,44.3304288 13.4502026,41.7904288 C8.84320258,38.6974288 6.81320258,34.0514288 5.81020258,28.7904288 C5.80220258,28.7564288 5.78420258,28.7344288 5.76320258,28.7234288 C5.91220258,28.4724288 5.80620258,28.1274288 5.49020258,28.0224288 C4.41120258,27.6624288 3.16320258,27.9324288 2.20320258,27.1814288 C1.54920258,26.6694288 1.29420258,25.8354288 1.43620258,25.0324288 C1.81520258,22.9204288 3.75220258,22.4524288 5.59920258,22.4064288 C5.76520258,22.6184288 6.10920258,22.6514288 6.27620258,22.4044288 C6.54220258,22.4094288 6.80620258,22.4224288 7.05620258,22.4354288 C7.10420258,22.4384288 7.11920258,22.3714288 7.08020258,22.3474288 C6.87420258,22.2274288 6.65720258,22.1254288 6.43720258,22.0374288 C7.11520258,20.5774288 8.83920258,23.5574288 9.29220258,23.9554288 C10.1382026,24.7024288 11.1902026,24.7674288 12.2442026,24.7264288 C12.7282026,24.7094288 13.0362026,23.9564288 12.5132026,23.7304288 C3.23120258,19.7034288 14.9892026,7.1404288 20.4152026,4.3304288 C17.7412026,6.3914288 18.3512026,9.5514288 22.0842026,10.6954288 C26.0562026,11.9134288 29.4692026,9.2284288 28.5292026,5.4324288 C34.9672026,8.6154288 37.1832026,15.8794288 32.0342026,21.6484288 C31.7202026,21.9984288 32.1132026,22.5004288 32.5312026,22.2904288 C33.4442026,21.8364288 35.3972026,19.9634288 36.4552026,19.9144288 C36.1702026,20.0914288 35.8992026,20.2994288 35.6542026,20.5284288 C35.4482026,20.7144288 35.7102026,21.0314288 35.9422026,20.9024288 C37.1372026,20.2354288 38.9012026,20.0244288 39.3412026,21.6624288 C39.4842026,22.1974288 39.3272026,22.7814288 38.9662026,23.1924288 C38.3642026,23.8734288 37.4622026,23.7984288 36.7122026,24.1934288 C36.2162026,24.4494288 36.3482026,25.2174288 36.8662026,25.3544288 C38.0532026,25.6724288 39.4042026,24.8364288 40.0922026,23.9104288 C40.6452026,23.1664288 40.7242026,22.1084288 40.4202026,21.2544288 C40.1152026,20.4064288 39.4302026,19.7534288 38.5592026,19.5194288 C38.1552026,19.4114288 37.7652026,19.4214288 37.3932026,19.5114288 C37.3652026,19.4474288 37.3282026,19.3874288 37.2632026,19.3374288 L36.6822026,18.8984288 C39.7432026,15.7054288 40.2172026,11.1384288 37.8572026,7.2054288 C35.1062026,2.6214288 29.4762026,0.246428802 24.3522026,0.0194288024 C11.9792026,-0.535571198 -0.0437974199,10.8844288 0.65520258,23.4404288 C0.38620258,23.8354288 0.18120258,24.2914288 0.0702025801,24.8184288 C-0.17379742,25.9574288 0.23920258,27.0994288 0.98420258,27.9604288 C1.51520258,31.7724288 3.53020258,41.9414288 9.06920258,39.4034288 C13.5502026,44.8514288 21.5562026,47.7674288 28.4692026,47.2514288 C33.0742026,46.9094288 37.7222026,44.9434288 40.1782026,40.8704288 C43.5282026,35.3184288 40.9852026,27.9214288 35.6752026,24.7654288 L35.6752026,24.7654288 Z" id="Fill-564"></path>
                <path d="M23.6392026,26.4024288 C23.5782026,26.4024288 23.5782026,26.4964288 23.6392026,26.4964288 C23.7002026,26.4964288 23.7002026,26.4024288 23.6392026,26.4024288" id="Fill-565"></path>
                <path d="M20.8632026,13.5224288 C18.1772026,15.7034288 15.1202026,16.8014288 12.0862026,18.3474288 C11.3232026,18.7324288 11.8642026,20.0524288 12.6722026,19.7394288 C15.7652026,18.5324288 19.1812026,16.4614288 21.0132026,13.6364288 C21.0772026,13.5394288 20.9432026,13.4584288 20.8632026,13.5224288" id="Fill-566"></path>
                <path d="M31.1982026,17.0294288 C31.1302026,16.7634288 30.8762026,16.4614288 30.5932026,16.4214288 C28.1972026,16.0694288 26.0942026,15.4774288 24.5622026,13.4474288 C24.3422026,13.1534288 23.9062026,13.3954288 24.0702026,13.7334288 C25.2182026,16.1314288 27.5362026,17.6204288 30.1302026,18.0954288 C30.5142026,18.1664288 30.9042026,18.0534288 31.1102026,17.6954288 C31.2492026,17.4524288 31.2662026,17.2994288 31.1982026,17.0294288" id="Fill-567"></path>
                <path d="M24.9922026,26.4404288 C24.6892026,26.4564288 24.5292026,26.8084288 24.7472026,27.0354288 C26.5802026,28.9624288 26.3132026,31.6804288 25.2562026,33.9624288 C24.4682026,35.6654288 22.6832026,35.8874288 22.1282026,33.9684288 C21.7762026,32.7524288 21.7812026,31.4034288 21.7442026,30.1474288 C21.5952026,24.9634288 22.2252026,19.7794288 22.3962026,14.6034288 C22.4012026,14.4774288 22.2002026,14.4494288 22.1782026,14.5764288 C21.4882026,18.5384288 20.9632026,22.4764288 20.6812026,26.4964288 C20.5052026,28.9664288 19.7472026,34.0644288 21.8432026,36.0304288 C26.4932026,40.3854288 30.3292026,26.1544288 24.9922026,26.4404288" id="Fill-568"></path>
                <path d="M19.2392026,18.1724288 C18.4172026,18.1724288 17.7332026,18.8604288 17.7332026,19.6804288 C17.7332026,20.5024288 18.4172026,21.1864288 19.2392026,21.1864288 C20.0592026,21.1864288 20.7462026,20.5024288 20.7462026,19.6804288 C20.7462026,18.8604288 20.0592026,18.1724288 19.2392026,18.1724288" id="Fill-569"></path>
                <path d="M24.9922026,17.9184288 C22.7222026,17.9184288 22.7222026,21.4394288 24.9922026,21.4394288 C27.2632026,21.4394288 27.2632026,17.9184288 24.9922026,17.9184288" id="Fill-570"></path>
                <path d="M29.0542026,41.5094288 C26.5762026,41.6474288 24.0872026,42.1594288 21.6082026,42.3924288 C21.2232026,42.4284288 21.2172026,42.9654288 21.6082026,42.9944288 C24.0502026,43.1764288 26.7972026,43.0544288 29.1892026,42.5074288 C29.7432026,42.3784288 29.6272026,41.4774288 29.0542026,41.5094288" id="Fill-571"></path>
                <path d="M31.8622026,38.6034288 C29.8192026,38.0514288 27.1162026,38.8764288 25.0422026,39.1944288 C22.9212026,39.5204288 20.5102026,39.8684288 18.7782026,41.2174288 C18.6622026,41.3074288 18.7542026,41.5354288 18.9012026,41.5144288 C21.2982026,41.2034288 23.6162026,40.5344288 26.0452026,40.2954288 C27.9162026,40.1134288 30.3292026,40.3434288 31.9522026,39.2994288 C32.2242026,39.1254288 32.1912026,38.6944288 31.8622026,38.6034288" id="Fill-572"></path>
                <path d="M6.42820258,23.1804288 C5.23920258,22.7154288 3.11220258,23.4114288 3.08520258,24.8714288 C3.07720258,25.3014288 3.59520258,25.6194288 3.96720258,25.3744288 C4.28320258,25.1734288 4.55220258,24.8904288 4.91220258,24.7764288 C5.34120258,24.6394288 5.78320258,24.7634288 6.21720258,24.7264288 C7.12420258,24.6434288 7.26320258,23.5054288 6.42820258,23.1804288" id="Fill-573"></path>
                <path d="M38.0162026,21.3274288 C37.5582026,20.9594288 36.9392026,21.1324288 36.4132026,21.2884288 C35.9382026,21.4264288 35.4512026,21.7944288 35.3732026,22.2934288 C35.3402026,22.4994288 35.4612026,22.7564288 35.7082026,22.7374288 C36.0772026,22.7064288 36.3912026,22.5934288 36.7492026,22.5114288 C37.1442026,22.4204288 37.7282026,22.3824288 38.0162026,22.0984288 C38.2092026,21.9084288 38.2472026,21.5124288 38.0162026,21.3274288" id="Fill-574"></path>
            </g>
        </g>
    </g>
</svg>